<svg xmlns="http://www.w3.org/2000/svg" xmlns:xlink="http://www.w3.org/1999/xlink" width="1240" height="368.386" viewBox="0 0 1240 368.386">
  <defs>
    <linearGradient id="linear-gradient" x1="0.341" y1="-0.078" x2="-0.129" y2="1.203" gradientUnits="objectBoundingBox">
      <stop offset="0" stop-color="#eef5f9"/>
      <stop offset="1" stop-color="#ebfef7"/>
    </linearGradient>
    <linearGradient id="linear-gradient-2" x1="0.5" x2="0.5" y2="1" gradientUnits="objectBoundingBox">
      <stop offset="0" stop-color="#fff" stop-opacity="0"/>
      <stop offset="1" stop-color="#fff"/>
    </linearGradient>
    <clipPath id="clip-path">
      <rect id="Rectángulo_291984" data-name="Rectángulo 291984" width="59" height="55" transform="translate(330 2858)" fill="#e6ff48"/>
    </clipPath>
    <clipPath id="clip-path-2">
      <rect id="Rectángulo_292002" data-name="Rectángulo 292002" width="59" height="55" transform="translate(624 2858)" fill="#e6ff48"/>
    </clipPath>
    <clipPath id="clip-path-3">
      <rect id="Rectángulo_291988" data-name="Rectángulo 291988" width="59" height="55" transform="translate(919 2858)" fill="#e6ff48"/>
    </clipPath>
    <clipPath id="clip-path-4">
      <rect id="Rectángulo_291990" data-name="Rectángulo 291990" width="59" height="55" transform="translate(1213 2858)" fill="#e6ff48"/>
    </clipPath>
    <clipPath id="clip-path-5">
      <rect id="Rectángulo_291985" data-name="Rectángulo 291985" width="59" height="55" transform="translate(477 2981)" fill="#e6ff48"/>
    </clipPath>
    <clipPath id="clip-path-6">
      <rect id="Rectángulo_291987" data-name="Rectángulo 291987" width="59" height="55" transform="translate(771 2981)" fill="#e6ff48"/>
    </clipPath>
    <clipPath id="clip-path-7">
      <rect id="Rectángulo_292003" data-name="Rectángulo 292003" width="59" height="55" transform="translate(624 2897.127)" fill="#e6ff48"/>
    </clipPath>
  </defs>
  <g id="Grupo_876215" data-name="Grupo 876215" transform="translate(-180 -2844.324)">
    <g id="Grupo_875520" data-name="Grupo 875520" transform="translate(-105 1482.872)">
      <g id="Grupo_875469" data-name="Grupo 875469" transform="translate(285 1361.452)">
        <g id="Grupo_875440" data-name="Grupo 875440" transform="translate(1240 368.386) rotate(180)">
          <path id="Trazado_596408" data-name="Trazado 596408" d="M0,0H1240V368.386H0Z" fill="url(#linear-gradient)"/>
          <path id="Trazado_599230" data-name="Trazado 599230" d="M0,0Z" transform="translate(1240 0.306) rotate(180)" fill="url(#linear-gradient-2)"/>
        </g>
      </g>
    </g>
    <path id="Trazado_599870" data-name="Trazado 599870" d="M37.533,11.269V16H35.939V3.914H40.4a4.478,4.478,0,0,1,3.109,1.013A3.433,3.433,0,0,1,44.63,7.608a3.388,3.388,0,0,1-1.1,2.71,4.678,4.678,0,0,1-3.15.95Zm0-1.3H40.4a2.863,2.863,0,0,0,1.959-.6,2.2,2.2,0,0,0,.681-1.742,2.277,2.277,0,0,0-.681-1.73,2.682,2.682,0,0,0-1.868-.674H37.533Zm8.375,1.461a5.3,5.3,0,0,1,.519-2.374,3.87,3.87,0,0,1,1.444-1.627,3.932,3.932,0,0,1,2.113-.573,3.788,3.788,0,0,1,2.968,1.27A4.886,4.886,0,0,1,54.084,11.5v.108a5.351,5.351,0,0,1-.5,2.353,3.813,3.813,0,0,1-1.436,1.623A3.977,3.977,0,0,1,50,16.166a3.778,3.778,0,0,1-2.959-1.27,4.861,4.861,0,0,1-1.133-3.362Zm1.544.183a3.842,3.842,0,0,0,.693,2.4A2.349,2.349,0,0,0,51.86,14a4.2,4.2,0,0,0,.689-2.569,3.836,3.836,0,0,0-.7-2.395,2.23,2.23,0,0,0-1.864-.917,2.205,2.205,0,0,0-1.834.9A4.17,4.17,0,0,0,47.452,11.609ZM57.679,16H56.143V3.25h1.536ZM61.8,16H60.26V7.019H61.8Zm.017-12.725H63.68l-2.225,2.44-1.237,0Zm4.6,1.569V7.019H68.1V8.206H66.419v5.577a1.247,1.247,0,0,0,.224.81.943.943,0,0,0,.764.27,3.718,3.718,0,0,0,.73-.1V16a4.478,4.478,0,0,1-1.179.165,1.912,1.912,0,0,1-1.552-.623,2.675,2.675,0,0,1-.523-1.768V8.206H63.249V7.019h1.635V4.844ZM71.558,16H70.022V7.019h1.536ZM69.9,4.636a.917.917,0,0,1,.228-.631.857.857,0,0,1,.677-.257.87.87,0,0,1,.681.257.907.907,0,0,1,.232.631.877.877,0,0,1-.232.623.886.886,0,0,1-.681.249.872.872,0,0,1-.677-.249A.886.886,0,0,1,69.9,4.636Zm7.72,10.276a2.212,2.212,0,0,0,1.436-.5,1.752,1.752,0,0,0,.681-1.245h1.453a2.785,2.785,0,0,1-.531,1.469,3.5,3.5,0,0,1-1.307,1.112,3.772,3.772,0,0,1-1.731.415A3.7,3.7,0,0,1,74.7,14.942a4.877,4.877,0,0,1-1.083-3.349v-.257A5.407,5.407,0,0,1,74.1,9,3.667,3.667,0,0,1,75.48,7.417a3.926,3.926,0,0,1,2.129-.564,3.6,3.6,0,0,1,2.511.9,3.234,3.234,0,0,1,1.067,2.349H79.734a2.116,2.116,0,0,0-.66-1.432,2.053,2.053,0,0,0-1.465-.56,2.149,2.149,0,0,0-1.814.843,3.957,3.957,0,0,0-.643,2.436v.291a3.878,3.878,0,0,0,.639,2.391A2.16,2.16,0,0,0,77.617,14.913Zm4.889-3.486a5.3,5.3,0,0,1,.519-2.374,3.87,3.87,0,0,1,1.444-1.627,3.932,3.932,0,0,1,2.113-.573,3.788,3.788,0,0,1,2.968,1.27A4.886,4.886,0,0,1,90.683,11.5v.108a5.351,5.351,0,0,1-.5,2.353,3.813,3.813,0,0,1-1.436,1.623,3.977,3.977,0,0,1-2.146.581,3.778,3.778,0,0,1-2.959-1.27,4.861,4.861,0,0,1-1.133-3.362Zm1.544.183a3.842,3.842,0,0,0,.693,2.4A2.349,2.349,0,0,0,88.458,14a4.2,4.2,0,0,0,.689-2.569,3.836,3.836,0,0,0-.7-2.395,2.23,2.23,0,0,0-1.864-.917,2.205,2.205,0,0,0-1.834.9A4.17,4.17,0,0,0,84.05,11.609Zm13.788,2.009a1.131,1.131,0,0,0-.469-.967,4.514,4.514,0,0,0-1.635-.594,7.731,7.731,0,0,1-1.851-.6,2.633,2.633,0,0,1-1.013-.83,1.986,1.986,0,0,1-.328-1.146,2.33,2.33,0,0,1,.934-1.868,3.647,3.647,0,0,1,2.386-.764,3.753,3.753,0,0,1,2.478.789,2.5,2.5,0,0,1,.95,2.017H97.747a1.386,1.386,0,0,0-.535-1.087,2.006,2.006,0,0,0-1.349-.457,2.1,2.1,0,0,0-1.312.365,1.15,1.15,0,0,0-.473.955.932.932,0,0,0,.44.838,5.413,5.413,0,0,0,1.59.54,8.283,8.283,0,0,1,1.864.614,2.718,2.718,0,0,1,1.058.859,2.112,2.112,0,0,1,.344,1.224,2.3,2.3,0,0,1-.963,1.93,4.039,4.039,0,0,1-2.5.726A4.523,4.523,0,0,1,94,15.784a3.105,3.105,0,0,1-1.3-1.067,2.571,2.571,0,0,1-.469-1.482h1.536a1.59,1.59,0,0,0,.618,1.224,2.4,2.4,0,0,0,1.523.452,2.476,2.476,0,0,0,1.4-.353A1.084,1.084,0,0,0,97.838,13.618Zm10.683.133,2.092-6.732h1.644l-3.611,10.368q-.838,2.241-2.665,2.241l-.291-.025-.573-.108V18.25l.415.033a2.043,2.043,0,0,0,1.216-.315,2.283,2.283,0,0,0,.718-1.154l.34-.913-3.2-8.882h1.677ZM8.389,33.435a5.279,5.279,0,0,1,.971-3.341,3.106,3.106,0,0,1,2.573-1.241A3.09,3.09,0,0,1,14.5,30.015l.075-1h1.4v8.766a3.654,3.654,0,0,1-1.033,2.748,3.814,3.814,0,0,1-2.777,1,4.619,4.619,0,0,1-1.9-.415,3.272,3.272,0,0,1-1.419-1.137l.8-.921a3,3,0,0,0,2.416,1.22,2.353,2.353,0,0,0,1.747-.631,2.411,2.411,0,0,0,.627-1.776V37.1a3.156,3.156,0,0,1-2.515,1.063A3.068,3.068,0,0,1,9.364,36.9,5.55,5.55,0,0,1,8.389,33.435Zm1.544.174A4.027,4.027,0,0,0,10.555,36a2.023,2.023,0,0,0,1.743.867,2.249,2.249,0,0,0,2.133-1.32v-4.1a2.276,2.276,0,0,0-2.117-1.287,2.041,2.041,0,0,0-1.751.872A4.386,4.386,0,0,0,9.933,33.609Zm13.9,3.5a3.262,3.262,0,0,1-2.631,1.054,2.792,2.792,0,0,1-2.187-.834,3.611,3.611,0,0,1-.76-2.469V29.019h1.536v5.8q0,2.042,1.66,2.042a2.3,2.3,0,0,0,2.341-1.312V29.019h1.536V38H23.87Zm11.43-3.5a5.34,5.34,0,0,1-.946,3.308,3.024,3.024,0,0,1-2.54,1.249,3.131,3.131,0,0,1-2.631-1.2L29.074,38H27.663V25.25H29.2v4.756a3.113,3.113,0,0,1,2.565-1.154,3.042,3.042,0,0,1,2.569,1.237,5.5,5.5,0,0,1,.934,3.387Zm-1.536-.174a4.15,4.15,0,0,0-.606-2.424,2.006,2.006,0,0,0-1.743-.855A2.255,2.255,0,0,0,29.2,31.567v3.885a2.318,2.318,0,0,0,2.2,1.411,2,2,0,0,0,1.718-.855A4.413,4.413,0,0,0,33.731,33.435Zm7.2,4.731a3.924,3.924,0,0,1-2.972-1.2,4.452,4.452,0,0,1-1.146-3.208v-.282a5.39,5.39,0,0,1,.51-2.386,3.982,3.982,0,0,1,1.428-1.644,3.59,3.59,0,0,1,1.988-.594,3.364,3.364,0,0,1,2.723,1.154,5,5,0,0,1,.971,3.3v.639H38.346a3.193,3.193,0,0,0,.776,2.146,2.44,2.44,0,0,0,1.888.818,2.675,2.675,0,0,0,1.378-.332,3.462,3.462,0,0,0,.988-.88l.938.73A3.772,3.772,0,0,1,40.928,38.166Zm-.191-8.052a2.048,2.048,0,0,0-1.561.677,3.288,3.288,0,0,0-.78,1.9h4.5v-.116a2.925,2.925,0,0,0-.631-1.814A1.928,1.928,0,0,0,40.737,30.114Zm9.812.282a4.6,4.6,0,0,0-.755-.058,2.024,2.024,0,0,0-2.05,1.287V38H46.207V29.019H47.7l.025,1.038a2.391,2.391,0,0,1,2.142-1.2,1.569,1.569,0,0,1,.681.116Zm2.864-1.378.05,1.129a3.273,3.273,0,0,1,2.689-1.295q2.847,0,2.872,3.212V38H57.488V32.057a2.068,2.068,0,0,0-.444-1.436,1.78,1.78,0,0,0-1.357-.465,2.216,2.216,0,0,0-1.312.4A2.706,2.706,0,0,0,53.5,31.6V38H51.959V29.019ZM66.884,38a3.226,3.226,0,0,1-.216-.946,3.426,3.426,0,0,1-2.557,1.112,3.17,3.17,0,0,1-2.179-.751,2.43,2.43,0,0,1-.851-1.905,2.539,2.539,0,0,1,1.067-2.179,5.029,5.029,0,0,1,3-.776h1.494v-.706a1.725,1.725,0,0,0-.481-1.282,1.935,1.935,0,0,0-1.419-.477,2.239,2.239,0,0,0-1.378.415,1.223,1.223,0,0,0-.556,1H61.265a2.119,2.119,0,0,1,.477-1.3,3.258,3.258,0,0,1,1.295-.992,4.356,4.356,0,0,1,1.8-.365,3.551,3.551,0,0,1,2.432.776,2.8,2.8,0,0,1,.913,2.137V35.9a5.054,5.054,0,0,0,.315,1.967V38Zm-2.548-1.17a2.7,2.7,0,0,0,1.37-.374,2.259,2.259,0,0,0,.938-.971V33.642h-1.2q-2.822,0-2.822,1.652a1.4,1.4,0,0,0,.481,1.129A1.85,1.85,0,0,0,64.336,36.83Zm7.695-7.811.042,1a3.317,3.317,0,0,1,2.665-1.162A2.568,2.568,0,0,1,77.3,30.3a3.4,3.4,0,0,1,1.166-1.046,3.445,3.445,0,0,1,1.7-.4q2.955,0,3,3.129V38H81.635V32.073a2.062,2.062,0,0,0-.44-1.44,1.937,1.937,0,0,0-1.478-.477,2.036,2.036,0,0,0-1.419.51,2.071,2.071,0,0,0-.656,1.374V38H76.1V32.115a1.713,1.713,0,0,0-1.917-1.959,2.055,2.055,0,0,0-2.067,1.287V38H70.578V29.019Zm17.183,9.147a3.924,3.924,0,0,1-2.972-1.2A4.452,4.452,0,0,1,85.1,33.758v-.282a5.39,5.39,0,0,1,.51-2.386,3.982,3.982,0,0,1,1.428-1.644,3.59,3.59,0,0,1,1.988-.594,3.364,3.364,0,0,1,2.723,1.154,5,5,0,0,1,.971,3.3v.639H86.632a3.193,3.193,0,0,0,.776,2.146,2.44,2.44,0,0,0,1.888.818,2.675,2.675,0,0,0,1.378-.332,3.462,3.462,0,0,0,.988-.88l.938.73A3.772,3.772,0,0,1,89.213,38.166Zm-.191-8.052a2.048,2.048,0,0,0-1.561.677,3.288,3.288,0,0,0-.78,1.9h4.5v-.116a2.925,2.925,0,0,0-.631-1.814A1.928,1.928,0,0,0,89.022,30.114Zm6.923-1.1L96,30.147a3.273,3.273,0,0,1,2.689-1.295q2.847,0,2.872,3.212V38h-1.536V32.057a2.068,2.068,0,0,0-.444-1.436,1.78,1.78,0,0,0-1.357-.465,2.216,2.216,0,0,0-1.312.4,2.706,2.706,0,0,0-.88,1.046V38H94.493V29.019Zm10.011-2.175v2.175h1.677v1.187h-1.677v5.577a1.247,1.247,0,0,0,.224.81.943.943,0,0,0,.764.27,3.718,3.718,0,0,0,.73-.1V38a4.478,4.478,0,0,1-1.179.165,1.912,1.912,0,0,1-1.552-.623,2.675,2.675,0,0,1-.523-1.768v-5.57h-1.635V29.019h1.635V26.844ZM114.971,38a3.226,3.226,0,0,1-.216-.946,3.426,3.426,0,0,1-2.557,1.112,3.17,3.17,0,0,1-2.179-.751,2.43,2.43,0,0,1-.851-1.905,2.539,2.539,0,0,1,1.067-2.179,5.029,5.029,0,0,1,3-.776h1.494v-.706a1.725,1.725,0,0,0-.481-1.282,1.935,1.935,0,0,0-1.419-.477,2.239,2.239,0,0,0-1.378.415,1.223,1.223,0,0,0-.556,1h-1.544a2.119,2.119,0,0,1,.477-1.3,3.258,3.258,0,0,1,1.295-.992,4.356,4.356,0,0,1,1.8-.365,3.551,3.551,0,0,1,2.432.776,2.8,2.8,0,0,1,.913,2.137V35.9a5.054,5.054,0,0,0,.315,1.967V38Zm-2.548-1.17a2.7,2.7,0,0,0,1.37-.374,2.259,2.259,0,0,0,.938-.971V33.642h-1.2q-2.822,0-2.822,1.652a1.4,1.4,0,0,0,.481,1.129A1.85,1.85,0,0,0,112.422,36.83ZM120.341,38h-1.536V25.25h1.536Zm6.184.166a3.924,3.924,0,0,1-2.972-1.2,4.452,4.452,0,0,1-1.146-3.208v-.282a5.39,5.39,0,0,1,.51-2.386,3.982,3.982,0,0,1,1.428-1.644,3.59,3.59,0,0,1,1.988-.594,3.364,3.364,0,0,1,2.723,1.154,5,5,0,0,1,.971,3.3v.639h-6.084a3.193,3.193,0,0,0,.776,2.146,2.44,2.44,0,0,0,1.888.818,2.675,2.675,0,0,0,1.378-.332,3.462,3.462,0,0,0,.988-.88l.938.73A3.772,3.772,0,0,1,126.525,38.166Zm-.191-8.052a2.048,2.048,0,0,0-1.561.677,3.288,3.288,0,0,0-.78,1.9h4.5v-.116a2.925,2.925,0,0,0-.631-1.814A1.928,1.928,0,0,0,126.334,30.114Zm10.7,5.5a1.13,1.13,0,0,0-.469-.967,4.514,4.514,0,0,0-1.635-.594,7.731,7.731,0,0,1-1.851-.6,2.633,2.633,0,0,1-1.013-.83,1.986,1.986,0,0,1-.328-1.146,2.33,2.33,0,0,1,.934-1.868,3.647,3.647,0,0,1,2.386-.764,3.753,3.753,0,0,1,2.478.789,2.5,2.5,0,0,1,.95,2.017h-1.544a1.386,1.386,0,0,0-.535-1.087,2.006,2.006,0,0,0-1.349-.457,2.1,2.1,0,0,0-1.312.365,1.15,1.15,0,0,0-.473.955.932.932,0,0,0,.44.838,5.413,5.413,0,0,0,1.59.54,8.283,8.283,0,0,1,1.864.614,2.718,2.718,0,0,1,1.058.859,2.112,2.112,0,0,1,.344,1.224,2.3,2.3,0,0,1-.963,1.93,4.039,4.039,0,0,1-2.5.726,4.523,4.523,0,0,1-1.909-.382,3.105,3.105,0,0,1-1.3-1.067,2.571,2.571,0,0,1-.469-1.482h1.536a1.59,1.59,0,0,0,.618,1.224,2.4,2.4,0,0,0,1.523.452,2.476,2.476,0,0,0,1.4-.353A1.084,1.084,0,0,0,137.034,35.618Z" transform="translate(285 3126.416)" fill="#12263f"/>
    <path id="Trazado_599871" data-name="Trazado 599871" d="M29.161,11.269V16H27.568V3.914h4.458a4.478,4.478,0,0,1,3.109,1.013,3.433,3.433,0,0,1,1.125,2.681,3.388,3.388,0,0,1-1.1,2.71,4.678,4.678,0,0,1-3.15.95Zm0-1.3h2.864a2.863,2.863,0,0,0,1.959-.6,2.2,2.2,0,0,0,.681-1.742,2.277,2.277,0,0,0-.681-1.73,2.682,2.682,0,0,0-1.868-.674H29.161ZM42.393,8.4a4.6,4.6,0,0,0-.755-.058,2.024,2.024,0,0,0-2.05,1.287V16H38.052V7.019h1.494l.025,1.038a2.391,2.391,0,0,1,2.142-1.2,1.569,1.569,0,0,1,.681.116Zm.838,3.03a5.3,5.3,0,0,1,.519-2.374,3.87,3.87,0,0,1,1.444-1.627,3.932,3.932,0,0,1,2.113-.573,3.788,3.788,0,0,1,2.968,1.27A4.886,4.886,0,0,1,51.407,11.5v.108a5.351,5.351,0,0,1-.5,2.353,3.813,3.813,0,0,1-1.436,1.623,3.977,3.977,0,0,1-2.146.581,3.778,3.778,0,0,1-2.959-1.27,4.861,4.861,0,0,1-1.133-3.362Zm1.544.183a3.842,3.842,0,0,0,.693,2.4A2.349,2.349,0,0,0,49.183,14a4.2,4.2,0,0,0,.689-2.569,3.836,3.836,0,0,0-.7-2.395,2.23,2.23,0,0,0-1.864-.917,2.205,2.205,0,0,0-1.834.9A4.17,4.17,0,0,0,44.775,11.609Zm11.4,2.308,2.225-6.9h1.569L56.745,16h-1.17L52.321,7.019h1.569Zm8.89,2.25a3.924,3.924,0,0,1-2.972-1.2,4.452,4.452,0,0,1-1.146-3.208v-.282a5.39,5.39,0,0,1,.51-2.386,3.982,3.982,0,0,1,1.428-1.644,3.59,3.59,0,0,1,1.988-.594,3.364,3.364,0,0,1,2.723,1.154,5,5,0,0,1,.971,3.3v.639H62.481a3.193,3.193,0,0,0,.776,2.146,2.44,2.44,0,0,0,1.888.818,2.675,2.675,0,0,0,1.378-.332,3.462,3.462,0,0,0,.988-.88l.938.73A3.772,3.772,0,0,1,65.062,16.166Zm-.191-8.052a2.048,2.048,0,0,0-1.561.677,3.288,3.288,0,0,0-.78,1.9h4.5v-.116A2.925,2.925,0,0,0,66.4,8.758,1.928,1.928,0,0,0,64.871,8.114Zm9.2,8.052a3.924,3.924,0,0,1-2.972-1.2,4.452,4.452,0,0,1-1.146-3.208v-.282a5.39,5.39,0,0,1,.51-2.386A3.982,3.982,0,0,1,71.89,7.446a3.59,3.59,0,0,1,1.988-.594A3.364,3.364,0,0,1,76.6,8.006a5,5,0,0,1,.971,3.3v.639H71.487a3.193,3.193,0,0,0,.776,2.146,2.44,2.44,0,0,0,1.888.818,2.675,2.675,0,0,0,1.378-.332,3.462,3.462,0,0,0,.988-.88l.938.73A3.772,3.772,0,0,1,74.069,16.166Zm-.191-8.052a2.048,2.048,0,0,0-1.561.677,3.288,3.288,0,0,0-.78,1.9h4.5v-.116a2.925,2.925,0,0,0-.631-1.814A1.928,1.928,0,0,0,73.878,8.114Zm5.1,3.32a5.261,5.261,0,0,1,.979-3.324,3.333,3.333,0,0,1,5.063-.178V3.25h1.536V16H85.142l-.075-.963A3.127,3.127,0,0,1,82.5,16.166a3.068,3.068,0,0,1-2.544-1.278,5.321,5.321,0,0,1-.984-3.337Zm1.536.174A3.984,3.984,0,0,0,81.141,14a2.039,2.039,0,0,0,1.743.863,2.24,2.24,0,0,0,2.133-1.312V9.426A2.257,2.257,0,0,0,82.9,8.156a2.049,2.049,0,0,0-1.76.872A4.386,4.386,0,0,0,80.51,11.609Zm8.019-.183a5.3,5.3,0,0,1,.519-2.374,3.87,3.87,0,0,1,1.444-1.627A3.932,3.932,0,0,1,92.6,6.853a3.788,3.788,0,0,1,2.968,1.27A4.886,4.886,0,0,1,96.7,11.5v.108a5.351,5.351,0,0,1-.5,2.353,3.813,3.813,0,0,1-1.436,1.623,3.977,3.977,0,0,1-2.146.581,3.778,3.778,0,0,1-2.959-1.27,4.861,4.861,0,0,1-1.133-3.362Zm1.544.183a3.842,3.842,0,0,0,.693,2.4A2.349,2.349,0,0,0,94.48,14a4.2,4.2,0,0,0,.689-2.569,3.836,3.836,0,0,0-.7-2.395A2.23,2.23,0,0,0,92.6,8.114a2.205,2.205,0,0,0-1.834.9A4.17,4.17,0,0,0,90.073,11.609Zm12.9-3.212a4.6,4.6,0,0,0-.755-.058,2.024,2.024,0,0,0-2.05,1.287V16H98.631V7.019h1.494l.025,1.038a2.391,2.391,0,0,1,2.142-1.2,1.569,1.569,0,0,1,.681.116Zm4.98,7.77a3.924,3.924,0,0,1-2.972-1.2,4.452,4.452,0,0,1-1.146-3.208v-.282a5.39,5.39,0,0,1,.51-2.386,3.982,3.982,0,0,1,1.428-1.644,3.59,3.59,0,0,1,1.988-.594,3.364,3.364,0,0,1,2.723,1.154,5,5,0,0,1,.971,3.3v.639h-6.084a3.193,3.193,0,0,0,.776,2.146,2.44,2.44,0,0,0,1.888.818,2.675,2.675,0,0,0,1.378-.332,3.462,3.462,0,0,0,.988-.88l.938.73A3.772,3.772,0,0,1,107.952,16.166Zm-.191-8.052a2.048,2.048,0,0,0-1.561.677,3.288,3.288,0,0,0-.78,1.9h4.5v-.116a2.925,2.925,0,0,0-.631-1.814A1.928,1.928,0,0,0,107.761,8.114Zm10.7,5.5a1.131,1.131,0,0,0-.469-.967,4.514,4.514,0,0,0-1.635-.594,7.731,7.731,0,0,1-1.851-.6,2.633,2.633,0,0,1-1.013-.83,1.986,1.986,0,0,1-.328-1.146,2.33,2.33,0,0,1,.934-1.868,3.647,3.647,0,0,1,2.386-.764,3.753,3.753,0,0,1,2.478.789,2.5,2.5,0,0,1,.95,2.017H118.37a1.386,1.386,0,0,0-.535-1.087,2.006,2.006,0,0,0-1.349-.457,2.1,2.1,0,0,0-1.312.365,1.15,1.15,0,0,0-.473.955.932.932,0,0,0,.44.838,5.413,5.413,0,0,0,1.59.54,8.283,8.283,0,0,1,1.864.614,2.718,2.718,0,0,1,1.058.859A2.112,2.112,0,0,1,120,13.51a2.3,2.3,0,0,1-.963,1.93,4.039,4.039,0,0,1-2.5.726,4.523,4.523,0,0,1-1.909-.382,3.105,3.105,0,0,1-1.3-1.067,2.571,2.571,0,0,1-.469-1.482h1.536a1.59,1.59,0,0,0,.618,1.224,2.4,2.4,0,0,0,1.523.452,2.476,2.476,0,0,0,1.4-.353A1.084,1.084,0,0,0,118.461,13.618Z" transform="translate(580 3126.416)" fill="#12263f"/>
    <path id="Trazado_599872" data-name="Trazado 599872" d="M32.681,5.217H28.8V16H27.211V5.217H23.334v-1.3h9.347Zm4.458,10.949a3.924,3.924,0,0,1-2.972-1.2,4.452,4.452,0,0,1-1.146-3.208v-.282a5.39,5.39,0,0,1,.51-2.386,3.982,3.982,0,0,1,1.428-1.644,3.59,3.59,0,0,1,1.988-.594A3.364,3.364,0,0,1,39.67,8.006a5,5,0,0,1,.971,3.3v.639H34.557a3.193,3.193,0,0,0,.776,2.146,2.44,2.44,0,0,0,1.888.818,2.675,2.675,0,0,0,1.378-.332,3.462,3.462,0,0,0,.988-.88l.938.73A3.772,3.772,0,0,1,37.138,16.166Zm-.191-8.052a2.048,2.048,0,0,0-1.561.677,3.288,3.288,0,0,0-.78,1.9h4.5v-.116a2.925,2.925,0,0,0-.631-1.814A1.928,1.928,0,0,0,36.948,8.114Zm9.073,6.8a2.212,2.212,0,0,0,1.436-.5,1.752,1.752,0,0,0,.681-1.245H49.59a2.785,2.785,0,0,1-.531,1.469,3.5,3.5,0,0,1-1.307,1.112,3.772,3.772,0,0,1-1.731.415A3.7,3.7,0,0,1,43.1,14.942a4.877,4.877,0,0,1-1.083-3.349v-.257A5.407,5.407,0,0,1,42.5,9a3.667,3.667,0,0,1,1.382-1.585,3.926,3.926,0,0,1,2.129-.564,3.6,3.6,0,0,1,2.511.9,3.234,3.234,0,0,1,1.067,2.349H48.137a2.116,2.116,0,0,0-.66-1.432,2.053,2.053,0,0,0-1.465-.56,2.149,2.149,0,0,0-1.814.843,3.957,3.957,0,0,0-.643,2.436v.291a3.878,3.878,0,0,0,.639,2.391A2.16,2.16,0,0,0,46.02,14.913Zm6.749-7.894.05,1.129a3.273,3.273,0,0,1,2.689-1.295q2.847,0,2.872,3.212V16H56.844V10.057A2.068,2.068,0,0,0,56.4,8.621a1.78,1.78,0,0,0-1.357-.465,2.216,2.216,0,0,0-1.312.4,2.706,2.706,0,0,0-.88,1.046V16H51.316V7.019Zm7.521,4.408a5.3,5.3,0,0,1,.519-2.374,3.87,3.87,0,0,1,1.444-1.627,3.932,3.932,0,0,1,2.113-.573,3.788,3.788,0,0,1,2.968,1.27A4.886,4.886,0,0,1,68.466,11.5v.108a5.351,5.351,0,0,1-.5,2.353,3.813,3.813,0,0,1-1.436,1.623,3.977,3.977,0,0,1-2.146.581,3.778,3.778,0,0,1-2.959-1.27,4.861,4.861,0,0,1-1.133-3.362Zm1.544.183a3.842,3.842,0,0,0,.693,2.4A2.349,2.349,0,0,0,66.241,14a4.2,4.2,0,0,0,.689-2.569,3.836,3.836,0,0,0-.7-2.395,2.23,2.23,0,0,0-1.864-.917,2.205,2.205,0,0,0-1.834.9A4.17,4.17,0,0,0,61.833,11.609ZM72.06,16H70.524V3.25H72.06Zm2.05-4.574a5.3,5.3,0,0,1,.519-2.374,3.87,3.87,0,0,1,1.444-1.627,3.932,3.932,0,0,1,2.113-.573,3.788,3.788,0,0,1,2.968,1.27A4.886,4.886,0,0,1,82.286,11.5v.108a5.351,5.351,0,0,1-.5,2.353,3.813,3.813,0,0,1-1.436,1.623,3.977,3.977,0,0,1-2.146.581,3.778,3.778,0,0,1-2.959-1.27,4.861,4.861,0,0,1-1.133-3.362Zm1.544.183a3.842,3.842,0,0,0,.693,2.4A2.349,2.349,0,0,0,80.062,14a4.2,4.2,0,0,0,.689-2.569,3.836,3.836,0,0,0-.7-2.395,2.23,2.23,0,0,0-1.864-.917,2.205,2.205,0,0,0-1.834.9A4.17,4.17,0,0,0,75.654,11.609Zm3.229-8.342h1.859l-2.225,2.44-1.237,0Zm4.964,8.168a5.279,5.279,0,0,1,.971-3.341,3.348,3.348,0,0,1,5.138-.079l.075-1h1.4v8.766A3.654,3.654,0,0,1,90.4,18.532a3.814,3.814,0,0,1-2.777,1,4.619,4.619,0,0,1-1.9-.415A3.272,3.272,0,0,1,84.3,17.984l.8-.921a3,3,0,0,0,2.416,1.22,2.353,2.353,0,0,0,1.747-.631,2.411,2.411,0,0,0,.627-1.776V15.1a3.156,3.156,0,0,1-2.515,1.063,3.068,3.068,0,0,1-2.552-1.27A5.55,5.55,0,0,1,83.847,11.435Zm1.544.174A4.027,4.027,0,0,0,86.013,14a2.023,2.023,0,0,0,1.743.867,2.249,2.249,0,0,0,2.133-1.32v-4.1a2.276,2.276,0,0,0-2.117-1.287,2.041,2.041,0,0,0-1.751.872A4.386,4.386,0,0,0,85.391,11.609ZM95.418,16H93.883V7.019h1.536ZM93.758,4.636a.917.917,0,0,1,.228-.631.857.857,0,0,1,.677-.257.87.87,0,0,1,.681.257.907.907,0,0,1,.232.631.877.877,0,0,1-.232.623.886.886,0,0,1-.681.249.872.872,0,0,1-.677-.249A.886.886,0,0,1,93.758,4.636Zm7.72,10.276a2.212,2.212,0,0,0,1.436-.5,1.752,1.752,0,0,0,.681-1.245h1.453a2.785,2.785,0,0,1-.531,1.469,3.5,3.5,0,0,1-1.307,1.112,3.772,3.772,0,0,1-1.731.415,3.7,3.7,0,0,1-2.918-1.224,4.877,4.877,0,0,1-1.083-3.349v-.257A5.407,5.407,0,0,1,97.958,9,3.667,3.667,0,0,1,99.34,7.417a3.926,3.926,0,0,1,2.129-.564,3.6,3.6,0,0,1,2.511.9,3.234,3.234,0,0,1,1.067,2.349h-1.453a2.116,2.116,0,0,0-.66-1.432,2.053,2.053,0,0,0-1.465-.56,2.149,2.149,0,0,0-1.814.843,3.957,3.957,0,0,0-.643,2.436v.291a3.878,3.878,0,0,0,.639,2.391A2.16,2.16,0,0,0,101.478,14.913Zm4.889-3.486a5.3,5.3,0,0,1,.519-2.374,3.87,3.87,0,0,1,1.444-1.627,3.932,3.932,0,0,1,2.113-.573,3.788,3.788,0,0,1,2.968,1.27,4.886,4.886,0,0,1,1.133,3.378v.108a5.351,5.351,0,0,1-.5,2.353,3.813,3.813,0,0,1-1.436,1.623,3.977,3.977,0,0,1-2.146.581A3.778,3.778,0,0,1,107.5,14.9a4.861,4.861,0,0,1-1.133-3.362Zm1.544.183a3.842,3.842,0,0,0,.693,2.4A2.349,2.349,0,0,0,112.319,14a4.2,4.2,0,0,0,.689-2.569,3.836,3.836,0,0,0-.7-2.395,2.23,2.23,0,0,0-1.864-.917,2.205,2.205,0,0,0-1.834.9A4.17,4.17,0,0,0,107.911,11.609ZM121.7,13.618a1.131,1.131,0,0,0-.469-.967,4.514,4.514,0,0,0-1.635-.594,7.731,7.731,0,0,1-1.851-.6,2.633,2.633,0,0,1-1.013-.83,1.986,1.986,0,0,1-.328-1.146,2.33,2.33,0,0,1,.934-1.868,3.647,3.647,0,0,1,2.386-.764,3.753,3.753,0,0,1,2.478.789,2.5,2.5,0,0,1,.95,2.017h-1.544a1.386,1.386,0,0,0-.535-1.087,2.006,2.006,0,0,0-1.349-.457,2.1,2.1,0,0,0-1.312.365,1.15,1.15,0,0,0-.473.955.932.932,0,0,0,.44.838,5.413,5.413,0,0,0,1.59.54,8.283,8.283,0,0,1,1.864.614,2.718,2.718,0,0,1,1.058.859,2.112,2.112,0,0,1,.344,1.224,2.3,2.3,0,0,1-.963,1.93,4.039,4.039,0,0,1-2.5.726,4.523,4.523,0,0,1-1.909-.382,3.105,3.105,0,0,1-1.3-1.067,2.571,2.571,0,0,1-.469-1.482h1.536a1.59,1.59,0,0,0,.618,1.224,2.4,2.4,0,0,0,1.523.452,2.476,2.476,0,0,0,1.4-.353A1.084,1.084,0,0,0,121.7,13.618Z" transform="translate(874.5 3126.416)" fill="#12263f"/>
    <path id="Trazado_599873" data-name="Trazado 599873" d="M33.586,12.165a4.447,4.447,0,0,1-1.415,2.959A4.638,4.638,0,0,1,29,16.166a4.259,4.259,0,0,1-3.432-1.536,6.178,6.178,0,0,1-1.291-4.109V9.359a6.886,6.886,0,0,1,.6-2.963,4.5,4.5,0,0,1,1.706-1.963,4.75,4.75,0,0,1,2.557-.685,4.367,4.367,0,0,1,3.088,1.075A4.5,4.5,0,0,1,33.586,7.8h-1.6a3.472,3.472,0,0,0-.9-2.1,2.725,2.725,0,0,0-1.938-.649,2.851,2.851,0,0,0-2.395,1.13A5.187,5.187,0,0,0,25.883,9.4v1.171A5.332,5.332,0,0,0,26.7,13.7,2.655,2.655,0,0,0,29,14.863a3.067,3.067,0,0,0,2.038-.6,3.34,3.34,0,0,0,.942-2.1Zm1.527-.739a5.3,5.3,0,0,1,.519-2.374,3.87,3.87,0,0,1,1.444-1.627,3.932,3.932,0,0,1,2.113-.573,3.788,3.788,0,0,1,2.968,1.27A4.886,4.886,0,0,1,43.289,11.5v.108a5.351,5.351,0,0,1-.5,2.353,3.813,3.813,0,0,1-1.436,1.623,3.977,3.977,0,0,1-2.146.581,3.778,3.778,0,0,1-2.959-1.27,4.861,4.861,0,0,1-1.133-3.362Zm1.544.183a3.842,3.842,0,0,0,.693,2.4A2.349,2.349,0,0,0,41.065,14a4.2,4.2,0,0,0,.689-2.569,3.836,3.836,0,0,0-.7-2.395,2.23,2.23,0,0,0-1.864-.917,2.205,2.205,0,0,0-1.834.9A4.17,4.17,0,0,0,36.657,11.609Zm10-4.59.042,1a3.317,3.317,0,0,1,2.665-1.162A2.568,2.568,0,0,1,51.93,8.3,3.4,3.4,0,0,1,53.1,7.251a3.445,3.445,0,0,1,1.7-.4q2.955,0,3,3.129V16H56.263V10.073a2.062,2.062,0,0,0-.44-1.44,1.937,1.937,0,0,0-1.478-.477,2.036,2.036,0,0,0-1.419.51,2.071,2.071,0,0,0-.656,1.374V16H50.727V10.115a1.713,1.713,0,0,0-1.917-1.959,2.055,2.055,0,0,0-2.067,1.287V16H45.207V7.019ZM67.7,11.609a5.378,5.378,0,0,1-.938,3.3,3.006,3.006,0,0,1-2.54,1.253,3.294,3.294,0,0,1-2.573-1.038v4.325H60.115V7.019h1.4l.075,1A3.163,3.163,0,0,1,64.2,6.853a3.063,3.063,0,0,1,2.561,1.22,5.437,5.437,0,0,1,.942,3.4Zm-1.536-.174a3.968,3.968,0,0,0-.647-2.4,2.086,2.086,0,0,0-1.776-.88,2.257,2.257,0,0,0-2.092,1.237v4.292a2.262,2.262,0,0,0,2.108,1.229,2.076,2.076,0,0,0,1.756-.876A4.332,4.332,0,0,0,66.166,11.435Zm7.213,4.731a3.924,3.924,0,0,1-2.972-1.2,4.452,4.452,0,0,1-1.146-3.208v-.282a5.39,5.39,0,0,1,.51-2.386A3.982,3.982,0,0,1,71.2,7.446a3.59,3.59,0,0,1,1.988-.594,3.364,3.364,0,0,1,2.723,1.154,5,5,0,0,1,.971,3.3v.639H70.8a3.193,3.193,0,0,0,.776,2.146,2.44,2.44,0,0,0,1.888.818,2.675,2.675,0,0,0,1.378-.332,3.462,3.462,0,0,0,.988-.88l.938.73A3.772,3.772,0,0,1,73.38,16.166Zm-.191-8.052a2.048,2.048,0,0,0-1.561.677,3.288,3.288,0,0,0-.78,1.9h4.5v-.116a2.925,2.925,0,0,0-.631-1.814A1.928,1.928,0,0,0,73.189,8.114Zm7.554-3.271V7.019h1.677V8.206H80.742v5.577a1.247,1.247,0,0,0,.224.81.943.943,0,0,0,.764.27,3.718,3.718,0,0,0,.73-.1V16a4.478,4.478,0,0,1-1.179.165,1.912,1.912,0,0,1-1.552-.623,2.675,2.675,0,0,1-.523-1.768V8.206H77.572V7.019h1.635V4.844Zm7.2,11.322a3.924,3.924,0,0,1-2.972-1.2,4.452,4.452,0,0,1-1.146-3.208v-.282a5.39,5.39,0,0,1,.51-2.386A3.982,3.982,0,0,1,85.76,7.446a3.59,3.59,0,0,1,1.988-.594,3.364,3.364,0,0,1,2.723,1.154,5,5,0,0,1,.971,3.3v.639H85.358a3.193,3.193,0,0,0,.776,2.146,2.44,2.44,0,0,0,1.888.818,2.675,2.675,0,0,0,1.378-.332,3.462,3.462,0,0,0,.988-.88l.938.73A3.772,3.772,0,0,1,87.939,16.166Zm-.191-8.052a2.048,2.048,0,0,0-1.561.677,3.288,3.288,0,0,0-.78,1.9h4.5v-.116a2.925,2.925,0,0,0-.631-1.814A1.928,1.928,0,0,0,87.748,8.114Zm6.923-1.1.05,1.129A3.273,3.273,0,0,1,97.41,6.853q2.847,0,2.872,3.212V16H98.747V10.057A2.068,2.068,0,0,0,98.3,8.621a1.78,1.78,0,0,0-1.357-.465,2.216,2.216,0,0,0-1.312.4,2.706,2.706,0,0,0-.88,1.046V16H93.219V7.019Zm11.53,7.894a2.212,2.212,0,0,0,1.436-.5,1.752,1.752,0,0,0,.681-1.245h1.453a2.785,2.785,0,0,1-.531,1.469,3.5,3.5,0,0,1-1.307,1.112,3.772,3.772,0,0,1-1.731.415,3.7,3.7,0,0,1-2.918-1.224,4.877,4.877,0,0,1-1.083-3.349v-.257A5.407,5.407,0,0,1,102.681,9a3.667,3.667,0,0,1,1.382-1.585,3.926,3.926,0,0,1,2.129-.564,3.6,3.6,0,0,1,2.511.9,3.234,3.234,0,0,1,1.067,2.349h-1.453a2.116,2.116,0,0,0-.66-1.432,2.053,2.053,0,0,0-1.465-.56,2.149,2.149,0,0,0-1.814.843,3.957,3.957,0,0,0-.643,2.436v.291a3.878,3.878,0,0,0,.639,2.391A2.16,2.16,0,0,0,106.2,14.913ZM113.165,16H111.63V7.019h1.536Zm-1.66-11.364a.917.917,0,0,1,.228-.631.857.857,0,0,1,.677-.257.87.87,0,0,1,.681.257.907.907,0,0,1,.232.631.877.877,0,0,1-.232.623.886.886,0,0,1-.681.249.872.872,0,0,1-.677-.249A.886.886,0,0,1,111.505,4.636ZM121.167,16a3.226,3.226,0,0,1-.216-.946,3.426,3.426,0,0,1-2.557,1.112,3.17,3.17,0,0,1-2.179-.751,2.43,2.43,0,0,1-.851-1.905,2.539,2.539,0,0,1,1.067-2.179,5.029,5.029,0,0,1,3-.776h1.494V9.849a1.725,1.725,0,0,0-.481-1.282,1.935,1.935,0,0,0-1.419-.477,2.239,2.239,0,0,0-1.378.415,1.223,1.223,0,0,0-.556,1h-1.544a2.119,2.119,0,0,1,.477-1.3,3.258,3.258,0,0,1,1.295-.992,4.356,4.356,0,0,1,1.8-.365,3.551,3.551,0,0,1,2.432.776,2.8,2.8,0,0,1,.913,2.137V13.9a5.054,5.054,0,0,0,.315,1.967V16Zm-2.548-1.17a2.7,2.7,0,0,0,1.37-.374,2.259,2.259,0,0,0,.938-.971V11.642h-1.2q-2.822,0-2.822,1.652a1.4,1.4,0,0,0,.481,1.129A1.85,1.85,0,0,0,118.619,14.83Z" transform="translate(1168 3126.416)" fill="#12263f"/>
    <path id="Trazado_599874" data-name="Trazado 599874" d="M34.955,10.414H29.718V14.7H35.8V16H28.124V3.914h7.6v1.3h-6V9.11h5.238Zm6.035,4.5a2.212,2.212,0,0,0,1.436-.5,1.752,1.752,0,0,0,.681-1.245h1.453a2.785,2.785,0,0,1-.531,1.469,3.5,3.5,0,0,1-1.307,1.112,3.772,3.772,0,0,1-1.731.415,3.7,3.7,0,0,1-2.918-1.224,4.877,4.877,0,0,1-1.083-3.349v-.257A5.407,5.407,0,0,1,37.47,9a3.667,3.667,0,0,1,1.382-1.585,3.926,3.926,0,0,1,2.129-.564,3.6,3.6,0,0,1,2.511.9,3.234,3.234,0,0,1,1.067,2.349H43.107a2.116,2.116,0,0,0-.66-1.432,2.053,2.053,0,0,0-1.465-.56,2.149,2.149,0,0,0-1.814.843,3.957,3.957,0,0,0-.643,2.436v.291a3.878,3.878,0,0,0,.639,2.391A2.16,2.16,0,0,0,40.99,14.913Zm4.889-3.486A5.3,5.3,0,0,1,46.4,9.052a3.87,3.87,0,0,1,1.444-1.627,3.932,3.932,0,0,1,2.113-.573,3.788,3.788,0,0,1,2.968,1.27A4.886,4.886,0,0,1,54.055,11.5v.108a5.351,5.351,0,0,1-.5,2.353,3.813,3.813,0,0,1-1.436,1.623,3.977,3.977,0,0,1-2.146.581,3.778,3.778,0,0,1-2.959-1.27,4.861,4.861,0,0,1-1.133-3.362Zm1.544.183a3.842,3.842,0,0,0,.693,2.4A2.349,2.349,0,0,0,51.831,14a4.2,4.2,0,0,0,.689-2.569,3.836,3.836,0,0,0-.7-2.395,2.23,2.23,0,0,0-1.864-.917,2.205,2.205,0,0,0-1.834.9A4.17,4.17,0,0,0,47.423,11.609Zm10.011-4.59.05,1.129a3.273,3.273,0,0,1,2.689-1.295q2.847,0,2.872,3.212V16H61.51V10.057a2.068,2.068,0,0,0-.444-1.436,1.78,1.78,0,0,0-1.357-.465,2.216,2.216,0,0,0-1.312.4,2.706,2.706,0,0,0-.88,1.046V16H55.981V7.019Zm7.521,4.408a5.3,5.3,0,0,1,.519-2.374,3.87,3.87,0,0,1,1.444-1.627,3.932,3.932,0,0,1,2.113-.573A3.788,3.788,0,0,1,72,8.123,4.886,4.886,0,0,1,73.131,11.5v.108a5.351,5.351,0,0,1-.5,2.353,3.813,3.813,0,0,1-1.436,1.623,3.977,3.977,0,0,1-2.146.581,3.778,3.778,0,0,1-2.959-1.27,4.861,4.861,0,0,1-1.133-3.362Zm1.544.183a3.842,3.842,0,0,0,.693,2.4A2.349,2.349,0,0,0,70.906,14a4.2,4.2,0,0,0,.689-2.569,3.836,3.836,0,0,0-.7-2.395,2.23,2.23,0,0,0-1.864-.917,2.205,2.205,0,0,0-1.834.9A4.17,4.17,0,0,0,66.5,11.609Zm3.229-8.342h1.859l-2.225,2.44-1.237,0ZM76.5,7.019l.042,1a3.317,3.317,0,0,1,2.665-1.162A2.568,2.568,0,0,1,81.772,8.3a3.4,3.4,0,0,1,1.166-1.046,3.445,3.445,0,0,1,1.7-.4q2.955,0,3,3.129V16H86.1V10.073a2.062,2.062,0,0,0-.44-1.44,1.937,1.937,0,0,0-1.478-.477,2.036,2.036,0,0,0-1.419.51,2.071,2.071,0,0,0-.656,1.374V16H80.568V10.115a1.713,1.713,0,0,0-1.917-1.959,2.055,2.055,0,0,0-2.067,1.287V16H75.048V7.019ZM91.625,16H90.089V7.019h1.536ZM89.965,4.636a.917.917,0,0,1,.228-.631.857.857,0,0,1,.677-.257.87.87,0,0,1,.681.257.907.907,0,0,1,.232.631.877.877,0,0,1-.232.623.886.886,0,0,1-.681.249.872.872,0,0,1-.677-.249A.886.886,0,0,1,89.965,4.636Zm7.72,10.276a2.212,2.212,0,0,0,1.436-.5,1.752,1.752,0,0,0,.681-1.245h1.453a2.785,2.785,0,0,1-.531,1.469,3.5,3.5,0,0,1-1.307,1.112,3.772,3.772,0,0,1-1.731.415,3.7,3.7,0,0,1-2.918-1.224,4.877,4.877,0,0,1-1.083-3.349v-.257A5.407,5.407,0,0,1,94.165,9a3.667,3.667,0,0,1,1.382-1.585,3.926,3.926,0,0,1,2.129-.564,3.6,3.6,0,0,1,2.511.9,3.234,3.234,0,0,1,1.067,2.349H99.8a2.116,2.116,0,0,0-.66-1.432,2.053,2.053,0,0,0-1.465-.56,2.149,2.149,0,0,0-1.814.843,3.957,3.957,0,0,0-.643,2.436v.291a3.878,3.878,0,0,0,.639,2.391A2.16,2.16,0,0,0,97.684,14.913Zm4.889-3.486a5.3,5.3,0,0,1,.519-2.374,3.87,3.87,0,0,1,1.444-1.627,3.932,3.932,0,0,1,2.113-.573,3.788,3.788,0,0,1,2.968,1.27A4.886,4.886,0,0,1,110.75,11.5v.108a5.351,5.351,0,0,1-.5,2.353,3.813,3.813,0,0,1-1.436,1.623,3.977,3.977,0,0,1-2.146.581,3.778,3.778,0,0,1-2.959-1.27,4.861,4.861,0,0,1-1.133-3.362Zm1.544.183a3.842,3.842,0,0,0,.693,2.4A2.349,2.349,0,0,0,108.525,14a4.2,4.2,0,0,0,.689-2.569,3.836,3.836,0,0,0-.7-2.395,2.23,2.23,0,0,0-1.864-.917,2.205,2.205,0,0,0-1.834.9A4.17,4.17,0,0,0,104.117,11.609Zm13.788,2.009a1.131,1.131,0,0,0-.469-.967,4.514,4.514,0,0,0-1.635-.594,7.731,7.731,0,0,1-1.851-.6,2.633,2.633,0,0,1-1.013-.83,1.986,1.986,0,0,1-.328-1.146,2.33,2.33,0,0,1,.934-1.868,3.647,3.647,0,0,1,2.386-.764,3.753,3.753,0,0,1,2.478.789,2.5,2.5,0,0,1,.95,2.017h-1.544a1.386,1.386,0,0,0-.535-1.087,2.006,2.006,0,0,0-1.349-.457,2.1,2.1,0,0,0-1.312.365,1.15,1.15,0,0,0-.473.955.932.932,0,0,0,.44.838,5.413,5.413,0,0,0,1.59.54,8.283,8.283,0,0,1,1.864.614,2.718,2.718,0,0,1,1.058.859,2.112,2.112,0,0,1,.344,1.224,2.3,2.3,0,0,1-.963,1.93,4.039,4.039,0,0,1-2.5.726,4.523,4.523,0,0,1-1.909-.382,3.105,3.105,0,0,1-1.3-1.067,2.571,2.571,0,0,1-.469-1.482h1.536a1.59,1.59,0,0,0,.618,1.224,2.4,2.4,0,0,0,1.523.452,2.476,2.476,0,0,0,1.4-.353A1.084,1.084,0,0,0,117.905,13.618Z" transform="translate(433 2965.661)" fill="#12263f"/>
    <path id="Trazado_599875" data-name="Trazado 599875" d="M53.279,12.165a4.447,4.447,0,0,1-1.415,2.959A4.638,4.638,0,0,1,48.7,16.166a4.259,4.259,0,0,1-3.432-1.536,6.178,6.178,0,0,1-1.291-4.109V9.359a6.886,6.886,0,0,1,.6-2.963,4.5,4.5,0,0,1,1.706-1.963,4.75,4.75,0,0,1,2.557-.685,4.367,4.367,0,0,1,3.088,1.075A4.5,4.5,0,0,1,53.279,7.8h-1.6a3.472,3.472,0,0,0-.9-2.1,2.725,2.725,0,0,0-1.938-.649,2.851,2.851,0,0,0-2.395,1.13A5.187,5.187,0,0,0,45.576,9.4v1.171A5.332,5.332,0,0,0,46.4,13.7a2.655,2.655,0,0,0,2.3,1.163,3.067,3.067,0,0,0,2.038-.6,3.34,3.34,0,0,0,.942-2.1ZM56.882,16H55.346V3.25h1.536Zm4.125,0H59.472V7.019h1.536ZM59.347,4.636a.917.917,0,0,1,.228-.631.857.857,0,0,1,.677-.257.87.87,0,0,1,.681.257.907.907,0,0,1,.232.631.877.877,0,0,1-.232.623.886.886,0,0,1-.681.249.872.872,0,0,1-.677-.249A.886.886,0,0,1,59.347,4.636Zm7.844,11.53a3.924,3.924,0,0,1-2.972-1.2,4.452,4.452,0,0,1-1.146-3.208v-.282a5.39,5.39,0,0,1,.51-2.386,3.982,3.982,0,0,1,1.428-1.644A3.59,3.59,0,0,1,67,6.853a3.364,3.364,0,0,1,2.723,1.154,5,5,0,0,1,.971,3.3v.639H64.61a3.193,3.193,0,0,0,.776,2.146,2.44,2.44,0,0,0,1.888.818,2.675,2.675,0,0,0,1.378-.332,3.462,3.462,0,0,0,.988-.88l.938.73A3.772,3.772,0,0,1,67.191,16.166ZM67,8.114a2.048,2.048,0,0,0-1.561.677,3.288,3.288,0,0,0-.78,1.9h4.5v-.116a2.925,2.925,0,0,0-.631-1.814A1.928,1.928,0,0,0,67,8.114Zm6.923-1.1.05,1.129a3.273,3.273,0,0,1,2.689-1.295q2.847,0,2.872,3.212V16H78V10.057a2.068,2.068,0,0,0-.444-1.436A1.78,1.78,0,0,0,76.2,8.156a2.216,2.216,0,0,0-1.312.4,2.706,2.706,0,0,0-.88,1.046V16H72.471V7.019ZM83.934,4.844V7.019h1.677V8.206H83.934v5.577a1.247,1.247,0,0,0,.224.81.943.943,0,0,0,.764.27,3.718,3.718,0,0,0,.73-.1V16a4.478,4.478,0,0,1-1.179.165,1.912,1.912,0,0,1-1.552-.623,2.675,2.675,0,0,1-.523-1.768V8.206H80.763V7.019H82.4V4.844Zm7.2,11.322a3.924,3.924,0,0,1-2.972-1.2,4.452,4.452,0,0,1-1.146-3.208v-.282a5.39,5.39,0,0,1,.51-2.386,3.982,3.982,0,0,1,1.428-1.644,3.59,3.59,0,0,1,1.988-.594,3.364,3.364,0,0,1,2.723,1.154,5,5,0,0,1,.971,3.3v.639H88.549a3.193,3.193,0,0,0,.776,2.146,2.44,2.44,0,0,0,1.888.818,2.675,2.675,0,0,0,1.378-.332,3.462,3.462,0,0,0,.988-.88l.938.73A3.772,3.772,0,0,1,91.131,16.166ZM90.94,8.114a2.048,2.048,0,0,0-1.561.677,3.288,3.288,0,0,0-.78,1.9h4.5v-.116a2.925,2.925,0,0,0-.631-1.814A1.928,1.928,0,0,0,90.94,8.114Zm10.7,5.5a1.131,1.131,0,0,0-.469-.967,4.514,4.514,0,0,0-1.635-.594,7.731,7.731,0,0,1-1.851-.6,2.633,2.633,0,0,1-1.013-.83,1.986,1.986,0,0,1-.328-1.146,2.33,2.33,0,0,1,.934-1.868,3.647,3.647,0,0,1,2.386-.764,3.753,3.753,0,0,1,2.478.789,2.5,2.5,0,0,1,.95,2.017h-1.544a1.386,1.386,0,0,0-.535-1.087,2.006,2.006,0,0,0-1.349-.457,2.1,2.1,0,0,0-1.312.365,1.15,1.15,0,0,0-.473.955.932.932,0,0,0,.44.838,5.413,5.413,0,0,0,1.59.54,8.283,8.283,0,0,1,1.864.614,2.718,2.718,0,0,1,1.058.859,2.112,2.112,0,0,1,.344,1.224,2.3,2.3,0,0,1-.963,1.93,4.039,4.039,0,0,1-2.5.726,4.523,4.523,0,0,1-1.909-.382,3.105,3.105,0,0,1-1.3-1.067,2.571,2.571,0,0,1-.469-1.482h1.536a1.59,1.59,0,0,0,.618,1.224,2.4,2.4,0,0,0,1.523.452,2.476,2.476,0,0,0,1.4-.353A1.084,1.084,0,0,0,101.64,13.618Z" transform="translate(728 2965.66)" fill="#12263f"/>
    <path id="Trazado_599876" data-name="Trazado 599876" d="M46.489,10.613a7.494,7.494,0,0,1-2.984-1.448,2.768,2.768,0,0,1-.934-2.121,2.923,2.923,0,0,1,1.141-2.362,4.536,4.536,0,0,1,2.968-.934,4.951,4.951,0,0,1,2.22.481,3.651,3.651,0,0,1,1.511,1.328,3.4,3.4,0,0,1,.535,1.851h-1.6a2.21,2.21,0,0,0-.7-1.729,2.835,2.835,0,0,0-1.967-.629,2.9,2.9,0,0,0-1.839.52,1.734,1.734,0,0,0-.66,1.443,1.56,1.56,0,0,0,.627,1.252,6.147,6.147,0,0,0,2.133.936,9.9,9.9,0,0,1,2.357.935,3.577,3.577,0,0,1,1.262,1.191,3.04,3.04,0,0,1,.411,1.6,2.824,2.824,0,0,1-1.146,2.353,4.884,4.884,0,0,1-3.063.884,5.681,5.681,0,0,1-2.324-.477,3.911,3.911,0,0,1-1.664-1.307,3.191,3.191,0,0,1-.585-1.884h1.6a2.082,2.082,0,0,0,.809,1.731,3.408,3.408,0,0,0,2.162.635,3.133,3.133,0,0,0,1.934-.515,1.672,1.672,0,0,0,.672-1.4,1.641,1.641,0,0,0-.623-1.374A7.178,7.178,0,0,0,46.489,10.613Zm5.877.813a5.3,5.3,0,0,1,.519-2.374,3.87,3.87,0,0,1,1.444-1.627,3.932,3.932,0,0,1,2.113-.573,3.788,3.788,0,0,1,2.968,1.27A4.886,4.886,0,0,1,60.542,11.5v.108a5.351,5.351,0,0,1-.5,2.353A3.813,3.813,0,0,1,58.6,15.585a3.977,3.977,0,0,1-2.146.581A3.778,3.778,0,0,1,53.5,14.9a4.861,4.861,0,0,1-1.133-3.362Zm1.544.183a3.842,3.842,0,0,0,.693,2.4A2.349,2.349,0,0,0,58.318,14a4.2,4.2,0,0,0,.689-2.569,3.836,3.836,0,0,0-.7-2.395,2.23,2.23,0,0,0-1.864-.917,2.205,2.205,0,0,0-1.834.9A4.17,4.17,0,0,0,53.91,11.609Zm12.161,3.3a2.212,2.212,0,0,0,1.436-.5,1.752,1.752,0,0,0,.681-1.245H69.64a2.785,2.785,0,0,1-.531,1.469A3.5,3.5,0,0,1,67.8,15.751a3.772,3.772,0,0,1-1.731.415,3.7,3.7,0,0,1-2.918-1.224,4.877,4.877,0,0,1-1.083-3.349v-.257A5.407,5.407,0,0,1,62.551,9a3.667,3.667,0,0,1,1.382-1.585,3.926,3.926,0,0,1,2.129-.564,3.6,3.6,0,0,1,2.511.9,3.234,3.234,0,0,1,1.067,2.349H68.188a2.116,2.116,0,0,0-.66-1.432,2.053,2.053,0,0,0-1.465-.56,2.149,2.149,0,0,0-1.814.843,3.957,3.957,0,0,0-.643,2.436v.291a3.878,3.878,0,0,0,.639,2.391A2.16,2.16,0,0,0,66.071,14.913ZM73.035,16H71.5V7.019h1.536ZM71.375,4.636a.917.917,0,0,1,.228-.631.857.857,0,0,1,.677-.257.87.87,0,0,1,.681.257.907.907,0,0,1,.232.631.877.877,0,0,1-.232.623.886.886,0,0,1-.681.249.872.872,0,0,1-.677-.249A.886.886,0,0,1,71.375,4.636ZM81.037,16a3.226,3.226,0,0,1-.216-.946,3.426,3.426,0,0,1-2.557,1.112,3.17,3.17,0,0,1-2.179-.751,2.43,2.43,0,0,1-.851-1.905A2.539,2.539,0,0,1,76.3,11.331a5.029,5.029,0,0,1,3-.776H80.8V9.849a1.725,1.725,0,0,0-.481-1.282A1.935,1.935,0,0,0,78.9,8.089a2.239,2.239,0,0,0-1.378.415,1.223,1.223,0,0,0-.556,1H75.417a2.119,2.119,0,0,1,.477-1.3,3.258,3.258,0,0,1,1.295-.992,4.356,4.356,0,0,1,1.8-.365,3.551,3.551,0,0,1,2.432.776,2.8,2.8,0,0,1,.913,2.137V13.9a5.054,5.054,0,0,0,.315,1.967V16Zm-2.548-1.17a2.7,2.7,0,0,0,1.37-.374,2.259,2.259,0,0,0,.938-.971V11.642h-1.2q-2.822,0-2.822,1.652a1.4,1.4,0,0,0,.481,1.129A1.85,1.85,0,0,0,78.489,14.83ZM86.408,16H84.872V3.25h1.536Zm6.184.166a3.924,3.924,0,0,1-2.972-1.2,4.452,4.452,0,0,1-1.146-3.208v-.282a5.39,5.39,0,0,1,.51-2.386,3.982,3.982,0,0,1,1.428-1.644A3.59,3.59,0,0,1,92.4,6.853a3.364,3.364,0,0,1,2.723,1.154,5,5,0,0,1,.971,3.3v.639H90.01a3.193,3.193,0,0,0,.776,2.146,2.44,2.44,0,0,0,1.888.818,2.675,2.675,0,0,0,1.378-.332,3.462,3.462,0,0,0,.988-.88l.938.73A3.772,3.772,0,0,1,92.592,16.166ZM92.4,8.114a2.048,2.048,0,0,0-1.561.677,3.288,3.288,0,0,0-.78,1.9h4.5v-.116a2.925,2.925,0,0,0-.631-1.814A1.928,1.928,0,0,0,92.4,8.114Zm10.7,5.5a1.131,1.131,0,0,0-.469-.967A4.514,4.514,0,0,0,101,12.057a7.731,7.731,0,0,1-1.851-.6,2.633,2.633,0,0,1-1.013-.83A1.986,1.986,0,0,1,97.8,9.484a2.33,2.33,0,0,1,.934-1.868,3.647,3.647,0,0,1,2.386-.764,3.753,3.753,0,0,1,2.478.789,2.5,2.5,0,0,1,.95,2.017h-1.544a1.386,1.386,0,0,0-.535-1.087,2.006,2.006,0,0,0-1.349-.457,2.1,2.1,0,0,0-1.312.365,1.15,1.15,0,0,0-.473.955.932.932,0,0,0,.44.838,5.413,5.413,0,0,0,1.59.54,8.283,8.283,0,0,1,1.864.614,2.718,2.718,0,0,1,1.058.859,2.112,2.112,0,0,1,.344,1.224,2.3,2.3,0,0,1-.963,1.93,4.039,4.039,0,0,1-2.5.726,4.523,4.523,0,0,1-1.909-.382,3.105,3.105,0,0,1-1.3-1.067,2.571,2.571,0,0,1-.469-1.482h1.536a1.59,1.59,0,0,0,.618,1.224,2.4,2.4,0,0,0,1.523.452,2.476,2.476,0,0,0,1.4-.353A1.084,1.084,0,0,0,103.1,13.618Z" transform="translate(1022.5 2965.66)" fill="#12263f"/>
    <path id="Trazado_599877" data-name="Trazado 599877" d="M24,0A24,24,0,1,1,0,24,24,24,0,0,1,24,0Z" transform="translate(482 3032.053)" fill="#f3ab1d"/>
    <g id="Grupo_875510" data-name="Grupo 875510" transform="translate(0 108.787)">
      <path id="Trazado_599274" data-name="Trazado 599274" d="M-7577-4616.261V-4641.1" transform="translate(7935.5 7612.364)" fill="none" stroke="#f3ab1d" stroke-width="2"/>
      <circle id="Elipse_5555" data-name="Elipse 5555" cx="4" cy="4" r="4" transform="translate(354.5 2994.734)" fill="#f3ab1d"/>
    </g>
    <g id="Grupo_875513" data-name="Grupo 875513" transform="translate(295 108.787)">
      <path id="Trazado_599274-2" data-name="Trazado 599274" d="M-7577-4616.261V-4641.1" transform="translate(7935.5 7612.364)" fill="none" stroke="#f3ab1d" stroke-width="2"/>
      <circle id="Elipse_5555-2" data-name="Elipse 5555" cx="4" cy="4" r="4" transform="translate(354.5 2994.734)" fill="#f3ab1d"/>
    </g>
    <g id="Grupo_875515" data-name="Grupo 875515" transform="translate(589.5 108.787)">
      <path id="Trazado_599274-3" data-name="Trazado 599274" d="M-7577-4616.261V-4641.1" transform="translate(7935.5 7612.364)" fill="none" stroke="#f3ab1d" stroke-width="2"/>
      <circle id="Elipse_5555-3" data-name="Elipse 5555" cx="4" cy="4" r="4" transform="translate(354.5 2994.734)" fill="#f3ab1d"/>
    </g>
    <g id="Grupo_875517" data-name="Grupo 875517" transform="translate(883 108.787)">
      <path id="Trazado_599274-4" data-name="Trazado 599274" d="M-7577-4616.261V-4641.1" transform="translate(7935.5 7612.364)" fill="none" stroke="#f3ab1d" stroke-width="2"/>
      <circle id="Elipse_5555-4" data-name="Elipse 5555" cx="4" cy="4" r="4" transform="translate(354.5 2994.734)" fill="#f3ab1d"/>
    </g>
    <g id="Grupo_875512" data-name="Grupo 875512" transform="translate(-335 995.127)">
      <g id="Grupo_876214" data-name="Grupo 876214">
        <path id="Trazado_599899" data-name="Trazado 599899" d="M0,0H210V49H0Z" transform="translate(1040 1881)" fill="#26779f"/>
      </g>
      <path id="Trazado_599898" data-name="Trazado 599898" d="M38.309,10.352h-4.5V15H31.465V3.625h7.406v1.9H33.809V8.461h4.5ZM44.715,15a2.507,2.507,0,0,1-.227-.758,2.732,2.732,0,0,1-2.133.914,3,3,0,0,1-2.059-.719,2.312,2.312,0,0,1-.816-1.812,2.389,2.389,0,0,1,1-2.062,4.915,4.915,0,0,1,2.879-.727h1.039V9.352a1.393,1.393,0,0,0-.3-.937,1.183,1.183,0,0,0-.949-.352,1.345,1.345,0,0,0-.895.273.929.929,0,0,0-.324.75H39.668a2.268,2.268,0,0,1,.453-1.359,3,3,0,0,1,1.281-.98,4.669,4.669,0,0,1,1.859-.355,3.689,3.689,0,0,1,2.48.785,2.747,2.747,0,0,1,.918,2.207v3.664A4.041,4.041,0,0,0,47,14.867V15Zm-1.867-1.57a1.945,1.945,0,0,0,.922-.223,1.462,1.462,0,0,0,.625-.6V11.156h-.844q-1.7,0-1.8,1.172l-.008.133a.9.9,0,0,0,.3.7A1.153,1.153,0,0,0,42.848,13.43Zm9.063-.094a1.481,1.481,0,0,0,1.016-.344,1.2,1.2,0,0,0,.406-.914h2.117a2.9,2.9,0,0,1-.469,1.574,3.093,3.093,0,0,1-1.262,1.109,3.949,3.949,0,0,1-1.77.395A3.67,3.67,0,0,1,49.09,14a4.56,4.56,0,0,1-1.047-3.184v-.148a4.508,4.508,0,0,1,1.039-3.117,3.627,3.627,0,0,1,2.852-1.164,3.555,3.555,0,0,1,2.543.9,3.2,3.2,0,0,1,.973,2.4H53.332a1.551,1.551,0,0,0-.406-1.072,1.51,1.51,0,0,0-2.223.163,3.333,3.333,0,0,0-.4,1.866v.235a3.375,3.375,0,0,0,.4,1.878A1.377,1.377,0,0,0,51.91,13.336Zm7.531-8.867V6.547h1.445V8.2H59.441v4.219a1.007,1.007,0,0,0,.18.672.9.9,0,0,0,.688.2,3.6,3.6,0,0,0,.664-.055v1.711a4.648,4.648,0,0,1-1.367.2,2.156,2.156,0,0,1-2.422-2.4V8.2H55.949V6.547h1.234V4.469ZM61.559,10.7a5.013,5.013,0,0,1,.484-2.242A3.546,3.546,0,0,1,63.438,6.93a4.069,4.069,0,0,1,2.113-.539,3.849,3.849,0,0,1,2.793,1.047,4.2,4.2,0,0,1,1.207,2.844l.016.578A4.418,4.418,0,0,1,68.48,13.98a4.209,4.209,0,0,1-5.832,0,4.5,4.5,0,0,1-1.09-3.187Zm2.258.16A3.16,3.16,0,0,0,64.27,12.7a1.628,1.628,0,0,0,2.578.008,3.457,3.457,0,0,0,.461-2.015,3.128,3.128,0,0,0-.461-1.831,1.5,1.5,0,0,0-1.3-.649,1.474,1.474,0,0,0-1.281.646A3.516,3.516,0,0,0,63.816,10.856ZM75.707,8.664a6.134,6.134,0,0,0-.812-.062,1.654,1.654,0,0,0-1.68.867V15H70.957V6.547H73.09l.063,1.008a2.092,2.092,0,0,1,1.883-1.164,2.366,2.366,0,0,1,.7.1Zm4.828,6.492a4.15,4.15,0,0,1-3.027-1.141,4.054,4.054,0,0,1-1.168-3.039v-.219a5.106,5.106,0,0,1,.492-2.277,3.612,3.612,0,0,1,1.395-1.547,3.914,3.914,0,0,1,2.059-.543,3.508,3.508,0,0,1,2.73,1.094,4.444,4.444,0,0,1,1,3.1v.922H78.629a2.1,2.1,0,0,0,.66,1.328,2,2,0,0,0,1.395.5,2.437,2.437,0,0,0,2.039-.945l1.109,1.242a3.389,3.389,0,0,1-1.375,1.121A4.511,4.511,0,0,1,80.535,15.156Zm-.258-6.945a1.411,1.411,0,0,0-1.09.455,2.357,2.357,0,0,0-.535,1.3h3.141V9.788a1.681,1.681,0,0,0-.406-1.165A1.456,1.456,0,0,0,80.277,8.211Zm9.594,4.453a.727.727,0,0,0-.41-.652,4.659,4.659,0,0,0-1.316-.426q-3.016-.633-3.016-2.562a2.323,2.323,0,0,1,.934-1.879A3.766,3.766,0,0,1,88.5,6.391a4.053,4.053,0,0,1,2.574.758,2.388,2.388,0,0,1,.965,1.969H89.785a1.092,1.092,0,0,0-.312-.8A1.322,1.322,0,0,0,88.5,8a1.351,1.351,0,0,0-.883.258.814.814,0,0,0-.312.656.7.7,0,0,0,.355.605,3.657,3.657,0,0,0,1.2.4,9.8,9.8,0,0,1,1.422.379,2.336,2.336,0,0,1,1.789,2.273,2.2,2.2,0,0,1-.992,1.871,4.28,4.28,0,0,1-2.562.715,4.47,4.47,0,0,1-1.887-.379,3.166,3.166,0,0,1-1.293-1.039,2.414,2.414,0,0,1-.469-1.426H87a1.179,1.179,0,0,0,.445.922,1.766,1.766,0,0,0,1.109.32,1.635,1.635,0,0,0,.98-.246A.766.766,0,0,0,89.871,12.664Zm11.523,2.492a4.15,4.15,0,0,1-3.027-1.141A4.054,4.054,0,0,1,97.2,10.977v-.219a5.106,5.106,0,0,1,.492-2.277,3.612,3.612,0,0,1,1.395-1.547,3.914,3.914,0,0,1,2.059-.543,3.508,3.508,0,0,1,2.73,1.094,4.444,4.444,0,0,1,1,3.1v.922H99.488a2.1,2.1,0,0,0,.66,1.328,2,2,0,0,0,1.395.5,2.437,2.437,0,0,0,2.039-.945l1.109,1.242a3.389,3.389,0,0,1-1.375,1.121A4.511,4.511,0,0,1,101.395,15.156Zm-.258-6.945a1.411,1.411,0,0,0-1.09.455,2.357,2.357,0,0,0-.535,1.3h3.141V9.788a1.681,1.681,0,0,0-.406-1.165A1.456,1.456,0,0,0,101.137,8.211Zm8.234.859,1.422-2.523h2.414L110.8,10.688,113.309,15h-2.422l-1.508-2.656L107.879,15h-2.43l2.508-4.312-2.4-4.141h2.422ZM117,4.469V6.547h1.445V8.2H117v4.219a1.007,1.007,0,0,0,.18.672.9.9,0,0,0,.688.2,3.6,3.6,0,0,0,.664-.055v1.711a4.648,4.648,0,0,1-1.367.2,2.156,2.156,0,0,1-2.422-2.4V8.2H113.5V6.547h1.234V4.469Zm6.594,10.688a4.15,4.15,0,0,1-3.027-1.141,4.054,4.054,0,0,1-1.168-3.039v-.219a5.106,5.106,0,0,1,.492-2.277,3.612,3.612,0,0,1,1.395-1.547,3.914,3.914,0,0,1,2.059-.543,3.508,3.508,0,0,1,2.73,1.094,4.444,4.444,0,0,1,1,3.1v.922h-5.383a2.1,2.1,0,0,0,.66,1.328,2,2,0,0,0,1.395.5,2.437,2.437,0,0,0,2.039-.945l1.109,1.242a3.389,3.389,0,0,1-1.375,1.121A4.511,4.511,0,0,1,123.59,15.156Zm-.258-6.945a1.411,1.411,0,0,0-1.09.455,2.357,2.357,0,0,0-.535,1.3h3.141V9.788a1.681,1.681,0,0,0-.406-1.165A1.456,1.456,0,0,0,123.332,8.211Zm9.766.453a6.134,6.134,0,0,0-.812-.062,1.654,1.654,0,0,0-1.68.867V15h-2.258V6.547h2.133l.063,1.008a2.092,2.092,0,0,1,1.883-1.164,2.366,2.366,0,0,1,.7.1Zm3.164-2.117.07.977a2.951,2.951,0,0,1,2.43-1.133,2.453,2.453,0,0,1,2,.789,3.682,3.682,0,0,1,.672,2.359V15h-2.258V9.581a1.47,1.47,0,0,0-.312-1.045,1.4,1.4,0,0,0-1.039-.325,1.553,1.553,0,0,0-1.43.814V15h-2.258V6.547Zm6.531,4.148a5.013,5.013,0,0,1,.484-2.242,3.546,3.546,0,0,1,1.395-1.523,4.069,4.069,0,0,1,2.113-.539,3.849,3.849,0,0,1,2.793,1.047,4.2,4.2,0,0,1,1.207,2.844l.016.578a4.418,4.418,0,0,1-1.086,3.121,4.209,4.209,0,0,1-5.832,0,4.5,4.5,0,0,1-1.09-3.187Zm2.258.16A3.16,3.16,0,0,0,145.5,12.7a1.628,1.628,0,0,0,2.578.008,3.457,3.457,0,0,0,.461-2.015,3.128,3.128,0,0,0-.461-1.831,1.5,1.5,0,0,0-1.3-.649,1.474,1.474,0,0,0-1.281.646A3.516,3.516,0,0,0,145.051,10.856Zm11.719,1.808a.727.727,0,0,0-.41-.652,4.659,4.659,0,0,0-1.316-.426q-3.016-.633-3.016-2.562a2.323,2.323,0,0,1,.934-1.879,3.766,3.766,0,0,1,2.441-.754,4.053,4.053,0,0,1,2.574.758,2.388,2.388,0,0,1,.965,1.969h-2.258a1.092,1.092,0,0,0-.312-.8A1.322,1.322,0,0,0,155.395,8a1.351,1.351,0,0,0-.883.258.814.814,0,0,0-.312.656.7.7,0,0,0,.355.605,3.657,3.657,0,0,0,1.2.4,9.8,9.8,0,0,1,1.422.379,2.336,2.336,0,0,1,1.789,2.273,2.205,2.205,0,0,1-.992,1.871,4.28,4.28,0,0,1-2.562.715,4.47,4.47,0,0,1-1.887-.379,3.166,3.166,0,0,1-1.293-1.039,2.414,2.414,0,0,1-.469-1.426H153.9a1.179,1.179,0,0,0,.445.922,1.766,1.766,0,0,0,1.109.32,1.635,1.635,0,0,0,.98-.246A.766.766,0,0,0,156.77,12.664Z" transform="translate(1060 1896)" fill="#fff"/>
      <rect id="Rectángulo_44525" data-name="Rectángulo 44525" width="12" height="49" transform="translate(1040 1881)" fill="#62a6c7"/>
      <g id="Grupo_156331" data-name="Grupo 156331" transform="translate(1333 3719.532) rotate(180)">
        <circle id="Elipse_4713" data-name="Elipse 4713" cx="2.5" cy="2.5" r="2.5" transform="translate(285 1799.532)" fill="#f3ab1d"/>
        <circle id="Elipse_4717" data-name="Elipse 4717" cx="2.5" cy="2.5" r="2.5" transform="translate(285 1811.532)" fill="#f3ab1d"/>
        <circle id="Elipse_4719" data-name="Elipse 4719" cx="2.5" cy="2.5" r="2.5" transform="translate(285 1823.532)" fill="#f3ab1d"/>
        <circle id="Elipse_4715" data-name="Elipse 4715" cx="2.5" cy="2.5" r="2.5" transform="translate(297 1799.532)" fill="#f3ab1d"/>
        <circle id="Elipse_4720" data-name="Elipse 4720" cx="2.5" cy="2.5" r="2.5" transform="translate(308 1799.532)" fill="#f3ab1d"/>
        <circle id="Elipse_4716" data-name="Elipse 4716" cx="2.5" cy="2.5" r="2.5" transform="translate(297 1811.532)" fill="#f3ab1d"/>
        <circle id="Elipse_4721" data-name="Elipse 4721" cx="2.5" cy="2.5" r="2.5" transform="translate(308 1811.532)" fill="#f3ab1d"/>
        <circle id="Elipse_4718" data-name="Elipse 4718" cx="2.5" cy="2.5" r="2.5" transform="translate(297 1823.532)" fill="#f3ab1d"/>
        <circle id="Elipse_4722" data-name="Elipse 4722" cx="2.5" cy="2.5" r="2.5" transform="translate(308 1823.532)" fill="#f3ab1d"/>
      </g>
    </g>
    <path id="Trazado_599878" data-name="Trazado 599878" d="M11,0H77A11,11,0,0,1,88,11V98H0V11A11,11,0,0,1,11,0Z" transform="translate(315 2954.098)" fill="#fff"/>
    <path id="Trazado_599879" data-name="Trazado 599879" d="M11,0H77A11,11,0,0,1,88,11V98H0V11A11,11,0,0,1,11,0Z" transform="translate(904 2954.098)" fill="#fff"/>
    <path id="Trazado_599880" data-name="Trazado 599880" d="M11,0H77A11,11,0,0,1,88,11V98H0V11A11,11,0,0,1,11,0Z" transform="translate(609 2954.098)" fill="#fff"/>
    <path id="Trazado_599881" data-name="Trazado 599881" d="M11,0H77A11,11,0,0,1,88,11V98H0V11A11,11,0,0,1,11,0Z" transform="translate(1198 2954.098)" fill="#fff"/>
    <path id="Trazado_599882" data-name="Trazado 599882" d="M11,0H77A11,11,0,0,1,88,11V98H0V11A11,11,0,0,1,11,0Z" transform="translate(550 3150.098) rotate(180)" fill="#fff"/>
    <path id="Trazado_599883" data-name="Trazado 599883" d="M11,0H77A11,11,0,0,1,88,11V98H0V11A11,11,0,0,1,11,0Z" transform="translate(1140 3150.098) rotate(180)" fill="#fff"/>
    <path id="Trazado_599884" data-name="Trazado 599884" d="M11,0H77A11,11,0,0,1,88,11V98H0V11A11,11,0,0,1,11,0Z" transform="translate(844 3150.098) rotate(180)" fill="#fff"/>
    <path id="Trazado_599275" data-name="Trazado 599275" d="M24-8748H895" transform="translate(335 11800.098)" fill="none" stroke="#fff" stroke-width="8"/>
    <path id="Trazado_599885" data-name="Trazado 599885" d="M28,0A28,28,0,1,1,0,28,28,28,0,0,1,28,0Z" transform="translate(1213.5 3024.053)" fill="#3185af"/>
    <g id="Grupo_875523" data-name="Grupo 875523" transform="translate(864.5 5995.144) rotate(180)">
      <path id="Trazado_599274-5" data-name="Trazado 599274" d="M-7577-4616.261V-4641.1" transform="translate(7935.5 7612.364)" fill="none" stroke="#f3ab1d" stroke-width="2"/>
      <circle id="Elipse_5555-5" data-name="Elipse 5555" cx="4" cy="4" r="4" transform="translate(354.5 2994.734)" fill="#f3ab1d"/>
    </g>
    <g id="Grupo_875524" data-name="Grupo 875524" transform="translate(1159.5 5995.144) rotate(180)">
      <path id="Trazado_599274-6" data-name="Trazado 599274" d="M-7577-4616.261V-4641.1" transform="translate(7935.5 7612.364)" fill="none" stroke="#f3ab1d" stroke-width="2"/>
      <circle id="Elipse_5555-6" data-name="Elipse 5555" cx="4" cy="4" r="4" transform="translate(354.5 2994.734)" fill="#f3ab1d"/>
    </g>
    <g id="Grupo_875525" data-name="Grupo 875525" transform="translate(1454 5995.144) rotate(180)">
      <path id="Trazado_599274-7" data-name="Trazado 599274" d="M-7577-4616.261V-4641.1" transform="translate(7935.5 7612.364)" fill="none" stroke="#f3ab1d" stroke-width="2"/>
      <circle id="Elipse_5555-7" data-name="Elipse 5555" cx="4" cy="4" r="4" transform="translate(354.5 2994.734)" fill="#f3ab1d"/>
    </g>
    <path id="Trazado_599886" data-name="Trazado 599886" d="M0,0H104V4H0Z" transform="translate(358 3056.098)" fill="#3185af"/>
    <path id="Trazado_599887" data-name="Trazado 599887" d="M0,0H104V4H0Z" transform="translate(652 3056.098)" fill="#3185af"/>
    <path id="Trazado_599888" data-name="Trazado 599888" d="M0,0H104V4H0Z" transform="translate(948 3056.098)" fill="#3185af"/>
    <path id="Trazado_599889" data-name="Trazado 599889" d="M0,0H104V4H0Z" transform="translate(505 3044.098)" fill="#5ad1a5"/>
    <path id="Trazado_599890" data-name="Trazado 599890" d="M0,0H104V4H0Z" transform="translate(800 3044.098)" fill="#5ad1a5"/>
    <path id="Trazado_599891" data-name="Trazado 599891" d="M0,0H104V4H0Z" transform="translate(1096 3044.098)" fill="#5ad1a5"/>
    <path id="Trazado_599892" data-name="Trazado 599892" d="M28,0A28,28,0,1,1,0,28,28,28,0,0,1,28,0Z" transform="translate(331 3024.053)" fill="#3185af"/>
    <path id="Trazado_599893" data-name="Trazado 599893" d="M28,0A28,28,0,1,1,0,28,28,28,0,0,1,28,0Z" transform="translate(478 3024.053)" fill="#6e7700"/>
    <path id="Trazado_599894" data-name="Trazado 599894" d="M28,0A28,28,0,1,1,0,28,28,28,0,0,1,28,0Z" transform="translate(625.5 3024.053)" fill="#3185af"/>
    <path id="Trazado_599895" data-name="Trazado 599895" d="M28,0A28,28,0,1,1,0,28,28,28,0,0,1,28,0Z" transform="translate(773 3024.053)" fill="#6e7700"/>
    <path id="Trazado_599896" data-name="Trazado 599896" d="M28,0A28,28,0,1,1,0,28,28,28,0,0,1,28,0Z" transform="translate(1067.5 3024.053)" fill="#6e7700"/>
    <path id="Trazado_599897" data-name="Trazado 599897" d="M28,0A28,28,0,1,1,0,28,28,28,0,0,1,28,0Z" transform="translate(920.5 3024.053)" fill="#3185af"/>
    <g id="Enmascarar_grupo_62" data-name="Enmascarar grupo 62" transform="translate(0 105.127)" clip-path="url(#clip-path)">
      <g id="_21_-_30" data-name="21 - 30" transform="translate(327.318 2853.99)">
        <g id="Political_Science" data-name="Political Science">
          <path id="Trazado_599303" data-name="Trazado 599303" d="M59.843,13.1,32.86,4.157a2.7,2.7,0,0,0-1.7,0L4.509,13.1a2.682,2.682,0,0,0-1.828,2.542v4.471A2.682,2.682,0,0,0,5.364,22.8H6.7v2.682a2.672,2.672,0,0,0,1.341,2.309V49.614H6.7A2.682,2.682,0,0,0,4.023,52.3v4.023A2.682,2.682,0,0,0,6.7,59H57.659a2.682,2.682,0,0,0,2.682-2.682V52.3a2.682,2.682,0,0,0-2.682-2.682H56.318V27.786a2.672,2.672,0,0,0,1.341-2.309V22.8H59a2.682,2.682,0,0,0,2.682-2.682V15.646A2.682,2.682,0,0,0,59.843,13.1ZM48.273,27.786V49.614H42.909V27.786a2.672,2.672,0,0,0,1.341-2.309V22.8h2.682v2.682a2.672,2.672,0,0,0,1.341,2.309Zm-10.727.373h2.682V49.614H37.545Zm4.023-2.682H36.2V22.8h5.364Zm-6.7,2.309V49.614H29.5V27.786a2.672,2.672,0,0,0,1.341-2.309V22.8h2.682v2.682A2.672,2.672,0,0,0,34.864,27.786Zm-10.727.373h2.682V49.614H24.136Zm4.023-2.682H22.8V22.8h5.364Zm-6.7,2.309V49.614H16.091V27.786a2.672,2.672,0,0,0,1.341-2.309V22.8h2.682v2.682a2.672,2.672,0,0,0,1.341,2.309Zm-6.7-2.309H9.386V22.8H14.75Zm-4.023,2.682h2.682V49.614H10.727ZM57.659,52.3v4.023H6.7V52.3Zm-6.7-2.682V28.159h2.682V49.614Zm4.023-24.136H49.614V22.8h5.364ZM5.364,20.114V15.643L32.017,6.7,59,15.646v4.468Z"/>
        </g>
      </g>
    </g>
    <g id="Enmascarar_grupo_63" data-name="Enmascarar grupo 63" transform="translate(442 228.127)" clip-path="url(#clip-path-2)">
      <g id="reunion_1_" data-name="reunion(1)" transform="translate(624.804 2858)">
        <path id="Trazado_599304" data-name="Trazado 599304" d="M27.5,38.261h2.392V55H27.5Zm0,0"/>
        <path id="Trazado_599305" data-name="Trazado 599305" d="M10.761,33.478H46.63v2.391H10.761Zm0,0"/>
        <path id="Trazado_599306" data-name="Trazado 599306" d="M51.413,17.935a5.978,5.978,0,1,1,5.978-5.978A5.985,5.985,0,0,1,51.413,17.935Zm0-9.565A3.587,3.587,0,1,0,55,11.957,3.591,3.591,0,0,0,51.413,8.37Zm0,0"/>
        <path id="Trazado_599307" data-name="Trazado 599307" d="M39.456,55a1.172,1.172,0,0,1-.471-.1,1.194,1.194,0,0,1-.627-1.57l3.587-8.37a1.194,1.194,0,0,1,1.1-.724h8.37A3.592,3.592,0,0,0,55,40.652V25.109a2.394,2.394,0,0,0-2.392-2.391h-1.2c-.839,0-1.6.555-2.633,1.918-1.155,1.526-4.661,5.83-4.809,6.011a1.2,1.2,0,0,1-.928.44H37.065a1.2,1.2,0,0,0-1.2,1.2v2.391a1.2,1.2,0,1,1-2.391,0V32.283A3.591,3.591,0,0,1,37.065,28.7h5.409c.942-1.16,3.482-4.292,4.4-5.5,1.01-1.335,2.438-2.866,4.541-2.866h1.2a4.788,4.788,0,0,1,4.783,4.783V40.652a5.985,5.985,0,0,1-5.978,5.978H43.831l-3.277,7.645a1.194,1.194,0,0,1-1.1.725Zm0,0"/>
        <path id="Trazado_599308" data-name="Trazado 599308" d="M34.674,55a1.2,1.2,0,0,1-1.133-1.575l3.965-11.9a4.773,4.773,0,0,1,4.536-3.269h3.393V34.674a1.2,1.2,0,0,1,2.392,0v4.783a1.2,1.2,0,0,1-1.2,1.2H42.042a2.385,2.385,0,0,0-2.267,1.633l-3.966,11.9A1.2,1.2,0,0,1,34.674,55Zm0,0"/>
        <path id="Trazado_599309" data-name="Trazado 599309" d="M46.629,35.869a1.2,1.2,0,0,1-.955-1.912l3.587-4.783a1.195,1.195,0,0,1,1.912,1.434l-3.587,4.783a1.189,1.189,0,0,1-.957.478Zm0,0"/>
        <path id="Trazado_599310" data-name="Trazado 599310" d="M5.978,17.935a5.978,5.978,0,1,1,5.979-5.978A5.985,5.985,0,0,1,5.978,17.935Zm0-9.565a3.587,3.587,0,1,0,3.587,3.587A3.591,3.591,0,0,0,5.978,8.37Zm0,0"/>
        <path id="Trazado_599311" data-name="Trazado 599311" d="M17.935,55a1.194,1.194,0,0,1-1.1-.725L13.56,46.63H5.978A5.985,5.985,0,0,1,0,40.652V25.109a4.788,4.788,0,0,1,4.783-4.783h1.2c2.1,0,3.532,1.532,4.54,2.866.917,1.211,3.455,4.344,4.4,5.5h5.41a3.591,3.591,0,0,1,3.587,3.587v2.391a1.2,1.2,0,1,1-2.391,0V32.283a1.2,1.2,0,0,0-1.2-1.2H14.348a1.193,1.193,0,0,1-.927-.44c-.148-.182-3.655-4.486-4.809-6.013-1.031-1.362-1.793-1.917-2.634-1.917h-1.2a2.394,2.394,0,0,0-2.392,2.391V40.652a3.592,3.592,0,0,0,3.587,3.587h8.37a1.194,1.194,0,0,1,1.1.724l3.587,8.37a1.2,1.2,0,0,1-.627,1.57,1.172,1.172,0,0,1-.471.1Zm0,0"/>
        <path id="Trazado_599312" data-name="Trazado 599312" d="M22.717,55a1.2,1.2,0,0,1-1.135-.818l-3.965-11.9a2.388,2.388,0,0,0-2.268-1.634H10.761a1.2,1.2,0,0,1-1.2-1.2V34.674a1.2,1.2,0,0,1,2.392,0v3.587H15.35a4.776,4.776,0,0,1,4.538,3.269l3.965,11.9a1.2,1.2,0,0,1-.756,1.513,1.214,1.214,0,0,1-.379.062Zm0,0"/>
        <path id="Trazado_599313" data-name="Trazado 599313" d="M10.762,35.869a1.2,1.2,0,0,1-.958-.478L6.217,30.609a1.2,1.2,0,0,1,1.913-1.434l3.587,4.783a1.2,1.2,0,0,1-.955,1.912Zm0,0"/>
        <path id="Trazado_599314" data-name="Trazado 599314" d="M38.261,31.087a1.194,1.194,0,0,1-1.2-1.2v-8.37a4.788,4.788,0,0,0-4.783-4.783H25.109a4.788,4.788,0,0,0-4.783,4.783v3.587a1.2,1.2,0,1,1-2.391,0V21.522a7.181,7.181,0,0,1,7.174-7.174h7.174a7.181,7.181,0,0,1,7.174,7.174v8.37a1.194,1.194,0,0,1-1.2,1.2Zm0,0"/>
        <path id="Trazado_599315" data-name="Trazado 599315" d="M28.7,11.957a5.978,5.978,0,1,1,5.978-5.979A5.985,5.985,0,0,1,28.7,11.957Zm0-9.565a3.587,3.587,0,1,0,3.587,3.587A3.591,3.591,0,0,0,28.7,2.391Zm0,0"/>
        <path id="Trazado_599316" data-name="Trazado 599316" d="M27.5,19.131h2.392v2.391H27.5Zm0,0"/>
      </g>
    </g>
    <g id="Enmascarar_grupo_58" data-name="Enmascarar grupo 58" transform="translate(0 105.127)" clip-path="url(#clip-path-3)">
      <g id="sensible" transform="translate(919 2856)">
        <g id="Grupo_875542" data-name="Grupo 875542">
          <g id="Grupo_875541" data-name="Grupo 875541">
            <circle id="Elipse_5574" data-name="Elipse 5574" cx="1.341" cy="1.341" r="1.341" transform="translate(30.841 38.886)"/>
          </g>
        </g>
        <g id="Grupo_875544" data-name="Grupo 875544">
          <g id="Grupo_875543" data-name="Grupo 875543">
            <circle id="Elipse_5575" data-name="Elipse 5575" cx="1.341" cy="1.341" r="1.341" transform="translate(8.046 46.932)"/>
          </g>
        </g>
        <g id="Grupo_875546" data-name="Grupo 875546">
          <g id="Grupo_875545" data-name="Grupo 875545">
            <path id="Trazado_599279" data-name="Trazado 599279" d="M54.977,5.364H9.386A3.951,3.951,0,0,0,5.364,9.386V22.8A1.267,1.267,0,0,0,6.7,24.136,1.267,1.267,0,0,0,8.045,22.8V9.386A1.267,1.267,0,0,1,9.386,8.046H54.977a1.267,1.267,0,0,1,1.341,1.341V41.568a1.267,1.267,0,0,1-1.341,1.341H22.8a1.341,1.341,0,1,0,0,2.682h2.682v4.023a1.267,1.267,0,0,1-1.341,1.341H22.8a1.341,1.341,0,1,0,0,2.682H41.568a1.341,1.341,0,0,0,0-2.682H40.227a1.267,1.267,0,0,1-1.341-1.341V45.591H54.977A3.951,3.951,0,0,0,59,41.568V9.386A3.951,3.951,0,0,0,54.977,5.364ZM27.891,50.954a3.966,3.966,0,0,0,.268-1.341V45.591H36.2v4.023a3.968,3.968,0,0,0,.268,1.341Z"/>
          </g>
        </g>
        <g id="Grupo_875548" data-name="Grupo 875548">
          <g id="Grupo_875547" data-name="Grupo 875547">
            <path id="Trazado_599280" data-name="Trazado 599280" d="M52.3,34.864H22.8a1.341,1.341,0,1,0,0,2.682H52.3a1.341,1.341,0,1,0,0-2.682Z"/>
          </g>
        </g>
        <g id="Grupo_875550" data-name="Grupo 875550">
          <g id="Grupo_875549" data-name="Grupo 875549">
            <path id="Trazado_599281" data-name="Trazado 599281" d="M14.75,26.818H4.023A3.951,3.951,0,0,0,0,30.841V49.613a3.951,3.951,0,0,0,4.023,4.023H14.75a3.951,3.951,0,0,0,4.023-4.023V30.841A3.951,3.951,0,0,0,14.75,26.818Zm1.341,22.8a1.267,1.267,0,0,1-1.341,1.341H4.023a1.267,1.267,0,0,1-1.341-1.341V30.841A1.267,1.267,0,0,1,4.023,29.5H14.75a1.267,1.267,0,0,1,1.341,1.341Z"/>
          </g>
        </g>
      </g>
    </g>
    <g id="Enmascarar_grupo_57" data-name="Enmascarar grupo 57" transform="translate(0 105.127)" clip-path="url(#clip-path-4)">
      <g id="competencia" transform="translate(1214.539 2857.539)">
        <g id="Grupo_875534" data-name="Grupo 875534">
          <g id="Grupo_875533" data-name="Grupo 875533">
            <path id="Trazado_599276" data-name="Trazado 599276" d="M25.165,20.976H19.217a11.184,11.184,0,1,0-12.338,0H.932A.932.932,0,0,0,0,21.907H0v13.98a7.467,7.467,0,0,0,6.524,7.4V54.529a.932.932,0,0,0,.932.932H18.641a.932.932,0,0,0,.932-.932h0V43.286a7.467,7.467,0,0,0,6.524-7.4V21.908A.932.932,0,0,0,25.165,20.976ZM3.728,11.655a9.32,9.32,0,1,1,9.32,9.32A9.32,9.32,0,0,1,3.728,11.655Zm20.5,24.233a5.6,5.6,0,0,1-5.592,5.592.932.932,0,0,0-.932.932h0V53.6H8.388V42.412a.932.932,0,0,0-.932-.932h0a5.6,5.6,0,0,1-5.592-5.592v-9.32H3.728v7.437a4.684,4.684,0,0,0,4.679,4.679H17.69a4.684,4.684,0,0,0,4.679-4.679V26.568h1.864ZM16.8,28.936a5.589,5.589,0,0,0-7.9,7.885H8.407a2.819,2.819,0,0,1-2.815-2.815V26.568H20.5v7.437A2.819,2.819,0,0,1,17.69,36.82H17.2A5.583,5.583,0,0,0,16.8,28.936Zm-.019,4.156a3.728,3.728,0,1,1-3.728-3.728A3.728,3.728,0,0,1,16.777,33.092ZM24.233,24.7H1.864V22.84H24.233Z"/>
          </g>
        </g>
        <g id="Grupo_875536" data-name="Grupo 875536">
          <g id="Grupo_875535" data-name="Grupo 875535">
            <path id="Trazado_599277" data-name="Trazado 599277" d="M54.99,20.976h-.932V1.4a.932.932,0,0,0-.932-.932H32.621a.932.932,0,0,0-.932.932h0V20.976h-.932a.932.932,0,0,0-.932.932h0v13.98a7.467,7.467,0,0,0,6.524,7.4V54.529a.932.932,0,0,0,.932.932H48.466a.932.932,0,0,0,.932-.932h0V43.286a7.467,7.467,0,0,0,6.524-7.4V21.908A.932.932,0,0,0,54.99,20.976ZM33.553,2.335H52.194V20.976H33.553Zm20.5,33.553a5.6,5.6,0,0,1-5.592,5.592.932.932,0,0,0-.932.932h0V53.6h-9.32V42.412a.932.932,0,0,0-.932-.932h0a5.6,5.6,0,0,1-5.592-5.592v-9.32h1.864v7.437a4.684,4.684,0,0,0,4.679,4.679h9.282a4.684,4.684,0,0,0,4.679-4.679V26.568h1.864Zm-7.437-6.952a5.589,5.589,0,0,0-7.9,7.885h-.485a2.819,2.819,0,0,1-2.815-2.815V26.568H50.33v7.437a2.819,2.819,0,0,1-2.815,2.815H47.03A5.583,5.583,0,0,0,46.621,28.936ZM46.6,33.092a3.728,3.728,0,1,1-3.728-3.728A3.728,3.728,0,0,1,46.6,33.092ZM54.058,24.7H31.689V22.84H54.058Z"/>
          </g>
        </g>
        <g id="Grupo_875538" data-name="Grupo 875538">
          <g id="Grupo_875537" data-name="Grupo 875537">
            <path id="Trazado_599278" data-name="Trazado 599278" d="M6.524,10.723H8.388a4.666,4.666,0,0,1,4.66-4.66V4.2A6.532,6.532,0,0,0,6.524,10.723Z"/>
          </g>
        </g>
        <g id="Grupo_875540" data-name="Grupo 875540">
          <g id="Grupo_875539" data-name="Grupo 875539">
            <rect id="Rectángulo_292001" data-name="Rectángulo 292001" width="1.864" height="13.048" transform="translate(48.466 5.131)"/>
          </g>
        </g>
      </g>
    </g>
    <g id="Enmascarar_grupo_61" data-name="Enmascarar grupo 61" transform="translate(0 105.127)" clip-path="url(#clip-path-5)">
      <g id="dinero_2_" data-name="dinero(2)" transform="translate(479 2981)">
        <g id="Grupo_875553" data-name="Grupo 875553">
          <g id="Grupo_875552" data-name="Grupo 875552">
            <g id="Grupo_875551" data-name="Grupo 875551">
              <path id="Trazado_599299" data-name="Trazado 599299" d="M33.968,12.634h.064S33.982,12.509,33.968,12.634Z"/>
              <path id="Trazado_599300" data-name="Trazado 599300" d="M18.449,12.634h.064C18.5,12.509,18.449,12.634,18.449,12.634Z"/>
            </g>
          </g>
        </g>
        <g id="Grupo_875555" data-name="Grupo 875555">
          <g id="Grupo_875554" data-name="Grupo 875554">
            <path id="Trazado_599301" data-name="Trazado 599301" d="M49.467,16.591a2.527,2.527,0,0,0-1.586-1.129l-3.487-.8L46,14.211a2.543,2.543,0,1,0-1.371-4.9l-7.506,2.1a2.56,2.56,0,0,0-.808-.886c1.523-2.835,3.718-7.646,3.718-9.716a.82.82,0,0,0-.972-.8,40.257,40.257,0,0,1-8.488.85,48.957,48.957,0,0,1-8.5-.848.819.819,0,0,0-.865,1.211,8.416,8.416,0,0,1,1.043,2.784,16.817,16.817,0,0,1-7.775-1.331.819.819,0,0,0-1.164.859,17.586,17.586,0,0,0,3.428,8.281h-.031a2.543,2.543,0,0,0-.332,5.064,30.409,30.409,0,0,1-3.567,4.478c-2.9,3.22-6.182,6.87-7.287,12.763a18.891,18.891,0,0,0,.053,7.842,14.525,14.525,0,0,0,2.978,5.987,18.339,18.339,0,0,0,7.86,5.349A28.341,28.341,0,0,0,26.241,55a28.341,28.341,0,0,0,9.818-1.694,18.34,18.34,0,0,0,7.86-5.349A14.524,14.524,0,0,0,46.9,41.97a18.893,18.893,0,0,0,.053-7.842c-1.1-5.893-4.389-9.543-7.287-12.763-.984-1.093-1.92-2.136-2.7-3.193l9.784,2.248a2.543,2.543,0,0,0,2.725-3.828ZM30.56,2.489a40.989,40.989,0,0,0,7.7-.667A42.046,42.046,0,0,1,34.705,10.1a2.548,2.548,0,0,0-2.217,1.723H30.235l-.17-.363c-.7-1.481-2.147-4.563-2.147-7.185a.82.82,0,0,0-.971-.8,28.64,28.64,0,0,1-3.065.438,10.467,10.467,0,0,0-.545-2.023A54.659,54.659,0,0,0,30.56,2.489Zm5.257,10.145V16.1a.92.92,0,1,1-1.84,0V12.634a.92.92,0,1,1,1.84,0Zm-20.605-7.9a20.522,20.522,0,0,0,7.22.9l1.609-.1c.759-.07,1.529-.17,2.3-.3a21.686,21.686,0,0,0,2.1,6.583H18.82a.83.83,0,0,0-.06-.083A15.531,15.531,0,0,1,15.212,4.738ZM38.456,22.45c2.755,3.061,5.877,6.531,6.9,11.976.94,5.011.036,9.215-2.685,12.493-3.355,4.043-9.5,6.457-16.429,6.457S13.167,50.963,9.812,46.92c-2.721-3.279-3.624-7.482-2.685-12.493,1.021-5.445,4.143-8.915,6.9-11.976a26.61,26.61,0,0,0,4.2-5.541h1.982a.812.812,0,1,0,0-1.623h-3.49a.92.92,0,0,1,0-1.84H32.355v1.84H24.076a.812.812,0,1,0,0,1.623h8.412a2.543,2.543,0,0,0,2.79,1.7A39.467,39.467,0,0,0,38.456,22.45Zm-1.016-9.439,7.631-2.136a.92.92,0,1,1,.5,1.771l-4.361,1.221a.806.806,0,0,0-.1.037l-3.663-.842v-.052Zm10.768,5.135a.92.92,0,0,1-1.1.691L37.39,16.6a2.549,2.549,0,0,0,.051-.508V14.729l10.077,2.315A.929.929,0,0,1,48.209,18.147Z"/>
          </g>
        </g>
        <g id="Grupo_875557" data-name="Grupo 875557">
          <g id="Grupo_875556" data-name="Grupo 875556">
            <path id="Trazado_599302" data-name="Trazado 599302" d="M31.435,33.357a2.113,2.113,0,0,0,2.11-2.11v-1.3A6.015,6.015,0,0,0,28.351,24V22.59a2.11,2.11,0,1,0-4.22,0V24.1a6.655,6.655,0,0,0,1.461,13.148h1.3a2.435,2.435,0,0,1,0,4.87H24.942a1.788,1.788,0,0,1-1.786-1.786,2.11,2.11,0,1,0-4.22,0,6.015,6.015,0,0,0,5.194,5.951V47.7a2.11,2.11,0,1,0,4.22,0V46.181A6.655,6.655,0,0,0,26.89,33.033h-1.3a2.435,2.435,0,0,1,0-4.87h1.948a1.788,1.788,0,0,1,1.786,1.786v1.3A2.113,2.113,0,0,0,31.435,33.357Zm-3.9-6.817H25.591a4.058,4.058,0,1,0,0,8.116h1.3a5.032,5.032,0,0,1,.56,10.032.812.812,0,0,0-.722.807v2.2a.487.487,0,0,1-.974,0V45.531a.812.812,0,0,0-.812-.812,4.388,4.388,0,0,1-4.383-4.383.487.487,0,0,1,.974,0,3.413,3.413,0,0,0,3.409,3.409H26.89a4.058,4.058,0,1,0,0-8.116h-1.3a5.032,5.032,0,0,1-.56-10.032.812.812,0,0,0,.722-.807v-2.2a.487.487,0,1,1,.974,0v2.164a.812.812,0,0,0,.812.812,4.388,4.388,0,0,1,4.383,4.383v1.3a.487.487,0,0,1-.974,0v-1.3A3.413,3.413,0,0,0,27.539,26.54Z"/>
          </g>
        </g>
      </g>
    </g>
    <g id="Enmascarar_grupo_59" data-name="Enmascarar grupo 59" transform="translate(0 105.127)" clip-path="url(#clip-path-6)">
      <g id="gente" transform="translate(767.743 2975.759)">
        <path id="Trazado_599282" data-name="Trazado 599282" d="M37.393,38.007a7.147,7.147,0,1,0-9.272,0A9.955,9.955,0,0,0,22.773,46.8a1.474,1.474,0,0,0,2.948,0,7.036,7.036,0,1,1,14.071,0,1.474,1.474,0,0,0,2.948,0A9.955,9.955,0,0,0,37.393,38.007Zm-8.835-5.394a4.2,4.2,0,1,1,4.2,4.2A4.2,4.2,0,0,1,28.558,32.613Z"/>
        <path id="Trazado_599283" data-name="Trazado 599283" d="M54.3,17.782a7.147,7.147,0,1,0-9.276,0,9.94,9.94,0,0,0-2.312,1.627,1.474,1.474,0,0,0,2.054,2.115A7.035,7.035,0,0,1,56.7,26.571a1.474,1.474,0,0,0,2.948,0A9.956,9.956,0,0,0,54.3,17.782Zm-8.834-5.393a4.2,4.2,0,1,1,4.2,4.2A4.2,4.2,0,0,1,45.464,12.389Z"/>
        <path id="Trazado_599284" data-name="Trazado 599284" d="M20.746,21.518A1.475,1.475,0,0,0,22.8,19.4a9.92,9.92,0,0,0-2.305-1.62,7.148,7.148,0,1,0-9.276,0,9.955,9.955,0,0,0-5.348,8.789,1.474,1.474,0,0,0,2.948,0,7.034,7.034,0,0,1,11.93-5.053Zm-9.093-9.129a4.2,4.2,0,1,1,4.2,4.2A4.2,4.2,0,0,1,11.654,12.389Z"/>
        <path id="Trazado_599285" data-name="Trazado 599285" d="M47.751,48.005a17.73,17.73,0,1,0-5.559,5.559l5.529,5.528a3.93,3.93,0,1,0,5.558-5.558ZM22.306,49.02a14.78,14.78,0,1,1,20.9,0,14.8,14.8,0,0,1-20.9,0Zm27.5,7.987-5.242-5.242a9.477,9.477,0,0,0,1.39-1.39l5.242,5.242A.983.983,0,0,1,49.8,57.007Z"/>
      </g>
    </g>
    <g id="Enmascarar_grupo_64" data-name="Enmascarar grupo 64" transform="translate(0 66)" clip-path="url(#clip-path-7)">
      <path id="caja-del-paquete" d="M57.315,16.219,30.766,2.944a.948.948,0,0,0-.848,0L3.369,16.219a.948.948,0,0,0-.524.849V43.616a.948.948,0,0,0,.524.853L29.918,57.744a.948.948,0,0,0,.848,0L57.315,44.47a.948.948,0,0,0,.524-.853V17.067A.948.948,0,0,0,57.315,16.219ZM30.342,29.282,22.93,25.575,46.621,12.99l8.154,4.077Zm-15-7.5L39.036,9.2l5.5,2.75L20.847,24.534Zm-1.122,1.56,5.689,2.845v7.555l-2.174-2.174a.948.948,0,0,0-.67-.278H14.223ZM30.342,4.853l6.611,3.3L13.261,20.741,5.913,17.067ZM4.741,18.6l7.585,3.793v9.844a.948.948,0,0,0,.948.948h3.4L20.19,36.7a.948.948,0,0,0,1.619-.67v-8.9l7.585,3.793V55.357L4.741,43.03ZM31.29,55.357V30.928L55.943,18.6V43.03Z" transform="translate(623.158 2894.283)"/>
    </g>
    <g id="Grupo_876071" data-name="Grupo 876071" transform="translate(1368.445 2868.193)">
      <g id="Grupo_151688" data-name="Grupo 151688" transform="translate(0 7.064)">
        <path id="Trazado_212295" data-name="Trazado 212295" d="M-11425.02-11468v14.128" transform="translate(11432.083 11467.998)" fill="none" stroke="#26779f" stroke-width="4"/>
        <path id="Trazado_212296" data-name="Trazado 212296" d="M0,0V14.127" transform="translate(14.127 7.064) rotate(90)" fill="none" stroke="#26779f" stroke-width="4"/>
      </g>
      <g id="Grupo_151689" data-name="Grupo 151689" transform="translate(18.366 0)">
        <path id="Trazado_212295-2" data-name="Trazado 212295" d="M-11425.02-11468v14.128" transform="translate(11432.083 11467.998)" fill="none" stroke="#26779f" stroke-width="4"/>
        <path id="Trazado_212296-2" data-name="Trazado 212296" d="M0,0V14.127" transform="translate(14.127 7.064) rotate(90)" fill="none" stroke="#26779f" stroke-width="4"/>
      </g>
      <g id="Grupo_151690" data-name="Grupo 151690" transform="translate(21.427 21.192)">
        <path id="Trazado_212295-3" data-name="Trazado 212295" d="M-11425.02-11468v14.128" transform="translate(11432.083 11467.998)" fill="none" stroke="#26779f" stroke-width="4"/>
        <path id="Trazado_212296-3" data-name="Trazado 212296" d="M0,0V14.127" transform="translate(14.127 7.064) rotate(90)" fill="none" stroke="#26779f" stroke-width="4"/>
      </g>
    </g>
  </g>
</svg>
