<svg xmlns="http://www.w3.org/2000/svg" width="190" height="170" viewBox="0 0 190 170">
  <g id="Grupo_875803" data-name="Grupo 875803" transform="translate(-285 -3755)">
    <rect id="Rectángulo_292076" data-name="Rectángulo 292076" width="190" height="170" transform="translate(285 3755)" fill="none"/>
    <g id="Grupo_875783" data-name="Grupo 875783" transform="translate(-42.125 3421)">
      <g id="Grupo_875777" data-name="Grupo 875777" transform="translate(383.356 357.419)">
        <g id="Grupo_875775" data-name="Grupo 875775" transform="translate(0 21.592)">
          <path id="Trazado_599514" data-name="Trazado 599514" d="M955.943,860.555a22.786,22.786,0,0,1,17.541-12.426l.524-33.188c-21.69.023-40.852,13.565-49.585,33.638Z" transform="translate(-919.522 -814.941)" fill="#e6ff48"/>
          <path id="Trazado_599515" data-name="Trazado 599515" d="M1249.07,1473.336c-1.775,10.9-10.7,19.459-21.646,19.831a21.252,21.252,0,0,1-9.214-1.746l-17.1,29.419a51.138,51.138,0,0,0,26.315,5.337c27.272-1.748,48.688-24.564,51.064-52.024Z" transform="translate(-1170.836 -1412.96)" fill="#5ad1a5"/>
          <path id="Trazado_599516" data-name="Trazado 599516" d="M895.9,1314.007l17.263-29.509a23.666,23.666,0,0,1-8.48-18.363,24.921,24.921,0,0,1,.564-5.278L873.6,1249.03a59.572,59.572,0,0,0-2.62,17.525C870.983,1286.762,880.967,1304.162,895.9,1314.007Z" transform="translate(-870.983 -1209.223)" fill="#f3ab1d"/>
        </g>
        <g id="Grupo_875776" data-name="Grupo 875776" transform="translate(59.935 0)">
          <path id="Trazado_599517" data-name="Trazado 599517" d="M1524.574,634.414c9.964,1.667,17.622,10.264,18.531,20.872l48.083,1.611c0-.023,0-.045,0-.068,0-39.238-28.091-72.9-65.751-77.351Z" transform="translate(-1524.574 -579.479)" fill="#3185af"/>
        </g>
      </g>
      <path id="Trazado_599518" data-name="Trazado 599518" d="M664.879,1541H608.256v-54.794a8.2,8.2,0,0,1,8.2-8.2h40.215a8.2,8.2,0,0,1,8.2,8.2Z" transform="translate(-248.993 -1038.187)" fill="#3185af"/>
      <path id="Trazado_599519" data-name="Trazado 599519" d="M388.824,1734.614h-54.7v-35.247a8.2,8.2,0,0,1,8.2-8.2h38.29a8.2,8.2,0,0,1,8.2,8.2Z" transform="translate(0 -1231.799)" fill="#fff"/>
      <g id="Grupo_875779" data-name="Grupo 875779" transform="translate(334.351 335)">
        <path id="Trazado_599520" data-name="Trazado 599520" d="M430.786,335.531,338.591,335c-1.111-.012-2.014,1.46-2.005,3.271l.2,43.694c.009,1.821.935,3.275,2.051,3.22l91.669-2.352c1.066-.052,1.918-1.465,1.932-3.2l.321-40.811C432.778,337.019,431.891,335.543,430.786,335.531Z" transform="translate(-336.586 -335)" fill="#fff"/>
        <path id="Trazado_599521" data-name="Trazado 599521" d="M355.511,410.155c-.171,0-.3-.193-.3-.44l-.2-43.693a.563.563,0,0,1,.076-.3.263.263,0,0,1,.228-.147l92.195.531a.264.264,0,0,1,.226.149.565.565,0,0,1,.075.3l-.321,40.811c0,.242-.128.43-.293.438h0Zm-.205-44.3c-.006,0-.017,0-.036.031a.243.243,0,0,0-.031.131l.2,43.693c0,.1.043.158.065.158l91.673-2.352c.024,0,.063-.065.063-.157l.321-40.811a.245.245,0,0,0-.031-.131c-.019-.031-.031-.031-.036-.031Z" transform="translate(-353.314 -362.772)" fill="#fff"/>
        <g id="Grupo_875778" data-name="Grupo 875778" transform="translate(5.379 7.302)" opacity="0.6">
          <rect id="Rectángulo_292057" data-name="Rectángulo 292057" width="5.374" height="7.313" transform="translate(0 29.032)" fill="#5ad1a5"/>
          <rect id="Rectángulo_292058" data-name="Rectángulo 292058" width="5.374" height="10.269" transform="translate(8.98 26.076)" fill="#5ad1a5"/>
          <rect id="Rectángulo_292059" data-name="Rectángulo 292059" width="5.374" height="12.425" transform="translate(17.96 23.92)" fill="#5ad1a5"/>
          <rect id="Rectángulo_292060" data-name="Rectángulo 292060" width="5.374" height="14.627" transform="translate(26.94 21.718)" fill="#5ad1a5"/>
          <rect id="Rectángulo_292061" data-name="Rectángulo 292061" width="5.374" height="17.109" transform="translate(35.92 19.236)" fill="#5ad1a5"/>
          <rect id="Rectángulo_292062" data-name="Rectángulo 292062" width="5.374" height="21.402" transform="translate(44.9 14.943)" fill="#5ad1a5"/>
          <rect id="Rectángulo_292063" data-name="Rectángulo 292063" width="5.374" height="24.85" transform="translate(53.88 11.495)" fill="#5ad1a5"/>
          <rect id="Rectángulo_292064" data-name="Rectángulo 292064" width="5.374" height="28.155" transform="translate(62.86 8.19)" fill="#5ad1a5"/>
          <rect id="Rectángulo_292065" data-name="Rectángulo 292065" width="5.374" height="30.924" transform="translate(71.84 5.421)" fill="#5ad1a5"/>
          <rect id="Rectángulo_292066" data-name="Rectángulo 292066" width="5.374" height="36.345" transform="translate(80.821)" fill="#5ad1a5"/>
        </g>
        <path id="Trazado_599522" data-name="Trazado 599522" d="M549.3,397.061a1.475,1.475,0,0,0-.7,1.811,1.164,1.164,0,0,0,1.6.728l3.671-1.731c-9.64,10.5-22.8,15-39.327,13.27-.531-.056-.951-.1-1.263-.118a1.627,1.627,0,0,0-1.646.672,1.469,1.469,0,0,0,.318,1.946,1.175,1.175,0,0,0,1.022.183c.24.01.751.062,1.247.113a56.362,56.362,0,0,0,18.012-.717,43.488,43.488,0,0,0,23.3-13.374l-.412,3.038a1.318,1.318,0,0,0,.947,1.514l.079.014a1.305,1.305,0,0,0,1.394-1.2l1.451-10.7Z" transform="translate(-495.372 -387.234)" fill="#3185af"/>
      </g>
      <g id="Grupo_875782" data-name="Grupo 875782" transform="translate(347.137 366.473)">
        <g id="Grupo_875780" data-name="Grupo 875780" transform="translate(1.701 86.304)">
          <path id="Trazado_599523" data-name="Trazado 599523" d="M502.228,1625.059a.662.662,0,0,0-.018-.173c-.862-3.419-5.143-5.549-5.143-5.549l-1.1.086a.89.89,0,0,0-.782.64,10.981,10.981,0,0,0-.5,5.156l0,0A40.25,40.25,0,0,0,502.228,1625.059Z" transform="translate(-494.571 -1619.337)" fill="#333435"/>
          <path id="Trazado_599524" data-name="Trazado 599524" d="M495.93,1681.9a.736.736,0,0,0,.538.544,23.266,23.266,0,0,0,6.482-.092.617.617,0,0,0,.512-.615A40.236,40.236,0,0,1,495.93,1681.9Z" transform="translate(-495.805 -1676.012)" fill="#333435"/>
        </g>
        <path id="Trazado_599525" data-name="Trazado 599525" d="M504.577,1586.388l-.881,4.086a.668.668,0,0,0,.571.55,5.658,5.658,0,0,0,1.315-.021.84.84,0,0,0,.665-.987l1.14-3.628Z" transform="translate(-501.158 -1503.106)" fill="#f7b79e"/>
        <path id="Trazado_599526" data-name="Trazado 599526" d="M808.34,1480.018a9.053,9.053,0,0,1-2.99-.427c0,.167,0,.336.005.512a.331.331,0,0,0,.316.336l9.2-.059a.42.42,0,0,0,.338-.612C814,1479.868,810.93,1480.091,808.34,1480.018Z" transform="translate(-775.15 -1406.102)" fill="#333435"/>
        <path id="Trazado_599527" data-name="Trazado 599527" d="M815.213,1437.013l0-.01a11.685,11.685,0,0,0-7.012-4.435l-1.528-.048a.659.659,0,0,0-.631.412,10.568,10.568,0,0,0-.692,3.9,9.053,9.053,0,0,0,2.99.427C810.934,1437.336,814.007,1437.113,815.213,1437.013Z" transform="translate(-775.153 -1363.347)" fill="#333435"/>
        <path id="Trazado_599528" data-name="Trazado 599528" d="M819.344,1402.027c-.018.147-.359,2.359-.492,3.216a.427.427,0,0,0,.243.469,4.5,4.5,0,0,0,1.3.344.58.58,0,0,0,.581-.442l.942-3.359Z" transform="translate(-787.408 -1335.651)" fill="#f7b79e"/>
        <path id="Trazado_599529" data-name="Trazado 599529" d="M516.088,1153.254a21.88,21.88,0,0,0-2.929,8.054c-.674,4.378-6.412,28.961-7.326,32.865a.545.545,0,0,0,.415.656,9.319,9.319,0,0,0,2.207.265,1.025,1.025,0,0,0,.9-.62l13.689-31.7s9.1-1.754,12.447,2.2c2.005,2.37.686,6.544-1.1,12.447,0,0,2.2,1.1,3.661.366,0,0,6.825-10.667,4.027-17.205-1.3-3.027-6.887-6.01-12.447-6.589Z" transform="translate(-503.086 -1109.691)" fill="#20749e"/>
        <path id="Trazado_599530" data-name="Trazado 599530" d="M617.8,863.179l3.295-29.286s14.277,0,23.429,5.125l-11.847,24.709a3.806,3.806,0,0,1-3.443,2.169A27.1,27.1,0,0,1,617.8,863.179Z" transform="translate(-604.799 -819.616)" fill="#f3ab1d"/>
        <path id="Trazado_599531" data-name="Trazado 599531" d="M878.484,803.953s-.915,9.335-11.9,7.871c0,0-4.215,4.65-4.3,8.731,0,0,20.045,5.18,18.215-15.687Z" transform="translate(-826.861 -792.422)" fill="#f3ab1d"/>
        <path id="Trazado_599532" data-name="Trazado 599532" d="M600.557,1095.216s1.464-2.562,3.661-2.2a5.054,5.054,0,0,1,3.295,2.563l-3.661,1.83C602.387,1098.144,599.825,1097.412,600.557,1095.216Z" transform="translate(-589.02 -1054.948)" fill="#f7b79e"/>
        <path id="Trazado_599533" data-name="Trazado 599533" d="M491.949,843.045s-18.67,8.42-4.393,16.839l.309,1.826s-11.353,1.648-11.841-11.527c-.366-9.884,16.29-16.29,16.29-16.29Z" transform="translate(-476.019 -819.616)" fill="#f3ab1d"/>
        <path id="Trazado_599534" data-name="Trazado 599534" d="M753.978,775.285l-2.69,5.752s3,2.195,6.041,1.337l.786-8.167Z" transform="translate(-726.045 -765.403)" fill="#f7b79e"/>
        <g id="Grupo_875781" data-name="Grupo 875781" transform="translate(26.795 0.183)">
          <path id="Trazado_599535" data-name="Trazado 599535" d="M799.688,712.286c.055.1,1.187,7.791,1.187,7.791l-4.4.553-2.155-7.126S798.76,710.551,799.688,712.286Z" transform="translate(-791.924 -708.847)" fill="#f7b79e"/>
          <path id="Trazado_599536" data-name="Trazado 599536" d="M772.233,685.579a.639.639,0,0,0-.133.546l.829,3.785a.621.621,0,0,0,.06.164c.154.285.719,1.153,1.593.524a5.621,5.621,0,0,1,2.035-1.111.637.637,0,0,1,.725.543,23.784,23.784,0,0,1,.26,3.5.634.634,0,0,1-.6.62,17.677,17.677,0,0,1-3.984-.163.637.637,0,0,1-.489-.435c-.312-.988-1.2-3.752-1.566-4.494-.344-.689-1.363-.816-1.835-.838a.641.641,0,0,1-.461-.226,1.4,1.4,0,0,1,.181-2.194.638.638,0,0,0,.09-.884,1.41,1.41,0,0,1,.126-2.068,1.988,1.988,0,0,1,2.377-.312.662.662,0,0,0,.781-.144.422.422,0,0,1,.394-.141.619.619,0,0,0,.707-.529,1.633,1.633,0,0,1,1.461-1.482c1.937-.348,2.875,1.6,2.823,2.956s-2.173,1.616-3.372,1.375A2.305,2.305,0,0,0,772.233,685.579Z" transform="translate(-768.218 -680.2)" fill="#333435"/>
          <path id="Trazado_599537" data-name="Trazado 599537" d="M777.371,765.752s-.011-2.371-.967-2.606-2,.445-1.2,1.875C776.2,766.8,777.371,765.752,777.371,765.752Z" transform="translate(-774.306 -755.499)" fill="#f7b79e"/>
        </g>
        <path id="Trazado_599538" data-name="Trazado 599538" d="M875.286,692.943l30.384-4.759L905.3,697.7l-30.018-2.563Z" transform="translate(-838.673 -687.269)" fill="#48494b"/>
        <path id="Trazado_599539" data-name="Trazado 599539" d="M1194.557,678.785c-.161,1.884,0,7.816.086,9.771a.661.661,0,0,0,.661.631h.515a.823.823,0,0,0,.812-.689,43.941,43.941,0,0,0,.662-9.722.616.616,0,0,0-.618-.571h-1.482A.635.635,0,0,0,1194.557,678.785Z" transform="translate(-1128.604 -678.204)" fill="#333435"/>
        <path id="Trazado_599540" data-name="Trazado 599540" d="M868.815,734.092h-.9a.3.3,0,0,0-.3.24,9.458,9.458,0,0,0,.027,2.793.3.3,0,0,0,.3.261h.569a.3.3,0,0,0,.3-.268l.3-2.693A.3.3,0,0,0,868.815,734.092Z" transform="translate(-831.622 -728.967)" fill="#333435"/>
        <path id="Trazado_599541" data-name="Trazado 599541" d="M1038.959,756.815a8.005,8.005,0,0,1,.449-2.341c.283-.221,2.479-2.418,2.846-2.418s.732.732,0,1.1a2.234,2.234,0,0,0-.914,1.484l1.987.17s-1.438,2.739-2.171,3.1S1038.959,756.815,1038.959,756.815Z" transform="translate(-987.336 -745.284)" fill="#f7b79e"/>
      </g>
    </g>
  </g>
</svg>
