<svg xmlns="http://www.w3.org/2000/svg" width="159.686" height="155.975" viewBox="0 0 159.686 155.975">
  <g id="mala-resena" transform="translate(0 -5.95)">
    <path id="Trazado_599551" data-name="Trazado 599551" d="M99.8,256.552v19.961H49.9L19.961,293.161V276.513H0V196.67H19.961Z" transform="translate(0 -131.237)" fill="#d8e5ef"/>
    <path id="Trazado_599552" data-name="Trazado 599552" d="M209.9,306.1v19.961H160V268.67Z" transform="translate(-110.098 -180.781)" fill="#bfd0d8"/>
    <path id="Trazado_599553" data-name="Trazado 599553" d="M203.725,5.95V125.315H183.764v16.648l-28.347-16.648H64V5.95Z" transform="translate(-44.039 0)" fill="#eff4f9"/>
    <path id="Trazado_599554" data-name="Trazado 599554" d="M357.863,5.95V125.315H337.9v16.648l-28.347-16.648H288V5.95Z" transform="translate(-198.177 0)" fill="#d8e5ef"/>
    <circle id="Elipse_5586" data-name="Elipse 5586" cx="39.5" cy="39.5" r="39.5" transform="translate(50 26.95)" fill="#62acd1"/>
    <path id="Trazado_599555" data-name="Trazado 599555" d="M327.921,109.871A39.922,39.922,0,0,1,288,149.793V69.95a39.922,39.922,0,0,1,39.921,39.921Z" transform="translate(-198.177 -44.039)" fill="#257ca8"/>
    <path id="Trazado_599556" data-name="Trazado 599556" d="M318.25,156.225h9.357v9.357H318.25Z" transform="translate(-218.992 -103.406)" fill="#d8e5ef"/>
    <path id="Trazado_599557" data-name="Trazado 599557" d="M227.75,156.225h9.357v9.357H227.75Z" transform="translate(-156.718 -103.406)" fill="#eff4f9"/>
    <path id="Trazado_599558" data-name="Trazado 599558" d="M262.025,223.716l-8.546,3.811a14.267,14.267,0,0,0-12.987-8.371,13.971,13.971,0,0,0-12.915,8.621l-8.617-3.643A23.311,23.311,0,0,1,240.493,209.8a23.632,23.632,0,0,1,21.533,13.916Z" transform="translate(-150.669 -140.272)" fill="#eff4f9"/>
    <path id="Trazado_599559" data-name="Trazado 599559" d="M309.533,223.716l-8.546,3.811A14.267,14.267,0,0,0,288,219.157V209.8A23.632,23.632,0,0,1,309.533,223.716Z" transform="translate(-198.177 -140.272)" fill="#d8e5ef"/>
  </g>
</svg>
