<svg xmlns="http://www.w3.org/2000/svg" xmlns:xlink="http://www.w3.org/1999/xlink" width="820" height="460.061" viewBox="0 0 820 460.061">
  <defs>
    <linearGradient id="linear-gradient" x1="0.341" y1="-0.078" x2="-0.129" y2="1.203" gradientUnits="objectBoundingBox">
      <stop offset="0" stop-color="#eef5f9"/>
      <stop offset="1" stop-color="#ebfef7"/>
    </linearGradient>
    <linearGradient id="linear-gradient-2" x1="0.5" x2="0.5" y2="1" gradientUnits="objectBoundingBox">
      <stop offset="0" stop-color="#fff" stop-opacity="0"/>
      <stop offset="1" stop-color="#fff"/>
    </linearGradient>
    <linearGradient id="linear-gradient-3" x1="0.5" x2="0.5" y2="0.785" gradientUnits="objectBoundingBox">
      <stop offset="0" stop-color="#fff"/>
      <stop offset="1" stop-color="#fff" stop-opacity="0"/>
    </linearGradient>
  </defs>
  <g id="Grupo_876218" data-name="Grupo 876218" transform="translate(-390 -8140.643)">
    <g id="Grupo_875469" data-name="Grupo 875469" transform="translate(390 8140.643)">
      <g id="Grupo_875440" data-name="Grupo 875440" transform="translate(820 422.327) rotate(180)">
        <path id="Trazado_596408" data-name="Trazado 596408" d="M0,0H820V422.327H0Z" fill="url(#linear-gradient)"/>
        <path id="Trazado_599230" data-name="Trazado 599230" d="M0,0Z" transform="translate(820 0.306) rotate(180)" fill="url(#linear-gradient-2)"/>
      </g>
      <rect id="Rectángulo_292089" data-name="Rectángulo 292089" width="553" height="354" transform="translate(715 380.061) rotate(180)" fill="url(#linear-gradient-3)"/>
    </g>
    <path id="Trazado_599973" data-name="Trazado 599973" d="M9.106,16H.822V14.356l3.91-4.167A9.645,9.645,0,0,0,5.923,8.654a2.467,2.467,0,0,0,.386-1.245A1.846,1.846,0,0,0,5.9,6.143,1.468,1.468,0,0,0,4.74,5.682a1.584,1.584,0,0,0-1.282.56,2.219,2.219,0,0,0-.469,1.473H.581A3.962,3.962,0,0,1,1.108,5.7,3.715,3.715,0,0,1,2.6,4.267a4.529,4.529,0,0,1,2.183-.519,4.288,4.288,0,0,1,2.9.9A3.172,3.172,0,0,1,8.716,7.176,4.064,4.064,0,0,1,8.251,9a10.148,10.148,0,0,1-1.594,2.167l-2.748,2.9h5.2Zm9.6-5a6.123,6.123,0,0,1-1.038,3.835,3.622,3.622,0,0,1-3.038,1.328,3.647,3.647,0,0,1-3.021-1.3,5.943,5.943,0,0,1-1.071-3.735V8.9a6.042,6.042,0,0,1,1.05-3.843,3.649,3.649,0,0,1,3.026-1.312,3.652,3.652,0,0,1,3.021,1.3A5.925,5.925,0,0,1,18.71,8.778Zm-2.4-2.446A4.426,4.426,0,0,0,15.9,6.368a1.389,1.389,0,0,0-1.282-.685,1.364,1.364,0,0,0-1.249.652,4.142,4.142,0,0,0-.427,2.04v2.941a4.646,4.646,0,0,0,.4,2.2,1.37,1.37,0,0,0,1.291.719,1.347,1.347,0,0,0,1.27-.69,4.535,4.535,0,0,0,.407-2.11ZM20.3,6.238a2.389,2.389,0,0,1,.722-1.805A2.619,2.619,0,0,1,22.91,3.74a2.66,2.66,0,0,1,1.909.685,2.435,2.435,0,0,1,.722,1.855v.6a2.359,2.359,0,0,1-.722,1.8,2.647,2.647,0,0,1-1.893.681,2.664,2.664,0,0,1-1.905-.685A2.417,2.417,0,0,1,20.3,6.828Zm1.594.649a1.129,1.129,0,0,0,.286.806.983.983,0,0,0,.751.3.938.938,0,0,0,.739-.309,1.2,1.2,0,0,0,.274-.827V6.245a1.175,1.175,0,0,0-.274-.81,1.063,1.063,0,0,0-1.494,0,1.2,1.2,0,0,0-.282.847Zm4.184,6.149a2.359,2.359,0,0,1,.73-1.805,2.656,2.656,0,0,1,1.893-.685,2.683,2.683,0,0,1,1.905.677,2.422,2.422,0,0,1,.726,1.864v.6a2.377,2.377,0,0,1-.714,1.8,2.631,2.631,0,0,1-1.9.685,2.662,2.662,0,0,1-1.917-.689,2.407,2.407,0,0,1-.722-1.826Zm1.594.658a1.12,1.12,0,0,0,.3.785.972.972,0,0,0,.747.326q1.013,0,1.013-1.127v-.635a1.138,1.138,0,0,0-.282-.806,1.068,1.068,0,0,0-1.494,0,1.175,1.175,0,0,0-.282.831ZM23.4,15.1l-1.17-.631,5.9-9.446,1.17.631Z" transform="translate(495 8167.703)" fill="#1c6a91"/>
    <path id="Trazado_599974" data-name="Trazado 599974" d="M6.649,16H4.25V6.74l-2.864.884V5.69L6.392,3.9h.257Zm4.283-5.943.7-6.143H18.4v2H13.6l-.3,2.6a3.8,3.8,0,0,1,1.818-.457,3.484,3.484,0,0,1,2.706,1.071,4.277,4.277,0,0,1,.979,3,4.382,4.382,0,0,1-.494,2.1,3.486,3.486,0,0,1-1.415,1.436,4.418,4.418,0,0,1-2.175.51,4.692,4.692,0,0,1-2.034-.444A3.607,3.607,0,0,1,11.2,14.473a3.4,3.4,0,0,1-.577-1.834H13a1.773,1.773,0,0,0,.527,1.175,1.671,1.671,0,0,0,1.183.419,1.475,1.475,0,0,0,1.253-.585,2.711,2.711,0,0,0,.44-1.656,2.242,2.242,0,0,0-.506-1.577,1.858,1.858,0,0,0-1.436-.548,2.077,2.077,0,0,0-1.386.448l-.232.216ZM20.3,6.238a2.389,2.389,0,0,1,.722-1.805A2.619,2.619,0,0,1,22.91,3.74a2.66,2.66,0,0,1,1.909.685,2.435,2.435,0,0,1,.722,1.855v.6a2.359,2.359,0,0,1-.722,1.8,2.647,2.647,0,0,1-1.893.681,2.664,2.664,0,0,1-1.905-.685A2.417,2.417,0,0,1,20.3,6.828Zm1.594.649a1.129,1.129,0,0,0,.286.806.983.983,0,0,0,.751.3.938.938,0,0,0,.739-.309,1.2,1.2,0,0,0,.274-.827V6.245a1.175,1.175,0,0,0-.274-.81,1.063,1.063,0,0,0-1.494,0,1.2,1.2,0,0,0-.282.847Zm4.184,6.149a2.359,2.359,0,0,1,.73-1.805,2.656,2.656,0,0,1,1.893-.685,2.683,2.683,0,0,1,1.905.677,2.422,2.422,0,0,1,.726,1.864v.6a2.377,2.377,0,0,1-.714,1.8,2.631,2.631,0,0,1-1.9.685,2.662,2.662,0,0,1-1.917-.689,2.407,2.407,0,0,1-.722-1.826Zm1.594.658a1.12,1.12,0,0,0,.3.785.972.972,0,0,0,.747.326q1.013,0,1.013-1.127v-.635a1.138,1.138,0,0,0-.282-.806,1.068,1.068,0,0,0-1.494,0,1.175,1.175,0,0,0-.282.831ZM23.4,15.1l-1.17-.631,5.9-9.446,1.17.631Z" transform="translate(495 8246.703)" fill="#1c6a91"/>
    <path id="Trazado_599975" data-name="Trazado 599975" d="M6.649,16H4.25V6.74l-2.864.884V5.69L6.392,3.9h.257ZM18.71,11a6.123,6.123,0,0,1-1.038,3.835,3.622,3.622,0,0,1-3.038,1.328,3.647,3.647,0,0,1-3.021-1.3,5.943,5.943,0,0,1-1.071-3.735V8.9a6.042,6.042,0,0,1,1.05-3.843,3.649,3.649,0,0,1,3.026-1.312,3.652,3.652,0,0,1,3.021,1.3A5.925,5.925,0,0,1,18.71,8.778Zm-2.4-2.446A4.426,4.426,0,0,0,15.9,6.368a1.389,1.389,0,0,0-1.282-.685,1.364,1.364,0,0,0-1.249.652,4.142,4.142,0,0,0-.427,2.04v2.941a4.646,4.646,0,0,0,.4,2.2,1.37,1.37,0,0,0,1.291.719,1.347,1.347,0,0,0,1.27-.69,4.535,4.535,0,0,0,.407-2.11ZM20.3,6.238a2.389,2.389,0,0,1,.722-1.805A2.619,2.619,0,0,1,22.91,3.74a2.66,2.66,0,0,1,1.909.685,2.435,2.435,0,0,1,.722,1.855v.6a2.359,2.359,0,0,1-.722,1.8,2.647,2.647,0,0,1-1.893.681,2.664,2.664,0,0,1-1.905-.685A2.417,2.417,0,0,1,20.3,6.828Zm1.594.649a1.129,1.129,0,0,0,.286.806.983.983,0,0,0,.751.3.938.938,0,0,0,.739-.309,1.2,1.2,0,0,0,.274-.827V6.245a1.175,1.175,0,0,0-.274-.81,1.063,1.063,0,0,0-1.494,0,1.2,1.2,0,0,0-.282.847Zm4.184,6.149a2.359,2.359,0,0,1,.73-1.805,2.656,2.656,0,0,1,1.893-.685,2.683,2.683,0,0,1,1.905.677,2.422,2.422,0,0,1,.726,1.864v.6a2.377,2.377,0,0,1-.714,1.8,2.631,2.631,0,0,1-1.9.685,2.662,2.662,0,0,1-1.917-.689,2.407,2.407,0,0,1-.722-1.826Zm1.594.658a1.12,1.12,0,0,0,.3.785.972.972,0,0,0,.747.326q1.013,0,1.013-1.127v-.635a1.138,1.138,0,0,0-.282-.806,1.068,1.068,0,0,0-1.494,0,1.175,1.175,0,0,0-.282.831ZM23.4,15.1l-1.17-.631,5.9-9.446,1.17.631Z" transform="translate(495 8333.703)" fill="#1c6a91"/>
    <path id="Trazado_599976" data-name="Trazado 599976" d="M1.179,10.057l.7-6.143H8.649v2H3.843l-.3,2.6a3.8,3.8,0,0,1,1.818-.457A3.484,3.484,0,0,1,8.068,9.127a4.277,4.277,0,0,1,.979,3,4.382,4.382,0,0,1-.494,2.1,3.486,3.486,0,0,1-1.415,1.436,4.418,4.418,0,0,1-2.175.51,4.692,4.692,0,0,1-2.034-.444,3.607,3.607,0,0,1-1.482-1.249,3.4,3.4,0,0,1-.577-1.834H3.246a1.773,1.773,0,0,0,.527,1.175,1.671,1.671,0,0,0,1.183.419,1.475,1.475,0,0,0,1.253-.585,2.711,2.711,0,0,0,.44-1.656,2.242,2.242,0,0,0-.506-1.577,1.858,1.858,0,0,0-1.436-.548,2.077,2.077,0,0,0-1.386.448l-.232.216Zm9.363-3.818a2.389,2.389,0,0,1,.722-1.805,2.619,2.619,0,0,1,1.893-.693,2.66,2.66,0,0,1,1.909.685,2.435,2.435,0,0,1,.722,1.855v.6a2.359,2.359,0,0,1-.722,1.8,2.647,2.647,0,0,1-1.893.681,2.664,2.664,0,0,1-1.905-.685,2.417,2.417,0,0,1-.726-1.847Zm1.594.649a1.129,1.129,0,0,0,.286.806.983.983,0,0,0,.751.3.938.938,0,0,0,.739-.309,1.2,1.2,0,0,0,.274-.827V6.245a1.175,1.175,0,0,0-.274-.81,1.063,1.063,0,0,0-1.494,0,1.2,1.2,0,0,0-.282.847Zm4.184,6.149a2.359,2.359,0,0,1,.73-1.805,2.656,2.656,0,0,1,1.893-.685,2.683,2.683,0,0,1,1.905.677,2.422,2.422,0,0,1,.726,1.864v.6a2.377,2.377,0,0,1-.714,1.8,2.631,2.631,0,0,1-1.9.685,2.662,2.662,0,0,1-1.917-.689,2.407,2.407,0,0,1-.722-1.826Zm1.594.658a1.12,1.12,0,0,0,.3.785.972.972,0,0,0,.747.326q1.013,0,1.013-1.127v-.635a1.138,1.138,0,0,0-.282-.806,1.068,1.068,0,0,0-1.494,0,1.175,1.175,0,0,0-.282.831Zm-4.267,1.4-1.17-.631,5.9-9.446,1.17.631Z" transform="translate(495 8434.703)" fill="#1c6a91"/>
    <path id="Trazado_599977" data-name="Trazado 599977" d="M8.957,11a6.123,6.123,0,0,1-1.038,3.835,3.622,3.622,0,0,1-3.038,1.328,3.647,3.647,0,0,1-3.021-1.3A5.943,5.943,0,0,1,.789,11.127V8.9A6.042,6.042,0,0,1,1.839,5.06,3.649,3.649,0,0,1,4.864,3.748a3.652,3.652,0,0,1,3.021,1.3A5.925,5.925,0,0,1,8.957,8.778Zm-2.4-2.446a4.426,4.426,0,0,0-.411-2.189,1.389,1.389,0,0,0-1.282-.685,1.364,1.364,0,0,0-1.249.652,4.142,4.142,0,0,0-.427,2.04v2.941a4.646,4.646,0,0,0,.4,2.2,1.37,1.37,0,0,0,1.291.719,1.347,1.347,0,0,0,1.27-.69,4.535,4.535,0,0,0,.407-2.11Zm3.984-2.319a2.389,2.389,0,0,1,.722-1.805,2.619,2.619,0,0,1,1.893-.693,2.66,2.66,0,0,1,1.909.685,2.435,2.435,0,0,1,.722,1.855v.6a2.359,2.359,0,0,1-.722,1.8,2.647,2.647,0,0,1-1.893.681,2.664,2.664,0,0,1-1.905-.685,2.417,2.417,0,0,1-.726-1.847Zm1.594.649a1.129,1.129,0,0,0,.286.806.983.983,0,0,0,.751.3.938.938,0,0,0,.739-.309,1.2,1.2,0,0,0,.274-.827V6.245a1.175,1.175,0,0,0-.274-.81,1.063,1.063,0,0,0-1.494,0,1.2,1.2,0,0,0-.282.847Zm4.184,6.149a2.359,2.359,0,0,1,.73-1.805,2.656,2.656,0,0,1,1.893-.685,2.683,2.683,0,0,1,1.905.677,2.422,2.422,0,0,1,.726,1.864v.6a2.377,2.377,0,0,1-.714,1.8,2.631,2.631,0,0,1-1.9.685,2.662,2.662,0,0,1-1.917-.689,2.407,2.407,0,0,1-.722-1.826Zm1.594.658a1.12,1.12,0,0,0,.3.785.972.972,0,0,0,.747.326q1.013,0,1.013-1.127v-.635a1.138,1.138,0,0,0-.282-.806,1.068,1.068,0,0,0-1.494,0,1.175,1.175,0,0,0-.282.831Zm-4.267,1.4-1.17-.631,5.9-9.446,1.17.631Z" transform="translate(495 8499.703)" fill="#1c6a91"/>
    <path id="Trazado_599978" data-name="Trazado 599978" d="M1.179,10.057l.7-6.143H8.649v2H3.843l-.3,2.6a3.8,3.8,0,0,1,1.818-.457A3.484,3.484,0,0,1,8.068,9.127a4.277,4.277,0,0,1,.979,3,4.382,4.382,0,0,1-.494,2.1,3.486,3.486,0,0,1-1.415,1.436,4.418,4.418,0,0,1-2.175.51,4.692,4.692,0,0,1-2.034-.444,3.607,3.607,0,0,1-1.482-1.249,3.4,3.4,0,0,1-.577-1.834H3.246a1.773,1.773,0,0,0,.527,1.175,1.671,1.671,0,0,0,1.183.419,1.475,1.475,0,0,0,1.253-.585,2.711,2.711,0,0,0,.44-1.656,2.242,2.242,0,0,0-.506-1.577,1.858,1.858,0,0,0-1.436-.548,2.077,2.077,0,0,0-1.386.448l-.232.216ZM14.095,9.7l1.511-2.681H18.17l-2.557,4.4L18.278,16H15.705l-1.6-2.822L12.509,16H9.928l2.665-4.582-2.548-4.4h2.573Z" transform="translate(678 8527.703)" fill="#636363"/>
    <path id="Trazado_599979" data-name="Trazado 599979" d="M6.649,16H4.25V6.74l-2.864.884V5.69L6.392,3.9h.257Zm7.446-6.3,1.511-2.681H18.17l-2.557,4.4L18.278,16H15.705l-1.6-2.822L12.509,16H9.928l2.665-4.582-2.548-4.4h2.573Z" transform="translate(816 8527.703)" fill="#636363"/>
    <path id="Trazado_599980" data-name="Trazado 599980" d="M8.957,11a6.123,6.123,0,0,1-1.038,3.835,3.622,3.622,0,0,1-3.038,1.328,3.647,3.647,0,0,1-3.021-1.3A5.943,5.943,0,0,1,.789,11.127V8.9A6.042,6.042,0,0,1,1.839,5.06,3.649,3.649,0,0,1,4.864,3.748a3.652,3.652,0,0,1,3.021,1.3A5.925,5.925,0,0,1,8.957,8.778Zm-2.4-2.446a4.426,4.426,0,0,0-.411-2.189,1.389,1.389,0,0,0-1.282-.685,1.364,1.364,0,0,0-1.249.652,4.142,4.142,0,0,0-.427,2.04v2.941a4.646,4.646,0,0,0,.4,2.2,1.37,1.37,0,0,0,1.291.719,1.347,1.347,0,0,0,1.27-.69,4.535,4.535,0,0,0,.407-2.11ZM10.8,14.821a1.208,1.208,0,0,1,.386-.93,1.5,1.5,0,0,1,1.942,0,1.208,1.208,0,0,1,.386.93,1.191,1.191,0,0,1-.382.917,1.525,1.525,0,0,1-1.951,0A1.191,1.191,0,0,1,10.8,14.821Zm5.072-4.765.7-6.143h6.773v2H18.536l-.3,2.6a3.8,3.8,0,0,1,1.818-.457,3.484,3.484,0,0,1,2.706,1.071,4.277,4.277,0,0,1,.979,3,4.382,4.382,0,0,1-.494,2.1,3.486,3.486,0,0,1-1.415,1.436,4.418,4.418,0,0,1-2.175.51,4.692,4.692,0,0,1-2.034-.444,3.607,3.607,0,0,1-1.482-1.249,3.4,3.4,0,0,1-.577-1.834h2.374a1.773,1.773,0,0,0,.527,1.175,1.671,1.671,0,0,0,1.183.419,1.475,1.475,0,0,0,1.253-.585,2.711,2.711,0,0,0,.44-1.656,2.242,2.242,0,0,0-.506-1.577A1.858,1.858,0,0,0,19.4,9.866a2.077,2.077,0,0,0-1.386.448l-.232.216ZM28.787,9.7,30.3,7.019h2.565l-2.557,4.4L32.971,16H30.4l-1.6-2.822L27.2,16H24.62l2.665-4.582-2.548-4.4H27.31Z" transform="translate(944 8527.703)" fill="#636363"/>
    <path id="Trazado_599981" data-name="Trazado 599981" d="M8.957,11a6.123,6.123,0,0,1-1.038,3.835,3.622,3.622,0,0,1-3.038,1.328,3.647,3.647,0,0,1-3.021-1.3A5.943,5.943,0,0,1,.789,11.127V8.9A6.042,6.042,0,0,1,1.839,5.06,3.649,3.649,0,0,1,4.864,3.748a3.652,3.652,0,0,1,3.021,1.3A5.925,5.925,0,0,1,8.957,8.778Zm-2.4-2.446a4.426,4.426,0,0,0-.411-2.189,1.389,1.389,0,0,0-1.282-.685,1.364,1.364,0,0,0-1.249.652,4.142,4.142,0,0,0-.427,2.04v2.941a4.646,4.646,0,0,0,.4,2.2,1.37,1.37,0,0,0,1.291.719,1.347,1.347,0,0,0,1.27-.69,4.535,4.535,0,0,0,.407-2.11Z" transform="translate(1090 8527.703)" fill="#636363"/>
    <path id="Trazado_213249" data-name="Trazado 213249" d="M-6184-3242h-550.828" transform="translate(7289 11584.703)" fill="none" stroke="#f3ab1d" stroke-width="2"/>
    <path id="Trazado_213250" data-name="Trazado 213250" d="M352,0H0" transform="translate(829.586 8166.703) rotate(90)" fill="none" stroke="#f3ab1d" stroke-width="2"/>
    <path id="Trazado_213251" data-name="Trazado 213251" d="M-6637.932-3340.707h352.663V-3065.6" transform="translate(7190.932 11584.703)" fill="none" stroke="#3185af" stroke-width="3" stroke-dasharray="4"/>
    <path id="Trazado_213252" data-name="Trazado 213252" d="M-6637.934-3340.707h138v192.854" transform="translate(7190.933 11666.703)" fill="none" stroke="#3185af" stroke-width="3" stroke-dasharray="4"/>
    <path id="Trazado_213253" data-name="Trazado 213253" d="M-6637.934-3340.707h71.409v87.87" transform="translate(7190.933 11770.703)" fill="none" stroke="#3185af" stroke-width="3" stroke-dasharray="4"/>
    <g id="Grupo_153315" data-name="Grupo 153315" transform="translate(561 8265.703)">
      <g id="cow" transform="translate(0 0)">
        <g id="Grupo_153280" data-name="Grupo 153280" transform="translate(0 0)">
          <g id="Grupo_153279" data-name="Grupo 153279">
            <g id="Grupo_153278" data-name="Grupo 153278">
              <g id="Grupo_153277" data-name="Grupo 153277">
                <g id="Grupo_153276" data-name="Grupo 153276">
                  <g id="Grupo_153275" data-name="Grupo 153275">
                    <g id="Grupo_153274" data-name="Grupo 153274">
                      <ellipse id="Elipse_4914" data-name="Elipse 4914" cx="22.5" cy="22.5" rx="22.5" ry="22.5" fill="#6ea9c7"/>
                    </g>
                  </g>
                </g>
              </g>
            </g>
          </g>
        </g>
        <path id="Trazado_213181" data-name="Trazado 213181" d="M138.892,80.462a21.835,21.835,0,0,0-.253-3.32L116.475,62.718l7.576,17.473-7.576-7.8-8.4,5.018-5.282,1.558L114,89.949l-8.461,5.425,9.378,7.162q.688.041,1.386.041A22.353,22.353,0,0,0,138.892,80.462Z" transform="translate(-93.892 -57.597)" fill="#3185af"/>
      </g>
      <g id="estrella_1_" data-name="estrella (1)" transform="translate(4.786 4.918)">
        <path id="Trazado_213145" data-name="Trazado 213145" d="M17.3,12.53l-5.659,10.4L0,25.1l10.743,4.559,6.554.9.946-6.908Z" transform="translate(0 -12.53)" fill="#ffdd46"/>
        <path id="Trazado_213146" data-name="Trazado 213146" d="M273.3,198.524l-11.351,2.127L256,203.978l3.648,6.942,7.041,7.937-1.533-11.738Z" transform="translate(-238.704 -185.957)" fill="#ff9e00"/>
        <path id="Trazado_213147" data-name="Trazado 213147" d="M97.783,294.128l10.69-5.085.878-4-.878-5.794-5.54,4.442Z" transform="translate(-91.176 -261.228)" fill="#ffdd46"/>
        <g id="Grupo_153262" data-name="Grupo 153262" transform="translate(0 0)">
          <path id="Trazado_213148" data-name="Trazado 213148" d="M256,279.249v9.794l10.69,5.085Z" transform="translate(-238.704 -261.228)" fill="#fcbe00"/>
          <path id="Trazado_213149" data-name="Trazado 213149" d="M273.3,25.1l-11.637-2.169L256,12.53V30.551Z" transform="translate(-238.704 -12.53)" fill="#fcbe00"/>
          <path id="Trazado_213150" data-name="Trazado 213150" d="M0,198.524l8.14,8.6L6.607,218.857,17.3,203.978Z" transform="translate(0 -185.957)" fill="#fcbe00"/>
        </g>
      </g>
    </g>
    <g id="cow-2" data-name="cow" transform="translate(561 8453.703)">
      <g id="Grupo_153280-2" data-name="Grupo 153280" transform="translate(0 0)">
        <g id="Grupo_153279-2" data-name="Grupo 153279" transform="translate(0 0)">
          <g id="Grupo_153278-2" data-name="Grupo 153278">
            <g id="Grupo_153277-2" data-name="Grupo 153277">
              <g id="Grupo_153276-2" data-name="Grupo 153276">
                <g id="Grupo_153275-2" data-name="Grupo 153275">
                  <g id="Grupo_153274-2" data-name="Grupo 153274">
                    <ellipse id="Elipse_4914-2" data-name="Elipse 4914" cx="22.5" cy="22.5" rx="22.5" ry="22.5" fill="#6ea9c7"/>
                  </g>
                </g>
              </g>
            </g>
          </g>
        </g>
      </g>
      <path id="Trazado_213181-2" data-name="Trazado 213181" d="M138.705,81.548a22.649,22.649,0,0,0-.251-3.373L125.043,64.764l-1.1,16.509L107.432,64.764l.614,13.683-5.255,1.583,11.156,11.156-6.056,5.821,6.968,6.968q.684.041,1.379.042A22.468,22.468,0,0,0,138.705,81.548Z" transform="translate(-93.75 -59.059)" fill="#3185af"/>
      <g id="Grupo_153281" data-name="Grupo 153281" transform="translate(11.88 5.705)">
        <path id="Trazado_213182" data-name="Trazado 213182" d="M141.394,72.063s-4.066-1.654-4.454-7.3c0,0-4.569,6.911.841,11.053S141.394,72.063,141.394,72.063Z" transform="translate(-135.137 -64.764)" fill="#555a66"/>
      </g>
      <g id="Grupo_153282" data-name="Grupo 153282" transform="translate(6.663 14.254)">
        <path id="Trazado_213183" data-name="Trazado 213183" d="M83.59,165.883s-3.107-3.981-7.864-3.69c0,0-.971,7.411,7.087,9Z" transform="translate(-75.69 -162.177)" fill="#ffb89c"/>
      </g>
      <g id="Grupo_153283" data-name="Grupo 153283" transform="translate(26.552 5.705)">
        <path id="Trazado_213184" data-name="Trazado 213184" d="M302.6,72.063s4.066-1.654,4.454-7.3c0,0,4.569,6.911-.841,11.053S302.6,72.063,302.6,72.063Z" transform="translate(-302.31 -64.764)" fill="#333940"/>
      </g>
      <g id="Grupo_153284" data-name="Grupo 153284" transform="translate(30.412 14.254)">
        <path id="Trazado_213185" data-name="Trazado 213185" d="M346.291,165.883s3.107-3.981,7.864-3.69c0,0,.971,7.411-7.087,9Z" transform="translate(-346.291 -162.177)" fill="#ff936b"/>
      </g>
      <g id="Grupo_153285" data-name="Grupo 153285" transform="translate(12.532 10.904)">
        <path id="Trazado_213186" data-name="Trazado 213186" d="M153.6,124h-2.821a8.214,8.214,0,0,0-8.146,9.269l1.616,12.478h16.541l.989-7.635Z" transform="translate(-142.568 -124.003)" fill="#fff"/>
      </g>
      <g id="Grupo_153286" data-name="Grupo 153286" transform="translate(22.488 10.904)">
        <path id="Trazado_213187" data-name="Trazado 213187" d="M257.081,124H256V145.75h8.27l.989-7.635-.563-4.759Z" transform="translate(-256 -124.003)" fill="#e9edf5"/>
      </g>
      <g id="Grupo_153287" data-name="Grupo 153287" transform="translate(12.88 29.285)">
        <path id="Trazado_213188" data-name="Trazado 213188" d="M161.335,343.429H150.944a4.412,4.412,0,0,1-4.412-4.412v-1.163a4.412,4.412,0,0,1,4.412-4.412h10.391a4.412,4.412,0,0,1,4.412,4.412v1.163A4.412,4.412,0,0,1,161.335,343.429Z" transform="translate(-146.532 -333.442)" fill="#ffb89c"/>
      </g>
      <g id="Grupo_153288" data-name="Grupo 153288" transform="translate(22.488 29.285)">
        <path id="Trazado_213189" data-name="Trazado 213189" d="M261.2,333.442H256v9.987h5.2a4.412,4.412,0,0,0,4.412-4.412v-1.163A4.412,4.412,0,0,0,261.2,333.442Z" transform="translate(-256 -333.442)" fill="#ff936b"/>
      </g>
      <g id="Grupo_153291" data-name="Grupo 153291" transform="translate(16.729 32.91)">
        <g id="Grupo_153289" data-name="Grupo 153289">
          <ellipse id="Elipse_4915" data-name="Elipse 4915" cx="1.694" cy="1.694" rx="1.694" ry="1.694" fill="#555a66"/>
        </g>
        <g id="Grupo_153290" data-name="Grupo 153290" transform="translate(8.129)">
          <ellipse id="Elipse_4916" data-name="Elipse 4916" cx="1.694" cy="1.694" rx="1.694" ry="1.694" fill="#333940"/>
        </g>
      </g>
      <g id="Grupo_153294" data-name="Grupo 153294" transform="translate(16.429 21.616)">
        <g id="Grupo_153292" data-name="Grupo 153292">
          <ellipse id="Elipse_4917" data-name="Elipse 4917" cx="1.65" cy="1.65" rx="1.65" ry="1.65" fill="#555a66"/>
        </g>
        <g id="Grupo_153293" data-name="Grupo 153293" transform="translate(8.817)">
          <ellipse id="Elipse_4918" data-name="Elipse 4918" cx="1.65" cy="1.65" rx="1.65" ry="1.65" fill="#333940"/>
        </g>
      </g>
      <g id="Grupo_153295" data-name="Grupo 153295" transform="translate(22.911 10.904)">
        <path id="Trazado_213190" data-name="Trazado 213190" d="M262.141,124h-1.317a6.055,6.055,0,0,1,1.947,3.107c.676,2.848.665,5.566,3.389,5.7,1.632.078,2.814,2.987,3.5,5.309l.627-4.843A8.214,8.214,0,0,0,262.141,124Z" transform="translate(-260.824 -124.003)" fill="#555a66"/>
      </g>
    </g>
    <g id="Grupo_153318" data-name="Grupo 153318" transform="translate(839 8453.703)">
      <g id="perro" transform="translate(0 0)">
        <g id="XMLID_181_" transform="translate(0 0)">
          <g id="XMLID_182_">
            <g id="XMLID_183_">
              <g id="XMLID_184_">
                <g id="XMLID_185_">
                  <g id="XMLID_186_">
                    <g id="XMLID_187_">
                      <g id="XMLID_188_">
                        <g id="XMLID_189_">
                          <g id="XMLID_190_">
                            <g id="XMLID_191_">
                              <g id="XMLID_192_">
                                <g id="XMLID_193_">
                                  <g id="XMLID_194_">
                                    <ellipse id="XMLID_195_" cx="23" cy="23" rx="23" ry="23" fill="#6ea9c7"/>
                                  </g>
                                </g>
                              </g>
                            </g>
                          </g>
                        </g>
                      </g>
                    </g>
                  </g>
                </g>
              </g>
            </g>
          </g>
        </g>
        <path id="Trazado_213191" data-name="Trazado 213191" d="M122.335,146.973a22.666,22.666,0,0,0-1.583-8.348l-2.3-2.273-31.7,2.506-2.378,7.113,5.3,5.3,5,12.506,5.9,5.9A22.725,22.725,0,0,0,122.335,146.973Z" transform="translate(-76.73 -124.954)" fill="#3185af"/>
        <g id="Grupo_153304" data-name="Grupo 153304" transform="translate(3.649 8.004)">
          <g id="Grupo_153298" data-name="Grupo 153298">
            <g id="Grupo_153296" data-name="Grupo 153296">
              <path id="Trazado_213192" data-name="Trazado 213192" d="M119.823,104.149s-4.257-3.454-5.634-3.287-3.021,4.969-3.021,4.969,2.422,4.355,3.3,6.34Z" transform="translate(-104.794 -100.613)" fill="#b56f40"/>
              <path id="Trazado_213193" data-name="Trazado 213193" d="M49.892,98.651a3.516,3.516,0,0,0-3.064-.358,38.35,38.35,0,0,0-6,2.329c-1.831.911-1.831,2.641-.61,5.208.851,1.789,3.037,6.208,3.98,5.608.448-.285,3.1-7.725,3.641-9.181C48.292,101.056,49.723,99.155,49.892,98.651Z" transform="translate(-39.368 -98.119)" fill="#cc8656"/>
            </g>
            <g id="Grupo_153297" data-name="Grupo 153297" transform="translate(23.432)">
              <path id="Trazado_213194" data-name="Trazado 213194" d="M303.328,104.149s4.257-3.454,5.634-3.287,3.022,4.969,3.022,4.969-2.422,4.355-3.3,6.34Z" transform="translate(-303.328 -100.613)" fill="#a35d2e"/>
              <path id="Trazado_213195" data-name="Trazado 213195" d="M354.079,98.651a3.516,3.516,0,0,1,3.064-.358,38.351,38.351,0,0,1,6,2.329c1.831.911,1.831,2.641.61,5.208-.851,1.789-3.037,6.208-3.98,5.608-.448-.285-3.1-7.725-3.641-9.181C355.679,101.056,354.248,99.155,354.079,98.651Z" transform="translate(-349.574 -98.119)" fill="#b56f40"/>
            </g>
          </g>
          <g id="Grupo_153302" data-name="Grupo 153302" transform="translate(8.147 1.969)">
            <path id="Trazado_213196" data-name="Trazado 213196" d="M163.58,138.383q-.176.364-.384.761c-3.13,5.953-2,11.454-9.739,11.454s-6.609-5.5-9.739-11.454q-.209-.4-.384-.761a42.484,42.484,0,0,0,2.624-8.946c.792-4.445,5.4-8.946,5.4-8.946a11.352,11.352,0,0,1,4.209,0s4.477,4.5,5.269,8.946A38.383,38.383,0,0,0,163.58,138.383Z" transform="translate(-142.252 -120.295)" fill="#fcf0e5"/>
            <path id="Trazado_213197" data-name="Trazado 213197" d="M266.246,138.388c-.117.243-.245.5-.384.762-3.131,5.953-2,11.454-9.74,11.454H256V120.3h.122a11.278,11.278,0,0,1,2.1.2s4.478,4.5,5.269,8.946A38.387,38.387,0,0,0,266.246,138.388Z" transform="translate(-244.917 -120.3)" fill="#eaddd3"/>
            <g id="Grupo_153299" data-name="Grupo 153299" transform="translate(7.326 20.163)">
              <path id="Trazado_213198" data-name="Trazado 213198" d="M217.434,347.437c-2.254,0-4.236.138-3.655,2.759.376,1.694,2.767,2.9,3.655,2.9s3.279-1.21,3.654-2.9C221.67,347.575,219.688,347.437,217.434,347.437Z" transform="translate(-213.677 -347.437)" fill="#70695e"/>
            </g>
            <g id="Grupo_153300" data-name="Grupo 153300" transform="translate(11.083 20.164)">
              <path id="Trazado_213199" data-name="Trazado 213199" d="M259.655,350.2c-.375,1.694-2.767,2.9-3.655,2.9V347.44C258.254,347.44,260.236,347.578,259.655,350.2Z" transform="translate(-256 -347.44)" fill="#5b554a"/>
            </g>
            <g id="Grupo_153301" data-name="Grupo 153301" transform="translate(0 0.197)">
              <path id="Trazado_213200" data-name="Trazado 213200" d="M139.046,138.167a22.931,22.931,0,0,1-6.814,2.236c-2.517-5.2.027-5.43.941-10.558a8.656,8.656,0,0,1,7.2-7.334C140.623,126.456,142.01,136.292,139.046,138.167Z" transform="translate(-131.15 -122.511)" fill="#cc8656"/>
              <path id="Trazado_213201" data-name="Trazado 213201" d="M282.562,140.4a22.527,22.527,0,0,1-6.76-2.2c-2.964-1.875-1.632-11.745-1.381-15.69a8.656,8.656,0,0,1,7.2,7.334C282.535,134.973,285.08,135.2,282.562,140.4Z" transform="translate(-261.234 -122.512)" fill="#b56f40"/>
            </g>
          </g>
          <g id="Grupo_153303" data-name="Grupo 153303" transform="translate(11.32 11.288)">
            <ellipse id="Elipse_4919" data-name="Elipse 4919" cx="1.425" cy="1.425" rx="1.425" ry="1.425" transform="translate(0 1.675) rotate(-35.851)" fill="#5b554a"/>
            <ellipse id="Elipse_4920" data-name="Elipse 4920" cx="1.425" cy="1.425" rx="1.425" ry="1.425" transform="translate(11.877 1.67) rotate(-35.851)" fill="#3a352e"/>
          </g>
        </g>
      </g>
    </g>
    <g id="Grupo_153319" data-name="Grupo 153319" transform="translate(839 8265.703)">
      <g id="cow-3" data-name="cow" transform="translate(0 0)">
        <g id="Grupo_153280-3" data-name="Grupo 153280" transform="translate(0 0)">
          <g id="Grupo_153279-3" data-name="Grupo 153279">
            <g id="Grupo_153278-3" data-name="Grupo 153278">
              <g id="Grupo_153277-3" data-name="Grupo 153277">
                <g id="Grupo_153276-3" data-name="Grupo 153276">
                  <g id="Grupo_153275-3" data-name="Grupo 153275">
                    <g id="Grupo_153274-3" data-name="Grupo 153274">
                      <ellipse id="Elipse_4914-3" data-name="Elipse 4914" cx="22.216" cy="22.216" rx="22.216" ry="22.216" fill="#6ea9c7"/>
                    </g>
                  </g>
                </g>
              </g>
            </g>
          </g>
        </g>
        <path id="Trazado_213181-3" data-name="Trazado 213181" d="M143.025,81.621a22.672,22.672,0,0,0-.252-3.376L127.188,64.909l1.059,16.437-3.787-5.951-3.394,7.213-4,3.516,2.09,4.667-5.423,8.789,5.423,4.49q.685.041,1.38.042A22.49,22.49,0,0,0,143.025,81.621Z" transform="translate(-98.025 -59.111)" fill="#3185af"/>
      </g>
      <g id="signo-de-interrogacion" transform="translate(6.202 3.731)">
        <g id="Grupo_153266" data-name="Grupo 153266" transform="translate(0 0)">
          <g id="Grupo_153265" data-name="Grupo 153265" transform="translate(0 0)">
            <g id="Grupo_153264" data-name="Grupo 153264">
              <path id="Trazado_213151" data-name="Trazado 213151" d="M189.424,54.768l6.593-5.165,1.029-8.992-7.622-4.2-3.094,4.252a5.233,5.233,0,0,1-.6,9.614,7.429,7.429,0,0,0-4.928,7v1.351a3.187,3.187,0,0,0,3.186,3.187h4.66Z" transform="translate(-172.385 -33.745)" fill="#fe9738"/>
              <path id="Trazado_213152" data-name="Trazado 213152" d="M73.9,14.795H69.24a3.186,3.186,0,0,1-3.186-3.186A11.6,11.6,0,0,1,78.433.03h4.661L79.778,3.378" transform="translate(-66.054 -0.005)" fill="#fe9738"/>
            </g>
            <path id="Trazado_213153" data-name="Trazado 213153" d="M188.648,424.763h-4.66a3.186,3.186,0,0,0-3.186,3.187v.026a3.186,3.186,0,0,0,3.186,3.186h4.093" transform="translate(-172.384 -393.605)" fill="#fe9738"/>
          </g>
        </g>
        <g id="Grupo_153272" data-name="Grupo 153272" transform="translate(4.66 0)">
          <g id="Grupo_153271" data-name="Grupo 153271" transform="translate(0 0)">
            <g id="Grupo_153268" data-name="Grupo 153268" transform="translate(0 0)">
              <g id="Grupo_153267" data-name="Grupo 153267">
                <path id="Trazado_213154" data-name="Trazado 213154" d="M141.188,28.081A3.186,3.186,0,0,1,138,24.895V23.543a7.426,7.426,0,0,1,4.928-7,5.232,5.232,0,1,0-6.922-5.668,5.328,5.328,0,0,0-.051.734,3.186,3.186,0,1,1-6.373,0,11.6,11.6,0,1,1,15.47,10.943,1.044,1.044,0,0,0-.68.992v1.352A3.186,3.186,0,0,1,141.188,28.081Z" transform="translate(-129.584 -0.005)" fill="#ffd15b"/>
              </g>
              <path id="Trazado_213155" data-name="Trazado 213155" d="M247.516,431.163a3.186,3.186,0,0,1-3.186-3.186v-.026a3.186,3.186,0,1,1,6.373,0v.026A3.186,3.186,0,0,1,247.516,431.163Z" transform="translate(-235.913 -393.606)" fill="#ffd15b"/>
            </g>
            <g id="Grupo_153270" data-name="Grupo 153270">
              <g id="Grupo_153269" data-name="Grupo 153269">
                <path id="Trazado_213156" data-name="Trazado 213156" d="M132.512,9.99A11.614,11.614,0,0,0,132.4,11.6a3.184,3.184,0,0,0,1.778,2.859,3.187,3.187,0,0,1-4.595-2.858A11.606,11.606,0,0,1,141.962.025q.325.021.645.062a11.657,11.657,0,0,0-10.1,9.9Z" transform="translate(-129.583 0)" fill="#ffc344"/>
                <path id="Trazado_213157" data-name="Trazado 213157" d="M252.084,97.049a7.429,7.429,0,0,0-4.929,7V105.4a3.185,3.185,0,0,0,1.779,2.859,3.187,3.187,0,0,1-4.595-2.858V104.05a7.427,7.427,0,0,1,4.929-7,5.233,5.233,0,0,0-.325-9.97,5.229,5.229,0,0,1,3.14,9.97Z" transform="translate(-235.921 -80.511)" fill="#ffc344"/>
              </g>
              <path id="Trazado_213158" data-name="Trazado 213158" d="M248.933,430.826a3.187,3.187,0,0,1-4.595-2.858v-.027a3.187,3.187,0,0,1,4.595-2.858,3.189,3.189,0,0,0-1.779,2.858v.027A3.185,3.185,0,0,0,248.933,430.826Z" transform="translate(-235.92 -393.596)" fill="#ffc344"/>
            </g>
          </g>
        </g>
      </g>
    </g>
    <path id="Trazado_599982" data-name="Trazado 599982" d="M0,0H93V21H0Z" transform="translate(736.586 8166.703)" fill="#f3ab1d"/>
    <path id="Trazado_599983" data-name="Trazado 599983" d="M0,0H124V21H0Z" transform="translate(981 8166.5)" fill="#f3ab1d"/>
    <path id="Trazado_599984" data-name="Trazado 599984" d="M0,0H93V21H0Z" transform="translate(736.586 8342.703)" fill="#f3ab1d"/>
    <path id="Trazado_599985" data-name="Trazado 599985" d="M0,0H124V21H0Z" transform="translate(981 8342.703)" fill="#f3ab1d"/>
    <path id="Trazado_599986" data-name="Trazado 599986" d="M10.25,15H8.282V3.625H10.25Zm4.008-8.453.055.977a3.039,3.039,0,0,1,2.461-1.133q2.641,0,2.688,3.023V15h-1.9V9.523a1.741,1.741,0,0,0-.348-1.191,1.462,1.462,0,0,0-1.137-.387,1.829,1.829,0,0,0-1.711,1.039V15h-1.9V6.547Zm9.516-2.055V6.547h1.492V7.953H23.774v4.719a1.039,1.039,0,0,0,.191.7.888.888,0,0,0,.684.215,2.925,2.925,0,0,0,.664-.078v1.469a4.676,4.676,0,0,1-1.25.18q-2.188,0-2.187-2.414V7.953H20.485V6.547h1.391V4.492Zm6.664,10.664a3.928,3.928,0,0,1-2.926-1.137,4.124,4.124,0,0,1-1.121-3.027v-.234A5.072,5.072,0,0,1,26.879,8.5,3.716,3.716,0,0,1,28.25,6.945a3.625,3.625,0,0,1,1.969-.555,3.318,3.318,0,0,1,2.668,1.1,4.658,4.658,0,0,1,.941,3.117v.766H28.305a2.539,2.539,0,0,0,.7,1.656,2.1,2.1,0,0,0,1.543.609,2.571,2.571,0,0,0,2.125-1.055l1.023.977a3.418,3.418,0,0,1-1.355,1.176A4.244,4.244,0,0,1,30.438,15.156Zm-.227-7.242a1.6,1.6,0,0,0-1.262.547,2.835,2.835,0,0,0-.613,1.523h3.617V9.844A2.307,2.307,0,0,0,31.446,8.4,1.586,1.586,0,0,0,30.211,7.914Zm9.516.367a4.7,4.7,0,0,0-.773-.062,1.741,1.741,0,0,0-1.758,1V15H35.3V6.547H37.11l.047.945a2.139,2.139,0,0,1,1.906-1.1,1.777,1.777,0,0,1,.672.109Zm5.625,0a4.7,4.7,0,0,0-.773-.062,1.741,1.741,0,0,0-1.758,1V15h-1.9V6.547h1.813l.047.945a2.139,2.139,0,0,1,1.906-1.1,1.777,1.777,0,0,1,.672.109Zm.563,2.414a4.984,4.984,0,0,1,.492-2.238,3.6,3.6,0,0,1,1.383-1.531,3.9,3.9,0,0,1,2.047-.535,3.692,3.692,0,0,1,2.777,1.1,4.333,4.333,0,0,1,1.152,2.922l.008.445a5.029,5.029,0,0,1-.48,2.234,3.551,3.551,0,0,1-1.375,1.523,3.925,3.925,0,0,1-2.066.539,3.667,3.667,0,0,1-2.863-1.191,4.563,4.563,0,0,1-1.074-3.176Zm1.9.164a3.406,3.406,0,0,0,.539,2.043,1.752,1.752,0,0,0,1.5.738,1.733,1.733,0,0,0,1.5-.75,3.762,3.762,0,0,0,.535-2.2,3.362,3.362,0,0,0-.551-2.031,1.856,1.856,0,0,0-2.973-.012A3.691,3.691,0,0,0,47.813,10.859Zm7.234-.148a4.944,4.944,0,0,1,.926-3.145A2.971,2.971,0,0,1,58.43,6.391,2.784,2.784,0,0,1,60.7,7.4l.086-.852H62.5v8.2a3.406,3.406,0,0,1-1.035,2.625,3.943,3.943,0,0,1-2.793.961,4.5,4.5,0,0,1-1.816-.387,3.228,3.228,0,0,1-1.348-1.012l.9-1.141a2.713,2.713,0,0,0,2.156,1.039,2.1,2.1,0,0,0,1.492-.512,1.961,1.961,0,0,0,.547-1.5v-.57a2.8,2.8,0,0,1-2.187.914,2.964,2.964,0,0,1-2.426-1.18A5.1,5.1,0,0,1,55.047,10.711Zm1.891.164a3.4,3.4,0,0,0,.52,2,1.671,1.671,0,0,0,1.441.73,1.827,1.827,0,0,0,1.7-.984V8.906a1.8,1.8,0,0,0-1.687-.961,1.677,1.677,0,0,0-1.457.742A3.811,3.811,0,0,0,56.938,10.875ZM69.5,15a2.93,2.93,0,0,1-.219-.789,3.193,3.193,0,0,1-4.3.219,2.325,2.325,0,0,1-.8-1.8,2.4,2.4,0,0,1,1-2.074,4.865,4.865,0,0,1,2.871-.723h1.164V9.281a1.481,1.481,0,0,0-.367-1.051,1.456,1.456,0,0,0-1.117-.395,1.672,1.672,0,0,0-1.062.324,1,1,0,0,0-.414.824h-1.9a2.107,2.107,0,0,1,.461-1.3,3.071,3.071,0,0,1,1.254-.949,4.4,4.4,0,0,1,1.77-.344,3.547,3.547,0,0,1,2.367.746,2.661,2.661,0,0,1,.906,2.1v3.813a4.321,4.321,0,0,0,.32,1.82V15Zm-2.086-1.367a2.159,2.159,0,0,0,1.059-.273,1.827,1.827,0,0,0,.746-.734V11.031H68.2a2.8,2.8,0,0,0-1.586.367,1.189,1.189,0,0,0-.531,1.039,1.109,1.109,0,0,0,.363.871A1.407,1.407,0,0,0,67.414,13.633Zm7.453-7.086.055.977a3.039,3.039,0,0,1,2.461-1.133q2.641,0,2.688,3.023V15h-1.9V9.523a1.741,1.741,0,0,0-.348-1.191,1.462,1.462,0,0,0-1.137-.387,1.829,1.829,0,0,0-1.711,1.039V15h-1.9V6.547Zm9.516-2.055V6.547h1.492V7.953H84.383v4.719a1.039,1.039,0,0,0,.191.7.888.888,0,0,0,.684.215,2.925,2.925,0,0,0,.664-.078v1.469a4.676,4.676,0,0,1-1.25.18q-2.188,0-2.187-2.414V7.953H81.094V6.547h1.391V4.492Zm6.664,10.664a3.928,3.928,0,0,1-2.926-1.137A4.124,4.124,0,0,1,87,10.992v-.234A5.072,5.072,0,0,1,87.489,8.5,3.716,3.716,0,0,1,88.86,6.945a3.625,3.625,0,0,1,1.969-.555,3.318,3.318,0,0,1,2.668,1.1,4.658,4.658,0,0,1,.941,3.117v.766H88.914a2.539,2.539,0,0,0,.7,1.656,2.1,2.1,0,0,0,1.543.609,2.571,2.571,0,0,0,2.125-1.055l1.023.977a3.418,3.418,0,0,1-1.355,1.176A4.244,4.244,0,0,1,91.047,15.156Zm-.227-7.242a1.6,1.6,0,0,0-1.262.547,2.835,2.835,0,0,0-.613,1.523h3.617V9.844A2.307,2.307,0,0,0,92.055,8.4,1.586,1.586,0,0,0,90.821,7.914Z" transform="translate(992 8167.5)" fill="#12263f"/>
    <path id="Trazado_599987" data-name="Trazado 599987" d="M35.6,10.781V15H33.621V3.625h4.352A4.4,4.4,0,0,1,41,4.618a3.34,3.34,0,0,1,1.121,2.628,3.229,3.229,0,0,1-1.1,2.6,4.613,4.613,0,0,1-3.074.931Zm0-1.594h2.375a2.339,2.339,0,0,0,1.609-.5,1.823,1.823,0,0,0,.555-1.434,1.967,1.967,0,0,0-.562-1.473,2.168,2.168,0,0,0-1.547-.566H35.6Zm11.688,5.969a3.928,3.928,0,0,1-2.926-1.137,4.124,4.124,0,0,1-1.121-3.027v-.234A5.072,5.072,0,0,1,43.727,8.5,3.716,3.716,0,0,1,45.1,6.945a3.625,3.625,0,0,1,1.969-.555,3.318,3.318,0,0,1,2.668,1.1,4.658,4.658,0,0,1,.941,3.117v.766H45.152a2.539,2.539,0,0,0,.7,1.656,2.1,2.1,0,0,0,1.543.609,2.571,2.571,0,0,0,2.125-1.055l1.023.977a3.418,3.418,0,0,1-1.355,1.176A4.244,4.244,0,0,1,47.285,15.156Zm-.227-7.242a1.6,1.6,0,0,0-1.262.547,2.835,2.835,0,0,0-.613,1.523H48.8V9.844A2.307,2.307,0,0,0,48.293,8.4,1.586,1.586,0,0,0,47.059,7.914Zm9.516.367a4.7,4.7,0,0,0-.773-.062,1.741,1.741,0,0,0-1.758,1V15h-1.9V6.547h1.813L54,7.492a2.139,2.139,0,0,1,1.906-1.1,1.777,1.777,0,0,1,.672.109Zm5.625,0a4.7,4.7,0,0,0-.773-.062,1.741,1.741,0,0,0-1.758,1V15h-1.9V6.547h1.813l.047.945a2.139,2.139,0,0,1,1.906-1.1,1.777,1.777,0,0,1,.672.109Zm.563,2.414a4.984,4.984,0,0,1,.492-2.238,3.6,3.6,0,0,1,1.383-1.531,3.9,3.9,0,0,1,2.047-.535,3.692,3.692,0,0,1,2.777,1.1,4.333,4.333,0,0,1,1.152,2.922l.008.445a5.029,5.029,0,0,1-.48,2.234,3.551,3.551,0,0,1-1.375,1.523,3.925,3.925,0,0,1-2.066.539,3.667,3.667,0,0,1-2.863-1.191,4.563,4.563,0,0,1-1.074-3.176Zm1.9.164A3.406,3.406,0,0,0,65.2,12.9a1.752,1.752,0,0,0,1.5.738,1.733,1.733,0,0,0,1.5-.75,3.762,3.762,0,0,0,.535-2.2,3.362,3.362,0,0,0-.551-2.031,1.856,1.856,0,0,0-2.973-.012A3.691,3.691,0,0,0,64.66,10.859Z" transform="translate(995 8343.703)" fill="#12263f"/>
    <path id="Trazado_213254" data-name="Trazado 213254" d="M-6184-3066.838h-551.409" transform="translate(7288.41 11585.703)" fill="none" stroke="#707070" stroke-width="2"/>
    <path id="Trazado_213255" data-name="Trazado 213255" d="M352.309,0H0" transform="translate(553 8519.104) rotate(-90)" fill="none" stroke="#707070" stroke-width="2"/>
    <path id="Trazado_213256" data-name="Trazado 213256" d="M0,0H820V39H0Z" transform="translate(390 8561.703)" fill="#3185af"/>
    <path id="Trazado_599988" data-name="Trazado 599988" d="M150.872,12.491V17h-2.637V4.2h4.992a5.776,5.776,0,0,1,2.536.527,3.886,3.886,0,0,1,1.683,1.5,4.178,4.178,0,0,1,.589,2.21,3.674,3.674,0,0,1-1.288,2.966,5.363,5.363,0,0,1-3.564,1.085Zm0-2.136h2.355a2.316,2.316,0,0,0,1.6-.492,1.79,1.79,0,0,0,.549-1.406,2.111,2.111,0,0,0-.554-1.521,2.068,2.068,0,0,0-1.529-.6h-2.417ZM165.093,17a2.821,2.821,0,0,1-.255-.853,3.073,3.073,0,0,1-2.4,1.028,3.376,3.376,0,0,1-2.316-.809,2.6,2.6,0,0,1-.918-2.039,2.687,2.687,0,0,1,1.121-2.32,5.529,5.529,0,0,1,3.239-.817h1.169v-.545a1.567,1.567,0,0,0-.338-1.055,1.331,1.331,0,0,0-1.068-.4,1.513,1.513,0,0,0-1.006.308,1.045,1.045,0,0,0-.365.844h-2.54a2.551,2.551,0,0,1,.51-1.529,3.37,3.37,0,0,1,1.441-1.1,5.253,5.253,0,0,1,2.092-.4,4.15,4.15,0,0,1,2.791.883,3.09,3.09,0,0,1,1.033,2.483V14.8a4.546,4.546,0,0,0,.378,2.048V17Zm-2.1-1.767a2.188,2.188,0,0,0,1.037-.25,1.645,1.645,0,0,0,.7-.672V12.676h-.949q-1.907,0-2.03,1.318l-.009.149a1.017,1.017,0,0,0,.334.782A1.3,1.3,0,0,0,162.992,15.233Zm11.584-5.361a6.9,6.9,0,0,0-.914-.07,1.86,1.86,0,0,0-1.89.976V17h-2.54V7.49h2.4l.07,1.134a2.354,2.354,0,0,1,2.118-1.31,2.662,2.662,0,0,1,.791.114Zm4.7-4.72V7.49H180.9V9.354h-1.626V14.1a1.133,1.133,0,0,0,.2.756,1.015,1.015,0,0,0,.773.229,4.051,4.051,0,0,0,.747-.062v1.925a5.229,5.229,0,0,1-1.538.229,2.425,2.425,0,0,1-2.725-2.7V9.354H175.35V7.49h1.389V5.152ZM185,17h-2.549V7.49H185ZM182.3,5.029a1.251,1.251,0,0,1,.382-.94,1.648,1.648,0,0,1,2.079,0,1.244,1.244,0,0,1,.387.94,1.247,1.247,0,0,1-.391.949,1.629,1.629,0,0,1-2.065,0A1.247,1.247,0,0,1,182.3,5.029Zm8.745,10.1a1.666,1.666,0,0,0,1.143-.387,1.355,1.355,0,0,0,.457-1.028h2.382a3.258,3.258,0,0,1-.527,1.771,3.48,3.48,0,0,1-1.419,1.248,4.442,4.442,0,0,1-1.991.444,4.129,4.129,0,0,1-3.217-1.3A5.13,5.13,0,0,1,186.7,12.3v-.167a5.071,5.071,0,0,1,1.169-3.507,4.08,4.08,0,0,1,3.208-1.31,4,4,0,0,1,2.861,1.015,3.594,3.594,0,0,1,1.094,2.7h-2.382a1.745,1.745,0,0,0-.457-1.206,1.7,1.7,0,0,0-2.5.183,3.749,3.749,0,0,0-.453,2.1v.264a3.8,3.8,0,0,0,.448,2.113A1.549,1.549,0,0,0,191.047,15.128ZM199.159,17H196.61V7.49h2.549Zm-2.7-11.971a1.251,1.251,0,0,1,.382-.94,1.648,1.648,0,0,1,2.079,0,1.244,1.244,0,0,1,.387.94,1.247,1.247,0,0,1-.391.949,1.629,1.629,0,0,1-2.065,0A1.247,1.247,0,0,1,196.461,5.029Zm13.351,7.3a5.7,5.7,0,0,1-1,3.52,3.2,3.2,0,0,1-2.694,1.323,2.963,2.963,0,0,1-2.329-1v4.482h-2.54V7.49h2.355l.088.932A2.985,2.985,0,0,1,206.1,7.314a3.22,3.22,0,0,1,2.733,1.3,5.858,5.858,0,0,1,.976,3.586Zm-2.54-.194a3.763,3.763,0,0,0-.47-2.054,1.53,1.53,0,0,0-1.367-.723,1.662,1.662,0,0,0-1.644.917v3.906a1.691,1.691,0,0,0,1.661.943Q207.271,15.128,207.271,12.139ZM216.9,17a2.821,2.821,0,0,1-.255-.853,3.073,3.073,0,0,1-2.4,1.028,3.376,3.376,0,0,1-2.316-.809,2.6,2.6,0,0,1-.918-2.039,2.687,2.687,0,0,1,1.121-2.32,5.529,5.529,0,0,1,3.239-.817h1.169v-.545a1.567,1.567,0,0,0-.338-1.055,1.331,1.331,0,0,0-1.068-.4,1.513,1.513,0,0,0-1.006.308,1.045,1.045,0,0,0-.365.844h-2.54a2.551,2.551,0,0,1,.51-1.529,3.37,3.37,0,0,1,1.441-1.1,5.253,5.253,0,0,1,2.092-.4,4.15,4.15,0,0,1,2.791.883,3.09,3.09,0,0,1,1.033,2.483V14.8a4.546,4.546,0,0,0,.378,2.048V17Zm-2.1-1.767a2.188,2.188,0,0,0,1.037-.25,1.645,1.645,0,0,0,.7-.672V12.676h-.949q-1.907,0-2.03,1.318l-.009.149a1.017,1.017,0,0,0,.334.782A1.3,1.3,0,0,0,214.795,15.233Zm10.2-.105a1.666,1.666,0,0,0,1.143-.387,1.355,1.355,0,0,0,.457-1.028h2.382a3.258,3.258,0,0,1-.527,1.771,3.48,3.48,0,0,1-1.419,1.248,4.442,4.442,0,0,1-1.991.444,4.129,4.129,0,0,1-3.217-1.3A5.13,5.13,0,0,1,220.64,12.3v-.167a5.071,5.071,0,0,1,1.169-3.507,4.08,4.08,0,0,1,3.208-1.31,4,4,0,0,1,2.861,1.015,3.594,3.594,0,0,1,1.094,2.7H226.59a1.745,1.745,0,0,0-.457-1.206,1.7,1.7,0,0,0-2.5.183,3.749,3.749,0,0,0-.453,2.1v.264a3.8,3.8,0,0,0,.448,2.113A1.549,1.549,0,0,0,224.99,15.128ZM233.1,17h-2.549V7.49H233.1ZM230.4,5.029a1.251,1.251,0,0,1,.382-.94,1.648,1.648,0,0,1,2.079,0,1.244,1.244,0,0,1,.387.94,1.247,1.247,0,0,1-.391.949,1.629,1.629,0,0,1-2.065,0A1.247,1.247,0,0,1,230.4,5.029Zm4.395,7.128a5.64,5.64,0,0,1,.545-2.522,3.989,3.989,0,0,1,1.569-1.714,4.577,4.577,0,0,1,2.377-.606,4.33,4.33,0,0,1,3.142,1.178,4.727,4.727,0,0,1,1.358,3.2l.018.65a4.97,4.97,0,0,1-1.222,3.511,4.735,4.735,0,0,1-6.561,0,5.058,5.058,0,0,1-1.226-3.586Zm2.54.18a3.555,3.555,0,0,0,.51,2.073,1.831,1.831,0,0,0,2.9.009,3.89,3.89,0,0,0,.519-2.267,3.519,3.519,0,0,0-.519-2.06,1.686,1.686,0,0,0-1.459-.731,1.658,1.658,0,0,0-1.441.726A3.955,3.955,0,0,0,237.339,12.338ZM239.791,3.5h2.769l-2.435,2.725H238.06Zm7.919,3.99.079,1.1a3.32,3.32,0,0,1,2.733-1.274,2.759,2.759,0,0,1,2.25.888,4.142,4.142,0,0,1,.756,2.654V17h-2.54V10.9a1.654,1.654,0,0,0-.352-1.176,1.572,1.572,0,0,0-1.169-.366,1.747,1.747,0,0,0-1.608.916V17h-2.54V7.49Zm11.83,4.685a5.731,5.731,0,0,1,1-3.542,3.237,3.237,0,0,1,2.729-1.318,2.913,2.913,0,0,1,2.294,1.037V3.5h2.549V17h-2.294l-.123-1.011a2.989,2.989,0,0,1-2.443,1.187,3.228,3.228,0,0,1-2.694-1.323A5.916,5.916,0,0,1,259.54,12.175Zm2.54.181a3.775,3.775,0,0,0,.466,2.057,1.516,1.516,0,0,0,1.354.715,1.7,1.7,0,0,0,1.661-1V10.36a1.675,1.675,0,0,0-1.644-1Q262.08,9.362,262.08,12.356Zm12.375,4.82a4.668,4.668,0,0,1-3.406-1.283,4.561,4.561,0,0,1-1.314-3.419v-.246a5.745,5.745,0,0,1,.554-2.562,4.064,4.064,0,0,1,1.569-1.74,4.4,4.4,0,0,1,2.316-.611,3.947,3.947,0,0,1,3.072,1.23,5,5,0,0,1,1.121,3.489v1.037h-6.056a2.36,2.36,0,0,0,.743,1.494,2.245,2.245,0,0,0,1.569.563,2.742,2.742,0,0,0,2.294-1.063l1.248,1.4a3.813,3.813,0,0,1-1.547,1.261A5.075,5.075,0,0,1,274.455,17.176Zm-.29-7.813a1.587,1.587,0,0,0-1.226.512,2.651,2.651,0,0,0-.6,1.466h3.533v-.2a1.891,1.891,0,0,0-.457-1.311A1.638,1.638,0,0,0,274.165,9.362ZM286.672,7.49l.079,1.063a3.342,3.342,0,0,1,2.733-1.239,2.536,2.536,0,0,1,2.522,1.45,3.265,3.265,0,0,1,2.856-1.45,2.836,2.836,0,0,1,2.3.9,4.141,4.141,0,0,1,.756,2.711V17h-2.549V10.922a1.818,1.818,0,0,0-.316-1.185,1.4,1.4,0,0,0-1.116-.374,1.585,1.585,0,0,0-1.582,1.092L292.367,17h-2.54V10.93a1.8,1.8,0,0,0-.325-1.2,1.414,1.414,0,0,0-1.107-.37,1.645,1.645,0,0,0-1.564.9V17h-2.54V7.49Zm17.578,9.686a4.668,4.668,0,0,1-3.406-1.283,4.561,4.561,0,0,1-1.314-3.419v-.246a5.745,5.745,0,0,1,.554-2.562,4.064,4.064,0,0,1,1.569-1.74,4.4,4.4,0,0,1,2.316-.611,3.947,3.947,0,0,1,3.072,1.23,5,5,0,0,1,1.121,3.489v1.037h-6.056a2.36,2.36,0,0,0,.743,1.494,2.245,2.245,0,0,0,1.569.563,2.742,2.742,0,0,0,2.294-1.063l1.248,1.4a3.813,3.813,0,0,1-1.547,1.261A5.075,5.075,0,0,1,304.25,17.176Zm-.29-7.813a1.587,1.587,0,0,0-1.226.512,2.651,2.651,0,0,0-.6,1.466h3.533v-.2a1.891,1.891,0,0,0-.457-1.311A1.638,1.638,0,0,0,303.96,9.362Zm10.986.51a6.9,6.9,0,0,0-.914-.07,1.86,1.86,0,0,0-1.89.976V17H309.6V7.49H312l.07,1.134a2.354,2.354,0,0,1,2.118-1.31,2.662,2.662,0,0,1,.791.114Zm5.01,5.256a1.666,1.666,0,0,0,1.143-.387,1.355,1.355,0,0,0,.457-1.028h2.382a3.258,3.258,0,0,1-.527,1.771,3.48,3.48,0,0,1-1.419,1.248,4.442,4.442,0,0,1-1.991.444,4.129,4.129,0,0,1-3.217-1.3,5.13,5.13,0,0,1-1.178-3.582v-.167a5.071,5.071,0,0,1,1.169-3.507,4.08,4.08,0,0,1,3.208-1.31,4,4,0,0,1,2.861,1.015,3.594,3.594,0,0,1,1.094,2.7h-2.382a1.745,1.745,0,0,0-.457-1.206,1.7,1.7,0,0,0-2.5.183,3.749,3.749,0,0,0-.453,2.1v.264a3.8,3.8,0,0,0,.448,2.113A1.549,1.549,0,0,0,319.956,15.128ZM330.9,17a2.821,2.821,0,0,1-.255-.853,3.073,3.073,0,0,1-2.4,1.028,3.376,3.376,0,0,1-2.316-.809,2.6,2.6,0,0,1-.918-2.039,2.687,2.687,0,0,1,1.121-2.32,5.529,5.529,0,0,1,3.239-.817h1.169v-.545a1.567,1.567,0,0,0-.338-1.055,1.331,1.331,0,0,0-1.068-.4,1.513,1.513,0,0,0-1.006.308,1.045,1.045,0,0,0-.365.844h-2.54a2.551,2.551,0,0,1,.51-1.529,3.37,3.37,0,0,1,1.441-1.1,5.253,5.253,0,0,1,2.092-.4,4.15,4.15,0,0,1,2.791.883,3.09,3.09,0,0,1,1.033,2.483V14.8a4.546,4.546,0,0,0,.378,2.048V17Zm-2.1-1.767a2.188,2.188,0,0,0,1.037-.25,1.645,1.645,0,0,0,.7-.672V12.676h-.949q-1.907,0-2.03,1.318l-.009.149a1.017,1.017,0,0,0,.334.782A1.3,1.3,0,0,0,328.8,15.233Zm5.845-3.059a5.731,5.731,0,0,1,1-3.542,3.237,3.237,0,0,1,2.729-1.318,2.913,2.913,0,0,1,2.294,1.037V3.5h2.549V17h-2.294l-.123-1.011a2.989,2.989,0,0,1-2.443,1.187,3.228,3.228,0,0,1-2.694-1.323A5.916,5.916,0,0,1,334.643,12.175Zm2.54.181a3.775,3.775,0,0,0,.466,2.057,1.516,1.516,0,0,0,1.354.715,1.7,1.7,0,0,0,1.661-1V10.36a1.675,1.675,0,0,0-1.644-1Q337.183,9.362,337.183,12.356Zm7.6-.2a5.64,5.64,0,0,1,.545-2.522A3.989,3.989,0,0,1,346.9,7.921a4.577,4.577,0,0,1,2.377-.606,4.33,4.33,0,0,1,3.142,1.178,4.727,4.727,0,0,1,1.358,3.2l.018.65a4.97,4.97,0,0,1-1.222,3.511,4.735,4.735,0,0,1-6.561,0,5.058,5.058,0,0,1-1.226-3.586Zm2.54.18a3.555,3.555,0,0,0,.51,2.073,1.831,1.831,0,0,0,2.9.009,3.89,3.89,0,0,0,.519-2.267,3.519,3.519,0,0,0-.519-2.06,1.686,1.686,0,0,0-1.459-.731,1.658,1.658,0,0,0-1.441.726A3.955,3.955,0,0,0,347.325,12.338ZM360.535,17V9.354H359.12V7.49h1.415V6.682a3.283,3.283,0,0,1,.918-2.483,3.557,3.557,0,0,1,2.571-.883,5.987,5.987,0,0,1,1.292.174l-.026,1.953a3.238,3.238,0,0,0-.773-.079q-1.433,0-1.433,1.356V7.49h1.89V9.354h-1.89V17Zm11.1-7.128a6.9,6.9,0,0,0-.914-.07,1.86,1.86,0,0,0-1.89.976V17h-2.54V7.49h2.4l.07,1.134a2.354,2.354,0,0,1,2.118-1.31,2.662,2.662,0,0,1,.791.114Zm5.432,7.3a4.668,4.668,0,0,1-3.406-1.283,4.561,4.561,0,0,1-1.314-3.419v-.246a5.745,5.745,0,0,1,.554-2.562,4.064,4.064,0,0,1,1.569-1.74,4.4,4.4,0,0,1,2.316-.611,3.947,3.947,0,0,1,3.072,1.23,5,5,0,0,1,1.121,3.489v1.037h-6.056a2.36,2.36,0,0,0,.743,1.494,2.245,2.245,0,0,0,1.569.563,2.742,2.742,0,0,0,2.294-1.063l1.248,1.4a3.813,3.813,0,0,1-1.547,1.261A5.075,5.075,0,0,1,377.067,17.176Zm-.29-7.813a1.587,1.587,0,0,0-1.226.512,2.651,2.651,0,0,0-.6,1.466h3.533v-.2a1.891,1.891,0,0,0-.457-1.311A1.638,1.638,0,0,0,376.777,9.362Zm7.98-1.872.079,1.1a3.32,3.32,0,0,1,2.733-1.274,2.759,2.759,0,0,1,2.25.888,4.142,4.142,0,0,1,.756,2.654V17h-2.54V10.9a1.654,1.654,0,0,0-.352-1.176,1.572,1.572,0,0,0-1.169-.366,1.747,1.747,0,0,0-1.608.916V17h-2.54V7.49Zm10.784-2.338V7.49h1.626V9.354h-1.626V14.1a1.133,1.133,0,0,0,.2.756,1.015,1.015,0,0,0,.773.229,4.051,4.051,0,0,0,.747-.062v1.925a5.229,5.229,0,0,1-1.538.229,2.425,2.425,0,0,1-2.725-2.7V9.354h-1.389V7.49H393V5.152Zm7.418,12.023a4.668,4.668,0,0,1-3.406-1.283,4.561,4.561,0,0,1-1.314-3.419v-.246a5.745,5.745,0,0,1,.554-2.562,4.064,4.064,0,0,1,1.569-1.74,4.4,4.4,0,0,1,2.316-.611,3.947,3.947,0,0,1,3.072,1.23,5,5,0,0,1,1.121,3.489v1.037h-6.056a2.36,2.36,0,0,0,.743,1.494,2.245,2.245,0,0,0,1.569.563,2.742,2.742,0,0,0,2.294-1.063l1.248,1.4a3.813,3.813,0,0,1-1.547,1.261A5.075,5.075,0,0,1,402.96,17.176Zm-.29-7.813a1.587,1.587,0,0,0-1.226.512,2.651,2.651,0,0,0-.6,1.466h3.533v-.2a1.891,1.891,0,0,0-.457-1.311A1.638,1.638,0,0,0,402.67,9.362ZM418.306,17a2.821,2.821,0,0,1-.255-.853,3.073,3.073,0,0,1-2.4,1.028,3.376,3.376,0,0,1-2.316-.809,2.6,2.6,0,0,1-.918-2.039,2.687,2.687,0,0,1,1.121-2.32,5.529,5.529,0,0,1,3.239-.817h1.169v-.545a1.567,1.567,0,0,0-.338-1.055,1.331,1.331,0,0,0-1.068-.4,1.513,1.513,0,0,0-1.006.308,1.045,1.045,0,0,0-.365.844h-2.54a2.551,2.551,0,0,1,.51-1.529,3.37,3.37,0,0,1,1.441-1.1,5.253,5.253,0,0,1,2.092-.4,4.15,4.15,0,0,1,2.791.883,3.09,3.09,0,0,1,1.033,2.483V14.8a4.546,4.546,0,0,0,.378,2.048V17Zm-2.1-1.767a2.188,2.188,0,0,0,1.037-.25,1.645,1.645,0,0,0,.7-.672V12.676H417q-1.907,0-2.03,1.318l-.009.149a1.017,1.017,0,0,0,.334.782A1.3,1.3,0,0,0,416.205,15.233ZM429.608,17H427.06V3.5h2.549Zm1.7-4.843a5.64,5.64,0,0,1,.545-2.522,3.989,3.989,0,0,1,1.569-1.714,4.577,4.577,0,0,1,2.377-.606,4.33,4.33,0,0,1,3.142,1.178,4.727,4.727,0,0,1,1.358,3.2l.018.65a4.97,4.97,0,0,1-1.222,3.511,4.735,4.735,0,0,1-6.561,0,5.058,5.058,0,0,1-1.226-3.586Zm2.54.18a3.555,3.555,0,0,0,.51,2.073,1.831,1.831,0,0,0,2.9.009,3.89,3.89,0,0,0,.519-2.267,3.519,3.519,0,0,0-.519-2.06,1.686,1.686,0,0,0-1.459-.731,1.658,1.658,0,0,0-1.441.726A3.955,3.955,0,0,0,433.845,12.338Zm13.184,2.035a.818.818,0,0,0-.461-.734,5.241,5.241,0,0,0-1.481-.479q-3.393-.712-3.393-2.883a2.613,2.613,0,0,1,1.05-2.114,4.237,4.237,0,0,1,2.747-.848,4.56,4.56,0,0,1,2.9.853,2.687,2.687,0,0,1,1.085,2.215h-2.54a1.229,1.229,0,0,0-.352-.9,1.488,1.488,0,0,0-1.1-.356,1.52,1.52,0,0,0-.993.29.916.916,0,0,0-.352.738.783.783,0,0,0,.4.681,4.114,4.114,0,0,0,1.349.448,11.019,11.019,0,0,1,1.6.426,2.628,2.628,0,0,1,2.013,2.558,2.481,2.481,0,0,1-1.116,2.1,4.815,4.815,0,0,1-2.883.8,5.029,5.029,0,0,1-2.123-.426,3.561,3.561,0,0,1-1.455-1.169,2.716,2.716,0,0,1-.527-1.6H443.8a1.326,1.326,0,0,0,.5,1.037,1.987,1.987,0,0,0,1.248.36,1.839,1.839,0,0,0,1.1-.277A.861.861,0,0,0,447.028,14.372Zm12.542.756a1.666,1.666,0,0,0,1.143-.387,1.355,1.355,0,0,0,.457-1.028h2.382a3.258,3.258,0,0,1-.527,1.771,3.48,3.48,0,0,1-1.419,1.248,4.442,4.442,0,0,1-1.991.444,4.129,4.129,0,0,1-3.217-1.3A5.13,5.13,0,0,1,455.22,12.3v-.167a5.071,5.071,0,0,1,1.169-3.507,4.08,4.08,0,0,1,3.208-1.31,4,4,0,0,1,2.861,1.015,3.594,3.594,0,0,1,1.094,2.7H461.17a1.745,1.745,0,0,0-.457-1.206,1.7,1.7,0,0,0-2.5.183,3.749,3.749,0,0,0-.453,2.1v.264a3.8,3.8,0,0,0,.448,2.113A1.549,1.549,0,0,0,459.57,15.128Zm5.036-2.971a5.64,5.64,0,0,1,.545-2.522,3.989,3.989,0,0,1,1.569-1.714,4.577,4.577,0,0,1,2.377-.606,4.33,4.33,0,0,1,3.142,1.178,4.727,4.727,0,0,1,1.358,3.2l.018.65a4.97,4.97,0,0,1-1.222,3.511,4.735,4.735,0,0,1-6.561,0,5.058,5.058,0,0,1-1.226-3.586Zm2.54.18a3.555,3.555,0,0,0,.51,2.073,1.831,1.831,0,0,0,2.9.009,3.89,3.89,0,0,0,.519-2.267,3.519,3.519,0,0,0-.519-2.06,1.686,1.686,0,0,0-1.459-.731,1.658,1.658,0,0,0-1.441.726A3.955,3.955,0,0,0,467.146,12.338ZM477.518,7.49l.079,1.1a3.32,3.32,0,0,1,2.733-1.274,2.759,2.759,0,0,1,2.25.888,4.142,4.142,0,0,1,.756,2.654V17H480.8V10.9a1.654,1.654,0,0,0-.352-1.176,1.572,1.572,0,0,0-1.169-.366,1.747,1.747,0,0,0-1.608.916V17h-2.54V7.49Zm12.894,6.882a.818.818,0,0,0-.461-.734,5.241,5.241,0,0,0-1.481-.479q-3.393-.712-3.393-2.883a2.613,2.613,0,0,1,1.05-2.114,4.237,4.237,0,0,1,2.747-.848,4.56,4.56,0,0,1,2.9.853,2.687,2.687,0,0,1,1.085,2.215h-2.54a1.229,1.229,0,0,0-.352-.9,1.488,1.488,0,0,0-1.1-.356,1.52,1.52,0,0,0-.993.29.916.916,0,0,0-.352.738.783.783,0,0,0,.4.681,4.114,4.114,0,0,0,1.349.448,11.019,11.019,0,0,1,1.6.426,2.628,2.628,0,0,1,2.013,2.558,2.481,2.481,0,0,1-1.116,2.1,4.815,4.815,0,0,1-2.883.8,5.029,5.029,0,0,1-2.123-.426,3.561,3.561,0,0,1-1.455-1.169,2.716,2.716,0,0,1-.527-1.6h2.408a1.326,1.326,0,0,0,.5,1.037,1.987,1.987,0,0,0,1.248.36,1.839,1.839,0,0,0,1.1-.277A.861.861,0,0,0,490.411,14.372ZM497.2,17h-2.549V7.49H497.2ZM494.5,5.029a1.251,1.251,0,0,1,.382-.94,1.648,1.648,0,0,1,2.079,0,1.244,1.244,0,0,1,.387.94,1.247,1.247,0,0,1-.391.949,1.629,1.629,0,0,1-2.065,0A1.247,1.247,0,0,1,494.5,5.029Zm4.395,7.146a5.731,5.731,0,0,1,1-3.542,3.237,3.237,0,0,1,2.729-1.318,2.913,2.913,0,0,1,2.294,1.037V3.5h2.549V17h-2.294l-.123-1.011a2.989,2.989,0,0,1-2.443,1.187,3.228,3.228,0,0,1-2.694-1.323A5.916,5.916,0,0,1,498.893,12.175Zm2.54.181a3.775,3.775,0,0,0,.466,2.057,1.516,1.516,0,0,0,1.354.715,1.7,1.7,0,0,0,1.661-1V10.36a1.675,1.675,0,0,0-1.644-1Q501.433,9.362,501.433,12.356Zm12.375,4.82a4.668,4.668,0,0,1-3.406-1.283,4.561,4.561,0,0,1-1.314-3.419v-.246a5.745,5.745,0,0,1,.554-2.562,4.064,4.064,0,0,1,1.569-1.74,4.4,4.4,0,0,1,2.316-.611,3.947,3.947,0,0,1,3.072,1.23,5,5,0,0,1,1.121,3.489v1.037h-6.056a2.36,2.36,0,0,0,.743,1.494,2.245,2.245,0,0,0,1.569.563,2.742,2.742,0,0,0,2.294-1.063l1.248,1.4a3.813,3.813,0,0,1-1.547,1.261A5.075,5.075,0,0,1,513.808,17.176Zm-.29-7.813a1.587,1.587,0,0,0-1.226.512,2.651,2.651,0,0,0-.6,1.466h3.533v-.2a1.891,1.891,0,0,0-.457-1.311A1.638,1.638,0,0,0,513.518,9.362Zm10.986.51a6.9,6.9,0,0,0-.914-.07,1.86,1.86,0,0,0-1.89.976V17h-2.54V7.49h2.4l.07,1.134a2.354,2.354,0,0,1,2.118-1.31,2.662,2.662,0,0,1,.791.114ZM530.973,17a2.821,2.821,0,0,1-.255-.853,3.073,3.073,0,0,1-2.4,1.028A3.376,3.376,0,0,1,526,16.367a2.6,2.6,0,0,1-.918-2.039,2.687,2.687,0,0,1,1.121-2.32,5.529,5.529,0,0,1,3.239-.817h1.169v-.545a1.567,1.567,0,0,0-.338-1.055,1.331,1.331,0,0,0-1.068-.4A1.513,1.513,0,0,0,528.2,9.5a1.045,1.045,0,0,0-.365.844h-2.54a2.551,2.551,0,0,1,.51-1.529,3.37,3.37,0,0,1,1.441-1.1,5.253,5.253,0,0,1,2.092-.4,4.15,4.15,0,0,1,2.791.883,3.09,3.09,0,0,1,1.033,2.483V14.8a4.546,4.546,0,0,0,.378,2.048V17Zm-2.1-1.767a2.188,2.188,0,0,0,1.037-.25,1.645,1.645,0,0,0,.7-.672V12.676h-.949q-1.907,0-2.03,1.318l-.009.149a1.017,1.017,0,0,0,.334.782A1.3,1.3,0,0,0,528.872,15.233Zm5.845-3.059a5.731,5.731,0,0,1,1-3.542,3.237,3.237,0,0,1,2.729-1.318,2.913,2.913,0,0,1,2.294,1.037V3.5h2.549V17h-2.294l-.123-1.011a2.989,2.989,0,0,1-2.443,1.187,3.228,3.228,0,0,1-2.694-1.323A5.916,5.916,0,0,1,534.717,12.175Zm2.54.181a3.775,3.775,0,0,0,.466,2.057,1.516,1.516,0,0,0,1.354.715,1.7,1.7,0,0,0,1.661-1V10.36a1.675,1.675,0,0,0-1.644-1Q537.257,9.362,537.257,12.356Zm7.6-.2a5.64,5.64,0,0,1,.545-2.522,3.989,3.989,0,0,1,1.569-1.714,4.577,4.577,0,0,1,2.377-.606,4.33,4.33,0,0,1,3.142,1.178,4.727,4.727,0,0,1,1.358,3.2l.018.65a4.97,4.97,0,0,1-1.222,3.511,4.735,4.735,0,0,1-6.561,0,5.058,5.058,0,0,1-1.226-3.586Zm2.54.18a3.555,3.555,0,0,0,.51,2.073,1.831,1.831,0,0,0,2.9.009,3.89,3.89,0,0,0,.519-2.267,3.519,3.519,0,0,0-.519-2.06,1.686,1.686,0,0,0-1.459-.731,1.658,1.658,0,0,0-1.441.726A3.955,3.955,0,0,0,547.4,12.338Zm13.184,2.035a.818.818,0,0,0-.461-.734,5.241,5.241,0,0,0-1.481-.479q-3.393-.712-3.393-2.883a2.613,2.613,0,0,1,1.05-2.114,4.237,4.237,0,0,1,2.747-.848,4.56,4.56,0,0,1,2.9.853,2.687,2.687,0,0,1,1.085,2.215h-2.54a1.229,1.229,0,0,0-.352-.9,1.488,1.488,0,0,0-1.1-.356,1.52,1.52,0,0,0-.993.29.916.916,0,0,0-.352.738.783.783,0,0,0,.4.681,4.114,4.114,0,0,0,1.349.448,11.019,11.019,0,0,1,1.6.426,2.628,2.628,0,0,1,2.013,2.558,2.481,2.481,0,0,1-1.116,2.1,4.815,4.815,0,0,1-2.883.8,5.029,5.029,0,0,1-2.123-.426,3.561,3.561,0,0,1-1.455-1.169,2.716,2.716,0,0,1-.527-1.6h2.408a1.326,1.326,0,0,0,.5,1.037,1.987,1.987,0,0,0,1.248.36,1.839,1.839,0,0,0,1.1-.277A.861.861,0,0,0,560.583,14.372Zm12.542.756a1.666,1.666,0,0,0,1.143-.387,1.355,1.355,0,0,0,.457-1.028h2.382a3.258,3.258,0,0,1-.527,1.771,3.48,3.48,0,0,1-1.419,1.248,4.442,4.442,0,0,1-1.991.444,4.129,4.129,0,0,1-3.217-1.3,5.13,5.13,0,0,1-1.178-3.582v-.167a5.071,5.071,0,0,1,1.169-3.507,4.08,4.08,0,0,1,3.208-1.31,4,4,0,0,1,2.861,1.015,3.594,3.594,0,0,1,1.094,2.7h-2.382a1.745,1.745,0,0,0-.457-1.206,1.7,1.7,0,0,0-2.5.183,3.749,3.749,0,0,0-.453,2.1v.264a3.8,3.8,0,0,0,.448,2.113A1.549,1.549,0,0,0,573.125,15.128Zm5.036-2.971a5.64,5.64,0,0,1,.545-2.522,3.989,3.989,0,0,1,1.569-1.714,4.577,4.577,0,0,1,2.377-.606,4.33,4.33,0,0,1,3.142,1.178,4.727,4.727,0,0,1,1.358,3.2l.018.65a4.97,4.97,0,0,1-1.222,3.511,4.735,4.735,0,0,1-6.561,0,5.058,5.058,0,0,1-1.226-3.586Zm2.54.18a3.555,3.555,0,0,0,.51,2.073,1.831,1.831,0,0,0,2.9.009,3.89,3.89,0,0,0,.519-2.267,3.519,3.519,0,0,0-.519-2.06,1.686,1.686,0,0,0-1.459-.731,1.658,1.658,0,0,0-1.441.726A3.955,3.955,0,0,0,580.7,12.338ZM591.116,7.49l.079,1.063a3.342,3.342,0,0,1,2.733-1.239,2.536,2.536,0,0,1,2.522,1.45,3.265,3.265,0,0,1,2.856-1.45,2.836,2.836,0,0,1,2.3.9,4.141,4.141,0,0,1,.756,2.711V17h-2.549V10.922a1.818,1.818,0,0,0-.316-1.185,1.4,1.4,0,0,0-1.116-.374,1.585,1.585,0,0,0-1.582,1.092L596.812,17h-2.54V10.93a1.8,1.8,0,0,0-.325-1.2,1.414,1.414,0,0,0-1.107-.37,1.645,1.645,0,0,0-1.564.9V17h-2.54V7.49Zm21.762,4.843a5.7,5.7,0,0,1-1,3.52,3.2,3.2,0,0,1-2.694,1.323,2.963,2.963,0,0,1-2.329-1v4.482h-2.54V7.49h2.355l.088.932a2.985,2.985,0,0,1,2.408-1.107,3.22,3.22,0,0,1,2.733,1.3,5.858,5.858,0,0,1,.976,3.586Zm-2.54-.194a3.763,3.763,0,0,0-.47-2.054,1.53,1.53,0,0,0-1.367-.723,1.662,1.662,0,0,0-1.644.917v3.906a1.691,1.691,0,0,0,1.661.943Q610.338,15.128,610.338,12.139Zm8.49,5.036a4.668,4.668,0,0,1-3.406-1.283,4.561,4.561,0,0,1-1.314-3.419v-.246a5.745,5.745,0,0,1,.554-2.562,4.064,4.064,0,0,1,1.569-1.74,4.4,4.4,0,0,1,2.316-.611,3.947,3.947,0,0,1,3.072,1.23,5,5,0,0,1,1.121,3.489v1.037h-6.056a2.36,2.36,0,0,0,.743,1.494,2.245,2.245,0,0,0,1.569.563,2.742,2.742,0,0,0,2.294-1.063l1.248,1.4a3.813,3.813,0,0,1-1.547,1.261A5.075,5.075,0,0,1,618.828,17.176Zm-.29-7.813a1.587,1.587,0,0,0-1.226.512,2.651,2.651,0,0,0-.6,1.466h3.533v-.2a1.891,1.891,0,0,0-.457-1.311A1.638,1.638,0,0,0,618.538,9.362Zm8.684-4.21V7.49h1.626V9.354h-1.626V14.1a1.133,1.133,0,0,0,.2.756,1.015,1.015,0,0,0,.773.229,4.051,4.051,0,0,0,.747-.062v1.925a5.229,5.229,0,0,1-1.538.229,2.425,2.425,0,0,1-2.725-2.7V9.354h-1.389V7.49h1.389V5.152Zm7.418,12.023a4.668,4.668,0,0,1-3.406-1.283,4.561,4.561,0,0,1-1.314-3.419v-.246a5.745,5.745,0,0,1,.554-2.562,4.064,4.064,0,0,1,1.569-1.74,4.4,4.4,0,0,1,2.316-.611,3.947,3.947,0,0,1,3.072,1.23,5,5,0,0,1,1.121,3.489v1.037H632.5a2.36,2.36,0,0,0,.743,1.494,2.245,2.245,0,0,0,1.569.563,2.742,2.742,0,0,0,2.294-1.063l1.248,1.4a3.813,3.813,0,0,1-1.547,1.261A5.075,5.075,0,0,1,634.64,17.176Zm-.29-7.813a1.587,1.587,0,0,0-1.226.512,2.651,2.651,0,0,0-.6,1.466h3.533v-.2a1.891,1.891,0,0,0-.457-1.311A1.638,1.638,0,0,0,634.35,9.362Zm7.98-1.872.079,1.1a3.32,3.32,0,0,1,2.733-1.274,2.759,2.759,0,0,1,2.25.888,4.142,4.142,0,0,1,.756,2.654V17h-2.54V10.9a1.654,1.654,0,0,0-.352-1.176,1.572,1.572,0,0,0-1.169-.366,1.747,1.747,0,0,0-1.608.916V17h-2.54V7.49Zm11.7,7.638a1.666,1.666,0,0,0,1.143-.387,1.355,1.355,0,0,0,.457-1.028h2.382a3.258,3.258,0,0,1-.527,1.771,3.48,3.48,0,0,1-1.419,1.248,4.442,4.442,0,0,1-1.991.444,4.129,4.129,0,0,1-3.217-1.3,5.13,5.13,0,0,1-1.178-3.582v-.167a5.071,5.071,0,0,1,1.169-3.507,4.08,4.08,0,0,1,3.208-1.31,4,4,0,0,1,2.861,1.015,3.594,3.594,0,0,1,1.094,2.7h-2.382a1.745,1.745,0,0,0-.457-1.206,1.7,1.7,0,0,0-2.5.183,3.749,3.749,0,0,0-.453,2.1v.264a3.8,3.8,0,0,0,.448,2.113A1.549,1.549,0,0,0,654.028,15.128ZM662.141,17h-2.549V7.49h2.549Zm-2.7-11.971a1.251,1.251,0,0,1,.382-.94,1.648,1.648,0,0,1,2.079,0,1.244,1.244,0,0,1,.387.94,1.247,1.247,0,0,1-.391.949,1.629,1.629,0,0,1-2.065,0A1.247,1.247,0,0,1,659.442,5.029ZM669.743,17a2.821,2.821,0,0,1-.255-.853,3.073,3.073,0,0,1-2.4,1.028,3.376,3.376,0,0,1-2.316-.809,2.6,2.6,0,0,1-.918-2.039,2.687,2.687,0,0,1,1.121-2.32,5.529,5.529,0,0,1,3.239-.817h1.169v-.545a1.567,1.567,0,0,0-.338-1.055,1.331,1.331,0,0,0-1.068-.4,1.513,1.513,0,0,0-1.006.308,1.045,1.045,0,0,0-.365.844h-2.54a2.551,2.551,0,0,1,.51-1.529,3.37,3.37,0,0,1,1.441-1.1,5.253,5.253,0,0,1,2.092-.4A4.15,4.15,0,0,1,670.9,8.2a3.09,3.09,0,0,1,1.033,2.483V14.8a4.546,4.546,0,0,0,.378,2.048V17Zm-2.1-1.767a2.188,2.188,0,0,0,1.037-.25,1.645,1.645,0,0,0,.7-.672V12.676h-.949q-1.907,0-2.03,1.318l-.009.149a1.017,1.017,0,0,0,.334.782A1.3,1.3,0,0,0,667.643,15.233Z" transform="translate(390 8571.703)" fill="#fff"/>
    <path id="Trazado_599989" data-name="Trazado 599989" d="M27.587,9.922H22.916v3.484h5.461V15H20.939V3.625h7.383V5.219H22.916V8.359h4.672ZM34.541,12.7a.861.861,0,0,0-.418-.773,4.445,4.445,0,0,0-1.387-.469,7.129,7.129,0,0,1-1.617-.516A2.158,2.158,0,0,1,29.7,8.953a2.25,2.25,0,0,1,.922-1.828,3.644,3.644,0,0,1,2.344-.734,3.792,3.792,0,0,1,2.449.75,2.38,2.38,0,0,1,.934,1.945h-1.9a1.17,1.17,0,0,0-.406-.91,1.557,1.557,0,0,0-1.078-.363,1.682,1.682,0,0,0-1.02.289.911.911,0,0,0-.395.773.769.769,0,0,0,.367.68,5.049,5.049,0,0,0,1.484.488,7.027,7.027,0,0,1,1.754.586,2.484,2.484,0,0,1,.945.816,2.082,2.082,0,0,1,.309,1.156,2.2,2.2,0,0,1-.945,1.848,4.031,4.031,0,0,1-2.477.707,4.371,4.371,0,0,1-1.852-.375,3.047,3.047,0,0,1-1.266-1.031,2.441,2.441,0,0,1-.453-1.414h1.844a1.338,1.338,0,0,0,.508,1.035,1.973,1.973,0,0,0,1.242.363,1.92,1.92,0,0,0,1.141-.285A.883.883,0,0,0,34.541,12.7Zm5.9-8.211V6.547h1.492V7.953H40.439v4.719a1.039,1.039,0,0,0,.191.7.888.888,0,0,0,.684.215,2.924,2.924,0,0,0,.664-.078v1.469a4.676,4.676,0,0,1-1.25.18q-2.187,0-2.187-2.414V7.953H37.15V6.547h1.391V4.492Zm7.367,3.789a4.7,4.7,0,0,0-.773-.062,1.741,1.741,0,0,0-1.758,1V15h-1.9V6.547h1.813l.047.945a2.139,2.139,0,0,1,1.906-1.1,1.777,1.777,0,0,1,.672.109Zm4.773,6.875a3.928,3.928,0,0,1-2.926-1.137,4.124,4.124,0,0,1-1.121-3.027v-.234A5.072,5.072,0,0,1,49.021,8.5a3.716,3.716,0,0,1,1.371-1.551,3.625,3.625,0,0,1,1.969-.555,3.318,3.318,0,0,1,2.668,1.1,4.658,4.658,0,0,1,.941,3.117v.766H50.447a2.539,2.539,0,0,0,.7,1.656,2.1,2.1,0,0,0,1.543.609,2.571,2.571,0,0,0,2.125-1.055l1.023.977a3.418,3.418,0,0,1-1.355,1.176A4.244,4.244,0,0,1,52.58,15.156Zm-.227-7.242a1.6,1.6,0,0,0-1.262.547,2.835,2.835,0,0,0-.613,1.523H54.1V9.844A2.307,2.307,0,0,0,53.587,8.4,1.586,1.586,0,0,0,52.353,7.914ZM59.462,15h-1.9V3h1.9Zm4.086,0h-1.9V3h1.9Zm7.117,0a2.93,2.93,0,0,1-.219-.789,3.193,3.193,0,0,1-4.3.219,2.325,2.325,0,0,1-.8-1.8,2.4,2.4,0,0,1,1-2.074,4.865,4.865,0,0,1,2.871-.723h1.164V9.281a1.481,1.481,0,0,0-.367-1.051A1.456,1.456,0,0,0,68.9,7.836a1.672,1.672,0,0,0-1.062.324,1,1,0,0,0-.414.824h-1.9a2.107,2.107,0,0,1,.461-1.3,3.071,3.071,0,0,1,1.254-.949,4.4,4.4,0,0,1,1.77-.344,3.547,3.547,0,0,1,2.367.746,2.661,2.661,0,0,1,.906,2.1v3.813a4.321,4.321,0,0,0,.32,1.82V15ZM68.58,13.633a2.159,2.159,0,0,0,1.059-.273,1.827,1.827,0,0,0,.746-.734V11.031H69.361a2.8,2.8,0,0,0-1.586.367,1.189,1.189,0,0,0-.531,1.039,1.109,1.109,0,0,0,.363.871A1.407,1.407,0,0,0,68.58,13.633Z" transform="translate(736.586 8167.703)" fill="#12263f"/>
    <path id="Trazado_599990" data-name="Trazado 599990" d="M33.865,12.523l2.891-8.9h2.172L34.834,15H32.919L28.841,3.625h2.164ZM44.716,15a2.93,2.93,0,0,1-.219-.789,3.193,3.193,0,0,1-4.3.219,2.325,2.325,0,0,1-.8-1.8,2.4,2.4,0,0,1,1-2.074,4.865,4.865,0,0,1,2.871-.723h1.164V9.281a1.481,1.481,0,0,0-.367-1.051,1.456,1.456,0,0,0-1.117-.395,1.672,1.672,0,0,0-1.062.324,1,1,0,0,0-.414.824h-1.9a2.107,2.107,0,0,1,.461-1.3,3.071,3.071,0,0,1,1.254-.949,4.4,4.4,0,0,1,1.77-.344,3.547,3.547,0,0,1,2.367.746,2.661,2.661,0,0,1,.906,2.1v3.813a4.321,4.321,0,0,0,.32,1.82V15ZM42.63,13.633a2.159,2.159,0,0,0,1.059-.273,1.827,1.827,0,0,0,.746-.734V11.031H43.412a2.8,2.8,0,0,0-1.586.367,1.189,1.189,0,0,0-.531,1.039,1.109,1.109,0,0,0,.363.871A1.407,1.407,0,0,0,42.63,13.633Zm9.164.008a1.716,1.716,0,0,0,1.18-.414,1.415,1.415,0,0,0,.5-1.023h1.789a2.789,2.789,0,0,1-.492,1.473,3.228,3.228,0,0,1-1.25,1.082,3.725,3.725,0,0,1-1.7.4,3.6,3.6,0,0,1-2.812-1.148,4.555,4.555,0,0,1-1.039-3.172v-.2A4.479,4.479,0,0,1,49,7.551a3.571,3.571,0,0,1,2.813-1.16,3.473,3.473,0,0,1,2.457.879,3.148,3.148,0,0,1,1,2.309H53.474a1.738,1.738,0,0,0-.5-1.2,1.6,1.6,0,0,0-1.184-.469,1.671,1.671,0,0,0-1.422.668,3.408,3.408,0,0,0-.508,2.027v.3a3.465,3.465,0,0,0,.5,2.051A1.669,1.669,0,0,0,51.794,13.641ZM61.748,15a2.93,2.93,0,0,1-.219-.789,3.193,3.193,0,0,1-4.3.219,2.325,2.325,0,0,1-.8-1.8,2.4,2.4,0,0,1,1-2.074A4.865,4.865,0,0,1,60.3,9.836h1.164V9.281A1.481,1.481,0,0,0,61.1,8.23a1.456,1.456,0,0,0-1.117-.395,1.672,1.672,0,0,0-1.062.324,1,1,0,0,0-.414.824h-1.9a2.107,2.107,0,0,1,.461-1.3,3.071,3.071,0,0,1,1.254-.949,4.4,4.4,0,0,1,1.77-.344,3.547,3.547,0,0,1,2.367.746,2.661,2.661,0,0,1,.906,2.1v3.813a4.321,4.321,0,0,0,.32,1.82V15Zm-2.086-1.367a2.159,2.159,0,0,0,1.059-.273,1.827,1.827,0,0,0,.746-.734V11.031H60.443a2.8,2.8,0,0,0-1.586.367,1.189,1.189,0,0,0-.531,1.039,1.109,1.109,0,0,0,.363.871A1.407,1.407,0,0,0,59.662,13.633Z" transform="translate(736.586 8343.203)" fill="#12263f"/>
  </g>
</svg>
