<svg xmlns="http://www.w3.org/2000/svg" xmlns:xlink="http://www.w3.org/1999/xlink" width="820" height="525.201" viewBox="0 0 820 525.201">
  <defs>
    <linearGradient id="linear-gradient" x1="0.015" y1="0.527" x2="0.98" y2="0.527" gradientUnits="objectBoundingBox">
      <stop offset="0" stop-color="#f2f5d1"/>
      <stop offset="1" stop-color="#fffcf5"/>
    </linearGradient>
    <linearGradient id="linear-gradient-2" y1="0.099" x2="0.988" y2="0.111" gradientUnits="objectBoundingBox">
      <stop offset="0" stop-color="#d9e9f1"/>
      <stop offset="1" stop-color="#fff"/>
    </linearGradient>
  </defs>
  <g id="Grupo_876219" data-name="Grupo 876219" transform="translate(-390 -10597.5)">
    <path id="Trazado_599996" data-name="Trazado 599996" d="M0,0H650V431H0Z" transform="translate(560 10634.5)" fill="url(#linear-gradient)"/>
    <path id="Trazado_599997" data-name="Trazado 599997" d="M0,0H650V203H0Z" transform="translate(560 10862.5)" fill="url(#linear-gradient-2)"/>
    <path id="Trazado_213258" data-name="Trazado 213258" d="M-6919-2343.81h753.59" transform="translate(7375.386 13206.399)" fill="none" stroke="#616a05" stroke-width="2" stroke-dasharray="4"/>
    <path id="Trazado_599998" data-name="Trazado 599998" d="M3.133,10.781V15H1.156V3.625H5.508a4.4,4.4,0,0,1,3.027.993A3.34,3.34,0,0,1,9.656,7.246a3.229,3.229,0,0,1-1.1,2.6,4.613,4.613,0,0,1-3.074.931Zm0-1.594H5.508a2.339,2.339,0,0,0,1.609-.5,1.823,1.823,0,0,0,.555-1.434,1.967,1.967,0,0,0-.562-1.473,2.168,2.168,0,0,0-1.547-.566H3.133ZM10.742,10.7a4.984,4.984,0,0,1,.492-2.238,3.6,3.6,0,0,1,1.383-1.531,3.9,3.9,0,0,1,2.047-.535,3.692,3.692,0,0,1,2.777,1.1,4.333,4.333,0,0,1,1.152,2.922l.008.445a5.029,5.029,0,0,1-.48,2.234,3.551,3.551,0,0,1-1.375,1.523,3.925,3.925,0,0,1-2.066.539,3.667,3.667,0,0,1-2.863-1.191,4.563,4.563,0,0,1-1.074-3.176Zm1.9.164A3.406,3.406,0,0,0,13.18,12.9a1.752,1.752,0,0,0,1.5.738,1.733,1.733,0,0,0,1.5-.75,3.762,3.762,0,0,0,.535-2.2,3.362,3.362,0,0,0-.551-2.031,1.856,1.856,0,0,0-2.973-.012A3.691,3.691,0,0,0,12.641,10.859ZM23.68,13.641a1.716,1.716,0,0,0,1.18-.414,1.415,1.415,0,0,0,.5-1.023h1.789a2.789,2.789,0,0,1-.492,1.473,3.228,3.228,0,0,1-1.25,1.082,3.725,3.725,0,0,1-1.7.4,3.6,3.6,0,0,1-2.812-1.148,4.555,4.555,0,0,1-1.039-3.172v-.2a4.479,4.479,0,0,1,1.031-3.09A3.571,3.571,0,0,1,23.7,6.391a3.473,3.473,0,0,1,2.457.879,3.148,3.148,0,0,1,1,2.309H25.359a1.738,1.738,0,0,0-.5-1.2,1.6,1.6,0,0,0-1.184-.469,1.671,1.671,0,0,0-1.422.668,3.408,3.408,0,0,0-.508,2.027v.3a3.465,3.465,0,0,0,.5,2.051A1.669,1.669,0,0,0,23.68,13.641ZM28.227,10.7a4.984,4.984,0,0,1,.492-2.238A3.6,3.6,0,0,1,30.1,6.926a3.9,3.9,0,0,1,2.047-.535,3.692,3.692,0,0,1,2.777,1.1,4.333,4.333,0,0,1,1.152,2.922l.008.445a5.029,5.029,0,0,1-.48,2.234,3.551,3.551,0,0,1-1.375,1.523,3.925,3.925,0,0,1-2.066.539A3.667,3.667,0,0,1,29.3,13.965a4.563,4.563,0,0,1-1.074-3.176Zm1.9.164a3.406,3.406,0,0,0,.539,2.043,1.752,1.752,0,0,0,1.5.738,1.733,1.733,0,0,0,1.5-.75,3.762,3.762,0,0,0,.535-2.2,3.362,3.362,0,0,0-.551-2.031,1.856,1.856,0,0,0-2.973-.012A3.691,3.691,0,0,0,30.125,10.859Z" transform="translate(694 11074.5)" fill="#12263f"/>
    <path id="Trazado_599999" data-name="Trazado 599999" d="M1.156,15V3.625h3.9A4.76,4.76,0,0,1,7.992,4.4,2.724,2.724,0,0,1,9,6.7a2.456,2.456,0,0,1-.422,1.406,2.715,2.715,0,0,1-1.234.969,2.511,2.511,0,0,1,1.426.941,2.742,2.742,0,0,1,.5,1.66,3.028,3.028,0,0,1-1.027,2.461A4.467,4.467,0,0,1,5.3,15ZM3.133,9.867v3.539h2.2a2.131,2.131,0,0,0,1.453-.459A1.607,1.607,0,0,0,7.3,11.672a1.62,1.62,0,0,0-1.812-1.8Zm0-1.453H5.07A2.241,2.241,0,0,0,6.512,8a1.432,1.432,0,0,0,.52-1.184,1.452,1.452,0,0,0-.48-1.219,2.426,2.426,0,0,0-1.5-.375H3.133ZM16.117,15a2.93,2.93,0,0,1-.219-.789,2.955,2.955,0,0,1-2.219.945A2.982,2.982,0,0,1,11.6,14.43a2.325,2.325,0,0,1-.8-1.8,2.4,2.4,0,0,1,1-2.074,4.865,4.865,0,0,1,2.871-.723h1.164V9.281a1.481,1.481,0,0,0-.367-1.051,1.456,1.456,0,0,0-1.117-.395,1.672,1.672,0,0,0-1.062.324,1,1,0,0,0-.414.824h-1.9a2.107,2.107,0,0,1,.461-1.3,3.071,3.071,0,0,1,1.254-.949,4.4,4.4,0,0,1,1.77-.344,3.547,3.547,0,0,1,2.367.746,2.661,2.661,0,0,1,.906,2.1v3.813a4.321,4.321,0,0,0,.32,1.82V15Zm-2.086-1.367a2.159,2.159,0,0,0,1.059-.273,1.827,1.827,0,0,0,.746-.734V11.031H14.813a2.8,2.8,0,0,0-1.586.367,1.189,1.189,0,0,0-.531,1.039,1.109,1.109,0,0,0,.363.871A1.407,1.407,0,0,0,14.031,13.633ZM21.7,6.547v9.2a2.781,2.781,0,0,1-.645,1.98,2.47,2.47,0,0,1-1.887.684,3.794,3.794,0,0,1-1.008-.133v-1.5a2.925,2.925,0,0,0,.672.07q.945,0,.969-1.031V6.547Zm-2.062-2.2a1.02,1.02,0,0,1,.277-.732,1.043,1.043,0,0,1,.793-.291,1.056,1.056,0,0,1,.8.291,1.012,1.012,0,0,1,.281.732.988.988,0,0,1-.281.72,1.064,1.064,0,0,1-.8.287,1.051,1.051,0,0,1-.793-.287A1,1,0,0,1,19.641,4.344ZM28.781,15a2.93,2.93,0,0,1-.219-.789,3.193,3.193,0,0,1-4.3.219,2.325,2.325,0,0,1-.8-1.8,2.4,2.4,0,0,1,1-2.074,4.865,4.865,0,0,1,2.871-.723H28.5V9.281a1.481,1.481,0,0,0-.367-1.051,1.456,1.456,0,0,0-1.117-.395,1.672,1.672,0,0,0-1.062.324,1,1,0,0,0-.414.824h-1.9a2.107,2.107,0,0,1,.461-1.3,3.071,3.071,0,0,1,1.254-.949,4.4,4.4,0,0,1,1.77-.344,3.547,3.547,0,0,1,2.367.746,2.661,2.661,0,0,1,.906,2.1v3.813a4.321,4.321,0,0,0,.32,1.82V15ZM26.7,13.633a2.159,2.159,0,0,0,1.059-.273,1.827,1.827,0,0,0,.746-.734V11.031H27.477a2.8,2.8,0,0,0-1.586.367,1.189,1.189,0,0,0-.531,1.039,1.109,1.109,0,0,0,.363.871A1.407,1.407,0,0,0,26.7,13.633Zm10.43-.93a.861.861,0,0,0-.418-.773,4.445,4.445,0,0,0-1.387-.469,7.129,7.129,0,0,1-1.617-.516,2.158,2.158,0,0,1-1.422-1.992A2.25,2.25,0,0,1,33.2,7.125a3.644,3.644,0,0,1,2.344-.734A3.792,3.792,0,0,1,38,7.141a2.38,2.38,0,0,1,.934,1.945h-1.9a1.17,1.17,0,0,0-.406-.91,1.557,1.557,0,0,0-1.078-.363,1.682,1.682,0,0,0-1.02.289.911.911,0,0,0-.395.773.769.769,0,0,0,.367.68,5.049,5.049,0,0,0,1.484.488,7.027,7.027,0,0,1,1.754.586,2.484,2.484,0,0,1,.945.816,2.082,2.082,0,0,1,.309,1.156,2.2,2.2,0,0,1-.945,1.848,4.031,4.031,0,0,1-2.477.707,4.371,4.371,0,0,1-1.852-.375,3.047,3.047,0,0,1-1.266-1.031A2.441,2.441,0,0,1,32,12.336h1.844a1.338,1.338,0,0,0,.508,1.035,1.973,1.973,0,0,0,1.242.363,1.92,1.92,0,0,0,1.141-.285A.883.883,0,0,0,37.125,12.7Z" transform="translate(390 11034.5)" fill="#12263f"/>
    <path id="Trazado_600000" data-name="Trazado 600000" d="M3.719,3.625,7,12.344l3.273-8.719h2.555V15H10.859V11.25l.2-5.016L7.7,15H6.281L2.93,6.242l.2,5.008V15H1.156V3.625ZM14.625,10.7a4.984,4.984,0,0,1,.492-2.238A3.6,3.6,0,0,1,16.5,6.926a3.9,3.9,0,0,1,2.047-.535,3.692,3.692,0,0,1,2.777,1.1,4.333,4.333,0,0,1,1.152,2.922l.008.445A5.029,5.029,0,0,1,22,13.094a3.551,3.551,0,0,1-1.375,1.523,3.925,3.925,0,0,1-2.066.539A3.667,3.667,0,0,1,15.7,13.965a4.563,4.563,0,0,1-1.074-3.176Zm1.9.164a3.406,3.406,0,0,0,.539,2.043,1.752,1.752,0,0,0,1.5.738,1.733,1.733,0,0,0,1.5-.75,3.762,3.762,0,0,0,.535-2.2,3.362,3.362,0,0,0-.551-2.031,1.856,1.856,0,0,0-2.973-.012A3.691,3.691,0,0,0,16.523,10.859Zm7.211-.148a5.026,5.026,0,0,1,.906-3.137,2.9,2.9,0,0,1,2.43-1.184,2.759,2.759,0,0,1,2.172.938V3h1.9V15H29.422l-.094-.875a2.8,2.8,0,0,1-2.273,1.031,2.887,2.887,0,0,1-2.4-1.2A5.21,5.21,0,0,1,23.734,10.711Zm1.9.164a3.519,3.519,0,0,0,.5,2.012,1.61,1.61,0,0,0,1.41.723,1.793,1.793,0,0,0,1.7-1.039V8.961a1.766,1.766,0,0,0-1.687-1.016,1.622,1.622,0,0,0-1.422.73A3.918,3.918,0,0,0,25.633,10.875Zm11.211,4.281a3.928,3.928,0,0,1-2.926-1.137A4.124,4.124,0,0,1,32.8,10.992v-.234A5.072,5.072,0,0,1,33.285,8.5a3.716,3.716,0,0,1,1.371-1.551,3.625,3.625,0,0,1,1.969-.555,3.318,3.318,0,0,1,2.668,1.1,4.658,4.658,0,0,1,.941,3.117v.766H34.711a2.539,2.539,0,0,0,.7,1.656,2.1,2.1,0,0,0,1.543.609,2.571,2.571,0,0,0,2.125-1.055l1.023.977a3.418,3.418,0,0,1-1.355,1.176A4.244,4.244,0,0,1,36.844,15.156Zm-.227-7.242a1.6,1.6,0,0,0-1.262.547,2.835,2.835,0,0,0-.613,1.523h3.617V9.844A2.307,2.307,0,0,0,37.852,8.4,1.586,1.586,0,0,0,36.617,7.914Zm9.516.367a4.7,4.7,0,0,0-.773-.062,1.741,1.741,0,0,0-1.758,1V15H41.7V6.547h1.813l.047.945a2.139,2.139,0,0,1,1.906-1.1,1.777,1.777,0,0,1,.672.109ZM52.148,15a2.93,2.93,0,0,1-.219-.789,3.193,3.193,0,0,1-4.3.219,2.325,2.325,0,0,1-.8-1.8,2.4,2.4,0,0,1,1-2.074A4.865,4.865,0,0,1,50.7,9.836h1.164V9.281A1.481,1.481,0,0,0,51.5,8.23a1.456,1.456,0,0,0-1.117-.395,1.672,1.672,0,0,0-1.062.324,1,1,0,0,0-.414.824h-1.9a2.107,2.107,0,0,1,.461-1.3,3.071,3.071,0,0,1,1.254-.949,4.4,4.4,0,0,1,1.77-.344,3.547,3.547,0,0,1,2.367.746,2.661,2.661,0,0,1,.906,2.1v3.813a4.321,4.321,0,0,0,.32,1.82V15Zm-2.086-1.367a2.159,2.159,0,0,0,1.059-.273,1.827,1.827,0,0,0,.746-.734V11.031H50.844a2.8,2.8,0,0,0-1.586.367,1.189,1.189,0,0,0-.531,1.039,1.109,1.109,0,0,0,.363.871A1.407,1.407,0,0,0,50.063,13.633ZM55.4,10.711A5.026,5.026,0,0,1,56.3,7.574a2.9,2.9,0,0,1,2.43-1.184,2.759,2.759,0,0,1,2.172.938V3h1.9V15H61.086l-.094-.875a2.8,2.8,0,0,1-2.273,1.031,2.887,2.887,0,0,1-2.4-1.2A5.21,5.21,0,0,1,55.4,10.711Zm1.9.164a3.519,3.519,0,0,0,.5,2.012,1.61,1.61,0,0,0,1.41.723,1.793,1.793,0,0,0,1.7-1.039V8.961a1.766,1.766,0,0,0-1.687-1.016,1.622,1.622,0,0,0-1.422.73A3.919,3.919,0,0,0,57.3,10.875ZM69.836,15a2.93,2.93,0,0,1-.219-.789,3.193,3.193,0,0,1-4.3.219,2.325,2.325,0,0,1-.8-1.8,2.4,2.4,0,0,1,1-2.074,4.865,4.865,0,0,1,2.871-.723h1.164V9.281a1.481,1.481,0,0,0-.367-1.051,1.456,1.456,0,0,0-1.117-.395,1.672,1.672,0,0,0-1.062.324,1,1,0,0,0-.414.824H64.7a2.107,2.107,0,0,1,.461-1.3,3.071,3.071,0,0,1,1.254-.949,4.4,4.4,0,0,1,1.77-.344,3.547,3.547,0,0,1,2.367.746,2.661,2.661,0,0,1,.906,2.1v3.813a4.321,4.321,0,0,0,.32,1.82V15ZM67.75,13.633a2.159,2.159,0,0,0,1.059-.273,1.827,1.827,0,0,0,.746-.734V11.031H68.531a2.8,2.8,0,0,0-1.586.367,1.189,1.189,0,0,0-.531,1.039,1.109,1.109,0,0,0,.363.871A1.407,1.407,0,0,0,67.75,13.633Zm10.43-.93a.861.861,0,0,0-.418-.773,4.445,4.445,0,0,0-1.387-.469,7.129,7.129,0,0,1-1.617-.516,2.158,2.158,0,0,1-1.422-1.992,2.25,2.25,0,0,1,.922-1.828A3.644,3.644,0,0,1,76.6,6.391a3.792,3.792,0,0,1,2.449.75,2.38,2.38,0,0,1,.934,1.945h-1.9a1.17,1.17,0,0,0-.406-.91A1.557,1.557,0,0,0,76.6,7.813a1.682,1.682,0,0,0-1.02.289.911.911,0,0,0-.395.773.769.769,0,0,0,.367.68,5.049,5.049,0,0,0,1.484.488,7.027,7.027,0,0,1,1.754.586,2.484,2.484,0,0,1,.945.816,2.082,2.082,0,0,1,.309,1.156,2.2,2.2,0,0,1-.945,1.848,4.031,4.031,0,0,1-2.477.707,4.371,4.371,0,0,1-1.852-.375,3.047,3.047,0,0,1-1.266-1.031,2.441,2.441,0,0,1-.453-1.414H74.9a1.338,1.338,0,0,0,.508,1.035,1.973,1.973,0,0,0,1.242.363,1.92,1.92,0,0,0,1.141-.285A.883.883,0,0,0,78.18,12.7Z" transform="translate(390 10828.5)" fill="#12263f"/>
    <path id="Trazado_600001" data-name="Trazado 600001" d="M20.1,13.773h6.508V15H18.328V13.875l6.234-9.023H18.43V3.625h7.93V4.72Zm7.68-3.078a4.993,4.993,0,0,1,.488-2.234A3.643,3.643,0,0,1,29.629,6.93a3.7,3.7,0,0,1,1.988-.539,3.565,3.565,0,0,1,2.793,1.2,4.6,4.6,0,0,1,1.066,3.18v.1A5.036,5.036,0,0,1,35,13.082a3.589,3.589,0,0,1-1.352,1.527,3.743,3.743,0,0,1-2.02.547,3.556,3.556,0,0,1-2.785-1.2A4.575,4.575,0,0,1,27.781,10.8Zm1.453.172a3.616,3.616,0,0,0,.652,2.258,2.211,2.211,0,0,0,3.5-.012,3.955,3.955,0,0,0,.648-2.418,3.61,3.61,0,0,0-.66-2.254,2.1,2.1,0,0,0-1.754-.863,2.075,2.075,0,0,0-1.727.852A3.925,3.925,0,0,0,29.234,10.867Zm9.422-4.32L38.7,7.609a3.08,3.08,0,0,1,2.531-1.219q2.68,0,2.7,3.023V15H42.492V9.406a1.946,1.946,0,0,0-.418-1.352A1.675,1.675,0,0,0,40.8,7.617a2.086,2.086,0,0,0-1.234.375,2.546,2.546,0,0,0-.828.984V15H37.289V6.547ZM51.336,15a3.036,3.036,0,0,1-.2-.891,3.225,3.225,0,0,1-2.406,1.047,2.984,2.984,0,0,1-2.051-.707,2.287,2.287,0,0,1-.8-1.793,2.39,2.39,0,0,1,1-2.051,4.733,4.733,0,0,1,2.824-.73h1.406V9.211A1.623,1.623,0,0,0,50.656,8a1.821,1.821,0,0,0-1.336-.449,2.107,2.107,0,0,0-1.3.391,1.151,1.151,0,0,0-.523.945H46.047A2,2,0,0,1,46.5,7.668a3.066,3.066,0,0,1,1.219-.934,4.1,4.1,0,0,1,1.691-.344,3.342,3.342,0,0,1,2.289.73,2.635,2.635,0,0,1,.859,2.012v3.891a4.757,4.757,0,0,0,.3,1.852V15Zm-2.4-1.1a2.54,2.54,0,0,0,1.289-.352,2.127,2.127,0,0,0,.883-.914V10.9H49.977q-2.656,0-2.656,1.555a1.316,1.316,0,0,0,.453,1.063A1.742,1.742,0,0,0,48.938,13.9Zm9.492-3.2a4.952,4.952,0,0,1,.922-3.129,3.137,3.137,0,0,1,4.766-.168V3h1.445V15H64.234l-.07-.906a2.943,2.943,0,0,1-2.414,1.063,2.887,2.887,0,0,1-2.395-1.2,5.008,5.008,0,0,1-.926-3.141Zm1.445.164a3.749,3.749,0,0,0,.594,2.25,1.92,1.92,0,0,0,1.641.813A2.108,2.108,0,0,0,64.117,12.7V8.813a2.125,2.125,0,0,0-1.992-1.2,1.929,1.929,0,0,0-1.656.82A4.128,4.128,0,0,0,59.875,10.867Zm11.438,4.289a3.693,3.693,0,0,1-2.8-1.129,4.19,4.19,0,0,1-1.078-3.02v-.266a5.073,5.073,0,0,1,.48-2.246,3.748,3.748,0,0,1,1.344-1.547,3.378,3.378,0,0,1,1.871-.559A3.166,3.166,0,0,1,73.7,7.477a4.7,4.7,0,0,1,.914,3.109v.6H68.883a3,3,0,0,0,.73,2.02,2.3,2.3,0,0,0,1.777.77,2.517,2.517,0,0,0,1.3-.312,3.259,3.259,0,0,0,.93-.828l.883.688A3.55,3.55,0,0,1,71.313,15.156Zm-.18-7.578a1.928,1.928,0,0,0-1.469.637A3.1,3.1,0,0,0,68.93,10h4.234V9.891a2.753,2.753,0,0,0-.594-1.707A1.815,1.815,0,0,0,71.133,7.578Zm12.5,6.4a2.082,2.082,0,0,0,1.352-.469,1.649,1.649,0,0,0,.641-1.172h1.367a2.621,2.621,0,0,1-.5,1.383,3.293,3.293,0,0,1-1.23,1.047,3.55,3.55,0,0,1-1.629.391A3.482,3.482,0,0,1,80.887,14a4.59,4.59,0,0,1-1.02-3.152v-.242a5.089,5.089,0,0,1,.453-2.2,3.451,3.451,0,0,1,1.3-1.492,3.7,3.7,0,0,1,2-.531,3.39,3.39,0,0,1,2.363.852,3.043,3.043,0,0,1,1,2.211H85.625A1.992,1.992,0,0,0,85,8.105a1.932,1.932,0,0,0-1.379-.527,2.023,2.023,0,0,0-1.707.793,3.724,3.724,0,0,0-.605,2.293v.273a3.65,3.65,0,0,0,.6,2.25A2.033,2.033,0,0,0,83.633,13.977Zm4.6-3.281a4.993,4.993,0,0,1,.488-2.234A3.643,3.643,0,0,1,90.082,6.93a3.7,3.7,0,0,1,1.988-.539,3.565,3.565,0,0,1,2.793,1.2,4.6,4.6,0,0,1,1.066,3.18v.1a5.036,5.036,0,0,1-.473,2.215,3.589,3.589,0,0,1-1.352,1.527,3.743,3.743,0,0,1-2.02.547,3.556,3.556,0,0,1-2.785-1.2A4.575,4.575,0,0,1,88.234,10.8Zm1.453.172a3.616,3.616,0,0,0,.652,2.258,2.211,2.211,0,0,0,3.5-.012,3.955,3.955,0,0,0,.648-2.418,3.61,3.61,0,0,0-.66-2.254,2.1,2.1,0,0,0-1.754-.863,2.075,2.075,0,0,0-1.727.852A3.925,3.925,0,0,0,89.688,10.867Zm12.977,1.891a1.064,1.064,0,0,0-.441-.91,4.249,4.249,0,0,0-1.539-.559,7.277,7.277,0,0,1-1.742-.562,2.479,2.479,0,0,1-.953-.781,1.869,1.869,0,0,1-.309-1.078,2.193,2.193,0,0,1,.879-1.758,3.432,3.432,0,0,1,2.246-.719,3.532,3.532,0,0,1,2.332.742,2.357,2.357,0,0,1,.895,1.9h-1.453a1.3,1.3,0,0,0-.5-1.023,1.888,1.888,0,0,0-1.27-.43,1.976,1.976,0,0,0-1.234.344,1.082,1.082,0,0,0-.445.9.877.877,0,0,0,.414.789,5.1,5.1,0,0,0,1.5.508,7.8,7.8,0,0,1,1.754.578,2.558,2.558,0,0,1,1,.809,1.988,1.988,0,0,1,.324,1.152,2.163,2.163,0,0,1-.906,1.816,3.8,3.8,0,0,1-2.352.684,4.257,4.257,0,0,1-1.8-.359,2.922,2.922,0,0,1-1.223-1,2.42,2.42,0,0,1-.441-1.395h1.445a1.5,1.5,0,0,0,.582,1.152,2.258,2.258,0,0,0,1.434.426,2.331,2.331,0,0,0,1.316-.332A1.02,1.02,0,0,0,102.664,12.758ZM107.953,4.5V6.547h1.578V7.664h-1.578v5.249a1.173,1.173,0,0,0,.211.763.888.888,0,0,0,.719.254,3.5,3.5,0,0,0,.688-.094V15a4.215,4.215,0,0,1-1.109.155A1.8,1.8,0,0,1,107,14.57a2.517,2.517,0,0,1-.492-1.664V7.664h-1.539V6.547h1.539V4.5Zm2.727,6.2a4.993,4.993,0,0,1,.488-2.234,3.643,3.643,0,0,1,1.359-1.531,3.7,3.7,0,0,1,1.988-.539,3.565,3.565,0,0,1,2.793,1.2,4.6,4.6,0,0,1,1.066,3.18v.1a5.036,5.036,0,0,1-.473,2.215,3.589,3.589,0,0,1-1.352,1.527,3.743,3.743,0,0,1-2.02.547,3.556,3.556,0,0,1-2.785-1.2A4.575,4.575,0,0,1,110.68,10.8Zm1.453.172a3.616,3.616,0,0,0,.652,2.258,2.211,2.211,0,0,0,3.5-.012,3.955,3.955,0,0,0,.648-2.418,3.61,3.61,0,0,0-.66-2.254,2.1,2.1,0,0,0-1.754-.863,2.075,2.075,0,0,0-1.727.852A3.925,3.925,0,0,0,112.133,10.867Zm12.977,1.891a1.064,1.064,0,0,0-.441-.91,4.249,4.249,0,0,0-1.539-.559,7.277,7.277,0,0,1-1.742-.562,2.479,2.479,0,0,1-.953-.781,1.869,1.869,0,0,1-.309-1.078A2.193,2.193,0,0,1,121,7.109a3.432,3.432,0,0,1,2.246-.719,3.532,3.532,0,0,1,2.332.742,2.357,2.357,0,0,1,.895,1.9h-1.453a1.3,1.3,0,0,0-.5-1.023,1.888,1.888,0,0,0-1.27-.43,1.976,1.976,0,0,0-1.234.344,1.082,1.082,0,0,0-.445.9.877.877,0,0,0,.414.789,5.1,5.1,0,0,0,1.5.508,7.8,7.8,0,0,1,1.754.578,2.558,2.558,0,0,1,1,.809,1.988,1.988,0,0,1,.324,1.152,2.163,2.163,0,0,1-.906,1.816,3.8,3.8,0,0,1-2.352.684,4.257,4.257,0,0,1-1.8-.359,2.922,2.922,0,0,1-1.223-1,2.42,2.42,0,0,1-.441-1.395h1.445a1.5,1.5,0,0,0,.582,1.152,2.258,2.258,0,0,0,1.434.426,2.331,2.331,0,0,0,1.316-.332A1.02,1.02,0,0,0,125.109,12.758Z" transform="translate(728 10964.5)" fill="#12263f"/>
    <path id="Trazado_600002" data-name="Trazado 600002" d="M7.523,12.352H3.117L2.2,15H.141l4.3-11.375H6.211L10.516,15H8.453ZM3.672,10.758h3.3L5.32,6.039ZM13.641,15h-1.9V3h1.9ZM18.086,4.492V6.547h1.492V7.953H18.086v4.719a1.039,1.039,0,0,0,.191.7.888.888,0,0,0,.684.215,2.925,2.925,0,0,0,.664-.078v1.469a4.676,4.676,0,0,1-1.25.18q-2.188,0-2.187-2.414V7.953H14.8V6.547h1.391V4.492ZM26.078,15a2.93,2.93,0,0,1-.219-.789,3.193,3.193,0,0,1-4.3.219,2.325,2.325,0,0,1-.8-1.8,2.4,2.4,0,0,1,1-2.074,4.865,4.865,0,0,1,2.871-.723H25.8V9.281A1.481,1.481,0,0,0,25.43,8.23a1.456,1.456,0,0,0-1.117-.395,1.672,1.672,0,0,0-1.062.324,1,1,0,0,0-.414.824h-1.9a2.107,2.107,0,0,1,.461-1.3,3.071,3.071,0,0,1,1.254-.949,4.4,4.4,0,0,1,1.77-.344,3.547,3.547,0,0,1,2.367.746,2.661,2.661,0,0,1,.906,2.1v3.813a4.321,4.321,0,0,0,.32,1.82V15Zm-2.086-1.367a2.159,2.159,0,0,0,1.059-.273,1.827,1.827,0,0,0,.746-.734V11.031H24.773a2.8,2.8,0,0,0-1.586.367,1.189,1.189,0,0,0-.531,1.039,1.109,1.109,0,0,0,.363.871A1.407,1.407,0,0,0,23.992,13.633Zm10.43-.93A.861.861,0,0,0,34,11.93a4.445,4.445,0,0,0-1.387-.469A7.129,7.129,0,0,1,31,10.945a2.158,2.158,0,0,1-1.422-1.992A2.25,2.25,0,0,1,30.5,7.125a3.644,3.644,0,0,1,2.344-.734,3.792,3.792,0,0,1,2.449.75,2.38,2.38,0,0,1,.934,1.945h-1.9a1.17,1.17,0,0,0-.406-.91,1.557,1.557,0,0,0-1.078-.363,1.682,1.682,0,0,0-1.02.289.911.911,0,0,0-.395.773.769.769,0,0,0,.367.68,5.049,5.049,0,0,0,1.484.488,7.027,7.027,0,0,1,1.754.586,2.484,2.484,0,0,1,.945.816,2.082,2.082,0,0,1,.309,1.156,2.2,2.2,0,0,1-.945,1.848,4.031,4.031,0,0,1-2.477.707,4.371,4.371,0,0,1-1.852-.375A3.047,3.047,0,0,1,29.75,13.75a2.441,2.441,0,0,1-.453-1.414h1.844a1.338,1.338,0,0,0,.508,1.035,1.973,1.973,0,0,0,1.242.363,1.92,1.92,0,0,0,1.141-.285A.883.883,0,0,0,34.422,12.7Z" transform="translate(390 10660.5)" fill="#12263f"/>
    <path id="Trazado_600003" data-name="Trazado 600003" d="M7.523,12.352H3.117L2.2,15H.141l4.3-11.375H6.211L10.516,15H8.453ZM3.672,10.758h3.3L5.32,6.039ZM13.641,15h-1.9V3h1.9ZM18.086,4.492V6.547h1.492V7.953H18.086v4.719a1.039,1.039,0,0,0,.191.7.888.888,0,0,0,.684.215,2.925,2.925,0,0,0,.664-.078v1.469a4.676,4.676,0,0,1-1.25.18q-2.188,0-2.187-2.414V7.953H14.8V6.547h1.391V4.492Zm2.352,6.2a4.984,4.984,0,0,1,.492-2.238,3.6,3.6,0,0,1,1.383-1.531,3.9,3.9,0,0,1,2.047-.535,3.692,3.692,0,0,1,2.777,1.1,4.333,4.333,0,0,1,1.152,2.922l.008.445a5.029,5.029,0,0,1-.48,2.234,3.551,3.551,0,0,1-1.375,1.523,3.925,3.925,0,0,1-2.066.539,3.667,3.667,0,0,1-2.863-1.191,4.563,4.563,0,0,1-1.074-3.176Zm1.9.164a3.406,3.406,0,0,0,.539,2.043,1.752,1.752,0,0,0,1.5.738,1.733,1.733,0,0,0,1.5-.75,3.762,3.762,0,0,0,.535-2.2,3.362,3.362,0,0,0-.551-2.031,1.856,1.856,0,0,0-2.973-.012A3.691,3.691,0,0,0,22.336,10.859Z" transform="translate(1029 11074.5)" fill="#12263f"/>
    <path id="Trazado_600004" data-name="Trazado 600004" d="M3.719,3.625,7,12.344l3.273-8.719h2.555V15H10.859V11.25l.2-5.016L7.7,15H6.281L2.93,6.242l.2,5.008V15H1.156V3.625ZM14.625,10.7a4.984,4.984,0,0,1,.492-2.238A3.6,3.6,0,0,1,16.5,6.926a3.9,3.9,0,0,1,2.047-.535,3.692,3.692,0,0,1,2.777,1.1,4.333,4.333,0,0,1,1.152,2.922l.008.445A5.029,5.029,0,0,1,22,13.094a3.551,3.551,0,0,1-1.375,1.523,3.925,3.925,0,0,1-2.066.539A3.667,3.667,0,0,1,15.7,13.965a4.563,4.563,0,0,1-1.074-3.176Zm1.9.164a3.406,3.406,0,0,0,.539,2.043,1.752,1.752,0,0,0,1.5.738,1.733,1.733,0,0,0,1.5-.75,3.762,3.762,0,0,0,.535-2.2,3.362,3.362,0,0,0-.551-2.031,1.856,1.856,0,0,0-2.973-.012A3.691,3.691,0,0,0,16.523,10.859Zm7.211-.148a5.026,5.026,0,0,1,.906-3.137,2.9,2.9,0,0,1,2.43-1.184,2.759,2.759,0,0,1,2.172.938V3h1.9V15H29.422l-.094-.875a2.8,2.8,0,0,1-2.273,1.031,2.887,2.887,0,0,1-2.4-1.2A5.21,5.21,0,0,1,23.734,10.711Zm1.9.164a3.519,3.519,0,0,0,.5,2.012,1.61,1.61,0,0,0,1.41.723,1.793,1.793,0,0,0,1.7-1.039V8.961a1.766,1.766,0,0,0-1.687-1.016,1.622,1.622,0,0,0-1.422.73A3.918,3.918,0,0,0,25.633,10.875Zm11.211,4.281a3.928,3.928,0,0,1-2.926-1.137A4.124,4.124,0,0,1,32.8,10.992v-.234A5.072,5.072,0,0,1,33.285,8.5a3.716,3.716,0,0,1,1.371-1.551,3.625,3.625,0,0,1,1.969-.555,3.318,3.318,0,0,1,2.668,1.1,4.658,4.658,0,0,1,.941,3.117v.766H34.711a2.539,2.539,0,0,0,.7,1.656,2.1,2.1,0,0,0,1.543.609,2.571,2.571,0,0,0,2.125-1.055l1.023.977a3.418,3.418,0,0,1-1.355,1.176A4.244,4.244,0,0,1,36.844,15.156Zm-.227-7.242a1.6,1.6,0,0,0-1.262.547,2.835,2.835,0,0,0-.613,1.523h3.617V9.844A2.307,2.307,0,0,0,37.852,8.4,1.586,1.586,0,0,0,36.617,7.914Zm9.516.367a4.7,4.7,0,0,0-.773-.062,1.741,1.741,0,0,0-1.758,1V15H41.7V6.547h1.813l.047.945a2.139,2.139,0,0,1,1.906-1.1,1.777,1.777,0,0,1,.672.109ZM52.148,15a2.93,2.93,0,0,1-.219-.789,3.193,3.193,0,0,1-4.3.219,2.325,2.325,0,0,1-.8-1.8,2.4,2.4,0,0,1,1-2.074A4.865,4.865,0,0,1,50.7,9.836h1.164V9.281A1.481,1.481,0,0,0,51.5,8.23a1.456,1.456,0,0,0-1.117-.395,1.672,1.672,0,0,0-1.062.324,1,1,0,0,0-.414.824h-1.9a2.107,2.107,0,0,1,.461-1.3,3.071,3.071,0,0,1,1.254-.949,4.4,4.4,0,0,1,1.77-.344,3.547,3.547,0,0,1,2.367.746,2.661,2.661,0,0,1,.906,2.1v3.813a4.321,4.321,0,0,0,.32,1.82V15Zm-2.086-1.367a2.159,2.159,0,0,0,1.059-.273,1.827,1.827,0,0,0,.746-.734V11.031H50.844a2.8,2.8,0,0,0-1.586.367,1.189,1.189,0,0,0-.531,1.039,1.109,1.109,0,0,0,.363.871A1.407,1.407,0,0,0,50.063,13.633ZM55.4,10.711A5.026,5.026,0,0,1,56.3,7.574a2.9,2.9,0,0,1,2.43-1.184,2.759,2.759,0,0,1,2.172.938V3h1.9V15H61.086l-.094-.875a2.8,2.8,0,0,1-2.273,1.031,2.887,2.887,0,0,1-2.4-1.2A5.21,5.21,0,0,1,55.4,10.711Zm1.9.164a3.519,3.519,0,0,0,.5,2.012,1.61,1.61,0,0,0,1.41.723,1.793,1.793,0,0,0,1.7-1.039V8.961a1.766,1.766,0,0,0-1.687-1.016,1.622,1.622,0,0,0-1.422.73A3.919,3.919,0,0,0,57.3,10.875Zm7.133-.18a4.984,4.984,0,0,1,.492-2.238A3.6,3.6,0,0,1,66.3,6.926a3.9,3.9,0,0,1,2.047-.535,3.692,3.692,0,0,1,2.777,1.1,4.333,4.333,0,0,1,1.152,2.922l.008.445a5.029,5.029,0,0,1-.48,2.234,3.551,3.551,0,0,1-1.375,1.523,3.925,3.925,0,0,1-2.066.539A3.667,3.667,0,0,1,65.5,13.965a4.563,4.563,0,0,1-1.074-3.176Zm1.9.164a3.406,3.406,0,0,0,.539,2.043,1.752,1.752,0,0,0,1.5.738,1.733,1.733,0,0,0,1.5-.75,3.762,3.762,0,0,0,.535-2.2,3.362,3.362,0,0,0-.551-2.031,1.856,1.856,0,0,0-2.973-.012A3.691,3.691,0,0,0,66.328,10.859Z" transform="translate(841 11074.5)" fill="#12263f"/>
    <path id="Trazado_600005" data-name="Trazado 600005" d="M0,0H164V37H0Z" transform="translate(560 10622.5)" fill="#e3f7f0"/>
    <path id="Trazado_600006" data-name="Trazado 600006" d="M0,0H164V37H0Z" transform="translate(720 10622.5)" fill="#d9e9f1"/>
    <path id="Trazado_600007" data-name="Trazado 600007" d="M0,0H165V37H0Z" transform="translate(883 10622.5)" fill="#e3f7f0"/>
    <path id="Trazado_600008" data-name="Trazado 600008" d="M0,0H165V37H0Z" transform="translate(1045 10622.5)" fill="#d9e9f1"/>
    <path id="Trazado_600009" data-name="Trazado 600009" d="M58.2,15V3.625h3.211a5.169,5.169,0,0,1,2.625.656A4.438,4.438,0,0,1,65.8,6.148,6.078,6.078,0,0,1,66.43,8.93v.727a6.1,6.1,0,0,1-.621,2.82,4.369,4.369,0,0,1-1.773,1.859A5.5,5.5,0,0,1,61.352,15ZM59.7,4.852v8.922h1.578a3.434,3.434,0,0,0,2.7-1.079,4.458,4.458,0,0,0,.965-3.073V8.957a4.529,4.529,0,0,0-.91-3.014,3.239,3.239,0,0,0-2.582-1.091Zm12.273,10.3a3.693,3.693,0,0,1-2.8-1.129,4.19,4.19,0,0,1-1.078-3.02v-.266a5.073,5.073,0,0,1,.48-2.246,3.748,3.748,0,0,1,1.344-1.547A3.378,3.378,0,0,1,71.8,6.391a3.166,3.166,0,0,1,2.563,1.086,4.7,4.7,0,0,1,.914,3.109v.6H69.547a3,3,0,0,0,.73,2.02,2.3,2.3,0,0,0,1.777.77,2.517,2.517,0,0,0,1.3-.312,3.259,3.259,0,0,0,.93-.828l.883.688A3.55,3.55,0,0,1,71.977,15.156ZM71.8,7.578a1.928,1.928,0,0,0-1.469.637A3.1,3.1,0,0,0,69.594,10h4.234V9.891a2.753,2.753,0,0,0-.594-1.707A1.815,1.815,0,0,0,71.8,7.578Zm8.539,6.4a2.082,2.082,0,0,0,1.352-.469,1.649,1.649,0,0,0,.641-1.172H83.7a2.621,2.621,0,0,1-.5,1.383,3.293,3.293,0,0,1-1.23,1.047,3.55,3.55,0,0,1-1.629.391A3.482,3.482,0,0,1,77.59,14a4.59,4.59,0,0,1-1.02-3.152v-.242a5.089,5.089,0,0,1,.453-2.2,3.451,3.451,0,0,1,1.3-1.492,3.7,3.7,0,0,1,2-.531,3.39,3.39,0,0,1,2.363.852,3.043,3.043,0,0,1,1,2.211H82.328a1.992,1.992,0,0,0-.621-1.348,1.932,1.932,0,0,0-1.379-.527,2.023,2.023,0,0,0-1.707.793,3.724,3.724,0,0,0-.605,2.293v.273a3.65,3.65,0,0,0,.6,2.25A2.033,2.033,0,0,0,80.336,13.977ZM86.891,15H85.445V3h1.445Zm3.883,0H89.328V6.547h1.445ZM89.211,4.3a.863.863,0,0,1,.215-.594.807.807,0,0,1,.637-.242.819.819,0,0,1,.641.242.854.854,0,0,1,.219.594.826.826,0,0,1-.219.586.834.834,0,0,1-.641.234.821.821,0,0,1-.637-.234A.834.834,0,0,1,89.211,4.3Zm6.664,8.734,2.094-6.492h1.477L96.414,15h-1.1L92.25,6.547h1.477Zm8.367,2.117a3.693,3.693,0,0,1-2.8-1.129,4.19,4.19,0,0,1-1.078-3.02v-.266a5.073,5.073,0,0,1,.48-2.246,3.748,3.748,0,0,1,1.344-1.547,3.378,3.378,0,0,1,1.871-.559,3.166,3.166,0,0,1,2.563,1.086,4.7,4.7,0,0,1,.914,3.109v.6h-5.727a3,3,0,0,0,.73,2.02,2.3,2.3,0,0,0,1.777.77,2.517,2.517,0,0,0,1.3-.312,3.259,3.259,0,0,0,.93-.828l.883.688A3.55,3.55,0,0,1,104.242,15.156Zm-.18-7.578a1.928,1.928,0,0,0-1.469.637A3.1,3.1,0,0,0,101.859,10h4.234V9.891a2.753,2.753,0,0,0-.594-1.707A1.815,1.815,0,0,0,104.063,7.578Z" transform="translate(1045 10629.5)" fill="#12263f"/>
    <path id="Trazado_600010" data-name="Trazado 600010" d="M53.164,3.625l3.719,9.281L60.6,3.625h1.945V15h-1.5V10.57l.141-4.781L57.453,15H56.3L52.578,5.813l.148,4.758V15h-1.5V3.625ZM70.188,15a3.036,3.036,0,0,1-.2-.891,3.225,3.225,0,0,1-2.406,1.047,2.984,2.984,0,0,1-2.051-.707,2.288,2.288,0,0,1-.8-1.793,2.39,2.39,0,0,1,1-2.051,4.733,4.733,0,0,1,2.824-.73h1.406V9.211A1.623,1.623,0,0,0,69.508,8a1.821,1.821,0,0,0-1.336-.449,2.108,2.108,0,0,0-1.3.391,1.151,1.151,0,0,0-.523.945H64.9a2,2,0,0,1,.449-1.223,3.066,3.066,0,0,1,1.219-.934,4.1,4.1,0,0,1,1.691-.344,3.342,3.342,0,0,1,2.289.73,2.635,2.635,0,0,1,.859,2.012v3.891a4.757,4.757,0,0,0,.3,1.852V15Zm-2.4-1.1a2.54,2.54,0,0,0,1.289-.352,2.127,2.127,0,0,0,.883-.914V10.9H68.828q-2.656,0-2.656,1.555a1.316,1.316,0,0,0,.453,1.063A1.742,1.742,0,0,0,67.789,13.9Zm5.531-3.2a4.952,4.952,0,0,1,.922-3.129,3.137,3.137,0,0,1,4.766-.168V3h1.445V15H79.125l-.07-.906a2.943,2.943,0,0,1-2.414,1.063,2.887,2.887,0,0,1-2.395-1.2,5.008,5.008,0,0,1-.926-3.141Zm1.445.164a3.749,3.749,0,0,0,.594,2.25A1.92,1.92,0,0,0,77,13.93,2.108,2.108,0,0,0,79.008,12.7V8.813a2.125,2.125,0,0,0-1.992-1.2,1.929,1.929,0,0,0-1.656.82A4.128,4.128,0,0,0,74.766,10.867Zm13.148,3.3a3.07,3.07,0,0,1-2.477.992,2.628,2.628,0,0,1-2.059-.785,3.4,3.4,0,0,1-.715-2.324v-5.5h1.445v5.461q0,1.922,1.563,1.922a2.163,2.163,0,0,0,2.2-1.234V6.547H89.32V15H87.945ZM95.6,7.844a4.331,4.331,0,0,0-.711-.055A1.9,1.9,0,0,0,92.961,9v6H91.516V6.547h1.406l.023.977a2.251,2.251,0,0,1,2.016-1.133A1.477,1.477,0,0,1,95.6,6.5Zm4.688,7.313a3.693,3.693,0,0,1-2.8-1.129,4.19,4.19,0,0,1-1.078-3.02v-.266a5.073,5.073,0,0,1,.48-2.246,3.748,3.748,0,0,1,1.344-1.547,3.378,3.378,0,0,1,1.871-.559,3.166,3.166,0,0,1,2.563,1.086,4.7,4.7,0,0,1,.914,3.109v.6H97.859a3,3,0,0,0,.73,2.02,2.3,2.3,0,0,0,1.777.77,2.517,2.517,0,0,0,1.3-.312,3.259,3.259,0,0,0,.93-.828l.883.688A3.55,3.55,0,0,1,100.289,15.156Zm-.18-7.578a1.928,1.928,0,0,0-1.469.637A3.1,3.1,0,0,0,97.906,10h4.234V9.891a2.753,2.753,0,0,0-.594-1.707A1.815,1.815,0,0,0,100.109,7.578Zm6.508,6.242h4.945V15h-6.711V13.938l4.664-6.2h-4.594v-1.2h6.406V7.57Z" transform="translate(883 10629.5)" fill="#12263f"/>
    <path id="Trazado_600011" data-name="Trazado 600011" d="M45.777,11.391a4.185,4.185,0,0,1-1.332,2.785,4.365,4.365,0,0,1-2.98.98,4.008,4.008,0,0,1-3.23-1.445A5.815,5.815,0,0,1,37.02,9.844V8.75a6.481,6.481,0,0,1,.566-2.789,4.231,4.231,0,0,1,1.605-1.848A4.47,4.47,0,0,1,41.6,3.469,4.11,4.11,0,0,1,44.5,4.48a4.235,4.235,0,0,1,1.273,2.8H44.27a3.268,3.268,0,0,0-.848-1.975A2.565,2.565,0,0,0,41.6,4.7a2.684,2.684,0,0,0-2.254,1.063,4.882,4.882,0,0,0-.816,3.026v1.1a5.018,5.018,0,0,0,.773,2.948,2.5,2.5,0,0,0,2.164,1.095,2.887,2.887,0,0,0,1.918-.566,3.143,3.143,0,0,0,.887-1.973Zm5.906-3.547a4.331,4.331,0,0,0-.711-.055A1.9,1.9,0,0,0,49.043,9v6H47.6V6.547H49l.023.977a2.251,2.251,0,0,1,2.016-1.133,1.477,1.477,0,0,1,.641.109Zm4.688,7.313a3.693,3.693,0,0,1-2.8-1.129,4.19,4.19,0,0,1-1.078-3.02v-.266a5.073,5.073,0,0,1,.48-2.246A3.748,3.748,0,0,1,54.32,6.949a3.378,3.378,0,0,1,1.871-.559,3.166,3.166,0,0,1,2.563,1.086,4.7,4.7,0,0,1,.914,3.109v.6H53.941a3,3,0,0,0,.73,2.02,2.3,2.3,0,0,0,1.777.77,2.517,2.517,0,0,0,1.3-.312,3.259,3.259,0,0,0,.93-.828l.883.688A3.55,3.55,0,0,1,56.371,15.156Zm-.18-7.578a1.928,1.928,0,0,0-1.469.637A3.1,3.1,0,0,0,53.988,10h4.234V9.891a2.753,2.753,0,0,0-.594-1.707A1.815,1.815,0,0,0,56.191,7.578Zm8.539,6.4a2.082,2.082,0,0,0,1.352-.469,1.649,1.649,0,0,0,.641-1.172H68.09a2.621,2.621,0,0,1-.5,1.383,3.293,3.293,0,0,1-1.23,1.047,3.55,3.55,0,0,1-1.629.391A3.482,3.482,0,0,1,61.984,14a4.59,4.59,0,0,1-1.02-3.152v-.242a5.089,5.089,0,0,1,.453-2.2,3.451,3.451,0,0,1,1.3-1.492,3.7,3.7,0,0,1,2-.531,3.39,3.39,0,0,1,2.363.852,3.043,3.043,0,0,1,1,2.211H66.723A1.992,1.992,0,0,0,66.1,8.105a1.932,1.932,0,0,0-1.379-.527,2.023,2.023,0,0,0-1.707.793,3.724,3.724,0,0,0-.605,2.293v.273a3.65,3.65,0,0,0,.6,2.25A2.033,2.033,0,0,0,64.73,13.977ZM71.285,15H69.84V6.547h1.445ZM69.723,4.3a.863.863,0,0,1,.215-.594.807.807,0,0,1,.637-.242.819.819,0,0,1,.641.242.854.854,0,0,1,.219.594.826.826,0,0,1-.219.586.834.834,0,0,1-.641.234.821.821,0,0,1-.637-.234A.834.834,0,0,1,69.723,4.3Zm5.234,2.242L75,7.484A3.122,3.122,0,0,1,77.5,6.391,2.417,2.417,0,0,1,79.918,7.75a3.2,3.2,0,0,1,1.1-.984,3.242,3.242,0,0,1,1.6-.375q2.781,0,2.828,2.945V15H84V9.422a1.941,1.941,0,0,0-.414-1.355,1.823,1.823,0,0,0-1.391-.449,1.916,1.916,0,0,0-1.336.48,1.949,1.949,0,0,0-.617,1.293V15H78.785V9.461a1.613,1.613,0,0,0-1.8-1.844,1.934,1.934,0,0,0-1.945,1.211V15H73.59V6.547ZM89.191,15H87.746V6.547h1.445ZM87.629,4.3a.863.863,0,0,1,.215-.594.807.807,0,0,1,.637-.242.819.819,0,0,1,.641.242.854.854,0,0,1,.219.594.826.826,0,0,1-.219.586.834.834,0,0,1-.641.234.821.821,0,0,1-.637-.234A.834.834,0,0,1,87.629,4.3Zm7.383,10.852a3.693,3.693,0,0,1-2.8-1.129,4.19,4.19,0,0,1-1.078-3.02v-.266a5.073,5.073,0,0,1,.48-2.246,3.748,3.748,0,0,1,1.344-1.547,3.378,3.378,0,0,1,1.871-.559,3.166,3.166,0,0,1,2.563,1.086,4.7,4.7,0,0,1,.914,3.109v.6H92.582a3,3,0,0,0,.73,2.02,2.3,2.3,0,0,0,1.777.77,2.517,2.517,0,0,0,1.3-.312,3.259,3.259,0,0,0,.93-.828l.883.688A3.55,3.55,0,0,1,95.012,15.156Zm-.18-7.578a1.928,1.928,0,0,0-1.469.637A3.1,3.1,0,0,0,92.629,10h4.234V9.891a2.753,2.753,0,0,0-.594-1.707A1.815,1.815,0,0,0,94.832,7.578Zm6.516-1.031.047,1.063a3.08,3.08,0,0,1,2.531-1.219q2.68,0,2.7,3.023V15h-1.445V9.406a1.946,1.946,0,0,0-.418-1.352,1.675,1.675,0,0,0-1.277-.437,2.086,2.086,0,0,0-1.234.375,2.546,2.546,0,0,0-.828.984V15H99.98V6.547ZM110.77,4.5V6.547h1.578V7.664H110.77v5.249a1.173,1.173,0,0,0,.211.763.888.888,0,0,0,.719.254,3.5,3.5,0,0,0,.688-.094V15a4.215,4.215,0,0,1-1.109.155,1.8,1.8,0,0,1-1.461-.586,2.517,2.517,0,0,1-.492-1.664V7.664h-1.539V6.547h1.539V4.5Zm2.727,6.2a4.993,4.993,0,0,1,.488-2.234,3.643,3.643,0,0,1,1.359-1.531,3.7,3.7,0,0,1,1.988-.539,3.565,3.565,0,0,1,2.793,1.2,4.6,4.6,0,0,1,1.066,3.18v.1a5.036,5.036,0,0,1-.473,2.215,3.589,3.589,0,0,1-1.352,1.527,3.743,3.743,0,0,1-2.02.547,3.556,3.556,0,0,1-2.785-1.2A4.575,4.575,0,0,1,113.5,10.8Zm1.453.172a3.616,3.616,0,0,0,.652,2.258,2.211,2.211,0,0,0,3.5-.012,3.955,3.955,0,0,0,.648-2.418,3.61,3.61,0,0,0-.66-2.254,2.1,2.1,0,0,0-1.754-.863,2.075,2.075,0,0,0-1.727.852A3.925,3.925,0,0,0,114.949,10.867Z" transform="translate(724 10629.5)" fill="#12263f"/>
    <path id="Trazado_600012" data-name="Trazado 600012" d="M40.82,15h-1.5V3.625h1.5ZM44.7,6.547l.047,1.063a3.08,3.08,0,0,1,2.531-1.219q2.68,0,2.7,3.023V15H48.539V9.406a1.946,1.946,0,0,0-.418-1.352,1.675,1.675,0,0,0-1.277-.437,2.086,2.086,0,0,0-1.234.375,2.546,2.546,0,0,0-.828.984V15H43.336V6.547ZM54.125,4.5V6.547H55.7V7.664H54.125v5.249a1.173,1.173,0,0,0,.211.763.888.888,0,0,0,.719.254,3.5,3.5,0,0,0,.688-.094V15a4.215,4.215,0,0,1-1.109.155,1.8,1.8,0,0,1-1.461-.586,2.517,2.517,0,0,1-.492-1.664V7.664H51.141V6.547H52.68V4.5Zm7.352,3.344a4.331,4.331,0,0,0-.711-.055A1.9,1.9,0,0,0,58.836,9v6H57.391V6.547H58.8l.023.977a2.251,2.251,0,0,1,2.016-1.133,1.477,1.477,0,0,1,.641.109Zm.789,2.852a4.993,4.993,0,0,1,.488-2.234A3.643,3.643,0,0,1,64.113,6.93,3.7,3.7,0,0,1,66.1,6.391a3.565,3.565,0,0,1,2.793,1.2,4.6,4.6,0,0,1,1.066,3.18v.1a5.036,5.036,0,0,1-.473,2.215,3.589,3.589,0,0,1-1.352,1.527,3.743,3.743,0,0,1-2.02.547,3.556,3.556,0,0,1-2.785-1.2A4.575,4.575,0,0,1,62.266,10.8Zm1.453.172a3.616,3.616,0,0,0,.652,2.258,2.211,2.211,0,0,0,3.5-.012,3.955,3.955,0,0,0,.648-2.418,3.61,3.61,0,0,0-.66-2.254A2.1,2.1,0,0,0,66.1,7.578a2.075,2.075,0,0,0-1.727.852A3.925,3.925,0,0,0,63.719,10.867Zm7.7-.164a4.952,4.952,0,0,1,.922-3.129,3.137,3.137,0,0,1,4.766-.168V3h1.445V15H77.227l-.07-.906a2.943,2.943,0,0,1-2.414,1.063,2.887,2.887,0,0,1-2.395-1.2,5.008,5.008,0,0,1-.926-3.141Zm1.445.164a3.749,3.749,0,0,0,.594,2.25,1.92,1.92,0,0,0,1.641.813A2.108,2.108,0,0,0,77.109,12.7V8.813a2.125,2.125,0,0,0-1.992-1.2,1.929,1.929,0,0,0-1.656.82A4.128,4.128,0,0,0,72.867,10.867Zm13.148,3.3a3.07,3.07,0,0,1-2.477.992,2.628,2.628,0,0,1-2.059-.785,3.4,3.4,0,0,1-.715-2.324v-5.5h1.445v5.461q0,1.922,1.563,1.922a2.163,2.163,0,0,0,2.2-1.234V6.547h1.445V15H86.047Zm6.992-.187a2.082,2.082,0,0,0,1.352-.469A1.649,1.649,0,0,0,95,12.336h1.367a2.621,2.621,0,0,1-.5,1.383,3.293,3.293,0,0,1-1.23,1.047,3.55,3.55,0,0,1-1.629.391A3.482,3.482,0,0,1,90.262,14a4.59,4.59,0,0,1-1.02-3.152v-.242a5.089,5.089,0,0,1,.453-2.2A3.451,3.451,0,0,1,91,6.922a3.7,3.7,0,0,1,2-.531,3.39,3.39,0,0,1,2.363.852,3.043,3.043,0,0,1,1,2.211H95a1.992,1.992,0,0,0-.621-1.348A1.932,1.932,0,0,0,93,7.578a2.023,2.023,0,0,0-1.707.793,3.724,3.724,0,0,0-.605,2.293v.273a3.65,3.65,0,0,0,.6,2.25A2.033,2.033,0,0,0,93.008,13.977Zm8.375,0a2.082,2.082,0,0,0,1.352-.469,1.649,1.649,0,0,0,.641-1.172h1.367a2.621,2.621,0,0,1-.5,1.383,3.293,3.293,0,0,1-1.23,1.047,3.55,3.55,0,0,1-1.629.391A3.482,3.482,0,0,1,98.637,14a4.59,4.59,0,0,1-1.02-3.152v-.242a5.089,5.089,0,0,1,.453-2.2,3.451,3.451,0,0,1,1.3-1.492,3.7,3.7,0,0,1,2-.531,3.39,3.39,0,0,1,2.363.852,3.043,3.043,0,0,1,1,2.211h-1.367a1.992,1.992,0,0,0-.621-1.348,1.932,1.932,0,0,0-1.379-.527,2.023,2.023,0,0,0-1.707.793,3.724,3.724,0,0,0-.605,2.293v.273a3.65,3.65,0,0,0,.6,2.25A2.033,2.033,0,0,0,101.383,13.977ZM107.938,15h-1.445V6.547h1.445ZM106.375,4.3a.863.863,0,0,1,.215-.594.807.807,0,0,1,.637-.242.819.819,0,0,1,.641.242.854.854,0,0,1,.219.594.826.826,0,0,1-.219.586.834.834,0,0,1-.641.234.821.821,0,0,1-.637-.234A.834.834,0,0,1,106.375,4.3Zm3.492,6.391a4.993,4.993,0,0,1,.488-2.234,3.643,3.643,0,0,1,1.359-1.531,3.7,3.7,0,0,1,1.988-.539,3.565,3.565,0,0,1,2.793,1.2,4.6,4.6,0,0,1,1.066,3.18v.1a5.036,5.036,0,0,1-.473,2.215,3.589,3.589,0,0,1-1.352,1.527,3.743,3.743,0,0,1-2.02.547,3.556,3.556,0,0,1-2.785-1.2,4.575,4.575,0,0,1-1.066-3.164Zm1.453.172a3.616,3.616,0,0,0,.652,2.258,2.211,2.211,0,0,0,3.5-.012,3.955,3.955,0,0,0,.648-2.418,3.61,3.61,0,0,0-.66-2.254,2.1,2.1,0,0,0-1.754-.863,2.075,2.075,0,0,0-1.727.852A3.925,3.925,0,0,0,111.32,10.867Zm3.039-7.852h1.75l-2.094,2.3-1.164,0Zm6.383,3.531.047,1.063a3.08,3.08,0,0,1,2.531-1.219q2.68,0,2.7,3.023V15h-1.445V9.406a1.946,1.946,0,0,0-.418-1.352,1.675,1.675,0,0,0-1.277-.437,2.086,2.086,0,0,0-1.234.375,2.546,2.546,0,0,0-.828.984V15h-1.445V6.547Z" transform="translate(560 10629.5)" fill="#12263f"/>
    <g id="Trazado_599611" data-name="Trazado 599611" transform="translate(390 11065.5)" fill="none">
      <path d="M0,0H820V41H0Z" stroke="none"/>
      <path d="M 1 1 L 1 40 L 819 40 L 819 1 L 1 1 M 0 0 L 820 0 L 820 41 L 0 41 L 0 0 Z" stroke="none" fill="#3185af"/>
    </g>
    <path id="Trazado_213259" data-name="Trazado 213259" d="M-6610-2406v406.8" transform="translate(7331.44 13065.24)" fill="none" stroke="#beb9b9" stroke-width="1"/>
    <path id="Trazado_213260" data-name="Trazado 213260" d="M-6610-2406v406.8" transform="translate(7493.147 13065.24)" fill="none" stroke="#beb9b9" stroke-width="1"/>
    <path id="Trazado_213261" data-name="Trazado 213261" d="M-6610-2406v406.8" transform="translate(7654.853 13065.24)" fill="none" stroke="#beb9b9" stroke-width="1"/>
    <path id="Trazado_213257" data-name="Trazado 213257" d="M-6861.919-2071.295s40.078-5.433,46.87-11.547,21.738-19.021,21.738-19.021,13.689-15.625,17.374-20.379,54.632-80.157,62.782-93.743,19.7-27.171,21.058-31.247,57.74-86.95,65.892-105.291,20.947-60.457,38.666-70.647,59.833-27.852,75.456-25.134,36-9.51,76.761,14.266,113.443,85.591,122.953,92.384,56.383,61.816,59.778,65.213" transform="translate(7420.721 13122.779)" fill="none" stroke="#3185af" stroke-linecap="round" stroke-width="3"/>
    <g id="cow" transform="translate(746.66 10670.553)">
      <g id="Grupo_153280" data-name="Grupo 153280" transform="translate(0 0)">
        <g id="Grupo_153279" data-name="Grupo 153279">
          <g id="Grupo_153278" data-name="Grupo 153278">
            <g id="Grupo_153277" data-name="Grupo 153277">
              <g id="Grupo_153276" data-name="Grupo 153276">
                <g id="Grupo_153275" data-name="Grupo 153275">
                  <g id="Grupo_153274" data-name="Grupo 153274">
                    <ellipse id="Elipse_4914" data-name="Elipse 4914" cx="31.5" cy="32.5" rx="31.5" ry="32.5" transform="translate(0.34 -0.053)" fill="#6ea9c7"/>
                  </g>
                </g>
              </g>
            </g>
          </g>
        </g>
      </g>
      <path id="Trazado_213181" data-name="Trazado 213181" d="M153.961,87.869a30.952,30.952,0,0,0-.358-4.705L122.188,62.718l10.738,24.767L122.188,76.43l-11.91,7.113-7.487,2.209,15.894,15.564L106.692,109l13.292,10.152q.975.058,1.965.058C139.629,119.215,153.961,105.181,153.961,87.869Z" transform="translate(-90.962 -54.702)" fill="#3185af"/>
    </g>
    <g id="estrella_1_" data-name="estrella (1)" transform="translate(752.659 10678.281)">
      <path id="Trazado_213145" data-name="Trazado 213145" d="M24.516,12.53,16.495,27.267,0,30.342,15.227,36.8l9.289,1.269,1.341-9.792Z" transform="translate(0 -12.53)" fill="#ffdd46"/>
      <path id="Trazado_213146" data-name="Trazado 213146" d="M280.516,198.524l-16.089,3.014L256,206.255l5.171,9.84,9.98,11.25-2.173-16.638Z" transform="translate(-231.484 -180.712)" fill="#ff9e00"/>
      <path id="Trazado_213147" data-name="Trazado 213147" d="M97.783,300.339l15.152-7.208,1.245-5.67-1.245-8.212-7.853,6.3Z" transform="translate(-88.419 -253.706)" fill="#ffdd46"/>
      <g id="Grupo_153262" data-name="Grupo 153262" transform="translate(0 0)">
        <path id="Trazado_213148" data-name="Trazado 213148" d="M256,279.249v13.882l15.152,7.208Z" transform="translate(-231.484 -253.706)" fill="#fcbe00"/>
        <path id="Trazado_213149" data-name="Trazado 213149" d="M280.516,30.342l-16.495-3.075L256,12.53V38.073Z" transform="translate(-231.484 -12.53)" fill="#fcbe00"/>
        <path id="Trazado_213150" data-name="Trazado 213150" d="M0,198.524l11.537,12.183L9.364,227.345l15.152-21.09Z" transform="translate(0 -180.712)" fill="#fcbe00"/>
      </g>
    </g>
    <g id="Grupo_153280-2" data-name="Grupo 153280" transform="translate(955.243 10716.728)">
      <g id="Grupo_153279-2" data-name="Grupo 153279" transform="translate(0)">
        <g id="Grupo_153278-2" data-name="Grupo 153278">
          <g id="Grupo_153277-2" data-name="Grupo 153277">
            <g id="Grupo_153276-2" data-name="Grupo 153276">
              <g id="Grupo_153275-2" data-name="Grupo 153275">
                <g id="Grupo_153274-2" data-name="Grupo 153274">
                  <circle id="Elipse_4914-2" data-name="Elipse 4914" cx="33" cy="33" r="33" transform="translate(-0.243 -0.228)" fill="#6ea9c7"/>
                </g>
              </g>
            </g>
          </g>
        </g>
      </g>
    </g>
    <path id="Trazado_213181-2" data-name="Trazado 213181" d="M153.7,88.554a32.1,32.1,0,0,0-.356-4.78l-19.01-19.01-1.561,23.4-23.4-23.4.87,19.394L102.791,86.4,118.6,102.215l-8.584,8.25,9.876,9.876q.97.059,1.955.059A31.846,31.846,0,0,0,153.7,88.554Z" transform="translate(866.21 10660.415)" fill="#3185af"/>
    <g id="Grupo_153281" data-name="Grupo 153281" transform="translate(973.024 10725.18)">
      <path id="Trazado_213182" data-name="Trazado 213182" d="M144.005,75.11s-5.763-2.344-6.313-10.346c0,0-6.476,9.8,1.193,15.667S144.005,75.11,144.005,75.11Z" transform="translate(-135.137 -64.764)" fill="#555a66"/>
    </g>
    <g id="Grupo_153282" data-name="Grupo 153282" transform="translate(965.629 10737.298)">
      <path id="Trazado_213183" data-name="Trazado 213183" d="M86.888,167.43s-4.4-5.643-11.147-5.231c0,0-1.376,10.5,10.046,12.752Z" transform="translate(-75.69 -162.177)" fill="#ffb89c"/>
    </g>
    <g id="Grupo_153283" data-name="Grupo 153283" transform="translate(993.821 10725.18)">
      <path id="Trazado_213184" data-name="Trazado 213184" d="M302.716,75.11s5.763-2.344,6.313-10.346c0,0,6.476,9.8-1.193,15.667S302.716,75.11,302.716,75.11Z" transform="translate(-302.31 -64.764)" fill="#333940"/>
    </g>
    <g id="Grupo_153284" data-name="Grupo 153284" transform="translate(999.292 10737.298)">
      <path id="Trazado_213185" data-name="Trazado 213185" d="M346.291,167.43s4.4-5.643,11.146-5.231c0,0,1.376,10.5-10.046,12.752Z" transform="translate(-346.291 -162.177)" fill="#ff936b"/>
    </g>
    <g id="Grupo_153285" data-name="Grupo 153285" transform="translate(973.949 10732.549)">
      <path id="Trazado_213186" data-name="Trazado 213186" d="M158.211,124h-4a11.643,11.643,0,0,0-11.546,13.138l2.29,17.687H168.4l1.4-10.823Z" transform="translate(-142.568 -124.003)" fill="#fff"/>
    </g>
    <g id="Grupo_153286" data-name="Grupo 153286" transform="translate(988.06 10732.549)">
      <path id="Trazado_213187" data-name="Trazado 213187" d="M257.532,124H256v30.825h11.723l1.4-10.823-.8-6.745Z" transform="translate(-256 -124.003)" fill="#e9edf5"/>
    </g>
    <g id="Grupo_153287" data-name="Grupo 153287" transform="translate(974.442 10758.603)">
      <path id="Trazado_213188" data-name="Trazado 213188" d="M167.514,347.6H152.786a6.254,6.254,0,0,1-6.254-6.254V339.7a6.254,6.254,0,0,1,6.254-6.254h14.728a6.254,6.254,0,0,1,6.254,6.254v1.649A6.254,6.254,0,0,1,167.514,347.6Z" transform="translate(-146.532 -333.442)" fill="#ffb89c"/>
    </g>
    <g id="Grupo_153288" data-name="Grupo 153288" transform="translate(988.06 10758.603)">
      <path id="Trazado_213189" data-name="Trazado 213189" d="M263.364,333.442H256V347.6h7.364a6.254,6.254,0,0,0,6.254-6.254V339.7A6.254,6.254,0,0,0,263.364,333.442Z" transform="translate(-256 -333.442)" fill="#ff936b"/>
    </g>
    <g id="Grupo_153291" data-name="Grupo 153291" transform="translate(979.897 10763.74)">
      <g id="Grupo_153289" data-name="Grupo 153289">
        <ellipse id="Elipse_4915" data-name="Elipse 4915" cx="2.402" cy="2.402" rx="2.402" ry="2.402" fill="#555a66"/>
      </g>
      <g id="Grupo_153290" data-name="Grupo 153290" transform="translate(11.522)">
        <ellipse id="Elipse_4916" data-name="Elipse 4916" cx="2.402" cy="2.402" rx="2.402" ry="2.402" fill="#333940"/>
      </g>
    </g>
    <g id="Grupo_153294" data-name="Grupo 153294" transform="translate(979.471 10747.731)">
      <g id="Grupo_153292" data-name="Grupo 153292">
        <ellipse id="Elipse_4917" data-name="Elipse 4917" cx="2.339" cy="2.339" rx="2.339" ry="2.339" fill="#555a66"/>
      </g>
      <g id="Grupo_153293" data-name="Grupo 153293" transform="translate(12.498)">
        <ellipse id="Elipse_4918" data-name="Elipse 4918" cx="2.339" cy="2.339" rx="2.339" ry="2.339" fill="#333940"/>
      </g>
    </g>
    <g id="Grupo_153295" data-name="Grupo 153295" transform="translate(988.66 10732.549)">
      <path id="Trazado_213190" data-name="Trazado 213190" d="M262.69,124h-1.866a8.582,8.582,0,0,1,2.759,4.4c.958,4.037.942,7.89,4.8,8.073,2.313.11,3.989,4.235,4.961,7.526l.889-6.865A11.643,11.643,0,0,0,262.69,124Z" transform="translate(-260.824 -124.003)" fill="#555a66"/>
    </g>
    <g id="perro" transform="translate(1086.602 10886.301)">
      <g id="XMLID_181_" transform="translate(0 0)">
        <g id="XMLID_182_" transform="translate(0 0)">
          <g id="XMLID_183_" transform="translate(0 0)">
            <g id="XMLID_184_">
              <g id="XMLID_185_">
                <g id="XMLID_186_">
                  <g id="XMLID_187_">
                    <g id="XMLID_188_">
                      <g id="XMLID_189_">
                        <g id="XMLID_190_">
                          <g id="XMLID_191_">
                            <g id="XMLID_192_">
                              <g id="XMLID_193_">
                                <g id="XMLID_194_">
                                  <ellipse id="XMLID_195_" cx="33" cy="32" rx="33" ry="32" transform="translate(0.398 0.199)" fill="#6ea9c7"/>
                                </g>
                              </g>
                            </g>
                          </g>
                        </g>
                      </g>
                    </g>
                  </g>
                </g>
              </g>
            </g>
          </g>
        </g>
      </g>
      <path id="Trazado_213191" data-name="Trazado 213191" d="M138.181,151.407a32.127,32.127,0,0,0-2.243-11.833l-3.258-3.222L87.746,139.9l-3.371,10.082,7.514,7.512,7.091,17.726,8.363,8.363A32.21,32.21,0,0,0,138.181,151.407Z" transform="translate(-73.343 -120.46)" fill="#3185af"/>
      <g id="Grupo_153304" data-name="Grupo 153304" transform="translate(5.369 11.082)">
        <g id="Grupo_153298" data-name="Grupo 153298">
          <g id="Grupo_153296" data-name="Grupo 153296">
            <path id="Trazado_213192" data-name="Trazado 213192" d="M123.436,105.523s-6.035-4.9-7.986-4.658-4.283,7.043-4.283,7.043,3.432,6.173,4.674,8.986Z" transform="translate(-102.134 -100.512)" fill="#b56f40"/>
            <path id="Trazado_213193" data-name="Trazado 213193" d="M54.285,98.874a4.984,4.984,0,0,0-4.343-.507,54.355,54.355,0,0,0-8.5,3.3c-2.6,1.292-2.6,3.744-.864,7.382,1.206,2.535,4.3,8.8,5.642,7.949.635-.4,4.387-10.95,5.161-13.013C52.017,102.282,54.045,99.588,54.285,98.874Z" transform="translate(-39.368 -98.119)" fill="#cc8656"/>
          </g>
          <g id="Grupo_153297" data-name="Grupo 153297" transform="translate(33.213)">
            <path id="Trazado_213194" data-name="Trazado 213194" d="M303.328,105.523s6.035-4.9,7.985-4.658,4.283,7.043,4.283,7.043-3.433,6.173-4.674,8.986Z" transform="translate(-303.328 -100.512)" fill="#a35d2e"/>
            <path id="Trazado_213195" data-name="Trazado 213195" d="M354.079,98.874a4.984,4.984,0,0,1,4.343-.507,54.358,54.358,0,0,1,8.5,3.3c2.6,1.292,2.6,3.744.864,7.382-1.206,2.535-4.3,8.8-5.642,7.949-.635-.4-4.387-10.95-5.161-13.013C356.347,102.282,354.319,99.588,354.079,98.874Z" transform="translate(-347.693 -98.119)" fill="#b56f40"/>
          </g>
        </g>
        <g id="Grupo_153302" data-name="Grupo 153302" transform="translate(11.548 2.79)">
          <path id="Trazado_213196" data-name="Trazado 213196" d="M172.032,145.934q-.249.516-.545,1.079c-4.437,8.438-2.834,16.235-13.8,16.235s-9.368-7.8-13.8-16.235q-.3-.564-.545-1.079a60.22,60.22,0,0,0,3.719-12.68c1.122-6.3,7.647-12.68,7.647-12.68a16.091,16.091,0,0,1,5.966,0s6.346,6.38,7.468,12.68A54.406,54.406,0,0,0,172.032,145.934Z" transform="translate(-141.8 -120.295)" fill="#fcf0e5"/>
          <path id="Trazado_213197" data-name="Trazado 213197" d="M270.523,145.938c-.166.345-.347.7-.545,1.08-4.438,8.438-2.835,16.235-13.805,16.235H256V120.3h.172a15.987,15.987,0,0,1,2.983.278s6.347,6.381,7.469,12.681A54.41,54.41,0,0,0,270.523,145.938Z" transform="translate(-240.291 -120.299)" fill="#eaddd3"/>
          <g id="Grupo_153299" data-name="Grupo 153299" transform="translate(10.384 28.58)">
            <path id="Trazado_213198" data-name="Trazado 213198" d="M219,347.437c-3.2,0-6,.2-5.18,3.911.533,2.4,3.921,4.116,5.18,4.116s4.647-1.715,5.18-4.116C225.006,347.633,222.2,347.437,219,347.437Z" transform="translate(-213.677 -347.437)" fill="#70695e"/>
          </g>
          <g id="Grupo_153300" data-name="Grupo 153300" transform="translate(15.709 28.58)">
            <path id="Trazado_213199" data-name="Trazado 213199" d="M261.18,351.351c-.532,2.4-3.922,4.116-5.18,4.116V347.44C259.195,347.44,262,347.635,261.18,351.351Z" transform="translate(-256 -347.44)" fill="#5b554a"/>
          </g>
          <g id="Grupo_153301" data-name="Grupo 153301" transform="translate(0 0.279)">
            <path id="Trazado_213200" data-name="Trazado 213200" d="M142.342,144.7c-2.464,1.56-7.1,2.7-9.659,3.169-3.568-7.372.038-7.7,1.334-14.965a12.269,12.269,0,0,1,10.205-10.4C144.578,128.1,146.543,142.044,142.342,144.7Z" transform="translate(-131.15 -122.511)" fill="#cc8656"/>
            <path id="Trazado_213201" data-name="Trazado 213201" d="M286.175,147.872c-2.554-.468-7.118-1.56-9.582-3.121-4.2-2.658-2.313-16.647-1.957-22.239a12.269,12.269,0,0,1,10.205,10.4C286.138,140.175,289.744,140.5,286.175,147.872Z" transform="translate(-255.944 -122.512)" fill="#b56f40"/>
          </g>
        </g>
        <g id="Grupo_153303" data-name="Grupo 153303" transform="translate(16.045 15.999)">
          <ellipse id="Elipse_4919" data-name="Elipse 4919" cx="2.02" cy="2.02" rx="2.02" ry="2.02" transform="translate(0 2.375) rotate(-35.851)" fill="#5b554a"/>
          <ellipse id="Elipse_4920" data-name="Elipse 4920" cx="2.02" cy="2.02" rx="2.02" ry="2.02" transform="translate(16.834 2.367) rotate(-35.851)" fill="#3a352e"/>
        </g>
      </g>
    </g>
    <g id="cow-2" data-name="cow" transform="translate(610 10781.311)">
      <g id="Grupo_153280-3" data-name="Grupo 153280" transform="translate(0 0)">
        <g id="Grupo_153279-3" data-name="Grupo 153279" transform="translate(0 0)">
          <g id="Grupo_153278-3" data-name="Grupo 153278">
            <g id="Grupo_153277-3" data-name="Grupo 153277">
              <g id="Grupo_153276-3" data-name="Grupo 153276">
                <g id="Grupo_153275-3" data-name="Grupo 153275">
                  <g id="Grupo_153274-3" data-name="Grupo 153274">
                    <ellipse id="Elipse_4914-3" data-name="Elipse 4914" cx="31.49" cy="31.49" rx="31.49" ry="31.49" fill="#6ea9c7"/>
                  </g>
                </g>
              </g>
            </g>
          </g>
        </g>
      </g>
      <path id="Trazado_213181-3" data-name="Trazado 213181" d="M155.253,88.6a32.136,32.136,0,0,0-.357-4.785L132.8,64.909l1.5,23.3-5.367-8.435L124.127,90l-5.67,4.983,2.962,6.616-7.687,12.457,7.687,6.364q.971.059,1.957.059A31.878,31.878,0,0,0,155.253,88.6Z" transform="translate(-91.469 -56.691)" fill="#3185af"/>
    </g>
    <g id="signo-de-interrogacion" transform="translate(618.79 10786.599)">
      <g id="Grupo_153266" data-name="Grupo 153266" transform="translate(0 0)">
        <g id="Grupo_153265" data-name="Grupo 153265" transform="translate(0 0)">
          <g id="Grupo_153264" data-name="Grupo 153264">
            <path id="Trazado_213151" data-name="Trazado 213151" d="M193.023,62.429l9.345-7.321,1.459-12.745-10.8-5.948-4.386,6.027a7.418,7.418,0,0,1-.85,13.627,10.529,10.529,0,0,0-6.985,9.924V67.91a4.517,4.517,0,0,0,4.516,4.517h6.606Z" transform="translate(-168.872 -32.63)" fill="#fe9738"/>
            <path id="Trazado_213152" data-name="Trazado 213152" d="M77.176,20.968H70.57a4.517,4.517,0,0,1-4.516-4.516A16.438,16.438,0,0,1,83.6.04h6.606l-4.7,4.746" transform="translate(-66.054 -0.005)" fill="#fe9738"/>
          </g>
          <path id="Trazado_213153" data-name="Trazado 213153" d="M191.923,424.763h-6.605a4.517,4.517,0,0,0-4.516,4.517v.037a4.516,4.516,0,0,0,4.516,4.516h5.8" transform="translate(-168.87 -380.598)" fill="#fe9738"/>
        </g>
      </g>
      <g id="Grupo_153272" data-name="Grupo 153272" transform="translate(6.605 0)">
        <g id="Grupo_153271" data-name="Grupo 153271" transform="translate(0 0)">
          <g id="Grupo_153268" data-name="Grupo 153268" transform="translate(0 0)">
            <g id="Grupo_153267" data-name="Grupo 153267">
              <path id="Trazado_213154" data-name="Trazado 213154" d="M146.031,39.8a4.516,4.516,0,0,1-4.516-4.516V33.369a10.526,10.526,0,0,1,6.986-9.923,7.416,7.416,0,1,0-9.812-8.034,7.547,7.547,0,0,0-.072,1.04,4.516,4.516,0,0,1-9.033,0,16.448,16.448,0,1,1,21.928,15.51,1.48,1.48,0,0,0-.964,1.407v1.916A4.517,4.517,0,0,1,146.031,39.8Z" transform="translate(-129.584 -0.005)" fill="#ffd15b"/>
            </g>
            <path id="Trazado_213155" data-name="Trazado 213155" d="M248.846,433.834a4.516,4.516,0,0,1-4.516-4.516v-.037a4.516,4.516,0,1,1,9.033,0v.037A4.516,4.516,0,0,1,248.846,433.834Z" transform="translate(-232.399 -380.6)" fill="#ffd15b"/>
          </g>
          <g id="Grupo_153270" data-name="Grupo 153270">
            <g id="Grupo_153269" data-name="Grupo 153269">
              <path id="Trazado_213156" data-name="Trazado 213156" d="M133.734,14.16a16.462,16.462,0,0,0-.158,2.288A4.513,4.513,0,0,0,136.1,20.5a4.517,4.517,0,0,1-6.513-4.052A16.451,16.451,0,0,1,147.13.036q.46.03.914.088A16.523,16.523,0,0,0,133.734,14.16Z" transform="translate(-129.583 0)" fill="#ffc344"/>
              <path id="Trazado_213157" data-name="Trazado 213157" d="M255.316,101.291a10.53,10.53,0,0,0-6.987,9.924v1.915a4.515,4.515,0,0,0,2.522,4.052,4.517,4.517,0,0,1-6.513-4.052v-1.915a10.527,10.527,0,0,1,6.987-9.924,7.417,7.417,0,0,0-.46-14.131,7.412,7.412,0,0,1,4.451,14.131Z" transform="translate(-232.407 -77.851)" fill="#ffc344"/>
            </g>
            <path id="Trazado_213158" data-name="Trazado 213158" d="M250.851,433.36a4.517,4.517,0,0,1-6.513-4.051v-.039a4.517,4.517,0,0,1,6.513-4.051,4.52,4.52,0,0,0-2.522,4.052v.038A4.515,4.515,0,0,0,250.851,433.36Z" transform="translate(-232.406 -380.59)" fill="#ffc344"/>
          </g>
        </g>
      </g>
    </g>
    <path id="Trazado_599609" data-name="Trazado 599609" d="M0,0H211V25H0Z" transform="translate(454 10597.5)" fill="#3185af"/>
    <path id="Trazado_600013" data-name="Trazado 600013" d="M10.266,15H7.922L3.359,7.516V15H1.016V3.625H3.359l4.57,7.5v-7.5h2.336Zm4.281,0H12.281V6.547h2.266Zm-2.4-10.641a1.112,1.112,0,0,1,.34-.836,1.465,1.465,0,0,1,1.848,0,1.105,1.105,0,0,1,.344.836,1.108,1.108,0,0,1-.348.844,1.448,1.448,0,0,1-1.836,0A1.108,1.108,0,0,1,12.148,4.359Zm7.422,7.883,1.57-5.7H23.5L20.648,15H18.492L15.641,6.547H18Zm8.711,2.914a4.15,4.15,0,0,1-3.027-1.141,4.054,4.054,0,0,1-1.168-3.039v-.219a5.106,5.106,0,0,1,.492-2.277,3.612,3.612,0,0,1,1.395-1.547,3.914,3.914,0,0,1,2.059-.543,3.508,3.508,0,0,1,2.73,1.094,4.444,4.444,0,0,1,1,3.1v.922H26.375a2.1,2.1,0,0,0,.66,1.328,2,2,0,0,0,1.395.5,2.437,2.437,0,0,0,2.039-.945l1.109,1.242A3.389,3.389,0,0,1,30.2,14.754,4.511,4.511,0,0,1,28.281,15.156Zm-.258-6.945a1.411,1.411,0,0,0-1.09.455,2.357,2.357,0,0,0-.535,1.3h3.141V9.788a1.681,1.681,0,0,0-.406-1.165A1.456,1.456,0,0,0,28.023,8.211ZM35.422,15H33.156V3h2.266Zm5.492-4.289A5.094,5.094,0,0,1,41.8,7.563a2.877,2.877,0,0,1,2.426-1.172,2.589,2.589,0,0,1,2.039.922V3h2.266V15H46.492l-.109-.9a2.657,2.657,0,0,1-2.172,1.055,2.869,2.869,0,0,1-2.395-1.176A5.258,5.258,0,0,1,40.914,10.711Zm2.258.161a3.355,3.355,0,0,0,.414,1.829,1.348,1.348,0,0,0,1.2.636,1.51,1.51,0,0,0,1.477-.887V9.1A1.489,1.489,0,0,0,44.8,8.211Q43.172,8.211,43.172,10.872Zm11,4.285a4.15,4.15,0,0,1-3.027-1.141,4.054,4.054,0,0,1-1.168-3.039v-.219a5.106,5.106,0,0,1,.492-2.277,3.612,3.612,0,0,1,1.395-1.547,3.914,3.914,0,0,1,2.059-.543,3.508,3.508,0,0,1,2.73,1.094,4.444,4.444,0,0,1,1,3.1v.922H52.266a2.1,2.1,0,0,0,.66,1.328,2,2,0,0,0,1.395.5,2.437,2.437,0,0,0,2.039-.945l1.109,1.242a3.389,3.389,0,0,1-1.375,1.121A4.511,4.511,0,0,1,54.172,15.156Zm-.258-6.945a1.411,1.411,0,0,0-1.09.455,2.357,2.357,0,0,0-.535,1.3H55.43V9.788a1.681,1.681,0,0,0-.406-1.165A1.456,1.456,0,0,0,53.914,8.211Zm12.164,4.031,1.57-5.7h2.359L67.156,15H65L62.148,6.547h2.359Zm8.711,2.914a4.15,4.15,0,0,1-3.027-1.141,4.054,4.054,0,0,1-1.168-3.039v-.219a5.106,5.106,0,0,1,.492-2.277A3.612,3.612,0,0,1,72.48,6.934a3.914,3.914,0,0,1,2.059-.543,3.508,3.508,0,0,1,2.73,1.094,4.444,4.444,0,0,1,1,3.1v.922H72.883a2.1,2.1,0,0,0,.66,1.328,2,2,0,0,0,1.395.5,2.437,2.437,0,0,0,2.039-.945l1.109,1.242a3.389,3.389,0,0,1-1.375,1.121A4.511,4.511,0,0,1,74.789,15.156Zm-.258-6.945a1.411,1.411,0,0,0-1.09.455,2.357,2.357,0,0,0-.535,1.3h3.141V9.788a1.681,1.681,0,0,0-.406-1.165A1.456,1.456,0,0,0,74.531,8.211Zm7.094-1.664.07.977a2.951,2.951,0,0,1,2.43-1.133,2.453,2.453,0,0,1,2,.789A3.682,3.682,0,0,1,86.8,9.539V15H84.539V9.581a1.47,1.47,0,0,0-.312-1.045,1.4,1.4,0,0,0-1.039-.325,1.553,1.553,0,0,0-1.43.814V15H79.5V6.547Zm9.586-2.078V6.547h1.445V8.2H91.211v4.219a1.007,1.007,0,0,0,.18.672.9.9,0,0,0,.688.2,3.6,3.6,0,0,0,.664-.055v1.711a4.648,4.648,0,0,1-1.367.2,2.156,2.156,0,0,1-2.422-2.4V8.2H87.719V6.547h1.234V4.469ZM98.813,15a2.507,2.507,0,0,1-.227-.758,2.732,2.732,0,0,1-2.133.914,3,3,0,0,1-2.059-.719,2.312,2.312,0,0,1-.816-1.812,2.389,2.389,0,0,1,1-2.062,4.915,4.915,0,0,1,2.879-.727h1.039V9.352a1.393,1.393,0,0,0-.3-.937,1.183,1.183,0,0,0-.949-.352,1.345,1.345,0,0,0-.895.273.929.929,0,0,0-.324.75H93.766a2.268,2.268,0,0,1,.453-1.359,3,3,0,0,1,1.281-.98,4.669,4.669,0,0,1,1.859-.355,3.689,3.689,0,0,1,2.48.785,2.747,2.747,0,0,1,.918,2.207v3.664a4.041,4.041,0,0,0,.336,1.82V15Zm-1.867-1.57a1.945,1.945,0,0,0,.922-.223,1.462,1.462,0,0,0,.625-.6V11.156h-.844q-1.7,0-1.8,1.172l-.008.133a.9.9,0,0,0,.3.7A1.153,1.153,0,0,0,96.945,13.43Zm10.125-.766a.727.727,0,0,0-.41-.652,4.659,4.659,0,0,0-1.316-.426q-3.016-.633-3.016-2.562a2.323,2.323,0,0,1,.934-1.879,3.766,3.766,0,0,1,2.441-.754,4.053,4.053,0,0,1,2.574.758,2.388,2.388,0,0,1,.965,1.969h-2.258a1.092,1.092,0,0,0-.312-.8A1.322,1.322,0,0,0,105.7,8a1.351,1.351,0,0,0-.883.258.814.814,0,0,0-.312.656.7.7,0,0,0,.355.605,3.657,3.657,0,0,0,1.2.4,9.8,9.8,0,0,1,1.422.379,2.336,2.336,0,0,1,1.789,2.273,2.2,2.2,0,0,1-.992,1.871,4.28,4.28,0,0,1-2.562.715,4.47,4.47,0,0,1-1.887-.379,3.166,3.166,0,0,1-1.293-1.039,2.414,2.414,0,0,1-.469-1.426H104.2a1.179,1.179,0,0,0,.445.922,1.766,1.766,0,0,0,1.109.32,1.635,1.635,0,0,0,.98-.246A.766.766,0,0,0,107.07,12.664Z" transform="translate(505 10600.5)" fill="#fff"/>
    <path id="Trazado_218940" data-name="Trazado 218940" d="M-6079.562-69.818h-652.046V-514.049" transform="translate(7289.563 11135.423)" fill="none" stroke="#3185af" stroke-width="2"/>
    <path id="Trazado_599610" data-name="Trazado 599610" d="M0,0H52.069V2.955H0Z" transform="translate(400.465 11117.045)" fill="#3185af"/>
    <path id="Trazado_600014" data-name="Trazado 600014" d="M3.508,15H1.164V3.625H3.508Zm4.1-8.453.07.977a2.951,2.951,0,0,1,2.43-1.133,2.453,2.453,0,0,1,2,.789,3.682,3.682,0,0,1,.672,2.359V15H10.523V9.581a1.47,1.47,0,0,0-.312-1.045,1.4,1.4,0,0,0-1.039-.325,1.553,1.553,0,0,0-1.43.814V15H5.484V6.547Zm10.047,5.7,1.57-5.7h2.359L18.734,15H16.578L13.727,6.547h2.359Zm8.711,2.914a4.15,4.15,0,0,1-3.027-1.141,4.054,4.054,0,0,1-1.168-3.039v-.219a5.106,5.106,0,0,1,.492-2.277,3.612,3.612,0,0,1,1.395-1.547,3.914,3.914,0,0,1,2.059-.543,3.508,3.508,0,0,1,2.73,1.094,4.444,4.444,0,0,1,1,3.1v.922H24.461a2.1,2.1,0,0,0,.66,1.328,2,2,0,0,0,1.395.5,2.437,2.437,0,0,0,2.039-.945l1.109,1.242a3.389,3.389,0,0,1-1.375,1.121A4.511,4.511,0,0,1,26.367,15.156Zm-.258-6.945a1.411,1.411,0,0,0-1.09.455,2.357,2.357,0,0,0-.535,1.3h3.141V9.788a1.681,1.681,0,0,0-.406-1.165A1.456,1.456,0,0,0,26.109,8.211Zm9.766.453a6.134,6.134,0,0,0-.812-.062,1.654,1.654,0,0,0-1.68.867V15H31.125V6.547h2.133l.063,1.008A2.092,2.092,0,0,1,35.2,6.391a2.366,2.366,0,0,1,.7.1Zm5.664,4a.727.727,0,0,0-.41-.652,4.659,4.659,0,0,0-1.316-.426Q36.8,10.953,36.8,9.023a2.323,2.323,0,0,1,.934-1.879,3.766,3.766,0,0,1,2.441-.754,4.053,4.053,0,0,1,2.574.758,2.388,2.388,0,0,1,.965,1.969H41.453a1.092,1.092,0,0,0-.312-.8A1.322,1.322,0,0,0,40.164,8a1.351,1.351,0,0,0-.883.258.814.814,0,0,0-.312.656.7.7,0,0,0,.355.605,3.657,3.657,0,0,0,1.2.4,9.8,9.8,0,0,1,1.422.379,2.336,2.336,0,0,1,1.789,2.273,2.2,2.2,0,0,1-.992,1.871,4.28,4.28,0,0,1-2.562.715,4.47,4.47,0,0,1-1.887-.379A3.166,3.166,0,0,1,37,13.738a2.414,2.414,0,0,1-.469-1.426h2.141a1.179,1.179,0,0,0,.445.922,1.766,1.766,0,0,0,1.109.32,1.635,1.635,0,0,0,.98-.246A.766.766,0,0,0,41.539,12.664ZM47.57,15H45.3V6.547H47.57Zm-2.4-10.641a1.112,1.112,0,0,1,.34-.836,1.465,1.465,0,0,1,1.848,0,1.105,1.105,0,0,1,.344.836,1.108,1.108,0,0,1-.348.844,1.448,1.448,0,0,1-1.836,0A1.108,1.108,0,0,1,45.172,4.359ZM49.078,10.7a5.013,5.013,0,0,1,.484-2.242A3.546,3.546,0,0,1,50.957,6.93a4.069,4.069,0,0,1,2.113-.539,3.849,3.849,0,0,1,2.793,1.047,4.2,4.2,0,0,1,1.207,2.844l.016.578A4.418,4.418,0,0,1,56,13.98a4.209,4.209,0,0,1-5.832,0,4.5,4.5,0,0,1-1.09-3.187Zm2.258.16a3.16,3.16,0,0,0,.453,1.843,1.628,1.628,0,0,0,2.578.008,3.457,3.457,0,0,0,.461-2.015,3.128,3.128,0,0,0-.461-1.831,1.5,1.5,0,0,0-1.3-.649,1.474,1.474,0,0,0-1.281.646A3.516,3.516,0,0,0,51.336,10.856ZM53.516,3h2.461L53.813,5.422H51.977Zm7.039,3.547.07.977a2.951,2.951,0,0,1,2.43-1.133,2.453,2.453,0,0,1,2,.789,3.682,3.682,0,0,1,.672,2.359V15H63.469V9.581a1.47,1.47,0,0,0-.312-1.045,1.4,1.4,0,0,0-1.039-.325,1.553,1.553,0,0,0-1.43.814V15H58.43V6.547Z" transform="translate(464.535 11107.545)" fill="#24769f"/>
    <path id="Trazado_599608" data-name="Trazado 599608" d="M737.895,9526.869c10.143-16.289,132.332-195.808,215.059-210.058s165.237,37.285,318.682,164.107" transform="translate(-105 1534.697)" fill="none" stroke="#f3ab1d" stroke-width="4"/>
    <path id="Trazado_600015" data-name="Trazado 600015" d="M44.783,11.974a4.277,4.277,0,0,1-1.44,3.071,5.058,5.058,0,0,1-3.424,1.121A4.548,4.548,0,0,1,36.262,14.6a6.416,6.416,0,0,1-1.332-4.3V9.567A7.245,7.245,0,0,1,35.544,6.5,4.6,4.6,0,0,1,37.3,4.458a5.486,5.486,0,0,1,6.022.411A4.6,4.6,0,0,1,44.8,8.015h-2.49a2.524,2.524,0,0,0-.652-1.7,2.413,2.413,0,0,0-1.706-.527,2.116,2.116,0,0,0-1.864.892,5,5,0,0,0-.635,2.768v.913a5.352,5.352,0,0,0,.594,2.864,2.077,2.077,0,0,0,1.872.9,2.458,2.458,0,0,0,1.722-.527,2.381,2.381,0,0,0,.652-1.631Zm6.856,3.113a3.008,3.008,0,0,1-2.457,1.079,2.837,2.837,0,0,1-2.2-.83A3.543,3.543,0,0,1,46.2,12.9V7.019h2.4v5.809q0,1.4,1.278,1.4a1.732,1.732,0,0,0,1.677-.848V7.019h2.407V16H51.706ZM60.82,9.268a6.517,6.517,0,0,0-.863-.066,1.757,1.757,0,0,0-1.785.921V16h-2.4V7.019h2.266l.066,1.071a2.223,2.223,0,0,1,2-1.237,2.514,2.514,0,0,1,.747.108Zm4.665,3.8,1.668-6.051H69.66L66.63,16H64.339L61.31,7.019h2.507ZM75.794,16a2.664,2.664,0,0,1-.241-.805,2.9,2.9,0,0,1-2.266.971A3.189,3.189,0,0,1,71.1,15.4a2.456,2.456,0,0,1-.867-1.926,2.538,2.538,0,0,1,1.058-2.191,5.222,5.222,0,0,1,3.059-.772h1.1V10a1.48,1.48,0,0,0-.32-1,1.257,1.257,0,0,0-1.009-.374,1.429,1.429,0,0,0-.95.291.987.987,0,0,0-.344.8h-2.4a2.41,2.41,0,0,1,.481-1.444A3.182,3.182,0,0,1,72.275,7.23a4.961,4.961,0,0,1,1.976-.378,3.92,3.92,0,0,1,2.635.834,2.918,2.918,0,0,1,.975,2.345v3.893a4.294,4.294,0,0,0,.357,1.934V16Zm-1.984-1.668a2.066,2.066,0,0,0,.979-.237,1.554,1.554,0,0,0,.664-.635V11.916h-.9q-1.8,0-1.917,1.245l-.008.141a.96.96,0,0,0,.315.739A1.225,1.225,0,0,0,73.811,14.332Zm9.753-2.889A5.413,5.413,0,0,1,84.506,8.1a3.057,3.057,0,0,1,2.577-1.245,2.751,2.751,0,0,1,2.167.979V3.25h2.407V16H89.491l-.116-.955a2.823,2.823,0,0,1-2.308,1.121,3.049,3.049,0,0,1-2.544-1.249A5.587,5.587,0,0,1,83.564,11.443Zm2.4.171a3.565,3.565,0,0,0,.44,1.943,1.432,1.432,0,0,0,1.278.675,1.6,1.6,0,0,0,1.569-.942V9.729A1.582,1.582,0,0,0,87.7,8.787Q85.963,8.787,85.963,11.614ZM97.65,16.166a4.409,4.409,0,0,1-3.217-1.212,4.308,4.308,0,0,1-1.241-3.229v-.232a5.426,5.426,0,0,1,.523-2.42A3.838,3.838,0,0,1,95.2,7.429a4.159,4.159,0,0,1,2.187-.577,3.727,3.727,0,0,1,2.9,1.162,4.722,4.722,0,0,1,1.058,3.3v.979H95.625a2.229,2.229,0,0,0,.7,1.411,2.12,2.12,0,0,0,1.482.531,2.589,2.589,0,0,0,2.167-1l1.179,1.32a3.6,3.6,0,0,1-1.461,1.191A4.793,4.793,0,0,1,97.65,16.166Zm-.274-7.379a1.5,1.5,0,0,0-1.158.484,2.5,2.5,0,0,0-.569,1.384h3.337v-.192a1.786,1.786,0,0,0-.432-1.238A1.547,1.547,0,0,0,97.376,8.787ZM34.693,33.592a5.439,5.439,0,0,1-.921,3.366A3.052,3.052,0,0,1,31.2,38.166a2.8,2.8,0,0,1-2.333-1.121L28.758,38H26.6V25.25H29v4.574a2.732,2.732,0,0,1,2.183-.971,3.077,3.077,0,0,1,2.577,1.208,5.446,5.446,0,0,1,.934,3.4Zm-2.4-.183a3.593,3.593,0,0,0-.432-1.994,1.458,1.458,0,0,0-1.287-.629A1.582,1.582,0,0,0,29,31.727v3.555a1.6,1.6,0,0,0,1.594.949,1.482,1.482,0,0,0,1.527-1.149A5.944,5.944,0,0,0,32.294,33.409Zm8.01,4.757a4.409,4.409,0,0,1-3.217-1.212,4.308,4.308,0,0,1-1.241-3.229v-.232a5.426,5.426,0,0,1,.523-2.42,3.838,3.838,0,0,1,1.482-1.644,4.159,4.159,0,0,1,2.187-.577,3.727,3.727,0,0,1,2.9,1.162A4.722,4.722,0,0,1,44,33.31v.979H38.279a2.229,2.229,0,0,0,.7,1.411,2.12,2.12,0,0,0,1.482.531,2.589,2.589,0,0,0,2.167-1l1.179,1.32a3.6,3.6,0,0,1-1.461,1.191A4.793,4.793,0,0,1,40.3,38.166Zm-.274-7.379a1.5,1.5,0,0,0-1.158.484,2.5,2.5,0,0,0-.569,1.384h3.337v-.192a1.786,1.786,0,0,0-.432-1.238A1.547,1.547,0,0,0,40.031,30.787Zm7.537-1.768.075,1.038a3.136,3.136,0,0,1,2.582-1.2,2.606,2.606,0,0,1,2.125.838,3.912,3.912,0,0,1,.714,2.507V38h-2.4V32.243a1.562,1.562,0,0,0-.332-1.111,1.484,1.484,0,0,0-1.1-.345,1.65,1.65,0,0,0-1.519.865V38h-2.4V29.019Zm11.447,9.147A4.409,4.409,0,0,1,55.8,36.954a4.308,4.308,0,0,1-1.241-3.229v-.232a5.426,5.426,0,0,1,.523-2.42,3.838,3.838,0,0,1,1.482-1.644,4.159,4.159,0,0,1,2.187-.577,3.727,3.727,0,0,1,2.9,1.162,4.722,4.722,0,0,1,1.058,3.3v.979H56.989a2.229,2.229,0,0,0,.7,1.411,2.12,2.12,0,0,0,1.482.531,2.589,2.589,0,0,0,2.167-1l1.179,1.32a3.6,3.6,0,0,1-1.461,1.191A4.793,4.793,0,0,1,59.014,38.166Zm-.274-7.379a1.5,1.5,0,0,0-1.158.484,2.5,2.5,0,0,0-.569,1.384h3.337v-.192a1.786,1.786,0,0,0-.432-1.238A1.547,1.547,0,0,0,58.74,30.787ZM64.651,38V30.778H63.314v-1.76h1.336V28.6a3.368,3.368,0,0,1,1.042-2.611,4.191,4.191,0,0,1,2.893-.917,9.6,9.6,0,0,1,2.723.49l-.349,1.984a10.622,10.622,0,0,0-1.262-.311,6.2,6.2,0,0,0-.963-.071q-1.677,0-1.677,1.486v.365h1.768v1.76H67.058V38Zm7.778,0H70.021V29.019h2.407Zm5.719-1.768a1.573,1.573,0,0,0,1.079-.365,1.28,1.28,0,0,0,.432-.971h2.25a3.077,3.077,0,0,1-.5,1.673,3.286,3.286,0,0,1-1.341,1.179,4.2,4.2,0,0,1-1.88.419,3.9,3.9,0,0,1-3.038-1.224,4.845,4.845,0,0,1-1.112-3.383V33.4a4.79,4.79,0,0,1,1.1-3.312,3.854,3.854,0,0,1,3.03-1.237,3.778,3.778,0,0,1,2.7.959,3.4,3.4,0,0,1,1.033,2.552h-2.25a1.648,1.648,0,0,0-.432-1.139,1.6,1.6,0,0,0-2.362.173,3.541,3.541,0,0,0-.427,1.983v.249a3.586,3.586,0,0,0,.423,2A1.463,1.463,0,0,0,78.148,36.232ZM85.809,38H83.4V29.019h2.407ZM83.261,26.694a1.181,1.181,0,0,1,.361-.888,1.556,1.556,0,0,1,1.963,0,1.268,1.268,0,0,1,0,1.785,1.539,1.539,0,0,1-1.951,0A1.178,1.178,0,0,1,83.261,26.694Zm4.15,6.732a5.326,5.326,0,0,1,.515-2.382,3.768,3.768,0,0,1,1.482-1.619,4.323,4.323,0,0,1,2.245-.573,4.09,4.09,0,0,1,2.968,1.112A4.464,4.464,0,0,1,95.9,32.986l.017.614a4.694,4.694,0,0,1-1.154,3.316,4.472,4.472,0,0,1-6.2,0,4.777,4.777,0,0,1-1.158-3.387Zm2.4.17a3.357,3.357,0,0,0,.481,1.958,1.73,1.73,0,0,0,2.739.008,3.674,3.674,0,0,0,.49-2.141,3.324,3.324,0,0,0-.49-1.945,1.592,1.592,0,0,0-1.378-.69,1.566,1.566,0,0,0-1.361.686A3.736,3.736,0,0,0,89.81,33.6Zm11.447-.17a5.326,5.326,0,0,1,.515-2.382,3.768,3.768,0,0,1,1.482-1.619,4.323,4.323,0,0,1,2.245-.573,4.09,4.09,0,0,1,2.968,1.112,4.464,4.464,0,0,1,1.282,3.021l.017.614a4.694,4.694,0,0,1-1.154,3.316,4.472,4.472,0,0,1-6.2,0,4.777,4.777,0,0,1-1.158-3.387Zm2.4.17a3.357,3.357,0,0,0,.481,1.958,1.73,1.73,0,0,0,2.739.008,3.674,3.674,0,0,0,.49-2.141,3.324,3.324,0,0,0-.49-1.945,1.592,1.592,0,0,0-1.378-.69,1.566,1.566,0,0,0-1.361.686A3.736,3.736,0,0,0,103.656,33.6ZM45.775,59.087a3.008,3.008,0,0,1-2.457,1.079,2.837,2.837,0,0,1-2.2-.83,3.543,3.543,0,0,1-.776-2.432V51.019h2.4v5.809q0,1.4,1.278,1.4a1.732,1.732,0,0,0,1.677-.848V51.019H48.1V60H45.841Zm7.006-10.276v2.208h1.536v1.76H52.781v4.482a1.07,1.07,0,0,0,.191.714.959.959,0,0,0,.73.216,3.826,3.826,0,0,0,.706-.058V59.95a4.939,4.939,0,0,1-1.453.216,2.29,2.29,0,0,1-2.573-2.548V52.778H49.07v-1.76h1.312V48.811ZM58.184,60H55.777V51.019h2.407ZM55.636,48.694A1.181,1.181,0,0,1,56,47.806a1.556,1.556,0,0,1,1.963,0,1.268,1.268,0,0,1,0,1.785,1.539,1.539,0,0,1-1.951,0A1.178,1.178,0,0,1,55.636,48.694ZM62.692,60H60.284V47.25h2.407ZM67.2,60H64.792V51.019H67.2ZM64.651,48.694a1.181,1.181,0,0,1,.361-.888,1.556,1.556,0,0,1,1.963,0,1.268,1.268,0,0,1,0,1.785,1.539,1.539,0,0,1-1.951,0A1.178,1.178,0,0,1,64.651,48.694Zm4.15,6.749a5.413,5.413,0,0,1,.942-3.345,3.057,3.057,0,0,1,2.577-1.245,2.751,2.751,0,0,1,2.167.979V47.25h2.407V60H74.728l-.116-.955A2.823,2.823,0,0,1,72.3,60.166a3.049,3.049,0,0,1-2.544-1.249A5.587,5.587,0,0,1,68.8,55.443Zm2.4.171a3.565,3.565,0,0,0,.44,1.943,1.432,1.432,0,0,0,1.278.675,1.6,1.6,0,0,0,1.569-.942V53.729a1.582,1.582,0,0,0-1.552-.942Q71.2,52.787,71.2,55.614ZM83.958,60a2.664,2.664,0,0,1-.241-.805,2.9,2.9,0,0,1-2.266.971,3.189,3.189,0,0,1-2.187-.764,2.456,2.456,0,0,1-.867-1.926,2.538,2.538,0,0,1,1.058-2.191,5.222,5.222,0,0,1,3.059-.772h1.1V54a1.48,1.48,0,0,0-.32-1,1.257,1.257,0,0,0-1.009-.374,1.429,1.429,0,0,0-.95.291.987.987,0,0,0-.344.8H78.6a2.41,2.41,0,0,1,.481-1.444,3.182,3.182,0,0,1,1.361-1.042,4.961,4.961,0,0,1,1.976-.378,3.92,3.92,0,0,1,2.635.834,2.918,2.918,0,0,1,.975,2.345v3.893a4.294,4.294,0,0,0,.357,1.934V60Zm-1.984-1.668a2.066,2.066,0,0,0,.979-.237,1.554,1.554,0,0,0,.664-.635V55.916h-.9q-1.8,0-1.917,1.245L80.8,57.3a.96.96,0,0,0,.315.739A1.225,1.225,0,0,0,81.974,58.332Zm5.52-2.889a5.413,5.413,0,0,1,.942-3.345,3.057,3.057,0,0,1,2.577-1.245,2.751,2.751,0,0,1,2.167.979V47.25h2.407V60H93.421l-.116-.955A2.823,2.823,0,0,1,91,60.166a3.049,3.049,0,0,1-2.544-1.249A5.587,5.587,0,0,1,87.494,55.443Zm2.4.171a3.565,3.565,0,0,0,.44,1.943,1.432,1.432,0,0,0,1.278.675,1.6,1.6,0,0,0,1.569-.942V53.729a1.582,1.582,0,0,0-1.552-.942Q89.893,52.787,89.893,55.614Z" transform="translate(895 10903.057)" fill="#12263f"/>
  </g>
</svg>
