<svg xmlns="http://www.w3.org/2000/svg" xmlns:xlink="http://www.w3.org/1999/xlink" width="85" height="85" viewBox="0 0 85 85">
  <defs>
    <linearGradient id="linear-gradient" x1="0.5" x2="0.5" y2="1" gradientUnits="objectBoundingBox">
      <stop offset="0" stop-color="#3185af"/>
      <stop offset="1" stop-color="#0c5376"/>
    </linearGradient>
  </defs>
  <g id="Grupo_876052" data-name="Grupo 876052" transform="translate(-285 -12594)">
    <circle id="Elipse_5594" data-name="Elipse 5594" cx="42.5" cy="42.5" r="42.5" transform="translate(285 12594)" fill="url(#linear-gradient)"/>
    <g id="juventud_1_" data-name="juventud(1)" transform="translate(266.873 12598)">
      <path id="Trazado_599710" data-name="Trazado 599710" d="M180.045,106.639h-2.308l-.142.152v1.36a2.693,2.693,0,0,1-1.8,2.463c-1.482.764-1.928,5.1.859,6.516l.792.12,5.544-2.146V111.96Z" transform="translate(-125.592 -91.502)" fill="#365e7d"/>
      <path id="Trazado_599711" data-name="Trazado 599711" d="M179.635,110.614a3.041,3.041,0,0,0,1.68-1.684l-1.269-2.291h-2.308l-.142.152v1.36a2.693,2.693,0,0,1-1.8,2.463c-1.482.764-1.928,5.1.859,6.516l.792.12,2.109-.816C177.844,114.635,178.348,111.278,179.635,110.614Z" transform="translate(-125.592 -91.502)" fill="#2b4d66"/>
      <path id="Trazado_599712" data-name="Trazado 599712" d="M285.367,110.109a2.692,2.692,0,0,1-1.8-2.463v-1.382l-.226-.214h-2.421l-2.781,5.622v2.845l5.723,2.227.532-.161C287.126,115.13,286.835,110.866,285.367,110.109Z" transform="translate(-214.416 -90.997)" fill="#365e7d"/>
      <path id="Trazado_599713" data-name="Trazado 599713" d="M171.026,173.413l-6.811-2.638-.608.269H153.094l-.751-.266-6.8,2.634a5.857,5.857,0,0,0-3.421,5.306v9.561h32.319v-9.561a5.838,5.838,0,0,0-3.42-5.306Z" transform="translate(-97.708 -146.534)" fill="#ff7f87"/>
      <path id="Trazado_599714" data-name="Trazado 599714" d="M301.371,78.475l-.191-.192H298.9v4l.126.26h1.721a2.08,2.08,0,0,0,.624-4.063Z" transform="translate(-232.228 -67.171)" fill="#ffcebe"/>
      <path id="Trazado_599715" data-name="Trazado 599715" d="M186.368,78.382v0a2.078,2.078,0,0,0,.559,4.081h1.8l.2-.23V78.2h-2.406Z" transform="translate(-134.365 -67.097)" fill="#ffcebe"/>
      <path id="Trazado_599716" data-name="Trazado 599716" d="M300.938,78.283H298.9v4l.126.26h1.721c.064,0,.127,0,.19-.01V78.283Z" transform="translate(-232.229 -67.171)" fill="#ffb1a0"/>
      <path id="Trazado_599717" data-name="Trazado 599717" d="M186.886,80.386a2.078,2.078,0,0,1,1.521-2v0l.147-.185h-2.037l-.147.185v0a2.078,2.078,0,0,0,.559,4.081h1.8l.011-.013A2.079,2.079,0,0,1,186.886,80.386Z" transform="translate(-134.366 -67.098)" fill="#ffb1a0"/>
      <path id="Trazado_599718" data-name="Trazado 599718" d="M223.942,147.126a.633.633,0,0,1-.4-.588l0-2.119-.278-.291h-6.394l-.324.3v2.1c0,.484-.432.6-.616.672l-1.827.708a6.238,6.238,0,0,0,11.872,0Z" transform="translate(-159.462 -123.67)" fill="#ffcebe"/>
      <path id="Trazado_599719" data-name="Trazado 599719" d="M220.041,144.128h-3.177l-.324.3v2.1c0,.484-.432.6-.616.672l-1.827.708a6.145,6.145,0,0,0,5.944,4.316Z" transform="translate(-159.462 -123.67)" fill="#ffb1a0"/>
      <path id="Trazado_599720" data-name="Trazado 599720" d="M246.045,59.141h-2.731l-2.146-2.666h-1.279L237.9,58.63v5.5a6.3,6.3,0,0,0,4.179,5.941,6.227,6.227,0,0,0,4.606-5.993V59.667Z" transform="translate(-179.887 -48.459)" fill="#ffdecf"/>
      <path id="Trazado_599721" data-name="Trazado 599721" d="M215.956,76.207V70.543l-.758.821h-2.767l-.276.374v4.468a6.136,6.136,0,0,0,6.283,6.131,6,6,0,0,0,1.852-.286,6.091,6.091,0,0,1-4.335-5.845Z" transform="translate(-157.797 -60.53)" fill="#ffcebe"/>
      <path id="Trazado_599722" data-name="Trazado 599722" d="M204.021,0a8.658,8.658,0,0,0-8.462,8.7v2.584a2.076,2.076,0,0,1,.559-.078h3.423c.212,0,1.4-.1,1.317-.09a3.615,3.615,0,0,0,3.174-2.738.1.1,0,0,1,.2,0,3.61,3.61,0,0,0,3.14,2.732c1.08.092,1.095.1,1.29.1h3.409a2.08,2.08,0,0,1,.635.1V8.575A8.576,8.576,0,0,0,204.021,0Z" transform="translate(-143.556)" fill="#365e7d"/>
      <g id="Grupo_875973" data-name="Grupo 875973" transform="translate(52.003 0)">
        <path id="Trazado_599723" data-name="Trazado 599723" d="M199.4,8.7A8.7,8.7,0,0,1,206.059.219a8.575,8.575,0,0,0-10.5,8.484v2.584a2.076,2.076,0,0,1,.559-.078H199.4Z" transform="translate(-195.559 0)" fill="#2b4d66"/>
      </g>
      <path id="Trazado_599724" data-name="Trazado 599724" d="M293.974,223.72h-2.309l-.142.152v1.36a2.693,2.693,0,0,1-1.8,2.463c-1.482.764-1.928,5.1.859,6.516l.792.12,5.544-2.146v-3.143Z" transform="translate(-223.349 -191.964)" fill="#365e7d"/>
      <path id="Trazado_599725" data-name="Trazado 599725" d="M293.564,227.7a3.041,3.041,0,0,0,1.68-1.684l-1.269-2.291h-2.309l-.142.152v1.36a2.693,2.693,0,0,1-1.8,2.463c-1.482.764-1.928,5.1.859,6.516l.792.12,2.109-.816C291.773,231.716,292.277,228.359,293.564,227.7Z" transform="translate(-223.349 -191.964)" fill="#2b4d66"/>
      <path id="Trazado_599726" data-name="Trazado 599726" d="M399.3,227.19a2.692,2.692,0,0,1-1.8-2.463v-1.382l-.226-.214h-2.421l-2.781,5.622V231.6l5.723,2.227.532-.161C401.055,232.211,400.764,227.947,399.3,227.19Z" transform="translate(-312.173 -191.458)" fill="#365e7d"/>
      <path id="Trazado_599727" data-name="Trazado 599727" d="M284.955,290.494l-6.811-2.638-.608.269H267.023l-.751-.266-6.8,2.634a5.857,5.857,0,0,0-3.421,5.306v7.392H282.52v-4.07h5.855V295.8a5.838,5.838,0,0,0-3.421-5.305Z" transform="translate(-195.465 -246.996)" fill="#ffd064"/>
      <path id="Trazado_599728" data-name="Trazado 599728" d="M415.3,195.556l-.191-.192h-2.28v4l.126.26h1.721a2.08,2.08,0,0,0,.624-4.063Z" transform="translate(-329.986 -167.633)" fill="#ffcebe"/>
      <path id="Trazado_599729" data-name="Trazado 599729" d="M300.3,195.463v0a2.078,2.078,0,0,0,.559,4.081h1.8l.2-.23v-4.037h-2.406Z" transform="translate(-232.122 -167.559)" fill="#ffcebe"/>
      <path id="Trazado_599730" data-name="Trazado 599730" d="M414.867,195.364H412.83v4l.126.26h1.721c.064,0,.127,0,.19-.01v-4.246Z" transform="translate(-329.986 -167.633)" fill="#ffb1a0"/>
      <path id="Trazado_599731" data-name="Trazado 599731" d="M300.815,197.467a2.078,2.078,0,0,1,1.521-2v0l.147-.185h-2.037l-.147.185v0a2.078,2.078,0,0,0,.559,4.081h1.8l.011-.013A2.079,2.079,0,0,1,300.815,197.467Z" transform="translate(-232.123 -167.56)" fill="#ffb1a0"/>
      <path id="Trazado_599732" data-name="Trazado 599732" d="M442.5,366.3v4.2h4.715a1.14,1.14,0,0,0,1.14-1.14V366.3Z" transform="translate(-355.441 -314.308)" fill="#ffcebe"/>
      <path id="Trazado_599733" data-name="Trazado 599733" d="M337.871,264.207a.632.632,0,0,1-.4-.588l0-2.119-.278-.291h-6.395l-.324.3v2.1c0,.484-.432.6-.616.672l-1.827.708a6.238,6.238,0,0,0,11.872,0l-2.026-.785Z" transform="translate(-257.219 -224.131)" fill="#ffcebe"/>
      <path id="Trazado_599734" data-name="Trazado 599734" d="M333.97,261.209h-3.177l-.324.3v2.1c0,.484-.432.6-.616.672l-1.827.708a6.145,6.145,0,0,0,5.944,4.316Z" transform="translate(-257.219 -224.131)" fill="#ffb1a0"/>
      <path id="Trazado_599735" data-name="Trazado 599735" d="M437.574,348.97v-6.787a.975.975,0,1,0-1.951,0v6.787Z" transform="translate(-349.543 -292.774)" fill="#ffc250"/>
      <path id="Trazado_599736" data-name="Trazado 599736" d="M359.975,176.222h-2.731l-2.146-2.666h-1.279l-1.989,2.155v5.5a6.3,6.3,0,0,0,4.179,5.941,6.227,6.227,0,0,0,4.606-5.993v-4.408Z" transform="translate(-277.645 -148.92)" fill="#ffdecf"/>
      <path id="Trazado_599737" data-name="Trazado 599737" d="M329.885,193.288v-5.664l-.758.821h-2.767l-.276.374v4.469a6.136,6.136,0,0,0,6.283,6.131,6,6,0,0,0,1.852-.286A6.091,6.091,0,0,1,329.885,193.288Z" transform="translate(-255.554 -160.991)" fill="#ffcebe"/>
      <path id="Trazado_599738" data-name="Trazado 599738" d="M317.95,117.082a8.658,8.658,0,0,0-8.462,8.7v2.584a2.076,2.076,0,0,1,.559-.078h3.423c.212,0,1.4-.1,1.317-.09a3.615,3.615,0,0,0,3.174-2.738.1.1,0,0,1,.2,0,3.61,3.61,0,0,0,3.14,2.732c1.08.092,1.095.1,1.29.1H326a2.08,2.08,0,0,1,.635.1v-2.733A8.576,8.576,0,0,0,317.95,117.082Z" transform="translate(-241.313 -100.462)" fill="#365e7d"/>
      <g id="Grupo_875974" data-name="Grupo 875974" transform="translate(68.175 16.619)">
        <path id="Trazado_599739" data-name="Trazado 599739" d="M313.325,125.784a8.7,8.7,0,0,1,6.663-8.484,8.575,8.575,0,0,0-10.5,8.484v2.584a2.076,2.076,0,0,1,.559-.078h3.278Z" transform="translate(-309.488 -117.081)" fill="#2b4d66"/>
      </g>
      <path id="Trazado_599740" data-name="Trazado 599740" d="M186,192.4h-.495l-.223-.214H183.97v4.391l.384.2H186a2.192,2.192,0,0,0,0-4.378Z" transform="translate(-133.612 -164.906)" fill="#ffcebe"/>
      <path id="Trazado_599741" data-name="Trazado 599741" d="M73.319,192.4a2.192,2.192,0,0,0,0,4.378h1.651l.268-.5v-4.1H73.7Z" transform="translate(-36.886 -164.906)" fill="#ffcebe"/>
      <path id="Trazado_599742" data-name="Trazado 599742" d="M186.141,192.407c-.045,0-.09-.007-.136-.007h-.495l-.223-.214H183.97v4.391l.384.2H186c.046,0,.091,0,.136-.007Z" transform="translate(-133.612 -164.906)" fill="#ffb1a0"/>
      <path id="Trazado_599743" data-name="Trazado 599743" d="M73.414,194.589a2.152,2.152,0,0,1,1.828-2.172v-.231H73.7l-.383.214a2.192,2.192,0,0,0,0,4.378h1.651l.034-.063A2.168,2.168,0,0,1,73.414,194.589Z" transform="translate(-36.886 -164.906)" fill="#ffb1a0"/>
      <path id="Trazado_599744" data-name="Trazado 599744" d="M57.154,290.574l-6.726-2.605-.519.249H38.864l-.468-.269-6.72,2.625a5.857,5.857,0,0,0-3.421,5.306v2.975H34.11v4.417H60.575v-7.392A5.839,5.839,0,0,0,57.154,290.574Z" transform="translate(0 -247.076)" fill="#b3e59f"/>
      <path id="Trazado_599745" data-name="Trazado 599745" d="M33.265,301.975c0-1.981.47-3.352,1.576-4.245l-3.165,1.236a5.857,5.857,0,0,0-3.421,5.306v2.975h5.01C33.265,303.674,33.265,303.6,33.265,301.975Z" transform="translate(0 -255.468)" fill="#95d6a4"/>
      <path id="Trazado_599746" data-name="Trazado 599746" d="M34.111,363.857H28.256v3.408a1.14,1.14,0,0,0,1.14,1.14h4.715v-4.547Z" transform="translate(-0.001 -312.209)" fill="#ffb1a0"/>
      <path id="Trazado_599747" data-name="Trazado 599747" d="M109.617,263.552a.632.632,0,0,1-.4-.588l0-2.079-.43-.439H102.6l-.389.43v2.084a.582.582,0,0,1-.269.512l-2.248.878a6.36,6.36,0,0,0,12.032.02Z" transform="translate(-61.301 -223.477)" fill="#ffcebe"/>
      <path id="Trazado_599748" data-name="Trazado 599748" d="M105.713,260.446H102.6l-.389.43v2.084a.582.582,0,0,1-.269.512l-2.248.878a6.253,6.253,0,0,0,6.016,4.3Z" transform="translate(-61.301 -223.477)" fill="#ffb1a0"/>
      <path id="Trazado_599749" data-name="Trazado 599749" d="M64.583,348.97v-6.787a.975.975,0,1,0-1.951,0v6.787Z" transform="translate(-29.497 -292.774)" fill="#95d6a4"/>
      <path id="Trazado_599750" data-name="Trazado 599750" d="M136.874,177.579l-.519-.347-.39-1.691h-.759l-3.165,2.3h-2.8l-.236.381V182.8a6.339,6.339,0,0,0,4,5.9,6.247,6.247,0,0,0,4.186-5.889v-4.523Z" transform="translate(-86.446 -150.624)" fill="#ffdecf"/>
      <g id="Grupo_875975" data-name="Grupo 875975" transform="translate(38.087 27.215)">
        <path id="Trazado_599751" data-name="Trazado 599751" d="M102.084,196.7v-4.473l.309-.5H97.831l-.309.5V196.7a6.389,6.389,0,0,0,8.628,5.831A6.2,6.2,0,0,1,102.084,196.7Z" transform="translate(-97.522 -191.728)" fill="#ffcebe"/>
      </g>
      <path id="Trazado_599752" data-name="Trazado 599752" d="M93.847,119.964a1.164,1.164,0,0,1-1.258-.916c-.193-.988-.682-1.968-2.593-1.968H83.368a4.405,4.405,0,0,0-4.405,4.405v4.834a1.855,1.855,0,0,0,1.855,1.855h7.523a4.4,4.4,0,0,0,3.886-2.331.117.117,0,0,1,.221.056,2.281,2.281,0,0,0,2.275,2.275,1.2,1.2,0,0,0,1.192-1.192v-5.045a1.976,1.976,0,0,0-2.067-1.973Z" transform="translate(-43.51 -100.461)" fill="#365e7d"/>
      <g id="Grupo_875976" data-name="Grupo 875976" transform="translate(35.453 16.619)">
        <path id="Trazado_599753" data-name="Trazado 599753" d="M82.7,126.321v-4.835a4.405,4.405,0,0,1,4.405-4.405H83.369a4.405,4.405,0,0,0-4.405,4.405v4.835a1.855,1.855,0,0,0,1.855,1.855h3.739A1.855,1.855,0,0,1,82.7,126.321Z" transform="translate(-78.964 -117.081)" fill="#2b4d66"/>
      </g>
      <g id="Grupo_875979" data-name="Grupo 875979" transform="translate(44.419 33.447)">
        <path id="Trazado_599754" data-name="Trazado 599754" d="M299.878,310.954h-.495l-.223-.214h-1.317v4.391l.384.2h1.651a2.192,2.192,0,0,0,0-4.378Z" transform="translate(-275.74 -300.079)" fill="#ffcebe"/>
        <path id="Trazado_599755" data-name="Trazado 599755" d="M187.192,310.954a2.192,2.192,0,0,0,0,4.378h1.651l.268-.5v-4.1h-1.54Z" transform="translate(-179.014 -300.079)" fill="#ffcebe"/>
        <path id="Trazado_599756" data-name="Trazado 599756" d="M300.013,310.961c-.045,0-.09-.007-.136-.007h-.495l-.223-.214h-1.317v4.391l.384.2h1.651c.046,0,.091,0,.136-.007Z" transform="translate(-275.739 -300.079)" fill="#ffb1a0"/>
        <path id="Trazado_599757" data-name="Trazado 599757" d="M187.286,313.143a2.152,2.152,0,0,1,1.828-2.172v-.231h-1.54l-.383.214a2.192,2.192,0,0,0,0,4.378h1.651l.034-.063A2.168,2.168,0,0,1,187.286,313.143Z" transform="translate(-179.013 -300.079)" fill="#ffb1a0"/>
        <path id="Trazado_599758" data-name="Trazado 599758" d="M171.026,409.128l-6.726-2.605-.519.249H152.736l-.468-.269-6.72,2.625a5.857,5.857,0,0,0-3.421,5.306v2.975h5.855v4.07h20.609v-4.07h5.855v-2.975a5.838,5.838,0,0,0-3.421-5.305Z" transform="translate(-142.127 -382.249)" fill="#80b4fb"/>
        <path id="Trazado_599759" data-name="Trazado 599759" d="M147.137,420.529c0-1.981.47-3.352,1.576-4.245l-3.165,1.236a5.857,5.857,0,0,0-3.421,5.306V425.8h5.01C147.137,422.228,147.137,422.156,147.137,420.529Z" transform="translate(-142.127 -390.641)" fill="#61a2f9"/>
        <path id="Trazado_599760" data-name="Trazado 599760" d="M147.983,482.411h-5.855v3.06a1.14,1.14,0,0,0,1.14,1.14h4.715Z" transform="translate(-142.128 -447.382)" fill="#ffb1a0"/>
        <path id="Trazado_599761" data-name="Trazado 599761" d="M328.566,482.411v4.2h4.715a1.14,1.14,0,0,0,1.14-1.14v-3.06Z" transform="translate(-302.102 -447.382)" fill="#ffcebe"/>
        <path id="Trazado_599762" data-name="Trazado 599762" d="M223.489,382.106a.632.632,0,0,1-.4-.588l0-2.079-.43-.439h-6.178l-.389.43v2.084a.582.582,0,0,1-.269.512l-2.248.878a6.36,6.36,0,0,0,12.032.02Z" transform="translate(-203.427 -358.65)" fill="#ffcebe"/>
        <path id="Trazado_599763" data-name="Trazado 599763" d="M219.585,379h-3.109l-.389.43v2.084a.582.582,0,0,1-.269.512l-2.248.878a6.253,6.253,0,0,0,6.016,4.3Z" transform="translate(-203.428 -358.65)" fill="#ffb1a0"/>
        <path id="Trazado_599764" data-name="Trazado 599764" d="M178.455,467.176v-6.44a.975.975,0,1,0-1.951,0v6.44Z" transform="translate(-171.624 -427.947)" fill="#61a2f9"/>
        <path id="Trazado_599765" data-name="Trazado 599765" d="M323.645,467.176v-6.44a.975.975,0,0,0-1.951,0v6.44Z" transform="translate(-296.205 -427.947)" fill="#61a2f9"/>
        <path id="Trazado_599766" data-name="Trazado 599766" d="M250.746,296.133l-.519-.347-.39-1.691h-.759l-3.165,2.3h-2.8l-.236.381v4.576a6.339,6.339,0,0,0,4,5.9,6.247,6.247,0,0,0,4.186-5.889v-4.523Z" transform="translate(-228.573 -285.797)" fill="#ffdecf"/>
        <g id="Grupo_875977" data-name="Grupo 875977" transform="translate(9.832 10.596)">
          <path id="Trazado_599767" data-name="Trazado 599767" d="M215.956,315.254V310.78l.309-.5H211.7l-.309.5v4.473a6.389,6.389,0,0,0,8.628,5.831,6.2,6.2,0,0,1-4.066-5.831Z" transform="translate(-211.394 -310.282)" fill="#ffcebe"/>
        </g>
        <path id="Trazado_599768" data-name="Trazado 599768" d="M207.719,238.518a1.164,1.164,0,0,1-1.258-.916c-.193-.988-.682-1.968-2.593-1.968H197.24a4.405,4.405,0,0,0-4.405,4.405v4.834a1.855,1.855,0,0,0,1.855,1.855h7.523A4.4,4.4,0,0,0,206.1,244.4a.117.117,0,0,1,.221.056,2.281,2.281,0,0,0,2.275,2.275,1.2,1.2,0,0,0,1.192-1.192v-5.045a1.976,1.976,0,0,0-2.067-1.973Z" transform="translate(-185.637 -235.634)" fill="#365e7d"/>
        <g id="Grupo_875978" data-name="Grupo 875978" transform="translate(7.198 0)">
          <path id="Trazado_599769" data-name="Trazado 599769" d="M196.575,244.875v-4.834a4.405,4.405,0,0,1,4.405-4.405h-3.739a4.405,4.405,0,0,0-4.405,4.405v4.834a1.855,1.855,0,0,0,1.855,1.855h3.739A1.855,1.855,0,0,1,196.575,244.875Z" transform="translate(-192.836 -235.636)" fill="#2b4d66"/>
        </g>
      </g>
    </g>
  </g>
</svg>
