<svg xmlns="http://www.w3.org/2000/svg" xmlns:xlink="http://www.w3.org/1999/xlink" width="190" height="170" viewBox="0 0 190 170">
  <defs>
    <clipPath id="clip-path">
      <rect id="Rect치ngulo_292005" data-name="Rect치ngulo 292005" width="190" height="170" transform="translate(1483 -10777)" fill="#1d5977"/>
    </clipPath>
  </defs>
  <g id="Grupo_876144" data-name="Grupo 876144" transform="translate(-1483 11109.979)">
    <rect id="Rect치ngulo_292035" data-name="Rect치ngulo 292035" width="134" height="134" transform="translate(1539 -11109.979)" fill="#fff"/>
    <g id="Enmascarar_grupo_74" data-name="Enmascarar grupo 74" transform="translate(0 -332.979)" clip-path="url(#clip-path)">
      <g id="calculadora_2_" data-name="calculadora(2)" transform="translate(1493 -10777)">
        <path id="Trazado_599413" data-name="Trazado 599413" d="M59.187,69.893a6.482,6.482,0,0,0-6.475-6.475H46.072A6.482,6.482,0,0,0,39.6,69.893v6.641a6.482,6.482,0,0,0,6.475,6.475h6.641a6.482,6.482,0,0,0,6.475-6.475Zm-4.98,6.641a1.514,1.514,0,0,1-1.494,1.494H46.072a1.514,1.514,0,0,1-1.494-1.494V69.893A1.514,1.514,0,0,1,46.072,68.4h6.641a1.514,1.514,0,0,1,1.494,1.494Z" fill="#1d5977"/>
        <path id="Trazado_599414" data-name="Trazado 599414" d="M82.926,69.893a6.482,6.482,0,0,0-6.475-6.475H69.81a6.482,6.482,0,0,0-6.475,6.475v6.641a6.482,6.482,0,0,0,6.475,6.475h6.641a6.482,6.482,0,0,0,6.475-6.475Zm-4.98,6.641a1.514,1.514,0,0,1-1.494,1.494H69.81a1.514,1.514,0,0,1-1.494-1.494V69.893A1.514,1.514,0,0,1,69.81,68.4h6.641a1.514,1.514,0,0,1,1.494,1.494Z" fill="#1d5977"/>
        <path id="Trazado_599415" data-name="Trazado 599415" d="M93.549,83.008h6.641a6.482,6.482,0,0,0,6.475-6.475V69.893a6.482,6.482,0,0,0-6.475-6.475H93.549a6.482,6.482,0,0,0-6.475,6.475v6.641A6.482,6.482,0,0,0,93.549,83.008ZM92.055,69.893A1.514,1.514,0,0,1,93.549,68.4h6.641a1.514,1.514,0,0,1,1.494,1.494v6.641a1.514,1.514,0,0,1-1.494,1.494H93.549a1.514,1.514,0,0,1-1.494-1.494Z" fill="#1d5977"/>
        <path id="Trazado_599416" data-name="Trazado 599416" d="M130.4,69.893a6.482,6.482,0,0,0-6.475-6.475h-6.641a6.482,6.482,0,0,0-6.475,6.475v6.641a6.482,6.482,0,0,0,6.475,6.475h6.641a6.482,6.482,0,0,0,6.475-6.475Zm-4.98,6.641a1.514,1.514,0,0,1-1.494,1.494h-6.641a1.514,1.514,0,0,1-1.494-1.494V69.893a1.514,1.514,0,0,1,1.494-1.494h6.641a1.514,1.514,0,0,1,1.494,1.494Z" fill="#1d5977"/>
        <path id="Trazado_599417" data-name="Trazado 599417" d="M59.187,93.965a6.482,6.482,0,0,0-6.475-6.475H46.072A6.482,6.482,0,0,0,39.6,93.965v6.641a6.482,6.482,0,0,0,6.475,6.475h6.641a6.482,6.482,0,0,0,6.475-6.475Zm-4.98,6.641a1.514,1.514,0,0,1-1.494,1.494H46.072a1.514,1.514,0,0,1-1.494-1.494V93.965a1.514,1.514,0,0,1,1.494-1.494h6.641a1.514,1.514,0,0,1,1.494,1.494Z" fill="#1d5977"/>
        <path id="Trazado_599418" data-name="Trazado 599418" d="M82.926,93.965a6.482,6.482,0,0,0-6.475-6.475H69.81a6.482,6.482,0,0,0-6.475,6.475v6.641a6.482,6.482,0,0,0,6.475,6.475h6.641a6.482,6.482,0,0,0,6.475-6.475Zm-4.98,6.641a1.514,1.514,0,0,1-1.494,1.494H69.81a1.514,1.514,0,0,1-1.494-1.494V93.965a1.514,1.514,0,0,1,1.494-1.494h6.641a1.514,1.514,0,0,1,1.494,1.494Z" fill="#1d5977"/>
        <path id="Trazado_599419" data-name="Trazado 599419" d="M87.075,100.606a6.482,6.482,0,0,0,6.475,6.475h6.641a6.482,6.482,0,0,0,6.475-6.475V93.965a6.482,6.482,0,0,0-6.475-6.475H93.549a6.482,6.482,0,0,0-6.475,6.475Zm4.98-6.641a1.514,1.514,0,0,1,1.494-1.494h6.641a1.514,1.514,0,0,1,1.494,1.494v6.641a1.514,1.514,0,0,1-1.494,1.494H93.549a1.514,1.514,0,0,1-1.494-1.494Z" fill="#1d5977"/>
        <path id="Trazado_599420" data-name="Trazado 599420" d="M130.4,93.965a6.482,6.482,0,0,0-6.475-6.475h-6.641a6.482,6.482,0,0,0-6.475,6.475v6.641a6.482,6.482,0,0,0,6.475,6.475h6.641a6.482,6.482,0,0,0,6.475-6.475Zm-4.98,6.641a1.514,1.514,0,0,1-1.494,1.494h-6.641a1.514,1.514,0,0,1-1.494-1.494V93.965a1.514,1.514,0,0,1,1.494-1.494h6.641a1.514,1.514,0,0,1,1.494,1.494Z" fill="#1d5977"/>
        <path id="Trazado_599421" data-name="Trazado 599421" d="M59.187,118.037a6.482,6.482,0,0,0-6.475-6.475H46.072a6.482,6.482,0,0,0-6.475,6.475v6.641a6.482,6.482,0,0,0,6.475,6.475h6.641a6.482,6.482,0,0,0,6.475-6.475Zm-4.98,6.641a1.514,1.514,0,0,1-1.494,1.494H46.072a1.514,1.514,0,0,1-1.494-1.494v-6.641a1.514,1.514,0,0,1,1.494-1.494h6.641a1.514,1.514,0,0,1,1.494,1.494Z" fill="#1d5977"/>
        <path id="Trazado_599422" data-name="Trazado 599422" d="M82.926,118.037a6.482,6.482,0,0,0-6.475-6.475H69.81a6.482,6.482,0,0,0-6.475,6.475v6.641a6.482,6.482,0,0,0,6.475,6.475h6.641a6.482,6.482,0,0,0,6.475-6.475Zm-4.98,6.641a1.514,1.514,0,0,1-1.494,1.494H69.81a1.514,1.514,0,0,1-1.494-1.494v-6.641a1.514,1.514,0,0,1,1.494-1.494h6.641a1.514,1.514,0,0,1,1.494,1.494Z" fill="#1d5977"/>
        <path id="Trazado_599423" data-name="Trazado 599423" d="M87.075,124.678a6.482,6.482,0,0,0,6.475,6.475h6.641a6.482,6.482,0,0,0,6.475-6.475v-6.641a6.482,6.482,0,0,0-6.475-6.475H93.549a6.482,6.482,0,0,0-6.475,6.475Zm4.98-6.641a1.514,1.514,0,0,1,1.494-1.494h6.641a1.514,1.514,0,0,1,1.494,1.494v6.641a1.514,1.514,0,0,1-1.494,1.494H93.549a1.514,1.514,0,0,1-1.494-1.494Z" fill="#1d5977"/>
        <path id="Trazado_599424" data-name="Trazado 599424" d="M130.4,118.037a6.482,6.482,0,0,0-6.475-6.475h-6.641a6.482,6.482,0,0,0-6.475,6.475v6.641a6.482,6.482,0,0,0,6.475,6.475h6.641a6.482,6.482,0,0,0,6.475-6.475Zm-4.98,6.641a1.514,1.514,0,0,1-1.494,1.494h-6.641a1.514,1.514,0,0,1-1.494-1.494v-6.641a1.514,1.514,0,0,1,1.494-1.494h6.641a1.514,1.514,0,0,1,1.494,1.494Z" fill="#1d5977"/>
        <path id="Trazado_599425" data-name="Trazado 599425" d="M52.713,135.635H46.072a6.482,6.482,0,0,0-6.475,6.475v6.641a6.482,6.482,0,0,0,6.475,6.475h6.641a6.482,6.482,0,0,0,6.475-6.475v-6.641A6.482,6.482,0,0,0,52.713,135.635Zm1.494,13.115a1.514,1.514,0,0,1-1.494,1.494H46.072a1.514,1.514,0,0,1-1.494-1.494v-6.641a1.514,1.514,0,0,1,1.494-1.494h6.641a1.514,1.514,0,0,1,1.494,1.494Z" fill="#1d5977"/>
        <path id="Trazado_599426" data-name="Trazado 599426" d="M76.451,135.635H69.81a6.482,6.482,0,0,0-6.475,6.475v6.641a6.482,6.482,0,0,0,6.475,6.475h6.641a6.482,6.482,0,0,0,6.475-6.475v-6.641A6.482,6.482,0,0,0,76.451,135.635Zm1.494,13.115a1.514,1.514,0,0,1-1.494,1.494H69.81a1.514,1.514,0,0,1-1.494-1.494v-6.641a1.514,1.514,0,0,1,1.494-1.494h6.641a1.514,1.514,0,0,1,1.494,1.494Z" fill="#1d5977"/>
        <path id="Trazado_599427" data-name="Trazado 599427" d="M87.075,148.75a6.482,6.482,0,0,0,6.475,6.475h30.379a6.482,6.482,0,0,0,6.475-6.475v-6.641a6.482,6.482,0,0,0-6.475-6.475H93.549a6.482,6.482,0,0,0-6.475,6.475Zm4.98-6.641a1.514,1.514,0,0,1,1.494-1.494h30.379a1.514,1.514,0,0,1,1.494,1.494v6.641a1.514,1.514,0,0,1-1.494,1.494H93.549a1.514,1.514,0,0,1-1.494-1.494Z" fill="#1d5977"/>
        <path id="Trazado_599428" data-name="Trazado 599428" d="M96.87,16.6a2.49,2.49,0,1,0,0-4.98H73.131a2.49,2.49,0,0,0,0,4.98Z" fill="#1d5977"/>
        <path id="Trazado_599429" data-name="Trazado 599429" d="M130.4,28.625a5.608,5.608,0,0,0-5.6-5.6H45.2a5.608,5.608,0,0,0-5.6,5.6V51.952a5.608,5.608,0,0,0,5.6,5.6H79.19a2.49,2.49,0,0,0,0-4.98H45.2a.622.622,0,0,1-.621-.621V28.625A.622.622,0,0,1,45.2,28h79.6a.622.622,0,0,1,.621.622V51.952a.622.622,0,0,1-.621.621H90.811a2.49,2.49,0,0,0,0,4.98H124.8a5.608,5.608,0,0,0,5.6-5.6Z" fill="#1d5977"/>
        <path id="Trazado_599430" data-name="Trazado 599430" d="M27.061,13.386V156.614A13.4,13.4,0,0,0,40.447,170h89.107a13.4,13.4,0,0,0,13.385-13.386v-65.8a2.49,2.49,0,0,0-4.98,0v65.8a8.415,8.415,0,0,1-8.405,8.405H40.447a8.415,8.415,0,0,1-8.405-8.405V13.386A8.415,8.415,0,0,1,40.447,4.98h89.107a8.415,8.415,0,0,1,8.405,8.405v65.8a2.49,2.49,0,0,0,4.98,0v-65.8A13.4,13.4,0,0,0,129.554,0H40.447A13.4,13.4,0,0,0,27.061,13.386Z" fill="#1d5977"/>
      </g>
    </g>
  </g>
</svg>
