<svg xmlns="http://www.w3.org/2000/svg" width="65.645" height="53.298" viewBox="0 0 65.645 53.298">
  <g id="pagina-web" transform="translate(-0.985 -5.495)">
    <path id="Trazado_599859" data-name="Trazado 599859" d="M7.783,49.638H58.341a4.841,4.841,0,0,0,4.783-4.783V10.284A4.753,4.753,0,0,0,58.341,5.5H7.783A4.669,4.669,0,0,0,3,10.284V44.855A4.841,4.841,0,0,0,7.783,49.638Zm.137-39.49H58.068V44.855H7.919Z" transform="translate(0.738)" fill="#e3f7f0"/>
    <path id="Trazado_599860" data-name="Trazado 599860" d="M7.6,9.9H55.016v4.373H7.6Z" transform="translate(2.424 1.614)" fill="#e3f7f0"/>
    <path id="Trazado_599861" data-name="Trazado 599861" d="M64.819,38.8H40.359a1.714,1.714,0,0,0-1.5.82c-.683,1.23-2.733,2.186-5.056,2.186s-4.373-.957-5.056-2.186a1.714,1.714,0,0,0-1.5-.82H2.782a1.788,1.788,0,0,0-1.64,2.46l1.64,3.416a3.276,3.276,0,0,0,3.006,1.913H61.812a3.276,3.276,0,0,0,3.006-1.913l1.64-3.416A1.736,1.736,0,0,0,64.819,38.8ZM52.384,43.719H49.1V41.806h3.279Zm5.192,0H54.3V41.806h3.279Zm5.329,0H59.626V41.806h3.279Z" transform="translate(0 12.204)" fill="#e3f7f0"/>
    <path id="Trazado_599862" data-name="Trazado 599862" d="M9.9,17H27.664V33.807H9.9Z" transform="translate(3.267 4.216)" fill="#e3f7f0"/>
    <path id="Trazado_599863" data-name="Trazado 599863" d="M26.1,17H45.23v2.733H26.1Z" transform="translate(9.203 4.216)" fill="#e3f7f0"/>
    <path id="Trazado_599864" data-name="Trazado 599864" d="M26.1,22.2H45.23v2.733H26.1Z" transform="translate(9.203 6.121)" fill="#e3f7f0"/>
    <path id="Trazado_599865" data-name="Trazado 599865" d="M26.1,27.3H45.23v2.733H26.1Z" transform="translate(9.203 7.99)" fill="#e3f7f0"/>
  </g>
</svg>
