<svg xmlns="http://www.w3.org/2000/svg" xmlns:xlink="http://www.w3.org/1999/xlink" width="190" height="170" viewBox="0 0 190 170">
  <defs>
    <clipPath id="clip-path">
      <rect id="Rect치ngulo_292010" data-name="Rect치ngulo 292010" width="190" height="170" transform="translate(1483 -13438.429)" fill="#1d5977"/>
    </clipPath>
  </defs>
  <g id="Grupo_876149" data-name="Grupo 876149" transform="translate(-1483 13770.979)">
    <rect id="Rect치ngulo_292040" data-name="Rect치ngulo 292040" width="134" height="134" transform="translate(1539 -13770.979)" fill="#fff"/>
    <g id="Enmascarar_grupo_79" data-name="Enmascarar grupo 79" transform="translate(0 -332.551)" clip-path="url(#clip-path)">
      <g id="_x32_1" transform="translate(1485.905 -13445.523)">
        <path id="Trazado_599461" data-name="Trazado 599461" d="M10.626,177.095H173.564a3.542,3.542,0,0,0,0-7.084h-5.419V38.974a3.542,3.542,0,0,0-5.1-3.182l-43.36,21.186V10.637a3.542,3.542,0,0,0-5.1-3.182L66.455,30.975a3.542,3.542,0,0,0-1.987,3.182V72.9l-45.28.014a3.542,3.542,0,0,0-3.54,3.542V170.01H10.627a3.542,3.542,0,0,0,0,7.084Zm80.3-60.571a71.168,71.168,0,0,1,.193-8.042,38.213,38.213,0,0,0,25.366-8c4.475,2.838,14.376,8.205,25.131,7.956,1.218,19.082-6.864,37.558-25.341,49.1-14.218-8.394-24.456-23.423-25.348-41.016Zm70.137-71.877V169.68H120.009V163.6A60.029,60.029,0,0,0,148.8,111.792a46.906,46.906,0,0,0-.55-7.783,3.558,3.558,0,0,0-3.985-2.871c-8.027,1.157-17.26-2.386-24.137-6.739l-.122-.078V64.707ZM71.552,36.37,112.6,16.31V94.517c-7.4,6.049-14.59,7.509-23.849,6.592h0l-.009,0a3.542,3.542,0,0,0-4.224,2.952,65.708,65.708,0,0,0-.669,12.811c1,19.715,12.48,37,28.756,46.731v6.079H71.552ZM22.732,80l41.729-.012v89.693H56.436V135.34a3.542,3.542,0,0,0-3.542-3.542H34.3a3.542,3.542,0,0,0-3.542,3.542v34.339H22.732Zm15.108,88.728V138.882H49.351v29.843Z" fill="#1d5977"/>
        <path id="Trazado_599462" data-name="Trazado 599462" d="M33.844,94.492H53.71a3.542,3.542,0,0,0,0-7.084H33.844a3.542,3.542,0,1,0,0,7.084Z" fill="#1d5977"/>
        <path id="Trazado_599463" data-name="Trazado 599463" d="M82.031,46.277h19.864a3.542,3.542,0,1,0,0-7.084H82.031a3.542,3.542,0,0,0,0,7.084Z" fill="#1d5977"/>
        <path id="Trazado_599464" data-name="Trazado 599464" d="M82.031,60.445h19.864a3.542,3.542,0,1,0,0-7.084H82.031a3.542,3.542,0,0,0,0,7.084Z" fill="#1d5977"/>
        <path id="Trazado_599465" data-name="Trazado 599465" d="M82.031,74.614h19.864a3.542,3.542,0,1,0,0-7.084H82.031a3.542,3.542,0,0,0,0,7.084Z" fill="#1d5977"/>
        <path id="Trazado_599466" data-name="Trazado 599466" d="M105.437,85.24a3.542,3.542,0,0,0-3.542-3.542H82.031a3.542,3.542,0,0,0,0,7.084h19.864A3.542,3.542,0,0,0,105.437,85.24Z" fill="#1d5977"/>
        <path id="Trazado_599467" data-name="Trazado 599467" d="M130.6,74.614h19.864a3.542,3.542,0,1,0,0-7.084H130.6a3.542,3.542,0,0,0,0,7.084Z" fill="#1d5977"/>
        <path id="Trazado_599468" data-name="Trazado 599468" d="M130.6,88.782h19.864a3.542,3.542,0,1,0,0-7.084H130.6a3.542,3.542,0,0,0,0,7.084Z" fill="#1d5977"/>
        <path id="Trazado_599469" data-name="Trazado 599469" d="M33.844,109.411H53.71a3.542,3.542,0,0,0,0-7.084H33.844a3.542,3.542,0,1,0,0,7.084Z" fill="#1d5977"/>
        <path id="Trazado_599470" data-name="Trazado 599470" d="M33.844,124.33H53.71a3.542,3.542,0,0,0,0-7.084H33.844a3.542,3.542,0,1,0,0,7.084Z" fill="#1d5977"/>
        <path id="Trazado_599471" data-name="Trazado 599471" d="M110.572,139.65a3.541,3.541,0,0,0,5.009,0l16.578-16.578a3.542,3.542,0,0,0-5.009-5.009l-14.073,14.073-5.021-5.021a3.542,3.542,0,1,0-5.009,5.009Z" fill="#1d5977"/>
      </g>
    </g>
  </g>
</svg>
