<svg xmlns="http://www.w3.org/2000/svg" width="140" height="105" viewBox="0 0 140 105">
  <g id="Grupo_876016" data-name="Grupo 876016" transform="translate(9129 3938)">
    <g id="Grupo_874630" data-name="Grupo 874630" transform="translate(-9649 -11700)">
      <rect id="Rectángulo_291466" data-name="Rectángulo 291466" width="140" height="75" transform="translate(520 7779)" fill="none"/>
      <g id="Grupo_874624" data-name="Grupo 874624" transform="translate(1)">
        <g id="Grupo_874620" data-name="Grupo 874620" transform="translate(832 9613.532) rotate(180)">
          <circle id="Elipse_4713" data-name="Elipse 4713" cx="2.5" cy="2.5" r="2.5" transform="translate(285 1799.532)" fill="#f3ab1d"/>
          <circle id="Elipse_4717" data-name="Elipse 4717" cx="2.5" cy="2.5" r="2.5" transform="translate(285 1811.532)" fill="#f3ab1d"/>
          <circle id="Elipse_4719" data-name="Elipse 4719" cx="2.5" cy="2.5" r="2.5" transform="translate(285 1823.532)" fill="#f3ab1d"/>
          <circle id="Elipse_4715" data-name="Elipse 4715" cx="2.5" cy="2.5" r="2.5" transform="translate(297 1799.532)" fill="#f3ab1d"/>
          <circle id="Elipse_4720" data-name="Elipse 4720" cx="2.5" cy="2.5" r="2.5" transform="translate(308 1799.532)" fill="#f3ab1d"/>
          <circle id="Elipse_4716" data-name="Elipse 4716" cx="2.5" cy="2.5" r="2.5" transform="translate(297 1811.532)" fill="#f3ab1d"/>
          <circle id="Elipse_4721" data-name="Elipse 4721" cx="2.5" cy="2.5" r="2.5" transform="translate(308 1811.532)" fill="#f3ab1d"/>
          <circle id="Elipse_4718" data-name="Elipse 4718" cx="2.5" cy="2.5" r="2.5" transform="translate(297 1823.532)" fill="#f3ab1d"/>
          <circle id="Elipse_4722" data-name="Elipse 4722" cx="2.5" cy="2.5" r="2.5" transform="translate(308 1823.532)" fill="#f3ab1d"/>
        </g>
        <g id="Grupo_874621" data-name="Grupo 874621" transform="translate(832 9648.532) rotate(180)">
          <circle id="Elipse_4713-2" data-name="Elipse 4713" cx="2.5" cy="2.5" r="2.5" transform="translate(285 1799.532)" fill="#f3ab1d"/>
          <circle id="Elipse_4717-2" data-name="Elipse 4717" cx="2.5" cy="2.5" r="2.5" transform="translate(285 1811.532)" fill="#f3ab1d"/>
          <circle id="Elipse_4719-2" data-name="Elipse 4719" cx="2.5" cy="2.5" r="2.5" transform="translate(285 1823.532)" fill="#f3ab1d"/>
          <circle id="Elipse_4715-2" data-name="Elipse 4715" cx="2.5" cy="2.5" r="2.5" transform="translate(297 1799.532)" fill="#f3ab1d"/>
          <circle id="Elipse_4720-2" data-name="Elipse 4720" cx="2.5" cy="2.5" r="2.5" transform="translate(308 1799.532)" fill="#f3ab1d"/>
          <circle id="Elipse_4716-2" data-name="Elipse 4716" cx="2.5" cy="2.5" r="2.5" transform="translate(297 1811.532)" fill="#f3ab1d"/>
          <circle id="Elipse_4721-2" data-name="Elipse 4721" cx="2.5" cy="2.5" r="2.5" transform="translate(308 1811.532)" fill="#f3ab1d"/>
          <circle id="Elipse_4718-2" data-name="Elipse 4718" cx="2.5" cy="2.5" r="2.5" transform="translate(297 1823.532)" fill="#f3ab1d"/>
          <circle id="Elipse_4722-2" data-name="Elipse 4722" cx="2.5" cy="2.5" r="2.5" transform="translate(308 1823.532)" fill="#f3ab1d"/>
        </g>
      </g>
      <g id="Grupo_874623" data-name="Grupo 874623" transform="translate(63 5409)">
        <circle id="Elipse_4723" data-name="Elipse 4723" cx="52.5" cy="52.5" r="52.5" transform="translate(475 2353)" fill="#fff"/>
        <path id="Trazado_596604" data-name="Trazado 596604" d="M46.62,0A46.62,46.62,0,1,1,0,46.62,46.62,46.62,0,0,1,46.62,0Z" transform="translate(480.88 2358.88)" fill="#d9e9f1" opacity="0.7"/>
      </g>
      <g id="Grupo_874622" data-name="Grupo 874622" transform="translate(634.019 7829.184)">
        <g id="Grupo_151688" data-name="Grupo 151688" transform="translate(0 4.964)">
          <path id="Trazado_212295" data-name="Trazado 212295" d="M-11425.02-11468v9.927" transform="translate(11429.982 11467.997)" fill="none" stroke="#26779f" stroke-width="4"/>
          <path id="Trazado_212296" data-name="Trazado 212296" d="M0,0V9.926" transform="translate(9.926 4.963) rotate(90)" fill="none" stroke="#26779f" stroke-width="4"/>
        </g>
        <g id="Grupo_151689" data-name="Grupo 151689" transform="translate(12.905 0)">
          <path id="Trazado_212295-2" data-name="Trazado 212295" d="M-11425.02-11468v9.927" transform="translate(11429.982 11467.997)" fill="none" stroke="#26779f" stroke-width="4"/>
          <path id="Trazado_212296-2" data-name="Trazado 212296" d="M0,0V9.926" transform="translate(9.926 4.963) rotate(90)" fill="none" stroke="#26779f" stroke-width="4"/>
        </g>
        <g id="Grupo_151690" data-name="Grupo 151690" transform="translate(15.055 14.89)">
          <path id="Trazado_212295-3" data-name="Trazado 212295" d="M-11425.02-11468v9.927" transform="translate(11429.982 11467.997)" fill="none" stroke="#26779f" stroke-width="4"/>
          <path id="Trazado_212296-3" data-name="Trazado 212296" d="M0,0V9.926" transform="translate(9.926 4.963) rotate(90)" fill="none" stroke="#26779f" stroke-width="4"/>
        </g>
      </g>
    </g>
    <g id="tienda" transform="translate(-9088.412 -3914.912)">
      <rect id="Rectángulo_291468" data-name="Rectángulo 291468" width="58.824" height="3.265" transform="translate(0 55.559)" fill="#afafaf"/>
      <rect id="Rectángulo_291469" data-name="Rectángulo 291469" width="51.633" height="36.8" transform="translate(3.59 18.759)" fill="#ffdb56"/>
      <rect id="Rectángulo_291470" data-name="Rectángulo 291470" width="44.292" height="10.468" transform="translate(7.272)" fill="#3185af"/>
      <path id="Trazado_596675" data-name="Trazado 596675" d="M82.81,177.1v7.168a4.293,4.293,0,0,1-.544.035H82.15A4.149,4.149,0,0,1,78,180.157a4.149,4.149,0,0,1-4.146,4.145h-.1a4.149,4.149,0,0,1-4.146-4.145,4.141,4.141,0,0,1-4.145,4.145h-.1a4.149,4.149,0,0,1-4.146-4.145,4.141,4.141,0,0,1-4.145,4.145h-.1a4.149,4.149,0,0,1-4.146-4.145,4.149,4.149,0,0,1-4.146,4.145h-.127a4.149,4.149,0,0,1-4.146-4.145,4.141,4.141,0,0,1-4.146,4.145h-.1a4.149,4.149,0,0,1-4.146-4.145A4.141,4.141,0,0,1,31.86,184.3h-.1a4.476,4.476,0,0,1-.556-.035V177.1Z" transform="translate(-27.587 -156.593)" fill="#f6b44b"/>
      <path id="Trazado_596676" data-name="Trazado 596676" d="M10.977,74.8H3.6L0,84.9H8.407Z" transform="translate(0 -66.138)" fill="#f2f2f2"/>
      <path id="Trazado_596677" data-name="Trazado 596677" d="M82.547,74.8H75.171L72.6,84.9H81Z" transform="translate(-64.193 -66.138)" fill="#f2705b"/>
      <path id="Trazado_596678" data-name="Trazado 596678" d="M154.028,74.8h-7.376L145.1,84.9h8.407Z" transform="translate(-128.298 -66.138)" fill="#f2f2f2"/>
      <path id="Trazado_596679" data-name="Trazado 596679" d="M225.586,74.8h-7.365L217.7,84.9h8.407Z" transform="translate(-192.491 -66.138)" fill="#f2705b"/>
      <g id="Grupo_874638" data-name="Grupo 874638" transform="translate(33.095 8.662)">
        <path id="Trazado_596680" data-name="Trazado 596680" d="M293.176,74.8H285.8l.521,10.1h8.407Z" transform="translate(-285.8 -74.8)" fill="#f2f2f2"/>
        <path id="Trazado_596681" data-name="Trazado 596681" d="M420.576,74.8H413.2l2.571,10.1h8.407Z" transform="translate(-398.448 -74.8)" fill="#f2f2f2"/>
      </g>
      <path id="Trazado_596682" data-name="Trazado 596682" d="M356.876,74.8H349.5l1.552,10.1h8.4Z" transform="translate(-309.029 -66.138)" fill="#f2705b"/>
      <path id="Trazado_596683" data-name="Trazado 596683" d="M192.9,267.6a8,8,0,0,0-8,8v16.57h16.015V275.6A8.021,8.021,0,0,0,192.9,267.6Z" transform="translate(-163.489 -236.613)" fill="#41596b"/>
      <g id="Grupo_874639" data-name="Grupo 874639" transform="translate(5.651 38.919)">
        <rect id="Rectángulo_291471" data-name="Rectángulo 291471" width="13.699" height="10.804" transform="translate(33.836)" fill="#fff"/>
        <rect id="Rectángulo_291472" data-name="Rectángulo 291472" width="13.699" height="10.804" fill="#fff"/>
      </g>
      <g id="Grupo_874640" data-name="Grupo 874640" transform="translate(6.959 40.228)">
        <rect id="Rectángulo_291473" data-name="Rectángulo 291473" width="11.082" height="8.198" transform="translate(33.836)" fill="#44c868"/>
        <rect id="Rectángulo_291474" data-name="Rectángulo 291474" width="11.082" height="8.198" fill="#44c868"/>
      </g>
      <circle id="Elipse_5435" data-name="Elipse 5435" cx="0.984" cy="0.984" r="0.984" transform="translate(34.727 42.995)" fill="#fff"/>
      <g id="Grupo_874641" data-name="Grupo 874641" transform="translate(0 18.747)">
        <path id="Trazado_596684" data-name="Trazado 596684" d="M0,164.911a4.2,4.2,0,1,0,8.407,0V161.9H0Z" transform="translate(0 -161.9)" fill="#cdd5df"/>
        <path id="Trazado_596685" data-name="Trazado 596685" d="M145.1,164.911a4.2,4.2,0,1,0,8.407,0V161.9H145.1Z" transform="translate(-128.298 -161.9)" fill="#cdd5df"/>
        <path id="Trazado_596686" data-name="Trazado 596686" d="M290.3,164.911a4.2,4.2,0,1,0,8.407,0V161.9H290.3v3.011Z" transform="translate(-256.684 -161.9)" fill="#cdd5df"/>
        <path id="Trazado_596687" data-name="Trazado 596687" d="M435.4,162v3.011a4.2,4.2,0,0,0,8.407,0V162Z" transform="translate(-384.982 -161.988)" fill="#cdd5df"/>
      </g>
      <g id="Grupo_874642" data-name="Grupo 874642" transform="translate(8.407 18.747)">
        <path id="Trazado_596688" data-name="Trazado 596688" d="M72.6,164.911a4.2,4.2,0,0,0,4.2,4.2h0a4.2,4.2,0,0,0,4.2-4.2V161.9H72.6Z" transform="translate(-72.6 -161.9)" fill="#f05540"/>
        <path id="Trazado_596689" data-name="Trazado 596689" d="M217.7,164.911a4.2,4.2,0,1,0,8.407,0V161.9H217.7v3.011Z" transform="translate(-200.898 -161.9)" fill="#f05540"/>
        <path id="Trazado_596690" data-name="Trazado 596690" d="M362.9,162v3.011a4.2,4.2,0,0,0,8.407,0V162Z" transform="translate(-329.284 -161.988)" fill="#f05540"/>
      </g>
    </g>
  </g>
</svg>
