<svg xmlns="http://www.w3.org/2000/svg" width="105" height="105" viewBox="0 0 105 105">
  <g id="Grupo_876012" data-name="Grupo 876012" transform="translate(-748 -5064)">
    <g id="Grupo_874602" data-name="Grupo 874602" transform="translate(273.142 2711.142)">
      <circle id="Elipse_4723" data-name="Elipse 4723" cx="52.5" cy="52.5" r="52.5" transform="translate(474.858 2352.858)" fill="#fff"/>
      <path id="Trazado_596604" data-name="Trazado 596604" d="M46.492,0A46.492,46.492,0,1,1,0,46.492,46.492,46.492,0,0,1,46.492,0Z" transform="translate(480.867 2358.867)" fill="#d9e9f1" opacity="0.7"/>
    </g>
    <g id="capital" transform="translate(765.607 5052.846)">
      <path id="Trazado_596766" data-name="Trazado 596766" d="M344.473,285.566H329.11L320,282.837V258.629l9.2-2.729h15.268a.955.955,0,0,1,.955.955v27.756A.955.955,0,0,1,344.473,285.566Z" transform="translate(-275.445 -201.467)" fill="#3da894"/>
      <path id="Trazado_596767" data-name="Trazado 596767" d="M365.036,307.521h-4.359L352,304.793v-16.3l7.49-2.729h5.554a.955.955,0,0,1,.666.27l3.388,3.3a.955.955,0,0,1,.289.685V303.17a.955.955,0,0,1-.28.675l-3.4,3.4A.954.954,0,0,1,365.036,307.521Z" transform="translate(-303.207 -227.378)" fill="#008b81"/>
      <path id="Trazado_596768" data-name="Trazado 596768" d="M332.915,281.611h-8.677V259.855h7.49L329.2,255.9H320v29.666h9.109A15.945,15.945,0,0,0,332.915,281.611Z" transform="translate(-275.445 -201.467)" fill="#01998d"/>
      <path id="Trazado_596769" data-name="Trazado 596769" d="M361.618,289.12l-.052-.1-2.077-3.256H352v21.755h8.677a17.758,17.758,0,0,0,3.007-9.98,18.042,18.042,0,0,0-2.066-8.422Z" transform="translate(-303.207 -227.379)" fill="#037e73"/>
      <circle id="Elipse_5436" data-name="Elipse 5436" cx="1.978" cy="1.978" r="1.978" transform="translate(58.27 67.288)" fill="#fed44c"/>
      <path id="Trazado_596770" data-name="Trazado 596770" d="M150.161,172.879,136.154,150.92l-5.078-5.435H122.22l-17.462,27.386a18.055,18.055,0,0,0-2.076,8.455c0,9.076,6.522,16.273,14.566,16.273l3.221.161h17.189c8.045,0,14.566-7.358,14.566-16.434v-.014a18.056,18.056,0,0,0-2.064-8.432Z" transform="translate(-91.935 -99.31)" fill="#e2ae83"/>
      <path id="Trazado_596771" data-name="Trazado 596771" d="M112.547,152.076a2.415,2.415,0,0,1,2.037-1.117H126.8a5.754,5.754,0,0,0,.666-.039L124,145.485H111.918l-3.466,5.436-14,21.95a18.055,18.055,0,0,0-2.076,8.455c0,9.076,6.522,16.434,14.566,16.434h4.831c-8.045,0-14.566-7.358-14.566-16.434a18.055,18.055,0,0,1,2.076-8.455Z" transform="translate(-83.243 -99.31)" fill="#dba47a"/>
      <path id="Trazado_596772" data-name="Trazado 596772" d="M207.449,34.981a4.427,4.427,0,0,0-6.412,2.429v0a4.427,4.427,0,1,0-8.676,0h0a4.4,4.4,0,0,0-1.78-2.3c-1.338-.869-6.846,2.026-4.124,6.642l5.814,8.076h10.466l5.814-8.076A4.427,4.427,0,0,0,207.449,34.981Z" transform="translate(-161.985 -3.649)" fill="#e2ae83"/>
      <path id="Trazado_596773" data-name="Trazado 596773" d="M184.824,62.16l-5.814-8.076a4.427,4.427,0,0,1,.9-6.643,4.427,4.427,0,0,0-5.732,6.643l5.814,8.076Z" transform="translate(-151.317 -15.986)" fill="#dba47a"/>
      <path id="Trazado_596774" data-name="Trazado 596774" d="M230.792,256.372a4.763,4.763,0,0,0-4.758-4.758h-1.95a2.342,2.342,0,1,1,0-4.684h1.742a1.987,1.987,0,0,1,1.915,1.425,1.208,1.208,0,1,0,2.314-.694,4.385,4.385,0,0,0-3.788-3.125v-2.557a1.208,1.208,0,1,0-2.415,0v2.541a4.758,4.758,0,0,0,.233,9.51h1.95a2.342,2.342,0,1,1,0,4.684h-2.2a1.987,1.987,0,0,1-1.915-1.425,1.208,1.208,0,0,0-2.314.694,4.388,4.388,0,0,0,4.229,3.146h.017v2.536a1.208,1.208,0,0,0,2.415,0v-2.541A4.764,4.764,0,0,0,230.792,256.372Z" transform="translate(-190.346 -179.701)" fill="#3da894"/>
      <path id="Trazado_596775" data-name="Trazado 596775" d="M196.255,132.741l3.221.161h12.848a2.5,2.5,0,1,0,0-5H199.476l-3.221.161a2.345,2.345,0,1,0,0,4.68Z" transform="translate(-168.771 -84.474)" fill="#fed44c"/>
      <path id="Trazado_596776" data-name="Trazado 596776" d="M188.283,130.4a2.5,2.5,0,0,1,2.5-2.5h-4.831a2.5,2.5,0,1,0,0,5h4.831A2.5,2.5,0,0,1,188.283,130.4Z" transform="translate(-160.078 -84.474)" fill="#f2b84c"/>
      <path id="Trazado_596777" data-name="Trazado 596777" d="M59.417,441.588h-15.2l-1.944-.972V437.6l14.124.972h2.341a.68.68,0,0,1,.68.68v2.338Z" transform="translate(-33.79 -343.139)" fill="#e68415"/>
      <path id="Trazado_596778" data-name="Trazado 596778" d="M31.97,447.9v2.338a.68.68,0,0,0,.68.68h2.235V447.9H31.97Z" transform="translate(-24.46 -352.469)" fill="#d86004"/>
      <path id="Trazado_596779" data-name="Trazado 596779" d="M58.737,377.588H56.4l-14.124.972V373.6l14.124.972h2.341a.68.68,0,0,1,.68.68v1.658A.68.68,0,0,1,58.737,377.588Z" transform="translate(-33.79 -285.176)" fill="#e68415"/>
      <path id="Trazado_596780" data-name="Trazado 596780" d="M31.97,374.57v3.018l1.458.972,1.458-.972V374.57l-1.458-.972Z" transform="translate(-24.46 -285.176)" fill="#d86004"/>
      <path id="Trazado_596781" data-name="Trazado 596781" d="M27.441,354.919h-15.1L10.3,353.409l2.044-1.509H26.76a.68.68,0,0,1,.68.68v2.338Z" transform="translate(-4.835 -265.525)" fill="#fed44c"/>
      <path id="Trazado_596782" data-name="Trazado 596782" d="M0,352.579v1.658a.68.68,0,0,0,.68.68H3.016V351.9H.68a.68.68,0,0,0-.68.68Z" transform="translate(4.495 -265.524)" fill="#f2b84c"/>
      <path id="Trazado_596783" data-name="Trazado 596783" d="M27.441,418.919h-15.1L10.3,417.409l2.044-1.509h15.1Z" transform="translate(-4.835 -323.487)" fill="#fed44c"/>
      <path id="Trazado_596784" data-name="Trazado 596784" d="M0,416.579v1.658a.68.68,0,0,0,.68.68H3.016V415.9H.68a.68.68,0,0,0-.68.68Z" transform="translate(4.495 -323.486)" fill="#f2b84c"/>
    </g>
  </g>
</svg>
