<svg xmlns="http://www.w3.org/2000/svg" width="140" height="105" viewBox="0 0 140 105">
  <g id="Grupo_876032" data-name="Grupo 876032" transform="translate(-520 -5905)">
    <g id="Grupo_874629" data-name="Grupo 874629" transform="translate(0 -1857)">
      <rect id="Rectángulo_291466" data-name="Rectángulo 291466" width="140" height="75" transform="translate(520 7779)" fill="none"/>
      <g id="Grupo_874624" data-name="Grupo 874624" transform="translate(1)">
        <g id="Grupo_874620" data-name="Grupo 874620" transform="translate(832 9613.532) rotate(180)">
          <circle id="Elipse_4713" data-name="Elipse 4713" cx="2.5" cy="2.5" r="2.5" transform="translate(285 1799.532)" fill="#f3ab1d"/>
          <circle id="Elipse_4717" data-name="Elipse 4717" cx="2.5" cy="2.5" r="2.5" transform="translate(285 1811.532)" fill="#f3ab1d"/>
          <circle id="Elipse_4719" data-name="Elipse 4719" cx="2.5" cy="2.5" r="2.5" transform="translate(285 1823.532)" fill="#f3ab1d"/>
          <circle id="Elipse_4715" data-name="Elipse 4715" cx="2.5" cy="2.5" r="2.5" transform="translate(297 1799.532)" fill="#f3ab1d"/>
          <circle id="Elipse_4720" data-name="Elipse 4720" cx="2.5" cy="2.5" r="2.5" transform="translate(308 1799.532)" fill="#f3ab1d"/>
          <circle id="Elipse_4716" data-name="Elipse 4716" cx="2.5" cy="2.5" r="2.5" transform="translate(297 1811.532)" fill="#f3ab1d"/>
          <circle id="Elipse_4721" data-name="Elipse 4721" cx="2.5" cy="2.5" r="2.5" transform="translate(308 1811.532)" fill="#f3ab1d"/>
          <circle id="Elipse_4718" data-name="Elipse 4718" cx="2.5" cy="2.5" r="2.5" transform="translate(297 1823.532)" fill="#f3ab1d"/>
          <circle id="Elipse_4722" data-name="Elipse 4722" cx="2.5" cy="2.5" r="2.5" transform="translate(308 1823.532)" fill="#f3ab1d"/>
        </g>
        <g id="Grupo_874621" data-name="Grupo 874621" transform="translate(832 9648.532) rotate(180)">
          <circle id="Elipse_4713-2" data-name="Elipse 4713" cx="2.5" cy="2.5" r="2.5" transform="translate(285 1799.532)" fill="#f3ab1d"/>
          <circle id="Elipse_4717-2" data-name="Elipse 4717" cx="2.5" cy="2.5" r="2.5" transform="translate(285 1811.532)" fill="#f3ab1d"/>
          <circle id="Elipse_4719-2" data-name="Elipse 4719" cx="2.5" cy="2.5" r="2.5" transform="translate(285 1823.532)" fill="#f3ab1d"/>
          <circle id="Elipse_4715-2" data-name="Elipse 4715" cx="2.5" cy="2.5" r="2.5" transform="translate(297 1799.532)" fill="#f3ab1d"/>
          <circle id="Elipse_4720-2" data-name="Elipse 4720" cx="2.5" cy="2.5" r="2.5" transform="translate(308 1799.532)" fill="#f3ab1d"/>
          <circle id="Elipse_4716-2" data-name="Elipse 4716" cx="2.5" cy="2.5" r="2.5" transform="translate(297 1811.532)" fill="#f3ab1d"/>
          <circle id="Elipse_4721-2" data-name="Elipse 4721" cx="2.5" cy="2.5" r="2.5" transform="translate(308 1811.532)" fill="#f3ab1d"/>
          <circle id="Elipse_4718-2" data-name="Elipse 4718" cx="2.5" cy="2.5" r="2.5" transform="translate(297 1823.532)" fill="#f3ab1d"/>
          <circle id="Elipse_4722-2" data-name="Elipse 4722" cx="2.5" cy="2.5" r="2.5" transform="translate(308 1823.532)" fill="#f3ab1d"/>
        </g>
      </g>
      <g id="Grupo_874623" data-name="Grupo 874623" transform="translate(63 5409)">
        <circle id="Elipse_4723" data-name="Elipse 4723" cx="52.5" cy="52.5" r="52.5" transform="translate(475 2353)" fill="#fff"/>
        <path id="Trazado_596604" data-name="Trazado 596604" d="M46.62,0A46.62,46.62,0,1,1,0,46.62,46.62,46.62,0,0,1,46.62,0Z" transform="translate(480.88 2358.88)" fill="#d9e9f1" opacity="0.7"/>
      </g>
      <g id="Grupo_874622" data-name="Grupo 874622" transform="translate(634.019 7829.184)">
        <g id="Grupo_151688" data-name="Grupo 151688" transform="translate(0 4.964)">
          <path id="Trazado_212295" data-name="Trazado 212295" d="M-11425.02-11468v9.927" transform="translate(11429.982 11467.997)" fill="none" stroke="#26779f" stroke-width="4"/>
          <path id="Trazado_212296" data-name="Trazado 212296" d="M0,0V9.926" transform="translate(9.926 4.963) rotate(90)" fill="none" stroke="#26779f" stroke-width="4"/>
        </g>
        <g id="Grupo_151689" data-name="Grupo 151689" transform="translate(12.905 0)">
          <path id="Trazado_212295-2" data-name="Trazado 212295" d="M-11425.02-11468v9.927" transform="translate(11429.982 11467.997)" fill="none" stroke="#26779f" stroke-width="4"/>
          <path id="Trazado_212296-2" data-name="Trazado 212296" d="M0,0V9.926" transform="translate(9.926 4.963) rotate(90)" fill="none" stroke="#26779f" stroke-width="4"/>
        </g>
        <g id="Grupo_151690" data-name="Grupo 151690" transform="translate(15.055 14.89)">
          <path id="Trazado_212295-3" data-name="Trazado 212295" d="M-11425.02-11468v9.927" transform="translate(11429.982 11467.997)" fill="none" stroke="#26779f" stroke-width="4"/>
          <path id="Trazado_212296-3" data-name="Trazado 212296" d="M0,0V9.926" transform="translate(9.926 4.963) rotate(90)" fill="none" stroke="#26779f" stroke-width="4"/>
        </g>
      </g>
    </g>
    <g id="Layer_1" transform="translate(496.822 5844.915)">
      <g id="Grupo_874846" data-name="Grupo 874846" transform="translate(61.94 85.888)">
        <g id="Grupo_874845" data-name="Grupo 874845" transform="translate(0 0)">
          <g id="Grupo_874834" data-name="Grupo 874834">
            <path id="Trazado_598143" data-name="Trazado 598143" d="M125.417,87.594v35.55H61.94V87.594a1.706,1.706,0,0,1,1.706-1.706H123.71A1.707,1.707,0,0,1,125.417,87.594Z" transform="translate(-61.94 -85.888)" fill="#0f4d80" fill-rule="evenodd"/>
            <path id="Trazado_598144" data-name="Trazado 598144" d="M73.832,97.78h59.381v32.734H73.832Z" transform="translate(-71.784 -95.732)" fill="#a7cdeb" fill-rule="evenodd"/>
            <path id="Trazado_598145" data-name="Trazado 598145" d="M227.829,344.795l-1.706-7.4h-6.269l-1.706,7.4Z" transform="translate(-191.249 -294.084)" fill="#0f4d80" fill-rule="evenodd"/>
            <path id="Trazado_598146" data-name="Trazado 598146" d="M195.227,383.025H168.42v-1.6a3.508,3.508,0,0,1,3.508-3.508h19.792a3.508,3.508,0,0,1,3.508,3.508Z" transform="translate(-150.085 -327.63)" fill="#3680ba" fill-rule="evenodd"/>
            <path id="Trazado_598147" data-name="Trazado 598147" d="M125.417,299.777v5.2a1.706,1.706,0,0,1-1.706,1.706H63.646a1.706,1.706,0,0,1-1.706-1.706v-5.2Z" transform="translate(-61.94 -262.947)" fill="#3680ba" fill-rule="evenodd"/>
          </g>
          <g id="Grupo_874835" data-name="Grupo 874835" transform="translate(29.198 39.684)">
            <path id="Trazado_598148" data-name="Trazado 598148" d="M235.993,317.548h-3.886a.6.6,0,0,1,0-1.194h3.886a.6.6,0,1,1,0,1.194Z" transform="translate(-231.51 -316.354)" fill="#e9ecf4" fill-rule="evenodd"/>
          </g>
          <g id="Grupo_874844" data-name="Grupo 874844" transform="translate(11.618 5.153)">
            <g id="Grupo_874839" data-name="Grupo 874839">
              <path id="Trazado_598149" data-name="Trazado 598149" d="M167.642,141.285V160.5a1.352,1.352,0,0,1-1.352,1.352H130.766a1.352,1.352,0,0,1-1.352-1.352V141.285Z" transform="translate(-129.414 -136.899)" fill="#f0f2f7" fill-rule="evenodd"/>
              <g id="Grupo_874838" data-name="Grupo 874838">
                <path id="Trazado_598150" data-name="Trazado 598150" d="M167.642,117.165v3.1H129.414v-3.1a1.352,1.352,0,0,1,1.352-1.352H166.29A1.352,1.352,0,0,1,167.642,117.165Z" transform="translate(-129.414 -115.813)" fill="#f3ab1d" fill-rule="evenodd"/>
                <g id="Grupo_874836" data-name="Grupo 874836" transform="translate(2.713 1.893)">
                  <path id="Trazado_598151" data-name="Trazado 598151" d="M166.358,127.468H145.5a.331.331,0,1,1,0-.663h20.855a.331.331,0,0,1,0,.663Z" transform="translate(-145.171 -126.805)" fill="#e9ecf4" fill-rule="evenodd"/>
                </g>
                <g id="Grupo_874837" data-name="Grupo 874837" transform="translate(28.487 1.758)">
                  <path id="Trazado_598152" data-name="Trazado 598152" d="M328.105,126.489a.466.466,0,1,0-.466.466A.467.467,0,0,0,328.105,126.489Z" transform="translate(-321.607 -126.023)" fill="#e9ecf4" fill-rule="evenodd"/>
                  <path id="Trazado_598153" data-name="Trazado 598153" d="M311.944,126.489a.466.466,0,1,0-.466.466A.467.467,0,0,0,311.944,126.489Z" transform="translate(-308.229 -126.023)" fill="#e9ecf4" fill-rule="evenodd"/>
                  <path id="Trazado_598154" data-name="Trazado 598154" d="M295.783,126.489a.466.466,0,1,0-.466.466A.467.467,0,0,0,295.783,126.489Z" transform="translate(-294.851 -126.023)" fill="#e9ecf4" fill-rule="evenodd"/>
                </g>
              </g>
            </g>
            <g id="Grupo_874842" data-name="Grupo 874842" transform="translate(7.157 10.707)">
              <g id="Grupo_874840" data-name="Grupo 874840" transform="translate(0)">
                <path id="Trazado_598155" data-name="Trazado 598155" d="M186.159,179.357h-14.5a.683.683,0,1,1,0-1.365h14.5a.683.683,0,0,1,0,1.365Z" transform="translate(-170.976 -177.992)" fill="#72767a" fill-rule="evenodd"/>
              </g>
              <g id="Grupo_874841" data-name="Grupo 874841" transform="translate(0 5.188)">
                <path id="Trazado_598156" data-name="Trazado 598156" d="M192.745,209.486H171.659a.683.683,0,1,1,0-1.365h21.086a.683.683,0,1,1,0,1.365Z" transform="translate(-170.976 -208.121)" fill="#72767a" fill-rule="evenodd"/>
              </g>
            </g>
            <g id="Grupo_874843" data-name="Grupo 874843" transform="translate(30.562 17.26)">
              <path id="Trazado_598157" data-name="Trazado 598157" d="M310.483,218.161l2.413,2.413-1.468,1.467-2.413-2.413h0l-1.06,1.061-1.051-4.64,4.64,1.051-1.061,1.06Z" transform="translate(-306.904 -216.049)" fill="#bebfc7" fill-rule="evenodd"/>
            </g>
          </g>
        </g>
      </g>
    </g>
  </g>
</svg>
