<svg xmlns="http://www.w3.org/2000/svg" width="140" height="105" viewBox="0 0 140 105">
  <g id="Grupo_876031" data-name="Grupo 876031" transform="translate(-940 -5905)">
    <g id="Grupo_874628" data-name="Grupo 874628" transform="translate(0 -1857)">
      <rect id="Rectángulo_291467" data-name="Rectángulo 291467" width="140" height="75" transform="translate(940 7779)" fill="none"/>
      <g id="Grupo_874625" data-name="Grupo 874625" transform="translate(421)">
        <g id="Grupo_874620" data-name="Grupo 874620" transform="translate(832 9613.532) rotate(180)">
          <circle id="Elipse_4713" data-name="Elipse 4713" cx="2.5" cy="2.5" r="2.5" transform="translate(285 1799.532)" fill="#f3ab1d"/>
          <circle id="Elipse_4717" data-name="Elipse 4717" cx="2.5" cy="2.5" r="2.5" transform="translate(285 1811.532)" fill="#f3ab1d"/>
          <circle id="Elipse_4719" data-name="Elipse 4719" cx="2.5" cy="2.5" r="2.5" transform="translate(285 1823.532)" fill="#f3ab1d"/>
          <circle id="Elipse_4715" data-name="Elipse 4715" cx="2.5" cy="2.5" r="2.5" transform="translate(297 1799.532)" fill="#f3ab1d"/>
          <circle id="Elipse_4720" data-name="Elipse 4720" cx="2.5" cy="2.5" r="2.5" transform="translate(308 1799.532)" fill="#f3ab1d"/>
          <circle id="Elipse_4716" data-name="Elipse 4716" cx="2.5" cy="2.5" r="2.5" transform="translate(297 1811.532)" fill="#f3ab1d"/>
          <circle id="Elipse_4721" data-name="Elipse 4721" cx="2.5" cy="2.5" r="2.5" transform="translate(308 1811.532)" fill="#f3ab1d"/>
          <circle id="Elipse_4718" data-name="Elipse 4718" cx="2.5" cy="2.5" r="2.5" transform="translate(297 1823.532)" fill="#f3ab1d"/>
          <circle id="Elipse_4722" data-name="Elipse 4722" cx="2.5" cy="2.5" r="2.5" transform="translate(308 1823.532)" fill="#f3ab1d"/>
        </g>
        <g id="Grupo_874621" data-name="Grupo 874621" transform="translate(832 9648.532) rotate(180)">
          <circle id="Elipse_4713-2" data-name="Elipse 4713" cx="2.5" cy="2.5" r="2.5" transform="translate(285 1799.532)" fill="#f3ab1d"/>
          <circle id="Elipse_4717-2" data-name="Elipse 4717" cx="2.5" cy="2.5" r="2.5" transform="translate(285 1811.532)" fill="#f3ab1d"/>
          <circle id="Elipse_4719-2" data-name="Elipse 4719" cx="2.5" cy="2.5" r="2.5" transform="translate(285 1823.532)" fill="#f3ab1d"/>
          <circle id="Elipse_4715-2" data-name="Elipse 4715" cx="2.5" cy="2.5" r="2.5" transform="translate(297 1799.532)" fill="#f3ab1d"/>
          <circle id="Elipse_4720-2" data-name="Elipse 4720" cx="2.5" cy="2.5" r="2.5" transform="translate(308 1799.532)" fill="#f3ab1d"/>
          <circle id="Elipse_4716-2" data-name="Elipse 4716" cx="2.5" cy="2.5" r="2.5" transform="translate(297 1811.532)" fill="#f3ab1d"/>
          <circle id="Elipse_4721-2" data-name="Elipse 4721" cx="2.5" cy="2.5" r="2.5" transform="translate(308 1811.532)" fill="#f3ab1d"/>
          <circle id="Elipse_4718-2" data-name="Elipse 4718" cx="2.5" cy="2.5" r="2.5" transform="translate(297 1823.532)" fill="#f3ab1d"/>
          <circle id="Elipse_4722-2" data-name="Elipse 4722" cx="2.5" cy="2.5" r="2.5" transform="translate(308 1823.532)" fill="#f3ab1d"/>
        </g>
      </g>
      <g id="Grupo_874626" data-name="Grupo 874626" transform="translate(483 5409)">
        <circle id="Elipse_4723" data-name="Elipse 4723" cx="52.5" cy="52.5" r="52.5" transform="translate(475 2353)" fill="#fff"/>
        <path id="Trazado_596604" data-name="Trazado 596604" d="M46.62,0A46.62,46.62,0,1,1,0,46.62,46.62,46.62,0,0,1,46.62,0Z" transform="translate(480.88 2358.88)" fill="#e3f7f0" opacity="0.7"/>
      </g>
      <g id="Grupo_874627" data-name="Grupo 874627" transform="translate(1054.019 7829.184)">
        <g id="Grupo_151688" data-name="Grupo 151688" transform="translate(0 4.964)">
          <path id="Trazado_212295" data-name="Trazado 212295" d="M-11425.02-11468v9.927" transform="translate(11429.982 11467.997)" fill="none" stroke="#26779f" stroke-width="4"/>
          <path id="Trazado_212296" data-name="Trazado 212296" d="M0,0V9.926" transform="translate(9.926 4.963) rotate(90)" fill="none" stroke="#26779f" stroke-width="4"/>
        </g>
        <g id="Grupo_151689" data-name="Grupo 151689" transform="translate(12.905 0)">
          <path id="Trazado_212295-2" data-name="Trazado 212295" d="M-11425.02-11468v9.927" transform="translate(11429.982 11467.997)" fill="none" stroke="#26779f" stroke-width="4"/>
          <path id="Trazado_212296-2" data-name="Trazado 212296" d="M0,0V9.926" transform="translate(9.926 4.963) rotate(90)" fill="none" stroke="#26779f" stroke-width="4"/>
        </g>
        <g id="Grupo_151690" data-name="Grupo 151690" transform="translate(15.055 14.89)">
          <path id="Trazado_212295-3" data-name="Trazado 212295" d="M-11425.02-11468v9.927" transform="translate(11429.982 11467.997)" fill="none" stroke="#26779f" stroke-width="4"/>
          <path id="Trazado_212296-3" data-name="Trazado 212296" d="M0,0V9.926" transform="translate(9.926 4.963) rotate(90)" fill="none" stroke="#26779f" stroke-width="4"/>
        </g>
      </g>
    </g>
    <g id="entrega" transform="translate(983.396 5932.408)">
      <g id="Grupo_874849" data-name="Grupo 874849" transform="translate(0.146 0)">
        <g id="Grupo_874848" data-name="Grupo 874848" transform="translate(0)">
          <g id="Grupo_874847" data-name="Grupo 874847">
            <path id="Trazado_598158" data-name="Trazado 598158" d="M49.223,0H31.683V1.332H19.649V0H2.224A2.078,2.078,0,0,0,.146,2.078V49.114a1.963,1.963,0,0,0,1.963,1.963H48.17a3.016,3.016,0,0,0,3.016-3.016V1.963A1.963,1.963,0,0,0,49.223,0Z" transform="translate(-0.146)" fill="#e6b77b"/>
          </g>
        </g>
      </g>
      <path id="Trazado_598159" data-name="Trazado 598159" d="M261.068,0H244.291V1.332h-6V12.223h-.02V51.077H261.93a1.864,1.864,0,0,0,1.864-1.865V2.086A2.735,2.735,0,0,0,261.068,0Z" transform="translate(-212.608 0)" fill="#d9a96a"/>
      <path id="Trazado_598160" data-name="Trazado 598160" d="M49.108,0H31.683V1.332H19.649V0H2.061A1.916,1.916,0,0,0,.146,1.917V12.223h51.04V2.08A2.079,2.079,0,0,0,49.108,0Z" transform="translate(0 0)" fill="#bd9765"/>
      <path id="Trazado_598161" data-name="Trazado 598161" d="M261.837,0H244.291V1.332h-6.017V12.223h25.52V1.959A1.958,1.958,0,0,0,261.837,0Z" transform="translate(-212.608 0)" fill="#bd9765"/>
      <path id="Trazado_598162" data-name="Trazado 598162" d="M52.719,335.538H37.033a1.07,1.07,0,0,1-1.07-1.07V325.94a1.07,1.07,0,0,1,1.07-1.07H52.719a1.07,1.07,0,0,1,1.07,1.07v8.529A1.07,1.07,0,0,1,52.719,335.538Z" transform="translate(-31.979 -290.054)" fill="#ffda2d"/>
      <path id="Trazado_598163" data-name="Trazado 598163" d="M193.457,20.73H182.835a.706.706,0,0,1-.706-.706V0h12.034V20.024a.706.706,0,0,1-.706.706Z" transform="translate(-162.48 0)" fill="#ffe470"/>
      <path id="Trazado_598164" data-name="Trazado 598164" d="M238.275.043V20.687a.043.043,0,0,0,.043.043h5.364a.61.61,0,0,0,.61-.61V.043A.043.043,0,0,0,244.249,0h-5.931a.043.043,0,0,0-.043.043Z" transform="translate(-212.609 0)" fill="#ffda2d"/>
      <g id="Grupo_874851" data-name="Grupo 874851" transform="translate(3.671 27.695)">
        <g id="Grupo_874850" data-name="Grupo 874850">
          <path id="Trazado_598165" data-name="Trazado 598165" d="M49.858,261.769H34.664a1.673,1.673,0,0,1,0-3.345H49.858a1.673,1.673,0,0,1,0,3.345Z" transform="translate(-33.034 -258.424)" fill="#f3ab1d"/>
        </g>
      </g>
      <circle id="Elipse_5503" data-name="Elipse 5503" cx="11.091" cy="11.091" r="11.091" transform="translate(32.777 32.662)" fill="#bee75e"/>
      <path id="Trazado_598166" data-name="Trazado 598166" d="M408.077,304.774h-.005v22.183h.005a11.091,11.091,0,1,0,0-22.183Z" transform="translate(-364.209 -272.112)" fill="#00da80"/>
      <path id="Trazado_598167" data-name="Trazado 598167" d="M362.369,366.612a1.654,1.654,0,0,0-2.339,0l-4.555,4.555-2.148-2.148a1.654,1.654,0,0,0-2.339,2.339l3.318,3.318a1.654,1.654,0,0,0,2.339,0l5.724-5.724A1.654,1.654,0,0,0,362.369,366.612Z" transform="translate(-312.809 -326.89)" fill="#fff"/>
      <path id="Trazado_598168" data-name="Trazado 598168" d="M411.429,366.612l-3.357,3.357v4.678l5.7-5.7a1.654,1.654,0,0,0-2.339-2.339Z" transform="translate(-364.209 -326.89)" fill="#e6ffff"/>
    </g>
  </g>
</svg>
