<svg xmlns="http://www.w3.org/2000/svg" width="140" height="105" viewBox="0 0 140 105">
  <g id="Grupo_876033" data-name="Grupo 876033" transform="translate(2250 5737)">
    <g id="Grupo_874768" data-name="Grupo 874768" transform="translate(-2770 -13499)">
      <rect id="Rectángulo_291466" data-name="Rectángulo 291466" width="140" height="75" transform="translate(520 7779)" fill="none"/>
      <g id="Grupo_874624" data-name="Grupo 874624" transform="translate(1)">
        <g id="Grupo_874620" data-name="Grupo 874620" transform="translate(832 9613.532) rotate(180)">
          <circle id="Elipse_4713" data-name="Elipse 4713" cx="2.5" cy="2.5" r="2.5" transform="translate(285 1799.532)" fill="#f3ab1d"/>
          <circle id="Elipse_4717" data-name="Elipse 4717" cx="2.5" cy="2.5" r="2.5" transform="translate(285 1811.532)" fill="#f3ab1d"/>
          <circle id="Elipse_4719" data-name="Elipse 4719" cx="2.5" cy="2.5" r="2.5" transform="translate(285 1823.532)" fill="#f3ab1d"/>
          <circle id="Elipse_4715" data-name="Elipse 4715" cx="2.5" cy="2.5" r="2.5" transform="translate(297 1799.532)" fill="#f3ab1d"/>
          <circle id="Elipse_4720" data-name="Elipse 4720" cx="2.5" cy="2.5" r="2.5" transform="translate(308 1799.532)" fill="#f3ab1d"/>
          <circle id="Elipse_4716" data-name="Elipse 4716" cx="2.5" cy="2.5" r="2.5" transform="translate(297 1811.532)" fill="#f3ab1d"/>
          <circle id="Elipse_4721" data-name="Elipse 4721" cx="2.5" cy="2.5" r="2.5" transform="translate(308 1811.532)" fill="#f3ab1d"/>
          <circle id="Elipse_4718" data-name="Elipse 4718" cx="2.5" cy="2.5" r="2.5" transform="translate(297 1823.532)" fill="#f3ab1d"/>
          <circle id="Elipse_4722" data-name="Elipse 4722" cx="2.5" cy="2.5" r="2.5" transform="translate(308 1823.532)" fill="#f3ab1d"/>
        </g>
        <g id="Grupo_874621" data-name="Grupo 874621" transform="translate(832 9648.532) rotate(180)">
          <circle id="Elipse_4713-2" data-name="Elipse 4713" cx="2.5" cy="2.5" r="2.5" transform="translate(285 1799.532)" fill="#f3ab1d"/>
          <circle id="Elipse_4717-2" data-name="Elipse 4717" cx="2.5" cy="2.5" r="2.5" transform="translate(285 1811.532)" fill="#f3ab1d"/>
          <circle id="Elipse_4719-2" data-name="Elipse 4719" cx="2.5" cy="2.5" r="2.5" transform="translate(285 1823.532)" fill="#f3ab1d"/>
          <circle id="Elipse_4715-2" data-name="Elipse 4715" cx="2.5" cy="2.5" r="2.5" transform="translate(297 1799.532)" fill="#f3ab1d"/>
          <circle id="Elipse_4720-2" data-name="Elipse 4720" cx="2.5" cy="2.5" r="2.5" transform="translate(308 1799.532)" fill="#f3ab1d"/>
          <circle id="Elipse_4716-2" data-name="Elipse 4716" cx="2.5" cy="2.5" r="2.5" transform="translate(297 1811.532)" fill="#f3ab1d"/>
          <circle id="Elipse_4721-2" data-name="Elipse 4721" cx="2.5" cy="2.5" r="2.5" transform="translate(308 1811.532)" fill="#f3ab1d"/>
          <circle id="Elipse_4718-2" data-name="Elipse 4718" cx="2.5" cy="2.5" r="2.5" transform="translate(297 1823.532)" fill="#f3ab1d"/>
          <circle id="Elipse_4722-2" data-name="Elipse 4722" cx="2.5" cy="2.5" r="2.5" transform="translate(308 1823.532)" fill="#f3ab1d"/>
        </g>
      </g>
      <g id="Grupo_874623" data-name="Grupo 874623" transform="translate(63 5409)">
        <circle id="Elipse_4723" data-name="Elipse 4723" cx="52.5" cy="52.5" r="52.5" transform="translate(475 2353)" fill="#fff"/>
        <path id="Trazado_596604" data-name="Trazado 596604" d="M46.62,0A46.62,46.62,0,1,1,0,46.62,46.62,46.62,0,0,1,46.62,0Z" transform="translate(480.88 2358.88)" fill="#d9e9f1" opacity="0.7"/>
      </g>
      <g id="Grupo_874622" data-name="Grupo 874622" transform="translate(634.019 7829.184)">
        <g id="Grupo_151688" data-name="Grupo 151688" transform="translate(0 4.964)">
          <path id="Trazado_212295" data-name="Trazado 212295" d="M-11425.02-11468v9.927" transform="translate(11429.982 11467.997)" fill="none" stroke="#26779f" stroke-width="4"/>
          <path id="Trazado_212296" data-name="Trazado 212296" d="M0,0V9.926" transform="translate(9.926 4.963) rotate(90)" fill="none" stroke="#26779f" stroke-width="4"/>
        </g>
        <g id="Grupo_151689" data-name="Grupo 151689" transform="translate(12.905 0)">
          <path id="Trazado_212295-2" data-name="Trazado 212295" d="M-11425.02-11468v9.927" transform="translate(11429.982 11467.997)" fill="none" stroke="#26779f" stroke-width="4"/>
          <path id="Trazado_212296-2" data-name="Trazado 212296" d="M0,0V9.926" transform="translate(9.926 4.963) rotate(90)" fill="none" stroke="#26779f" stroke-width="4"/>
        </g>
        <g id="Grupo_151690" data-name="Grupo 151690" transform="translate(15.055 14.89)">
          <path id="Trazado_212295-3" data-name="Trazado 212295" d="M-11425.02-11468v9.927" transform="translate(11429.982 11467.997)" fill="none" stroke="#26779f" stroke-width="4"/>
          <path id="Trazado_212296-3" data-name="Trazado 212296" d="M0,0V9.926" transform="translate(9.926 4.963) rotate(90)" fill="none" stroke="#26779f" stroke-width="4"/>
        </g>
      </g>
    </g>
    <g id="materias-primas" transform="translate(-2232.908 -5730.361)">
      <g id="Grupo_874856" data-name="Grupo 874856" transform="translate(25.741 17.021)">
        <g id="Grupo_874855" data-name="Grupo 874855" transform="translate(0)">
          <path id="Trazado_598222" data-name="Trazado 598222" d="M66.994,94.666A27.671,27.671,0,1,1,94.666,66.994,27.7,27.7,0,0,1,66.994,94.666Zm0-50.35A22.679,22.679,0,1,0,89.673,66.994,22.7,22.7,0,0,0,66.994,44.316Z" transform="translate(-39.323 -39.323)" fill="#808285"/>
        </g>
      </g>
      <g id="Grupo_874858" data-name="Grupo 874858" transform="translate(26.988 23.174)">
        <g id="Grupo_874857" data-name="Grupo 874857" transform="translate(0)">
          <path id="Trazado_598223" data-name="Trazado 598223" d="M69.743,106.985A26.46,26.46,0,0,1,43.319,80.56a26.128,26.128,0,0,1,2.422-11.043,26.414,26.414,0,0,1,2.817-4.734,26.935,26.935,0,0,1,3.713-4.032.645.645,0,0,1,.883.056.623.623,0,0,1-.056.88,25.176,25.176,0,0,0,16.645,44.048.624.624,0,1,1,0,1.248Zm-15.109-46.7a.625.625,0,0,1-.369-1.13.646.646,0,0,1,.874.14.624.624,0,0,1-.14.871A.615.615,0,0,1,54.634,60.284Z" transform="translate(-43.319 -59.043)" fill="#939598"/>
        </g>
      </g>
      <g id="Grupo_874882" data-name="Grupo 874882" transform="translate(62.651 51.057)">
        <g id="Grupo_874859" data-name="Grupo 874859">
          <circle id="Elipse_5505" data-name="Elipse 5505" cx="12.293" cy="12.293" r="12.293" fill="#e7b96d"/>
        </g>
        <g id="Grupo_874861" data-name="Grupo 874861" transform="translate(2.856 2.856)">
          <path id="Trazado_598225" data-name="Trazado 598225" d="M184.073,157.547a12.293,12.293,0,0,1-17.315,17.315,12.293,12.293,0,1,0,17.315-17.315Z" transform="translate(-166.758 -157.547)" fill="#cd9e4f"/>
        </g>
        <g id="Grupo_874881" data-name="Grupo 874881" transform="translate(6.381 3.752)">
          <g id="Grupo_874880" data-name="Grupo 874880">
            <g id="Grupo_874879" data-name="Grupo 874879">
              <g id="Grupo_874878" data-name="Grupo 874878">
                <g id="Grupo_874864" data-name="Grupo 874864">
                  <g id="Grupo_874863" data-name="Grupo 874863">
                    <g id="Grupo_874862" data-name="Grupo 874862">
                      <path id="Trazado_598226" data-name="Trazado 598226" d="M188.605,166.217a.293.293,0,0,0-.446.076,4.821,4.821,0,0,1-2.624,2.179,4.767,4.767,0,0,0,.579-4.95,7.546,7.546,0,0,0-3.159-3.017.656.656,0,0,0-.956.728,4.463,4.463,0,0,1-1.582,4.875,6.365,6.365,0,1,0,8.188.109Z" transform="translate(-178.055 -160.418)" fill="#478cf7"/>
                    </g>
                  </g>
                </g>
                <g id="Grupo_874868" data-name="Grupo 874868" transform="translate(1.543 5.76)">
                  <g id="Grupo_874867" data-name="Grupo 874867">
                    <g id="Grupo_874866" data-name="Grupo 874866">
                      <g id="Grupo_874865" data-name="Grupo 874865">
                        <path id="Trazado_598227" data-name="Trazado 598227" d="M192.007,178.916a.271.271,0,0,0-.056-.039,6.4,6.4,0,0,1-.92,8.938A6.208,6.208,0,0,1,183,187.8a6.234,6.234,0,0,0,8.878.857,6.382,6.382,0,0,0,.13-9.745Z" transform="translate(-182.999 -178.877)" fill="#377de2"/>
                      </g>
                    </g>
                  </g>
                </g>
                <g id="Grupo_874871" data-name="Grupo 874871" transform="translate(5.937 5.743)">
                  <g id="Grupo_874870" data-name="Grupo 874870">
                    <g id="Grupo_874869" data-name="Grupo 874869">
                      <path id="Trazado_598228" data-name="Trazado 598228" d="M201.275,179.862a3.513,3.513,0,0,0,.134-1.038h0a.286.286,0,0,0-.159.132,4.821,4.821,0,0,1-2.624,2.179l0,0-.006,0c-.073.1-1.073,1.531-1.512,2.157a.152.152,0,0,0,.036.213A5.174,5.174,0,0,0,201.275,179.862Z" transform="translate(-197.082 -178.823)" fill="#377de2"/>
                    </g>
                  </g>
                </g>
                <g id="Grupo_874874" data-name="Grupo 874874" transform="translate(1.381 9.366)">
                  <g id="Grupo_874873" data-name="Grupo 874873">
                    <g id="Grupo_874872" data-name="Grupo 874872">
                      <path id="Trazado_598229" data-name="Trazado 598229" d="M193.017,194.851l0-.015c-.189.071-.279.226-.45.388a3.163,3.163,0,0,1-5-.919.155.155,0,0,0-.29.056,3.188,3.188,0,0,0,1.06,2.747.153.153,0,0,1-.126.263,4.468,4.468,0,0,1-3-6.7.153.153,0,0,0-.2-.217,4.627,4.627,0,0,0-2.393,5.271h0a6.236,6.236,0,0,0,8.907.89,6.122,6.122,0,0,0,1.5-1.757Z" transform="translate(-182.48 -190.432)" fill="#2266d3"/>
                    </g>
                  </g>
                </g>
                <g id="Grupo_874877" data-name="Grupo 874877" transform="translate(0.027 0.149)">
                  <g id="Grupo_874876" data-name="Grupo 874876">
                    <g id="Grupo_874875" data-name="Grupo 874875">
                      <path id="Trazado_598230" data-name="Trazado 598230" d="M182.285,160.9a.632.632,0,0,0-.228.666,4.463,4.463,0,0,1-1.582,4.875,6.567,6.567,0,0,0-2.335,4.306,10.957,10.957,0,0,1,3.179-2.869,4.72,4.72,0,0,0,.967-6.977Z" transform="translate(-178.14 -160.896)" fill="#377de2"/>
                    </g>
                  </g>
                </g>
              </g>
            </g>
          </g>
        </g>
      </g>
      <g id="Grupo_874890" data-name="Grupo 874890" transform="translate(19.58 51.042)">
        <g id="Grupo_874883" data-name="Grupo 874883" transform="translate(0)">
          <circle id="Elipse_5506" data-name="Elipse 5506" cx="12.3" cy="12.3" r="12.3" fill="#e7b96d"/>
        </g>
        <g id="Grupo_874884" data-name="Grupo 874884" transform="translate(2.858 2.858)">
          <path id="Trazado_598231" data-name="Trazado 598231" d="M46.063,157.508a12.3,12.3,0,0,1-17.325,17.325,12.3,12.3,0,1,0,17.325-17.325Z" transform="translate(-28.738 -157.508)" fill="#cd9e4f"/>
        </g>
        <g id="Grupo_874889" data-name="Grupo 874889" transform="translate(5.077 5.879)">
          <g id="Grupo_874885" data-name="Grupo 874885" transform="translate(0 0)">
            <path id="Trazado_598232" data-name="Trazado 598232" d="M46.066,167.19H40.078a1.235,1.235,0,0,0-1.07.618l-2.994,5.186a1.236,1.236,0,0,0,0,1.236l2.994,5.186a1.236,1.236,0,0,0,1.07.618h5.988a1.235,1.235,0,0,0,1.07-.618l2.994-5.186a1.236,1.236,0,0,0,0-1.236l-2.994-5.186A1.235,1.235,0,0,0,46.066,167.19Z" transform="translate(-35.849 -167.19)" fill="#808285"/>
          </g>
          <g id="Grupo_874886" data-name="Grupo 874886" transform="translate(7.224 6.528)">
            <path id="Trazado_598233" data-name="Trazado 598233" d="M63.062,193.807l2.994-5.187a1.236,1.236,0,0,0,.161-.511l-6.161,3.347L59,194.424h2.994A1.235,1.235,0,0,0,63.062,193.807Z" transform="translate(-58.998 -188.109)" fill="#414042"/>
          </g>
          <g id="Grupo_874887" data-name="Grupo 874887" transform="translate(0.003 6.501)">
            <path id="Trazado_598234" data-name="Trazado 598234" d="M35.857,188.021a1.233,1.233,0,0,0,.163.539l2.994,5.187a1.236,1.236,0,0,0,1.07.618h2.994l1.058-2.968Z" transform="translate(-35.857 -188.021)" fill="#58595b"/>
          </g>
          <g id="Grupo_874888" data-name="Grupo 874888" transform="translate(3.654)">
            <path id="Trazado_598235" data-name="Trazado 598235" d="M52.365,172.314l5.985,1.257a1.236,1.236,0,0,0-.165-.577l-2.994-5.187a1.236,1.236,0,0,0-1.07-.618H48.133a1.236,1.236,0,0,0-.576.143Z" transform="translate(-47.557 -167.189)" fill="#939598"/>
          </g>
        </g>
      </g>
      <g id="Grupo_874898" data-name="Grupo 874898" transform="translate(41.112 6.905)">
        <g id="Grupo_874891" data-name="Grupo 874891">
          <circle id="Elipse_5507" data-name="Elipse 5507" cx="12.3" cy="12.3" r="12.3" fill="#e7b96d"/>
        </g>
        <g id="Grupo_874892" data-name="Grupo 874892" transform="translate(2.857 2.857)">
          <path id="Trazado_598236" data-name="Trazado 598236" d="M115.064,16.062A12.3,12.3,0,0,1,97.739,33.387a12.3,12.3,0,1,0,17.325-17.325Z" transform="translate(-97.739 -16.062)" fill="#cd9e4f"/>
        </g>
        <g id="Grupo_874897" data-name="Grupo 874897" transform="translate(6.454 3.069)">
          <g id="Grupo_874895" data-name="Grupo 874895">
            <g id="Grupo_874894" data-name="Grupo 874894">
              <g id="Grupo_874893" data-name="Grupo 874893">
                <path id="Trazado_598237" data-name="Trazado 598237" d="M120.958,27.859a5.846,5.846,0,0,1-11.692,0c0-2.561,3.679-8.445,5.2-10.768a.772.772,0,0,1,1.292,0c1.521,2.323,5.2,8.206,5.2,10.768Z" transform="translate(-109.266 -16.741)" fill="#8c3f0a"/>
              </g>
            </g>
          </g>
          <g id="Grupo_874896" data-name="Grupo 874896" transform="translate(2.071 0)">
            <path id="Trazado_598238" data-name="Trazado 598238" d="M120.325,17.092a.772.772,0,0,0-1.292,0l-.2.3c1.73,2.772,4.217,7.124,4.217,9.23a5.851,5.851,0,0,1-7.149,5.7,5.846,5.846,0,0,0,9.62-4.464C125.524,25.3,121.846,19.415,120.325,17.092Z" transform="translate(-115.904 -16.742)" fill="#7c3108"/>
          </g>
        </g>
      </g>
      <g id="Grupo_874902" data-name="Grupo 874902" transform="translate(43.784 35.064)">
        <g id="Grupo_874899" data-name="Grupo 874899" transform="translate(0)">
          <circle id="Elipse_5508" data-name="Elipse 5508" cx="9.628" cy="9.628" r="9.628" fill="#58595b"/>
        </g>
        <g id="Grupo_874901" data-name="Grupo 874901" transform="translate(3.365 5.083)">
          <g id="Grupo_874900" data-name="Grupo 874900">
            <path id="Trazado_598239" data-name="Trazado 598239" d="M113.107,122.525a1.74,1.74,0,0,1-1.234-.511l-3.435-3.435a1.744,1.744,0,0,1,2.467-2.467l2.2,2.2,4.37-4.37a1.744,1.744,0,0,1,2.467,2.467l-5.6,5.6A1.741,1.741,0,0,1,113.107,122.525Z" transform="translate(-107.928 -113.434)" fill="#f1f2f2"/>
          </g>
        </g>
      </g>
    </g>
  </g>
</svg>
