<svg xmlns="http://www.w3.org/2000/svg" width="140" height="105" viewBox="0 0 140 105">
  <g id="Grupo_876034" data-name="Grupo 876034" transform="translate(1830 5737)">
    <g id="Grupo_874769" data-name="Grupo 874769" transform="translate(-2770 -13499)">
      <rect id="Rectángulo_291467" data-name="Rectángulo 291467" width="140" height="75" transform="translate(940 7779)" fill="none"/>
      <g id="Grupo_874625" data-name="Grupo 874625" transform="translate(421)">
        <g id="Grupo_874620" data-name="Grupo 874620" transform="translate(832 9613.532) rotate(180)">
          <circle id="Elipse_4713" data-name="Elipse 4713" cx="2.5" cy="2.5" r="2.5" transform="translate(285 1799.532)" fill="#f3ab1d"/>
          <circle id="Elipse_4717" data-name="Elipse 4717" cx="2.5" cy="2.5" r="2.5" transform="translate(285 1811.532)" fill="#f3ab1d"/>
          <circle id="Elipse_4719" data-name="Elipse 4719" cx="2.5" cy="2.5" r="2.5" transform="translate(285 1823.532)" fill="#f3ab1d"/>
          <circle id="Elipse_4715" data-name="Elipse 4715" cx="2.5" cy="2.5" r="2.5" transform="translate(297 1799.532)" fill="#f3ab1d"/>
          <circle id="Elipse_4720" data-name="Elipse 4720" cx="2.5" cy="2.5" r="2.5" transform="translate(308 1799.532)" fill="#f3ab1d"/>
          <circle id="Elipse_4716" data-name="Elipse 4716" cx="2.5" cy="2.5" r="2.5" transform="translate(297 1811.532)" fill="#f3ab1d"/>
          <circle id="Elipse_4721" data-name="Elipse 4721" cx="2.5" cy="2.5" r="2.5" transform="translate(308 1811.532)" fill="#f3ab1d"/>
          <circle id="Elipse_4718" data-name="Elipse 4718" cx="2.5" cy="2.5" r="2.5" transform="translate(297 1823.532)" fill="#f3ab1d"/>
          <circle id="Elipse_4722" data-name="Elipse 4722" cx="2.5" cy="2.5" r="2.5" transform="translate(308 1823.532)" fill="#f3ab1d"/>
        </g>
        <g id="Grupo_874621" data-name="Grupo 874621" transform="translate(832 9648.532) rotate(180)">
          <circle id="Elipse_4713-2" data-name="Elipse 4713" cx="2.5" cy="2.5" r="2.5" transform="translate(285 1799.532)" fill="#f3ab1d"/>
          <circle id="Elipse_4717-2" data-name="Elipse 4717" cx="2.5" cy="2.5" r="2.5" transform="translate(285 1811.532)" fill="#f3ab1d"/>
          <circle id="Elipse_4719-2" data-name="Elipse 4719" cx="2.5" cy="2.5" r="2.5" transform="translate(285 1823.532)" fill="#f3ab1d"/>
          <circle id="Elipse_4715-2" data-name="Elipse 4715" cx="2.5" cy="2.5" r="2.5" transform="translate(297 1799.532)" fill="#f3ab1d"/>
          <circle id="Elipse_4720-2" data-name="Elipse 4720" cx="2.5" cy="2.5" r="2.5" transform="translate(308 1799.532)" fill="#f3ab1d"/>
          <circle id="Elipse_4716-2" data-name="Elipse 4716" cx="2.5" cy="2.5" r="2.5" transform="translate(297 1811.532)" fill="#f3ab1d"/>
          <circle id="Elipse_4721-2" data-name="Elipse 4721" cx="2.5" cy="2.5" r="2.5" transform="translate(308 1811.532)" fill="#f3ab1d"/>
          <circle id="Elipse_4718-2" data-name="Elipse 4718" cx="2.5" cy="2.5" r="2.5" transform="translate(297 1823.532)" fill="#f3ab1d"/>
          <circle id="Elipse_4722-2" data-name="Elipse 4722" cx="2.5" cy="2.5" r="2.5" transform="translate(308 1823.532)" fill="#f3ab1d"/>
        </g>
      </g>
      <g id="Grupo_874626" data-name="Grupo 874626" transform="translate(483 5409)">
        <circle id="Elipse_4723" data-name="Elipse 4723" cx="52.5" cy="52.5" r="52.5" transform="translate(475 2353)" fill="#fff"/>
        <path id="Trazado_596604" data-name="Trazado 596604" d="M46.62,0A46.62,46.62,0,1,1,0,46.62,46.62,46.62,0,0,1,46.62,0Z" transform="translate(480.88 2358.88)" fill="#e3f7f0" opacity="0.7"/>
      </g>
      <g id="Grupo_874627" data-name="Grupo 874627" transform="translate(1054.019 7829.184)">
        <g id="Grupo_151688" data-name="Grupo 151688" transform="translate(0 4.964)">
          <path id="Trazado_212295" data-name="Trazado 212295" d="M-11425.02-11468v9.927" transform="translate(11429.982 11467.997)" fill="none" stroke="#26779f" stroke-width="4"/>
          <path id="Trazado_212296" data-name="Trazado 212296" d="M0,0V9.926" transform="translate(9.926 4.963) rotate(90)" fill="none" stroke="#26779f" stroke-width="4"/>
        </g>
        <g id="Grupo_151689" data-name="Grupo 151689" transform="translate(12.905 0)">
          <path id="Trazado_212295-2" data-name="Trazado 212295" d="M-11425.02-11468v9.927" transform="translate(11429.982 11467.997)" fill="none" stroke="#26779f" stroke-width="4"/>
          <path id="Trazado_212296-2" data-name="Trazado 212296" d="M0,0V9.926" transform="translate(9.926 4.963) rotate(90)" fill="none" stroke="#26779f" stroke-width="4"/>
        </g>
        <g id="Grupo_151690" data-name="Grupo 151690" transform="translate(15.055 14.89)">
          <path id="Trazado_212295-3" data-name="Trazado 212295" d="M-11425.02-11468v9.927" transform="translate(11429.982 11467.997)" fill="none" stroke="#26779f" stroke-width="4"/>
          <path id="Trazado_212296-3" data-name="Trazado 212296" d="M0,0V9.926" transform="translate(9.926 4.963) rotate(90)" fill="none" stroke="#26779f" stroke-width="4"/>
        </g>
      </g>
    </g>
    <g id="leche" transform="translate(-1834.742 -5716.478)">
      <g id="Grupo_874854" data-name="Grupo 874854" transform="translate(61.692 0)">
        <path id="Trazado_598201" data-name="Trazado 598201" d="M165.912,6.929H136.533V1.967A1.967,1.967,0,0,1,138.5,0h25.444a1.967,1.967,0,0,1,1.967,1.967V6.929Z" transform="translate(-136.533 0)" fill="#d5cdd3"/>
        <g id="Grupo_874853" data-name="Grupo 874853" transform="translate(5.345)">
          <path id="Trazado_598202" data-name="Trazado 598202" d="M338.2,0H335.29a2.027,2.027,0,0,1,2.027,2.027v4.9h2.913v-4.9A2.027,2.027,0,0,0,338.2,0Z" transform="translate(-316.197 0)" fill="#d5cdd3"/>
          <path id="Trazado_598203" data-name="Trazado 598203" d="M180.956,3.049a.95.95,0,0,0,.95-.95V0h-1.9V2.1A.95.95,0,0,0,180.956,3.049Z" transform="translate(-180.006 0)" fill="#d5cdd3"/>
          <path id="Trazado_598204" data-name="Trazado 598204" d="M249.223,3.049a.95.95,0,0,0,.95-.95V0h-1.9V2.1A.95.95,0,0,0,249.223,3.049Z" transform="translate(-239.879 0)" fill="#d5cdd3"/>
          <path id="Trazado_598205" data-name="Trazado 598205" d="M317.49,3.049a.95.95,0,0,0,.95-.95V0h-1.9V2.1A.95.95,0,0,0,317.49,3.049Z" transform="translate(-299.752 0)" fill="#d5cdd3"/>
        </g>
      </g>
      <path id="Trazado_598206" data-name="Trazado 598206" d="M86.131,107.859H63.791l-3.148-2.1-3.148,2.1H55.4a4.2,4.2,0,0,1-4.2-4.2v-4.2l2.128-13.64L51.2,72.185V70.4a8.394,8.394,0,0,1,1.276-4.449L61.692,51.2H91.071Z" transform="translate(0 -44.905)" fill="#e2d7df"/>
      <path id="Trazado_598207" data-name="Trazado 598207" d="M273.067,107.859a4.2,4.2,0,0,0,4.2-4.2V69.969a8.393,8.393,0,0,1,.886-3.754L285.658,51.2l9.217,14.746A8.394,8.394,0,0,1,296.15,70.4v1.79l-1.685,13.64,1.685,13.64v4.2a4.2,4.2,0,0,1-4.2,4.2H273.067Z" transform="translate(-194.587 -44.905)" fill="#d5cdd3"/>
      <path id="Trazado_598208" data-name="Trazado 598208" d="M375.447,65.946,366.231,51.2l-1.295,2.59,7.6,12.157A8.394,8.394,0,0,1,373.81,70.4v33.267a4.2,4.2,0,0,1-4.2,4.2h2.913a4.2,4.2,0,0,0,4.2-4.2v-4.2l-1.632-13.64,1.632-13.64V70.4a8.394,8.394,0,0,0-1.276-4.449Z" transform="translate(-275.16 -44.905)" fill="#cabfc7"/>
      <path id="Trazado_598209" data-name="Trazado 598209" d="M368.691,51.2l-.95,1.9v6.494a.95.95,0,0,0,1.9,0V52.72Z" transform="translate(-277.62 -44.905)" fill="#d5cdd3"/>
      <path id="Trazado_598210" data-name="Trazado 598210" d="M311.118,249.147H292.232l-2.1-13.64,2.1-13.64h18.886Z" transform="translate(-209.554 -194.587)" fill="#5ea5ec"/>
      <path id="Trazado_598211" data-name="Trazado 598211" d="M108.7,482.064h-6.3v-3.213a.984.984,0,0,1,.984-.984h4.328a.984.984,0,0,1,.984.984Z" transform="translate(-44.905 -419.109)" fill="#b3e59f"/>
      <path id="Trazado_598212" data-name="Trazado 598212" d="M342.317,358.4h8.525a.984.984,0,0,1,.984.984v4.328a.984.984,0,0,1-.984.984h-8.525a.984.984,0,0,1-.984-.984v-4.328A.984.984,0,0,1,342.317,358.4Z" transform="translate(-254.459 -314.332)" fill="#b3e59f"/>
      <path id="Trazado_598213" data-name="Trazado 598213" d="M437.106,221.867h2.913v27.28h-2.913Z" transform="translate(-338.456 -194.587)" fill="#528ecb"/>
      <path id="Trazado_598214" data-name="Trazado 598214" d="M124.578,477.867h-2.913a1.013,1.013,0,0,1,1.013,1.013v3.184h2.913V478.88A1.013,1.013,0,0,0,124.578,477.867Z" transform="translate(-61.801 -419.109)" fill="#95d6a4"/>
      <path id="Trazado_598215" data-name="Trazado 598215" d="M51.2,221.867H82.677v27.28H51.2Z" transform="translate(0 -194.587)" fill="#6bbef6"/>
      <path id="Trazado_598216" data-name="Trazado 598216" d="M139.607,375.467H128.984a.984.984,0,0,0-.984.984v2.23a.984.984,0,0,0,.984.984h10.624a.984.984,0,0,0,.984-.984v-2.23A.984.984,0,0,0,139.607,375.467Z" transform="translate(-67.357 -329.3)" fill="#365e7d"/>
      <path id="Trazado_598217" data-name="Trazado 598217" d="M156.556,261.266l-2.17-4.574a1.211,1.211,0,0,0-2.188,0l-2.17,4.574a3.632,3.632,0,1,0,6.528,0Z" transform="translate(-86.354 -224.522)" fill="#f9f5f8"/>
      <path id="Trazado_598218" data-name="Trazado 598218" d="M397.644,358.4h-2.913a1.013,1.013,0,0,1,1.013,1.013v4.269a1.013,1.013,0,0,1-1.013,1.013h2.913a1.013,1.013,0,0,0,1.013-1.013v-4.269A1.013,1.013,0,0,0,397.644,358.4Z" transform="translate(-301.291 -314.332)" fill="#95d6a4"/>
      <path id="Trazado_598219" data-name="Trazado 598219" d="M101.772,180.007H52.811a8.4,8.4,0,0,0-.574,1.9h50.109A8.391,8.391,0,0,0,101.772,180.007Z" transform="translate(-0.909 -157.874)" fill="#6bbef6"/>
      <path id="Trazado_598220" data-name="Trazado 598220" d="M201.378,375.467h-2.913a1.013,1.013,0,0,1,1.013,1.013v2.17a1.013,1.013,0,0,1-1.013,1.013h2.913a1.013,1.013,0,0,0,1.013-1.013v-2.17A1.013,1.013,0,0,0,201.378,375.467Z" transform="translate(-129.158 -329.3)" fill="#2b4d66"/>
      <path id="Trazado_598221" data-name="Trazado 598221" d="M172.072,261.266l-2.17-4.574a1.211,1.211,0,0,0-2.188,0l-.363.765,1.807,3.809a3.633,3.633,0,0,1-1.8,4.92,3.566,3.566,0,0,0,1.226.3,3.633,3.633,0,0,0,3.491-5.219Z" transform="translate(-101.87 -224.522)" fill="#e2d8ec"/>
    </g>
  </g>
</svg>
