<svg xmlns="http://www.w3.org/2000/svg" width="140" height="105" viewBox="0 0 140 105">
  <g id="Grupo_876035" data-name="Grupo 876035" transform="translate(2250 5278)">
    <g id="Grupo_874770" data-name="Grupo 874770" transform="translate(-2770 -13040)">
      <rect id="Rectángulo_291466" data-name="Rectángulo 291466" width="140" height="75" transform="translate(520 7779)" fill="none"/>
      <g id="Grupo_874624" data-name="Grupo 874624" transform="translate(1)">
        <g id="Grupo_874620" data-name="Grupo 874620" transform="translate(832 9613.532) rotate(180)">
          <circle id="Elipse_4713" data-name="Elipse 4713" cx="2.5" cy="2.5" r="2.5" transform="translate(285 1799.532)" fill="#f3ab1d"/>
          <circle id="Elipse_4717" data-name="Elipse 4717" cx="2.5" cy="2.5" r="2.5" transform="translate(285 1811.532)" fill="#f3ab1d"/>
          <circle id="Elipse_4719" data-name="Elipse 4719" cx="2.5" cy="2.5" r="2.5" transform="translate(285 1823.532)" fill="#f3ab1d"/>
          <circle id="Elipse_4715" data-name="Elipse 4715" cx="2.5" cy="2.5" r="2.5" transform="translate(297 1799.532)" fill="#f3ab1d"/>
          <circle id="Elipse_4720" data-name="Elipse 4720" cx="2.5" cy="2.5" r="2.5" transform="translate(308 1799.532)" fill="#f3ab1d"/>
          <circle id="Elipse_4716" data-name="Elipse 4716" cx="2.5" cy="2.5" r="2.5" transform="translate(297 1811.532)" fill="#f3ab1d"/>
          <circle id="Elipse_4721" data-name="Elipse 4721" cx="2.5" cy="2.5" r="2.5" transform="translate(308 1811.532)" fill="#f3ab1d"/>
          <circle id="Elipse_4718" data-name="Elipse 4718" cx="2.5" cy="2.5" r="2.5" transform="translate(297 1823.532)" fill="#f3ab1d"/>
          <circle id="Elipse_4722" data-name="Elipse 4722" cx="2.5" cy="2.5" r="2.5" transform="translate(308 1823.532)" fill="#f3ab1d"/>
        </g>
        <g id="Grupo_874621" data-name="Grupo 874621" transform="translate(832 9648.532) rotate(180)">
          <circle id="Elipse_4713-2" data-name="Elipse 4713" cx="2.5" cy="2.5" r="2.5" transform="translate(285 1799.532)" fill="#f3ab1d"/>
          <circle id="Elipse_4717-2" data-name="Elipse 4717" cx="2.5" cy="2.5" r="2.5" transform="translate(285 1811.532)" fill="#f3ab1d"/>
          <circle id="Elipse_4719-2" data-name="Elipse 4719" cx="2.5" cy="2.5" r="2.5" transform="translate(285 1823.532)" fill="#f3ab1d"/>
          <circle id="Elipse_4715-2" data-name="Elipse 4715" cx="2.5" cy="2.5" r="2.5" transform="translate(297 1799.532)" fill="#f3ab1d"/>
          <circle id="Elipse_4720-2" data-name="Elipse 4720" cx="2.5" cy="2.5" r="2.5" transform="translate(308 1799.532)" fill="#f3ab1d"/>
          <circle id="Elipse_4716-2" data-name="Elipse 4716" cx="2.5" cy="2.5" r="2.5" transform="translate(297 1811.532)" fill="#f3ab1d"/>
          <circle id="Elipse_4721-2" data-name="Elipse 4721" cx="2.5" cy="2.5" r="2.5" transform="translate(308 1811.532)" fill="#f3ab1d"/>
          <circle id="Elipse_4718-2" data-name="Elipse 4718" cx="2.5" cy="2.5" r="2.5" transform="translate(297 1823.532)" fill="#f3ab1d"/>
          <circle id="Elipse_4722-2" data-name="Elipse 4722" cx="2.5" cy="2.5" r="2.5" transform="translate(308 1823.532)" fill="#f3ab1d"/>
        </g>
      </g>
      <g id="Grupo_874623" data-name="Grupo 874623" transform="translate(63 5409)">
        <circle id="Elipse_4723" data-name="Elipse 4723" cx="52.5" cy="52.5" r="52.5" transform="translate(475 2353)" fill="#fff"/>
        <path id="Trazado_596604" data-name="Trazado 596604" d="M46.62,0A46.62,46.62,0,1,1,0,46.62,46.62,46.62,0,0,1,46.62,0Z" transform="translate(480.88 2358.88)" fill="#d9e9f1" opacity="0.7"/>
      </g>
      <g id="Grupo_874622" data-name="Grupo 874622" transform="translate(634.019 7829.184)">
        <g id="Grupo_151688" data-name="Grupo 151688" transform="translate(0 4.964)">
          <path id="Trazado_212295" data-name="Trazado 212295" d="M-11425.02-11468v9.927" transform="translate(11429.982 11467.997)" fill="none" stroke="#26779f" stroke-width="4"/>
          <path id="Trazado_212296" data-name="Trazado 212296" d="M0,0V9.926" transform="translate(9.926 4.963) rotate(90)" fill="none" stroke="#26779f" stroke-width="4"/>
        </g>
        <g id="Grupo_151689" data-name="Grupo 151689" transform="translate(12.905 0)">
          <path id="Trazado_212295-2" data-name="Trazado 212295" d="M-11425.02-11468v9.927" transform="translate(11429.982 11467.997)" fill="none" stroke="#26779f" stroke-width="4"/>
          <path id="Trazado_212296-2" data-name="Trazado 212296" d="M0,0V9.926" transform="translate(9.926 4.963) rotate(90)" fill="none" stroke="#26779f" stroke-width="4"/>
        </g>
        <g id="Grupo_151690" data-name="Grupo 151690" transform="translate(15.055 14.89)">
          <path id="Trazado_212295-3" data-name="Trazado 212295" d="M-11425.02-11468v9.927" transform="translate(11429.982 11467.997)" fill="none" stroke="#26779f" stroke-width="4"/>
          <path id="Trazado_212296-3" data-name="Trazado 212296" d="M0,0V9.926" transform="translate(9.926 4.963) rotate(90)" fill="none" stroke="#26779f" stroke-width="4"/>
        </g>
      </g>
    </g>
    <g id="danado" transform="translate(-2210.733 -5253.939)">
      <path id="Trazado_598178" data-name="Trazado 598178" d="M27.918,11A16.918,16.918,0,1,0,44.836,27.918,16.937,16.937,0,0,0,27.918,11Z" transform="translate(17.63 17.63)" fill="#e18079"/>
      <path id="Trazado_598179" data-name="Trazado 598179" d="M29.354,25.674a2.6,2.6,0,1,1-3.68,3.68l-3.365-3.365-3.365,3.365a2.6,2.6,0,0,1-3.68-3.68l3.365-3.365-3.365-3.365a2.6,2.6,0,1,1,3.68-3.68l3.365,3.365,3.365-3.365a2.6,2.6,0,1,1,3.68,3.68l-3.365,3.365Z" transform="translate(23.239 23.239)" fill="#fff"/>
      <path id="Trazado_598180" data-name="Trazado 598180" d="M27.918,11a16.918,16.918,0,1,0,0,33.836V31.6l-3.365,3.365a2.6,2.6,0,0,1-3.68-3.68l3.365-3.365-3.365-3.365a2.6,2.6,0,1,1,3.68-3.68l3.365,3.365Z" transform="translate(17.63 17.63)" fill="#bb726d"/>
      <path id="Trazado_598181" data-name="Trazado 598181" d="M17.1,14.5a2.6,2.6,0,0,0-1.84,4.443l3.365,3.365-3.365,3.365a2.6,2.6,0,1,0,3.68,3.68l3.365-3.365V18.628l-3.365-3.365A2.6,2.6,0,0,0,17.1,14.5Z" transform="translate(23.239 23.24)" fill="#dedede"/>
      <path id="Trazado_598182" data-name="Trazado 598182" d="M22.257,9.654H17.7a1.952,1.952,0,0,1,0-3.9h4.555a1.952,1.952,0,0,1,0,3.9Z" transform="translate(25.243 9.216)" fill="#cfd8dc"/>
      <path id="Trazado_598183" data-name="Trazado 598183" d="M19.452,21.219A1.953,1.953,0,0,1,17.5,19.267a18.148,18.148,0,0,1,1.442-7.881A14.364,14.364,0,0,0,20.1,4.952a1.952,1.952,0,1,1,3.9,0,18.148,18.148,0,0,1-1.442,7.881A14.364,14.364,0,0,0,21.4,19.267,1.953,1.953,0,0,1,19.452,21.219Z" transform="translate(28.048 4.808)" fill="#cfd8dc"/>
      <path id="Trazado_598184" data-name="Trazado 598184" d="M11.76,11.5H3.952A1.953,1.953,0,0,0,2,13.452v5.205A1.953,1.953,0,0,0,3.952,20.61H9.158a1.95,1.95,0,0,0,1.746-1.08l2.6-5.205A1.951,1.951,0,0,0,11.76,11.5Z" transform="translate(3.205 18.432)" fill="#90a4ae"/>
      <path id="Trazado_598185" data-name="Trazado 598185" d="M16.26,11.5H8.452a1.951,1.951,0,0,0-1.746,2.824l2.6,5.205a1.95,1.95,0,0,0,1.746,1.08H16.26a1.953,1.953,0,0,0,1.952-1.952V13.452A1.953,1.953,0,0,0,16.26,11.5Z" transform="translate(10.418 18.432)" fill="#90a4ae"/>
      <path id="Trazado_598186" data-name="Trazado 598186" d="M18.3,4H15.7A1.953,1.953,0,0,0,13.75,5.952v9.11A1.953,1.953,0,0,0,15.7,17.014h2.6a4.56,4.56,0,0,0,4.555-4.555v-3.9A4.56,4.56,0,0,0,18.3,4Z" transform="translate(22.038 6.411)" fill="#607d8b"/>
      <path id="Trazado_598187" data-name="Trazado 598187" d="M7.158,0A7.164,7.164,0,0,0,0,7.158V26.678a7.164,7.164,0,0,0,7.158,7.158h2.6V0Z" fill="#607d8b"/>
      <path id="Trazado_598188" data-name="Trazado 598188" d="M21.319,0H3.75V33.836H21.319A12.378,12.378,0,0,0,33.682,21.473v-9.11A12.378,12.378,0,0,0,21.319,0Z" transform="translate(6.01 0)" fill="#cfd8dc"/>
      <g id="Grupo_874852" data-name="Grupo 874852" transform="translate(15.616 7.158)">
        <path id="Trazado_598189" data-name="Trazado 598189" d="M19.664,6.654H7.952a1.952,1.952,0,0,1,0-3.9H19.664a1.952,1.952,0,0,1,0,3.9Z" transform="translate(-6 -2.75)" fill="#90a4ae"/>
        <path id="Trazado_598190" data-name="Trazado 598190" d="M19.664,9.654H7.952a1.952,1.952,0,0,1,0-3.9H19.664a1.952,1.952,0,0,1,0,3.9Z" transform="translate(-6 2.058)" fill="#90a4ae"/>
        <path id="Trazado_598191" data-name="Trazado 598191" d="M19.664,12.4H7.952a1.952,1.952,0,0,1,0-3.9H19.664a1.952,1.952,0,0,1,0,3.9Z" transform="translate(-6 6.466)" fill="#90a4ae"/>
      </g>
      <path id="Trazado_598192" data-name="Trazado 598192" d="M19.056,6.5H17.25V8.452h1.187A16.109,16.109,0,0,1,19.056,6.5Z" transform="translate(27.647 10.418)" fill="#b4bcc0"/>
      <path id="Trazado_598193" data-name="Trazado 598193" d="M22.851,6.5h-4.2a16.111,16.111,0,0,0-.619,1.952,21.484,21.484,0,0,0-.536,5.205,1.952,1.952,0,1,0,3.9,0,14.364,14.364,0,0,1,1.161-6.434C22.659,6.989,22.755,6.75,22.851,6.5Z" transform="translate(28.048 10.418)" fill="#b4bcc0"/>
      <path id="Trazado_598194" data-name="Trazado 598194" d="M6.555,11.5v3.9h-2.6A7.115,7.115,0,0,1,2,15.133v3.524A1.953,1.953,0,0,0,3.952,20.61H9.158a1.95,1.95,0,0,0,1.746-1.08L12.968,15.4H6.555Z" transform="translate(3.205 18.432)" fill="#7d8f97"/>
      <path id="Trazado_598195" data-name="Trazado 598195" d="M17.754,12.974a12.625,12.625,0,0,1-1.3.068H6.786L8.85,17.167a1.95,1.95,0,0,0,1.746,1.08H15.8A1.953,1.953,0,0,0,17.754,16.3Z" transform="translate(10.876 20.794)" fill="#7d8f97"/>
      <path id="Trazado_598196" data-name="Trazado 598196" d="M20.55,6.5H15.345v4.555a12.374,12.374,0,0,1-.154,1.952H16A4.56,4.56,0,0,0,20.55,8.452Z" transform="translate(24.347 10.418)" fill="#546d79"/>
      <path id="Trazado_598197" data-name="Trazado 598197" d="M9.76,6.5H0v9.76a7.155,7.155,0,0,0,7.158,7.158h2.6V6.5Z" transform="translate(0 10.418)" fill="#546d79"/>
      <path id="Trazado_598198" data-name="Trazado 598198" d="M11.558,15.61a1.952,1.952,0,0,1,0-3.9H23.271a1.952,1.952,0,1,1,0,3.9ZM33.682,6.5H25.223a1.953,1.953,0,0,1-1.952,1.952H11.558A1.953,1.953,0,0,1,9.606,6.5H3.75V23.418H21.319a12.625,12.625,0,0,0,1.3-.068,12.353,12.353,0,0,0,11.062-12.3Z" transform="translate(6.01 10.418)" fill="#b4bcc0"/>
      <path id="Trazado_598199" data-name="Trazado 598199" d="M21.616,6.5H6A1.953,1.953,0,0,0,7.952,8.452H19.664A1.953,1.953,0,0,0,21.616,6.5Z" transform="translate(9.616 10.418)" fill="#7d8f97"/>
      <path id="Trazado_598200" data-name="Trazado 598200" d="M19.664,8.5H7.952a1.952,1.952,0,0,0,0,3.9H19.664a1.952,1.952,0,0,0,0-3.9Z" transform="translate(9.616 13.623)" fill="#7d8f97"/>
    </g>
  </g>
</svg>
