<svg xmlns="http://www.w3.org/2000/svg" width="140" height="105" viewBox="0 0 140 105">
  <g id="Grupo_876036" data-name="Grupo 876036" transform="translate(1830 5278)">
    <g id="Grupo_874771" data-name="Grupo 874771" transform="translate(-2770 -13040)">
      <rect id="Rectángulo_291467" data-name="Rectángulo 291467" width="140" height="75" transform="translate(940 7779)" fill="none"/>
      <g id="Grupo_874625" data-name="Grupo 874625" transform="translate(421)">
        <g id="Grupo_874620" data-name="Grupo 874620" transform="translate(832 9613.532) rotate(180)">
          <circle id="Elipse_4713" data-name="Elipse 4713" cx="2.5" cy="2.5" r="2.5" transform="translate(285 1799.532)" fill="#f3ab1d"/>
          <circle id="Elipse_4717" data-name="Elipse 4717" cx="2.5" cy="2.5" r="2.5" transform="translate(285 1811.532)" fill="#f3ab1d"/>
          <circle id="Elipse_4719" data-name="Elipse 4719" cx="2.5" cy="2.5" r="2.5" transform="translate(285 1823.532)" fill="#f3ab1d"/>
          <circle id="Elipse_4715" data-name="Elipse 4715" cx="2.5" cy="2.5" r="2.5" transform="translate(297 1799.532)" fill="#f3ab1d"/>
          <circle id="Elipse_4720" data-name="Elipse 4720" cx="2.5" cy="2.5" r="2.5" transform="translate(308 1799.532)" fill="#f3ab1d"/>
          <circle id="Elipse_4716" data-name="Elipse 4716" cx="2.5" cy="2.5" r="2.5" transform="translate(297 1811.532)" fill="#f3ab1d"/>
          <circle id="Elipse_4721" data-name="Elipse 4721" cx="2.5" cy="2.5" r="2.5" transform="translate(308 1811.532)" fill="#f3ab1d"/>
          <circle id="Elipse_4718" data-name="Elipse 4718" cx="2.5" cy="2.5" r="2.5" transform="translate(297 1823.532)" fill="#f3ab1d"/>
          <circle id="Elipse_4722" data-name="Elipse 4722" cx="2.5" cy="2.5" r="2.5" transform="translate(308 1823.532)" fill="#f3ab1d"/>
        </g>
        <g id="Grupo_874621" data-name="Grupo 874621" transform="translate(832 9648.532) rotate(180)">
          <circle id="Elipse_4713-2" data-name="Elipse 4713" cx="2.5" cy="2.5" r="2.5" transform="translate(285 1799.532)" fill="#f3ab1d"/>
          <circle id="Elipse_4717-2" data-name="Elipse 4717" cx="2.5" cy="2.5" r="2.5" transform="translate(285 1811.532)" fill="#f3ab1d"/>
          <circle id="Elipse_4719-2" data-name="Elipse 4719" cx="2.5" cy="2.5" r="2.5" transform="translate(285 1823.532)" fill="#f3ab1d"/>
          <circle id="Elipse_4715-2" data-name="Elipse 4715" cx="2.5" cy="2.5" r="2.5" transform="translate(297 1799.532)" fill="#f3ab1d"/>
          <circle id="Elipse_4720-2" data-name="Elipse 4720" cx="2.5" cy="2.5" r="2.5" transform="translate(308 1799.532)" fill="#f3ab1d"/>
          <circle id="Elipse_4716-2" data-name="Elipse 4716" cx="2.5" cy="2.5" r="2.5" transform="translate(297 1811.532)" fill="#f3ab1d"/>
          <circle id="Elipse_4721-2" data-name="Elipse 4721" cx="2.5" cy="2.5" r="2.5" transform="translate(308 1811.532)" fill="#f3ab1d"/>
          <circle id="Elipse_4718-2" data-name="Elipse 4718" cx="2.5" cy="2.5" r="2.5" transform="translate(297 1823.532)" fill="#f3ab1d"/>
          <circle id="Elipse_4722-2" data-name="Elipse 4722" cx="2.5" cy="2.5" r="2.5" transform="translate(308 1823.532)" fill="#f3ab1d"/>
        </g>
      </g>
      <g id="Grupo_874626" data-name="Grupo 874626" transform="translate(483 5409)">
        <circle id="Elipse_4723" data-name="Elipse 4723" cx="52.5" cy="52.5" r="52.5" transform="translate(475 2353)" fill="#fff"/>
        <path id="Trazado_596604" data-name="Trazado 596604" d="M46.62,0A46.62,46.62,0,1,1,0,46.62,46.62,46.62,0,0,1,46.62,0Z" transform="translate(480.88 2358.88)" fill="#e3f7f0" opacity="0.7"/>
      </g>
      <g id="Grupo_874627" data-name="Grupo 874627" transform="translate(1054.019 7829.184)">
        <g id="Grupo_151688" data-name="Grupo 151688" transform="translate(0 4.964)">
          <path id="Trazado_212295" data-name="Trazado 212295" d="M-11425.02-11468v9.927" transform="translate(11429.982 11467.997)" fill="none" stroke="#26779f" stroke-width="4"/>
          <path id="Trazado_212296" data-name="Trazado 212296" d="M0,0V9.926" transform="translate(9.926 4.963) rotate(90)" fill="none" stroke="#26779f" stroke-width="4"/>
        </g>
        <g id="Grupo_151689" data-name="Grupo 151689" transform="translate(12.905 0)">
          <path id="Trazado_212295-2" data-name="Trazado 212295" d="M-11425.02-11468v9.927" transform="translate(11429.982 11467.997)" fill="none" stroke="#26779f" stroke-width="4"/>
          <path id="Trazado_212296-2" data-name="Trazado 212296" d="M0,0V9.926" transform="translate(9.926 4.963) rotate(90)" fill="none" stroke="#26779f" stroke-width="4"/>
        </g>
        <g id="Grupo_151690" data-name="Grupo 151690" transform="translate(15.055 14.89)">
          <path id="Trazado_212295-3" data-name="Trazado 212295" d="M-11425.02-11468v9.927" transform="translate(11429.982 11467.997)" fill="none" stroke="#26779f" stroke-width="4"/>
          <path id="Trazado_212296-3" data-name="Trazado 212296" d="M0,0V9.926" transform="translate(9.926 4.963) rotate(90)" fill="none" stroke="#26779f" stroke-width="4"/>
        </g>
      </g>
    </g>
    <g id="llanta-de-carro" transform="translate(-1794.027 -5259.527)">
      <path id="Trazado_598169" data-name="Trazado 598169" d="M122.283,98.442l7.418.445-.864,7.431-6.353,5.072-4.1-6.2-7.647-4.414v8.839l3.326,6.65-7.232,2.666-7.212-2.66,3.328-6.657v-8.848l-7.663,4.423-4.1,6.207-6.007-4.482L83.97,98.887l7.423-.445,7.655-4.42L91.4,89.607l-7.433-.433v-8.2L91.2,76.661l4.1,6.2,7.655,4.42v-8.83L99.612,71.8l7.224-2.6,7.232,2.6-3.326,6.65v8.82l7.637-4.41,4.093-6.2,6.365,2.876.864,9.635-7.426.432-7.647,4.416Z" transform="translate(-72.809 -60.002)" fill="#dfdde9"/>
      <path id="Trazado_598170" data-name="Trazado 598170" d="M271.448,98.442l7.418.445L278,106.319l-6.353,5.072-4.1-6.2-7.647-4.414v8.839l3.326,6.65L256,118.928V69.2l7.232,2.6-3.326,6.65v8.82l7.637-4.41,4.093-6.2L278,79.54l.864,9.635-7.426.432-7.647,4.416Z" transform="translate(-221.973 -60.002)" fill="#cfccdc"/>
      <circle id="Elipse_5504" data-name="Elipse 5504" cx="7.793" cy="7.793" r="7.793" transform="translate(26.234 26.234)" fill="#f8f2f7"/>
      <path id="Trazado_598171" data-name="Trazado 598171" d="M256,212.956V197.37a7.793,7.793,0,0,1,0,15.586Z" transform="translate(-221.973 -171.136)" fill="#dfdde9"/>
      <path id="Trazado_598172" data-name="Trazado 598172" d="M241,241h3.988v3.988H241Z" transform="translate(-208.967 -208.967)" fill="#3c4467"/>
      <path id="Trazado_598173" data-name="Trazado 598173" d="M256,241h1.994v3.988H256Z" transform="translate(-221.973 -208.967)" fill="#2d2d4d"/>
      <path id="Trazado_598174" data-name="Trazado 598174" d="M34.027,0A34.027,34.027,0,1,0,68.054,34.027,34.028,34.028,0,0,0,34.027,0Zm0,58.278A24.251,24.251,0,1,1,58.278,34.027,24.25,24.25,0,0,1,34.027,58.278Z" fill="#3c4467"/>
      <path id="Trazado_598175" data-name="Trazado 598175" d="M290.027,34.027A34.028,34.028,0,0,1,256,68.054V58.278a24.251,24.251,0,1,0,0-48.5V0A34.028,34.028,0,0,1,290.027,34.027Z" transform="translate(-221.973)" fill="#2d2d4d"/>
      <path id="Trazado_598176" data-name="Trazado 598176" d="M86.269,60.25a26.019,26.019,0,1,0,26.019,26.019A26.048,26.048,0,0,0,86.269,60.25Zm0,48.05A22.031,22.031,0,1,1,108.3,86.269,22.056,22.056,0,0,1,86.269,108.3Z" transform="translate(-52.242 -52.242)" fill="#f8f2f7"/>
      <path id="Trazado_598177" data-name="Trazado 598177" d="M282.019,86.269A26.048,26.048,0,0,1,256,112.287V108.3a22.031,22.031,0,1,0,0-44.062V60.25A26.048,26.048,0,0,1,282.019,86.269Z" transform="translate(-221.973 -52.242)" fill="#dfdde9"/>
    </g>
  </g>
</svg>
