<svg xmlns="http://www.w3.org/2000/svg" xmlns:xlink="http://www.w3.org/1999/xlink" width="216.003" height="154.975" viewBox="0 0 216.003 154.975">
  <defs>
    <clipPath id="clip-path">
      <path id="Trazado_598142" data-name="Trazado 598142" d="M-.057,0h215.54V154.975s-93.181-26.241-120.6-8.493-95.4,1.385-95.4,1.385Z" transform="translate(0.52)" fill="#fff" stroke="#707070" stroke-width="1"/>
    </clipPath>
    <linearGradient id="linear-gradient" y1="0.5" x2="1" y2="0.5" gradientUnits="objectBoundingBox">
      <stop offset="0" stop-color="#09005d"/>
      <stop offset="1" stop-color="#1a0f91"/>
    </linearGradient>
    <linearGradient id="linear-gradient-3" x1="1.239" y1="-0.866" x2="0.316" y2="0.839" gradientUnits="objectBoundingBox">
      <stop offset="0" stop-color="#090056"/>
      <stop offset="1" stop-color="#020039"/>
    </linearGradient>
    <linearGradient id="linear-gradient-4" x1="-0.076" y1="1.031" x2="0.732" y2="0.196" xlink:href="#linear-gradient"/>
    <clipPath id="clip-path-2">
      <path id="Trazado_598130" data-name="Trazado 598130" d="M-430.883,782.1c-.736-.748-2.339-3.636-3.714-11.1a152.368,152.368,0,0,1-2.06-26.353,152.368,152.368,0,0,1,2.06-26.353c1.374-7.467,2.978-10.354,3.714-11.1.736.749,2.339,3.636,3.714,11.1,1.328,7.216,11.811,16.575,11.811,26.353S-425.841,763.784-427.17,771C-428.544,778.466-430.147,781.353-430.883,782.1Z" transform="translate(436.657 -707.19)" fill="none"/>
    </clipPath>
    <linearGradient id="linear-gradient-5" x1="1.291" y1="0.458" x2="-1.117" y2="0.593" xlink:href="#linear-gradient"/>
    <linearGradient id="linear-gradient-6" x1="0.525" y1="0.934" x2="0.436" y2="-0.664" xlink:href="#linear-gradient"/>
  </defs>
  <g id="Grupo_874832" data-name="Grupo 874832" transform="translate(-337.48 -7795)">
    <circle id="Elipse_5502" data-name="Elipse 5502" cx="61.01" cy="61.01" r="61.01" transform="translate(337.943 7827.955)" fill="#fff"/>
    <g id="Enmascarar_grupo_56" data-name="Enmascarar grupo 56" transform="translate(337.48 7795)" clip-path="url(#clip-path)">
      <g id="Grupo_874828" data-name="Grupo 874828" transform="translate(13.178 0)">
        <path id="Trazado_598111" data-name="Trazado 598111" d="M-1419.283,1199.239s28.3,34.463,38.707,26.159-17.695-53.573-17.695-53.573Z" transform="translate(1483.042 -1113.857)" fill="#3185af"/>
        <path id="Trazado_598112" data-name="Trazado 598112" d="M-1576.248,3143.141a1.971,1.971,0,0,0-.052-.513c-2.556-10.132-15.24-16.442-15.24-16.442l-5.026.394c-2.89,8.93-2.518,14.406-2.054,16.846.013.068.034.134.052.2A119.265,119.265,0,0,0-1576.248,3143.141Z" transform="translate(1641.165 -2833.988)" fill="url(#linear-gradient)"/>
        <path id="Trazado_598113" data-name="Trazado 598113" d="M-1596.011,3067.009l2.129,10.248a1.676,1.676,0,0,0,1.432,1.379,14.192,14.192,0,0,0,3.3-.053,2.106,2.106,0,0,0,1.668-2.475l-1.48-9.1Z" transform="translate(1638.589 -2781.903)" fill="#f6a586"/>
        <path id="Trazado_598114" data-name="Trazado 598114" d="M-1277.991,3154.258a1.413,1.413,0,0,0-.121-.23c-2.692-3.761-9.547-11.25-23.094-14.5l-6.5-.205s-2.894,5.03-2.948,14.347c1.484.607,4.356,1.26,9.907,1.416C-1292.165,3155.327-1281.987,3154.588-1277.991,3154.258Z" transform="translate(1387.431 -2845.551)" fill="url(#linear-gradient)"/>
        <path id="Trazado_598115" data-name="Trazado 598115" d="M-1296.107,3045.572c.072.484.963,7.847,1.308,10.7a1.413,1.413,0,0,0,1.193,1.277,14.882,14.882,0,0,0,4.464-.069,1.922,1.922,0,0,0,1.457-1.929V3044Z" transform="translate(1374.628 -2761.647)" fill="#f6a586"/>
        <path id="Trazado_598116" data-name="Trazado 598116" d="M-1642.863,1936.068s15.675,59.569,15.391,134.532a2.9,2.9,0,0,1-2.3,2.828,33.807,33.807,0,0,1-7.266.841,2.692,2.692,0,0,1-2.566-2.248c-2.2-12.889-14.811-85.5-22-97.287,0,0-4.728,64.669-3.217,98.22a1.59,1.59,0,0,1-1.4,1.654,26.7,26.7,0,0,1-5.833-.016,2.128,2.128,0,0,1-1.9-1.807c-1.566-10.908-10.576-75.838-10.193-122.611.022-2.638,6.976-14.106,6.976-14.106Z" transform="translate(1716.171 -1786.505)" fill="#15191e"/>
        <path id="Trazado_598117" data-name="Trazado 598117" d="M-1867.164,1163.982c-21.572-3.12-45.268-.257-56.768,1.192a15.17,15.17,0,0,0-9.584,5.145c-9.731,11.262-31.086,42.1-5.951,73.164a46.842,46.842,0,0,0,10.891-7.962c-2.781-7.839-3.009-17.856,2.819-30.14a28.648,28.648,0,0,0,.745,2.886,178.76,178.76,0,0,1,8.443,51.5,1.611,1.611,0,0,0,1.011,1.506c10.571,4.236,30.921,1.715,37.752.7a2.3,2.3,0,0,0,1.922-2.607c-2.4-17.409,5.756-42.867,12.244-59.577C-1861.077,1193.184-1865.822,1165.833-1867.164,1163.982Z" transform="translate(1951.268 -1105.721)" fill="#3185af"/>
        <path id="Trazado_598118" data-name="Trazado 598118" d="M-1558.4,963.13l-2.978,24.619a2.3,2.3,0,0,0,1.632,2.489c3.233.945,10.153,2.377,16.477-.226a2.69,2.69,0,0,0,1.588-3.06l-3.765-17.328Z" transform="translate(1608.125 -930.174)" fill="#f6a586"/>
        <g id="Grupo_874828-2" data-name="Grupo 874828" transform="translate(43.57 4.158)">
          <path id="Trazado_598119" data-name="Trazado 598119" d="M-1504.9,804.179c.186.339,4.172,25.618,4.172,25.618l-14.482,1.969-7.337-23.4S-1508.01,798.5-1504.9,804.179Z" transform="translate(1530.358 -792.879)" fill="#f39672"/>
          <path id="Trazado_598120" data-name="Trazado 598120" d="M-1574.554,740.661a2.1,2.1,0,0,0-.421,1.8l2.856,12.437a2.04,2.04,0,0,0,.2.537c.518.933,2.406,3.773,5.263,1.673,2.435-1.789,4.7-3.4,6.666-3.727a2.1,2.1,0,0,1,2.4,1.763,78.358,78.358,0,0,1,.974,11.524,2.089,2.089,0,0,1-1.949,2.061,58.231,58.231,0,0,1-13.126-.4,2.1,2.1,0,0,1-1.626-1.417c-1.06-3.242-4.067-12.317-5.31-14.748-1.155-2.259-4.518-2.643-6.072-2.7a2.11,2.11,0,0,1-1.527-.728c-1.16-1.338-2.972-4.32.522-7.232a2.1,2.1,0,0,0,.265-2.915c-1.265-1.583-2.365-4.139.347-6.817a6.548,6.548,0,0,1,7.817-1.107,2.18,2.18,0,0,0,2.569-.5,1.388,1.388,0,0,1,1.294-.476,2.038,2.038,0,0,0,2.309-1.765,5.377,5.377,0,0,1,4.762-4.93c6.366-1.212,9.522,5.166,9.4,9.641s-7.1,5.4-11.058,4.643C-1570.9,736.723-1573.421,739.27-1574.554,740.661Z" transform="translate(1587.734 -722.843)" fill="#2e1106"/>
          <path id="Trazado_598121" data-name="Trazado 598121" d="M-1562.191,941.925s-.115-7.808-3.273-8.55-6.573,1.533-3.884,6.215C-1566,945.413-1562.191,941.925-1562.191,941.925Z" transform="translate(1572.407 -908.021)" fill="#f6a586"/>
        </g>
        <path id="Trazado_598122" data-name="Trazado 598122" d="M-1769.224,1313.728c-4.261-11.661-2.715-25.741-2.7-25.882l1.174.134c-.015.138-1.528,13.948,2.635,25.342Z" transform="translate(1793.669 -1215.973)" fill="#0f4e6d"/>
        <path id="Trazado_598123" data-name="Trazado 598123" d="M-1588.939,2156.956a.591.591,0,0,1-.571-.443c-1.3-5.013-11.033-10.523-11.131-10.578a.591.591,0,0,1-.226-.8.59.59,0,0,1,.8-.226c.418.235,10.271,5.812,11.7,11.312a.591.591,0,0,1-.424.72A.6.6,0,0,1-1588.939,2156.956Z" transform="translate(1642.93 -1970.246)" fill="url(#linear-gradient-3)"/>
        <path id="Trazado_598124" data-name="Trazado 598124" d="M-1841.913,1771.16a46.839,46.839,0,0,1-10.891,7.962,90.449,90.449,0,0,0,19.907,17.7l1.041,2.335a5.809,5.809,0,0,0,5.029,3.433c12.025.573,15.353-1.978,4.283-9.7C-1822.544,1792.895-1836.7,1785.849-1841.913,1771.16Z" transform="translate(1864.605 -1641.361)" fill="#f6a586"/>
        <path id="Trazado_598125" data-name="Trazado 598125" d="M-1170.9,1335.738s-15.174,15.774-18.68,21.5.4,16.144,8.361,13.725,17.235-29.79,17.235-29.79Z" transform="translate(1282.01 -1258.125)" fill="#f6a586"/>
        <g id="Grupo_874831" data-name="Grupo 874831" transform="translate(82.732 0)">
          <path id="Trazado_598126" data-name="Trazado 598126" d="M-1236.155,1148.808s13.335,35.168,17.548,42.484c4.89,8.492,19.173,3.081,18.462-4.026s-17.4-36.483-17.4-36.483Z" transform="translate(1239.13 -1093.598)" fill="url(#linear-gradient-4)"/>
          <path id="Trazado_598127" data-name="Trazado 598127" d="M-1102.454,724.029l82.88-28.736-.87,77.763-84.274-18.8Z" transform="translate(1123.446 -694.438)" fill="#b5c500"/>
          <ellipse id="Elipse_5501" data-name="Elipse 5501" cx="8.143" cy="39.963" rx="8.143" ry="39.963" transform="translate(95.808 0)" fill="#91a31f"/>
          <path id="Trazado_598128" data-name="Trazado 598128" d="M-430.883,782.1c-.736-.748-2.339-3.636-3.714-11.1a152.368,152.368,0,0,1-2.06-26.353,152.368,152.368,0,0,1,2.06-26.353c1.374-7.467,2.978-10.354,3.714-11.1.736.749,2.339,3.636,3.714,11.1a152.374,152.374,0,0,1,2.06,26.353A152.374,152.374,0,0,1-427.17,771C-428.544,778.466-430.147,781.353-430.883,782.1Z" transform="translate(535.452 -704.908)" fill="#bad129"/>
          <g id="Grupo_874830" data-name="Grupo 874830" transform="translate(98.794 2.282)">
            <g id="Grupo_874829" data-name="Grupo 874829" transform="translate(0)" clip-path="url(#clip-path-2)">
              <path id="Trazado_598129" data-name="Trazado 598129" d="M-477.7,926.941c0,6.79-3.658,12.295-10.9,12.295s-13.109-5.5-13.109-12.295,5.869-12.295,13.109-12.295S-477.7,920.151-477.7,926.941Z" transform="translate(493.91 -889.782)" fill="url(#linear-gradient-5)"/>
            </g>
          </g>
          <path id="Trazado_598131" data-name="Trazado 598131" d="M-1253.349,918.73a46.43,46.43,0,0,1,15.534.769,82.956,82.956,0,0,0,.613,32.475h-17.05a5.525,5.525,0,0,1-5.46-4.66c-.85-5.382-1.889-14.428-.781-21.693A8.177,8.177,0,0,1-1253.349,918.73Z" transform="translate(1260.973 -890.81)" fill="url(#linear-gradient-6)"/>
          <path id="Trazado_598132" data-name="Trazado 598132" d="M-1219.882,961.6h-13.283a1.409,1.409,0,0,1-1.238-.736,1.408,1.408,0,0,1,.055-1.439.54.54,0,0,1,.746-.16.54.54,0,0,1,.159.746.324.324,0,0,0-.012.337.322.322,0,0,0,.29.172h13.283a.331.331,0,0,0,.331-.33v-.945a.331.331,0,0,0-.331-.331h-13.382a.54.54,0,0,1-.54-.54.54.54,0,0,1,.54-.54h13.382a1.411,1.411,0,0,1,1.41,1.41v.945A1.411,1.411,0,0,1-1219.882,961.6Z" transform="translate(1237.739 -925.514)" fill="#91b3fa"/>
          <path id="Trazado_598133" data-name="Trazado 598133" d="M-1229.765,1010.687h-13.284a1.408,1.408,0,0,1-1.238-.736,1.409,1.409,0,0,1,.054-1.439.539.539,0,0,1,.746-.16.54.54,0,0,1,.16.746.325.325,0,0,0-.013.338.323.323,0,0,0,.29.172h13.284a.331.331,0,0,0,.331-.33v-.945a.331.331,0,0,0-.331-.331h-13.382a.54.54,0,0,1-.539-.54.54.54,0,0,1,.539-.539h13.382a1.411,1.411,0,0,1,1.41,1.41v.945A1.411,1.411,0,0,1-1229.765,1010.687Z" transform="translate(1246.437 -968.718)" fill="#91b3fa"/>
          <path id="Trazado_598134" data-name="Trazado 598134" d="M-989.3,764.526a.54.54,0,0,1-.514-.376.54.54,0,0,1,.351-.678l62.772-19.975a.54.54,0,0,1,.678.351.54.54,0,0,1-.351.678L-989.136,764.5A.543.543,0,0,1-989.3,764.526Z" transform="translate(1022.335 -736.841)" fill="#fff" opacity="0.69"/>
          <path id="Trazado_598135" data-name="Trazado 598135" d="M-1060.128,930.476a.54.54,0,0,1-.5-.336.54.54,0,0,1,.3-.7l3.231-1.32a.539.539,0,0,1,.7.3.54.54,0,0,1-.3.7l-3.231,1.321A.534.534,0,0,1-1060.128,930.476Z" transform="translate(1084.674 -899.321)" fill="#fff" opacity="0.69"/>
          <path id="Trazado_598136" data-name="Trazado 598136" d="M-1219.881,1068.178h-13.283a1.409,1.409,0,0,1-1.238-.736,1.409,1.409,0,0,1,.055-1.44.54.54,0,0,1,.746-.16.54.54,0,0,1,.16.746.323.323,0,0,0-.013.338.323.323,0,0,0,.29.173h13.283a.331.331,0,0,0,.33-.331v-.945a.331.331,0,0,0-.33-.33h-13.382a.54.54,0,0,1-.54-.54.54.54,0,0,1,.54-.54h13.382a1.411,1.411,0,0,1,1.41,1.409v.945A1.411,1.411,0,0,1-1219.881,1068.178Z" transform="translate(1237.738 -1019.319)" fill="#91b3fa"/>
          <path id="Trazado_598137" data-name="Trazado 598137" d="M-1209.5,1131.988h-13.284a1.408,1.408,0,0,1-1.238-.736,1.408,1.408,0,0,1,.054-1.439.539.539,0,0,1,.746-.16.54.54,0,0,1,.16.746.324.324,0,0,0-.013.338.324.324,0,0,0,.29.173h13.284a.331.331,0,0,0,.33-.33v-.945a.331.331,0,0,0-.33-.33h-13.383a.54.54,0,0,1-.54-.54.54.54,0,0,1,.54-.54h13.383a1.411,1.411,0,0,1,1.409,1.409v.945A1.411,1.411,0,0,1-1209.5,1131.988Z" transform="translate(1228.605 -1075.481)" fill="#91b3fa"/>
          <path id="Trazado_598138" data-name="Trazado 598138" d="M-1140.094,1289.619a8.889,8.889,0,0,1-1.891-.205,8.745,8.745,0,0,1-6.171-5l-10.613-23.578a.54.54,0,0,1,.271-.714.54.54,0,0,1,.713.271l10.613,23.578a7.676,7.676,0,0,0,5.416,4.386,7.521,7.521,0,0,0,6.614-1.691c.1-.087.2-.176.3-.267a.539.539,0,0,1,.762.034.539.539,0,0,1-.034.762c-.106.1-.211.192-.317.284A8.554,8.554,0,0,1-1140.094,1289.619Z" transform="translate(1171.06 -1191.531)" fill="#91b3fa"/>
          <path id="Trazado_598139" data-name="Trazado 598139" d="M-1180.063,1212.749a.54.54,0,0,1-.492-.318l-1.184-2.63a.539.539,0,0,1,.271-.714.54.54,0,0,1,.713.271l1.184,2.63a.54.54,0,0,1-.271.714A.539.539,0,0,1-1180.063,1212.749Z" transform="translate(1191.278 -1146.611)" fill="#91b3fa"/>
          <path id="Trazado_598140" data-name="Trazado 598140" d="M-412.891,937.311a.539.539,0,0,1-.537-.5c-.232-3.265-1.357-5.7-3.345-7.225-3.445-2.649-8.4-1.743-8.453-1.733a.54.54,0,0,1-.631-.429.539.539,0,0,1,.428-.631c.222-.042,5.472-1.013,9.308,1.932,2.247,1.725,3.515,4.42,3.77,8.009a.539.539,0,0,1-.5.576Z" transform="translate(525.955 -898.027)" fill="#91b3fa"/>
        </g>
        <path id="Trazado_598141" data-name="Trazado 598141" d="M-1093.863,1248.1s4.323-3.67,7.7,0,4.047,10.074,3.359,10.387S-1104.38,1253.612-1093.863,1248.1Z" transform="translate(1199.223 -1179.554)" fill="#f6a586"/>
      </g>
    </g>
  </g>
</svg>
