<svg xmlns="http://www.w3.org/2000/svg" width="139" height="105" viewBox="0 0 139 105">
  <g id="Grupo_876030" data-name="Grupo 876030" transform="translate(-475 -8143)">
    <g id="Grupo_876028" data-name="Grupo 876028" transform="translate(-511 -4)">
      <g id="Grupo_874625" data-name="Grupo 874625" transform="translate(467 380)">
        <g id="Grupo_874620" data-name="Grupo 874620" transform="translate(832 9613.532) rotate(180)">
          <circle id="Elipse_4713" data-name="Elipse 4713" cx="2.5" cy="2.5" r="2.5" transform="translate(285 1799.532)" fill="#f3ab1d"/>
          <circle id="Elipse_4717" data-name="Elipse 4717" cx="2.5" cy="2.5" r="2.5" transform="translate(285 1811.532)" fill="#f3ab1d"/>
          <circle id="Elipse_4719" data-name="Elipse 4719" cx="2.5" cy="2.5" r="2.5" transform="translate(285 1823.532)" fill="#f3ab1d"/>
          <circle id="Elipse_4715" data-name="Elipse 4715" cx="2.5" cy="2.5" r="2.5" transform="translate(297 1799.532)" fill="#f3ab1d"/>
          <circle id="Elipse_4720" data-name="Elipse 4720" cx="2.5" cy="2.5" r="2.5" transform="translate(308 1799.532)" fill="#f3ab1d"/>
          <circle id="Elipse_4716" data-name="Elipse 4716" cx="2.5" cy="2.5" r="2.5" transform="translate(297 1811.532)" fill="#f3ab1d"/>
          <circle id="Elipse_4721" data-name="Elipse 4721" cx="2.5" cy="2.5" r="2.5" transform="translate(308 1811.532)" fill="#f3ab1d"/>
          <circle id="Elipse_4718" data-name="Elipse 4718" cx="2.5" cy="2.5" r="2.5" transform="translate(297 1823.532)" fill="#f3ab1d"/>
          <circle id="Elipse_4722" data-name="Elipse 4722" cx="2.5" cy="2.5" r="2.5" transform="translate(308 1823.532)" fill="#f3ab1d"/>
        </g>
        <g id="Grupo_874621" data-name="Grupo 874621" transform="translate(832 9648.532) rotate(180)">
          <circle id="Elipse_4713-2" data-name="Elipse 4713" cx="2.5" cy="2.5" r="2.5" transform="translate(285 1799.532)" fill="#f3ab1d"/>
          <circle id="Elipse_4717-2" data-name="Elipse 4717" cx="2.5" cy="2.5" r="2.5" transform="translate(285 1811.532)" fill="#f3ab1d"/>
          <circle id="Elipse_4719-2" data-name="Elipse 4719" cx="2.5" cy="2.5" r="2.5" transform="translate(285 1823.532)" fill="#f3ab1d"/>
          <circle id="Elipse_4715-2" data-name="Elipse 4715" cx="2.5" cy="2.5" r="2.5" transform="translate(297 1799.532)" fill="#f3ab1d"/>
          <circle id="Elipse_4720-2" data-name="Elipse 4720" cx="2.5" cy="2.5" r="2.5" transform="translate(308 1799.532)" fill="#f3ab1d"/>
          <circle id="Elipse_4716-2" data-name="Elipse 4716" cx="2.5" cy="2.5" r="2.5" transform="translate(297 1811.532)" fill="#f3ab1d"/>
          <circle id="Elipse_4721-2" data-name="Elipse 4721" cx="2.5" cy="2.5" r="2.5" transform="translate(308 1811.532)" fill="#f3ab1d"/>
          <circle id="Elipse_4718-2" data-name="Elipse 4718" cx="2.5" cy="2.5" r="2.5" transform="translate(297 1823.532)" fill="#f3ab1d"/>
          <circle id="Elipse_4722-2" data-name="Elipse 4722" cx="2.5" cy="2.5" r="2.5" transform="translate(308 1823.532)" fill="#f3ab1d"/>
        </g>
      </g>
      <g id="Grupo_874627" data-name="Grupo 874627" transform="translate(1100.019 8209.184)">
        <g id="Grupo_151688" data-name="Grupo 151688" transform="translate(0 4.964)">
          <path id="Trazado_212295" data-name="Trazado 212295" d="M-11425.02-11468v9.927" transform="translate(11429.982 11467.997)" fill="none" stroke="#5ad1a5" stroke-width="4"/>
          <path id="Trazado_212296" data-name="Trazado 212296" d="M0,0V9.926" transform="translate(9.926 4.963) rotate(90)" fill="none" stroke="#5ad1a5" stroke-width="4"/>
        </g>
        <g id="Grupo_151689" data-name="Grupo 151689" transform="translate(12.905 0)">
          <path id="Trazado_212295-2" data-name="Trazado 212295" d="M-11425.02-11468v9.927" transform="translate(11429.982 11467.997)" fill="none" stroke="#5ad1a5" stroke-width="4"/>
          <path id="Trazado_212296-2" data-name="Trazado 212296" d="M0,0V9.926" transform="translate(9.926 4.963) rotate(90)" fill="none" stroke="#5ad1a5" stroke-width="4"/>
        </g>
        <g id="Grupo_151690" data-name="Grupo 151690" transform="translate(15.055 14.89)">
          <path id="Trazado_212295-3" data-name="Trazado 212295" d="M-11425.02-11468v9.927" transform="translate(11429.982 11467.997)" fill="none" stroke="#5ad1a5" stroke-width="4"/>
          <path id="Trazado_212296-3" data-name="Trazado 212296" d="M0,0V9.926" transform="translate(9.926 4.963) rotate(90)" fill="none" stroke="#5ad1a5" stroke-width="4"/>
        </g>
      </g>
    </g>
    <g id="Grupo_874925" data-name="Grupo 874925">
      <g id="Grupo_874764" data-name="Grupo 874764" transform="translate(20.142 5790.142)">
        <circle id="Elipse_4723" data-name="Elipse 4723" cx="52.5" cy="52.5" r="52.5" transform="translate(474.858 2352.858)" fill="#fff"/>
        <path id="Trazado_596604" data-name="Trazado 596604" d="M46.492,0A46.492,46.492,0,1,1,0,46.492,46.492,46.492,0,0,1,46.492,0Z" transform="translate(480.867 2358.867)" fill="#d9e9f1" opacity="0.7"/>
      </g>
      <g id="tecnologia_1_" data-name="tecnologia(1)" transform="translate(498.2 8145.601)">
        <g id="Grupo_874924" data-name="Grupo 874924" transform="translate(16 47.528)">
          <path id="Trazado_598321" data-name="Trazado 598321" d="M425.525,259.784a2.781,2.781,0,1,1-2.611,3.741h-4.4a.96.96,0,0,1-.96-.96V246h1.919v15.607h3.443A2.782,2.782,0,0,1,425.525,259.784Z" transform="translate(-362.506 -245.999)" fill="#98c4da" fill-rule="evenodd"/>
          <path id="Trazado_598322" data-name="Trazado 598322" d="M18.781,259.784a2.782,2.782,0,0,1,2.611,1.821h3.443V246h1.919v16.566a.96.96,0,0,1-.96.96h-4.4a2.781,2.781,0,1,1-2.611-3.741Z" transform="translate(-16 -245.999)" fill="#98c4da" fill-rule="evenodd"/>
          <path id="Trazado_598323" data-name="Trazado 598323" d="M339.748,274.709a2.782,2.782,0,0,0-2.611,1.821H328.2V247.371L326.276,246v31.49a.96.96,0,0,0,.96.96h9.9a2.781,2.781,0,1,0,2.611-3.741Z" transform="translate(-283.743 -246)" fill="#98c4da" fill-rule="evenodd"/>
        </g>
        <path id="Trazado_598325" data-name="Trazado 598325" d="M69.942,274.709a2.782,2.782,0,0,1,2.611,1.821h8.942V247.371L83.414,246v31.49a.96.96,0,0,1-.96.96h-9.9a2.781,2.781,0,1,1-2.611-3.741Z" transform="translate(-44.148 -198.472)" fill="#98c4da" fill-rule="evenodd"/>
        <path id="Trazado_598326" data-name="Trazado 598326" d="M238.494,406.556a2.781,2.781,0,1,0-2.781-2.781A2.786,2.786,0,0,0,238.494,406.556Z" transform="translate(-189.594 -332.219)" fill="#98c4da" fill-rule="evenodd"/>
        <path id="Trazado_598327" data-name="Trazado 598327" d="M249,246h1.919v22.618H249Z" transform="translate(-201.06 -198.471)" fill="#98c4da" fill-rule="evenodd"/>
        <path id="Trazado_598328" data-name="Trazado 598328" d="M194.83,183.277a11.553,11.553,0,0,0-23.106,0Z" transform="translate(-134.377 -134.378)" fill="#3185af" fill-rule="evenodd"/>
      </g>
      <g id="doc" transform="translate(480.49 8161.6)">
        <path id="Sustracción_1" data-name="Sustracción 1" d="M3682.6,3571.222h-52.515v-28.446a4.381,4.381,0,0,1,4.376-4.375H3665.1l17.5,17.5v15.316Z" transform="translate(-3589.336 -3538.4)" fill="#74b6d8"/>
        <path id="Trazado_598330" data-name="Trazado 598330" d="M356.376,17.505h13.129L352,0V13.129A4.389,4.389,0,0,0,356.376,17.505Z" transform="translate(-276.237)" fill="#3185af"/>
        <path id="Trazado_598331" data-name="Trazado 598331" d="M397.129,141.129,384,128h13.129Z" transform="translate(-303.861 -110.495)" fill="#70a7c3"/>
      </g>
      <rect id="Rectángulo_291556" data-name="Rectángulo 291556" width="25" height="4" transform="translate(527 8174)" fill="#e4eff5"/>
      <rect id="Rectángulo_291557" data-name="Rectángulo 291557" width="25" height="4" transform="translate(527 8182)" fill="#e4eff5"/>
    </g>
  </g>
</svg>
