<svg xmlns="http://www.w3.org/2000/svg" width="170.875" height="137.529" viewBox="0 0 170.875 137.529">
  <g id="empresa" transform="translate(-1 -34.346)">
    <path id="Trazado_597938" data-name="Trazado 597938" d="M38,81.652V9.965H49.024V2H82.1V9.965H93.121V81.652Z" transform="translate(64.974 32.346)" fill="#e0e0e0"/>
    <path id="Trazado_597939" data-name="Trazado 597939" d="M38,10H93.121V74.761H38Z" transform="translate(64.974 39.237)" fill="#c7e2fb"/>
    <path id="Trazado_597940" data-name="Trazado 597940" d="M42,10H53.024V69.346H42Z" transform="translate(71.998 44.652)" fill="#ebf7fe"/>
    <path id="Trazado_597941" data-name="Trazado 597941" d="M30,24H85.121V128.73H30Z" transform="translate(50.925 40.389)" fill="#4596ec"/>
    <path id="Trazado_597942" data-name="Trazado 597942" d="M40,38V60.048H51.024a8.268,8.268,0,0,0,8.268-8.268V38Z" transform="translate(68.486 64.974)" fill="#6aabf0"/>
    <path id="Trazado_597943" data-name="Trazado 597943" d="M30,38V60.048H41.024a8.268,8.268,0,0,0,8.268-8.268V38Z" transform="translate(50.925 64.974)" fill="#6aabf0"/>
    <path id="Trazado_597944" data-name="Trazado 597944" d="M40,24V46.048H51.024a8.268,8.268,0,0,0,8.268-8.268V24Z" transform="translate(68.486 40.389)" fill="#6aabf0"/>
    <path id="Trazado_597945" data-name="Trazado 597945" d="M30,34H85.121V45.024H30Z" transform="translate(50.925 57.95)" fill="#b3bec4"/>
    <path id="Trazado_597946" data-name="Trazado 597946" d="M30,48H85.121V59.024H30Z" transform="translate(50.925 82.534)" fill="#b3bec4"/>
    <path id="Trazado_597947" data-name="Trazado 597947" d="M4,24H64.633V128.73H4Z" transform="translate(5.268 40.389)" fill="#b3bec4"/>
    <path id="Trazado_597948" data-name="Trazado 597948" d="M4,24v79.925H48.1a8.268,8.268,0,0,0,8.268-8.268V24Z" transform="translate(5.268 40.389)" fill="#c2cbd0"/>
    <path id="Trazado_597949" data-name="Trazado 597949" d="M17,44H66.609V93.609H17Z" transform="translate(28.097 75.51)" fill="#c2cbd0"/>
    <path id="Trazado_597950" data-name="Trazado 597950" d="M17,44H66.609V82.585H17Z" transform="translate(28.097 75.51)" fill="#e0e0e0"/>
    <path id="Trazado_597951" data-name="Trazado 597951" d="M17,44V77.073H55.585A5.512,5.512,0,0,0,61.1,71.56V44Z" transform="translate(28.097 75.51)" fill="#f5f5f5"/>
    <path id="Trazado_597952" data-name="Trazado 597952" d="M45,42H86.341V97.121H45Z" transform="translate(77.266 71.998)" fill="#b3bec4"/>
    <path id="Trazado_597953" data-name="Trazado 597953" d="M45,42V91.609H72.56a8.268,8.268,0,0,0,8.268-8.268V42Z" transform="translate(80.022 71.998)" fill="#c2cbd0"/>
    <path id="Trazado_597954" data-name="Trazado 597954" d="M1,61H171.875v5.512H1Z" transform="translate(0 105.363)" fill="#c2cbd0"/>
    <g id="Grupo_874758" data-name="Grupo 874758" transform="translate(23.048 75.413)">
      <path id="Trazado_597955" data-name="Trazado 597955" d="M9,36H20.024V47.024H9Z" transform="translate(-9 -13.952)" fill="#4596ec"/>
      <path id="Trazado_597956" data-name="Trazado 597956" d="M17,36H28.024V47.024H17Z" transform="translate(5.048 -13.952)" fill="#4596ec"/>
      <path id="Trazado_597957" data-name="Trazado 597957" d="M9,28H20.024V39.024H9Z" transform="translate(-9 -28)" fill="#4596ec"/>
      <path id="Trazado_597958" data-name="Trazado 597958" d="M17,28H28.024V39.024H17Z" transform="translate(5.048 -28)" fill="#4596ec"/>
      <path id="Trazado_597959" data-name="Trazado 597959" d="M9,44H20.024V55.024H9Z" transform="translate(-9 0.097)" fill="#4596ec"/>
      <path id="Trazado_597960" data-name="Trazado 597960" d="M9,52H20.024V63.024H9Z" transform="translate(-9 14.145)" fill="#4596ec"/>
    </g>
    <path id="Trazado_597961" data-name="Trazado 597961" d="M50,10H61.024V69.346H50Z" transform="translate(86.046 44.652)" fill="#ebf7fe"/>
    <path id="Trazado_597962" data-name="Trazado 597962" d="M48,47H72.8v5.512H48Z" transform="translate(82.534 80.778)" fill="#e0e0e0"/>
    <path id="Trazado_597963" data-name="Trazado 597963" d="M48,51H72.8v5.512H48Z" transform="translate(82.534 87.802)" fill="#e0e0e0"/>
    <path id="Trazado_597964" data-name="Trazado 597964" d="M48,55H72.8v5.512H48Z" transform="translate(82.534 94.827)" fill="#e0e0e0"/>
    <path id="Trazado_597965" data-name="Trazado 597965" d="M21,48H48.56V64.536H21Z" transform="translate(35.121 82.534)" fill="#c7e2fb"/>
    <path id="Trazado_597966" data-name="Trazado 597966" d="M25,48h5.512V64.536H25Z" transform="translate(42.145 82.534)" fill="#ebf7fe"/>
    <path id="Trazado_597967" data-name="Trazado 597967" d="M39,24h5.512V51.56H39Z" transform="translate(66.73 40.389)" fill="#b3bec4"/>
    <path id="Trazado_597968" data-name="Trazado 597968" d="M39,38h5.512V65.56H39Z" transform="translate(66.73 64.974)" fill="#b3bec4"/>
    <path id="Trazado_597969" data-name="Trazado 597969" d="M30,24V46.048H41.024a8.268,8.268,0,0,0,8.268-8.268V24Z" transform="translate(50.925 40.389)" fill="#6aabf0"/>
  </g>
</svg>
