<svg xmlns="http://www.w3.org/2000/svg" width="190" height="430" viewBox="0 0 190 430">
  <g id="Grupo_874820" data-name="Grupo 874820" transform="translate(-1230 -5158)">
    <rect id="Rectángulo_291514" data-name="Rectángulo 291514" width="190" height="430" transform="translate(1230 5158)" fill="none"/>
    <ellipse id="Elipse_5493" data-name="Elipse 5493" cx="67.5" cy="15" rx="67.5" ry="15" transform="translate(1252 5558)" fill="#e8e8e8"/>
    <g id="Grupo_874819" data-name="Grupo 874819" transform="translate(672.526 4862.632)">
      <g id="Grupo_874818" data-name="Grupo 874818" transform="translate(590.031 296.185)">
        <path id="Trazado_598039" data-name="Trazado 598039" d="M764.686,307.729s7.834,7.223,7,30.689v70.995A18.339,18.339,0,0,0,778.17,421.5S726.7,436.618,722.3,413.538V339.9s-2.389-30.984,9.541-36.55C731.844,303.348,752.959,294.646,764.686,307.729Z" transform="translate(-682.19 -299.204)" fill="#2e1106"/>
        <path id="Trazado_598040" data-name="Trazado 598040" d="M742.439,517.722c10.66,5.1,4.961,17.15,4.961,17.15l-13.861,50.441s-12.95,5.295-35.673,2.644c-3.157-4.518-9.643-23.44-11.816-37.889-1.789-11.9-7.348-23.626-1.293-30.262,2.321-2.544,20.006-5.082,20.095-5.5l20.876-.085Z" transform="translate(-654.206 -448.326)" fill="#f39672"/>
        <path id="Trazado_598041" data-name="Trazado 598041" d="M714.2,887.457s-6.74,55.8-28.281,87.423c0,0-10.046,16.882-22.285,4.04,0,0-1.961-90.869,13.362-118.975C676.994,859.946,720.779,857.783,714.2,887.457Z" transform="translate(-641.331 -689.538)" fill="#e28262"/>
        <path id="Trazado_598042" data-name="Trazado 598042" d="M686.35,519.572c-7.377-.206-17.177,7.079-17.383,14.457s3.815,26.408,9.433,21.623c11.045-9.406,16.557-15.064,16.762-22.44S693.727,519.777,686.35,519.572Z" transform="translate(-645.105 -452.056)" fill="#e28262"/>
        <path id="Trazado_598043" data-name="Trazado 598043" d="M660.536,555.652,674,555.059l7.028,11.927s-14.079,42-20.942,49.722c-7.312,8.229-8.037-1.012-8.752-4.67C651.336,612.038,655.443,562.586,660.536,555.652Z" transform="translate(-632.808 -476.82)" fill="#e28262"/>
        <g id="Grupo_874805" data-name="Grupo 874805" transform="translate(13.834 283.981)">
          <g id="Grupo_874804" data-name="Grupo 874804" transform="translate(0 103.815)">
            <g id="Grupo_874803" data-name="Grupo 874803" transform="translate(0.944)">
              <path id="Trazado_598044" data-name="Trazado 598044" d="M652.434,1606.423a31.255,31.255,0,0,1-13.5-1.046l7.152-4.209s7.766-9.441,9.216-12.778c.929-2.136,1.19-9.074,1.19-9.074l8.84.524.02,4.953,3.218,7.524s.3,3.547-6.129,4.262A128.529,128.529,0,0,1,652.434,1606.423Z" transform="translate(-638.93 -1579.316)" fill="#e28262"/>
            </g>
            <path id="Trazado_598045" data-name="Trazado 598045" d="M643.9,1613.814c2.38,1.112,6.572,1.405,8.747-.785,8.759-8.819,10.519-15.59,10.519-15.59,4.436,4.873,3.263,8.941,3.263,8.941l-.329,1.681-2.525,12.954-.91-.053-2.516-10.7L654,1620.184c-14.695,1.928-18.2-2.056-18.2-2.056Z" transform="translate(-635.805 -1591.961)" fill="#121418"/>
          </g>
          <path id="Trazado_598046" data-name="Trazado 598046" d="M663.82,1241.217s9.068,94.024,10.035,98.413c0,0,8.927,3.032,8.84.525-.2-6.056,8.6-44.8,9.181-54.3.92-15.249-1.561-25.4-9.493-45.9C682.383,1239.962,667.79,1229.844,663.82,1241.217Z" transform="translate(-655.353 -1235.815)" fill="#e28262"/>
        </g>
        <path id="Trazado_598047" data-name="Trazado 598047" d="M722.159,737.582c-1.693-.307-8.673,3.3-8.673,3.3s-8.721,28.02-9.093,32.282,28.925,26.315,61.659,13.756c0,0-15.155-39.459-16.083-49.176S722.159,737.582,722.159,737.582Z" transform="translate(-669.828 -601.248)" fill="#e38865"/>
        <path id="Trazado_598048" data-name="Trazado 598048" d="M713.165,750.948s-8.358,25.27-9.093,32.282c-2.61,24.825,30.981,35.235,63.714,22.676,0,0,2.122-34.129-18.138-58.1C749.648,747.809,744.267,752.718,713.165,750.948Z" transform="translate(-669.506 -611.316)" fill="#15191e"/>
        <path id="Trazado_598049" data-name="Trazado 598049" d="M790.942,970.973l23.672-13s-3.841,74.9-6.84,95.934c0,0-13.244,3.687-17.345.962-12.278-28.8-19.39-91.337-19.39-91.337Z" transform="translate(-716.334 -757.966)" fill="#f39672"/>
        <path id="Trazado_598050" data-name="Trazado 598050" d="M803.247,878.6s11.361,3.278,9.009,24.327c-2.295,20.559-40.1,22.51-43.633,1.432C764.823,881.682,783.224,869.662,803.247,878.6Z" transform="translate(-714.298 -700.509)" fill="#f39672"/>
        <path id="Trazado_598051" data-name="Trazado 598051" d="M778.6,443.707H755.817c1.036-3.32,3.183-11.906-.137-17.75L778.7,410.844S774.606,436.207,778.6,443.707Z" transform="translate(-705.617 -376.191)" fill="#f39672"/>
        <path id="Trazado_598052" data-name="Trazado 598052" d="M757.454,433.745a14.893,14.893,0,0,0-1.774-7.787L778.7,410.844a163.3,163.3,0,0,0-1.837,19.764C768.548,433.251,765.128,434.275,757.454,433.745Z" transform="translate(-705.617 -376.191)" fill="#db765e"/>
        <g id="Grupo_874815" data-name="Grupo 874815" transform="translate(40.133)">
          <path id="Trazado_598053" data-name="Trazado 598053" d="M730.387,351.441l-1.381-3.361-3.461-9.918a10.167,10.167,0,0,1-.322-5.343,16.206,16.206,0,0,0,.044-8.38c-2.341-9.067,1.482-14.056,1.482-14.056,4.923-8.7,17.543-9.3,17.543-9.3,15.645.018,17.686,15.062,17.686,15.062,3.018,9.925-4.572,18.677-4.587,18.692-.964,1.106-.983,2.825-1.406,4.156a12.541,12.541,0,0,1-2.1,3.935,28.054,28.054,0,0,1-7.671,6.829,30.917,30.917,0,0,1-11.886,3.447C732.741,353.271,731.178,353.369,730.387,351.441Z" transform="translate(-723.999 -299.605)" fill="#f39672"/>
          <path id="Trazado_598054" data-name="Trazado 598054" d="M754.765,337.335c-.281-7.13-.44-6.684-.44-6.684-.272-2.075-4.128,2.622-4.183-.093-.243-12.435-5.055-18.115-6.866-18.981a21.881,21.881,0,0,0-13.983-1.922c-6.223,1.433-5.559,9.78-5.559,9.78-6.9-30.326,27.717-22.282,27.717-22.282,16.841,3.519,15.923,19.268,15.923,19.268,2.891,16.711-13.174,27.237-13.174,27.237Z" transform="translate(-722.823 -296.185)" fill="#2e1106"/>
          <g id="Grupo_874814" data-name="Grupo 874814" transform="translate(28.807 29.35)">
            <g id="Grupo_874810" data-name="Grupo 874810">
              <g id="Grupo_874809" data-name="Grupo 874809">
                <g id="Grupo_874808" data-name="Grupo 874808">
                  <g id="Grupo_874807" data-name="Grupo 874807">
                    <g id="Grupo_874806" data-name="Grupo 874806">
                      <path id="Trazado_598055" data-name="Trazado 598055" d="M820.058,402.727a3.355,3.355,0,0,0,2.2.548c2.414-.156,4.3-2.522,4.221-5.275s-2.1-4.852-4.514-4.7a4.247,4.247,0,0,0-2.923,1.518c-1.1,1.274-1.021,3.516-.672,5.043A4.636,4.636,0,0,0,820.058,402.727Z" transform="translate(-818.14 -393.297)" fill="#f3906b"/>
                    </g>
                  </g>
                </g>
              </g>
            </g>
            <g id="Grupo_874813" data-name="Grupo 874813" transform="translate(2.57 1.563)">
              <g id="Grupo_874811" data-name="Grupo 874811" transform="translate(0.361)">
                <path id="Trazado_598056" data-name="Trazado 598056" d="M827.887,399.522c.066-1.451,3.061-.22,2.659.616a4.448,4.448,0,0,1-1.11,1.2,2.11,2.11,0,0,0-.819,1.623c-.007.082-.012.335.079.388.39.243,1.558-1.229,1.813-1.54a2.406,2.406,0,0,0,.231-2.326,1.444,1.444,0,0,0-1.655-1c-.655.071-1.32.151-1.241.964,0,.015.038.149.043.076Z" transform="translate(-827.838 -398.467)" fill="#e47a5d"/>
              </g>
              <g id="Grupo_874812" data-name="Grupo 874812" transform="translate(0 2.381)">
                <path id="Trazado_598057" data-name="Trazado 598057" d="M828.066,406.469c-.323-.288-.6-.02-.9.217a1.383,1.383,0,0,0-.482.877,3.414,3.414,0,0,0,.489,2.393,1.816,1.816,0,0,0,1.607.752c.882-.068,1.1-.858,1.1-1.6,0-.2-.01-.671-.208-.784-.221-.124-.352.212-.484.359a1.245,1.245,0,0,1-.732.32,1.591,1.591,0,0,1-1.335-.517.706.706,0,0,1-.147-.221c.025.488.056.592.093.323a1.306,1.306,0,0,1,.15-.354c.184-.346.516-.593.73-.927.1-.152.279-.687.119-.835Z" transform="translate(-826.644 -406.344)" fill="#e47a5d"/>
              </g>
            </g>
          </g>
          <path id="Trazado_598058" data-name="Trazado 598058" d="M824.19,422.59a1.48,1.48,0,1,0,1.4-1.555A1.48,1.48,0,0,0,824.19,422.59Z" transform="translate(-793.553 -383.3)" fill="#fff"/>
        </g>
        <path id="Trazado_598059" data-name="Trazado 598059" d="M745.219,517.324" transform="translate(-698.317 -450.49)" fill="#8a8db6"/>
        <path id="Trazado_598060" data-name="Trazado 598060" d="M710.45,515.356l-4.431.682s-8.6,16.62-10.629,34.226c2.173,14.449,6.531,36.326,11.816,37.889,17.913,5.3,36.613-3.03,36.613-3.03l8.566-34.206C729.376,541.962,741,515.662,741,515.662l-4.831-1.158S719.079,527.037,710.45,515.356Z" transform="translate(-663.549 -448.522)" fill="#00a4b7"/>
        <path id="Trazado_598061" data-name="Trazado 598061" d="M690.548,554.863s-8.989,12.453-10.558,18.868c-1.031,4.216,6.322,13.711,12.256,15.386C695.489,590.032,695.564,555.7,690.548,554.863Z" transform="translate(-652.734 -476.684)" fill="#00a4b7"/>
        <g id="Grupo_874817" data-name="Grupo 874817" transform="translate(64.406 389.313)">
          <g id="Grupo_874816" data-name="Grupo 874816" transform="translate(0.937 0)">
            <path id="Trazado_598062" data-name="Trazado 598062" d="M819.778,1611.634a31.257,31.257,0,0,1-13.54-.243l6.891-4.624s7.191-9.886,8.44-13.3c.8-2.189.648-9.131.648-9.131h8.858l.314,4.943,3.658,7.317s.509,3.526-5.865,4.621A128.655,128.655,0,0,1,819.778,1611.634Z" transform="translate(-806.238 -1584.336)" fill="#f39672"/>
          </g>
          <path id="Trazado_598063" data-name="Trazado 598063" d="M810.965,1618.179c2.44.969,6.641,1.013,8.683-1.3,8.217-9.324,9.577-16.187,9.577-16.187,4.715,4.6,3.785,8.732,3.785,8.732l-.228,1.7-1.753,13.082h-.913l-3.144-10.536-5.549,10.273c-14.553,2.8-18.287-.972-18.287-.972Z" transform="translate(-803.137 -1595.748)" fill="#121418"/>
        </g>
        <path id="Trazado_598064" data-name="Trazado 598064" d="M850.977,1249.535l-19.344,5.728s7.446,91.046,8.3,95.458c0,0,8.88,2.51,8.858,0-.048-6.059,7.755-43.285,8.436-52.774C858.407,1281.639,862.839,1270.7,850.977,1249.535Z" transform="translate(-758.615 -961.408)" fill="#f39672"/>
        <path id="Trazado_598065" data-name="Trazado 598065" d="M731.037,868.105l3.82,90.029s-49.04,11.35-83.091-4.216c0,0,3.113-77.017,16.959-102.559C668.725,851.36,728.259,845.853,731.037,868.105Z" transform="translate(-633.108 -683.15)" fill="#15191e"/>
        <path id="Trazado_598066" data-name="Trazado 598066" d="M834.855,529.991c-4.16,6.093-1.819,12,1.549,18.437,3.422,6.539,24.278,11.062,23.288,3.749-1.946-14.377-3.415-22.563-9.82-26.23C844.44,522.839,839.013,523.892,834.855,529.991Z" transform="translate(-759.309 -455.322)" fill="#f39672"/>
        <path id="Trazado_598067" data-name="Trazado 598067" d="M837.844,563.667l10.492-8.464,12.733,5.431S874.646,602.8,873.7,613.087c-1.006,10.963-7.071,3.953-9.815,1.432C863.888,614.519,837.859,572.271,837.844,563.667Z" transform="translate(-762.949 -476.921)" fill="#f39672"/>
        <path id="Trazado_598068" data-name="Trazado 598068" d="M922.135,728.87s1.656,29.676-2.878,49.508c0,0-5.741,3.411-6.2-.758-.77-7.079-6.716-41.946-5.2-54.311C908.338,719.316,922.135,728.87,922.135,728.87Z" transform="translate(-811.627 -593.54)" fill="#f39672"/>
        <path id="Trazado_598069" data-name="Trazado 598069" d="M902.764,930.307s-1.547.756-.5-2.867l1.223-5.655s-1.229,9.421-4.448,11.212c0,0-.578.526-1.2-.723,0,0,2.731-8.028,2.715-11.292,0,0-.709,9.818-4.34,12.639,0,0-1.839.781-1.815-1.155,0,0,2.787-6.947,3.043-12.473,0,0-2.169,9.593-4.176,12.253,0,0-2.045.425-1.607-1.852,0,0,1.561-5.749,2.747-12.369,0,0-3.747,3.171-6.6,1.689l8.471-12.358,2.963-2.091,6.2.758.719,7.335a47.2,47.2,0,0,1-1.839,14.89S903.721,930.078,902.764,930.307Z" transform="translate(-797.81 -721.186)" fill="#f39672"/>
        <path id="Trazado_598070" data-name="Trazado 598070" d="M939.269,717.578" transform="translate(-833.72 -590.222)" fill="#8a8db6"/>
        <path id="Trazado_598071" data-name="Trazado 598071" d="M625.957,653.6l18.391,40.475-37.438-3.456L590.031,650.9Z" transform="translate(-590.031 -543.697)" fill="#f6e8c2"/>
        <path id="Trazado_598072" data-name="Trazado 598072" d="M604.553,692.371a10.555,10.555,0,0,0,2.622,3.407c1.306,1.034,3.489.721,4.33,1.475,1.464,1.314.425,4.867-2.666,8.428-2.68,3.092-4.656-.954-5.561-3.443-1.333-3.676-1.244-5.318.276-8.285Z" transform="translate(-598.622 -572.633)" fill="#e28262"/>
      </g>
    </g>
  </g>
</svg>
