<svg id="Grupo_875319" data-name="Grupo 875319" xmlns="http://www.w3.org/2000/svg" xmlns:xlink="http://www.w3.org/1999/xlink" width="195.724" height="168.019" viewBox="0 0 195.724 168.019">
  <defs>
    <linearGradient id="linear-gradient" x1="0.619" y1="0.622" x2="0.386" y2="0.367" gradientUnits="objectBoundingBox">
      <stop offset="0" stop-color="#ff9f55"/>
      <stop offset="1" stop-color="#ffd255"/>
    </linearGradient>
  </defs>
  <g id="Grupo_875274" data-name="Grupo 875274" transform="translate(133.344 33.815)">
    <path id="Trazado_598975" data-name="Trazado 598975" d="M959.425,1388.091l-.549-.813a42.261,42.261,0,0,0,15.047-18.006l.9.4A43.236,43.236,0,0,1,959.425,1388.091Z" transform="translate(-958.876 -1369.272)" fill="url(#linear-gradient)"/>
  </g>
  <g id="Grupo_875321" data-name="Grupo 875321" transform="translate(68.032 0)">
    <g id="Grupo_875272" data-name="Grupo 875272" transform="translate(39.131 45.661)">
      <path id="Trazado_598973" data-name="Trazado 598973" d="M900.923,1356.536v-.665a16.8,16.8,0,0,0,15.663-10.591l.617.248A17.46,17.46,0,0,1,900.923,1356.536Z" transform="translate(-900.923 -1345.28)" fill="#3185af"/>
    </g>
    <g id="Grupo_875275" data-name="Grupo 875275" transform="translate(0 0)">
      <path id="Trazado_598976" data-name="Trazado 598976" d="M718.015,1179.984l-11.819-8.411,2.643-5.922a32.978,32.978,0,0,1-4.668-7.46l-6.488-.206-2.41-14.3,6.063-2.321a32.959,32.959,0,0,1,1.965-8.579l-4.437-4.728,8.409-11.819,5.922,2.644a32.994,32.994,0,0,1,7.463-4.668l.206-6.486,14.3-2.412,2.319,6.063a32.961,32.961,0,0,1,8.581,1.965l4.728-4.437,11.819,8.409-2.644,5.922a33.032,33.032,0,0,1,4.668,7.462l6.486.206,2.41,14.3-6.061,2.319a33.194,33.194,0,0,1-.587,3.864l-.071.336-15.956-3.931.057-.308a16.778,16.778,0,1,0-21.1,13.106l.293.083-3.059,16.159-.338-.08a32.838,32.838,0,0,1-3.967-1.207Zm-10.99-8.637,10.932,7.78,4.634-4.349.194.074a32.231,32.231,0,0,0,3.74,1.173l2.817-14.879a17.45,17.45,0,1,1,22.281-13.849l14.682,3.617a32.574,32.574,0,0,0,.524-3.655l.018-.208,5.942-2.273-2.229-13.229-6.358-.2-.085-.19a32.4,32.4,0,0,0-4.789-7.656l-.134-.159,2.591-5.8-10.932-7.778-4.634,4.349-.195-.075a32.308,32.308,0,0,0-8.8-2.016l-.208-.018-2.273-5.943-13.229,2.231-.2,6.358-.19.085a32.328,32.328,0,0,0-7.656,4.789l-.159.134-5.8-2.591L699.722,1128l4.349,4.635-.075.194a32.311,32.311,0,0,0-2.016,8.8l-.018.208-5.943,2.275,2.229,13.229,6.36.2.085.19a32.336,32.336,0,0,0,4.789,7.654l.134.159Z" transform="translate(-695.273 -1105.312)" fill="#3185af"/>
    </g>
    <path id="Trazado_598977" data-name="Trazado 598977" d="M773.591,1155.214l-1.161-6.883-6.423-.2a32.752,32.752,0,0,0-4.837-7.734l2.617-5.862-11.376-8.095-4.68,4.393a32.424,32.424,0,0,0-3.591-1.14l-2.892,15.567a17.14,17.14,0,0,1,11.582,19.395l15.318,3.774a32.945,32.945,0,0,0,.6-4.031l6-2.3Zm-51.544-3.589a17.031,17.031,0,0,1,4.793-4.544l-7.817-13.7a32.521,32.521,0,0,0-4.186,2.991l-5.862-2.617-4.047,5.687-4.047,5.687,4.393,4.682a32.632,32.632,0,0,0-2.037,8.891l-6,2.3,1.161,6.883,1.159,6.883,6.423.2a32.7,32.7,0,0,0,4.839,7.733l-2.617,5.862,5.687,4.05,5.689,4.047,4.681-4.393a32.341,32.341,0,0,0,4.12,1.267l2.938-15.518a17.125,17.125,0,0,1-9.265-26.392Z" transform="translate(-696.861 -1122.417)" fill="#3185af"/>
  </g>
  <rect id="Rectángulo_291811" data-name="Rectángulo 291811" width="2.199" height="99.969" transform="translate(183.832 54.285)" fill="#706865"/>
  <rect id="Rectángulo_291812" data-name="Rectángulo 291812" width="2.392" height="108.748" transform="translate(125.063 44.702)" fill="#706865"/>
  <path id="Rectángulo_291813" data-name="Rectángulo 291813" d="M23.512,0H48.855A23.512,23.512,0,0,1,72.367,23.512v78.209a23.511,23.511,0,0,1-23.511,23.511H23.511A23.511,23.511,0,0,1,0,101.722V23.512A23.512,23.512,0,0,1,23.512,0Z" transform="translate(123.357 12.521)" fill="#bdafaa"/>
  <path id="Rectángulo_291814" data-name="Rectángulo 291814" d="M23.23,0H45.165A23.23,23.23,0,0,1,68.4,23.23V95.093a23.23,23.23,0,0,1-23.23,23.23H23.231A23.231,23.231,0,0,1,0,95.092V23.23A23.23,23.23,0,0,1,23.23,0Z" transform="translate(125.343 14.537)" fill="#fff"/>
  <g id="Grupo_875278" data-name="Grupo 875278" transform="translate(135.483 21.723)">
    <g id="Grupo_875276" data-name="Grupo 875276">
      <path id="Trazado_598978" data-name="Trazado 598978" d="M989.566,1374.319l-1.432-3.742a20.334,20.334,0,0,1-4.273-.979l-2.92,2.74-8.1-5.763,1.632-3.656a20.319,20.319,0,0,1-2.325-3.717l-4-.127-1.651-9.8,3.742-1.432a20.357,20.357,0,0,1,.979-4.273l-2.74-2.919,5.763-8.1,3.656,1.632a20.35,20.35,0,0,1,3.716-2.325l.127-4,9.8-1.651,1.432,3.742a20.357,20.357,0,0,1,4.273.978l2.919-2.74,8.1,5.763-1.632,3.656a20.346,20.346,0,0,1,2.325,3.716l4,.128,1.651,9.8-3.741,1.432a20.348,20.348,0,0,1-.979,4.273l2.74,2.919-5.763,8.1-3.656-1.632a20.312,20.312,0,0,1-3.716,2.325l-.127,4Zm-6.183-7.1.6.231a18.3,18.3,0,0,0,4.973,1.14l.644.055L990.89,1372l6.467-1.09.115-3.6.591-.264a18.252,18.252,0,0,0,4.325-2.706l.495-.417,3.282,1.466,3.8-5.343-2.46-2.621.231-.6a18.273,18.273,0,0,0,1.14-4.973l.056-.645,3.36-1.286-1.089-6.467-3.6-.114-.264-.591a18.262,18.262,0,0,0-2.706-4.325l-.417-.495,1.466-3.283-5.343-3.8-2.621,2.46-.6-.231a18.269,18.269,0,0,0-4.973-1.14l-.645-.056-1.286-3.36-6.467,1.09-.114,3.6-.591.264a18.276,18.276,0,0,0-4.325,2.706l-.495.417-3.283-1.465-3.8,5.343,2.46,2.622-.231.6a18.288,18.288,0,0,0-1.14,4.973l-.055.645-3.36,1.286,1.089,6.467,3.6.114.263.591a18.293,18.293,0,0,0,2.706,4.325l.416.495-1.465,3.283,5.344,3.8Z" transform="translate(-966.495 -1326.203)" fill="#cfcfcf"/>
    </g>
    <g id="Grupo_875277" data-name="Grupo 875277" transform="translate(12.912 12.912)">
      <path id="Trazado_598979" data-name="Trazado 598979" d="M1028.287,1393.465l-.861-1.877a9.094,9.094,0,0,0,5.245-7.407l2.056.19a11.159,11.159,0,0,1-6.441,9.094Zm-11.087-1.023-.045-.032a11.167,11.167,0,0,1-4.672-9.08q0-.52.048-1.041l2.056.193q-.04.424-.04.848a9.105,9.105,0,0,0,3.816,7.407Zm11.683-16.51a9.02,9.02,0,0,0-5.245-1.675h0a9.186,9.186,0,0,0-3.793.825l-.858-1.878a11.258,11.258,0,0,1,4.651-1.012h0a11.072,11.072,0,0,1,6.44,2.056Z" transform="translate(-1012.483 -1372.192)" fill="#cfcfcf"/>
    </g>
  </g>
  <g id="Grupo_875279" data-name="Grupo 875279" transform="translate(161.533 66.063)">
    <path id="Trazado_598980" data-name="Trazado 598980" d="M1071.6,1510.441l-.789-2.063a11.169,11.169,0,0,1-1.761-.4l-1.609,1.511-4.9-3.486.9-2.016a11.148,11.148,0,0,1-.958-1.531l-2.208-.07-1-5.928,2.063-.79a11.128,11.128,0,0,1,.4-1.761l-1.511-1.61,3.486-4.9,2.016.9a11.173,11.173,0,0,1,1.532-.959l.07-2.208,5.929-1,.789,2.063a11.105,11.105,0,0,1,1.761.4l1.609-1.511,4.9,3.486-.9,2.016a11.189,11.189,0,0,1,.959,1.532l2.208.07,1,5.929-2.063.789a11.141,11.141,0,0,1-.4,1.762l1.511,1.609-3.486,4.9-2.016-.9a11.094,11.094,0,0,1-1.532.958l-.07,2.208Zm-3.036-4.843.6.231a9.068,9.068,0,0,0,2.472.566l.644.056.64,1.672,2.594-.437.057-1.79.591-.264a9.073,9.073,0,0,0,2.15-1.345l.495-.416,1.634.729,1.526-2.144-1.224-1.3.231-.6a9.087,9.087,0,0,0,.567-2.472l.055-.644,1.673-.64-.437-2.594-1.79-.057-.264-.591a9.084,9.084,0,0,0-1.345-2.15l-.416-.495.729-1.634-2.144-1.525-1.3,1.225-.6-.231a9.08,9.08,0,0,0-2.472-.567l-.644-.055-.64-1.672-2.594.437-.057,1.79-.591.263a9.089,9.089,0,0,0-2.15,1.345l-.495.417-1.634-.729-1.525,2.144,1.224,1.3-.232.6a9.078,9.078,0,0,0-.566,2.472l-.056.644-1.672.64.437,2.595,1.789.057.264.591a9.1,9.1,0,0,0,1.345,2.15l.417.495-.729,1.634,2.143,1.526Zm3.855-1.981a6.284,6.284,0,0,1-3.657-1.175h0a6.3,6.3,0,1,1,3.657,1.175Zm.019-10.6a4.265,4.265,0,0,0-2.479,7.74h0a4.266,4.266,0,1,0,2.479-7.74Z" transform="translate(-1059.276 -1484.129)" fill="#24739b"/>
  </g>
  <g id="Grupo_875312" data-name="Grupo 875312" transform="translate(116.395 37.336)">
    <g id="Grupo_875282" data-name="Grupo 875282" transform="translate(0.038 60.933)">
      <g id="Grupo_875281" data-name="Grupo 875281">
        <g id="Grupo_875280" data-name="Grupo 875280">
          <path id="Trazado_598981" data-name="Trazado 598981" d="M903.258,1599.419a4.3,4.3,0,0,1,.558,1.477,7.075,7.075,0,0,0,.682,1.743,16.614,16.614,0,0,1,.828,2.906,13.415,13.415,0,0,0-.391,1.946c.066.42.307,1.254-.071,1.31s-.807-.628-.807-.628a.555.555,0,0,1-.284.536.937.937,0,0,1-.951.034s-.229.426-.517.484a1.173,1.173,0,0,1-.946-.128,1.147,1.147,0,0,1-.718.231.942.942,0,0,1-.8-.5s-.711.144-.917-.188a3.168,3.168,0,0,1-.256-.985,11.476,11.476,0,0,1,.9-4.967,4.4,4.4,0,0,0-.235-3.859Z" transform="translate(-898.645 -1598.834)" fill="#eea886"/>
        </g>
      </g>
    </g>
    <g id="Grupo_875284" data-name="Grupo 875284" transform="translate(0 66.43)">
      <g id="Grupo_875283" data-name="Grupo 875283">
        <path id="Trazado_598982" data-name="Trazado 598982" d="M904.061,1622s.063-2.434-.578-2.953-.713.36-.713.36.087-.868-.613-.985-.73.914-.73.914a.676.676,0,0,0-.85-.532c-.735.137-.56.992-.56.992s-.7-.838-1.158-.033a3.587,3.587,0,0,0-.028,2.964s.217.368.917.188a.967.967,0,0,0,1.515.265s1.072.59,1.463-.356A.888.888,0,0,0,904.061,1622Z" transform="translate(-898.51 -1618.414)" fill="#db9c7c"/>
      </g>
    </g>
    <path id="Trazado_598983" data-name="Trazado 598983" d="M911.829,1461.451s-4.167,13.889-5.575,19.012c-.442,1.607-1.51,16.951-1.7,17.569s-5.475,1.464-5.475,1.464.64-19.2.7-20.243,5.832-22.483,7.511-23.248c1.258-.573,1.921-.1,3.506,1.078C913.022,1458.735,911.829,1461.451,911.829,1461.451Z" transform="translate(-898.92 -1435)" fill="#323657"/>
    <g id="Grupo_875285" data-name="Grupo 875285" transform="translate(53.549 0.752)">
      <rect id="Rectángulo_291815" data-name="Rectángulo 291815" width="11.4" height="0.846" transform="translate(0 6.243) rotate(-33.203)" fill="#4da8f2"/>
    </g>
    <path id="Trazado_598984" data-name="Trazado 598984" d="M1110.51,1389.819a2.483,2.483,0,0,1-.246.756s-.312.372-.518.65a2.343,2.343,0,0,0-.15.221,4.548,4.548,0,0,1-.788,1.225c-.454.461-2.224,1.926-2.224,1.926l-1.516-1.287-1.574-.706a29.664,29.664,0,0,1,1.255-4.309,1.586,1.586,0,0,1,.114-.13,5.829,5.829,0,0,1,.987-.679c.077-.064.887-.647,1.175-.572a.975.975,0,0,1,.727.607,2.331,2.331,0,0,1,1.078.693,1.449,1.449,0,0,1,.938.87S1110.479,1389.367,1110.51,1389.819Z" transform="translate(-1045.942 -1385.477)" fill="#efaa88"/>
    <g id="Grupo_875287" data-name="Grupo 875287" transform="translate(4.536 120.943)">
      <g id="Grupo_875286" data-name="Grupo 875286">
        <path id="Trazado_598985" data-name="Trazado 598985" d="M919.657,1812.911s-.38,2.637-.427,3.033-4.226-.233-4.226-.233l-.338-3.139S919.135,1812.539,919.657,1812.911Z" transform="translate(-914.666 -1812.571)" fill="#424773"/>
      </g>
    </g>
    <g id="Grupo_875289" data-name="Grupo 875289" transform="translate(3.883 123.802)">
      <g id="Grupo_875288" data-name="Grupo 875288">
        <path id="Trazado_598986" data-name="Trazado 598986" d="M917.6,1822.933a11.281,11.281,0,0,0,2.6,2.281c1.28.692,3.293.967,4.05,1.684.547.518,1.991,2.745-3.327,2.7s-7.882.315-8.452-.539.824-6.3.824-6.3A11.266,11.266,0,0,0,917.6,1822.933Z" transform="translate(-912.34 -1822.754)" fill="#292c47"/>
      </g>
    </g>
    <g id="Grupo_875291" data-name="Grupo 875291" transform="translate(34.474 120.943)">
      <g id="Grupo_875290" data-name="Grupo 875290">
        <path id="Trazado_598987" data-name="Trazado 598987" d="M1026.286,1812.911s-.38,2.637-.428,3.033-4.225-.233-4.225-.233l-.338-3.139S1025.764,1812.539,1026.286,1812.911Z" transform="translate(-1021.295 -1812.571)" fill="#424773"/>
      </g>
    </g>
    <g id="Grupo_875293" data-name="Grupo 875293" transform="translate(33.821 123.802)">
      <g id="Grupo_875292" data-name="Grupo 875292">
        <path id="Trazado_598988" data-name="Trazado 598988" d="M1024.23,1822.933a11.281,11.281,0,0,0,2.6,2.281c1.28.692,5.992,1.261,6.749,1.978.547.518,1.456,2.6-6.027,2.406-5.316-.138-7.881.315-8.452-.539s.824-6.3.824-6.3A10.22,10.22,0,0,0,1024.23,1822.933Z" transform="translate(-1018.969 -1822.754)" fill="#292c47"/>
      </g>
    </g>
    <g id="Grupo_875295" data-name="Grupo 875295" transform="translate(3.883 53.532)">
      <g id="Grupo_875294" data-name="Grupo 875294">
        <path id="Trazado_598989" data-name="Trazado 598989" d="M921.444,1572.475s-3.926,6.238-3.633,11.876-1.423,11.794-2.013,17.684c-.657,6.566-3.348,22.112-3.446,25.624s.417,14.728.417,14.728l5.386.123s4.524-27.177,5.7-29.95,6.982-22.542,7.177-24.76S921.444,1572.475,921.444,1572.475Z" transform="translate(-912.34 -1572.475)" fill="#292c47"/>
      </g>
    </g>
    <g id="Grupo_875297" data-name="Grupo 875297" transform="translate(11.012 52.458)">
      <g id="Grupo_875296" data-name="Grupo 875296">
        <path id="Trazado_598990" data-name="Trazado 598990" d="M960.373,1570.568s2.958,15.454,3.349,18.9.651,16.7.846,18.857,1.824,28.16,2.343,31.429h-6.886s-5.286-18.95-5.286-27.916-4.084-19.492-6.72-25.407-8.67-6.056-10.29-17.031C937.73,1569.4,958.179,1567.087,960.373,1570.568Z" transform="translate(-937.73 -1568.648)" fill="#292c47"/>
      </g>
    </g>
    <g id="Grupo_875299" data-name="Grupo 875299" transform="translate(16.241 0.607)">
      <g id="Grupo_875298" data-name="Grupo 875298">
        <path id="Trazado_598991" data-name="Trazado 598991" d="M959.652,1384.457s5.269-1.968,7.7,2.043,2.2,12.042-.46,13.029-6.646.471-8.006-2.039-2.588-6.139-2.529-8.564A5.284,5.284,0,0,1,959.652,1384.457Z" transform="translate(-956.354 -1383.974)" fill="#eea886"/>
      </g>
    </g>
    <g id="Grupo_875301" data-name="Grupo 875301" transform="translate(17.741 11.345)">
      <g id="Grupo_875300" data-name="Grupo 875300">
        <path id="Trazado_598992" data-name="Trazado 598992" d="M970.163,1427.219a4.556,4.556,0,0,0,.143,2.124c.362.7-6.827.719-6.827.719a47.334,47.334,0,0,0-1.69-7.033C960.683,1419.807,970.163,1427.219,970.163,1427.219Z" transform="translate(-961.699 -1422.217)" fill="#eea886"/>
      </g>
    </g>
    <g id="Grupo_875303" data-name="Grupo 875303" transform="translate(15.802)">
      <g id="Grupo_875302" data-name="Grupo 875302">
        <path id="Trazado_598993" data-name="Trazado 598993" d="M956.822,1393.967s.5.818,2.522.5,4.5-3.013,5.342-3.308.854-.793.854-.793l.529.773.9.057s-.819-2.41.417-3.394-1.283-7.8-7.779-5.532c0,0-4.989,1.375-4.808,4.213S955.705,1392.554,956.822,1393.967Z" transform="translate(-954.793 -1381.811)" fill="#d88a51"/>
      </g>
    </g>
    <g id="Grupo_875305" data-name="Grupo 875305" transform="translate(18.701 16.416)">
      <g id="Grupo_875304" data-name="Grupo 875304">
        <path id="Trazado_598994" data-name="Trazado 598994" d="M973.191,1442.248s-.023-1.339-.63-1.467-6.7-.714-7.445-.421v1.56S966.552,1442.8,973.191,1442.248Z" transform="translate(-965.117 -1440.279)" fill="#e2d2ca"/>
      </g>
    </g>
    <g id="Grupo_875307" data-name="Grupo 875307" transform="translate(24.522 6.49)">
      <g id="Grupo_875306" data-name="Grupo 875306">
        <path id="Trazado_598995" data-name="Trazado 598995" d="M987.741,1405.96c-.114-.476-1.324-1.836-1.787-.38s.7,3.415,1.349,3.247S988.029,1407.166,987.741,1405.96Z" transform="translate(-985.848 -1404.925)" fill="#eea886"/>
      </g>
    </g>
    <g id="Grupo_875309" data-name="Grupo 875309" transform="translate(7.334 6.451)">
      <g id="Grupo_875308" data-name="Grupo 875308">
        <path id="Trazado_598996" data-name="Trazado 598996" d="M954.149,1418.749c-4.178-.55-10.078-2.027-10.078-2.027l-8.075-.329s-7.411,1.632-10.329,2.95c-.277.125-.278,6.611-1.038,8.312l2.42,5.1s1.4,10.112,1.688,14.61c.133,2.064-2.883,19.359-2.883,19.359a55.739,55.739,0,0,0,8.743,1.559c5.511.608,19.28-.22,19.367-.87s-2.667-24.237-2.788-25.459c-.187-1.875.646-11.836.646-11.836,1.272-.987,12.444-6.173,15.492-8.875.816-.723,4.258-4.076,5.237-5.233a94.139,94.139,0,0,0,6.652-8.371c.392-.432-3.884-2.729-4.261-2.855-.33-.11-4.9,6-6.7,7.95a50.641,50.641,0,0,1-4.146,3.3S956.763,1418.9,954.149,1418.749Z" transform="translate(-924.63 -1404.787)" fill="#323657"/>
      </g>
    </g>
    <g id="Grupo_875311" data-name="Grupo 875311" transform="translate(14.99 1.563)">
      <g id="Grupo_875310" data-name="Grupo 875310">
        <path id="Trazado_598997" data-name="Trazado 598997" d="M954.946,1387.379s-6.719.526-.207,10.593Z" transform="translate(-951.898 -1387.379)" fill="#d88a51"/>
      </g>
    </g>
    <path id="Trazado_598998" data-name="Trazado 598998" d="M1123.67,1384.858l.552-.841-1.015.133Z" transform="translate(-1060.119 -1383.398)" fill="#dfe1e8"/>
  </g>
  <path id="Trazado_598999" data-name="Trazado 598999" d="M563.2,1294.768h28.128v24.682l-4.294-4.294H563.2Z" transform="translate(-563.196 -1254.476)" fill="#f3ab1d"/>
  <g id="Grupo_875318" data-name="Grupo 875318" transform="translate(14.064 43.305)">
    <g id="Grupo_875313" data-name="Grupo 875313" transform="translate(49.985 72.716)">
      <path id="Trazado_599000" data-name="Trazado 599000" d="M717.726,1699.841l-5.655-37.612,1.089-.168,5.655,37.611Z" transform="translate(-712.071 -1662.061)" fill="#5c5049"/>
    </g>
    <g id="Grupo_875314" data-name="Grupo 875314" transform="translate(43.079 72.716)">
      <path id="Trazado_599001" data-name="Trazado 599001" d="M693.129,1699.841l-5.655-37.612,1.089-.168,5.655,37.611Z" transform="translate(-687.474 -1662.061)" fill="#5c5049"/>
    </g>
    <g id="Grupo_875315" data-name="Grupo 875315" transform="translate(13.63 72.716)">
      <path id="Trazado_599002" data-name="Trazado 599002" d="M583.675,1699.841l-1.089-.168,5.655-37.611,1.089.168Z" transform="translate(-582.586 -1662.061)" fill="#5c5049"/>
    </g>
    <path id="Trazado_599003" data-name="Trazado 599003" d="M679.854,1542.569l4.43-46.608a88.885,88.885,0,0,0-12.431-.764l-7.036,47.372Z" transform="translate(-628.1 -1469.303)" fill="#fab46c"/>
    <rect id="Rectángulo_291816" data-name="Rectángulo 291816" width="15.037" height="2.368" transform="translate(36.718 70.898)" fill="#fab46c"/>
    <path id="Trazado_599004" data-name="Trazado 599004" d="M623.761,1540.817l-2.35-44.416s19.609-2.13,31.654-.293Z" transform="translate(-596.881 -1469.449)" fill="#fab46c"/>
    <path id="Trazado_599005" data-name="Trazado 599005" d="M636.782,1415.641s3.028-8.88-2.75-11.633-10.684,1.226-11.611,3.38-.682,6.069.109,8.8.676,6.887-1.042,8.277a9.635,9.635,0,0,0-3.741,8.4c.066,2.916,11.473-7.458,11.473-7.458Z" transform="translate(-594.243 -1403.071)" fill="#fccca2"/>
    <path id="Trazado_599006" data-name="Trazado 599006" d="M652.194,1762.51s-.18,6.275.716,6.653,4.288-1.8,5.784-3.963-1.875-7.181-2.428-9.952c-.231-1.161-2.867-3.247-4.152-2.649a6.279,6.279,0,0,0-2.223,2.13S653.161,1756.97,652.194,1762.51Z" transform="translate(-617.364 -1654.388)" fill="#d4c3bd"/>
    <g id="Grupo_875316" data-name="Grupo 875316" transform="translate(32.527 98.212)">
      <path id="Trazado_599007" data-name="Trazado 599007" d="M649.891,1755a34.6,34.6,0,0,1,1.685,3.8c.572,1.662.679,6.263,1.04,6.582s3.2-1.115,3.582-2.835-.773-5.16-1.87-6.968a11.23,11.23,0,0,0-2.213-2.713A2.854,2.854,0,0,0,649.891,1755Z" transform="translate(-649.891 -1752.87)" fill="#de9673"/>
    </g>
    <path id="Trazado_599008" data-name="Trazado 599008" d="M672.6,1762.305l3.054,4.457-.578.4-2.36-3.445Z" transform="translate(-633.695 -1661.444)" fill="#d4c3bd"/>
    <path id="Trazado_599009" data-name="Trazado 599009" d="M604.084,1582.5s1.493,2.522,0,4.358-11.534,6.88-11.461,9.792,1.913,7.473,2.574,8.63,3.1,5.957,4.366,8.766,8.593,16.248,10.025,19.278.551-12.118.551-12.118l-7.326-21.481,17.116-16.675S617.857,1578.438,604.084,1582.5Z" transform="translate(-576.175 -1530.919)" fill="#de9673"/>
    <path id="Trazado_599010" data-name="Trazado 599010" d="M624.089,1484.849s-4.749,1.053-6.635,2.154-6.071,6.169-6.071,8.348,18.307,4.214,18.307,4.214l3.47,12.668s9.253-2.258,10.355-4.131-3.644-15.2-4.3-18.011-4.123-4.7-7.978-5.243A26.469,26.469,0,0,0,624.089,1484.849Z" transform="translate(-589.668 -1461.716)" fill="#5ad1a5"/>
    <path id="Trazado_599011" data-name="Trazado 599011" d="M643.574,1588.265s-.331,2.167.551,3.085,4.94,6.271,2.791,11.53c-1.974,4.829-5.8,4.737-5.8,4.737h-5.924s1.72,8.693,1.165,14.421-3.168,18.809-3.224,19.47-2.5,2.727-3.22,1.681c0,0-.067-7.877-.452-10.851s-2.026-14.872-2.522-16.634-3.415-7.105-3.415-7.656-2.851-9.174,3.373-11.377S635.317,1588.311,643.574,1588.265Z" transform="translate(-597.929 -1536.269)" fill="#eea886"/>
    <path id="Trazado_599012" data-name="Trazado 599012" d="M628.058,1785.386s-4.086,4.766-3.627,5.623,4.469,1.293,6.989.556,3.058-6.761,4.371-9.264c.55-1.048-.187-4.328-1.563-4.671a6.281,6.281,0,0,0-3.068.258S632.294,1781.687,628.058,1785.386Z" transform="translate(-599.027 -1672.391)" fill="#e6d3cc"/>
    <g id="Grupo_875317" data-name="Grupo 875317" transform="translate(27.719 104.895)">
      <path id="Trazado_599013" data-name="Trazado 599013" d="M637.182,1777.277a34.613,34.613,0,0,1-1.082,4.017c-.6,1.652-3.41,5.3-3.331,5.772s3.191,1.147,4.568.048,2.643-4.5,2.928-6.594a11.225,11.225,0,0,0-.015-3.5A2.853,2.853,0,0,0,637.182,1777.277Z" transform="translate(-632.768 -1776.674)" fill="#eea886"/>
    </g>
    <path id="Trazado_599014" data-name="Trazado 599014" d="M662.095,1794.537l-.429,5.386-.7-.055.331-4.163Z" transform="translate(-625.331 -1684.626)" fill="#e6d3cc"/>
    <path id="Trazado_599015" data-name="Trazado 599015" d="M625.1,1597.531c-1.864,4.893-5.8,4.737-5.8,4.737h-5.924s-2.471-3.916-8.523-4.589a17.878,17.878,0,0,0-4.564.108l-.062.009c-8.04,1.191-6.488,4.142-6.464,4.219a14.424,14.424,0,0,1-1.2-5.624c.771-6.365,9.967-7.7,11.461-9.535s0-4.357,0-4.357c13.774-4.061,15.845.55,15.845.55.6-.084,2.151-.975,2.809-.979,0,0,.689,1.506,1.175,2.864C624.277,1586.133,627.12,1592.221,625.1,1597.531Z" transform="translate(-576.11 -1530.919)" fill="#323657"/>
    <path id="Trazado_599016" data-name="Trazado 599016" d="M619.448,1515.516l2.038,18.948H594.662l-2.038-18.948Z" transform="translate(-576.176 -1483.945)" fill="#ded1c5"/>
    <rect id="Rectángulo_291817" data-name="Rectángulo 291817" width="4.48" height="1.705" transform="translate(42.965 48.814)" fill="#ded1c5"/>
    <rect id="Rectángulo_291818" data-name="Rectángulo 291818" width="85.431" height="2.58" transform="translate(0 50.519)" fill="#bc8551"/>
    <path id="Trazado_599017" data-name="Trazado 599017" d="M650.091,1411.495s6.01,1.779,5.151,10.118-4.783,7.91-5.151,7.972-5.029.368-6.5-9.75S650.091,1411.495,650.091,1411.495Z" transform="translate(-612.702 -1409.043)" fill="#eea886"/>
    <path id="Trazado_599018" data-name="Trazado 599018" d="M660.034,1465.917a13.752,13.752,0,0,0,.213,4.479c.531,1.717-7,1.765-7,.352,0-1.6.77-2.944.049-5.693S660.034,1465.917,660.034,1465.917Z" transform="translate(-619.782 -1446.91)" fill="#eea886"/>
    <path id="Trazado_599019" data-name="Trazado 599019" d="M647.423,1413.9s3.266,5.194,6.7,6.4c0,0,1.877-8.716-5.874-10.542s-6.537,8.8-5.958,11.638A23.029,23.029,0,0,1,647.423,1413.9Z" transform="translate(-611.586 -1407.728)" fill="#fccca2"/>
    <path id="Trazado_599020" data-name="Trazado 599020" d="M656.6,1472.025a4.066,4.066,0,0,0,5.419.259,2.427,2.427,0,0,1-2.438,1.788A3.048,3.048,0,0,1,656.6,1472.025Z" transform="translate(-622.191 -1452.665)" fill="#a77860"/>
    <path id="Trazado_599021" data-name="Trazado 599021" d="M646.081,1412.159s1.719-3.329,4.622-3.478a5.731,5.731,0,0,1,4.629,2.369,4.935,4.935,0,0,0-4.625-2.835C647.214,1408.216,646.081,1412.159,646.081,1412.159Z" transform="translate(-614.624 -1406.771)" fill="#23344a"/>
    <path id="Trazado_599022" data-name="Trazado 599022" d="M659.41,1484.443s-.107,5.773-4.685,5.944-3.625-5.536-3.625-5.536A15.911,15.911,0,0,1,659.41,1484.443Z" transform="translate(-618.175 -1461.354)" fill="#eea886"/>
    <rect id="Rectángulo_291819" data-name="Rectángulo 291819" width="1.897" height="65.113" transform="translate(83.534 53.098)" fill="#807066"/>
    <rect id="Rectángulo_291820" data-name="Rectángulo 291820" width="1.897" height="65.113" transform="translate(0 53.098)" fill="#807066"/>
  </g>
</svg>
