<svg xmlns="http://www.w3.org/2000/svg" width="505" height="273.756" viewBox="0 0 505 273.756">
  <g id="Grupo_875265" data-name="Grupo 875265" transform="translate(-180 -6895)">
    <g id="Grupo_875261" data-name="Grupo 875261" transform="translate(-2655.075 6469.057)">
      <g id="Grupo_875203" data-name="Grupo 875203" transform="translate(2902.807 459.073)" opacity="0.9">
        <g id="Grupo_875188" data-name="Grupo 875188" transform="translate(0 29.767)" opacity="0.5">
          <g id="Grupo_875176" data-name="Grupo 875176" transform="translate(25.387 170.011)">
            <path id="Trazado_598767" data-name="Trazado 598767" d="M3565.436,2527.948s-15.8-8.564-25.038-7.179-27.778,10.9-36.719,10.692c-11.348-.256-18.281-.079-36.76-16.831.751.618,13.245,10.323,45.029-2.427,32.4-12.993,52.966,15.023,53.478,15.732A.063.063,0,0,1,3565.436,2527.948Z" transform="translate(-3466.919 -2508.77)" fill="#6db22f"/>
            <path id="Trazado_598768" data-name="Trazado 598768" d="M3565.426,2527.936c-.447-.452-14.869-14.962-34.207-12.788-19.642,2.208-20.259,6.987-33.832,7.83-12.043.748-23.3-2.019-30.468-8.347.751.618,13.245,10.323,45.029-2.427C3544.345,2499.211,3564.914,2527.227,3565.426,2527.936Z" transform="translate(-3466.919 -2508.77)" fill="#5a9331"/>
          </g>
          <g id="Grupo_875177" data-name="Grupo 875177" transform="translate(2.032 133.455)">
            <path id="Trazado_598769" data-name="Trazado 598769" d="M3366.294,2203.816a17.966,17.966,0,0,0-2.654-1.693c-6.7-3.634-26.479-10.945-64.905.387,0,0-27.642,7.49-40.667-15.594l0,0a50.81,50.81,0,0,0,22.248.981C3295.881,2185.077,3332.56,2169.3,3366.294,2203.816Z" transform="translate(-3258.068 -2181.857)" fill="#6db22f"/>
            <path id="Trazado_598770" data-name="Trazado 598770" d="M3366.334,2203.816c-.755-.5-1.643-1.071-2.653-1.693-10.192-6.251-32.9-17.47-56.031-9.588-25.242,8.6-49.163-5.4-49.536-5.617a50.808,50.808,0,0,0,22.248.981C3295.921,2185.077,3332.6,2169.3,3366.334,2203.816Z" transform="translate(-3258.108 -2181.857)" fill="#5a9331"/>
          </g>
          <g id="Grupo_875178" data-name="Grupo 875178" transform="translate(6.526 91.449)">
            <path id="Trazado_598771" data-name="Trazado 598771" d="M3395.748,1835.566c-17.7-18.882-42-15.664-64.614-12.918-18.6,2.258-32.439-13.368-32.869-13.857a.055.055,0,0,1-.01-.012,35.054,35.054,0,0,0,24.01,2.793c19.546-5.47,23.39-5.745,31.292-5.132C3384.489,1808.833,3395.748,1835.566,3395.748,1835.566Z" transform="translate(-3298.255 -1806.211)" fill="#6db22f"/>
            <path id="Trazado_598772" data-name="Trazado 598772" d="M3395.748,1835.566s-5.581-8.1-17.152-14.4-27.856-11.239-48.733-6.114c-20.511,5.03-31.229-5.873-31.6-6.257a.055.055,0,0,1-.01-.012,35.054,35.054,0,0,0,24.01,2.793c19.546-5.47,23.39-5.745,31.292-5.132C3384.489,1808.833,3395.748,1835.566,3395.748,1835.566Z" transform="translate(-3298.255 -1806.211)" fill="#5a9331"/>
          </g>
          <g id="Grupo_875179" data-name="Grupo 875179" transform="translate(16.301 61.973)">
            <path id="Trazado_598773" data-name="Trazado 598773" d="M3463.017,1558.851a9.568,9.568,0,0,0-1.417-1.23c-3.629-2.642-14.488-7.762-36.843,1.892-28.469,12.294-39.084-14.062-39.084-14.062a.029.029,0,0,0,.008.009c.408.288,12.106,8.495,25.374,1.762C3424.552,1540.377,3447.378,1538.922,3463.017,1558.851Z" transform="translate(-3385.672 -1542.619)" fill="#6db22f"/>
            <path id="Trazado_598774" data-name="Trazado 598774" d="M3463.1,1558.875c-.462-.433-.938-.851-1.437-1.254-10.843-8.84-30.37-11.371-47.368-4.806-17.5,6.759-28.222-6.924-28.552-7.356.408.288,12.106,8.495,25.374,1.762,13.5-6.844,36.324-8.3,51.963,11.63A.073.073,0,0,1,3463.1,1558.875Z" transform="translate(-3385.737 -1542.619)" fill="#5a9331"/>
          </g>
          <g id="Grupo_875180" data-name="Grupo 875180" transform="translate(12.306 43.761)">
            <path id="Trazado_598775" data-name="Trazado 598775" d="M3402.411,1386.764l-.03-.011c-.047-.02-.115-.051-.21-.085a.043.043,0,0,0-.025-.009c-1.377-.481-7.685-1.921-23.039,4.428-17.438,7.214-28.891-9.373-29.157-9.768a.011.011,0,0,1-.006-.005s13.567-3.611,21.986.168,21.769,1.934,24.15,2.5A32.955,32.955,0,0,1,3402.411,1386.764Z" transform="translate(-3349.944 -1379.757)" fill="#6db22f"/>
            <path id="Trazado_598776" data-name="Trazado 598776" d="M3402.433,1386.775c-.02-.007-.037-.016-.051-.021-.071-.029-.14-.06-.21-.085a.043.043,0,0,0-.025-.009c-7.472-3.1-16.229-.78-28.476.447-12.214,1.228-23.372-5.574-23.72-5.787a.011.011,0,0,1-.006-.005s13.567-3.611,21.986.168,21.769,1.934,24.15,2.5a32.955,32.955,0,0,1,6.331,2.786A.225.225,0,0,1,3402.433,1386.775Z" transform="translate(-3349.944 -1379.757)" fill="#5a9331"/>
          </g>
          <g id="Grupo_875181" data-name="Grupo 875181" transform="translate(0 15.987)">
            <path id="Trazado_598777" data-name="Trazado 598777" d="M3268.564,1148.529c-26.219,1.93-28.668-16.758-28.668-16.758C3254.688,1128.342,3268.564,1148.529,3268.564,1148.529Z" transform="translate(-3239.895 -1131.379)" fill="#6db22f"/>
            <path id="Trazado_598778" data-name="Trazado 598778" d="M3268.564,1148.529c-10.955-2.781-28.668-16.758-28.668-16.758C3254.688,1128.342,3268.564,1148.529,3268.564,1148.529Z" transform="translate(-3239.895 -1131.379)" fill="#5a9331"/>
          </g>
          <g id="Grupo_875182" data-name="Grupo 875182" transform="translate(22.754)">
            <path id="Trazado_598779" data-name="Trazado 598779" d="M3449.476,1021.537c13.314-22.67-2.37-33.123-2.37-33.123C3437.495,1000.171,3449.476,1021.537,3449.476,1021.537Z" transform="translate(-3443.373 -988.414)" fill="#6db22f"/>
            <path id="Trazado_598780" data-name="Trazado 598780" d="M3449.476,1021.537c2.345-11.056-2.37-33.123-2.37-33.123C3437.495,1000.171,3449.476,1021.537,3449.476,1021.537Z" transform="translate(-3443.373 -988.414)" fill="#5a9331"/>
          </g>
          <g id="Grupo_875183" data-name="Grupo 875183" transform="translate(116.421 94.579)">
            <path id="Trazado_598781" data-name="Trazado 598781" d="M4333.582,1834.206c.012.036.051.155.1.355l.015.068c.868,3.451,5.243,27.021-28.733,52.822,0,0-12.977,9.6-21.782,28.931-.128.288-11.678-28.635,19.794-53.352C4333.469,1839.084,4333.6,1834.471,4333.582,1834.206Z" transform="translate(-4281.011 -1834.206)" fill="#6db22f"/>
            <path id="Trazado_598782" data-name="Trazado 598782" d="M4350.884,1837.985c.868,3.451,5.244,27.021-28.733,52.822,0,0-12.976,9.6-21.781,28.931,0,0-1.14-22.1,21.828-40.268S4350.884,1837.985,4350.884,1837.985Z" transform="translate(-4298.196 -1837.563)" fill="#5a9331"/>
          </g>
          <g id="Grupo_875184" data-name="Grupo 875184" transform="translate(107.179 55.163)">
            <path id="Trazado_598783" data-name="Trazado 598783" d="M4236.134,1520.989c-20.02,16.569-32.616,30.966-37.011,46.861,0,0-.052-.217-.125-.627-.72-4.006-3.759-26.557,14.4-47.453,20.018-23.033,23.314-20.41,30.479-38.052C4243.877,1481.718,4256.149,1504.422,4236.134,1520.989Z" transform="translate(-4198.359 -1481.718)" fill="#5a9331"/>
          </g>
          <g id="Grupo_875185" data-name="Grupo 875185" transform="translate(35.334 1.474)">
            <path id="Trazado_598784" data-name="Trazado 598784" d="M3573.71,1033.04s.957,10.032,2.789,14.057c0,0-10.492-5.286-16.18-20.772s1.332-15.282-4.44-24.726c0,0,0,0,.007.005C3556.219,1001.814,3570.592,1011.09,3573.71,1033.04Z" transform="translate(-3555.878 -1001.599)" fill="#6db22f"/>
            <path id="Trazado_598785" data-name="Trazado 598785" d="M3573.762,1033.082s.957,10.032,2.789,14.057a125.948,125.948,0,0,1-12.359-27.671c-5.413-16.947-6.423-16-8.254-17.822C3556.271,1001.856,3570.644,1011.132,3573.762,1033.082Z" transform="translate(-3555.93 -1001.641)" fill="#5a9331"/>
          </g>
          <g id="Grupo_875186" data-name="Grupo 875186" transform="translate(76.813 4.037)">
            <path id="Trazado_598786" data-name="Trazado 598786" d="M3936.206,1061.7c-2.641,4.579-5.133,10.578-4.486,20.667a34.69,34.69,0,0,1-1.543-32.66c8.282-17.729,5.019-25,4.927-25.2C3935.295,1024.681,3949.912,1037.922,3936.206,1061.7Z" transform="translate(-3926.807 -1024.512)" fill="#6db22f"/>
            <path id="Trazado_598787" data-name="Trazado 598787" d="M3961.41,1061.7c-2.641,4.579-5.133,10.578-4.486,20.667-.091-.195-5.1-11.146,2.309-30.137,7.389-18.937,1.222-27.517,1.075-27.719C3960.5,1024.681,3975.115,1037.922,3961.41,1061.7Z" transform="translate(-3952.011 -1024.512)" fill="#5a9331"/>
          </g>
          <g id="Grupo_875187" data-name="Grupo 875187" transform="translate(99.966 19.572)">
            <path id="Trazado_598788" data-name="Trazado 598788" d="M4162.255,1205.136S4139.432,1223,4134.7,1241.7a.15.15,0,0,1,0,.019s-6.483-20.889,16.668-45.377c16.934-17.916,17.984-26.661,17.329-30.066a4.52,4.52,0,0,0-.612-1.649C4169.344,1166.357,4182.108,1184.922,4162.255,1205.136Z" transform="translate(-4133.855 -1164.493)" fill="#6db22f"/>
            <path id="Trazado_598789" data-name="Trazado 598789" d="M4168.924,1204.084s-22.824,17.867-27.561,36.564c.133-.742,4.577-24.672,20.9-41.847,15.269-16.069,15.639-26.406,13.1-33.578-.216-.618-.458-1.21-.71-1.782,0,0,0,0,.007.009a.247.247,0,0,0,.02.024l0,.007a.584.584,0,0,1,.055.074c0,.007.01.012.014.019C4176.012,1165.3,4188.778,1183.87,4168.924,1204.084Z" transform="translate(-4140.524 -1163.441)" fill="#5a9331"/>
          </g>
          <path id="Trazado_598790" data-name="Trazado 598790" d="M4241.206,1520.989c-20.02,16.569-32.616,30.966-37.011,46.861,0,0-.051-.217-.125-.627,2.2-22.586,11.753-33.74,20.35-41.44,26.964-24.149,24.53-44.065,24.53-44.065S4261.222,1504.422,4241.206,1520.989Z" transform="translate(-4096.252 -1426.555)" fill="#6db22f"/>
          <path id="Trazado_598791" data-name="Trazado 598791" d="M3606.649,1459.247c-.343-.213-.566-.374-.833-.561-.25-.183-.5-.365-.74-.552-.484-.372-.948-.756-1.408-1.143-.906-.785-1.79-1.587-2.625-2.428a65.942,65.942,0,0,1-4.73-5.264,86.667,86.667,0,0,1-7.817-11.641,115.422,115.422,0,0,1-6.07-12.555c-1.776-4.29-3.277-8.679-4.621-13.107-1.366-4.424-2.436-8.924-3.439-13.431-.444-2.266-.951-4.519-1.315-6.8l-.59-3.409-.5-3.422c-.156-1.142-.353-2.279-.475-3.425l-.405-3.432-.2-1.716c-.062-.573-.108-1.146-.163-1.72l-.316-3.44c-.221-2.3-.383-4.551-.65-6.821-.246-2.266-.561-4.522-.906-6.773a119.468,119.468,0,0,0-2.892-13.337c-.629-2.185-1.316-4.353-2.094-6.489s-1.65-4.234-2.606-6.295a64.267,64.267,0,0,0-7-11.653,54.888,54.888,0,0,0-9.512-9.71,60.083,60.083,0,0,0-5.577-3.934c-1.935-1.2-3.937-2.3-5.981-3.318a135.894,135.894,0,0,0-12.651-5.314c-2.145-.812-4.294-1.615-6.417-2.5a44.279,44.279,0,0,1-6.18-3.057c-1.93-1.253-3.816-2.545-5.747-3.785-.964-.62-1.928-1.241-2.9-1.84q-.732-.452-1.475-.884c-.249-.142-.5-.285-.751-.417-.126-.069-.255-.131-.383-.194a1.241,1.241,0,0,0-.4-.139,1.235,1.235,0,0,1,.405.133c.129.061.26.121.387.188.256.128.507.267.759.4q.751.419,1.49.859c.988.583,1.963,1.188,2.938,1.792,1.949,1.206,3.869,2.473,5.806,3.684a44.062,44.062,0,0,0,6.19,2.931c2.128.843,4.288,1.608,6.446,2.383a136.425,136.425,0,0,1,12.8,5.12c2.079.99,4.122,2.064,6.1,3.25a60.97,60.97,0,0,1,5.728,3.895,55.965,55.965,0,0,1,9.86,9.729,65.531,65.531,0,0,1,7.344,11.766c1.01,2.083,1.926,4.21,2.765,6.366s1.565,4.354,2.243,6.564a121.2,121.2,0,0,1,3.167,13.487c.39,2.275.747,4.556,1.036,6.846.308,2.281.516,4.6.772,6.863l.372,3.4c.064.567.119,1.135.19,1.7l.23,1.7.459,3.392c.14,1.133.354,2.253.528,3.381l.554,3.375.641,3.359c.4,2.245.937,4.459,1.412,6.686,1.066,4.426,2.194,8.839,3.61,13.158,1.394,4.324,2.938,8.6,4.743,12.754a112.219,112.219,0,0,0,6.105,12.1,83.259,83.259,0,0,0,7.694,11.049,62.315,62.315,0,0,0,4.544,4.888c.793.773,1.623,1.5,2.461,2.2.424.344.849.683,1.28,1,.214.161.432.312.646.465s.452.305.6.392l.034.02a1.882,1.882,0,0,1-1.925,3.234Z" transform="translate(-3467.601 -1251.611)" fill="#3f1c0c"/>
        </g>
        <g id="Grupo_875201" data-name="Grupo 875201" transform="translate(64.125 0)" opacity="0.5">
          <g id="Grupo_875189" data-name="Grupo 875189" transform="translate(132.942 164.508)">
            <path id="Trazado_598792" data-name="Trazado 598792" d="M5082.34,2193.356c-4.756,28.763-11.234,33.637-21.439,42.116-5.561,4.619-18.694,8.32-29.4,11.963a73.892,73.892,0,0,0-11.994,4.917,26.171,26.171,0,0,0-6.808,6.22c-1.075,1.321-2.1,2.731-3.063,4.162-.35.518-.689,1.039-1.021,1.559h0c-1.131,1.777-2.156,3.548-3.049,5.179H5002.2c.188-1.56.456-3.3.835-5.179h0q.155-.766.336-1.559c.306-1.338.671-2.731,1.1-4.162a56.571,56.571,0,0,1,4.678-11.137c5.328-9.576,14.483-18.921,30.19-23.593,38.22-11.366,42.728-29.233,43-30.471A.04.04,0,0,0,5082.34,2193.356Z" transform="translate(-5002.195 -2193.356)" fill="#6db22f"/>
            <path id="Trazado_598793" data-name="Trazado 598793" d="M5082.337,2193.481c-1.972,11-10.271,21.7-21.839,29.761-13.042,9.087-17.078,5.158-36.671,17.4a42.113,42.113,0,0,0-8.377,6.9,48.9,48.9,0,0,0-7.779,11.137c-.728,1.414-1.369,2.809-1.932,4.162q-.33.791-.623,1.56h0c-.712,1.854-1.278,3.6-1.725,5.179h-1.2c.188-1.56.456-3.3.835-5.179h0q.155-.766.336-1.56c.306-1.338.671-2.731,1.1-4.162a56.564,56.564,0,0,1,4.678-11.137c5.328-9.576,14.483-18.921,30.19-23.593C5077.558,2212.586,5082.065,2194.719,5082.337,2193.481Z" transform="translate(-5002.195 -2193.467)" fill="#5a9331"/>
          </g>
          <g id="Grupo_875190" data-name="Grupo 875190" transform="translate(120.498 113.33)">
            <path id="Trazado_598794" data-name="Trazado 598794" d="M4890.915,1829.783a20.978,20.978,0,0,1,1.2-3.478c3.492-8.191,16.3-29.258,59.724-46.792,0,0,30.755-13.219,25.916-43.821l0,.005a59.407,59.407,0,0,1-19.663,17.058C4941.788,1761.474,4896.74,1773.671,4890.915,1829.783Z" transform="translate(-4890.915 -1735.693)" fill="#6db22f"/>
            <path id="Trazado_598795" data-name="Trazado 598795" d="M4890.915,1829.826c.328-1.007.727-2.174,1.2-3.478,4.794-13.128,17.439-39.9,44.35-49.481,29.365-10.459,41.106-40.653,41.287-41.126a59.41,59.41,0,0,1-19.663,17.058C4941.788,1761.517,4896.74,1773.714,4890.915,1829.826Z" transform="translate(-4890.915 -1735.736)" fill="#5a9331"/>
          </g>
          <g id="Grupo_875191" data-name="Grupo 875191" transform="translate(99.566 75.843)">
            <path id="Trazado_598796" data-name="Trazado 598796" d="M4705.233,1495.807c2.491-30.147,27.085-44.853,49.792-58.765,18.673-11.441,20-35.806,20.037-36.566a.075.075,0,0,0,0-.018,40.977,40.977,0,0,1-19.961,20c-21.874,9.188-25.593,11.729-32.386,18.031C4696.125,1463.145,4705.233,1495.807,4705.233,1495.807Z" transform="translate(-4703.728 -1400.457)" fill="#6db22f"/>
            <path id="Trazado_598797" data-name="Trazado 598797" d="M4705.233,1495.807s-.771-11.469,5.246-25.651,17.348-30.527,40.19-41c22.438-10.292,24.333-28.062,24.393-28.683a.075.075,0,0,0,0-.018,40.977,40.977,0,0,1-19.961,20c-21.874,9.188-25.593,11.729-32.386,18.031C4696.125,1463.145,4705.233,1495.807,4705.233,1495.807Z" transform="translate(-4703.728 -1400.457)" fill="#5a9331"/>
          </g>
          <g id="Grupo_875192" data-name="Grupo 875192" transform="translate(79.626 56.19)">
            <path id="Trazado_598798" data-name="Trazado 598798" d="M4525.425,1293.162a11.2,11.2,0,0,1,.405-2.156c1.4-5.056,7.63-17.632,35.114-25.03,35-9.421,25.58-41.269,25.58-41.269a.036.036,0,0,1,0,.014c-.164.56-4.916,16.573-21.958,20.044C4547.232,1248.3,4525.271,1263.552,4525.425,1293.162Z" transform="translate(-4525.423 -1224.708)" fill="#6db22f"/>
            <path id="Trazado_598799" data-name="Trazado 598799" d="M4525.416,1293.309c.109-.732.242-1.46.4-2.192,3.509-15.972,19.554-32.474,39.889-38.808,20.939-6.525,20.817-26.842,20.805-27.477-.164.56-4.917,16.573-21.958,20.044-17.333,3.537-39.294,18.786-39.141,48.4A.1.1,0,0,0,4525.416,1293.309Z" transform="translate(-4525.414 -1224.818)" fill="#5a9331"/>
          </g>
          <g id="Grupo_875193" data-name="Grupo 875193" transform="translate(86.128 35.441)">
            <path id="Trazado_598800" data-name="Trazado 598800" d="M4583.665,1082.26l.02-.032c.028-.052.068-.13.13-.23a.051.051,0,0,1,.017-.027c.911-1.441,5.643-7.342,24.315-12.68,21.21-6.061,19.65-29.57,19.608-30.125a.018.018,0,0,0,0-.01s-15.048,6.548-20.013,16.125-18.532,17.583-20.3,19.828A38.6,38.6,0,0,0,4583.665,1082.26Z" transform="translate(-4583.653 -1039.157)" fill="#6db22f"/>
            <path id="Trazado_598801" data-name="Trazado 598801" d="M4583.559,1082.285c.013-.021.021-.042.031-.057.044-.079.084-.156.13-.23a.051.051,0,0,1,.017-.027c4.592-8.265,14.3-12.5,26.4-20.276,12.077-7.748,17.355-22.083,17.52-22.529a.014.014,0,0,0,0-.01s-15.048,6.548-20.013,16.125-18.532,17.583-20.3,19.828a38.6,38.6,0,0,0-3.773,7.151A.181.181,0,0,0,4583.559,1082.285Z" transform="translate(-4583.559 -1039.157)" fill="#5a9331"/>
          </g>
          <g id="Grupo_875194" data-name="Grupo 875194" transform="translate(106.324)">
            <path id="Trazado_598802" data-name="Trazado 598802" d="M4764.232,758.388c25.414-17.278,14.082-36.172,14.082-36.172C4762.276,729.821,4764.232,758.388,4764.232,758.388Z" transform="translate(-4764.157 -722.216)" fill="#6db22f"/>
            <path id="Trazado_598803" data-name="Trazado 598803" d="M4764.232,758.388c8.013-10.5,14.082-36.172,14.082-36.172C4762.276,729.821,4764.232,758.388,4764.232,758.388Z" transform="translate(-4764.157 -722.216)" fill="#5a9331"/>
          </g>
          <g id="Grupo_875195" data-name="Grupo 875195" transform="translate(83.629 4.24)">
            <path id="Trazado_598804" data-name="Trazado 598804" d="M4583.8,792.185c-28.66-11.09-21.89-32.056-21.89-32.056C4579.249,763.914,4583.8,792.185,4583.8,792.185Z" transform="translate(-4561.209 -760.129)" fill="#6db22f"/>
            <path id="Trazado_598805" data-name="Trazado 598805" d="M4589.333,792.185c-10.179-8.422-21.89-32.056-21.89-32.056C4584.786,763.914,4589.333,792.185,4589.333,792.185Z" transform="translate(-4566.747 -760.129)" fill="#5a9331"/>
          </g>
          <g id="Grupo_875196" data-name="Grupo 875196" transform="translate(22.519 194.37)">
            <path id="Trazado_598806" data-name="Trazado 598806" d="M4014.723,2460.4c.014.042.065.179.163.4l.036.073c1.712,3.792,14.826,28.555,64.684,27.5,0,0,18.859-.632,40.962,10.674.326.17-10.1-34.707-56.882-34.482C4018.369,2464.789,4014.9,2460.66,4014.723,2460.4Z" transform="translate(-4014.723 -2460.403)" fill="#6db22f"/>
            <path id="Trazado_598807" data-name="Trazado 598807" d="M4016.506,2464.627c1.712,3.792,14.825,28.555,64.683,27.5,0,0,18.859-.632,40.963,10.673,0,0-15.007-21.064-49.241-21.021S4016.506,2464.627,4016.506,2464.627Z" transform="translate(-4016.307 -2464.155)" fill="#5a9331"/>
          </g>
          <g id="Grupo_875197" data-name="Grupo 875197" transform="translate(8.81 146.436)">
            <path id="Trazado_598808" data-name="Trazado 598808" d="M3927.743,2062.087c30.369.632,52.363,4.667,67.935,16.031,0,0-.111-.236-.341-.665-2.251-4.191-15.848-27.051-47.658-33-35.064-6.553-36.178-1.757-55.554-12.709C3892.125,2031.747,3897.378,2061.453,3927.743,2062.087Z" transform="translate(-3892.125 -2031.747)" fill="#5a9331"/>
          </g>
          <g id="Grupo_875198" data-name="Grupo 875198" transform="translate(75.582 12.016)">
            <path id="Trazado_598809" data-name="Trazado 598809" d="M4497.466,871.421s6.411,9.883,7.657,14.9c0,0,5.769-12.462-.271-30.777s-12.319-13.028-13.895-25.87c0,0,0,.005,0,.01C4490.8,830.119,4484.378,849.054,4497.466,871.421Z" transform="translate(-4489.246 -829.674)" fill="#6db22f"/>
            <path id="Trazado_598810" data-name="Trazado 598810" d="M4497.466,871.5s6.411,9.883,7.657,14.9c0,0-1.418-14.843-8.781-34.319-7.354-19.452-5.744-19.323-5.386-22.318C4490.8,830.2,4484.378,849.131,4497.466,871.5Z" transform="translate(-4489.246 -829.75)" fill="#5a9331"/>
          </g>
          <g id="Grupo_875199" data-name="Grupo 875199" transform="translate(33.392 50.519)">
            <path id="Trazado_598811" data-name="Trazado 598811" d="M4138.138,1208.847c5.745,2.275,12.385,5.959,19.12,15.669a40.547,40.547,0,0,0-22.311-31.032c-20.463-10.22-22.754-19.248-22.813-19.5C4112.082,1174.282,4108.313,1197.026,4138.138,1208.847Z" transform="translate(-4111.955 -1173.989)" fill="#6db22f"/>
            <path id="Trazado_598812" data-name="Trazado 598812" d="M4138.138,1208.847c5.745,2.275,12.385,5.959,19.12,15.669-.058-.244-3.425-13.912-24.006-25.924-20.522-11.975-21.107-24.312-21.118-24.6C4112.082,1174.282,4108.313,1197.026,4138.138,1208.847Z" transform="translate(-4111.955 -1173.989)" fill="#5a9331"/>
          </g>
          <g id="Grupo_875200" data-name="Grupo 875200" transform="translate(0 100.323)">
            <path id="Trazado_598813" data-name="Trazado 598813" d="M3848.161,1653.971s33.88-.216,51.8,13.467a.13.13,0,0,0,.017.014s-9.235-23.84-48.226-29.45c-28.522-4.108-35.837-11.353-37.71-14.948a5.278,5.278,0,0,1-.637-1.955C3813.5,1623.6,3815.3,1649.88,3848.161,1653.971Z" transform="translate(-3813.398 -1620.905)" fill="#6db22f"/>
            <path id="Trazado_598814" data-name="Trazado 598814" d="M3848.1,1652.437s33.88-.215,51.8,13.467c-.661-.583-22.113-19.271-49.534-23.146-25.655-3.625-33.5-12.823-36.384-21.238-.25-.722-.459-1.441-.643-2.148a.034.034,0,0,1,0,.014.215.215,0,0,1,0,.036l0,.009a.73.73,0,0,0,0,.108c0,.008,0,.018,0,.026C3813.443,1622.07,3815.238,1648.346,3848.1,1652.437Z" transform="translate(-3813.34 -1619.371)" fill="#5a9331"/>
          </g>
          <path id="Trazado_598815" data-name="Trazado 598815" d="M3927.743,2062.087c30.369.632,52.363,4.667,67.935,16.031,0,0-.111-.236-.341-.665-18.422-19.085-35.271-22.363-48.739-23.169-42.235-2.53-54.473-22.538-54.473-22.538S3897.378,2061.453,3927.743,2062.087Z" transform="translate(-3883.315 -1885.311)" fill="#6db22f"/>
          <path id="Trazado_598816" data-name="Trazado 598816" d="M4560.791,1250.309h-3.856q-.438-2.6-.986-5.18h0q-.163-.781-.339-1.559t-.352-1.532q-.156-.659-.317-1.315-.135-.552-.277-1.1c-.018-.071-.035-.142-.054-.213q-.189-.736-.384-1.471-.258-.962-.529-1.92c-.737-2.6-1.555-5.182-2.432-7.745q-.938-2.743-1.96-5.459c-1.84-4.984-4.012-9.845-6.251-14.672-.99-2-1.932-4.017-2.956-6q-.26-.505-.53-1.006c-.024-.048-.051-.1-.077-.145l-1.521-2.907,0,0-.33-.632-1.945-3.494c-.661-1.158-1.277-2.341-1.972-3.479l-2.043-3.44-1.022-1.72c-.346-.57-.708-1.131-1.061-1.7l-2.133-3.388c-1.408-2.259-2.9-4.534-4.277-6.846-1.4-2.306-2.728-4.655-4.025-7.022-1.824-3.382-3.529-6.832-5.083-10.349l-.053-.121q-.753-1.709-1.459-3.44c-.1-.247-.2-.494-.3-.742-.985-2.516-1.9-5.06-2.714-7.641s-1.5-5.2-2.093-7.839a76.639,76.639,0,0,1-1.821-16.11,65.55,65.55,0,0,1,.763-10.125c.03-.2.062-.392.093-.588.04-.25.083-.5.127-.747q.407-2.324.98-4.613a71.195,71.195,0,0,1,2.417-7.727c.951-2.524,2.041-4.992,3.227-7.408,1.886-3.847,4.04-7.542,6.268-11.182.027-.047.057-.095.086-.142q.435-.712.875-1.42c.047-.076.094-.154.142-.23q.313-.506.628-1.011c1.414-2.277,2.836-4.548,4.172-6.865.422-.732.835-1.47,1.232-2.215a43.344,43.344,0,0,0,2.309-4.965c.9-2.516,1.732-5.071,2.642-7.591.454-1.262.908-2.523,1.389-3.774.239-.626.485-1.25.741-1.869.131-.309.259-.619.4-.922.067-.154.143-.3.218-.453a1.629,1.629,0,0,1,.251-.4,1.687,1.687,0,0,0-.244.4c-.071.151-.145.3-.209.456-.137.306-.26.617-.386.928q-.367.935-.708,1.881c-.458,1.259-.891,2.527-1.323,3.8-.867,2.538-1.656,5.092-2.514,7.641a43.525,43.525,0,0,1-2.152,4.871c-.415.814-.846,1.619-1.287,2.418-1.3,2.349-2.688,4.647-4.062,6.948l-.433.725c-.944,1.58-1.879,3.165-2.791,4.762-1.178,2.061-2.315,4.143-3.379,6.26l-.258.519q-.442.892-.865,1.791c-1.133,2.415-2.17,4.875-3.066,7.383a70.078,70.078,0,0,0-2.251,7.653,64.253,64.253,0,0,0-1.658,15.8,71.345,71.345,0,0,0,.957,10.255q.141.872.3,1.74s0,.005,0,.008q.354,1.886.792,3.754c.621,2.581,1.359,5.134,2.185,7.658s1.785,5.005,2.8,7.464a139.492,139.492,0,0,0,7.04,14.315c1.319,2.313,2.669,4.608,4.089,6.861,1.1,1.782,2.254,3.508,3.407,5.262q.347.526.694,1.056l.224.346.036.054,2.209,3.38c.367.564.741,1.123,1.1,1.693l1.061,1.719,2.123,3.438c.721,1.138,1.366,2.323,2.052,3.481l2.027,3.5,1.936,3.551c1.322,2.351,2.5,4.783,3.733,7.181,1.134,2.341,2.255,4.69,3.329,7.062q.19.417.377.835l.028.062c1.009,2.256,1.976,4.533,2.874,6.84q1.3,3.3,2.494,6.652c1.016,2.872,1.957,5.772,2.794,8.708q.345,1.211.671,2.428.555,2.072,1.048,4.162.185.779.358,1.559h0Q4560.32,1247.706,4560.791,1250.309Z" transform="translate(-4428.218 -1009.682)" fill="#3f1c0c"/>
        </g>
        <g id="Grupo_875202" data-name="Grupo 875202" transform="translate(212.643 10.711)" opacity="0.5">
          <path id="Trazado_598817" data-name="Trazado 598817" d="M5567.808,2198.312c-1.243,2.826-19.3,29.719-77.517,27.8,0,0,11.344-8.573,35.085-13.813,23.205-5.118,39.389-10.812,42.14-13.833a1.955,1.955,0,0,0,.169-.205C5567.887,2197.983,5567.938,2198.02,5567.808,2198.312Z" transform="translate(-5451.288 -2043.747)" fill="#6db22f"/>
          <path id="Trazado_598818" data-name="Trazado 598818" d="M5180.54,1842.518a.011.011,0,0,1-.006-.006c-.387-.438-25.36-28.508-28.712-37.6-3.492-9.483-4.785-22.522-6.562-32.141-.916-4.948-1.959-8.99-3.5-11.179-.085-.126-.176-.247-.267-.36C5142.447,1762.384,5173.012,1799.693,5180.54,1842.518Z" transform="translate(-5141.494 -1655.753)" fill="#6db22f"/>
          <path id="Trazado_598819" data-name="Trazado 598819" d="M5656.291,1983.638s-12.085,3.189-15.311,5.827c-6.134,5.022-20.812,7.755-36.423,8.135-9.648.233-15.114,1.412-35.349,12.608a.4.4,0,0,0,.036-.028c1.151-.971,26.014-21.676,48.189-22.215,22.707-.557,22.337-7.069,27.568-7.353S5656.291,1983.638,5656.291,1983.638Z" transform="translate(-5521.381 -1850.589)" fill="#6db22f"/>
          <path id="Trazado_598820" data-name="Trazado 598820" d="M5198.436,1670.582c-3.082-14.466-16.1-29.994-19.5-34.83s-6.345-14.44-7.872-24.844-17.683-21.051-17.683-21.051c18.25,2.691,28.257,17.268,29.343,23.922s4.616,16.35,11.1,27.127S5198.436,1670.582,5198.436,1670.582Z" transform="translate(-5152.051 -1503.544)" fill="#6db22f"/>
          <path id="Trazado_598821" data-name="Trazado 598821" d="M5782.2,1655.679c-4.153,8.8-20.933,25.169-41.947,26.124-20.686.939-45.013,10.569-45.768,10.867a.052.052,0,0,1,.021-.014c.279-.139.571-.308.88-.5,6.051-3.789,18.241-16.9,43.618-18.468A71.922,71.922,0,0,0,5782.2,1655.679Z" transform="translate(-5632.647 -1562.007)" fill="#6db22f"/>
          <path id="Trazado_598822" data-name="Trazado 598822" d="M5270.317,1292.97c-.423-.237-.654-.354-.654-.354A3.048,3.048,0,0,1,5270.317,1292.97Z" transform="translate(-5255.33 -1239.543)" fill="#6db22f"/>
          <path id="Trazado_598823" data-name="Trazado 598823" d="M5320.56,1379.367s-9.03.843-23.1-40.485c-9.425-27.7-16.429-37.8-19.944-41.429-.008-.011-.02-.02-.026-.031a12,12,0,0,0-1.849-1.594c4.115,2.292,26.043,15.556,29.7,39.962,4.04,26.932,11.536,38.609,15.2,43.564A.077.077,0,0,1,5320.56,1379.367Z" transform="translate(-5260.642 -1242.396)" fill="#6db22f"/>
          <path id="Trazado_598824" data-name="Trazado 598824" d="M5854.359,1519.949s-.008.009-.009.012l-.037.032c-1.02.967-17.539,16.492-28.727,22.764-11.457,6.426-40.988,10.456-41.451,10.518.267-.215,16.142-12.69,32.565-15.948C5833.14,1534.068,5854.035,1520.168,5854.359,1519.949Z" transform="translate(-5712.272 -1441.454)" fill="#6db22f"/>
          <path id="Trazado_598825" data-name="Trazado 598825" d="M5499.81,1109.033a.04.04,0,0,0-.015-.01c-.664-.42-21.984-14.071-29.149-43.928-7.283-30.331,1.795-28.7-6.079-48.736a.058.058,0,0,0,.012.012c.4.517,13.11,17.3,14.157,49.015C5478.736,1065.386,5480.355,1085.935,5499.81,1109.033Z" transform="translate(-5428.439 -994.178)" fill="#6db22f"/>
          <path id="Trazado_598826" data-name="Trazado 598826" d="M5900.954,1289.782c-7.982,3.318-29.105,11.876-32.662,13.315l0,0-.018,0-.494.2s.059-.1.176-.289c1.427-2.332,11.694-18.08,30.734-22.789,20.259-5.014,34.414-20.912,34.854-21.409,0,0,.007-.009.009-.012C5927.428,1274.53,5909.687,1286.156,5900.954,1289.782Z" transform="translate(-5786.563 -1209.517)" fill="#6db22f"/>
          <path id="Trazado_598827" data-name="Trazado 598827" d="M5670.978,1045.753a.087.087,0,0,1-.025-.023c-.772-.789-17.249-17.81-18.934-40.158-1.72-22.872-1.259-33.218-4.909-40.022h0c.415.552,13.683,18.406,13.438,45.921,0,0,.438,10.392,10.4,34.208A.666.666,0,0,1,5670.978,1045.753Z" transform="translate(-5590.57 -949.05)" fill="#6db22f"/>
          <path id="Trazado_598828" data-name="Trazado 598828" d="M5852.256,938.126a98.062,98.062,0,0,1-8.727-37.9c-.567-21.912-.74-29.279-3.474-31.984a15.094,15.094,0,0,1,1.755,1.488c.031.029.064.063.095.095,3.848,3.74,12.156,14.458,10.057,35.8-1.921,19.53-.921,27.81-.176,30.974A9.465,9.465,0,0,0,5852.256,938.126Z" transform="translate(-5761.94 -862.624)" fill="#6db22f"/>
          <path id="Trazado_598829" data-name="Trazado 598829" d="M5949.956,1494.9v0s0,0,0,0Z" transform="translate(-5859.548 -1419.205)" fill="#6db22f"/>
          <path id="Trazado_598830" data-name="Trazado 598830" d="M6358.2,1047.288c0,.02,0,.036,0,.055C6358.2,1047.308,6358.2,1047.288,6358.2,1047.288Z" transform="translate(-6222.148 -1021.648)" fill="#6db22f"/>
          <path id="Trazado_598831" data-name="Trazado 598831" d="M5995.487,1077.324c-20.16,11.692-23.489,13.687-23.585,13.746l0-.007a114.477,114.477,0,0,1,21.22-20.31c12.68-9.372,21.383-19.415,21.949-22.635,0-.03.006-.061.011-.09a1.2,1.2,0,0,0,.016-.245C6015.133,1048.868,6015.3,1065.835,5995.487,1077.324Z" transform="translate(-5879.043 -1022.088)" fill="#6db22f"/>
          <path id="Trazado_598832" data-name="Trazado 598832" d="M5425.138,1407a7.831,7.831,0,0,1-.11-.929c-.031-.285-.024-.526-.03-.783l-.01-.762c.006-.249.022-.49.034-.736.03-.487.036-.984.091-1.461l.158-1.431.081-.715c.028-.237.074-.469.11-.7l.232-1.4c.083-.465.144-.939.246-1.4l.3-1.379.3-1.378c.1-.46.194-.92.319-1.37l.71-2.714.355-1.356.406-1.337.813-2.674.406-1.336.45-1.319.9-2.636c.306-.877.6-1.76.913-2.632l.986-2.6.987-2.6c.33-.865.646-1.738,1.011-2.589l2.121-5.134c5.738-13.652,12.322-26.893,19.237-39.937,3.42-6.548,6.966-13,10.413-19.518s6.893-13.031,10.212-19.609c.823-1.647,1.677-3.281,2.475-4.94l2.411-4.971c1.542-3.34,3.108-6.678,4.38-10.126.346-.853.621-1.728.906-2.6.307-.867.519-1.76.765-2.645.226-.89.418-1.789.613-2.689s.375-1.8.582-2.7a93.053,93.053,0,0,1,3.172-10.6,93.033,93.033,0,0,0-2.95,10.643c-.187.9-.358,1.806-.525,2.713s-.353,1.813-.561,2.714c-.23.9-.425,1.8-.716,2.681-.269.885-.529,1.774-.858,2.638-1.21,3.5-2.71,6.875-4.189,10.257l-2.312,5.03c-.766,1.68-1.586,3.331-2.377,5-3.188,6.655-6.5,13.248-9.816,19.835s-6.737,13.132-10.009,19.724c-6.629,13.148-12.917,26.478-18.33,40.135l-2,5.13c-.344.851-.638,1.719-.947,2.582l-.923,2.589-.922,2.589c-.3.866-.562,1.741-.845,2.611l-.837,2.612-.416,1.306-.37,1.317-.742,2.633-.371,1.316-.317,1.325-.636,2.65c-.113.44-.2.884-.28,1.328l-.259,1.33-.259,1.33c-.089.443-.135.886-.205,1.33l-.192,1.329c-.029.221-.069.443-.092.664l-.06.66-.12,1.32c-.041.44-.033.866-.054,1.3-.006.215-.017.433-.018.645l.021.62c.009.2.007.424.033.6s.043.421.05.443a1.821,1.821,0,1,1-3.473,1.1c-.021-.065-.037-.131-.051-.2Z" transform="translate(-5393.286 -1195.729)" fill="#3f1c0c"/>
          <path id="Trazado_598833" data-name="Trazado 598833" d="M6000.483,854.306c-9.608,16.6-11.889,25.064-12.093,25.861,0,.021-.008.04-.014.061,0,0-2.535-12.067,7.107-33.6,8.279-18.472,8.113-26.336,7.9-28.2-.009-.055-.017-.1-.021-.147a.88.88,0,0,0-.017-.1.942.942,0,0,0-.027-.153c0-.013,0-.026,0-.034C6003.568,818.655,6010.413,837.157,6000.483,854.306Z" transform="translate(-5893.408 -817.998)" fill="#6db22f"/>
          <path id="Trazado_598834" data-name="Trazado 598834" d="M5567.808,2199.812c-1.243,2.826-19.3,29.719-77.517,27.8,0,0,61.656-8.7,77.225-27.646.059-.066.112-.138.169-.205Z" transform="translate(-5451.288 -2045.247)" fill="#030504" opacity="0.1"/>
          <path id="Trazado_598835" data-name="Trazado 598835" d="M5210.439,1934.161c-.389-.438-25.361-28.508-28.712-37.6-3.493-9.483-4.786-22.522-6.563-32.141C5188.465,1903.41,5210.07,1933.649,5210.439,1934.161Z" transform="translate(-5171.399 -1747.402)" fill="#030504" opacity="0.1"/>
          <path id="Trazado_598836" data-name="Trazado 598836" d="M5656.291,2005.3s-12.085,3.189-15.311,5.828c-6.134,5.022-20.812,7.755-36.423,8.135-9.648.233-15.114,1.412-35.349,12.607a.356.356,0,0,0,.036-.028c1.15-.818,24.9-17.6,40.735-16.978,16.227.641,29.331-6.717,30.187-7.068S5649.272,2003.922,5656.291,2005.3Z" transform="translate(-5521.381 -1872.247)" fill="#030504" opacity="0.1"/>
          <path id="Trazado_598837" data-name="Trazado 598837" d="M5198.436,1670.582c-3.082-14.466-16.1-29.994-19.5-34.83s-6.345-14.44-7.872-24.844-17.683-21.051-17.683-21.051,17.646,8,18.713,15.839,7.438,24.268,14.521,31.995S5198.112,1667.012,5198.436,1670.582Z" transform="translate(-5152.051 -1503.544)" fill="#030504" opacity="0.1"/>
          <path id="Trazado_598838" data-name="Trazado 598838" d="M5782.2,1655.679c-4.153,8.8-20.933,25.169-41.947,26.124-20.686.939-45.013,10.569-45.768,10.867a.052.052,0,0,1,.021-.014c.105-.062.406-.236.88-.5,4.682-2.634,26.327-14.286,42.24-14.051C5755.556,1678.367,5778.218,1663.4,5782.2,1655.679Z" transform="translate(-5632.647 -1562.007)" fill="#030504" opacity="0.1"/>
          <path id="Trazado_598839" data-name="Trazado 598839" d="M5854.313,1520.341c-1.02.967-17.539,16.492-28.727,22.764-11.457,6.426-40.988,10.456-41.451,10.518.394-.17,17.473-7.492,27.561-10.4C5821.88,1540.295,5844.208,1529.48,5854.313,1520.341Z" transform="translate(-5712.272 -1441.803)" fill="#030504" opacity="0.1"/>
          <path id="Trazado_598840" data-name="Trazado 598840" d="M5335.453,1392.272s-9.031.843-23.1-40.485c-9.425-27.7-16.429-37.8-19.944-41.429,14.536,13.888,18.47,22.641,20.64,31.886,9.11,38.818,21.921,49.559,22.391,50.016A.06.06,0,0,1,5335.453,1392.272Z" transform="translate(-5275.535 -1255.301)" fill="#030504" opacity="0.1"/>
          <path id="Trazado_598841" data-name="Trazado 598841" d="M5867.954,1654.161l.318.086-.494.2S5867.837,1654.348,5867.954,1654.161Z" transform="translate(-5786.563 -1560.659)" fill="#6db22f"/>
          <path id="Trazado_598842" data-name="Trazado 598842" d="M5905.032,1289.782c-7.983,3.318-29.105,11.876-32.662,13.315.523-.43,17.406-14.259,30.115-16.636,12.9-2.41,27.121-15.2,35.136-27.64a.023.023,0,0,0,.009-.012C5931.505,1274.53,5913.764,1286.156,5905.032,1289.782Z" transform="translate(-5790.641 -1209.517)" fill="#030504" opacity="0.1"/>
          <path id="Trazado_598843" data-name="Trazado 598843" d="M5995.487,1076.885c-20.16,11.692-23.489,13.687-23.585,13.746l0-.007c.437-.373,15.583-13.366,26.373-19.658,10.688-6.233,16.344-17.856,16.8-23.287,0-.03.006-.061.011-.09.008-.1.01-.2.016-.3v.055C6015.133,1048.429,6015.3,1065.4,5995.487,1076.885Z" transform="translate(-5879.043 -1021.648)" fill="#030504" opacity="0.1"/>
          <path id="Trazado_598844" data-name="Trazado 598844" d="M6002.984,854.306c-9.608,16.6-11.888,25.064-12.092,25.861,4.52-20.555,9.265-26.475,13.847-34.255,4.175-7.1,1.635-24.451,1.147-27.479-.009-.055-.016-.1-.021-.147a.6.6,0,0,1-.016-.1c-.013-.064-.021-.119-.027-.153a.175.175,0,0,1,0-.034C6006.069,818.655,6012.914,837.157,6002.984,854.306Z" transform="translate(-5895.91 -817.998)" fill="#030504" opacity="0.1"/>
          <path id="Trazado_598845" data-name="Trazado 598845" d="M5499.8,1109.023c-.664-.42-21.984-14.071-29.149-43.928-7.283-30.331,1.795-28.7-6.079-48.736a.058.058,0,0,0,.012.012c.306.566,9.241,17.1,11.815,53.3C5476.394,1069.666,5481.274,1093.524,5499.8,1109.023Z" transform="translate(-5428.439 -994.178)" fill="#030504" opacity="0.1"/>
          <path id="Trazado_598846" data-name="Trazado 598846" d="M5670.952,1045.73c-.772-.789-17.249-17.81-18.934-40.158-1.72-22.872-1.259-33.218-4.909-40.022h0c.33.528,9.829,15.94,9.693,40.806-.136,25.308,14.14,39.322,14.14,39.322Z" transform="translate(-5590.57 -949.05)" fill="#030504" opacity="0.1"/>
          <path id="Trazado_598847" data-name="Trazado 598847" d="M5852.279,938.257l0,0s0,0,0,0,0,0-.006-.006l0-.014s0-.008,0-.009-.007-.011-.012-.021a.32.32,0,0,0-.019-.039.28.28,0,0,0-.021-.044.239.239,0,0,1-.022-.057,98.061,98.061,0,0,1-8.727-37.9c-.567-21.912-.74-29.279-3.474-31.984,0,0,0-.006-.009-.008a9.14,9.14,0,0,1,1.764,1.5c.032.029.065.063.095.095,2.746,2.911,7.367,10.284,5.559,25.958-2.083,18.059,2.639,35.387,4.323,40.812C5852.033,937.555,5852.242,938.155,5852.279,938.257Z" transform="translate(-5761.871 -862.562)" fill="#030504" opacity="0.1"/>
        </g>
      </g>
      <g id="Grupo_875238" data-name="Grupo 875238" transform="translate(3181.235 617.481)">
        <g id="Grupo_875204" data-name="Grupo 875204" transform="translate(0 19.525)">
          <rect id="Rectángulo_291717" data-name="Rectángulo 291717" width="115.674" height="62.543" fill="#fff"/>
        </g>
        <g id="Grupo_875205" data-name="Grupo 875205" transform="translate(8.596 27.142)">
          <path id="Trazado_598848" data-name="Trazado 598848" d="M5816.109,2383.049h-8.7a.763.763,0,0,1-.761-.761h0a.763.763,0,0,1,.761-.761h8.7a.763.763,0,0,1,.762.761h0A.763.763,0,0,1,5816.109,2383.049Z" transform="translate(-5806.652 -2381.526)" fill="#004a91"/>
        </g>
        <g id="Grupo_875206" data-name="Grupo 875206" transform="translate(22.493 27.142)">
          <path id="Trazado_598849" data-name="Trazado 598849" d="M5940.381,2383.049h-8.7a.764.764,0,0,1-.762-.761h0a.764.764,0,0,1,.762-.761h8.7a.764.764,0,0,1,.762.761h0A.764.764,0,0,1,5940.381,2383.049Z" transform="translate(-5930.923 -2381.526)" fill="#004a91"/>
        </g>
        <g id="Grupo_875207" data-name="Grupo 875207" transform="translate(37.495 27.142)">
          <path id="Trazado_598850" data-name="Trazado 598850" d="M6074.543,2383.049h-8.7a.764.764,0,0,1-.762-.761h0a.764.764,0,0,1,.762-.761h8.7a.764.764,0,0,1,.762.761h0A.764.764,0,0,1,6074.543,2383.049Z" transform="translate(-6065.085 -2381.526)" fill="#004a91"/>
        </g>
        <g id="Grupo_875208" data-name="Grupo 875208" transform="translate(52.048 27.142)">
          <path id="Trazado_598851" data-name="Trazado 598851" d="M6204.683,2383.049h-8.7a.763.763,0,0,1-.762-.761h0a.763.763,0,0,1,.762-.761h8.7a.763.763,0,0,1,.761.761h0A.763.763,0,0,1,6204.683,2383.049Z" transform="translate(-6195.225 -2381.526)" fill="#004a91"/>
        </g>
        <g id="Grupo_875209" data-name="Grupo 875209" transform="translate(66.394 27.142)">
          <path id="Trazado_598852" data-name="Trazado 598852" d="M6332.977,2383.049h-8.7a.764.764,0,0,1-.762-.761h0a.764.764,0,0,1,.762-.761h8.7a.763.763,0,0,1,.761.761h0A.763.763,0,0,1,6332.977,2383.049Z" transform="translate(-6323.519 -2381.526)" fill="#004a91"/>
        </g>
        <g id="Grupo_875210" data-name="Grupo 875210" transform="translate(81.602 27.142)">
          <path id="Trazado_598853" data-name="Trazado 598853" d="M6468.98,2383.049h-8.7a.763.763,0,0,1-.761-.761h0a.763.763,0,0,1,.761-.761h8.7a.764.764,0,0,1,.762.761h0A.764.764,0,0,1,6468.98,2383.049Z" transform="translate(-6459.523 -2381.526)" fill="#004a91"/>
        </g>
        <g id="Grupo_875211" data-name="Grupo 875211" transform="translate(96.399 27.142)">
          <path id="Trazado_598854" data-name="Trazado 598854" d="M6601.3,2383.049h-8.7a.764.764,0,0,1-.762-.761h0a.764.764,0,0,1,.762-.761h8.7a.764.764,0,0,1,.762.761h0A.764.764,0,0,1,6601.3,2383.049Z" transform="translate(-6591.84 -2381.526)" fill="#004a91"/>
        </g>
        <g id="Grupo_875212" data-name="Grupo 875212" transform="translate(6.672 32.929)">
          <rect id="Rectángulo_291718" data-name="Rectángulo 291718" width="102.855" height="0.122" fill="#898888"/>
        </g>
        <g id="Grupo_875213" data-name="Grupo 875213" transform="translate(6.672 43.574)">
          <rect id="Rectángulo_291719" data-name="Rectángulo 291719" width="102.855" height="0.122" fill="#898888"/>
        </g>
        <g id="Grupo_875214" data-name="Grupo 875214" transform="translate(6.672 54.219)">
          <rect id="Rectángulo_291720" data-name="Rectángulo 291720" width="102.855" height="0.122" fill="#898888"/>
        </g>
        <g id="Grupo_875215" data-name="Grupo 875215" transform="translate(6.672 64.864)">
          <rect id="Rectángulo_291721" data-name="Rectángulo 291721" width="102.855" height="0.122" fill="#898888"/>
        </g>
        <g id="Grupo_875216" data-name="Grupo 875216" transform="translate(6.672 75.51)">
          <rect id="Rectángulo_291722" data-name="Rectángulo 291722" width="102.855" height="0.122" fill="#898888"/>
        </g>
        <g id="Grupo_875217" data-name="Grupo 875217" transform="translate(6.611 32.928)">
          <rect id="Rectángulo_291723" data-name="Rectángulo 291723" width="0.122" height="42.703" fill="#898888"/>
        </g>
        <g id="Grupo_875218" data-name="Grupo 875218" transform="translate(20.705 32.928)">
          <rect id="Rectángulo_291724" data-name="Rectángulo 291724" width="0.122" height="42.703" fill="#898888"/>
        </g>
        <g id="Grupo_875219" data-name="Grupo 875219" transform="translate(49.68 32.928)">
          <rect id="Rectángulo_291725" data-name="Rectángulo 291725" width="0.122" height="42.703" fill="#898888"/>
        </g>
        <g id="Grupo_875220" data-name="Grupo 875220" transform="translate(34.574 32.928)">
          <rect id="Rectángulo_291726" data-name="Rectángulo 291726" width="0.122" height="42.703" fill="#898888"/>
        </g>
        <g id="Grupo_875221" data-name="Grupo 875221" transform="translate(64.448 32.928)">
          <rect id="Rectángulo_291727" data-name="Rectángulo 291727" width="0.122" height="42.703" fill="#898888"/>
        </g>
        <g id="Grupo_875222" data-name="Grupo 875222" transform="translate(79.573 32.928)">
          <rect id="Rectángulo_291728" data-name="Rectángulo 291728" width="0.122" height="42.703" fill="#898888"/>
        </g>
        <g id="Grupo_875223" data-name="Grupo 875223" transform="translate(94.322 32.928)">
          <rect id="Rectángulo_291729" data-name="Rectángulo 291729" width="0.122" height="42.703" fill="#898888"/>
        </g>
        <g id="Grupo_875224" data-name="Grupo 875224" transform="translate(109.466 32.928)">
          <rect id="Rectángulo_291730" data-name="Rectángulo 291730" width="0.122" height="42.703" fill="#898888"/>
        </g>
        <g id="Grupo_875227" data-name="Grupo 875227" transform="translate(52.76 44.317)">
          <g id="Grupo_875225" data-name="Grupo 875225">
            <path id="Trazado_598855" data-name="Trazado 598855" d="M6209.75,2543.913a.637.637,0,0,1-.452-.187l-7.516-7.515a.64.64,0,0,1,.905-.9l7.515,7.515a.64.64,0,0,1-.452,1.092Z" transform="translate(-6201.596 -2535.119)" fill="#f57526"/>
          </g>
          <g id="Grupo_875226" data-name="Grupo 875226">
            <path id="Trazado_598856" data-name="Trazado 598856" d="M6202.236,2543.913a.64.64,0,0,1-.453-1.092l7.516-7.515a.639.639,0,0,1,.9.9l-7.515,7.515A.638.638,0,0,1,6202.236,2543.913Z" transform="translate(-6201.596 -2535.119)" fill="#f57526"/>
          </g>
        </g>
        <g id="Grupo_875228" data-name="Grupo 875228" transform="translate(81.806 55.449)">
          <path id="Trazado_598857" data-name="Trazado 598857" d="M6464.6,2641.915l-3.105-3.778a.64.64,0,0,1,.988-.812l2.209,2.689,5.164-5.164a.64.64,0,0,1,.905.9Z" transform="translate(-6461.348 -2634.662)" fill="#48b187"/>
        </g>
        <g id="Grupo_875229" data-name="Grupo 875229" transform="translate(25.397 57.301)">
          <path id="Trazado_598858" data-name="Trazado 598858" d="M5974.659,2652.645H5957.6a.711.711,0,0,1-.709-.71h0a.711.711,0,0,1,.709-.71h17.057a.712.712,0,0,1,.71.71h0A.712.712,0,0,1,5974.659,2652.645Z" transform="translate(-5956.894 -2651.224)" fill="#84b6b3"/>
        </g>
        <g id="Grupo_875230" data-name="Grupo 875230" transform="translate(25.397 59.584)">
          <path id="Trazado_598859" data-name="Trazado 598859" d="M5974.659,2673.065H5957.6a.711.711,0,0,1-.709-.71h0a.711.711,0,0,1,.709-.71h17.057a.712.712,0,0,1,.71.71h0A.712.712,0,0,1,5974.659,2673.065Z" transform="translate(-5956.894 -2671.645)" fill="#84b6b3"/>
        </g>
        <g id="Grupo_875231" data-name="Grupo 875231" transform="translate(25.397 61.868)">
          <path id="Trazado_598860" data-name="Trazado 598860" d="M5974.659,2693.486H5957.6a.711.711,0,0,1-.709-.709h0a.711.711,0,0,1,.709-.71h17.057a.712.712,0,0,1,.71.71h0A.712.712,0,0,1,5974.659,2693.486Z" transform="translate(-5956.894 -2692.066)" fill="#84b6b3"/>
        </g>
        <g id="Grupo_875232" data-name="Grupo 875232" transform="translate(95.994 68.847)">
          <path id="Trazado_598861" data-name="Trazado 598861" d="M6598.523,2755.9h-9.589a.712.712,0,0,1-.71-.71h0a.712.712,0,0,1,.71-.71h9.589a.712.712,0,0,1,.71.71h0A.712.712,0,0,1,6598.523,2755.9Z" transform="translate(-6588.224 -2754.475)" fill="#84b6b3"/>
        </g>
        <g id="Grupo_875233" data-name="Grupo 875233" transform="translate(95.994 71.13)">
          <path id="Rectángulo_291731" data-name="Rectángulo 291731" d="M.71,0H10.3a.71.71,0,0,1,.71.71v0a.71.71,0,0,1-.71.71H.71A.71.71,0,0,1,0,.71v0A.71.71,0,0,1,.71,0Z" fill="#84b6b3"/>
        </g>
        <g id="Grupo_875234" data-name="Grupo 875234" transform="translate(80.892 35.506)">
          <rect id="Rectángulo_291732" data-name="Rectángulo 291732" width="12.39" height="6.666" rx="3.333" fill="#139795"/>
        </g>
        <path id="Trazado_598862" data-name="Trazado 598862" d="M5839.987,2198.876H5735.25a5.468,5.468,0,0,0-5.469,5.468v7.34h115.674v-7.34A5.467,5.467,0,0,0,5839.987,2198.876Zm-91.7,10.445a4.013,4.013,0,1,1,4.012-4.013A4.012,4.012,0,0,1,5748.283,2209.321Zm38.656,0a4.013,4.013,0,1,1,4.014-4.013A4.013,4.013,0,0,1,5786.939,2209.321Zm38.658,0a4.013,4.013,0,1,1,4.013-4.013A4.014,4.014,0,0,1,5825.6,2209.321Z" transform="translate(-5729.782 -2192.158)" fill="#0ea0c3"/>
        <rect id="Rectángulo_291733" data-name="Rectángulo 291733" width="115.674" height="0.606" transform="translate(0 19.525)" fill="#43879d"/>
        <g id="Grupo_875235" data-name="Grupo 875235" transform="translate(16.238 0)">
          <rect id="Rectángulo_291734" data-name="Rectángulo 291734" width="4.467" height="14.061" rx="2.234" fill="#001931"/>
        </g>
        <g id="Grupo_875236" data-name="Grupo 875236" transform="translate(54.895 0)">
          <rect id="Rectángulo_291735" data-name="Rectángulo 291735" width="4.467" height="14.061" rx="2.234" fill="#001931"/>
        </g>
        <g id="Grupo_875237" data-name="Grupo 875237" transform="translate(93.553 0)">
          <rect id="Rectángulo_291736" data-name="Rectángulo 291736" width="4.467" height="14.061" rx="2.234" fill="#001931"/>
        </g>
      </g>
      <g id="Grupo_875239" data-name="Grupo 875239" transform="translate(2907.16 515.236)">
        <rect id="Rectángulo_291737" data-name="Rectángulo 291737" width="258.648" height="177.723" transform="translate(29.666 0)" fill="#848383"/>
        <rect id="Rectángulo_291738" data-name="Rectángulo 291738" width="319.019" height="5.722" transform="translate(0 173.561)" fill="#a0a0a0"/>
        <path id="Trazado_598863" data-name="Trazado 598863" d="M3597.86,2827.737s-7.627,5.18-22.1,5.18H3300.942c-1.6,0-3.125-.064-4.56-.177h0c-11.509-.908-17.538-5-17.538-5Z" transform="translate(-3278.841 -2648.454)" fill="#5d5d5d"/>
        <rect id="Rectángulo_291739" data-name="Rectángulo 291739" width="241.681" height="152.333" rx="11.314" transform="translate(38.868 10.091)" fill="#c1e8f8"/>
        <path id="Trazado_598864" data-name="Trazado 598864" d="M4525.5,2776.558a5.583,5.583,0,0,1-5.48,4.565h-41.789a5.6,5.6,0,0,1-5.48-4.565Z" transform="translate(-4339.242 -2602.997)" fill="#5d5d5d"/>
      </g>
      <g id="Grupo_875241" data-name="Grupo 875241" transform="translate(3165.864 425.943)">
        <g id="Grupo_875240" data-name="Grupo 875240" transform="translate(0 0)">
          <rect id="Rectángulo_291740" data-name="Rectángulo 291740" width="76.348" height="36.742" rx="18.371" transform="translate(76.348 36.742) rotate(-180)" fill="#0ea0c3"/>
          <path id="Trazado_598865" data-name="Trazado 598865" d="M5782.619,754.519l-10.675,8.338a.738.738,0,0,1-1.136-.867l3.131-7.471Z" transform="translate(-5750.796 -717.777)" fill="#0ea0c3"/>
        </g>
        <circle id="Elipse_5546" data-name="Elipse 5546" cx="5.216" cy="5.216" r="5.216" transform="translate(16.098 12.431)" fill="#fff"/>
        <circle id="Elipse_5547" data-name="Elipse 5547" cx="5.216" cy="5.216" r="5.216" transform="matrix(0.23, -0.973, 0.973, 0.23, 31.46, 22.25)" fill="#fff"/>
        <circle id="Elipse_5548" data-name="Elipse 5548" cx="5.216" cy="5.216" r="5.216" transform="matrix(0.23, -0.973, 0.973, 0.23, 47.88, 22.974)" fill="#fff"/>
      </g>
      <g id="Grupo_875242" data-name="Grupo 875242" transform="translate(2896.789 546.094)">
        <path id="Trazado_598866" data-name="Trazado 598866" d="M3250.376,1501.553v36.184a1.145,1.145,0,0,1-1.141,1.141h-62.019a1.146,1.146,0,0,1-1.141-1.141v-36.184a1.145,1.145,0,0,1,1.141-1.141h62.019A1.145,1.145,0,0,1,3250.376,1501.553Z" transform="translate(-3186.075 -1500.412)" fill="#ffc11f"/>
        <path id="Trazado_598867" data-name="Trazado 598867" d="M3252.455,1668.9a1.135,1.135,0,0,1-.771.3h-62.019a1.138,1.138,0,0,1-.833-.364l31.812-21.693Z" transform="translate(-3188.524 -1630.741)" fill="#080909" opacity="0.05"/>
        <path id="Trazado_598868" data-name="Trazado 598868" d="M3252.455,1673.208a1.134,1.134,0,0,1-.771.3h-62.019a1.139,1.139,0,0,1-.833-.364L3220.674,1652Z" transform="translate(-3188.524 -1635.045)" fill="#f8b109"/>
        <path id="Trazado_598869" data-name="Trazado 598869" d="M3252.455,1500.715a1.134,1.134,0,0,0-.771-.3h-62.019a1.138,1.138,0,0,0-.833.365l29.467,23.01a3.936,3.936,0,0,0,4.746,0Z" transform="translate(-3188.524 -1500.412)" fill="#080909" opacity="0.2"/>
        <path id="Trazado_598870" data-name="Trazado 598870" d="M3252.455,1500.715a1.134,1.134,0,0,0-.771-.3h-62.019a1.138,1.138,0,0,0-.833.365l29.467,22.212a3.936,3.936,0,0,0,4.746,0Z" transform="translate(-3188.524 -1500.412)" fill="#ffdd37"/>
      </g>
      <g id="Grupo_875255" data-name="Grupo 875255" transform="translate(3167.43 532.581)">
        <rect id="Rectángulo_291741" data-name="Rectángulo 291741" width="61.279" height="74.731" transform="translate(0 0)" fill="#21394c"/>
        <path id="Trazado_598871" data-name="Trazado 598871" d="M5667.61,1383.385v18.338h-61.279v-18.338a3.822,3.822,0,0,1,3.812-3.811H5663.8A3.822,3.822,0,0,1,5667.61,1383.385Z" transform="translate(-5606.331 -1379.574)" fill="#2d4c60"/>
        <rect id="Rectángulo_291742" data-name="Rectángulo 291742" width="52.461" height="13.601" rx="6.801" transform="translate(4.409 4.362)" fill="#afc5b0"/>
        <rect id="Rectángulo_291743" data-name="Rectángulo 291743" width="11.36" height="8.404" rx="4.202" transform="translate(4.409 25.44)" fill="#647f87"/>
        <rect id="Rectángulo_291744" data-name="Rectángulo 291744" width="11.36" height="8.404" rx="4.202" transform="translate(18.007 25.44)" fill="#647f87"/>
        <rect id="Rectángulo_291745" data-name="Rectángulo 291745" width="11.36" height="8.404" rx="4.202" transform="translate(31.605 25.44)" fill="#647f87"/>
        <rect id="Rectángulo_291746" data-name="Rectángulo 291746" width="11.36" height="8.404" rx="4.202" transform="translate(45.203 25.44)" fill="#647f87"/>
        <rect id="Rectángulo_291747" data-name="Rectángulo 291747" width="11.36" height="8.404" rx="4.202" transform="translate(4.409 37.135)" fill="#647f87"/>
        <rect id="Rectángulo_291748" data-name="Rectángulo 291748" width="11.36" height="8.404" rx="4.202" transform="translate(18.007 37.135)" fill="#647f87"/>
        <rect id="Rectángulo_291749" data-name="Rectángulo 291749" width="11.36" height="8.404" rx="4.202" transform="translate(31.605 37.135)" fill="#647f87"/>
        <rect id="Rectángulo_291750" data-name="Rectángulo 291750" width="11.36" height="8.404" rx="4.202" transform="translate(45.203 37.135)" fill="#647f87"/>
        <rect id="Rectángulo_291751" data-name="Rectángulo 291751" width="11.36" height="8.404" rx="4.202" transform="translate(4.409 48.83)" fill="#647f87"/>
        <rect id="Rectángulo_291752" data-name="Rectángulo 291752" width="11.36" height="8.404" rx="4.202" transform="translate(18.007 48.83)" fill="#647f87"/>
        <rect id="Rectángulo_291753" data-name="Rectángulo 291753" width="11.36" height="8.404" rx="4.202" transform="translate(31.605 48.83)" fill="#647f87"/>
        <rect id="Rectángulo_291754" data-name="Rectángulo 291754" width="11.36" height="8.404" rx="4.202" transform="translate(45.203 48.83)" fill="#647f87"/>
        <rect id="Rectángulo_291755" data-name="Rectángulo 291755" width="11.36" height="8.404" rx="4.202" transform="translate(4.409 60.525)" fill="#647f87"/>
        <rect id="Rectángulo_291756" data-name="Rectángulo 291756" width="11.36" height="8.404" rx="4.202" transform="translate(18.007 60.525)" fill="#647f87"/>
        <rect id="Rectángulo_291757" data-name="Rectángulo 291757" width="11.36" height="8.404" rx="4.202" transform="translate(31.605 60.525)" fill="#e5003b"/>
        <rect id="Rectángulo_291758" data-name="Rectángulo 291758" width="11.36" height="8.404" rx="4.202" transform="translate(45.203 60.525)" fill="#647f87"/>
        <g id="Grupo_875243" data-name="Grupo 875243" transform="translate(8.771 51.148)">
          <path id="Trazado_598872" data-name="Trazado 598872" d="M5685.6,1837.62h-.012l-.7.352-.123-.545.926-.457h.6v3.808h-.7Z" transform="translate(-5684.764 -1836.97)" fill="#fff"/>
        </g>
        <g id="Grupo_875244" data-name="Grupo 875244" transform="translate(8.419 62.761)">
          <path id="Trazado_598873" data-name="Trazado 598873" d="M5684.362,1942.769c0,1.225-.479,1.992-1.389,1.992-.878,0-1.347-.8-1.353-1.957,0-1.183.5-1.98,1.395-1.98C5683.935,1940.824,5684.362,1941.644,5684.362,1942.769Zm-2.015.035c-.006.926.252,1.406.65,1.406.422,0,.644-.516.644-1.43,0-.885-.21-1.406-.644-1.406C5682.611,1941.375,5682.341,1941.849,5682.347,1942.8Z" transform="translate(-5681.621 -1940.824)" fill="#fff"/>
        </g>
        <g id="Grupo_875245" data-name="Grupo 875245" transform="translate(22.215 51.083)">
          <path id="Trazado_598874" data-name="Trazado 598874" d="M5804.99,1840.267v-.439l.451-.416c.9-.832,1.319-1.289,1.324-1.793a.6.6,0,0,0-.679-.638,1.391,1.391,0,0,0-.815.316l-.21-.51a1.879,1.879,0,0,1,1.172-.393,1.129,1.129,0,0,1,1.253,1.154c0,.668-.479,1.207-1.143,1.822l-.334.287v.012h1.565v.6Z" transform="translate(-5804.99 -1836.394)" fill="#fff"/>
        </g>
        <g id="Grupo_875246" data-name="Grupo 875246" transform="translate(35.94 51.083)">
          <path id="Trazado_598875" data-name="Trazado 598875" d="M5927.9,1839.523a1.884,1.884,0,0,0,.867.234c.551,0,.773-.311.768-.61,0-.451-.422-.644-.861-.644h-.334v-.527h.322c.334,0,.756-.152.756-.533,0-.258-.193-.475-.609-.475a1.533,1.533,0,0,0-.779.24l-.164-.521a2.057,2.057,0,0,1,1.1-.293c.785,0,1.189.434,1.189.931a.93.93,0,0,1-.7.891v.011a.962.962,0,0,1,.838.949c0,.645-.539,1.154-1.482,1.154a2.082,2.082,0,0,1-1.066-.263Z" transform="translate(-5927.732 -1836.394)" fill="#fff"/>
        </g>
        <g id="Grupo_875247" data-name="Grupo 875247" transform="translate(8.337 39.533)">
          <path id="Trazado_598876" data-name="Trazado 598876" d="M5682.609,1736.914v-.967h-1.723v-.469l1.552-2.373h.851v2.3h.492v.545h-.492v.967Zm0-1.512v-1.037c0-.217.006-.439.022-.662h-.022c-.118.24-.217.434-.334.645l-.7,1.043-.006.012Z" transform="translate(-5680.887 -1733.105)" fill="#fff"/>
        </g>
        <g id="Grupo_875248" data-name="Grupo 875248" transform="translate(22.209 39.533)">
          <path id="Trazado_598877" data-name="Trazado 598877" d="M5807.364,1733.7H5805.9l-.11.762a1.9,1.9,0,0,1,.274-.018,1.7,1.7,0,0,1,.926.246,1.09,1.09,0,0,1,.5.967,1.391,1.391,0,0,1-1.54,1.319,2.193,2.193,0,0,1-1.009-.223l.146-.545a1.928,1.928,0,0,0,.838.2.743.743,0,0,0,.826-.7c0-.433-.322-.72-1.084-.72a3.315,3.315,0,0,0-.521.035l.252-1.922h1.969Z" transform="translate(-5804.938 -1733.105)" fill="#fff"/>
        </g>
        <g id="Grupo_875249" data-name="Grupo 875249" transform="translate(35.893 39.477)">
          <path id="Trazado_598878" data-name="Trazado 598878" d="M5929.7,1733.169a2.859,2.859,0,0,0-.369.018,1.351,1.351,0,0,0-1.277,1.113h.019a1.092,1.092,0,0,1,.854-.369,1.147,1.147,0,0,1,1.166,1.242,1.323,1.323,0,0,1-1.342,1.359,1.451,1.451,0,0,1-1.436-1.641,2.329,2.329,0,0,1,.663-1.711,2.206,2.206,0,0,1,1.353-.562,2.089,2.089,0,0,1,.363-.012Zm-.339,2.045a.668.668,0,0,0-.663-.756.7.7,0,0,0-.621.393.492.492,0,0,0-.047.229c.012.5.253.914.716.914C5929.118,1735.993,5929.359,1735.671,5929.359,1735.214Z" transform="translate(-5927.313 -1732.603)" fill="#fff"/>
        </g>
        <g id="Grupo_875250" data-name="Grupo 875250" transform="translate(8.53 27.919)">
          <path id="Trazado_598879" data-name="Trazado 598879" d="M5685.175,1629.241v.463l-1.611,3.345h-.762l1.606-3.2v-.011h-1.793v-.6Z" transform="translate(-5682.616 -1629.241)" fill="#fff"/>
        </g>
        <g id="Grupo_875251" data-name="Grupo 875251" transform="translate(22.162 27.854)">
          <path id="Trazado_598880" data-name="Trazado 598880" d="M5804.52,1631.559a1.051,1.051,0,0,1,.715-.99v-.018a.929.929,0,0,1-.58-.844,1.134,1.134,0,0,1,1.271-1.043c.82,0,1.194.492,1.194.961a.951.951,0,0,1-.585.861v.018a1.024,1.024,0,0,1,.727.961c0,.68-.574,1.136-1.389,1.136C5804.982,1632.6,5804.52,1632.093,5804.52,1631.559Zm2.01-.035c0-.387-.288-.6-.709-.715a.7.7,0,0,0-.562.668.6.6,0,0,0,.638.615A.576.576,0,0,0,5806.529,1631.524Zm-1.189-1.845c0,.311.258.5.621.6a.618.618,0,0,0,.475-.574.511.511,0,0,0-.546-.539A.5.5,0,0,0,5805.34,1629.679Z" transform="translate(-5804.52 -1628.665)" fill="#fff"/>
        </g>
        <g id="Grupo_875252" data-name="Grupo 875252" transform="translate(35.911 27.854)">
          <path id="Trazado_598881" data-name="Trazado 598881" d="M5927.81,1632.022a1.9,1.9,0,0,0,.4-.012,1.44,1.44,0,0,0,.773-.293,1.406,1.406,0,0,0,.485-.844l-.012-.006a1.053,1.053,0,0,1-.831.34,1.125,1.125,0,0,1-1.154-1.184,1.349,1.349,0,0,1,1.376-1.359c.886,0,1.36.7,1.36,1.623a2.354,2.354,0,0,1-.662,1.77,2.1,2.1,0,0,1-1.3.521,2.86,2.86,0,0,1-.435.012Zm.376-2.039a.632.632,0,0,0,.627.7.7.7,0,0,0,.615-.316.446.446,0,0,0,.04-.205c.007-.516-.187-.961-.655-.961C5928.449,1629.2,5928.186,1629.521,5928.186,1629.983Z" transform="translate(-5927.471 -1628.665)" fill="#fff"/>
        </g>
        <g id="Grupo_875253" data-name="Grupo 875253" transform="translate(35.443 62.294)">
          <path id="Trazado_598882" data-name="Trazado 598882" d="M5926.619,1940.928a2.739,2.739,0,0,1-1.119.193,2.046,2.046,0,0,1-2.214-2.181,2.181,2.181,0,0,1,2.316-2.29,2.488,2.488,0,0,1,1.055.193l-.173.631a2.105,2.105,0,0,0-.85-.167,1.443,1.443,0,0,0-1.518,1.6,1.423,1.423,0,0,0,1.512,1.563,2.215,2.215,0,0,0,.862-.161Z" transform="translate(-5923.286 -1936.649)" fill="#fff"/>
        </g>
        <rect id="Rectángulo_291759" data-name="Rectángulo 291759" width="4.351" height="0.621" transform="translate(48.707 64.327)" fill="#fff"/>
        <rect id="Rectángulo_291760" data-name="Rectángulo 291760" width="4.351" height="0.621" transform="translate(21.281 63.661)" fill="#fff"/>
        <rect id="Rectángulo_291761" data-name="Rectángulo 291761" width="4.351" height="0.621" transform="translate(48.76 52.722)" fill="#fff"/>
        <rect id="Rectángulo_291762" data-name="Rectángulo 291762" width="4.351" height="0.621" transform="translate(21.281 65.141)" fill="#fff"/>
        <rect id="Rectángulo_291763" data-name="Rectángulo 291763" width="4.351" height="0.621" transform="translate(48.707 29.331)" fill="#fff"/>
        <rect id="Rectángulo_291764" data-name="Rectángulo 291764" width="4.351" height="0.621" transform="translate(51.193 62.462) rotate(90)" fill="#fff"/>
        <rect id="Rectángulo_291765" data-name="Rectángulo 291765" width="4.351" height="0.621" transform="translate(49.564 39.826) rotate(45)" fill="#fff"/>
        <rect id="Rectángulo_291766" data-name="Rectángulo 291766" width="4.351" height="0.621" transform="translate(52.641 40.265) rotate(135)" fill="#fff"/>
        <path id="Trazado_598883" data-name="Trazado 598883" d="M6057.832,1625.531a.575.575,0,1,1-.575-.575A.575.575,0,0,1,6057.832,1625.531Z" transform="translate(-6006.322 -1597.517)" fill="#fff"/>
        <circle id="Elipse_5549" data-name="Elipse 5549" cx="0.575" cy="0.575" r="0.575" transform="translate(50.36 30.694)" fill="#fff"/>
        <g id="Grupo_875254" data-name="Grupo 875254" transform="translate(29.383 7.287)">
          <path id="Trazado_598884" data-name="Trazado 598884" d="M5869.092,1447.867V1445.6l.323-.863a.693.693,0,0,1,.54.54v3.021l-.216.216Zm.647.863.216.216v3.021a.691.691,0,0,1-.54.539l-.323-.863v-2.266Z" transform="translate(-5869.092 -1444.738)" fill="#282828"/>
          <path id="Trazado_598885" data-name="Trazado 598885" d="M5887.322,1507.35h-.863v-.863h.863Z" transform="translate(-5884.517 -1499.582)" fill="#282828"/>
          <path id="Trazado_598886" data-name="Trazado 598886" d="M5904.688,1445.817v2.05l-.647.647-.215-.216v-2.805Zm-.862,5.934v-2.805l.215-.216.647.647v2.05Zm3.776.755h-3.237a.69.69,0,0,1-.539-.539l.862-.324h2.59Zm0-6.9h-2.9l-.864-.324a.694.694,0,0,1,.54-.54h3.55Zm-.108,2.589.432.432-.432.431h-2.806l-.431-.431.431-.432Zm.647.54.216.216v3.021a.693.693,0,0,1-.54.539l-.323-.863v-2.266Z" transform="translate(-5899.941 -1444.738)" fill="#282828"/>
          <path id="Trazado_598887" data-name="Trazado 598887" d="M5954.857,1445.817v2.05l-.647.647-.215-.216v-2.805Zm2.59-.216h-2.579l-.863-.324a.694.694,0,0,1,.539-.54h3.228Zm.216,2.266V1445.6l.323-.863a.693.693,0,0,1,.539.54v3.021l-.215.216Zm.647.863.215.216v3.021a.692.692,0,0,1-.539.539l-.323-.863v-2.266Z" transform="translate(-5944.5 -1444.738)" fill="#282828"/>
          <path id="Trazado_598888" data-name="Trazado 598888" d="M6005.027,1445.817v2.05l-.647.647-.216-.216v-2.805Zm-.863,5.934v-2.805l.216-.216.647.647v2.05Zm3.776.755H6004.7a.692.692,0,0,1-.539-.539l.863-.324h2.59Zm-.323-6.9h-2.579l-.863-.324a.694.694,0,0,1,.54-.54h3.226Zm.215,2.589.432.432-.432.431h-2.8l-.432-.431.432-.432Zm0-.324V1445.6l.323-.863a.694.694,0,0,1,.541.54v3.021l-.217.216Zm.647.863.217.216v3.021a.693.693,0,0,1-.541.539l-.323-.863v-2.266Z" transform="translate(-5989.06 -1444.738)" fill="#282828"/>
          <path id="Trazado_598889" data-name="Trazado 598889" d="M6058.11,1452.506h-3.237a.693.693,0,0,1-.539-.539l.862-.324h2.591Zm-.323-6.9h-2.579l-.863-.324a.693.693,0,0,1,.539-.54h3.227Zm.215,2.589.432.432-.432.431H6055.2l-.432-.431.432-.432Zm0-.324V1445.6l.324-.863a.694.694,0,0,1,.539.54v3.021l-.216.216Zm.647.863.216.216v3.021a.693.693,0,0,1-.539.539l-.324-.863v-2.266Z" transform="translate(-6033.619 -1444.738)" fill="#282828"/>
        </g>
      </g>
      <g id="Gold_coins" data-name="Gold coins" transform="translate(2922.384 498.379)">
        <g id="Grupo_875256" data-name="Grupo 875256">
          <path id="Trazado_598890" data-name="Trazado 598890" d="M3452.893,1092.671a18.956,18.956,0,0,1-27.514,16.928c-.394-.2-.773-.407-1.15-.629a18.965,18.965,0,1,1,24.284-28.414c.28.332.551.677.8,1.036a18.85,18.85,0,0,1,3.576,11.08Z" transform="translate(-3414.968 -1073.711)" fill="#ffd200"/>
          <circle id="Elipse_5550" data-name="Elipse 5550" cx="14.947" cy="14.947" r="14.947" transform="translate(4.017 4.015)" fill="#eca009"/>
          <circle id="Elipse_5551" data-name="Elipse 5551" cx="14.947" cy="14.947" r="14.947" transform="translate(3.637 4.395)" fill="#ffb000"/>
        </g>
        <path id="Trazado_598891" data-name="Trazado 598891" d="M3464.518,1087.673l-2.658,3.112-.35.411-18.619,21.779-.341.4-2.317,2.714a19.073,19.073,0,0,1-7.247-7.78l2.54-2.972.363-.424,16.587-19.4.332-.389,2.9-3.4A18.915,18.915,0,0,1,3464.518,1087.673Z" transform="translate(-3430.972 -1080.829)" fill="#ffb000" style="mix-blend-mode: overlay;isolation: isolate"/>
        <path id="Trazado_598892" data-name="Trazado 598892" d="M3534.475,1148.856l-3.151,3.684-.367.433-14.729,17.234-.328.38-2.828,3.309a18.755,18.755,0,0,1-5-1.7l2.364-2.771.341-.4,18.174-21.255.354-.42,2.706-3.164A18.781,18.781,0,0,1,3534.475,1148.856Z" transform="translate(-3497.66 -1136.303)" fill="#ffb000" style="mix-blend-mode: overlay;isolation: isolate"/>
        <g id="Grupo_875258" data-name="Grupo 875258" transform="translate(12.583 7.836)">
          <g id="Grupo_875257" data-name="Grupo 875257">
            <path id="Trazado_598893" data-name="Trazado 598893" d="M3532.287,1166.8v-2.684a11.41,11.41,0,0,1-4.789-1.211l.841-3.294a10.176,10.176,0,0,0,4.688,1.236c1.606,0,2.712-.635,2.712-1.749,0-1.079-.905-1.74-3-2.444-3.018-1.02-5.074-2.436-5.074-5.158,0-2.5,1.742-4.445,4.768-5.026v-2.68h2.772v2.491a10.125,10.125,0,0,1,4.085.922l-.841,3.188a9.019,9.019,0,0,0-4.05-.974c-1.815,0-2.413.806-2.413,1.594,0,.918.982,1.526,3.375,2.412,3.359,1.18,4.7,2.734,4.7,5.291,0,2.509-1.761,4.63-5,5.192v2.9Z" transform="translate(-3527.498 -1143.783)" fill="#b67b1c"/>
          </g>
        </g>
      </g>
      <g id="Grupo_875260" data-name="Grupo 875260" transform="translate(2973.008 425.943)">
        <rect id="Rectángulo_291767" data-name="Rectángulo 291767" width="184.06" height="230.766" transform="translate(0 0)" fill="#fff"/>
        <rect id="Rectángulo_291768" data-name="Rectángulo 291768" width="165.44" height="9.157" transform="translate(9.462 52.945)" fill="#66baea"/>
        <rect id="Rectángulo_291769" data-name="Rectángulo 291769" width="39.671" height="3.143" transform="translate(9.462 25.131)" fill="#81d3f8"/>
        <rect id="Rectángulo_291770" data-name="Rectángulo 291770" width="165.154" height="3.143" transform="translate(9.462 145.715)" fill="#aee2f9"/>
        <rect id="Rectángulo_291771" data-name="Rectángulo 291771" width="165.154" height="3.143" transform="translate(9.462 151.66)" fill="#aee2f9"/>
        <rect id="Rectángulo_291772" data-name="Rectángulo 291772" width="165.154" height="3.143" transform="translate(9.462 157.604)" fill="#aee2f9"/>
        <rect id="Rectángulo_291773" data-name="Rectángulo 291773" width="36.361" height="3.143" transform="translate(9.462 29.767)" fill="#81d3f8"/>
        <rect id="Rectángulo_291774" data-name="Rectángulo 291774" width="44.437" height="3.143" transform="translate(9.462 34.403)" fill="#81d3f8"/>
        <rect id="Rectángulo_291775" data-name="Rectángulo 291775" width="39.671" height="3.143" transform="translate(9.462 189.199)" fill="#aee2f9"/>
        <rect id="Rectángulo_291776" data-name="Rectángulo 291776" width="36.361" height="3.143" transform="translate(9.462 193.834)" fill="#aee2f9"/>
        <rect id="Rectángulo_291777" data-name="Rectángulo 291777" width="165.44" height="57.354" transform="translate(9.462 79.974)" fill="#ddf3fd"/>
        <rect id="Rectángulo_291778" data-name="Rectángulo 291778" width="44.437" height="3.143" transform="translate(9.462 198.47)" fill="#aee2f9"/>
        <rect id="Rectángulo_291779" data-name="Rectángulo 291779" width="27.838" height="3.143" transform="translate(148.13 25.131)" fill="#aee2f9"/>
        <rect id="Rectángulo_291780" data-name="Rectángulo 291780" width="36.361" height="3.143" transform="translate(139.607 29.767)" fill="#aee2f9"/>
        <rect id="Rectángulo_291781" data-name="Rectángulo 291781" width="31.56" height="3.143" transform="translate(144.408 34.403)" fill="#aee2f9"/>
        <rect id="Rectángulo_291782" data-name="Rectángulo 291782" width="39.671" height="3.143" transform="translate(9.462 39.038)" fill="#81d3f8"/>
        <rect id="Rectángulo_291783" data-name="Rectángulo 291783" width="27.442" height="3.143" transform="translate(15.577 64.55)" fill="#aee2f9"/>
        <rect id="Rectángulo_291784" data-name="Rectángulo 291784" width="32.49" height="3.143" transform="translate(70.515 64.55)" fill="#aee2f9"/>
        <rect id="Rectángulo_291785" data-name="Rectángulo 291785" width="32.49" height="3.143" transform="translate(134.898 64.55)" fill="#aee2f9"/>
        <rect id="Rectángulo_291786" data-name="Rectángulo 291786" width="73.034" height="3.143" transform="translate(16.801 94.403)" fill="#66baea"/>
        <rect id="Rectángulo_291787" data-name="Rectángulo 291787" width="14.966" height="3.143" transform="translate(156.053 94.403)" fill="#66baea"/>
        <rect id="Rectángulo_291788" data-name="Rectángulo 291788" width="18.159" height="3.143" transform="translate(152.86 100.348)" fill="#66baea"/>
        <rect id="Rectángulo_291789" data-name="Rectángulo 291789" width="20.394" height="3.143" transform="translate(150.625 106.293)" fill="#66baea"/>
        <rect id="Rectángulo_291790" data-name="Rectángulo 291790" width="20.394" height="3.143" transform="translate(150.625 132.438)" fill="#66baea"/>
        <rect id="Rectángulo_291791" data-name="Rectángulo 291791" width="14.407" height="3.143" transform="translate(156.612 112.237)" fill="#66baea"/>
        <rect id="Rectángulo_291792" data-name="Rectángulo 291792" width="69.724" height="3.143" transform="translate(16.801 100.348)" fill="#66baea"/>
        <rect id="Rectángulo_291793" data-name="Rectángulo 291793" width="77.8" height="3.143" transform="translate(16.801 106.293)" fill="#66baea"/>
        <rect id="Rectángulo_291794" data-name="Rectángulo 291794" width="73.034" height="3.143" transform="translate(16.801 112.237)" fill="#66baea"/>
        <rect id="Rectángulo_291795" data-name="Rectángulo 291795" width="165.44" height="0.286" transform="translate(9.462 69.854)" fill="#66baea"/>
        <rect id="Rectángulo_291796" data-name="Rectángulo 291796" width="8.038" height="0.286" transform="translate(9.748 62.102) rotate(90)" fill="#66baea"/>
        <rect id="Rectángulo_291797" data-name="Rectángulo 291797" width="8.038" height="0.286" transform="translate(64.859 62.102) rotate(90)" fill="#66baea"/>
        <rect id="Rectángulo_291798" data-name="Rectángulo 291798" width="8.038" height="0.286" transform="translate(127.669 62.102) rotate(90)" fill="#66baea"/>
        <rect id="Rectángulo_291799" data-name="Rectángulo 291799" width="8.038" height="0.286" transform="translate(174.902 62.102) rotate(90)" fill="#66baea"/>
        <rect id="Rectángulo_291800" data-name="Rectángulo 291800" width="165.44" height="9.157" transform="translate(9.462 79.974)" fill="#66baea"/>
        <rect id="Rectángulo_291801" data-name="Rectángulo 291801" width="165.44" height="0.286" transform="translate(9.462 137.328)" fill="#66baea"/>
        <rect id="Rectángulo_291802" data-name="Rectángulo 291802" width="165.44" height="0.286" transform="translate(9.462 130.405)" fill="#66baea"/>
        <rect id="Rectángulo_291803" data-name="Rectángulo 291803" width="48.482" height="0.286" transform="translate(9.748 89.131) rotate(90)" fill="#66baea"/>
        <rect id="Rectángulo_291804" data-name="Rectángulo 291804" width="48.482" height="0.286" transform="translate(127.669 89.131) rotate(90)" fill="#66baea"/>
        <rect id="Rectángulo_291805" data-name="Rectángulo 291805" width="48.482" height="0.286" transform="translate(174.902 89.131) rotate(90)" fill="#66baea"/>
        <path id="Trazado_598894" data-name="Trazado 598894" d="M5017.167,2100.073a7.554,7.554,0,0,1-.451,2.577,7.666,7.666,0,0,1-7.18,5.053H4972.6a7.651,7.651,0,0,1-6.91-4.406,7.637,7.637,0,0,1,6.91-10.854h36.939A7.652,7.652,0,0,1,5017.167,2100.073Z" transform="translate(-4842.265 -1906.09)" fill="#3185af"/>
      </g>
      <path id="Trazado_598898" data-name="Trazado 598898" d="M6388.756,736.594h-.31c0-.069,0-.138,0-.207a12.279,12.279,0,0,0-23.115-5.775,11.052,11.052,0,0,1-11.818,2,6.577,6.577,0,0,0-2.459,12.677,6.745,6.745,0,0,0,6.667,5.867h31.031a6.74,6.74,0,0,0,6.721-6.721v-1.123A6.74,6.74,0,0,0,6388.756,736.594Z" transform="translate(-3096.692 -264.824)" fill="#fff"/>
      <path id="Trazado_598899" data-name="Trazado 598899" d="M2909.743,802.953h-48.432a13.466,13.466,0,0,1,17.784-12.167,12.5,12.5,0,0,1,23.536,5.881c0,.07,0,.141,0,.211h.313A6.865,6.865,0,0,1,2909.743,802.953Z" transform="translate(0 -318.164)" fill="#fff"/>
    </g>
    <g id="Grupo_875263" data-name="Grupo 875263" transform="translate(-397 493.608)">
      <g id="Grupo_875262" data-name="Grupo 875262" transform="translate(577 6499)">
        <path id="Trazado_598900" data-name="Trazado 598900" d="M3264,648.875s6.263,1.838,9.079.5c4.865-2.313,5.358-12.937-7.807-12.708-10.475.183-7.5,13.544-21.166,14.489-7.245.5-11.669,6.556-9.219,16.551.019.023,1.1-3.183,3.772-2.793-4.361,5.037-1.817,11.124-1.161,12.147,1.56-5.8,8.492-14.871,18.707-15.489,5.413-2.046.651-13.578,7.795-12.7" transform="translate(-3234.182 -636.665)" fill="#355298" fill-rule="evenodd"/>
        <path id="Trazado_598901" data-name="Trazado 598901" d="M3356.725,735.882c3.356,7.367,5.285,13.2,13.073,16.446,8.744,1.56,17.967-14.931,17.29-17.452-.429-1.6-3.675-2.728-4.73-1.673-1.147,1.15-9.94,9.037-10.1,9.026-1.109-.078-10.191-15.461-16.936-17.236-.809-.521-.962,7.33,1.4,10.889" transform="translate(-3317.417 -697.618)" fill="#8c9ef3" fill-rule="evenodd"/>
        <path id="Trazado_598902" data-name="Trazado 598902" d="M3299.575,676.985a17.907,17.907,0,0,1-1.063,5.794,16.719,16.719,0,0,0,.067,10.3c1,3.412-1.953,9.328-2.676,9.569s-10.036,1.927-11.962,1.766-10.838-10.6-10.838-10.6l.963-9.153Z" transform="translate(-3261.033 -664.497)" fill="#355298" fill-rule="evenodd"/>
        <path id="Trazado_598903" data-name="Trazado 598903" d="M3302.8,764.95l8.1,56.965-.068,25.787-3.311,42.83c.125.169.247.335.369.5.095.129.188.253.284.376.226.3.45.58.674.843.1.12.2.237.306.349,1.662,1.831,3.809,2.274,5.567,2.7,1.362.332,2.411.5,3.335,2.316a.927.927,0,0,1,.068.172,1.038,1.038,0,0,1-1.021,1.326l-16.137-.505a1.558,1.558,0,0,1-1.513-1.713l1.077-7.044a.211.211,0,0,1,0-.029c-.344-12.092-2.4-24.509-1.248-39.368.157-2.038-3.612-31.119-3.3-33.057,0,0-11.642-7.676-11.58-8.408s18.4-44.039,18.4-44.039" transform="translate(-3268.826 -725.216)" fill="#f7aaac"/>
        <path id="Trazado_598904" data-name="Trazado 598904" d="M3278.954,946.293c-.435,3.755-8.695,18.409-11.078,29.418-2.943,13.594-9.135,26.041-12.235,39.253-.118.506.785,5.32.682,5.822-1.594,1.705-6.14,4.111-6.627-3.753,2.033-13.213,3.627-32.257,8.861-48.331l-.828-24.936Z" transform="translate(-3244.877 -848.646)" fill="#f7aaac"/>
        <path id="Trazado_598905" data-name="Trazado 598905" d="M3298.223,829.753c3.49,11.587,2.9,26.849,1.093,45.884-13.106,3.365-31.108,2.8-35.927-1.275,1.587-26.884,2.326-42.043,7.462-46.435,10.822-25.29,25.785-4.6,27.372,1.826" transform="translate(-3254.328 -760.233)" fill="#3185af" fill-rule="evenodd"/>
        <path id="Trazado_598906" data-name="Trazado 598906" d="M3271.3,847.042c-2.052,3.97-3.511,10.9-4.115,15.429,7.055,3.248,12.983,2.731,20.486,2.314l3.835-11.119,5.722,11.5c2.214-.329,4.472.3,7.029-.843,0,0-1.205-12.242-3.605-17.128s-5.052-3.972-5.052-3.972l-17.632,1.709Z" transform="translate(-3256.95 -779.202)" fill="#8c9ef3" fill-rule="evenodd"/>
        <path id="Trazado_598907" data-name="Trazado 598907" d="M3266.763,721.61c-3.082,12.576,7.14,14.475,4.344,39.864,9.248,1.284,21.082,1.727,29.033-.231-1.272-9.342-.218-18.874.152-23.975a25.722,25.722,0,0,0-4.346-16.947c-2.72-4.211-23.973-6.478-29.183,1.289" transform="translate(-3256.253 -691.75)" fill="#8c9ef3" fill-rule="evenodd"/>
        <path id="Trazado_598908" data-name="Trazado 598908" d="M3332.356,718.147a18.3,18.3,0,0,1,3.828,10.348c.2,6.086-1.045,19.3-1.045,19.3l5.658-13.815-2.4-1.671,2.845-1.134c-.405-2.87-3.989-11.792-7.476-12.883Z" transform="translate(-3301.934 -692.909)" fill="#aec2fd" fill-rule="evenodd"/>
        <path id="Trazado_598909" data-name="Trazado 598909" d="M3304.727,716.1s-1.518,4.906,3.385,14.846,7.271,18.339,7.271,19.453,2.228-19.028,1.885-24.685a14.786,14.786,0,0,0-4.487-9.327c-3.012-.663-3.585-1.1-8.055-.286" transform="translate(-3282.709 -691.189)" fill="#3185af" fill-rule="evenodd"/>
        <path id="Trazado_598910" data-name="Trazado 598910" d="M3283.376,828.345c.092,1.57-.013,3.565-.083,5.409l2.4,1.07,7.172,1.259-9.483-7.738Z" transform="translate(-3268.067 -768.975)" fill="#667dec" fill-rule="evenodd"/>
        <path id="Trazado_598911" data-name="Trazado 598911" d="M3315.639,687.646l-.706,2.734.333.491c2.074,3.2-.6,6.857-4.613,6.031-4.53-1.022-5.415-5.238-5.044-8.3,5.137-2.226.557-13.5,7.623-12.628,0,0,6.263,1.838,9.079.5h0c.342,4.762-2.536,10.335-6.672,11.166" transform="translate(-3283.419 -663.768)" fill="#f7aaac" fill-rule="evenodd"/>
        <path id="Trazado_598912" data-name="Trazado 598912" d="M3320.108,703.5s1.254,4.78,3.121,5.7.936.365,1.695.482l.776-3.006c-1.418-.159-2.716-.636-5.592-3.176" transform="translate(-3293.479 -682.8)" fill="#e16e73" fill-rule="evenodd"/>
        <path id="Trazado_598913" data-name="Trazado 598913" d="M3247.933,724.52c-11.561,3.687-15.053,27.042-13.418,34.054,1.392,5.693,19.567,11.529,24.473,9.922,2.313-.758,2.493-2.088-.691-4.63-4.822-2.692-14.77-7.147-14.93-8.545-.162-3.935,2.435-11.141,4.416-14.048,2.862-4.2,6.68-17.173.151-16.753" transform="translate(-3234.135 -697.302)" fill="#8c9ef3" fill-rule="evenodd"/>
        <path id="Trazado_598914" data-name="Trazado 598914" d="M3334.194,819.442h11a1.242,1.242,0,0,1,.947,1.609L3336.125,838c-.33.558-.532,1.158-1.18,1.18l-10.835.375c-.648.022-1.321-1.473-1.007-2.041l9.338-16.893a2.384,2.384,0,0,1,1.752-1.18" transform="translate(-3295.492 -762.83)" fill="#94b0ed" fill-rule="evenodd"/>
        <path id="Trazado_598915" data-name="Trazado 598915" d="M3336.083,821.593h10.873c.642,0,.859.606.548,1.167l-9.512,17.186c-.311.561-.526,1.167-1.167,1.167h-11.262c-.641,0-.758-1.086-.448-1.647l9.235-16.705a2.356,2.356,0,0,1,1.733-1.167" transform="translate(-3296.822 -764.315)" fill="#d8e4fb" fill-rule="evenodd"/>
        <path id="Trazado_598916" data-name="Trazado 598916" d="M3361.641,848.709c.316.237.173.961-.32,1.616s-1.147.994-1.463.756-.172-.961.32-1.616,1.148-.994,1.463-.756" transform="translate(-3320.802 -782.98)" fill="#fff" fill-rule="evenodd"/>
        <path id="Trazado_598917" data-name="Trazado 598917" d="M3389.989,824.541h.895c.393,0,.414.528-.237.528h-.895c-.379,0-.334-.528.237-.528" transform="translate(-3341.383 -766.35)" fill="#86a7d5" fill-rule="evenodd"/>
        <path id="Trazado_598918" data-name="Trazado 598918" d="M3305.412,850.135l2.894.81,3.994-.869c.44-.22,2.61-1.52,1.92-.271-.129.234-1.281,2.3-1.278,2.311.58.959,5.936,2.1,5.993,2.187.807,1.209-2.736.622-3.342.549a22.147,22.147,0,0,1,2.241,1.055,1.218,1.218,0,0,1-1.13.391,14.955,14.955,0,0,0-2.338-.423c-.163.128,2.278,1.048,2.116,1.156a1.071,1.071,0,0,1-.882.173,20.708,20.708,0,0,0-2.281-.531c-.208.093,1.579.648,1.381.717-.154.054-.183.336-.34.322-4.232-.383-4.874-2.591-9.8-3.542-2.424-1.222-.061-3.581.847-4.035" transform="translate(-3282.018 -783.42)" fill="#f7aaac" fill-rule="evenodd"/>
        <path id="Trazado_598919" data-name="Trazado 598919" d="M3347.122,1180.24s5.619,1.555,5.367,3.287c-.51,3.5-19.8,1.189-19.9,1.061-.684-.85-.765-4.8.156-5.976.685-.876,8.231,3.81,14.377,1.627" transform="translate(-3301.733 -1010.678)" fill="#355298" fill-rule="evenodd"/>
        <path id="Trazado_598920" data-name="Trazado 598920" d="M3254.181,1186.038c-.122,2.246-8.236,1.6-9.457.927-1.815-1,.4-8.066,1.081-7.281,0,0,2.115,3.33,4.617,2.658s1.624-1.415,2.052-.572c.8,1.578,1.818,2.2,1.707,4.268" transform="translate(-3240.961 -1011.452)" fill="#355298" fill-rule="evenodd"/>
        <path id="Trazado_598921" data-name="Trazado 598921" d="M3446.36,731.7l1.336-1.341,1.192-3.91c.023-.492.739-3.414,1.249-2.282.358.795.592,2.8.678,2.8,1.12-.036,4.9-4.235,5-4.243,1.45-.114-.794,2.692-1.154,3.185a22.192,22.192,0,0,1,2.016-1.44,1.218,1.218,0,0,1-.211,1.177c-.5.654-1.542,1.637-1.512,1.834S3456.984,726,3457,726.2a1.071,1.071,0,0,1-.279.854c-.539.664-1.559,1.511-1.578,1.731s1.336-1.061,1.3-.855c-.028.16.2.324.115.454-2.4,3.5-4.3,2.466-6.942,6.554-1.47,2.273-3.3-2.221-3.255-3.235" transform="translate(-3380.626 -696.065)" fill="#f7aaac" fill-rule="evenodd"/>
        <path id="Trazado_598922" data-name="Trazado 598922" d="M3295.853,716.835s-1.867-.172-2.541.759c-1.738,2.4-2.292,13.137-1.652,13.267l4.474.908-2.76,2.349,11.989,13.164c-2.487-10.713-10.127-20.041-9.51-30.447" transform="translate(-3273.665 -691.995)" fill="#aec2fd" fill-rule="evenodd"/>
      </g>
    </g>
    <g id="Grupo_875264" data-name="Grupo 875264" transform="translate(-3183.928 6280.516)">
      <path id="Trazado_598923" data-name="Trazado 598923" d="M3900.869,831.781c14.606,39.666,9.369,80.791-44.962,81.588-9.6.141-11,.116-26.292-.833-9.139-.567-22.055-6.15-25.583-13.889-5.978-13.114-1.331-31.481,22.648-38,7.2-1.958,15.266-8.32,17.423-12.633,7-14,5.472-39.989,27.308-41.79,13.8-1.138,23.951,10.606,29.458,25.56" transform="translate(-39.564 -25.254)" fill="#aec2fd" fill-rule="evenodd"/>
      <path id="Trazado_598924" data-name="Trazado 598924" d="M3908.271,853.827c14.606,39.666,11.674,82.172-39.685,81.607-5.455-.06-12.567-.275-19.377,0-15.768.636-31.057-1.287-37.36-13.88,13.6,12.845,40.874,14.383,62.274,5.557,16.978-7,30-21.032,31.38-37.542,1.83-21.871-4.844-45.134-7.425-53.124a51.312,51.312,0,0,1,10.192,17.382" transform="translate(-46.965 -47.3)" fill="#84adff" fill-rule="evenodd"/>
      <path id="Trazado_598925" data-name="Trazado 598925" d="M3955.041,932.987s-.2,16.8,3.9,23.424,7.173,11.314,7.173,11.314-5.525-.587-18.338,1.461-22.263-2.972-23.018-3.791,2.61-7.1,2.61-7.1l12.584-17.8Z" transform="translate(-129.036 -117.543)" fill="#84adff" fill-rule="evenodd"/>
      <path id="Trazado_598926" data-name="Trazado 598926" d="M3924.971,790.628a3.679,3.679,0,1,1-3.679,3.679,3.679,3.679,0,0,1,3.679-3.679" transform="translate(-126.595 -13.964)" fill="#355298" fill-rule="evenodd"/>
      <path id="Trazado_598927" data-name="Trazado 598927" d="M3876.357,917.577c-1.01,2.309-3.113,9.3-5.544,14.61-1.645,3.594-4.526,6.3-6.785,6.746-21.379,4.219,1.147-11.064,2.006-11.256.1-.023,1.667-11.6,1.812-11.919Z" transform="translate(-78.248 -105.008)" fill="#f8b9be" fill-rule="evenodd"/>
      <path id="Trazado_598928" data-name="Trazado 598928" d="M3783.733,1143.99l6.1-13.6,5.552,1.3-5.926,12.838Z" transform="translate(-26.508 -261.172)" fill="#f8a98e" fill-rule="evenodd"/>
      <path id="Trazado_598929" data-name="Trazado 598929" d="M3757.976,1173.2s-6.556,2.693-8.742,3.763c-1.7.832-2.658,2.581-1.264,3.473h16.982c.015-.041.029-.085.044-.133.252-.839.912-6.834-.854-6.7-1.1.083-3.711.861-6.165-.4" transform="translate(0 -292.318)" fill="#355298" fill-rule="evenodd"/>
      <path id="Trazado_598930" data-name="Trazado 598930" d="M3846.605,978.431l-16.395-.991s-20.259,2.25-26.533,11.758-13.854,38.131-13.854,38.131a10.273,10.273,0,0,0,6.036,2.385c2.1-2.313,17.061-28.974,17.086-28.979l28.127-17.394Z" transform="translate(-30.941 -149.887)" fill="#355298" fill-rule="evenodd"/>
      <path id="Trazado_598931" data-name="Trazado 598931" d="M3904.446,977.44l-7.393,6.288c-3.163.058-11.256-1.234-13.5-.537-8.92,2.77-9.561,7.995-7.5,16.877l3.448-2.132,23.6-14.6Z" transform="translate(-92.97 -149.887)" fill="#1d3975" fill-rule="evenodd"/>
      <path id="Trazado_598932" data-name="Trazado 598932" d="M3916.394,1163.6l-.469-4.956,4.972.119-.047,5.675Z" transform="translate(-122.69 -281.728)" fill="#f8a98e" fill-rule="evenodd"/>
      <path id="Trazado_598933" data-name="Trazado 598933" d="M3910.344,1173.753c-1.367,2.525-3.6,4.94-1.856,7.085h8.856c.015-.041.03-.086.043-.133a1.508,1.508,0,0,0,.223-1.492c-.513-2-2.022-5.066-2.54-5.224-1.028-.313-2.488.569-4.726-.236" transform="translate(-116.815 -292.723)" fill="#355298" fill-rule="evenodd"/>
      <path id="Trazado_598934" data-name="Trazado 598934" d="M3907.756,1193.63v0a1.686,1.686,0,0,0,.661,1.666h8.856c.457-.273.577-.46.266-1.625Z" transform="translate(-116.744 -307.185)" fill="#1d3975" fill-rule="evenodd"/>
      <path id="Trazado_598935" data-name="Trazado 598935" d="M3924.295,987.328c4.738,19.119-9.484,19.935-25.171,17.892,2.078,11.269-.046,19.167.091,30.792-1.218.558-3.109,1.558-5.488.277,0,0-5.832-19.829-7.616-32.135-.9-6.209-.492-9.392,6.776-12.839,2.032-.964,18.881-2.786,18.881-2.786Z" transform="translate(-100.746 -157.082)" fill="#355298" fill-rule="evenodd"/>
      <path id="Trazado_598936" data-name="Trazado 598936" d="M3932.8,842.077h0c3.337,3.422,5.887,10.279,6.451,16.691l-4.886.4c.629,5.691,1.422,12.389,2.161,21.8-7.412,2.363-28.617,2.261-29.562-1.124-.235-6.669.513-13.994.281-20.256l-5.885-1.267c1.54-4.56,2-14.113,6.631-16.068a.119.119,0,0,1,.036-.02,27.833,27.833,0,0,1,14.988-3.8c4.177.156,6.751,1.183,8.848,2.834a6.634,6.634,0,0,1,.926.794Z" transform="translate(-112.091 -48.737)" fill="#f3ab1d" fill-rule="evenodd"/>
      <path id="Trazado_598937" data-name="Trazado 598937" d="M3944.622,839.735a24.541,24.541,0,0,1,8.851-1.309c.8.914.771,4.2-2.509,5.977-1.612.873-4.164,1.2-5.711.021a3.334,3.334,0,0,1-.63-4.688" transform="translate(-143.075 -48.741)" fill="#fff" fill-rule="evenodd"/>
      <path id="Trazado_598938" data-name="Trazado 598938" d="M3980.83,923.584c3.371-5.742,5.648-13.05,6.879-20.145l.371-5.6c.2,1.653.421,3.3.626,4.852l4.5-.371c-.454,1.771-1.262,4.692-1.157,4.7.145.007-5.678,14.268-6.474,14.455s-4.75,2.109-4.75,2.109" transform="translate(-169.915 -91.972)" fill="#8c9807" fill-rule="evenodd"/>
      <path id="Trazado_598939" data-name="Trazado 598939" d="M3889.033,997.4h25.736V998a.608.608,0,0,1-.606.606h-24.524a.608.608,0,0,1-.606-.606Z" transform="translate(-103.124 -164.407)" fill="#7babea" fill-rule="evenodd"/>
      <path id="Trazado_598940" data-name="Trazado 598940" d="M3847.358,938.565h20.266a1.585,1.585,0,0,1,1.453,1.47l2.783,14.871h-22.97l-2.784-15.074a1.2,1.2,0,0,1,1.251-1.266" transform="translate(-71.881 -121.602)" fill="#7babea" fill-rule="evenodd"/>
      <path id="Trazado_598941" data-name="Trazado 598941" d="M3844.81,938.565h20.265a1.585,1.585,0,0,1,1.453,1.47l2.59,13.749h.034l.167,1.009a.963.963,0,0,1-1.009,1.009h-20.994a1.075,1.075,0,0,1-1.01-1.009l-.124-.829-2.624-14.133a1.193,1.193,0,0,1,1.251-1.266" transform="translate(-70.026 -121.602)" fill="#b2d2ff" fill-rule="evenodd"/>
      <path id="Trazado_598942" data-name="Trazado 598942" d="M3885.619,966.914a1.072,1.072,0,1,1-.629,1.238.989.989,0,0,1,.629-1.238" transform="translate(-100.157 -142.213)" fill="#edf8fd" fill-rule="evenodd"/>
      <path id="Trazado_598943" data-name="Trazado 598943" d="M3972.723,918.609a17.789,17.789,0,0,1-.345,5.635c-.128.395-.438.656-.572,1.039-3.571,10.221-10.214,15.714-18.192,15.664-.606-.446-.9-.67-.94-.93l-4.812.054c.281-1.018.808-2.486,2.163-2.936.89-.3,2.573.02,5.855.249,6.285-2.3,10.022-15.074,10.005-15.377l-.37-2.828Z" transform="translate(-145.927 -107.082)" fill="#f8b9be" fill-rule="evenodd"/>
      <path id="Trazado_598944" data-name="Trazado 598944" d="M3931.8,796.555l.35,1.627c-1.449,6.056,9.888,2.917,7.04-2.364l-.79-2.851a7.757,7.757,0,0,0,2.1-3.223c1.776-10.618-13.2-12.963-14.3-3.165-.441,3.955,1.229,9.023,5.6,9.977" transform="translate(-130.116 -6.498)" fill="#f7aaac" fill-rule="evenodd"/>
      <path id="Trazado_598945" data-name="Trazado 598945" d="M3951.586,831.143a4.106,4.106,0,0,1-4.372,3.515l-.278-1.159a6.527,6.527,0,0,0,4.65-2.357" transform="translate(-145.253 -43.443)" fill="#e16e73" fill-rule="evenodd"/>
      <path id="Trazado_598946" data-name="Trazado 598946" d="M3930.235,783.934c-.021.717.338,1.225,1.187.338.628-.655,1.731-.5,1.551.58-.15.89-1.186,1.782-.721,1.533,7.995-4.283,1.431-20.075-9.767-13.269a4.145,4.145,0,0,0-2.928,7.648,3.065,3.065,0,0,0,1.38.554,9.631,9.631,0,0,0,4.413-.722c2.906-.948,4.987-.042,4.885,3.34" transform="translate(-123.822)" fill="#355298" fill-rule="evenodd"/>
      <path id="Trazado_598947" data-name="Trazado 598947" d="M4018.067,913.093l-8.518.7.156,1.843,8.518-.7Z" transform="translate(-190.81 -103.069)" fill="#8c9807" fill-rule="evenodd"/>
      <path id="Trazado_598948" data-name="Trazado 598948" d="M3919.429,902.773l-1.36-.34c.427-1.546.852-3.188,1.218-4.645Z" transform="translate(-124.25 -91.933)" fill="#8c9807" fill-rule="evenodd"/>
      <path id="Trazado_598949" data-name="Trazado 598949" d="M3905.652,912.041l-6.123-1.409-.392,1.72,6.567,1.511Z" transform="translate(-110.475 -101.278)" fill="#8c9807" fill-rule="evenodd"/>
    </g>
  </g>
</svg>
