<svg xmlns="http://www.w3.org/2000/svg" xmlns:xlink="http://www.w3.org/1999/xlink" width="1030" height="531" viewBox="0 0 1030 531">
  <defs>
    <linearGradient id="linear-gradient" x1="0.5" x2="0.5" y2="1" gradientUnits="objectBoundingBox">
      <stop offset="0" stop-color="#eef5f9"/>
      <stop offset="1" stop-color="#fff"/>
    </linearGradient>
    <linearGradient id="linear-gradient-2" x1="0.5" y1="0.407" x2="0.5" y2="0.891" gradientUnits="objectBoundingBox">
      <stop offset="0" stop-color="#1ca2c2"/>
      <stop offset="1" stop-color="#e1e1ca"/>
    </linearGradient>
    <linearGradient id="linear-gradient-3" x1="0.5" y1="0.606" x2="0.5" y2="1.184" gradientUnits="objectBoundingBox">
      <stop offset="0" stop-color="#3186ab"/>
      <stop offset="1" stop-color="#4fc2e5"/>
    </linearGradient>
    <clipPath id="clip-path">
      <rect id="Rect치ngulo_43663" data-name="Rect치ngulo 43663" width="174.387" height="398.3" fill="none"/>
    </clipPath>
  </defs>
  <g id="Grupo_876215" data-name="Grupo 876215" transform="translate(-285 -548)">
    <path id="Trazado_599869" data-name="Trazado 599869" d="M0,0H1030V463H0Z" transform="translate(285 548)" fill="url(#linear-gradient)"/>
    <g id="Grupo_876206" data-name="Grupo 876206" transform="translate(285 604.584)" opacity="0.2">
      <g id="house2" transform="translate(0.026 142.656)">
        <path id="Trazado_599867" data-name="Trazado 599867" d="M1030.065,263.912V155.588h-1.931v-7.1h-2.618v-.223h-.007v-3.776h0v-.634h-5.19v-8.815h0v-.709h-5.69V130.1h0v-.8h-3.211v.8h0v2.836h-.505v-5.912h-2.394v7.3H1005.7v9.525h-6.322v.634h0v3.776h0v1.571h0v.334h0v1.336h-2.448v.668h0v.449h-2.484V254.47h0v9.441h-2.511V245.374h0v-19.5h0V200.865h0v-6.759h0v-1.987h0v-8.644h0v-2.325h0v-1.081h-5.708V177.11h-4.654v-3.235h-1.834V159.842h-2v14.033h-1.8v-13.25h-1.8v13.25H972.8V155.863h-.582v18.011h-.278V155.863h-.582v18.011h-.912v-3.184h-2.828v-3.608h-4.4V168h-.689v-.918h-.73v-1.6h2.5v-2.208H953.3v-9.265h-2.428v-2.6h-2.428v-9.352h-.954v-7.966h-.867v-7.966h-.3V96.656h-1.8v29.47h-.3v7.966h-.607v7.966h-.954v9.352h-1.994v2.6h-2.081v9.265H927.615v2.208h2.5v1.6h-.549V168h-.689v-.918h-4.4v15.639h4.4v-.81h.689v41.931h-3.422V221.8h.366v-1.192h-6.773V188.158H916.8V167.47h-2.38v-3.834h-.936v-3.215h-1v-2.472h-.909v-1.888h0v-.047h-1.513c0-.053-.015-.1-.021-.155,0-.016,0-.033-.007-.049a1.753,1.753,0,0,0-.055-.249V121.273h-2.025V148.89h-2.77v7.124h-1.6v1.935h-1v2.472h-.909v3.215h-1.133v3.834h-2.332v20.687H896.2v14.6h-2.337v-6.119h-2.5v6.119H876.476v-7.133h-.566v8.9h-.294v-8.9h-.565v8.9h-4.329v2.5h-1.509v.035h0v17.408h0v5.2h-2.676V162.143h-5.59v-26.55l-.86.221v-.221l-13.183,3.388H831.1v-4.817h.527v-5.779H831.1v-3.974h-2.716v-9.518H827.6v9.518h-.069v-9.518h-.791v9.568h.027v3.924h-.844v5.779h.844v4.817h-3.4l-1.911-2.741v1.233l-.86-1.233v2.234l-11.209-2.881v.221l-.86-.221v87.6h-.407v4.674H807.1v-14.53h-.035v-.056h-1.2v5.5h-.049v-5.445h-.035v-.056h-1.2v5.5h-3.7V202.937h-.035v-.057h-1.2v4.212H799.6v-4.156h-.035v-.057h-1.2v4.212h-8.848v-4.156h-.035v-.057H789.2v-3.766h0v-2.085h0v-.969h-5.119v-2.652H779.9v-2.9h-1.645V177.919H777.3v12.586h-2.451V178.622h-.778v11.883h-2.036V174.351h-.454v16.154h-1.657V187.65h-7.907v2.856h-1.268v1.675q-.046.612-.075,1.226h-4.14v.54h0v2.112h-5.313v1.35a.155.155,0,0,0-.032.089c-.132,3.291-.039,6.569.032,9.853v7.361h0v2.471h0l.014.008c-.03,2.483-.052,4.967.007,7.447v12.507h0V254.63h0v4.889h-3.66v-25.94h-2.824V212.908h0V149.2H743.4v-.983H725.565v-4.347h-19.95v4.347h-6.708v1.8h0v8.08h-.062V147.9h-.553v10.2h-.469V147.9h-.553v10.2h-.123v-6.091H687.008v-1.152h-.584v-2.218h.584v-.707h0V146.5h-.584v-2.436h.584v-2.14h-.584v-.012h-.877V129.158h-2.078v-5.373h0v-2.9h-30.7v7.359h-1.85v13.668h-.292v22.409h-4.157v-1h1.981v-.006h0v-2.985H635V152.4h-12.6v7.932H608.954v2.985h0v.006h1.877v1h-9.906v53.041H583v9.9h-4.243v3.627h-1.487v-7.144h-.036v-.012h-1.517V225.3H563.85v-1.556h-.036v-.012h-1.9V251.9h-2.085v-2.134h-2.6v-6.482h-3.94v-4.189h-.211v4.189h-1.124v-7.412h-.626v3.223h-.1v4.189h-1.124v-7.412h-.626v7.412h-1.04v2.45h-3.349v4.031h-1.008V219.848H540.37v-.716h0v-1.563h-3.029v-2.493h-1.194V204.264h-.68v10.812H534.3V204.264h-.68v.6h-.5v10.208h-1.3V204.868h-.195V201.2h-.314v3.669h-.041v10.208H530.1v-2.453h-.316V201.2h-.314v11.424h-6.942v2.453h-.92v2.493h-3.059v1.563h0v.716h-3.48V155.588h-1.93v-7.1h-2.616v-.223h-.007v-3.776h0v-.634h-5.185v-8.815h0v-.709h-5.686V130.1h0v-.8h-3.209v.8h0v2.836h-.5v-5.912h-2.392v7.3h-2.817v9.525H484.4v.634h0v3.776h0v1.571h0v.334h0v1.336h-2.446v.668h0v.449h-2.482V254.47h0v9.441h-2.509V245.374h0v-19.5h0V200.865h0v-6.759h0v-1.987h0v-8.644h0v-2.325h0v-1.081h-5.7V177.11h-4.651v-3.235h-1.833V159.842h-2v14.033h-1.8v-13.25h-1.8v13.25h-1.333V155.863h-.582v18.011h-.278V155.863H456.4v18.011h-.911v-3.184h-2.826v-3.608h-4.4V168h-.689v-.918h-.729v-1.6h2.5v-2.208h-10.98v-9.265h-2.426v-2.6h-2.426v-9.352h-.953v-7.966H431.7v-7.966h-.3V96.656h-1.8v29.47h-.3v7.966h-.606v7.966h-.953v9.352h-1.992v2.6h-2.079v9.265H412.7v2.208h2.5v1.6h-.549V168h-.689v-.918h-4.4v15.639h4.4v-.81h.689v41.931h-3.419V221.8h.365v-1.192h-6.768V188.158h-2.934V167.47h-2.378v-3.834h-.935v-3.215h-1v-2.472h-.908v-1.888h0v-.047h-1.512c0-.053-.015-.1-.021-.155,0-.016,0-.033-.007-.049a1.724,1.724,0,0,0-.055-.249V121.273h-2.024V148.89h-2.768v7.124h-1.6v1.935h-1v2.472h-.908v3.215H385.65v3.834h-2.33v20.687h-2.012v14.6h-2.335v-6.119h-2.5v6.119H361.6v-7.133h-.565v8.9h-.295v-8.9h-.565v8.9h-4.326v2.5h-1.507v.035h0v17.408h0v5.2h-2.674V162.143h-5.585v-26.55l-.859.221v-.221l-13.173,3.388H316.26v-4.817h.527v-5.779h-.527v-3.974h-2.714v-9.518h-.79v9.518h-.069v-9.518h-.79v9.568h.026v3.924h-.843v5.779h.843v4.817h-3.4l-1.91-2.741v1.233l-.859-1.233v2.234l-11.2-2.881v.221l-.859-.221v87.6h-.407v4.674h-1.008v-14.53h-.035v-.056h-1.2v5.5H291v-5.445h-.035v-.056h-1.2v5.5h-3.7V202.937h-.035v-.057h-1.2v4.212h-.049v-4.156h-.035v-.057h-1.2v4.212h-8.841v-4.156h-.035v-.057h-.291v-3.766h0v-2.085h0v-.969h-5.115v-2.652H265.1v-2.9h-1.644V177.919H262.5v12.586h-2.449V178.622h-.777v11.883h-2.035V174.351h-.453v16.154H255.13V187.65h-7.9v2.856h-1.267v1.675q-.046.612-.075,1.226h-4.137v.54h0v2.112h-5.309v1.35a.155.155,0,0,0-.032.089c-.132,3.291-.038,6.569.032,9.853v7.361h0v2.471h0l.013.008c-.03,2.483-.052,4.967.007,7.447v12.507h0V254.63h0v4.889h-3.657v-25.94h-2.822V212.908h0V149.2h-1.36v-.983H210.806v-4.347H190.872v4.347h-6.7v1.8h0v8.08h-.062V147.9h-.553v10.2h-.469V147.9h-.553v10.2h-.123v-6.091h-10.13v-1.152H171.7v-2.218h.584v-.707h0V146.5H171.7v-2.436h.584v-2.14H171.7v-.012h-.876V129.158h-2.076v-5.373h0v-2.9H138.069v7.359H136.22v13.668h-.292v22.409h-4.154v-1h1.98v-.006h0v-2.985H120.314V152.4H107.727v7.932H94.286v2.985h0v.006h1.875v1h-9.9v53.041H68.351v9.9h-4.24v3.627H62.625v-7.144H62.59v-.012H61.074V225.3H49.217v-1.556h-.036v-.012h-1.9V251.9H45.2v-2.134H42.6v-6.482H38.666v-4.189h-.21v4.189H37.332v-7.412h-.626v3.223h-.1v4.189H35.486v-7.412H34.86v7.412H33.821v2.45H30.475v4.031H29.468V219.848H25.755v-.716h0v-1.563H22.728v-2.493H21.535V204.264h-.68v10.812H19.689V204.264h-.679v.6h-.5v10.208h-1.3V204.868h-.195V201.2h-.314v3.669h-.041v10.208H15.491v-2.453h-.315V201.2h-.314v11.424H7.926v2.453H7.007v2.493H3.95v1.563h0v.716H.1V360.416H1030.071v-96.5ZM104.393,164.323H98.225v-1h6.168Zm3.334,0h-.958v-1h.958Zm13.441,0h-.854v-1h.854Zm8.231,0h-6.168v-1H129.4ZM354.342,236.25h-2.674v-1.286h2.674Zm22.129-29.222H362.292v-.606h.626v.463h.856v-.463h0v.463h.856v-.463h7.7v.428h0v.035h2.177v-.463h1.962ZM413.3,230.451h-2.075v-1.333H413.3Zm.859,0h-.346v-1.333h.346Zm.485-52.015v2.857h-.689V168.62h.689Zm1.408-11.352h-.407v-1.6h.407Zm6.822,0h-6.37v-1.6h6.37Zm.78,0h-.328v-1.6h.328Zm15.059,0h-.349v-1.6h.349Zm6.822,0h-6.37v-1.6h6.37Zm.859,0h-.407v-1.6h.407Zm1.87,3.608h-.689V168.62h.689Zm170.8-6.368H612.9v-1h6.172Zm3.337,0h-.959v-1h.959Zm13.451,0H635v-1h.854Zm8.238,0h-6.172v-1h6.172ZM869.213,236.25h-2.676v-1.286h2.676Zm22.146-29.222h-14.19v-.606h.627v.463h.857v-.463h0v.463h.857v-.463h7.7v.428h0v.035H889.4v-.463h1.963Zm36.86,23.422h-2.077v-1.333h2.077Zm.86,0h-.346v-1.333h.346Zm.485-52.015v2.857h-.689V168.62h.689Zm1.409-11.352h-.408v-1.6h.408Zm6.827,0h-6.375v-1.6H937.8Zm.78,0h-.328v-1.6h.328Zm15.071,0h-.35v-1.6h.35Zm6.827,0h-6.375v-1.6h6.375Zm.86,0h-.407v-1.6h.407Zm1.871,3.608h-.689V168.62h.689Z" transform="translate(-0.097 -96.656)" opacity="0.63" fill="url(#linear-gradient-2)"/>
      </g>
      <g id="house1" transform="translate(0 245.056)">
        <path id="Trazado_599868" data-name="Trazado 599868" d="M1015.367,590.531v.722h-2.789V589.73h.48v-1.044h-5.423v-43.37H990.971V529.5h-5.106v-1.6h-1.886v-2.475h-.368v2.475h-.6v1.6H973.03v-8.3H972.6v8.3h-2.836v15.821h-10.8V517.135H957.1v-2.207h-1.464V502.91h-.683v12.018h-.266v2.207h-.759v7.5h-.39V507.754H932.754v6.193h-.878v-3.495h-1.366v3.495h-.976v10.689h-1.659v12.9h-19.85v5.808h0v3.168h0v4.752H905.79V536.055H904.2V527.76h-6.568v-1.677h0v-.006h0v-8.389h-1.779v-3.556H864.142v6.822h0v3.721h0v5.581h-3.37v5.271h0v1.24h0v51.9h-7.028V560.489h-1.87v-2.207H850.41V546.264h-.683v12.018h-.266v2.207H848.7v7.5h-.39V551.107H827.527V557.3h-.878v-3.495h-1.366V557.3h-.976v10.689h-1.659v12.9H802.8V586.7h0v2.213h-2.234v-9.5h-1.592v-8.295H792.4v-1.677h0v-.006h0v-6.359h0v-2.03h-1.779v-3.556h-31.71v6.821h0v3.721h0V570.2h-2.771v3.4h-.6v5.271h0v1.24h0v.865h-6.378V544.748h-2.746V525.669h-2.007v-7.484h-2.007v-4.054h-4.858v-11.07h-5.915v-9.228h0v-.079h-13.1v2.383h0v8.792h-6.971v9.2h-1.69v71.239H693.7v5.883h-3.4v-6.86h.586v-1.274h-6.62V530.183H663.925v-19.31h-6.233v-1.955h-2.3V505.9h-.449v3.021h-.73v1.955H642.026V500.744h-.519v10.129h-3.462v19.31h-13.18v-34.4h-2.283v-2.694H620.8V478.423h-.834v14.668h-.324v2.694h-.926v9.155h-.476V484.335H592.866v7.559h-1.072v-4.266h-1.667v4.266h-1.191v13.047h-2.025v15.743H562.683v7.09h0v3.867h0v5.8h-2.727V518.879h-1.943V508.754H550v-2.047h0V506.7h0v-7.762h0V496.46h-15.06v.007h0V506.7h-6.8v.007h0v7.117h0v3.609h0v1.446h-5.587v4.459H520.24v.007h0v8.226h-2.308v20.99H515v37.969H500.371v.722h-2.789V589.73h.48v-1.044h-5.423v-43.37H475.975V529.5h-5.106v-1.6h-1.886v-2.475h-.368v2.475h-.6v1.6h-9.983v-8.3h-.425v8.3h-2.836v15.821h-10.8V517.135H442.1v-2.207H440.64V502.91h-.683v12.018h-.266v2.207h-.759v7.5h-.39V507.754H417.757v6.193h-.878v-3.495h-1.366v3.495h-.976v10.689h-1.659v12.9h-19.85v5.808h0v3.168h0v4.752h-2.234V536.055H389.2V527.76h-6.567v-1.677h0v-.006h0v-8.389h-1.779v-3.556H349.145v6.822h0v3.721h0v5.581h-3.37v5.271h0v1.24h0v51.9h-7.028V560.489h-1.87v-2.207h-1.464V546.264h-.683v12.018h-.266v2.207h-.759v7.5h-.39V551.107H312.53V557.3h-.878v-3.495h-1.366V557.3h-.976v10.689h-1.659v12.9H287.8V586.7h0v2.213h-2.234v-9.5h-1.592v-8.295h-6.567v-1.677h0v-.006h0v-6.359h0v-2.03h-1.779v-3.556H243.918v6.821h0v3.721h0V570.2h-2.771v3.4h-.6v5.271h0v1.24h0v.865H234.17V544.748h-2.746V525.669h-2.007v-7.484h-2.007v-4.054h-4.858v-11.07h-5.915v-9.228h0v-.079h-13.1v2.383h0v8.792h-6.971v9.2h-1.69v71.239H178.705v5.883h-3.4v-6.86h.586v-1.274h-6.62V530.183H148.928v-19.31H142.7v-1.955h-2.3V505.9h-.449v3.021h-.73v1.955H127.03V500.744h-.519v10.129h-3.462v19.31h-13.18v-34.4h-2.283v-2.694H105.8V478.423h-.834v14.668h-.324v2.694h-.926v9.155h-.476V484.335H77.869v7.559H76.8v-4.266H75.13v4.266H73.939v13.047H71.914v15.743H47.686v7.09h0v3.867h0v5.8H44.959V518.879H43.015V508.754H35v-2.047h0V506.7h0v-7.762h0V496.46H19.939v.007h0V506.7h-6.8v.007h0v7.117h0v3.609h0v1.446H7.551v4.459H5.243v.007h0v8.226H2.935v20.99H0v87.221H1030V590.531Z" transform="translate(0 -478.423)" fill="url(#linear-gradient-3)"/>
      </g>
    </g>
    <g id="Grupo_874741" data-name="Grupo 874741" transform="translate(0 8)">
      <g id="Grupo_874692" data-name="Grupo 874692" transform="translate(61 -42.137)">
        <g id="Grupo_876214" data-name="Grupo 876214">
          <path id="Trazado_596869" data-name="Trazado 596869" d="M0,0H280V48H0Z" transform="translate(624 611)" fill="#c9e1ee"/>
          <path id="Trazado_599870" data-name="Trazado 599870" d="M91.611,11.742V16h-2.49V3.914h4.715a5.455,5.455,0,0,1,2.395.5,3.67,3.67,0,0,1,1.59,1.415,3.946,3.946,0,0,1,.556,2.088,3.47,3.47,0,0,1-1.216,2.8,5.065,5.065,0,0,1-3.366,1.025Zm0-2.017h2.225a2.187,2.187,0,0,0,1.507-.465,1.691,1.691,0,0,0,.519-1.328A1.994,1.994,0,0,0,95.338,6.5a1.953,1.953,0,0,0-1.444-.564H91.611ZM102.46,16h-2.407V3.25h2.407Zm7.18,0a2.664,2.664,0,0,1-.241-.805,2.9,2.9,0,0,1-2.266.971,3.189,3.189,0,0,1-2.187-.764,2.456,2.456,0,0,1-.867-1.926,2.538,2.538,0,0,1,1.058-2.191,5.222,5.222,0,0,1,3.059-.772h1.1V10a1.48,1.48,0,0,0-.32-1,1.257,1.257,0,0,0-1.009-.374,1.429,1.429,0,0,0-.95.291.987.987,0,0,0-.344.8h-2.4a2.41,2.41,0,0,1,.481-1.444,3.182,3.182,0,0,1,1.361-1.042,4.961,4.961,0,0,1,1.976-.378,3.92,3.92,0,0,1,2.635.834,2.918,2.918,0,0,1,.975,2.345v3.893a4.294,4.294,0,0,0,.357,1.934V16Zm-1.984-1.668a2.066,2.066,0,0,0,.979-.237,1.554,1.554,0,0,0,.664-.635V11.916h-.9q-1.8,0-1.917,1.245l-.008.141a.96.96,0,0,0,.315.739A1.225,1.225,0,0,0,107.656,14.332Zm8.1-7.313.075,1.038a3.136,3.136,0,0,1,2.582-1.2,2.606,2.606,0,0,1,2.125.838,3.912,3.912,0,0,1,.714,2.507V16h-2.4V10.243a1.562,1.562,0,0,0-.332-1.111,1.484,1.484,0,0,0-1.1-.345,1.65,1.65,0,0,0-1.519.865V16h-2.4V7.019ZM127.2,16.166a4.409,4.409,0,0,1-3.217-1.212,4.308,4.308,0,0,1-1.241-3.229v-.232a5.426,5.426,0,0,1,.523-2.42,3.838,3.838,0,0,1,1.482-1.644,4.159,4.159,0,0,1,2.187-.577,3.727,3.727,0,0,1,2.9,1.162,4.722,4.722,0,0,1,1.058,3.3v.979h-5.719a2.229,2.229,0,0,0,.7,1.411,2.12,2.12,0,0,0,1.482.531,2.589,2.589,0,0,0,2.167-1l1.179,1.32a3.6,3.6,0,0,1-1.461,1.191A4.793,4.793,0,0,1,127.2,16.166Zm-.274-7.379a1.5,1.5,0,0,0-1.158.484,2.5,2.5,0,0,0-.569,1.384h3.337v-.192a1.786,1.786,0,0,0-.432-1.238A1.547,1.547,0,0,0,126.931,8.787ZM137.464,16a2.664,2.664,0,0,1-.241-.805,2.9,2.9,0,0,1-2.266.971,3.189,3.189,0,0,1-2.187-.764,2.456,2.456,0,0,1-.867-1.926,2.538,2.538,0,0,1,1.058-2.191,5.222,5.222,0,0,1,3.059-.772h1.1V10a1.48,1.48,0,0,0-.32-1,1.257,1.257,0,0,0-1.009-.374,1.429,1.429,0,0,0-.95.291.987.987,0,0,0-.344.8h-2.4a2.41,2.41,0,0,1,.481-1.444,3.182,3.182,0,0,1,1.361-1.042,4.961,4.961,0,0,1,1.976-.378,3.92,3.92,0,0,1,2.635.834,2.918,2.918,0,0,1,.975,2.345v3.893a4.294,4.294,0,0,0,.357,1.934V16Zm-1.984-1.668a2.066,2.066,0,0,0,.979-.237,1.554,1.554,0,0,0,.664-.635V11.916h-.9q-1.8,0-1.917,1.245l-.008.141a.96.96,0,0,0,.315.739A1.225,1.225,0,0,0,135.48,14.332Zm9.629-.1a1.573,1.573,0,0,0,1.079-.365,1.28,1.28,0,0,0,.432-.971h2.25a3.077,3.077,0,0,1-.5,1.673,3.286,3.286,0,0,1-1.341,1.179,4.2,4.2,0,0,1-1.88.419,3.9,3.9,0,0,1-3.038-1.224A4.845,4.845,0,0,1,141,11.559V11.4a4.79,4.79,0,0,1,1.1-3.312,3.854,3.854,0,0,1,3.03-1.237,3.778,3.778,0,0,1,2.7.959,3.4,3.4,0,0,1,1.033,2.552h-2.25a1.648,1.648,0,0,0-.432-1.139,1.6,1.6,0,0,0-2.362.173,3.541,3.541,0,0,0-.427,1.983v.249a3.586,3.586,0,0,0,.423,2A1.463,1.463,0,0,0,145.109,14.232ZM152.771,16h-2.407V7.019h2.407ZM150.223,4.694a1.181,1.181,0,0,1,.361-.888,1.556,1.556,0,0,1,1.963,0,1.175,1.175,0,0,1,.365.888,1.178,1.178,0,0,1-.369.9,1.539,1.539,0,0,1-1.951,0A1.178,1.178,0,0,1,150.223,4.694Zm4.15,6.732a5.327,5.327,0,0,1,.515-2.382,3.767,3.767,0,0,1,1.482-1.619,4.323,4.323,0,0,1,2.245-.573,4.09,4.09,0,0,1,2.968,1.112,4.464,4.464,0,0,1,1.282,3.021l.017.614a4.694,4.694,0,0,1-1.154,3.316,4.472,4.472,0,0,1-6.2,0,4.777,4.777,0,0,1-1.158-3.387Zm2.4.17a3.357,3.357,0,0,0,.481,1.958,1.73,1.73,0,0,0,2.739.008,3.674,3.674,0,0,0,.49-2.141,3.324,3.324,0,0,0-.49-1.945,1.592,1.592,0,0,0-1.378-.69,1.566,1.566,0,0,0-1.361.686A3.735,3.735,0,0,0,156.772,11.6Zm2.316-8.347H161.7l-2.3,2.573h-1.951Zm7.479,3.769.075,1.038a3.136,3.136,0,0,1,2.582-1.2,2.606,2.606,0,0,1,2.125.838,3.912,3.912,0,0,1,.714,2.507V16h-2.4V10.243a1.562,1.562,0,0,0-.332-1.111,1.484,1.484,0,0,0-1.1-.345,1.65,1.65,0,0,0-1.519.865V16h-2.4V7.019Z" transform="translate(643 624)" fill="#12263f"/>
          <g id="Grupo_874679" data-name="Grupo 874679" transform="translate(923 2448.532) rotate(180)">
            <circle id="Elipse_4713" data-name="Elipse 4713" cx="2.5" cy="2.5" r="2.5" transform="translate(285 1799.532)" fill="#f3ab1d"/>
            <circle id="Elipse_4717" data-name="Elipse 4717" cx="2.5" cy="2.5" r="2.5" transform="translate(285 1811.532)" fill="#f3ab1d"/>
            <circle id="Elipse_4719" data-name="Elipse 4719" cx="2.5" cy="2.5" r="2.5" transform="translate(285 1823.532)" fill="#f3ab1d"/>
            <circle id="Elipse_4715" data-name="Elipse 4715" cx="2.5" cy="2.5" r="2.5" transform="translate(297 1799.532)" fill="#f3ab1d"/>
            <circle id="Elipse_4720" data-name="Elipse 4720" cx="2.5" cy="2.5" r="2.5" transform="translate(308 1799.532)" fill="#f3ab1d"/>
            <circle id="Elipse_4716" data-name="Elipse 4716" cx="2.5" cy="2.5" r="2.5" transform="translate(297 1811.532)" fill="#f3ab1d"/>
            <circle id="Elipse_4721" data-name="Elipse 4721" cx="2.5" cy="2.5" r="2.5" transform="translate(308 1811.532)" fill="#f3ab1d"/>
            <circle id="Elipse_4718" data-name="Elipse 4718" cx="2.5" cy="2.5" r="2.5" transform="translate(297 1823.532)" fill="#f3ab1d"/>
            <circle id="Elipse_4722" data-name="Elipse 4722" cx="2.5" cy="2.5" r="2.5" transform="translate(308 1823.532)" fill="#f3ab1d"/>
          </g>
          <g id="Grupo_874681" data-name="Grupo 874681" transform="translate(-27 105.033)">
            <path id="Trazado_599233" data-name="Trazado 599233" d="M0,0H280V48H0Z" transform="translate(651 590.191)" fill="#c9e1ee"/>
            <path id="Trazado_599871" data-name="Trazado 599871" d="M91.059,10.231a7.3,7.3,0,0,1-.631,3.129,4.751,4.751,0,0,1-1.805,2.075,5.335,5.335,0,0,1-5.375.008,4.8,4.8,0,0,1-1.826-2.063,7.087,7.087,0,0,1-.656-3.084V9.7a7.258,7.258,0,0,1,.643-3.142,4.79,4.79,0,0,1,1.818-2.083,5.327,5.327,0,0,1,5.371,0,4.79,4.79,0,0,1,1.818,2.083,7.237,7.237,0,0,1,.643,3.134Zm-2.523-.548a5.086,5.086,0,0,0-.681-2.889,2.4,2.4,0,0,0-3.876-.012,5.028,5.028,0,0,0-.689,2.86v.589A5.15,5.15,0,0,0,83.97,13.1a2.383,2.383,0,0,0,3.885.037,5.12,5.12,0,0,0,.681-2.868Zm9.222-.415a6.517,6.517,0,0,0-.863-.066,1.757,1.757,0,0,0-1.785.921V16h-2.4V7.019h2.266l.066,1.071a2.223,2.223,0,0,1,2-1.237,2.514,2.514,0,0,1,.747.108Zm.647,2.175a5.264,5.264,0,0,1,.984-3.329,3.187,3.187,0,0,1,2.652-1.262,2.8,2.8,0,0,1,2.3,1.013l.1-.847h2.175V15.7a3.839,3.839,0,0,1-.535,2.05,3.439,3.439,0,0,1-1.507,1.328,5.3,5.3,0,0,1-2.274.457,4.925,4.925,0,0,1-1.926-.394,3.418,3.418,0,0,1-1.419-1.017l1.063-1.461a2.81,2.81,0,0,0,2.175,1,2.057,2.057,0,0,0,1.486-.51,1.915,1.915,0,0,0,.531-1.448v-.481a2.775,2.775,0,0,1-2.183.938A3.179,3.179,0,0,1,99.405,14.9a5.262,5.262,0,0,1-1-3.358Zm2.4.171a3.3,3.3,0,0,0,.49,1.922,1.557,1.557,0,0,0,1.345.7,1.665,1.665,0,0,0,1.569-.826V9.612a1.661,1.661,0,0,0-1.552-.826A1.566,1.566,0,0,0,101.3,9.5,3.715,3.715,0,0,0,100.8,11.614ZM113.662,16a2.664,2.664,0,0,1-.241-.805,2.9,2.9,0,0,1-2.266.971,3.189,3.189,0,0,1-2.187-.764,2.456,2.456,0,0,1-.867-1.926,2.538,2.538,0,0,1,1.058-2.191,5.222,5.222,0,0,1,3.059-.772h1.1V10A1.48,1.48,0,0,0,113,9a1.257,1.257,0,0,0-1.009-.374,1.429,1.429,0,0,0-.95.291.987.987,0,0,0-.344.8h-2.4a2.41,2.41,0,0,1,.481-1.444,3.182,3.182,0,0,1,1.361-1.042,4.961,4.961,0,0,1,1.976-.378,3.92,3.92,0,0,1,2.635.834,2.918,2.918,0,0,1,.975,2.345v3.893a4.294,4.294,0,0,0,.357,1.934V16Zm-1.984-1.668a2.066,2.066,0,0,0,.979-.237,1.554,1.554,0,0,0,.664-.635V11.916h-.9q-1.8,0-1.917,1.245l-.008.141a.96.96,0,0,0,.315.739A1.225,1.225,0,0,0,111.678,14.332Zm8.1-7.313.075,1.038a3.136,3.136,0,0,1,2.582-1.2,2.606,2.606,0,0,1,2.125.838,3.912,3.912,0,0,1,.714,2.507V16h-2.4V10.243a1.562,1.562,0,0,0-.332-1.111,1.484,1.484,0,0,0-1.1-.345,1.65,1.65,0,0,0-1.519.865V16h-2.4V7.019ZM129.624,16h-2.407V7.019h2.407ZM127.076,4.694a1.181,1.181,0,0,1,.361-.888,1.556,1.556,0,0,1,1.963,0,1.175,1.175,0,0,1,.365.888,1.178,1.178,0,0,1-.369.9,1.539,1.539,0,0,1-1.951,0A1.178,1.178,0,0,1,127.076,4.694Zm7.28,9.372h4.391V16h-7.454V14.539l4.225-5.586h-4.1V7.019h7.2V8.432ZM145.454,16a2.664,2.664,0,0,1-.241-.805,2.9,2.9,0,0,1-2.266.971,3.189,3.189,0,0,1-2.187-.764,2.456,2.456,0,0,1-.867-1.926,2.538,2.538,0,0,1,1.058-2.191,5.222,5.222,0,0,1,3.059-.772h1.1V10a1.48,1.48,0,0,0-.32-1,1.257,1.257,0,0,0-1.009-.374,1.429,1.429,0,0,0-.95.291.987.987,0,0,0-.344.8h-2.4a2.41,2.41,0,0,1,.481-1.444,3.182,3.182,0,0,1,1.361-1.042,4.961,4.961,0,0,1,1.976-.378,3.92,3.92,0,0,1,2.635.834,2.918,2.918,0,0,1,.975,2.345v3.893a4.294,4.294,0,0,0,.357,1.934V16Zm-1.984-1.668a2.066,2.066,0,0,0,.979-.237,1.554,1.554,0,0,0,.664-.635V11.916h-.9q-1.8,0-1.917,1.245l-.008.141a.96.96,0,0,0,.315.739A1.225,1.225,0,0,0,143.47,14.332Zm9.629-.1a1.573,1.573,0,0,0,1.079-.365,1.28,1.28,0,0,0,.432-.971h2.25a3.077,3.077,0,0,1-.5,1.673,3.286,3.286,0,0,1-1.341,1.179,4.2,4.2,0,0,1-1.88.419,3.9,3.9,0,0,1-3.038-1.224,4.845,4.845,0,0,1-1.112-3.383V11.4a4.79,4.79,0,0,1,1.1-3.312,3.854,3.854,0,0,1,3.03-1.237,3.778,3.778,0,0,1,2.7.959,3.4,3.4,0,0,1,1.033,2.552h-2.25a1.648,1.648,0,0,0-.432-1.139,1.6,1.6,0,0,0-2.362.173,3.541,3.541,0,0,0-.427,1.983v.249a3.586,3.586,0,0,0,.423,2A1.463,1.463,0,0,0,153.1,14.232ZM160.76,16h-2.407V7.019h2.407ZM158.212,4.694a1.181,1.181,0,0,1,.361-.888,1.556,1.556,0,0,1,1.963,0,1.175,1.175,0,0,1,.365.888,1.178,1.178,0,0,1-.369.9,1.539,1.539,0,0,1-1.951,0A1.178,1.178,0,0,1,158.212,4.694Zm4.15,6.732a5.327,5.327,0,0,1,.515-2.382,3.767,3.767,0,0,1,1.482-1.619,4.323,4.323,0,0,1,2.245-.573,4.09,4.09,0,0,1,2.968,1.112,4.464,4.464,0,0,1,1.282,3.021l.017.614a4.694,4.694,0,0,1-1.154,3.316,4.472,4.472,0,0,1-6.2,0,4.777,4.777,0,0,1-1.158-3.387Zm2.4.17a3.357,3.357,0,0,0,.481,1.958,1.73,1.73,0,0,0,2.739.008,3.674,3.674,0,0,0,.49-2.141,3.324,3.324,0,0,0-.49-1.945,1.592,1.592,0,0,0-1.378-.69,1.566,1.566,0,0,0-1.361.686A3.735,3.735,0,0,0,164.761,11.6Zm2.316-8.347h2.615l-2.3,2.573h-1.951Zm7.479,3.769.075,1.038a3.136,3.136,0,0,1,2.582-1.2,2.606,2.606,0,0,1,2.125.838,3.912,3.912,0,0,1,.714,2.507V16h-2.4V10.243a1.562,1.562,0,0,0-.332-1.111,1.484,1.484,0,0,0-1.1-.345,1.65,1.65,0,0,0-1.519.865V16h-2.4V7.019Z" transform="translate(670 603.191)" fill="#12263f"/>
            <g id="Grupo_874679-2" data-name="Grupo 874679" transform="translate(950 2427.724) rotate(180)">
              <circle id="Elipse_4713-2" data-name="Elipse 4713" cx="2.5" cy="2.5" r="2.5" transform="translate(285 1799.532)" fill="#f3ab1d"/>
              <circle id="Elipse_4717-2" data-name="Elipse 4717" cx="2.5" cy="2.5" r="2.5" transform="translate(285 1811.532)" fill="#f3ab1d"/>
              <circle id="Elipse_4719-2" data-name="Elipse 4719" cx="2.5" cy="2.5" r="2.5" transform="translate(285 1823.532)" fill="#f3ab1d"/>
              <circle id="Elipse_4715-2" data-name="Elipse 4715" cx="2.5" cy="2.5" r="2.5" transform="translate(297 1799.532)" fill="#f3ab1d"/>
              <circle id="Elipse_4720-2" data-name="Elipse 4720" cx="2.5" cy="2.5" r="2.5" transform="translate(308 1799.532)" fill="#f3ab1d"/>
              <circle id="Elipse_4716-2" data-name="Elipse 4716" cx="2.5" cy="2.5" r="2.5" transform="translate(297 1811.532)" fill="#f3ab1d"/>
              <circle id="Elipse_4721-2" data-name="Elipse 4721" cx="2.5" cy="2.5" r="2.5" transform="translate(308 1811.532)" fill="#f3ab1d"/>
              <circle id="Elipse_4718-2" data-name="Elipse 4718" cx="2.5" cy="2.5" r="2.5" transform="translate(297 1823.532)" fill="#f3ab1d"/>
              <circle id="Elipse_4722-2" data-name="Elipse 4722" cx="2.5" cy="2.5" r="2.5" transform="translate(308 1823.532)" fill="#f3ab1d"/>
            </g>
          </g>
          <g id="Grupo_874682" data-name="Grupo 874682" transform="translate(-27 189.033)">
            <rect id="Rect치ngulo_291495" data-name="Rect치ngulo 291495" width="280" height="48" transform="translate(651 590.191)" fill="#c9e1ee"/>
            <path id="Trazado_599872" data-name="Trazado 599872" d="M95.5,16V3.914h3.719a5.647,5.647,0,0,1,2.851.718,5.007,5.007,0,0,1,1.963,2.042,6.3,6.3,0,0,1,.706,3.009v.556a6.316,6.316,0,0,1-.693,3,4.964,4.964,0,0,1-1.955,2.034,5.69,5.69,0,0,1-2.847.73ZM97.99,5.931V14h1.2a2.7,2.7,0,0,0,2.233-.955,4.314,4.314,0,0,0,.789-2.731V9.675a4.382,4.382,0,0,0-.764-2.793,2.7,2.7,0,0,0-2.233-.95ZM108.922,16h-2.407V7.019h2.407ZM106.374,4.694a1.181,1.181,0,0,1,.361-.888,1.556,1.556,0,0,1,1.963,0,1.175,1.175,0,0,1,.365.888,1.178,1.178,0,0,1-.369.9,1.539,1.539,0,0,1-1.951,0A1.178,1.178,0,0,1,106.374,4.694Zm9.571,4.574a6.517,6.517,0,0,0-.863-.066,1.757,1.757,0,0,0-1.785.921V16h-2.4V7.019h2.266l.066,1.071a2.223,2.223,0,0,1,2-1.237,2.514,2.514,0,0,1,.747.108Zm5.13,6.9a4.409,4.409,0,0,1-3.217-1.212,4.308,4.308,0,0,1-1.241-3.229v-.232a5.426,5.426,0,0,1,.523-2.42,3.838,3.838,0,0,1,1.482-1.644,4.159,4.159,0,0,1,2.187-.577,3.727,3.727,0,0,1,2.9,1.162,4.722,4.722,0,0,1,1.058,3.3v.979h-5.719a2.229,2.229,0,0,0,.7,1.411,2.12,2.12,0,0,0,1.482.531,2.589,2.589,0,0,0,2.167-1l1.179,1.32a3.6,3.6,0,0,1-1.461,1.191A4.793,4.793,0,0,1,121.074,16.166ZM120.8,8.787a1.5,1.5,0,0,0-1.158.484,2.5,2.5,0,0,0-.569,1.384h3.337v-.192a1.786,1.786,0,0,0-.432-1.238A1.547,1.547,0,0,0,120.8,8.787Zm9.064,5.445a1.573,1.573,0,0,0,1.079-.365,1.28,1.28,0,0,0,.432-.971h2.25a3.077,3.077,0,0,1-.5,1.673,3.286,3.286,0,0,1-1.341,1.179,4.2,4.2,0,0,1-1.88.419,3.9,3.9,0,0,1-3.038-1.224,4.845,4.845,0,0,1-1.112-3.383V11.4a4.79,4.79,0,0,1,1.1-3.312,3.854,3.854,0,0,1,3.03-1.237,3.778,3.778,0,0,1,2.7.959,3.4,3.4,0,0,1,1.033,2.552h-2.25a1.648,1.648,0,0,0-.432-1.139,1.6,1.6,0,0,0-2.362.173,3.541,3.541,0,0,0-.427,1.983v.249a3.586,3.586,0,0,0,.423,2A1.463,1.463,0,0,0,129.865,14.232Zm8.865,0a1.573,1.573,0,0,0,1.079-.365,1.28,1.28,0,0,0,.432-.971h2.25a3.077,3.077,0,0,1-.5,1.673,3.286,3.286,0,0,1-1.341,1.179,4.2,4.2,0,0,1-1.88.419,3.9,3.9,0,0,1-3.038-1.224,4.845,4.845,0,0,1-1.112-3.383V11.4a4.79,4.79,0,0,1,1.1-3.312,3.854,3.854,0,0,1,3.03-1.237,3.778,3.778,0,0,1,2.7.959,3.4,3.4,0,0,1,1.033,2.552h-2.25a1.648,1.648,0,0,0-.432-1.139,1.6,1.6,0,0,0-2.362.173,3.541,3.541,0,0,0-.427,1.983v.249a3.586,3.586,0,0,0,.423,2A1.463,1.463,0,0,0,138.73,14.232ZM146.392,16h-2.407V7.019h2.407ZM143.844,4.694a1.181,1.181,0,0,1,.361-.888,1.556,1.556,0,0,1,1.963,0,1.175,1.175,0,0,1,.365.888,1.178,1.178,0,0,1-.369.9,1.539,1.539,0,0,1-1.951,0A1.178,1.178,0,0,1,143.844,4.694Zm4.15,6.732a5.327,5.327,0,0,1,.515-2.382,3.767,3.767,0,0,1,1.482-1.619,4.323,4.323,0,0,1,2.245-.573A4.09,4.09,0,0,1,155.2,7.965a4.464,4.464,0,0,1,1.282,3.021l.017.614a4.694,4.694,0,0,1-1.154,3.316,4.472,4.472,0,0,1-6.2,0,4.777,4.777,0,0,1-1.158-3.387Zm2.4.17a3.357,3.357,0,0,0,.481,1.958,1.73,1.73,0,0,0,2.739.008,3.674,3.674,0,0,0,.49-2.141,3.324,3.324,0,0,0-.49-1.945,1.592,1.592,0,0,0-1.378-.69,1.566,1.566,0,0,0-1.361.686A3.735,3.735,0,0,0,150.393,11.6Zm2.316-8.347h2.615l-2.3,2.573h-1.951Zm7.479,3.769.075,1.038a3.136,3.136,0,0,1,2.582-1.2,2.606,2.606,0,0,1,2.125.838,3.912,3.912,0,0,1,.714,2.507V16h-2.4V10.243a1.562,1.562,0,0,0-.332-1.111,1.484,1.484,0,0,0-1.1-.345,1.65,1.65,0,0,0-1.519.865V16h-2.4V7.019Z" transform="translate(670 603.191)" fill="#12263f"/>
            <g id="Grupo_874679-3" data-name="Grupo 874679" transform="translate(950 2427.724) rotate(180)">
              <circle id="Elipse_4713-3" data-name="Elipse 4713" cx="2.5" cy="2.5" r="2.5" transform="translate(285 1799.532)" fill="#f3ab1d"/>
              <circle id="Elipse_4717-3" data-name="Elipse 4717" cx="2.5" cy="2.5" r="2.5" transform="translate(285 1811.532)" fill="#f3ab1d"/>
              <circle id="Elipse_4719-3" data-name="Elipse 4719" cx="2.5" cy="2.5" r="2.5" transform="translate(285 1823.532)" fill="#f3ab1d"/>
              <circle id="Elipse_4715-3" data-name="Elipse 4715" cx="2.5" cy="2.5" r="2.5" transform="translate(297 1799.532)" fill="#f3ab1d"/>
              <circle id="Elipse_4720-3" data-name="Elipse 4720" cx="2.5" cy="2.5" r="2.5" transform="translate(308 1799.532)" fill="#f3ab1d"/>
              <circle id="Elipse_4716-3" data-name="Elipse 4716" cx="2.5" cy="2.5" r="2.5" transform="translate(297 1811.532)" fill="#f3ab1d"/>
              <circle id="Elipse_4721-3" data-name="Elipse 4721" cx="2.5" cy="2.5" r="2.5" transform="translate(308 1811.532)" fill="#f3ab1d"/>
              <circle id="Elipse_4718-3" data-name="Elipse 4718" cx="2.5" cy="2.5" r="2.5" transform="translate(297 1823.532)" fill="#f3ab1d"/>
              <circle id="Elipse_4722-3" data-name="Elipse 4722" cx="2.5" cy="2.5" r="2.5" transform="translate(308 1823.532)" fill="#f3ab1d"/>
            </g>
          </g>
          <path id="Trazado_596868" data-name="Trazado 596868" d="M0,0H280V48H0Z" transform="translate(624 866.225)" fill="#c9e1ee"/>
          <path id="Trazado_599873" data-name="Trazado 599873" d="M113.056,11.974a4.277,4.277,0,0,1-1.44,3.071,5.058,5.058,0,0,1-3.424,1.121,4.548,4.548,0,0,1-3.656-1.565,6.416,6.416,0,0,1-1.332-4.3V9.567a7.245,7.245,0,0,1,.614-3.071,4.6,4.6,0,0,1,1.756-2.038,5.486,5.486,0,0,1,6.022.411,4.6,4.6,0,0,1,1.478,3.146h-2.49a2.524,2.524,0,0,0-.652-1.7,2.413,2.413,0,0,0-1.706-.527,2.116,2.116,0,0,0-1.864.892,5,5,0,0,0-.635,2.768v.913a5.352,5.352,0,0,0,.594,2.864,2.077,2.077,0,0,0,1.872.9,2.458,2.458,0,0,0,1.722-.527,2.381,2.381,0,0,0,.652-1.631Zm1.1-.548a5.326,5.326,0,0,1,.515-2.382,3.768,3.768,0,0,1,1.482-1.619,4.323,4.323,0,0,1,2.245-.573,4.09,4.09,0,0,1,2.968,1.112,4.464,4.464,0,0,1,1.282,3.021l.017.614a4.694,4.694,0,0,1-1.154,3.316,4.472,4.472,0,0,1-6.2,0,4.777,4.777,0,0,1-1.158-3.387Zm2.4.17a3.357,3.357,0,0,0,.481,1.958,1.73,1.73,0,0,0,2.739.008,3.674,3.674,0,0,0,.49-2.141,3.324,3.324,0,0,0-.49-1.945,1.592,1.592,0,0,0-1.378-.69,1.566,1.566,0,0,0-1.361.686A3.736,3.736,0,0,0,116.559,11.6Zm9.795-4.578.075,1.038a3.136,3.136,0,0,1,2.582-1.2,2.606,2.606,0,0,1,2.125.838,3.912,3.912,0,0,1,.714,2.507V16h-2.4V10.243a1.562,1.562,0,0,0-.332-1.111,1.484,1.484,0,0,0-1.1-.345,1.65,1.65,0,0,0-1.519.865V16h-2.4V7.019Zm10.185-2.208V7.019h1.536v1.76h-1.536v4.482a1.07,1.07,0,0,0,.191.714.959.959,0,0,0,.73.216,3.826,3.826,0,0,0,.706-.058V15.95a4.939,4.939,0,0,1-1.453.216,2.29,2.29,0,0,1-2.573-2.548V8.778h-1.312V7.019h1.312V4.811Zm7.919,4.458a6.517,6.517,0,0,0-.863-.066,1.757,1.757,0,0,0-1.785.921V16h-2.4V7.019h2.266l.066,1.071a2.223,2.223,0,0,1,2-1.237,2.514,2.514,0,0,1,.747.108Zm.481,2.158a5.327,5.327,0,0,1,.515-2.382,3.767,3.767,0,0,1,1.482-1.619,4.323,4.323,0,0,1,2.245-.573,4.09,4.09,0,0,1,2.968,1.112,4.464,4.464,0,0,1,1.282,3.021l.017.614a4.694,4.694,0,0,1-1.154,3.316,4.472,4.472,0,0,1-6.2,0,4.777,4.777,0,0,1-1.158-3.387Zm2.4.17a3.357,3.357,0,0,0,.481,1.958,1.73,1.73,0,0,0,2.739.008,3.674,3.674,0,0,0,.49-2.141,3.324,3.324,0,0,0-.49-1.945,1.592,1.592,0,0,0-1.378-.69,1.566,1.566,0,0,0-1.361.686A3.735,3.735,0,0,0,147.338,11.6ZM157.457,16H155.05V3.25h2.407Z" transform="translate(643 879.225)" fill="#12263f"/>
          <g id="Grupo_874683" data-name="Grupo 874683" transform="translate(923 2703.757) rotate(180)">
            <circle id="Elipse_4713-4" data-name="Elipse 4713" cx="2.5" cy="2.5" r="2.5" transform="translate(285 1799.532)" fill="#f3ab1d"/>
            <circle id="Elipse_4717-4" data-name="Elipse 4717" cx="2.5" cy="2.5" r="2.5" transform="translate(285 1811.532)" fill="#f3ab1d"/>
            <circle id="Elipse_4719-4" data-name="Elipse 4719" cx="2.5" cy="2.5" r="2.5" transform="translate(285 1823.532)" fill="#f3ab1d"/>
            <circle id="Elipse_4715-4" data-name="Elipse 4715" cx="2.5" cy="2.5" r="2.5" transform="translate(297 1799.532)" fill="#f3ab1d"/>
            <circle id="Elipse_4720-4" data-name="Elipse 4720" cx="2.5" cy="2.5" r="2.5" transform="translate(308 1799.532)" fill="#f3ab1d"/>
            <circle id="Elipse_4716-4" data-name="Elipse 4716" cx="2.5" cy="2.5" r="2.5" transform="translate(297 1811.532)" fill="#f3ab1d"/>
            <circle id="Elipse_4721-4" data-name="Elipse 4721" cx="2.5" cy="2.5" r="2.5" transform="translate(308 1811.532)" fill="#f3ab1d"/>
            <circle id="Elipse_4718-4" data-name="Elipse 4718" cx="2.5" cy="2.5" r="2.5" transform="translate(297 1823.532)" fill="#f3ab1d"/>
            <circle id="Elipse_4722-4" data-name="Elipse 4722" cx="2.5" cy="2.5" r="2.5" transform="translate(308 1823.532)" fill="#f3ab1d"/>
          </g>
          <path id="Trazado_599866" data-name="Trazado 599866" d="M168.512-4.851,333,50.759,168.512,117.235,0,50.759Z" transform="translate(606 950.956)" fill="#f2f5d1"/>
          <path id="Trazado_599874" data-name="Trazado 599874" d="M4.789,14.7h5.728V16H3.187V3.914h1.6Zm6.9-3.271a5.3,5.3,0,0,1,.519-2.374A3.87,3.87,0,0,1,13.65,7.425a3.932,3.932,0,0,1,2.113-.573,3.788,3.788,0,0,1,2.968,1.27A4.886,4.886,0,0,1,19.863,11.5v.108a5.351,5.351,0,0,1-.5,2.353,3.813,3.813,0,0,1-1.436,1.623,3.977,3.977,0,0,1-2.146.581A3.778,3.778,0,0,1,12.82,14.9a4.861,4.861,0,0,1-1.133-3.362Zm1.544.183a3.842,3.842,0,0,0,.693,2.4A2.349,2.349,0,0,0,17.638,14a4.2,4.2,0,0,0,.689-2.569,3.836,3.836,0,0,0-.7-2.395,2.23,2.23,0,0,0-1.864-.917,2.205,2.205,0,0,0-1.834.9A4.17,4.17,0,0,0,13.231,11.609Zm8.193-.174a5.279,5.279,0,0,1,.971-3.341,3.348,3.348,0,0,1,5.138-.079l.075-1h1.4v8.766a3.654,3.654,0,0,1-1.033,2.748,3.814,3.814,0,0,1-2.777,1,4.619,4.619,0,0,1-1.9-.415,3.272,3.272,0,0,1-1.419-1.137l.8-.921a3,3,0,0,0,2.416,1.22,2.353,2.353,0,0,0,1.747-.631,2.411,2.411,0,0,0,.627-1.776V15.1a3.156,3.156,0,0,1-2.515,1.063A3.068,3.068,0,0,1,22.4,14.9,5.55,5.55,0,0,1,21.424,11.435Zm1.544.174A4.027,4.027,0,0,0,23.59,14a2.023,2.023,0,0,0,1.743.867,2.249,2.249,0,0,0,2.133-1.32v-4.1A2.276,2.276,0,0,0,25.35,8.156a2.041,2.041,0,0,0-1.751.872A4.386,4.386,0,0,0,22.968,11.609ZM35.668,8.4a4.6,4.6,0,0,0-.755-.058,2.024,2.024,0,0,0-2.05,1.287V16H31.326V7.019h1.494l.025,1.038a2.391,2.391,0,0,1,2.142-1.2,1.569,1.569,0,0,1,.681.116Zm.838,3.03a5.3,5.3,0,0,1,.519-2.374,3.87,3.87,0,0,1,1.444-1.627,3.932,3.932,0,0,1,2.113-.573,3.788,3.788,0,0,1,2.968,1.27A4.886,4.886,0,0,1,44.682,11.5v.108a5.351,5.351,0,0,1-.5,2.353,3.813,3.813,0,0,1-1.436,1.623,3.977,3.977,0,0,1-2.146.581,3.778,3.778,0,0,1-2.959-1.27,4.861,4.861,0,0,1-1.133-3.362Zm1.544.183a3.842,3.842,0,0,0,.693,2.4A2.349,2.349,0,0,0,42.458,14a4.2,4.2,0,0,0,.689-2.569,3.836,3.836,0,0,0-.7-2.395,2.23,2.23,0,0,0-1.864-.917,2.205,2.205,0,0,0-1.834.9A4.17,4.17,0,0,0,38.05,11.609Zm12.393-.174a5.261,5.261,0,0,1,.979-3.324,3.333,3.333,0,0,1,5.063-.178V3.25h1.536V16H56.611l-.075-.963a3.127,3.127,0,0,1-2.565,1.129,3.068,3.068,0,0,1-2.544-1.278,5.321,5.321,0,0,1-.984-3.337Zm1.536.174A3.984,3.984,0,0,0,52.61,14a2.039,2.039,0,0,0,1.743.863,2.24,2.24,0,0,0,2.133-1.312V9.426a2.257,2.257,0,0,0-2.117-1.27,2.049,2.049,0,0,0-1.76.872A4.386,4.386,0,0,0,51.979,11.609Zm12.152,4.557a3.924,3.924,0,0,1-2.972-1.2,4.452,4.452,0,0,1-1.146-3.208v-.282a5.39,5.39,0,0,1,.51-2.386,3.982,3.982,0,0,1,1.428-1.644,3.59,3.59,0,0,1,1.988-.594,3.364,3.364,0,0,1,2.723,1.154,5,5,0,0,1,.971,3.3v.639H61.55a3.193,3.193,0,0,0,.776,2.146,2.44,2.44,0,0,0,1.888.818,2.675,2.675,0,0,0,1.378-.332,3.462,3.462,0,0,0,.988-.88l.938.73A3.772,3.772,0,0,1,64.131,16.166ZM63.94,8.114a2.048,2.048,0,0,0-1.561.677,3.288,3.288,0,0,0-.78,1.9h4.5v-.116a2.925,2.925,0,0,0-.631-1.814A1.928,1.928,0,0,0,63.94,8.114ZM75.287,16H73.752V3.25h1.536Zm2.05-4.574a5.3,5.3,0,0,1,.519-2.374A3.87,3.87,0,0,1,79.3,7.425a3.932,3.932,0,0,1,2.113-.573,3.788,3.788,0,0,1,2.968,1.27A4.886,4.886,0,0,1,85.514,11.5v.108a5.351,5.351,0,0,1-.5,2.353,3.813,3.813,0,0,1-1.436,1.623,3.977,3.977,0,0,1-2.146.581,3.778,3.778,0,0,1-2.959-1.27,4.861,4.861,0,0,1-1.133-3.362Zm1.544.183a3.842,3.842,0,0,0,.693,2.4A2.349,2.349,0,0,0,83.289,14a4.2,4.2,0,0,0,.689-2.569,3.836,3.836,0,0,0-.7-2.395,2.23,2.23,0,0,0-1.864-.917,2.205,2.205,0,0,0-1.834.9A4.17,4.17,0,0,0,78.882,11.609Zm13.788,2.009a1.131,1.131,0,0,0-.469-.967,4.514,4.514,0,0,0-1.635-.594,7.731,7.731,0,0,1-1.851-.6,2.633,2.633,0,0,1-1.013-.83,1.986,1.986,0,0,1-.328-1.146,2.33,2.33,0,0,1,.934-1.868,3.647,3.647,0,0,1,2.386-.764,3.753,3.753,0,0,1,2.478.789,2.5,2.5,0,0,1,.95,2.017H92.578a1.386,1.386,0,0,0-.535-1.087,2.006,2.006,0,0,0-1.349-.457,2.1,2.1,0,0,0-1.312.365,1.15,1.15,0,0,0-.473.955.932.932,0,0,0,.44.838,5.413,5.413,0,0,0,1.59.54,8.283,8.283,0,0,1,1.864.614,2.718,2.718,0,0,1,1.058.859A2.112,2.112,0,0,1,94.2,13.51a2.3,2.3,0,0,1-.963,1.93,4.039,4.039,0,0,1-2.5.726,4.523,4.523,0,0,1-1.909-.382,3.105,3.105,0,0,1-1.3-1.067,2.571,2.571,0,0,1-.469-1.482H88.6a1.59,1.59,0,0,0,.618,1.224,2.4,2.4,0,0,0,1.523.452,2.476,2.476,0,0,0,1.4-.353A1.084,1.084,0,0,0,92.669,13.618ZM104.755,8.4A4.6,4.6,0,0,0,104,8.338a2.024,2.024,0,0,0-2.05,1.287V16h-1.536V7.019h1.494l.025,1.038a2.391,2.391,0,0,1,2.142-1.2,1.569,1.569,0,0,1,.681.116Zm4.98,7.77a3.924,3.924,0,0,1-2.972-1.2,4.452,4.452,0,0,1-1.146-3.208v-.282a5.39,5.39,0,0,1,.51-2.386,3.982,3.982,0,0,1,1.428-1.644,3.59,3.59,0,0,1,1.988-.594,3.364,3.364,0,0,1,2.723,1.154,5,5,0,0,1,.971,3.3v.639h-6.084a3.193,3.193,0,0,0,.776,2.146,2.44,2.44,0,0,0,1.888.818,2.675,2.675,0,0,0,1.378-.332,3.462,3.462,0,0,0,.988-.88l.938.73A3.772,3.772,0,0,1,109.736,16.166Zm-.191-8.052a2.048,2.048,0,0,0-1.561.677,3.288,3.288,0,0,0-.78,1.9h4.5v-.116a2.925,2.925,0,0,0-.631-1.814A1.928,1.928,0,0,0,109.545,8.114Zm10.7,5.5a1.131,1.131,0,0,0-.469-.967,4.514,4.514,0,0,0-1.635-.594,7.731,7.731,0,0,1-1.851-.6,2.633,2.633,0,0,1-1.013-.83,1.986,1.986,0,0,1-.328-1.146,2.33,2.33,0,0,1,.934-1.868,3.647,3.647,0,0,1,2.386-.764,3.753,3.753,0,0,1,2.478.789,2.5,2.5,0,0,1,.95,2.017h-1.544a1.386,1.386,0,0,0-.535-1.087,2.006,2.006,0,0,0-1.349-.457,2.1,2.1,0,0,0-1.312.365,1.15,1.15,0,0,0-.473.955.932.932,0,0,0,.44.838,5.413,5.413,0,0,0,1.59.54,8.283,8.283,0,0,1,1.864.614,2.718,2.718,0,0,1,1.058.859,2.112,2.112,0,0,1,.344,1.224,2.3,2.3,0,0,1-.963,1.93,4.039,4.039,0,0,1-2.5.726,4.523,4.523,0,0,1-1.909-.382,3.105,3.105,0,0,1-1.3-1.067,2.571,2.571,0,0,1-.469-1.482h1.536a1.59,1.59,0,0,0,.618,1.224,2.4,2.4,0,0,0,1.523.452,2.476,2.476,0,0,0,1.4-.353A1.084,1.084,0,0,0,120.244,13.618Zm9.081,1.494a3.262,3.262,0,0,1-2.631,1.054,2.792,2.792,0,0,1-2.187-.834,3.611,3.611,0,0,1-.76-2.469V7.019h1.536v5.8q0,2.042,1.66,2.042a2.3,2.3,0,0,0,2.341-1.312V7.019h1.536V16h-1.461Zm5.5.888h-1.536V3.25h1.536Zm4.541-11.156V7.019h1.677V8.206h-1.677v5.577a1.247,1.247,0,0,0,.224.81.943.943,0,0,0,.764.27,3.718,3.718,0,0,0,.73-.1V16a4.478,4.478,0,0,1-1.179.165,1.912,1.912,0,0,1-1.552-.623,2.675,2.675,0,0,1-.523-1.768V8.206H136.19V7.019h1.635V4.844ZM148.376,16a3.226,3.226,0,0,1-.216-.946,3.426,3.426,0,0,1-2.557,1.112,3.17,3.17,0,0,1-2.179-.751,2.43,2.43,0,0,1-.851-1.905,2.539,2.539,0,0,1,1.067-2.179,5.029,5.029,0,0,1,3-.776h1.494V9.849a1.725,1.725,0,0,0-.481-1.282,1.935,1.935,0,0,0-1.419-.477,2.239,2.239,0,0,0-1.378.415,1.223,1.223,0,0,0-.556,1h-1.544a2.119,2.119,0,0,1,.477-1.3,3.258,3.258,0,0,1,1.295-.992,4.356,4.356,0,0,1,1.8-.365,3.551,3.551,0,0,1,2.432.776,2.8,2.8,0,0,1,.913,2.137V13.9a5.054,5.054,0,0,0,.315,1.967V16Zm-2.548-1.17a2.7,2.7,0,0,0,1.37-.374,2.259,2.259,0,0,0,.938-.971V11.642h-1.2q-2.822,0-2.822,1.652a1.4,1.4,0,0,0,.481,1.129A1.85,1.85,0,0,0,145.827,14.83Zm5.877-3.4a5.261,5.261,0,0,1,.979-3.324,3.333,3.333,0,0,1,5.063-.178V3.25h1.536V16h-1.411l-.075-.963a3.127,3.127,0,0,1-2.565,1.129,3.068,3.068,0,0,1-2.544-1.278,5.321,5.321,0,0,1-.984-3.337Zm1.536.174A3.984,3.984,0,0,0,153.871,14a2.039,2.039,0,0,0,1.743.863,2.24,2.24,0,0,0,2.133-1.312V9.426a2.257,2.257,0,0,0-2.117-1.27,2.049,2.049,0,0,0-1.76.872A4.386,4.386,0,0,0,153.24,11.609Zm8.019-.183a5.3,5.3,0,0,1,.519-2.374,3.87,3.87,0,0,1,1.444-1.627,3.932,3.932,0,0,1,2.113-.573,3.788,3.788,0,0,1,2.968,1.27,4.886,4.886,0,0,1,1.133,3.378v.108a5.351,5.351,0,0,1-.5,2.353,3.813,3.813,0,0,1-1.436,1.623,3.977,3.977,0,0,1-2.146.581,3.778,3.778,0,0,1-2.959-1.27,4.861,4.861,0,0,1-1.133-3.362Zm1.544.183a3.842,3.842,0,0,0,.693,2.4A2.349,2.349,0,0,0,167.21,14a4.2,4.2,0,0,0,.689-2.569,3.836,3.836,0,0,0-.7-2.395,2.23,2.23,0,0,0-1.864-.917,2.205,2.205,0,0,0-1.834.9A4.17,4.17,0,0,0,162.8,11.609Zm13.788,2.009a1.13,1.13,0,0,0-.469-.967,4.514,4.514,0,0,0-1.635-.594,7.731,7.731,0,0,1-1.851-.6,2.633,2.633,0,0,1-1.013-.83,1.986,1.986,0,0,1-.328-1.146,2.33,2.33,0,0,1,.934-1.868,3.647,3.647,0,0,1,2.386-.764,3.753,3.753,0,0,1,2.478.789,2.5,2.5,0,0,1,.95,2.017H176.5a1.386,1.386,0,0,0-.535-1.087,2.006,2.006,0,0,0-1.349-.457,2.1,2.1,0,0,0-1.312.365,1.15,1.15,0,0,0-.473.955.932.932,0,0,0,.44.838,5.413,5.413,0,0,0,1.59.54,8.283,8.283,0,0,1,1.864.614,2.718,2.718,0,0,1,1.058.859,2.112,2.112,0,0,1,.344,1.224,2.3,2.3,0,0,1-.963,1.93,4.039,4.039,0,0,1-2.5.726,4.523,4.523,0,0,1-1.909-.382,3.105,3.105,0,0,1-1.3-1.067,2.571,2.571,0,0,1-.469-1.482h1.536a1.59,1.59,0,0,0,.618,1.224,2.4,2.4,0,0,0,1.523.452,2.476,2.476,0,0,0,1.4-.353A1.084,1.084,0,0,0,176.59,13.618Zm10.683.133,2.092-6.732h1.644L187.4,17.386q-.838,2.241-2.665,2.241l-.291-.025-.573-.108V18.25l.415.033a2.043,2.043,0,0,0,1.216-.315,2.283,2.283,0,0,0,.718-1.154l.34-.913-3.2-8.882h1.677ZM21.581,35.426a5.3,5.3,0,0,1,.519-2.374,3.87,3.87,0,0,1,1.444-1.627,3.932,3.932,0,0,1,2.113-.573,3.788,3.788,0,0,1,2.968,1.27A4.886,4.886,0,0,1,29.758,35.5v.108a5.351,5.351,0,0,1-.5,2.353,3.813,3.813,0,0,1-1.436,1.623,3.977,3.977,0,0,1-2.146.581,3.778,3.778,0,0,1-2.959-1.27,4.861,4.861,0,0,1-1.133-3.362Zm1.544.183a3.842,3.842,0,0,0,.693,2.4A2.349,2.349,0,0,0,27.533,38a4.2,4.2,0,0,0,.689-2.569,3.836,3.836,0,0,0-.7-2.395,2.23,2.23,0,0,0-1.864-.917,2.205,2.205,0,0,0-1.834.9A4.17,4.17,0,0,0,23.125,35.609Zm16.162,0a5.34,5.34,0,0,1-.946,3.308,3.024,3.024,0,0,1-2.54,1.249,3.131,3.131,0,0,1-2.631-1.2L33.094,40H31.683V27.25h1.536v4.756a3.113,3.113,0,0,1,2.565-1.154,3.042,3.042,0,0,1,2.569,1.237,5.5,5.5,0,0,1,.934,3.387Zm-1.536-.174a4.15,4.15,0,0,0-.606-2.424,2.006,2.006,0,0,0-1.743-.855,2.255,2.255,0,0,0-2.183,1.411v3.885a2.318,2.318,0,0,0,2.2,1.411,2,2,0,0,0,1.718-.855A4.413,4.413,0,0,0,37.751,35.435Zm5.055-4.416V41.038q0,2.59-2.349,2.59a2.865,2.865,0,0,1-.938-.149V42.258a2.969,2.969,0,0,0,.7.066A1.043,1.043,0,0,0,41,42.046a1.376,1.376,0,0,0,.27-.968V31.019Zm-1.693-2.382a.921.921,0,0,1,.228-.627.839.839,0,0,1,.668-.261.87.87,0,0,1,.681.257.907.907,0,0,1,.232.631.877.877,0,0,1-.232.623.886.886,0,0,1-.681.249.859.859,0,0,1-.672-.249A.9.9,0,0,1,41.113,28.636Zm7.894,11.53a3.924,3.924,0,0,1-2.972-1.2,4.452,4.452,0,0,1-1.146-3.208v-.282a5.39,5.39,0,0,1,.51-2.386,3.982,3.982,0,0,1,1.428-1.644,3.59,3.59,0,0,1,1.988-.594,3.364,3.364,0,0,1,2.723,1.154,5,5,0,0,1,.971,3.3v.639H46.426a3.193,3.193,0,0,0,.776,2.146,2.44,2.44,0,0,0,1.888.818,2.675,2.675,0,0,0,1.378-.332,3.462,3.462,0,0,0,.988-.88l.938.73A3.772,3.772,0,0,1,49.007,40.166Zm-.191-8.052a2.048,2.048,0,0,0-1.561.677,3.288,3.288,0,0,0-.78,1.9h4.5v-.116a2.925,2.925,0,0,0-.631-1.814A1.928,1.928,0,0,0,48.816,32.114Zm7.554-3.271v2.175h1.677v1.187H56.37v5.577a1.247,1.247,0,0,0,.224.81.943.943,0,0,0,.764.27,3.718,3.718,0,0,0,.73-.1V40a4.478,4.478,0,0,1-1.179.165,1.912,1.912,0,0,1-1.552-.623,2.675,2.675,0,0,1-.523-1.768v-5.57H53.2V31.019h1.635V28.844ZM61.508,40H59.972V31.019h1.536Zm-1.66-11.364a.917.917,0,0,1,.228-.631.857.857,0,0,1,.677-.257.87.87,0,0,1,.681.257.907.907,0,0,1,.232.631.877.877,0,0,1-.232.623.886.886,0,0,1-.681.249.872.872,0,0,1-.677-.249A.886.886,0,0,1,59.848,28.636Zm7.081,9.28,2.225-6.9h1.569L67.5,40h-1.17l-3.254-8.981h1.569Zm4.74-2.49a5.3,5.3,0,0,1,.519-2.374,3.87,3.87,0,0,1,1.444-1.627,3.932,3.932,0,0,1,2.113-.573,3.788,3.788,0,0,1,2.968,1.27A4.886,4.886,0,0,1,79.844,35.5v.108a5.351,5.351,0,0,1-.5,2.353,3.813,3.813,0,0,1-1.436,1.623,3.977,3.977,0,0,1-2.146.581A3.778,3.778,0,0,1,72.8,38.9a4.861,4.861,0,0,1-1.133-3.362Zm1.544.183a3.842,3.842,0,0,0,.693,2.4A2.349,2.349,0,0,0,77.62,38a4.2,4.2,0,0,0,.689-2.569,3.836,3.836,0,0,0-.7-2.395,2.23,2.23,0,0,0-1.864-.917,2.205,2.205,0,0,0-1.834.9A4.17,4.17,0,0,0,73.212,35.609ZM87,37.618a1.131,1.131,0,0,0-.469-.967,4.514,4.514,0,0,0-1.635-.594,7.731,7.731,0,0,1-1.851-.6,2.633,2.633,0,0,1-1.013-.83,1.986,1.986,0,0,1-.328-1.146,2.33,2.33,0,0,1,.934-1.868,3.647,3.647,0,0,1,2.386-.764,3.753,3.753,0,0,1,2.478.789,2.5,2.5,0,0,1,.95,2.017H86.908a1.386,1.386,0,0,0-.535-1.087,2.006,2.006,0,0,0-1.349-.457,2.1,2.1,0,0,0-1.312.365,1.15,1.15,0,0,0-.473.955.932.932,0,0,0,.44.838,5.413,5.413,0,0,0,1.59.54,8.283,8.283,0,0,1,1.864.614,2.718,2.718,0,0,1,1.058.859,2.112,2.112,0,0,1,.344,1.224,2.3,2.3,0,0,1-.963,1.93,4.039,4.039,0,0,1-2.5.726,4.523,4.523,0,0,1-1.909-.382,3.105,3.105,0,0,1-1.3-1.067,2.571,2.571,0,0,1-.469-1.482h1.536a1.59,1.59,0,0,0,.618,1.224,2.4,2.4,0,0,0,1.523.452,2.476,2.476,0,0,0,1.4-.353A1.084,1.084,0,0,0,87,37.618Zm15.332-2.009a5.378,5.378,0,0,1-.938,3.3,3.006,3.006,0,0,1-2.54,1.253,3.294,3.294,0,0,1-2.573-1.038v4.325H94.744V31.019h1.4l.075,1a3.163,3.163,0,0,1,2.606-1.162,3.063,3.063,0,0,1,2.561,1.22,5.437,5.437,0,0,1,.942,3.4Zm-1.536-.174a3.968,3.968,0,0,0-.647-2.4,2.086,2.086,0,0,0-1.776-.88,2.257,2.257,0,0,0-2.092,1.237v4.292a2.262,2.262,0,0,0,2.108,1.229,2.076,2.076,0,0,0,1.756-.876A4.332,4.332,0,0,0,100.8,35.435ZM105.95,40h-1.536V27.25h1.536Zm8,0a3.226,3.226,0,0,1-.216-.946,3.426,3.426,0,0,1-2.557,1.112A3.17,3.17,0,0,1,109,39.415a2.43,2.43,0,0,1-.851-1.905,2.539,2.539,0,0,1,1.067-2.179,5.029,5.029,0,0,1,3-.776h1.494v-.706a1.725,1.725,0,0,0-.481-1.282,1.935,1.935,0,0,0-1.419-.477,2.239,2.239,0,0,0-1.378.415,1.223,1.223,0,0,0-.556,1h-1.544a2.119,2.119,0,0,1,.477-1.3,3.258,3.258,0,0,1,1.295-.992,4.356,4.356,0,0,1,1.8-.365,3.551,3.551,0,0,1,2.432.776,2.8,2.8,0,0,1,.913,2.137V37.9a5.054,5.054,0,0,0,.315,1.967V40ZM111.4,38.83a2.7,2.7,0,0,0,1.37-.374,2.259,2.259,0,0,0,.938-.971V35.642h-1.2q-2.822,0-2.822,1.652a1.4,1.4,0,0,0,.481,1.129A1.85,1.85,0,0,0,111.4,38.83Zm7.7-7.811.05,1.129a3.273,3.273,0,0,1,2.689-1.295q2.847,0,2.872,3.212V40h-1.536V34.057a2.068,2.068,0,0,0-.444-1.436,1.78,1.78,0,0,0-1.357-.465,2.216,2.216,0,0,0-1.312.4,2.706,2.706,0,0,0-.88,1.046V40h-1.536V31.019Zm11.654,9.147a3.924,3.924,0,0,1-2.972-1.2,4.452,4.452,0,0,1-1.146-3.208v-.282a5.39,5.39,0,0,1,.51-2.386,3.982,3.982,0,0,1,1.428-1.644,3.59,3.59,0,0,1,1.988-.594,3.364,3.364,0,0,1,2.723,1.154,5,5,0,0,1,.971,3.3v.639H128.18a3.193,3.193,0,0,0,.776,2.146,2.44,2.44,0,0,0,1.888.818,2.675,2.675,0,0,0,1.378-.332,3.462,3.462,0,0,0,.988-.88l.938.73A3.772,3.772,0,0,1,130.761,40.166Zm-.191-8.052a2.048,2.048,0,0,0-1.561.677,3.288,3.288,0,0,0-.78,1.9h4.5v-.116a2.925,2.925,0,0,0-.631-1.814A1.928,1.928,0,0,0,130.571,32.114ZM141.586,40a3.226,3.226,0,0,1-.216-.946,3.426,3.426,0,0,1-2.557,1.112,3.17,3.17,0,0,1-2.179-.751,2.43,2.43,0,0,1-.851-1.905,2.539,2.539,0,0,1,1.067-2.179,5.029,5.029,0,0,1,3-.776h1.494v-.706a1.725,1.725,0,0,0-.481-1.282,1.935,1.935,0,0,0-1.419-.477,2.239,2.239,0,0,0-1.378.415,1.223,1.223,0,0,0-.556,1h-1.544a2.119,2.119,0,0,1,.477-1.3,3.258,3.258,0,0,1,1.295-.992,4.356,4.356,0,0,1,1.8-.365,3.551,3.551,0,0,1,2.432.776,2.8,2.8,0,0,1,.913,2.137V37.9a5.054,5.054,0,0,0,.315,1.967V40Zm-2.548-1.17a2.7,2.7,0,0,0,1.37-.374,2.259,2.259,0,0,0,.938-.971V35.642h-1.2q-2.822,0-2.822,1.652a1.4,1.4,0,0,0,.481,1.129A1.85,1.85,0,0,0,139.037,38.83Zm5.877-3.4a5.261,5.261,0,0,1,.979-3.324,3.333,3.333,0,0,1,5.063-.178V27.25h1.536V40h-1.411l-.075-.963a3.127,3.127,0,0,1-2.565,1.129,3.068,3.068,0,0,1-2.544-1.278,5.321,5.321,0,0,1-.984-3.337Zm1.536.174A3.984,3.984,0,0,0,147.081,38a2.039,2.039,0,0,0,1.743.863,2.24,2.24,0,0,0,2.133-1.312V33.426a2.257,2.257,0,0,0-2.117-1.27,2.049,2.049,0,0,0-1.76.872A4.386,4.386,0,0,0,146.45,35.609Zm8.019-.183a5.3,5.3,0,0,1,.519-2.374,3.87,3.87,0,0,1,1.444-1.627,3.932,3.932,0,0,1,2.113-.573,3.788,3.788,0,0,1,2.968,1.27,4.886,4.886,0,0,1,1.133,3.378v.108a5.351,5.351,0,0,1-.5,2.353,3.813,3.813,0,0,1-1.436,1.623,3.977,3.977,0,0,1-2.146.581A3.778,3.778,0,0,1,155.6,38.9a4.861,4.861,0,0,1-1.133-3.362Zm1.544.183a3.842,3.842,0,0,0,.693,2.4A2.349,2.349,0,0,0,160.42,38a4.2,4.2,0,0,0,.689-2.569,3.836,3.836,0,0,0-.7-2.395,2.23,2.23,0,0,0-1.864-.917,2.205,2.205,0,0,0-1.834.9A4.17,4.17,0,0,0,156.012,35.609ZM169.8,37.618a1.13,1.13,0,0,0-.469-.967,4.514,4.514,0,0,0-1.635-.594,7.731,7.731,0,0,1-1.851-.6,2.633,2.633,0,0,1-1.013-.83,1.986,1.986,0,0,1-.328-1.146,2.33,2.33,0,0,1,.934-1.868,3.647,3.647,0,0,1,2.386-.764,3.753,3.753,0,0,1,2.478.789,2.5,2.5,0,0,1,.95,2.017h-1.544a1.386,1.386,0,0,0-.535-1.087,2.006,2.006,0,0,0-1.349-.457,2.1,2.1,0,0,0-1.312.365,1.15,1.15,0,0,0-.473.955.932.932,0,0,0,.44.838,5.413,5.413,0,0,0,1.59.54,8.283,8.283,0,0,1,1.864.614,2.718,2.718,0,0,1,1.058.859,2.112,2.112,0,0,1,.344,1.224,2.3,2.3,0,0,1-.963,1.93,4.039,4.039,0,0,1-2.5.726,4.523,4.523,0,0,1-1.909-.382,3.105,3.105,0,0,1-1.3-1.067,2.571,2.571,0,0,1-.469-1.482h1.536a1.59,1.59,0,0,0,.618,1.224,2.4,2.4,0,0,0,1.523.452,2.476,2.476,0,0,0,1.4-.353A1.084,1.084,0,0,0,169.8,37.618Z" transform="translate(677.5 985.148)" fill="#12263f"/>
          <g id="Grupo_874684" data-name="Grupo 874684" transform="translate(-409 -6480.676)">
            <path id="Trazado_596828" data-name="Trazado 596828" d="M-7577-4618.648V-4641.1" transform="translate(8760 11785)" fill="none" stroke="#f3ab1d" stroke-width="2"/>
          </g>
          <g id="Grupo_874691" data-name="Grupo 874691" transform="translate(-224 -6508.9)">
            <path id="Trazado_596828-2" data-name="Trazado 596828" d="M-7539.322-4176.657v-464.437" transform="translate(8722.322 11784.994)" fill="none" stroke="#f3ab1d" stroke-linecap="round" stroke-width="2"/>
          </g>
          <g id="Grupo_874689" data-name="Grupo 874689" transform="translate(959 635) rotate(90)">
            <path id="Trazado_596828-3" data-name="Trazado 596828" d="M0,36.755V0" transform="translate(0 0)" fill="none" stroke="#f3ab1d" stroke-width="2"/>
          </g>
          <g id="Grupo_874690" data-name="Grupo 874690" transform="translate(959 719.225) rotate(90)">
            <path id="Trazado_596828-4" data-name="Trazado 596828" d="M0,38.648V0" transform="translate(0 0)" fill="none" stroke="#f3ab1d" stroke-width="2"/>
          </g>
          <g id="Grupo_874685" data-name="Grupo 874685" transform="translate(-409 -6396.676)">
            <path id="Trazado_596828-5" data-name="Trazado 596828" d="M-7577-4618.648V-4641.1" transform="translate(8760 11785)" fill="none" stroke="#f3ab1d" stroke-width="2"/>
          </g>
          <g id="Grupo_874686" data-name="Grupo 874686" transform="translate(-409 -6311.795)">
            <path id="Trazado_596828-6" data-name="Trazado 596828" d="M-7577-4618.648V-4641.1" transform="translate(8760 11785)" fill="none" stroke="#f3ab1d" stroke-width="2"/>
          </g>
          <g id="Grupo_874687" data-name="Grupo 874687" transform="translate(-409 -6225.199)">
            <path id="Trazado_596828-7" data-name="Trazado 596828" d="M-7577-4623.244V-4641.1" transform="translate(8760 11785)" fill="none" stroke="#f3ab1d" stroke-width="2"/>
          </g>
          <g id="Grupo_874688" data-name="Grupo 874688" transform="translate(-409 -6070.49)">
            <path id="Trazado_596828-8" data-name="Trazado 596828" d="M-7577-4622.953V-4641.1" transform="translate(8760 11785)" fill="none" stroke="#f3ab1d" stroke-width="2"/>
          </g>
          <path id="Pol칤gono_5" data-name="Pol칤gono 5" d="M6,0l6,9H0Z" transform="translate(780 690.344) rotate(180)" fill="#f3ab1d"/>
          <path id="Pol칤gono_11" data-name="Pol칤gono 11" d="M6,0l6,9H0Z" transform="translate(914.44 641) rotate(-90)" fill="#f3ab1d"/>
          <path id="Pol칤gono_12" data-name="Pol칤gono 12" d="M6,0l6,9H0Z" transform="translate(914.44 725.225) rotate(-90)" fill="#f3ab1d"/>
          <path id="Pol칤gono_6" data-name="Pol칤gono 6" d="M6,0l6,9H0Z" transform="translate(780 774.344) rotate(180)" fill="#f3ab1d"/>
          <path id="Pol칤gono_7" data-name="Pol칤gono 7" d="M6,0l6,9H0Z" transform="translate(780 859.225) rotate(180)" fill="#f3ab1d"/>
          <path id="Pol칤gono_9" data-name="Pol칤gono 9" d="M6,0l6,9H0Z" transform="translate(748 842.557) rotate(90)" fill="#f3ab1d"/>
          <path id="Pol칤gono_8" data-name="Pol칤gono 8" d="M6,0l6,9H0Z" transform="translate(780 941.225) rotate(180)" fill="#f3ab1d"/>
          <path id="Pol칤gono_10" data-name="Pol칤gono 10" d="M6,0l6,9H0Z" transform="translate(780 1096.225) rotate(180)" fill="#f3ab1d"/>
          <path id="Trazado_596870" data-name="Trazado 596870" d="M-3283-10656.788h185" transform="translate(4057 11756.225)" fill="none" stroke="#f3ab1d" stroke-width="2"/>
        </g>
      </g>
      <rect id="Rect치ngulo_291500" data-name="Rect치ngulo 291500" width="55" height="326" transform="translate(600 559)" fill="#3185af" opacity="0.73"/>
      <path id="Trazado_596871" data-name="Trazado 596871" d="M-3450.41-10753.362H-3528v-154.672h220" transform="translate(4108 11714.088)" fill="none" stroke="#f3ab1d" stroke-width="2"/>
      <ellipse id="Elipse_5489" data-name="Elipse 5489" cx="76.5" cy="15.5" rx="76.5" ry="15.5" transform="translate(1057 1040)" fill="#dbeaf2"/>
      <ellipse id="Elipse_5490" data-name="Elipse 5490" cx="76.5" cy="15.5" rx="76.5" ry="15.5" transform="translate(390 1040)" fill="#dbeaf2"/>
      <g id="Grupo_874740" data-name="Grupo 874740" transform="translate(2011.409 460.526)">
        <g id="Grupo_874738" data-name="Grupo 874738" transform="translate(-1573.321 205.728)">
          <g id="Grupo_874737" data-name="Grupo 874737" transform="translate(0 0)">
            <path id="Trazado_597889" data-name="Trazado 597889" d="M-1326.388,237.533c1.4,3.479-.267,8.058,1.21,11.154,1.5,3.136,5.495,3.3,6.977,6.2,5.034,9.853-.667,11.907-.035,19.39.712,8.36,9.382,12.652,2.019,21.395-6.062,7.2-18.335,6.05-21.092-3.476.2-.274.206-.27.015.013-14.268,9.393-25.381-15.744-8.263-20.756-6.269-4.439-9.031-13.927-1.912-19.417a10.745,10.745,0,0,1,.364-18.231c1.081-.693-3.39-9.625,5.565-10.4C-1335.088,222.848-1328.353,232.663-1326.388,237.533Z" transform="translate(1389.762 -218.355)" fill="#2e1106"/>
            <g id="Grupo_874720" data-name="Grupo 874720" transform="translate(50.002 28.656)">
              <g id="Grupo_874719" data-name="Grupo 874719" transform="translate(97.186)">
                <path id="Trazado_597890" data-name="Trazado 597890" d="M-943.638,318.218l-3.487,1.606s7.071-1.491,8.088-4.528c0,0,.358-.579-.806-.912,0,0-5.644,2.556-8.432,3.062,0,0,6.148-1.391,9.865-3.716,0,0,1.036-1.764-1.068-1.86,1.008-1.1-.463-1.393-.463-1.393a24.4,24.4,0,0,0-4.451.406,99.254,99.254,0,0,1-10.221.894s2.451-4.159.151-5.4l-4.132,5.707-3.449,5.752,1.019,3.752,7.067,1.054s6.127-.469,9.071-1.8C-944.886,320.839-936.728,316.44-943.638,318.218Z" transform="translate(962.042 -306.377)" fill="#e28262"/>
              </g>
              <path id="Trazado_597891" data-name="Trazado 597891" d="M-1301.19,408.7s4.453-8.79,13.888-7.275c0,0,46.119-15.55,55.391-7.335.191,2.363,3.12,14.687-53.184,33.236C-1285.1,427.325-1310.928,429.059-1301.19,408.7Z" transform="translate(1303.384 -367.403)" fill="#97a129"/>
              <path id="Trazado_597892" data-name="Trazado 597892" d="M-1110.911,358.531c5.185-8.1,13.493-11.488,40.171-17.115,0,0,4.578,4.581,4.122,7.624,0,0-32.056,21.724-36.76,21.331C-1103.378,370.372-1116.134,366.691-1110.911,358.531Z" transform="translate(1166.609 -331.44)" fill="#97a129"/>
            </g>
            <g id="Grupo_874723" data-name="Grupo 874723" transform="translate(27.059 266.675)">
              <g id="Grupo_874722" data-name="Grupo 874722" transform="translate(0 94.06)">
                <g id="Grupo_874721" data-name="Grupo 874721" transform="translate(1.324)">
                  <path id="Trazado_597893" data-name="Trazado 597893" d="M-1368.047,1500.081a29.431,29.431,0,0,0,12.533,2.392l-5.459-5.6s-4.719-10.5-5.211-13.895c-.316-2.173,1.165-8.544,1.165-8.544l-8.166-1.711-1.244,4.5-4.79,6.041s-1.15,3.151,4.515,5.392A120.962,120.962,0,0,0-1368.047,1500.081Z" transform="translate(1379.314 -1472.727)" fill="#e28262"/>
                </g>
                <path id="Trazado_597894" data-name="Trazado 597894" d="M-1364.3,1508.173c-2.44.423-6.323-.348-7.755-2.878-5.776-10.184-5.7-16.775-5.7-16.775-5.238,3.33-5.182,7.318-5.182,7.318l-.117,1.608-.912,12.4.841.177,4.938-9.107,3.126,10.544c12.879,5.393,17.052,2.64,17.052,2.64Z" transform="translate(1383.965 -1484.024)" fill="#161615"/>
              </g>
              <path id="Trazado_597895" data-name="Trazado 597895" d="M-1319.433,1148.306s-32.976,91.33-34.942,95.08c0,0-9.732-1.542-9.032-3.8,1.681-5.456,4.848-46.015,6.676-54.789,2.941-14.089,5.554-22.813,17.839-39.479C-1338.893,1145.319-1320.223,1136.987-1319.433,1148.306Z" transform="translate(1369.286 -1142.364)" fill="#0f1114"/>
            </g>
            <path id="Trazado_597896" data-name="Trazado 597896" d="M-1345.119,778.77s5.065,17.832,7.327,29.119c4,19.966,5.616,71.4,5.616,71.4s-16.756,9.073-19.087,4.829c-11.258-20.488-12.579-14.87-28.21-84.256Z" transform="translate(1407.811 -615.616)" fill="#f39672"/>
            <path id="Trazado_597897" data-name="Trazado 597897" d="M-1377.765,795.407s6.346,52.569,26.641,82.358c0,0,6.129,16.209,20.992,3.807,0,0,1.85-85.6-12.587-112.081C-1342.719,769.491-1383.969,767.453-1377.765,795.407Z" transform="translate(1407.044 -608.955)" fill="#0f1114"/>
            <path id="Trazado_597898" data-name="Trazado 597898" d="M-1412.112,646.884c1.594-.289,8.17,3.105,8.17,3.105s8.214,26.4,8.566,30.412-27.25,24.789-58.085,12.958c0,0,14.276-37.172,15.149-46.327S-1412.112,646.884-1412.112,646.884Z" transform="translate(1460.734 -518.448)" fill="#e38865"/>
            <path id="Trazado_597899" data-name="Trazado 597899" d="M-1408.96,660.309s7.873,23.806,8.566,30.412c2.458,23.385-29.185,33.193-60.023,21.361,0,0-2-32.152,17.086-54.731C-1443.331,657.352-1438.258,661.977-1408.96,660.309Z" transform="translate(1465.752 -528.768)" fill="#121418"/>
            <path id="Trazado_597900" data-name="Trazado 597900" d="M-1437.964,879.765l-22.3-12.242s3.618,70.557,6.444,90.375c0,0,12.476,3.473,16.34.908,11.569-27.134,18.269-86.047,18.269-86.047Z" transform="translate(1465.601 -679.1)" fill="#121418"/>
            <path id="Trazado_597901" data-name="Trazado 597901" d="M-1451.473,787.974s-10.7,3.089-8.488,22.919c2.163,19.366,37.78,21.206,41.106,1.348C-1415.275,790.874-1432.611,779.551-1451.473,787.974Z" transform="translate(1465.599 -620.199)" fill="#121418"/>
            <path id="Trazado_597902" data-name="Trazado 597902" d="M-1376.8,351.346h21.464c-.975-3.127-3-11.216.132-16.721l-21.687-14.239S-1373.034,344.281-1376.8,351.346Z" transform="translate(1405.964 -287.742)" fill="#f39672"/>
            <path id="Trazado_597903" data-name="Trazado 597903" d="M-1356.875,341.961a13.977,13.977,0,0,1,1.672-7.335l-21.687-14.239a153.411,153.411,0,0,1,1.733,18.619C-1367.329,341.5-1364.107,342.46-1356.875,341.961Z" transform="translate(1405.964 -287.742)" fill="#db765e"/>
            <path id="Trazado_597904" data-name="Trazado 597904" d="M-1438.253,429.885c-9.663,4.723-6.46,13.538-6.46,13.538l13.058,47.521s12.2,4.986,33.607,2.489c2.974-4.256,9.083-22.082,11.132-35.694,1.685-11.211,6.921-22.257,1.219-28.508-2.187-2.4-18.846-4.788-18.931-5.179h-20.049Z" transform="translate(1454.84 -361.891)" fill="#f39672"/>
            <g id="Grupo_874733" data-name="Grupo 874733" transform="translate(17.815)">
              <path id="Trazado_597905" data-name="Trazado 597905" d="M-1365.448,258.066l1.3-3.165,3.259-9.344a9.554,9.554,0,0,0,.3-5.034,15.268,15.268,0,0,1-.04-7.893c2.205-8.543-1.4-13.241-1.4-13.241-4.635-8.194-16.526-8.76-16.526-8.76-14.739.017-16.659,14.189-16.659,14.189-2.846,9.351,4.307,17.6,4.32,17.61.906,1.042.927,2.66,1.325,3.915a11.842,11.842,0,0,0,1.974,3.706,26.482,26.482,0,0,0,7.227,6.434,29.124,29.124,0,0,0,11.2,3.247C-1367.666,259.791-1366.194,259.883-1365.448,258.066Z" transform="translate(1401.731 -209.234)" fill="#f39672"/>
              <path id="Trazado_597906" data-name="Trazado 597906" d="M-1404.224,244.494c.265-6.716.412-6.3.412-6.3.258-1.953,3.888,2.47,3.94-.088.229-11.713,4.761-17.066,6.471-17.88a20.6,20.6,0,0,1,13.17-1.811c5.865,1.351,5.236,9.213,5.236,9.213,6.5-28.57-26.112-20.992-26.112-20.992-15.864,3.315-15,18.152-15,18.152-2.724,15.743,12.411,25.66,12.411,25.66Z" transform="translate(1416.434 -205.728)" fill="#2e1106"/>
              <g id="Grupo_874732" data-name="Grupo 874732" transform="translate(7.299 27.65)">
                <g id="Grupo_874728" data-name="Grupo 874728">
                  <g id="Grupo_874727" data-name="Grupo 874727">
                    <g id="Grupo_874726" data-name="Grupo 874726">
                      <g id="Grupo_874725" data-name="Grupo 874725">
                        <g id="Grupo_874724" data-name="Grupo 874724">
                          <path id="Trazado_597907" data-name="Trazado 597907" d="M-1384.744,311.727a3.159,3.159,0,0,1-2.072.517,4.635,4.635,0,0,1-3.979-4.968c.079-2.59,1.982-4.572,4.256-4.424a4,4,0,0,1,2.754,1.43c1.036,1.2.962,3.311.631,4.75A4.367,4.367,0,0,1-1384.744,311.727Z" transform="translate(1390.798 -302.844)" fill="#f3906b"/>
                        </g>
                      </g>
                    </g>
                  </g>
                </g>
                <g id="Grupo_874731" data-name="Grupo 874731" transform="translate(2.186 1.472)">
                  <g id="Grupo_874729" data-name="Grupo 874729">
                    <path id="Trazado_597908" data-name="Trazado 597908" d="M-1380.251,309.006c-.063-1.367-2.883-.208-2.506.581a4.2,4.2,0,0,0,1.048,1.129,1.989,1.989,0,0,1,.769,1.529c.008.078.012.316-.071.367-.368.228-1.47-1.159-1.71-1.452a2.275,2.275,0,0,1-.219-2.19,1.358,1.358,0,0,1,1.558-.942c.618.067,1.247.141,1.17.907,0,.016-.036.14-.039.071Z" transform="translate(1383.12 -308.013)" fill="#e47a5d"/>
                  </g>
                  <g id="Grupo_874730" data-name="Grupo 874730" transform="translate(0.205 2.243)">
                    <path id="Trazado_597909" data-name="Trazado 597909" d="M-1380.69,316.008c.3-.272.566-.019.845.2a1.312,1.312,0,0,1,.454.827,3.2,3.2,0,0,1-.459,2.253,1.718,1.718,0,0,1-1.515.709c-.829-.065-1.039-.809-1.034-1.512,0-.187.01-.632.2-.738.208-.117.332.2.456.337a1.182,1.182,0,0,0,.691.3,1.5,1.5,0,0,0,1.258-.487.649.649,0,0,0,.138-.207c-.023.46-.052.557-.088.3a1.215,1.215,0,0,0-.141-.334c-.175-.325-.487-.559-.687-.873-.1-.144-.262-.647-.112-.786Z" transform="translate(1382.399 -315.889)" fill="#e47a5d"/>
                  </g>
                </g>
              </g>
              <path id="Trazado_597910" data-name="Trazado 597910" d="M-1376.244,332.042a1.4,1.4,0,0,1-1.466,1.322,1.393,1.393,0,0,1-1.322-1.463,1.4,1.4,0,0,1,1.464-1.325A1.4,1.4,0,0,1-1376.244,332.042Z" transform="translate(1389.682 -295.03)" fill="#fff"/>
            </g>
            <path id="Trazado_597911" data-name="Trazado 597911" d="M-1281.969,428.145l9.263,1.662s6.75,1.479,6.974,7.256c0,0,.377,10.947-5.581,30.741C-1271.312,467.8-1281.167,437.432-1281.969,428.145Z" transform="translate(1338.068 -364.819)" fill="#97a129"/>
            <path id="Trazado_597912" data-name="Trazado 597912" d="M-1420.347,425.5l-4.174-.643-5.075,18.564-13.734-13.885a15.285,15.285,0,0,0-1.723-1.742l-3.7-3.739-4.554,1.091c-19.573,1.908-24.655,11.046-24.655,11.046l9.039,9.859,6,16.717,6.966,27.814s17.617,7.845,34.492,2.855c4.978-1.473,9.083-22.082,11.131-35.694C-1412.248,441.153-1420.347,425.5-1420.347,425.5Z" transform="translate(1478.258 -361.891)" fill="#97a129"/>
            <path id="Trazado_597913" data-name="Trazado 597913" d="M-1269.607,464.406s8.47,11.731,9.945,17.775c.972,3.971-5.953,12.917-11.545,14.495C-1274.261,497.538-1274.334,465.2-1269.607,464.406Z" transform="translate(1331.905 -390.756)" fill="#97a129"/>
            <g id="Grupo_874734" data-name="Grupo 874734" transform="translate(24.951 57.39)">
              <path id="Trazado_597914" data-name="Trazado 597914" d="M-1328.877,443l-.241,10.869-4-3.914Z" transform="translate(1349.705 -432.832)" fill="#858f1b"/>
              <path id="Trazado_597915" data-name="Trazado 597915" d="M-1370.54,417.218s-12.139-4.971-15.151-9.921l-5.677,5.861,14.73,14.285,6.1-9.982" transform="translate(1391.368 -407.297)" fill="#bbc54b"/>
            </g>
            <path id="Trazado_597916" data-name="Trazado 597916" d="M-1297.708,422.983s-1.177-4.551-6.946-8.4l.754,15.69S-1300.7,422.25-1297.708,422.983Z" transform="translate(1354.294 -355.121)" fill="#bbc54b"/>
            <path id="Trazado_597917" data-name="Trazado 597917" d="M-1291.343,451.247l-.525-7.294c-1.762-.431-3.337,2.035-4.621,4.056Z" transform="translate(1348.454 -376.091)" fill="#858f1b"/>
            <g id="Grupo_874736" data-name="Grupo 874736" transform="translate(9.033 366.758)">
              <g id="Grupo_874735" data-name="Grupo 874735" transform="translate(0.183)">
                <path id="Trazado_597918" data-name="Trazado 597918" d="M-1432.242,1519.6a29.443,29.443,0,0,0,12.755-.229l-6.49-4.355s-6.776-9.313-7.952-12.531c-.754-2.062-.612-8.6-.612-8.6h-8.341l-.3,4.656-3.447,6.894s-.48,3.322,5.523,4.352A121.172,121.172,0,0,0-1432.242,1519.6Z" transform="translate(1446.634 -1493.883)" fill="#f39672"/>
              </g>
              <path id="Trazado_597919" data-name="Trazado 597919" d="M-1426.438,1526.71c-2.3.912-6.258.954-8.181-1.227-7.741-8.784-9.02-15.249-9.02-15.249-4.444,4.334-3.569,8.227-3.569,8.227l.216,1.6,1.654,12.323h.856l2.965-9.927,5.224,9.679c13.71,2.635,17.231-.916,17.231-.916Z" transform="translate(1447.278 -1505.579)" fill="#161615"/>
            </g>
            <path id="Trazado_597920" data-name="Trazado 597920" d="M-1459.716,1159.086l18.225,5.394s-6.267,87.422-7.077,91.578c0,0-9.761,1.317-9.74-1.047.044-5.708-6.658-41.381-7.3-50.319C-1466.716,1189.328-1470.891,1179.023-1459.716,1159.086Z" transform="translate(1470.627 -887.65)" fill="#121418"/>
            <path id="Trazado_597921" data-name="Trazado 597921" d="M-1415.085,603.516s-1.92,35.593,12.413,54.287c0,0-39.349,17.211-76.332.508,3.444-10.843,2.664-10.829,14.23-35.8,0,0,5.8-12.651,4.205-18.991Z" transform="translate(1479.004 -490.26)" fill="#97a129"/>
          </g>
        </g>
        <g id="Grupo_874739" data-name="Grupo 874739" transform="translate(-1610.864 273.038)">
          <path id="Trazado_597922" data-name="Trazado 597922" d="M-1481.187,452.679c.431,6.939-3.194,13.753-10.136,14.18s-24.985-2.742-20.658-8.184c8.5-10.7,13.648-16.072,20.588-16.5S-1481.614,445.739-1481.187,452.679Z" transform="translate(1540.608 -442.141)" fill="#97a129"/>
          <path id="Trazado_597923" data-name="Trazado 597923" d="M-1556.734,480.322l-4.416-11.907-12.924-1.737s-31.306,27.59-35.5,36.375c-4.468,9.36,3.818,6.607,7.256,5.887C-1602.317,508.939-1560.889,487.28-1556.734,480.322Z" transform="translate(1610.864 -459.692)" fill="#97a129"/>
          <path id="Trazado_597924" data-name="Trazado 597924" d="M-1608.835,593.11s15.6,21.942,30.123,34.442c0,0,6.26-.623,4.277-4.038-3.372-5.8-17.254-32.951-20.664-38.771C-1597.018,581.472-1608.835,593.11-1608.835,593.11Z" transform="translate(1609.413 -543.727)" fill="#97a129"/>
          <path id="Trazado_597925" data-name="Trazado 597925" d="M-1498.757,713.024l3.418-.074,8.068-3.648c-.038,4.527.425,9.136.425,9.136a87.859,87.859,0,0,1,6.564,7.763c1.606,1.48-.182,2.3-.182,2.3-3.01-.894-8.692-5.319-8.692-5.319a100.131,100.131,0,0,0,8.258,7.129c1.1,1.453-.733,1.891-.733,1.891-4.328-.109-9.332-6.533-9.332-6.533,1.814,2.484,6.972,6.785,6.972,6.785.224,1.3-.506,1.22-.506,1.22-3.444.44-8.242-5.757-8.242-5.757l1.855,2.275c2.82,2.885.223,3.187.223,3.187l-1.71-1.281a23.525,23.525,0,0,1-7.106-9.074l-3.557-5.965Z" transform="translate(1533.735 -633.238)" fill="#f39672"/>
        </g>
      </g>
      <g id="Grupo_156013" data-name="Grupo 156013" transform="translate(1035.613 659)">
        <g id="Grupo_156013-2" data-name="Grupo 156013" clip-path="url(#clip-path)">
          <path id="Trazado_597818" data-name="Trazado 597818" d="M103.88,515.747s-4.286,6.411-10.3,7.8-11.934,3.588-11.978,7.381,17.38,6.056,24.259,2.232c10.267-5.707,11.31-3.987,12.449-6.841s-1.368-10.481-1.294-11.388c.092-1.121-13.139.82-13.139.82" transform="translate(-21.901 -138.097)" fill="#353a3d"/>
          <path id="Trazado_597819" data-name="Trazado 597819" d="M112.712,511.17a27.358,27.358,0,0,0-.665,3.163c.116.065,13.545,1.666,13.139-.82-.329-2.016-.8-4.205-.8-4.205Z" transform="translate(-30.067 -136.683)" fill="#81807e"/>
          <path id="Trazado_597820" data-name="Trazado 597820" d="M167.133,515.012s-3.055,6.132-8.278,8.221c-5.582,2.234-10.06,4.8-9.958,8.5s13.648,7.442,23.5.348c6.225-4.481,8.2-4.5,9.2-7.326s-1.734-10.156-1.7-11.042c.048-1.1-12.765,1.3-12.765,1.3" transform="translate(-39.959 -137.787)" fill="#353a3d"/>
          <path id="Trazado_597821" data-name="Trazado 597821" d="M173.614,510.368a30.129,30.129,0,0,0,.153,3.185c.116.059,13.1,1.128,12.765-1.3a19.945,19.945,0,0,0-1.258-4.265Z" transform="translate(-46.593 -136.328)" fill="#81807e"/>
          <path id="Trazado_597822" data-name="Trazado 597822" d="M101.878,249.95s-12.057,53.19-14.813,69.392c-2.345,13.789-4.213,28.149-3.09,38.1,1.392,12.325,18.837,76.2,18.109,79.813s18.257.579,18.257.579-13.27-71.25-10.619-84.511c1.963-9.821,19.164-75.066,21.8-71.719s5.9,61.575,7.856,71.242,7.946,86.042,7.946,86.042,13.4,1.977,16.978-1.053c0,0,1.631-65.215.386-83.336-.475-6.907,8.093-82.809-2.891-113.365-5.8-16.148-59.919,8.813-59.919,8.813" transform="translate(-22.447 -63.254)" fill="#2d3133"/>
          <path id="Trazado_597823" data-name="Trazado 597823" d="M180.389,96.833,154.712,86.225l-21.97,1.853h-.008l-4.54,2.075-26.589,13.775L108.54,154.6c2.35,9.076-1.813,26.708-2.283,36.1-.378,7.443,2.071,10.794,2.142,10.89v0l57.216-8.046.011,0s2.535-17.984,2.73-27.7Z" transform="translate(-27.268 -23.14)" fill="#decbc4"/>
          <path id="Trazado_597824" data-name="Trazado 597824" d="M110.267,240.946s-1.318,1.577-1.7,8.252c0,0,54.19-6.321,59.919-8.813,0,0,.223-7.357-.992-7.485-1.335-.14-57.228,8.046-57.228,8.046" transform="translate(-29.136 -62.503)" fill="#495055"/>
          <path id="Trazado_597825" data-name="Trazado 597825" d="M165.935,76.592c-.168,8.5-16.635,13.157-16.635,13.157s-6.888-8.635-5.243-9.462c.648-.325.909-1.613.99-3.059a29.766,29.766,0,0,0-.094-3.857c-.048-.6-.1-.988-.1-.988s2.352-2.482,5.345-5.44c5.23-5.172,12.422-11.8,12.433-9.161a2.369,2.369,0,0,1-.061.5c-1.264,5.931,3.36,18.311,3.36,18.311" transform="translate(-38.592 -15.346)" fill="#eea886"/>
          <path id="Trazado_597826" data-name="Trazado 597826" d="M172.187,234.569s1.182,7.458,1.285,9.4l2.507-.5s-.691-7.892-1.1-9.215Z" transform="translate(-46.21 -62.867)" fill="#353a3d"/>
          <path id="Trazado_597827" data-name="Trazado 597827" d="M116.713,242.578s-.95,6.78-.972,9.341l2.652-.345s.544-8.466.846-9.35Z" transform="translate(-31.061 -65.005)" fill="#353a3d"/>
          <path id="Trazado_597828" data-name="Trazado 597828" d="M159.415,66.68h0c-.033.05-.731,1.1-1.922,2.594-2.529,3.18-7.28,8.4-12.623,10.5a29.754,29.754,0,0,0-.094-3.857,8.561,8.561,0,0,1-1.635-.2,50.768,50.768,0,0,1,3.581-5.242l3.3-.988Z" transform="translate(-38.414 -17.895)" fill="#a77860"/>
          <path id="Trazado_597829" data-name="Trazado 597829" d="M158.5,47.674c-1.424,3.1-2.778,5.345-3.161,6.235h0a11.014,11.014,0,0,1-1.922,2.594c-2.715,2.924-7.758,6.779-12.717,6.644a8.621,8.621,0,0,1-1.635-.2,7.776,7.776,0,0,1-5.667-3.915c-10.274-20.113-2.835-36.56-2.835-36.56s28.089-7.944,32.484.512c3.084,5.931-1.2,17.4-4.544,24.685" transform="translate(-34.341 -5.124)" fill="#eea886"/>
          <path id="Trazado_597830" data-name="Trazado 597830" d="M130.26,17.353s-2.609-.144-3.254-5.091c-.638-4.887.65-6.241.65-6.241s11.6-4.854,15.761-5.486,14.4-1.237,16.8,1.507c0,0,5.832-1.354,7.42,8.327,2.521,15.358-8.588,30.271-8.588,30.271s.094-10.034-2.119-11.363-4.122,1.833-4.122,1.833l-4.527.81s6.875-14.844-1.372-15.394-11.934,1.687-16.655.826" transform="translate(-34.037 0)" fill="#2e1106"/>
          <path id="Trazado_597831" data-name="Trazado 597831" d="M162.461,35.5c.43-4.42,8.425-6.108,7.89-1.475s-4.472,9.085-6.291,8.928-1.926-4.084-1.6-7.453" transform="translate(-43.561 -8.391)" fill="#eea886"/>
          <path id="Trazado_597832" data-name="Trazado 597832" d="M215.411,163.77c0-.092,0-.191-.005-.293-.154-6.463-3.334-32.345-8.693-49.511-2.6-8.335-3.2-14.158-4.208-14.878-1.744-1.251-17.264-5.841-23.848-8.425-2.969-1.168-2.864-1.12-4.05-1.572a106.841,106.841,0,0,0-7.305,9.325c-6.8,9.672-15.656,25.33-14.3,39.79.435,4.641.974,11.305,1.876,18.784.077.639.158,1.283.24,1.935.219,1.721.46,3.477.721,5.258q.235,1.6.5,3.224c1.8,11.211,7.446,18.854,12.456,28,.045.078.086.154.13.232.022.044.048.088.072.132.105.195.213.391.318.587.172.319.344.643.514.967.1.185.2.372.291.56.958,1.84,1.9,3.723,2.808,5.613.589,1.22,1.167,2.444,1.732,3.664.058.128.117.253.174.38,0,0,.924,2.144,2.106,4.9.435,1.011.905,2.1,1.378,3.2.323.754.649,1.513.963,2.248.277.644.544,1.27.8,1.863.568,1.326,1.065,2.488,1.411,3.3.255.606.43,1.017.487,1.157,1.723,4.314,2.967,7.644,3.543,9.2.229.626.351.964.351.964L203.2,224.8c3.291-1.648,1.572-10.52.334-13.984a79.279,79.279,0,0,0-4.106-9.163c-.669-1.305-1.367-2.628-2.082-3.96,5.425-9.478,10.92-19.253,14.4-25.9,2.252-4.3,3.663-7.285,3.663-8.032m-27.562-27.127c0-.02.01-.039.015-.061s.013-.054.021-.079c.01-.044.023-.086.035-.127,0-.021.011-.042.017-.062a.038.038,0,0,1,0-.018.052.052,0,0,0,0-.019s8.433,13.18,7.8,24.63c-.1,1.781-1.87,6.285-4.45,12.059,0,.005,0,.007-.005.011-.936,2.1-1.983,4.374-3.095,6.746-.042-.1-.081-.2-.124-.3a29.912,29.912,0,0,1-2.662-10.854s.713-25.123,2.441-31.929" transform="translate(-41.024 -23.909)" fill="#3c4145"/>
          <path id="Trazado_597833" data-name="Trazado 597833" d="M19.789,145.386l39.251,8.548L77.752,105c.413-.328,5.778-3.215,9.33-4.9,3.7-1.762,8.376-3.934,12.528-5.85,1.983-.917,3.851-1.773,5.427-2.5l.129.1s-2.317,7.715-5.314,26.972a.008.008,0,0,1,0,.007q-.151.97-.3,1.978c-.01.078-.024.157-.036.233-.067.446-.137.9-.2,1.354-.008.054-.018.108-.025.161q-.07.46-.136.929-.17,1.14-.339,2.325c-1.337,9.374-3.213,25.325-5.016,41.43v.006c-1.424,12.693-4.671,25.718-5.7,35.439,0,.007,0,.012,0,.019a67.571,67.571,0,0,1-1.35,7.307c-.072.323-.15.653-.228.984-2.9,12.269-8.54,29.635-8.54,29.635l-1.643-1.517-4.863-4.488a3.942,3.942,0,0,1-1.092-4.068c2.7-8.7,11.863-39.493,13.543-61.144a.08.08,0,0,0,0-.019c.526-6.8-1.463-13.209-2.616-19.284-.021.053-.04.105-.058.159-.965,2.684-2.036,5.6-3.114,8.443v0c-2.893,7.629-5.853,14.7-7.085,15.15-2.743,1.009-54.429-13.122-54.785-15.151Z" transform="translate(-4.363 -24.623)" fill="#3c4145"/>
          <path id="Trazado_597834" data-name="Trazado 597834" d="M170.037,110.2l-8.011,4.518,3.423,3.491-9.113,49.205c-1.859-11.533-2.7-22.487-3.333-29.2-2.1-22.355,20.217-47.574,21.605-49.117,1.072.406,2.229.855,3.426,1.329Z" transform="translate(-41.024 -23.909)" fill="#51565c"/>
          <path id="Trazado_597835" data-name="Trazado 597835" d="M133.045,91.593s-2.993,9.776-6.481,34.176c-1.338,9.373-3.215,25.327-5.018,41.429l-1.864-46.082,3.815-4.134-3.392-4.24,7.26-18.536c1.983-.917,3.851-1.774,5.427-2.5Z" transform="translate(-32.119 -24.581)" fill="#51565c"/>
          <path id="Trazado_597836" data-name="Trazado 597836" d="M174.595,87.745l-6.642-4.034s-.186,3.643-16.635,13.158l4.671,13.156Z" transform="translate(-40.609 -22.466)" fill="#f5e2d9"/>
          <path id="Trazado_597837" data-name="Trazado 597837" d="M143.354,86.22s.258,3.931,4.375,11.322l-9.116,11.885-.666-19.276Z" transform="translate(-37.021 -23.139)" fill="#f5e2d9"/>
          <path id="Trazado_597838" data-name="Trazado 597838" d="M149.316,101.7s1.765,7.067,1.13,9.046c0,0-3.886,1.414-6.678-.354a31.073,31.073,0,0,1,5.548-8.692" transform="translate(-38.583 -27.292)" fill="#5ad1a5"/>
          <path id="Trazado_597839" data-name="Trazado 597839" d="M138.7,233.467c-.989-4.987-.047-19.929-.006-20.562l.846.054c-.01.154-.975,15.465-.007,20.343Z" transform="translate(-37.102 -57.137)" fill="#ad9f99"/>
          <path id="Trazado_597840" data-name="Trazado 597840" d="M144.43,237.866s-7.973.952-10.61,1.61l.346,8.937,10.44-1.114Z" transform="translate(-35.913 -63.836)" fill="#69737a"/>
          <path id="Trazado_597841" data-name="Trazado 597841" d="M143.148,112.344s-8.893,22.458-7.443,47.595c1.5,26.064,3.972,35.513,3.972,35.513l5.483,6.877,2.418-8.452s-7.359-33.228-2.608-65.561c.861-5.859,2.139-16.961,2.139-16.961Z" transform="translate(-36.376 -29.884)" fill="#5ad1a5"/>
          <path id="Trazado_597842" data-name="Trazado 597842" d="M179.342,257.658s-1.909,3.816-3.818,4.452-4.69,3.736-4.69,3.736l13.436,7.077s3.578-7,3.739-11.449-8.667-3.816-8.667-3.816" transform="translate(-45.847 -69.139)" fill="#eea886"/>
          <path id="Trazado_597843" data-name="Trazado 597843" d="M180.392,258.158l-.891,1.789s8.534,6.241,10.834,6.639l.79-2.385Z" transform="translate(-48.173 -69.282)" fill="#decbc4"/>
          <path id="Trazado_597844" data-name="Trazado 597844" d="M179.5,242.482s6.4,5.288,11.784,7.727l18.125-32.6-9.391-18.156S179.926,239.3,179.5,242.482" transform="translate(-48.173 -53.527)" fill="#3c4145"/>
          <path id="Trazado_597845" data-name="Trazado 597845" d="M104.148,150.452c-.3,6.031-.253,11.387-.253,11.387v0c0,.029-.008.192-.021.461-.012-.1-.026-.2-.037-.3-.965,2.684-2.036,5.6-3.114,8.444a91.061,91.061,0,0,1-.241-9.2c.432-16.911,5.751-25.778,5.751-25.778-1.219,2.948-1.8,9.271-2.084,14.987" transform="translate(-26.959 -36.355)" fill="#2d3133"/>
          <path id="Trazado_597846" data-name="Trazado 597846" d="M211.186,241.5l-14.511,17.525,12.43-21.486c.715,1.333,1.413,2.655,2.081,3.961" transform="translate(-52.782 -63.747)" fill="#2d3133"/>
          <path id="Trazado_597847" data-name="Trazado 597847" d="M53.029,187.231h-33.5a4.972,4.972,0,0,1-4.834-3.8L.142,123.347A4.975,4.975,0,0,1,4.977,117.2h33.5a4.975,4.975,0,0,1,4.836,3.8l14.551,60.081a4.974,4.974,0,0,1-4.834,6.145" transform="translate(0 -31.453)" fill="#d9c9c2"/>
          <path id="Trazado_597848" data-name="Trazado 597848" d="M14.343,182.252c1.637-1.517,4.8-2.4,7.509-4.207s.445-3.674.445-3.674c2.783-.956,2.485-2.226,2.127-3.091-.481-1.169-3.52-.837-3.52-.837a29.925,29.925,0,0,0,3.845-1.1c1.122-.5.741-2.449-.983-3.067s-8.75,1.114-8.75,1.114,1.145-.561,4.61-2.3,4.225-3.321,2.182-4.08c-1.419-.528-4.211.579-9.568,4.178-4.033,2.71-3.706,3.063-3.706,3.063s3.849,15.813,5.807,14" transform="translate(-2.289 -43.177)" fill="#eea886"/>
        </g>
      </g>
    </g>
    <g id="Grupo_876017" data-name="Grupo 876017" transform="translate(1194.445 974.999)">
      <g id="Grupo_151688" data-name="Grupo 151688" transform="translate(0 7.064)">
        <path id="Trazado_212295" data-name="Trazado 212295" d="M-11425.02-11468v14.128" transform="translate(11432.083 11467.998)" fill="none" stroke="#26779f" stroke-width="4"/>
        <path id="Trazado_212296" data-name="Trazado 212296" d="M0,0V14.127" transform="translate(14.127 7.064) rotate(90)" fill="none" stroke="#26779f" stroke-width="4"/>
      </g>
      <g id="Grupo_151689" data-name="Grupo 151689" transform="translate(18.366 0)">
        <path id="Trazado_212295-2" data-name="Trazado 212295" d="M-11425.02-11468v14.128" transform="translate(11432.083 11467.998)" fill="none" stroke="#26779f" stroke-width="4"/>
        <path id="Trazado_212296-2" data-name="Trazado 212296" d="M0,0V14.127" transform="translate(14.127 7.064) rotate(90)" fill="none" stroke="#26779f" stroke-width="4"/>
      </g>
      <g id="Grupo_151690" data-name="Grupo 151690" transform="translate(21.427 21.192)">
        <path id="Trazado_212295-3" data-name="Trazado 212295" d="M-11425.02-11468v14.128" transform="translate(11432.083 11467.998)" fill="none" stroke="#26779f" stroke-width="4"/>
        <path id="Trazado_212296-3" data-name="Trazado 212296" d="M0,0V14.127" transform="translate(14.127 7.064) rotate(90)" fill="none" stroke="#26779f" stroke-width="4"/>
      </g>
    </g>
    <g id="Grupo_876018" data-name="Grupo 876018" transform="translate(390 695.999)">
      <g id="Grupo_151688-2" data-name="Grupo 151688" transform="translate(0 7.064)">
        <path id="Trazado_212295-4" data-name="Trazado 212295" d="M-11425.02-11468v14.128" transform="translate(11432.083 11467.998)" fill="none" stroke="#f3ab1d" stroke-width="4"/>
        <path id="Trazado_212296-4" data-name="Trazado 212296" d="M0,0V14.127" transform="translate(14.127 7.064) rotate(90)" fill="none" stroke="#f3ab1d" stroke-width="4"/>
      </g>
      <g id="Grupo_151689-2" data-name="Grupo 151689" transform="translate(18.366 0)">
        <path id="Trazado_212295-5" data-name="Trazado 212295" d="M-11425.02-11468v14.128" transform="translate(11432.083 11467.998)" fill="none" stroke="#f3ab1d" stroke-width="4"/>
        <path id="Trazado_212296-5" data-name="Trazado 212296" d="M0,0V14.127" transform="translate(14.127 7.064) rotate(90)" fill="none" stroke="#f3ab1d" stroke-width="4"/>
      </g>
      <g id="Grupo_151690-2" data-name="Grupo 151690" transform="translate(21.427 21.192)">
        <path id="Trazado_212295-6" data-name="Trazado 212295" d="M-11425.02-11468v14.128" transform="translate(11432.083 11467.998)" fill="none" stroke="#f3ab1d" stroke-width="4"/>
        <path id="Trazado_212296-6" data-name="Trazado 212296" d="M0,0V14.127" transform="translate(14.127 7.064) rotate(90)" fill="none" stroke="#f3ab1d" stroke-width="4"/>
      </g>
    </g>
  </g>
</svg>
