<svg xmlns="http://www.w3.org/2000/svg" width="105" height="105" viewBox="0 0 105 105">
  <g id="Grupo_876011" data-name="Grupo 876011" transform="translate(-1161 -5064)">
    <g id="Grupo_874603" data-name="Grupo 874603" transform="translate(686.142 2711.142)">
      <circle id="Elipse_4723" data-name="Elipse 4723" cx="52.5" cy="52.5" r="52.5" transform="translate(474.858 2352.858)" fill="#fff"/>
      <path id="Trazado_596604" data-name="Trazado 596604" d="M46.492,0A46.492,46.492,0,1,1,0,46.492,46.492,46.492,0,0,1,46.492,0Z" transform="translate(480.867 2358.867)" fill="#e3f7f0" opacity="0.7"/>
    </g>
    <g id="Grupo_874660" data-name="Grupo 874660" transform="translate(1196.593 5080.055)">
      <path id="Trazado_596750" data-name="Trazado 596750" d="M299.351,310.9h-.367l-.165-.158h-.976v3.254l.285.149h1.224a1.625,1.625,0,0,0,0-3.245Z" transform="translate(-281.46 -302.838)" fill="#ffcebe"/>
      <path id="Trazado_596751" data-name="Trazado 596751" d="M186.655,310.9a1.625,1.625,0,0,0,0,3.245h1.224l.2-.367V310.74h-1.141Z" transform="translate(-180.593 -302.838)" fill="#ffcebe"/>
      <path id="Trazado_596752" data-name="Trazado 596752" d="M299.451,310.9c-.033,0-.067-.005-.1-.005h-.367l-.165-.158h-.976v3.254l.285.149h1.224c.034,0,.067,0,.1-.005Z" transform="translate(-281.459 -302.838)" fill="#ffb1a0"/>
      <path id="Trazado_596753" data-name="Trazado 596753" d="M186.724,312.521a1.6,1.6,0,0,1,1.355-1.61v-.172h-1.141l-.284.159a1.625,1.625,0,0,0,0,3.245h1.224l.025-.046A1.607,1.607,0,0,1,186.724,312.521Z" transform="translate(-180.592 -302.838)" fill="#ffb1a0"/>
      <path id="Trazado_596754" data-name="Trazado 596754" d="M163.547,408.448l-4.986-1.931-.385.185h-8.186l-.347-.2-4.981,1.945a4.341,4.341,0,0,0-2.535,3.932v2.2h4.34V417.6h15.276v-3.017h4.34v-2.2A4.328,4.328,0,0,0,163.547,408.448Z" transform="translate(-142.127 -388.525)" fill="#f3ab1d"/>
      <path id="Trazado_596755" data-name="Trazado 596755" d="M145.84,419.431a3.741,3.741,0,0,1,1.168-3.147l-2.346.916a4.341,4.341,0,0,0-2.535,3.932v2.2h3.713C145.84,420.69,145.84,420.636,145.84,419.431Z" transform="translate(-142.127 -397.277)" fill="#e0a531"/>
      <path id="Trazado_596756" data-name="Trazado 596756" d="M146.468,482.411h-4.34v2.268a.845.845,0,0,0,.845.845h3.5Z" transform="translate(-142.128 -456.447)" fill="#ffb1a0"/>
      <path id="Trazado_596757" data-name="Trazado 596757" d="M328.566,482.411v3.113h3.5a.845.845,0,0,0,.845-.845v-2.268Z" transform="translate(-308.95 -456.447)" fill="#ffcebe"/>
      <path id="Trazado_596758" data-name="Trazado 596758" d="M220.921,381.3a.469.469,0,0,1-.3-.436v-1.541L220.3,379h-4.579l-.288.318v1.545a.431.431,0,0,1-.2.379l-1.667.651a4.714,4.714,0,0,0,8.918.015Z" transform="translate(-206.052 -363.916)" fill="#ffcebe"/>
      <path id="Trazado_596759" data-name="Trazado 596759" d="M218.028,379h-2.3l-.288.318v1.545a.431.431,0,0,1-.2.379l-1.667.651a4.635,4.635,0,0,0,4.459,3.19Z" transform="translate(-206.052 -363.916)" fill="#ffb1a0"/>
      <path id="Trazado_596760" data-name="Trazado 596760" d="M177.95,465.257v-4.773a.723.723,0,0,0-1.446,0v4.773Z" transform="translate(-172.887 -436.18)" fill="#61a2f9"/>
      <path id="Trazado_596761" data-name="Trazado 596761" d="M323.14,465.257v-4.773a.723.723,0,1,0-1.446,0v4.773Z" transform="translate(-302.801 -436.18)" fill="#e0a531"/>
      <path id="Trazado_596762" data-name="Trazado 596762" d="M248.709,295.605l-.385-.257-.289-1.253h-.562l-2.346,1.7h-2.078l-.175.283v3.392a4.7,4.7,0,0,0,2.965,4.376,4.63,4.63,0,0,0,3.1-4.365v-3.352Z" transform="translate(-232.274 -287.944)" fill="#ffdecf"/>
      <g id="Grupo_874652" data-name="Grupo 874652" transform="translate(7.288 7.854)">
        <path id="Trazado_596763" data-name="Trazado 596763" d="M214.775,313.967v-3.316l.229-.369h-3.381l-.229.369v3.316a4.735,4.735,0,0,0,6.4,4.322A4.593,4.593,0,0,1,214.775,313.967Z" transform="translate(-211.394 -310.282)" fill="#ffcebe"/>
      </g>
      <path id="Trazado_596764" data-name="Trazado 596764" d="M203.867,237.772a.863.863,0,0,1-.932-.679c-.143-.732-.506-1.459-1.922-1.459H196.1a3.265,3.265,0,0,0-3.265,3.265v3.583a1.375,1.375,0,0,0,1.375,1.375h5.576a3.263,3.263,0,0,0,2.88-1.728.087.087,0,0,1,.164.042,1.691,1.691,0,0,0,1.686,1.686.886.886,0,0,0,.884-.884v-3.739A1.464,1.464,0,0,0,203.867,237.772Z" transform="translate(-187.5 -235.634)" fill="#365e7d"/>
      <g id="Grupo_874653" data-name="Grupo 874653" transform="translate(5.335 0)">
        <path id="Trazado_596765" data-name="Trazado 596765" d="M195.607,242.484V238.9a3.265,3.265,0,0,1,3.265-3.265H196.1a3.265,3.265,0,0,0-3.265,3.265v3.583a1.375,1.375,0,0,0,1.375,1.375h2.772A1.375,1.375,0,0,1,195.607,242.484Z" transform="translate(-192.836 -235.636)" fill="#2b4d66"/>
      </g>
    </g>
    <g id="ciudad" transform="translate(1177.723 5077)">
      <path id="Trazado_596785" data-name="Trazado 596785" d="M163.935,216.491a1.084,1.084,0,0,0-1.1,1.067V249.6a87.835,87.835,0,0,1,13.895-1.092q1.47,0,2.921.049V216.491H163.935Z" transform="translate(-139.847 -185.93)" fill="#0e7c95"/>
      <g id="Grupo_874655" data-name="Grupo 874655" transform="translate(22.987 30.561)">
        <path id="Trazado_596786" data-name="Trazado 596786" d="M165.725,249.163v-31.6a1.084,1.084,0,0,1,1.1-1.067h-2.891a1.084,1.084,0,0,0-1.1,1.067V249.6q1.431-.23,2.891-.412Z" transform="translate(-162.834 -216.492)" fill="#0a6d77"/>
        <path id="Trazado_596787" data-name="Trazado 596787" d="M272.98,443.277q-.722,0-1.44.013.737.013,1.47.036v-.048Z" transform="translate(-256.194 -411.263)" fill="#0a6d77"/>
      </g>
      <path id="Trazado_596788" data-name="Trazado 596788" d="M323.135,83.121h-15.71a1.324,1.324,0,0,0-1.316,1.324v5.578h18.342V84.445A1.324,1.324,0,0,0,323.135,83.121Z" transform="translate(-262.896 -71.387)" fill="#a5afaf"/>
      <path id="Trazado_596789" data-name="Trazado 596789" d="M309,84.444a1.324,1.324,0,0,1,1.316-1.324h-2.891a1.324,1.324,0,0,0-1.316,1.324v5.578H309V84.444Z" transform="translate(-262.895 -71.386)" fill="#98a0a0"/>
      <path id="Trazado_596790" data-name="Trazado 596790" d="M303.324,128.921H278.557a1.039,1.039,0,0,0-1.036,1.042V172.91l26.867,6.111v-21.4h.02V130.012A1.087,1.087,0,0,0,303.324,128.921Z" transform="translate(-238.344 -110.722)" fill="#c0cdce"/>
      <path id="Trazado_596791" data-name="Trazado 596791" d="M280.412,130.006a1.082,1.082,0,0,1,1.079-1.085h-2.934a1.039,1.039,0,0,0-1.036,1.042V172.91l2.891.658Z" transform="translate(-238.344 -110.722)" fill="#afbcbc"/>
      <path id="Trazado_596792" data-name="Trazado 596792" d="M69,339.44a4.346,4.346,0,0,0-3.336,6.683c.521.807-.755,1.169-.692,3.328a4.307,4.307,0,0,0,8.613-.13c0-2.109-1.21-2.442-.76-3.1A4.337,4.337,0,0,0,69,339.44Z" transform="translate(-55.79 -291.515)" fill="#4ce079"/>
      <path id="Trazado_596793" data-name="Trazado 596793" d="M67.825,349.37a4.333,4.333,0,0,1,.692-2.488.773.773,0,0,0,0-.84,4.351,4.351,0,0,1,2.17-6.44,4.332,4.332,0,0,0-5.061,6.44c.521.807-.755,1.169-.692,3.328a4.343,4.343,0,0,0,4.028,4.195,4.29,4.29,0,0,0,1.725-.243A4.362,4.362,0,0,1,67.825,349.37Z" transform="translate(-55.757 -291.434)" fill="#32cc65"/>
      <path id="Trazado_596794" data-name="Trazado 596794" d="M88.91,400.371a1.088,1.088,0,0,1-1.084-1.091V387.745a1.084,1.084,0,1,1,2.168,0V399.28A1.087,1.087,0,0,1,88.91,400.371Z" transform="translate(-75.427 -332.072)" fill="#9b6f43"/>
      <path id="Trazado_596795" data-name="Trazado 596795" d="M74.183,450.325a.766.766,0,0,0,.377-1.43c-9.5-5.422-21.929-8.708-35.527-8.708S13,443.476,3.489,448.9a.761.761,0,0,0,.375,1.42Z" transform="translate(-2.668 -378.048)" fill="#29b288"/>
      <path id="Trazado_596796" data-name="Trazado 596796" d="M9.271,448.9c8.828-5.041,20.18-8.235,32.653-8.665q-1.436-.05-2.891-.052c-13.607,0-26.038,3.289-35.544,8.717a.761.761,0,0,0,.375,1.421H9.646A.761.761,0,0,1,9.271,448.9Z" transform="translate(-2.668 -378.047)" fill="#21a378"/>
      <g id="Grupo_874656" data-name="Grupo 874656" transform="translate(26.341 35.433)">
        <path id="Trazado_596799" data-name="Trazado 596799" d="M194.974,253.186h-7.3a1.091,1.091,0,0,1,0-2.182h7.3a1.091,1.091,0,0,1,0,2.182Z" transform="translate(-186.59 -251.004)" fill="#a4d9f4"/>
        <path id="Trazado_596800" data-name="Trazado 596800" d="M194.974,290.832h-7.3a1.091,1.091,0,0,1,0-2.182h7.3a1.091,1.091,0,0,1,0,2.182Z" transform="translate(-186.59 -283.336)" fill="#a4d9f4"/>
        <path id="Trazado_596801" data-name="Trazado 596801" d="M194.974,328.477h-7.3a1.091,1.091,0,0,1,0-2.182h7.3a1.091,1.091,0,0,1,0,2.182Z" transform="translate(-186.59 -315.667)" fill="#a4d9f4"/>
        <path id="Trazado_596802" data-name="Trazado 596802" d="M194.974,366.123h-7.3a1.091,1.091,0,0,1,0-2.182h7.3a1.091,1.091,0,0,1,0,2.182Z" transform="translate(-186.59 -347.998)" fill="#a4d9f4"/>
        <path id="Trazado_596803" data-name="Trazado 596803" d="M194.974,403.768h-7.3a1.091,1.091,0,0,1,0-2.182h7.3a1.091,1.091,0,0,1,0,2.182Z" transform="translate(-186.59 -380.329)" fill="#a4d9f4"/>
      </g>
      <g id="Grupo_874657" data-name="Grupo 874657" transform="translate(42.534 24.734)">
        <path id="Trazado_596804" data-name="Trazado 596804" d="M319.916,253.186H302.385a1.091,1.091,0,0,1,0-2.182h17.531a1.091,1.091,0,0,1,0,2.182Z" transform="translate(-301.301 -240.305)" fill="#a5afaf"/>
        <path id="Trazado_596805" data-name="Trazado 596805" d="M319.916,290.832H302.385a1.091,1.091,0,0,1,0-2.182h17.531a1.091,1.091,0,0,1,0,2.182Z" transform="translate(-301.301 -272.636)" fill="#a5afaf"/>
        <path id="Trazado_596806" data-name="Trazado 596806" d="M319.916,328.477H302.385a1.091,1.091,0,0,1,0-2.182h17.531a1.091,1.091,0,0,1,0,2.182Z" transform="translate(-301.301 -304.967)" fill="#a5afaf"/>
        <path id="Trazado_596807" data-name="Trazado 596807" d="M319.916,215.541H302.385a1.091,1.091,0,0,1,0-2.182h17.531a1.091,1.091,0,0,1,0,2.182Z" transform="translate(-301.301 -207.974)" fill="#a5afaf"/>
        <path id="Trazado_596808" data-name="Trazado 596808" d="M319.916,177.394H302.385a1.091,1.091,0,0,1,0-2.182h17.531a1.091,1.091,0,0,1,0,2.182Z" transform="translate(-301.301 -175.212)" fill="#a5afaf"/>
        <path id="Trazado_596809" data-name="Trazado 596809" d="M318.578,366.123H302.385a1.091,1.091,0,0,1,0-2.182h16.193a1.091,1.091,0,0,1,0,2.182Z" transform="translate(-301.301 -337.299)" fill="#a5afaf"/>
        <path id="Trazado_596810" data-name="Trazado 596810" d="M319.592,403.768H302.385a1.091,1.091,0,0,1,0-2.182h17.207a1.091,1.091,0,0,1,0,2.182Z" transform="translate(-301.301 -369.63)" fill="#a5afaf"/>
      </g>
      <path id="Trazado_596811" data-name="Trazado 596811" d="M436.157,338.48a6.233,6.233,0,1,0-11.3,3.654.628.628,0,0,1,0,.733,6.233,6.233,0,1,0,10.2.1.816.816,0,0,1,0-.924A6.267,6.267,0,0,0,436.157,338.48Z" transform="translate(-363.88 -285.312)" fill="#4ce079"/>
      <path id="Trazado_596812" data-name="Trazado 596812" d="M426.584,346.689a6.27,6.27,0,0,1,1.165-3.823.628.628,0,0,0,0-.733,6.285,6.285,0,0,1,3.621-9.753,6.27,6.27,0,0,0-6.512,9.753.628.628,0,0,1,0,.733,6.252,6.252,0,0,0,6.512,9.754A6.3,6.3,0,0,1,426.584,346.689Z" transform="translate(-363.88 -285.313)" fill="#32cc65"/>
      <path id="Trazado_596813" data-name="Trazado 596813" d="M445.4,386.743l1.7,1.225v9.6h2.168V379.846a1.084,1.084,0,1,0-2.168,0v5.437l-.433-.312a1.08,1.08,0,0,0-1.513.25A1.1,1.1,0,0,0,445.4,386.743Z" transform="translate(-382.132 -325.288)" fill="#9b6f43"/>
    </g>
    <g id="Grupo_874659" data-name="Grupo 874659" transform="translate(-25.021 24.535)">
      <path id="Trazado_596817" data-name="Trazado 596817" d="M133.5,163.269l-9.093-14.255-3.3-3.529h-5.749L104.03,163.263a11.721,11.721,0,0,0-1.348,5.489c0,5.892,4.234,10.564,9.456,10.564l2.091.1h11.159c5.223,0,9.456-4.776,9.456-10.669v-.009a11.722,11.722,0,0,0-1.34-5.474Z" transform="translate(1101.107 4943.318)" fill="#e2ae83"/>
      <path id="Trazado_596818" data-name="Trazado 596818" d="M105.472,149.764a1.568,1.568,0,0,1,1.322-.725h7.928a3.736,3.736,0,0,0,.432-.025l-2.251-3.529h-7.84l-2.25,3.529-9.086,14.25a11.721,11.721,0,0,0-1.348,5.489c0,5.892,4.234,10.669,9.456,10.669h3.136c-5.223,0-9.456-4.776-9.456-10.669a11.721,11.721,0,0,1,1.348-5.489Z" transform="translate(1110.364 4943.318)" fill="#dba47a"/>
      <path id="Trazado_596819" data-name="Trazado 596819" d="M199.823,33.97a2.874,2.874,0,0,0-4.162,1.577v0a2.874,2.874,0,1,0-5.632,0h0a2.853,2.853,0,0,0-1.155-1.5c-.868-.564-4.444,1.315-2.677,4.312l3.774,5.243h6.795l3.774-5.243A2.874,2.874,0,0,0,199.823,33.97Z" transform="translate(1026.503 5045.197)" fill="#e2ae83"/>
      <path id="Trazado_596820" data-name="Trazado 596820" d="M180.7,56.744,176.925,51.5a2.874,2.874,0,0,1,.585-4.313,2.874,2.874,0,0,0-3.721,4.313l3.774,5.243Z" transform="translate(1037.865 5032.059)" fill="#dba47a"/>
      <path id="Trazado_596821" data-name="Trazado 596821" d="M226.77,250.9a3.092,3.092,0,0,0-3.089-3.089h-1.266a1.52,1.52,0,1,1,0-3.041h1.131a1.29,1.29,0,0,1,1.243.925.784.784,0,1,0,1.5-.451,2.846,2.846,0,0,0-2.459-2.029v-1.66a.784.784,0,1,0-1.568,0v1.65a3.089,3.089,0,0,0,.151,6.174h1.266a1.52,1.52,0,1,1,0,3.041h-1.428a1.29,1.29,0,0,1-1.243-.925.784.784,0,0,0-1.5.451,2.849,2.849,0,0,0,2.745,2.043h.011v1.646a.784.784,0,1,0,1.568,0v-1.65A3.092,3.092,0,0,0,226.77,250.9Z" transform="translate(996.3 4857.702)" fill="#3da894"/>
      <path id="Trazado_596822" data-name="Trazado 596822" d="M195.378,131.043l2.091.1h8.341a1.624,1.624,0,1,0,0-3.247h-8.341l-2.091.1a1.522,1.522,0,1,0,0,3.038Z" transform="translate(1019.277 4959.118)" fill="#fed44c"/>
      <path id="Trazado_596823" data-name="Trazado 596823" d="M186.588,129.524a1.624,1.624,0,0,1,1.624-1.624h-3.136a1.624,1.624,0,1,0,0,3.247h3.136A1.624,1.624,0,0,1,186.588,129.524Z" transform="translate(1028.534 4959.118)" fill="#f2b84c"/>
    </g>
  </g>
</svg>
