<svg xmlns="http://www.w3.org/2000/svg" xmlns:xlink="http://www.w3.org/1999/xlink" width="190" height="170" viewBox="0 0 190 170">
  <defs>
    <clipPath id="clip-path">
      <rect id="Rect치ngulo_292011" data-name="Rect치ngulo 292011" width="190" height="170" transform="translate(1483 -14030.429)" fill="#1d5977"/>
    </clipPath>
  </defs>
  <g id="Grupo_876150" data-name="Grupo 876150" transform="translate(-1483 14362.979)">
    <rect id="Rect치ngulo_292041" data-name="Rect치ngulo 292041" width="134" height="134" transform="translate(1539 -14362.979)" fill="#fff"/>
    <g id="Enmascarar_grupo_80" data-name="Enmascarar grupo 80" transform="translate(0 -332.551)" clip-path="url(#clip-path)">
      <g id="usuario" transform="translate(1483 -14040.429)">
        <g id="Grupo_875676" data-name="Grupo 875676">
          <g id="Grupo_875675" data-name="Grupo 875675">
            <g id="Grupo_875674" data-name="Grupo 875674">
              <g id="Grupo_875673" data-name="Grupo 875673">
                <g id="Grupo_875672" data-name="Grupo 875672">
                  <g id="Grupo_875671" data-name="Grupo 875671">
                    <g id="Grupo_875670" data-name="Grupo 875670">
                      <path id="Trazado_599472" data-name="Trazado 599472" d="M146.014,121.993a5.984,5.984,0,0,1-5.945-6.451l1.04-13.192-8.6-10.063a5.973,5.973,0,0,1,3.148-9.689l12.871-3.087,6.912-11.286a5.937,5.937,0,0,1,5.1-2.853h0a5.933,5.933,0,0,1,5.091,2.854l6.912,11.285L185.415,82.6a5.974,5.974,0,0,1,3.146,9.691l-8.595,10.061,1.041,13.193a5.973,5.973,0,0,1-8.244,5.987l-12.225-5.066-12.227,5.066A6,6,0,0,1,146.014,121.993Zm27.594-5.864h0Zm-13.071-7.391a3.71,3.71,0,0,1,1.421.283l11.465,4.75-.976-12.37a3.712,3.712,0,0,1,.878-2.7l8.06-9.435-12.067-2.894a3.711,3.711,0,0,1-2.3-1.671l-6.481-10.583L154.058,84.7a3.712,3.712,0,0,1-2.3,1.671l-12.067,2.894,8.06,9.435a3.712,3.712,0,0,1,.878,2.7l-.976,12.37,11.464-4.75A3.7,3.7,0,0,1,160.538,108.738Z" fill="#1d5977"/>
                    </g>
                  </g>
                </g>
              </g>
            </g>
          </g>
        </g>
        <g id="Grupo_875683" data-name="Grupo 875683">
          <g id="Grupo_875682" data-name="Grupo 875682">
            <g id="Grupo_875681" data-name="Grupo 875681">
              <g id="Grupo_875680" data-name="Grupo 875680">
                <g id="Grupo_875679" data-name="Grupo 875679">
                  <g id="Grupo_875678" data-name="Grupo 875678">
                    <g id="Grupo_875677" data-name="Grupo 875677">
                      <path id="Trazado_599473" data-name="Trazado 599473" d="M14.938,121.993a5.984,5.984,0,0,1-5.945-6.451l1.041-13.192-8.6-10.063A5.973,5.973,0,0,1,4.584,82.6l12.871-3.087,6.912-11.286a5.937,5.937,0,0,1,5.1-2.853h0a5.933,5.933,0,0,1,5.091,2.854l6.912,11.285L54.339,82.6a5.974,5.974,0,0,1,3.146,9.691l-8.595,10.061,1.041,13.193a5.973,5.973,0,0,1-8.244,5.987l-12.225-5.065-12.227,5.066A6,6,0,0,1,14.938,121.993Zm27.594-5.864h0ZM8.615,89.265l8.06,9.435a3.713,3.713,0,0,1,.878,2.7l-.976,12.37,11.465-4.75a3.709,3.709,0,0,1,2.841,0l11.464,4.75-.976-12.37a3.711,3.711,0,0,1,.878-2.7l8.06-9.435L38.242,86.37a3.711,3.711,0,0,1-2.3-1.671L29.462,74.117,22.982,84.7a3.712,3.712,0,0,1-2.3,1.671Zm43.23-1.8,0,0h0Z" fill="#1d5977"/>
                    </g>
                  </g>
                </g>
              </g>
            </g>
          </g>
        </g>
        <g id="Grupo_875686" data-name="Grupo 875686">
          <g id="Grupo_875685" data-name="Grupo 875685">
            <g id="Grupo_875684" data-name="Grupo 875684">
              <path id="Trazado_599474" data-name="Trazado 599474" d="M145.545,56.475a7.809,7.809,0,0,0-5.643-5.218L115.051,45.3,101.7,23.505a7.806,7.806,0,0,0-6.7-3.755h0A7.814,7.814,0,0,0,88.3,23.5L74.949,45.3,50.1,51.258a7.861,7.861,0,0,0-4.141,12.75l16.6,19.43-2.009,25.473a7.847,7.847,0,0,0,10.846,7.881L96.421,106.42a3.711,3.711,0,1,0-2.841-6.856l-13.212,5.474V90.754a2.136,2.136,0,0,1,2.13-2.13h25.007a2.126,2.126,0,0,1,2.126,2.126v19.763c0,.024,0,.076,0,.149a3.727,3.727,0,0,0,2.36,3.388l.007,0,6.606,2.739a7.86,7.86,0,0,0,10.847-7.879l-2.009-25.474,16.6-19.428A7.807,7.807,0,0,0,145.545,56.475ZM83.828,70.028A11.173,11.173,0,1,1,95,81.2,11.185,11.185,0,0,1,83.828,70.028ZM138.4,59.187l-17.6,20.6a3.713,3.713,0,0,0-.878,2.7l2.13,27.009a.438.438,0,0,1-.606.439l-4.4-1.823V90.753a9.568,9.568,0,0,0-7.389-9.305,18.594,18.594,0,1,0-29.33,0,9.568,9.568,0,0,0-7.389,9.305v17.359l-4.4,1.824a.438.438,0,0,1-.6-.441l2.13-27.007a3.712,3.712,0,0,0-.878-2.7l-17.6-20.6a.438.438,0,0,1,.231-.711l26.347-6.32a3.711,3.711,0,0,0,2.3-1.671l14.148-23.1A.409.409,0,0,1,95,27.173h0a.4.4,0,0,1,.374.209l14.149,23.1a3.712,3.712,0,0,0,2.3,1.671l26.346,6.319a.438.438,0,0,1,.231.712Z" fill="#1d5977"/>
            </g>
          </g>
        </g>
        <g id="Grupo_875699" data-name="Grupo 875699">
          <g id="Grupo_875692" data-name="Grupo 875692">
            <g id="Grupo_875691" data-name="Grupo 875691">
              <g id="Grupo_875690" data-name="Grupo 875690">
                <g id="Grupo_875689" data-name="Grupo 875689">
                  <g id="Grupo_875688" data-name="Grupo 875688">
                    <g id="Grupo_875687" data-name="Grupo 875687">
                      <path id="Trazado_599475" data-name="Trazado 599475" d="M160.538,170.249H29.462a3.711,3.711,0,0,1-3.711-3.711V129.613a3.711,3.711,0,0,1,3.711-3.711H102.3a3.711,3.711,0,1,1,0,7.422H33.173v29.5H156.828v-29.5H137.675a3.711,3.711,0,0,1,0-7.422h22.864a3.711,3.711,0,0,1,3.711,3.711v36.926A3.712,3.712,0,0,1,160.538,170.249Z" fill="#1d5977"/>
                    </g>
                  </g>
                </g>
              </g>
            </g>
          </g>
          <g id="Grupo_875698" data-name="Grupo 875698">
            <g id="Grupo_875697" data-name="Grupo 875697">
              <g id="Grupo_875696" data-name="Grupo 875696">
                <g id="Grupo_875695" data-name="Grupo 875695">
                  <g id="Grupo_875694" data-name="Grupo 875694">
                    <g id="Grupo_875693" data-name="Grupo 875693">
                      <path id="Trazado_599476" data-name="Trazado 599476" d="M120.6,133.321a3.681,3.681,0,0,1-3.084-1.648,3.962,3.962,0,0,1-.341-.642,3.477,3.477,0,0,1-.212-.694,3.681,3.681,0,0,1-.074-.724,3.724,3.724,0,0,1,1.087-2.623,3.573,3.573,0,0,1,.564-.464,3.765,3.765,0,0,1,.638-.341,3.873,3.873,0,0,1,.7-.212,3.654,3.654,0,0,1,1.447,0,3.873,3.873,0,0,1,.7.212,3.764,3.764,0,0,1,.638.341,3.573,3.573,0,0,1,.564.464,3.726,3.726,0,0,1,1.087,2.623,3.681,3.681,0,0,1-.074.724,3.73,3.73,0,0,1-.212.694,3.931,3.931,0,0,1-.341.642,3.681,3.681,0,0,1-3.084,1.648Z" fill="#1d5977"/>
                    </g>
                  </g>
                </g>
              </g>
            </g>
          </g>
        </g>
        <g id="Grupo_875712" data-name="Grupo 875712">
          <g id="Grupo_875705" data-name="Grupo 875705">
            <g id="Grupo_875704" data-name="Grupo 875704">
              <g id="Grupo_875703" data-name="Grupo 875703">
                <g id="Grupo_875702" data-name="Grupo 875702">
                  <g id="Grupo_875701" data-name="Grupo 875701">
                    <g id="Grupo_875700" data-name="Grupo 875700">
                      <path id="Trazado_599477" data-name="Trazado 599477" d="M121.842,145.85H68.158a3.711,3.711,0,1,1,0-7.422h53.683a3.711,3.711,0,1,1,0,7.422Z" fill="#1d5977"/>
                    </g>
                  </g>
                </g>
              </g>
            </g>
          </g>
          <g id="Grupo_875711" data-name="Grupo 875711">
            <g id="Grupo_875710" data-name="Grupo 875710">
              <g id="Grupo_875709" data-name="Grupo 875709">
                <g id="Grupo_875708" data-name="Grupo 875708">
                  <g id="Grupo_875707" data-name="Grupo 875707">
                    <g id="Grupo_875706" data-name="Grupo 875706">
                      <path id="Trazado_599478" data-name="Trazado 599478" d="M110.338,157.723H79.662a3.711,3.711,0,1,1,0-7.422h30.676a3.711,3.711,0,1,1,0,7.422Z" fill="#1d5977"/>
                    </g>
                  </g>
                </g>
              </g>
            </g>
          </g>
        </g>
      </g>
    </g>
  </g>
</svg>
