<svg id="antecedentes-penales" xmlns="http://www.w3.org/2000/svg" width="55.59" height="55.59" viewBox="0 0 55.59 55.59">
  <circle id="Elipse_5606" data-name="Elipse 5606" cx="10.721" cy="10.721" r="10.721" transform="translate(22.974 22.974)" fill="#e3f7f0"/>
  <path id="Trazado_599776" data-name="Trazado 599776" d="M391.774,387.167l-8.967-8.967a14.226,14.226,0,0,1-4.606,4.607l8.967,8.967a3.257,3.257,0,1,0,4.606-4.607Z" transform="translate(-337.138 -337.137)" fill="#e3f7f0"/>
  <g id="Grupo_876010" data-name="Grupo 876010">
    <path id="Trazado_599777" data-name="Trazado 599777" d="M18.69,8.787l-9.9,9.9h9.9Z" transform="translate(-7.833 -7.833)" fill="#e3f7f0"/>
    <path id="Trazado_599778" data-name="Trazado 599778" d="M90,215.429h10.858a14.185,14.185,0,0,1,4.02-5.429H90Z" transform="translate(-80.228 -187.199)" fill="#e3f7f0"/>
    <path id="Trazado_599779" data-name="Trazado 599779" d="M19.711,31.487H8.143a1.629,1.629,0,0,1-1.629-1.629V21.172a1.629,1.629,0,0,1,1.629-1.629H33.658a14.045,14.045,0,0,1,8.686,3V4.886A4.891,4.891,0,0,0,37.458,0H14.115V12.486a1.629,1.629,0,0,1-1.629,1.629H0V50.7A4.891,4.891,0,0,0,4.886,55.59H37.458a4.893,4.893,0,0,0,4.821-4.1l-4.374-4.374a14.1,14.1,0,0,1-13.257-2.6H8.143a1.629,1.629,0,1,1,0-3.257H21.769A14.062,14.062,0,0,1,20.228,38H8.143a1.629,1.629,0,0,1,0-3.257H19.585a14.494,14.494,0,0,1,.126-3.257ZM34.2,16.286H19a1.629,1.629,0,1,1,0-3.257H34.2a1.629,1.629,0,0,1,0,3.257Zm0-6.514H19a1.629,1.629,0,1,1,0-3.257H34.2a1.629,1.629,0,0,1,0,3.257Z" fill="#e3f7f0"/>
  </g>
</svg>
