<svg xmlns="http://www.w3.org/2000/svg" width="140" height="105" viewBox="0 0 140 105">
  <g id="Grupo_876014" data-name="Grupo 876014" transform="translate(-520 -7653)">
    <g id="Grupo_874629" data-name="Grupo 874629" transform="translate(0 -109)">
      <rect id="Rectángulo_291466" data-name="Rectángulo 291466" width="140" height="75" transform="translate(520 7779)" fill="none"/>
      <g id="Grupo_874624" data-name="Grupo 874624" transform="translate(1)">
        <g id="Grupo_874620" data-name="Grupo 874620" transform="translate(832 9613.532) rotate(180)">
          <circle id="Elipse_4713" data-name="Elipse 4713" cx="2.5" cy="2.5" r="2.5" transform="translate(285 1799.532)" fill="#f3ab1d"/>
          <circle id="Elipse_4717" data-name="Elipse 4717" cx="2.5" cy="2.5" r="2.5" transform="translate(285 1811.532)" fill="#f3ab1d"/>
          <circle id="Elipse_4719" data-name="Elipse 4719" cx="2.5" cy="2.5" r="2.5" transform="translate(285 1823.532)" fill="#f3ab1d"/>
          <circle id="Elipse_4715" data-name="Elipse 4715" cx="2.5" cy="2.5" r="2.5" transform="translate(297 1799.532)" fill="#f3ab1d"/>
          <circle id="Elipse_4720" data-name="Elipse 4720" cx="2.5" cy="2.5" r="2.5" transform="translate(308 1799.532)" fill="#f3ab1d"/>
          <circle id="Elipse_4716" data-name="Elipse 4716" cx="2.5" cy="2.5" r="2.5" transform="translate(297 1811.532)" fill="#f3ab1d"/>
          <circle id="Elipse_4721" data-name="Elipse 4721" cx="2.5" cy="2.5" r="2.5" transform="translate(308 1811.532)" fill="#f3ab1d"/>
          <circle id="Elipse_4718" data-name="Elipse 4718" cx="2.5" cy="2.5" r="2.5" transform="translate(297 1823.532)" fill="#f3ab1d"/>
          <circle id="Elipse_4722" data-name="Elipse 4722" cx="2.5" cy="2.5" r="2.5" transform="translate(308 1823.532)" fill="#f3ab1d"/>
        </g>
        <g id="Grupo_874621" data-name="Grupo 874621" transform="translate(832 9648.532) rotate(180)">
          <circle id="Elipse_4713-2" data-name="Elipse 4713" cx="2.5" cy="2.5" r="2.5" transform="translate(285 1799.532)" fill="#f3ab1d"/>
          <circle id="Elipse_4717-2" data-name="Elipse 4717" cx="2.5" cy="2.5" r="2.5" transform="translate(285 1811.532)" fill="#f3ab1d"/>
          <circle id="Elipse_4719-2" data-name="Elipse 4719" cx="2.5" cy="2.5" r="2.5" transform="translate(285 1823.532)" fill="#f3ab1d"/>
          <circle id="Elipse_4715-2" data-name="Elipse 4715" cx="2.5" cy="2.5" r="2.5" transform="translate(297 1799.532)" fill="#f3ab1d"/>
          <circle id="Elipse_4720-2" data-name="Elipse 4720" cx="2.5" cy="2.5" r="2.5" transform="translate(308 1799.532)" fill="#f3ab1d"/>
          <circle id="Elipse_4716-2" data-name="Elipse 4716" cx="2.5" cy="2.5" r="2.5" transform="translate(297 1811.532)" fill="#f3ab1d"/>
          <circle id="Elipse_4721-2" data-name="Elipse 4721" cx="2.5" cy="2.5" r="2.5" transform="translate(308 1811.532)" fill="#f3ab1d"/>
          <circle id="Elipse_4718-2" data-name="Elipse 4718" cx="2.5" cy="2.5" r="2.5" transform="translate(297 1823.532)" fill="#f3ab1d"/>
          <circle id="Elipse_4722-2" data-name="Elipse 4722" cx="2.5" cy="2.5" r="2.5" transform="translate(308 1823.532)" fill="#f3ab1d"/>
        </g>
      </g>
      <g id="Grupo_874623" data-name="Grupo 874623" transform="translate(63 5409)">
        <circle id="Elipse_4723" data-name="Elipse 4723" cx="52.5" cy="52.5" r="52.5" transform="translate(475 2353)" fill="#fff"/>
        <path id="Trazado_596604" data-name="Trazado 596604" d="M46.62,0A46.62,46.62,0,1,1,0,46.62,46.62,46.62,0,0,1,46.62,0Z" transform="translate(480.88 2358.88)" fill="#d9e9f1" opacity="0.7"/>
      </g>
      <g id="Grupo_874622" data-name="Grupo 874622" transform="translate(634.019 7829.184)">
        <g id="Grupo_151688" data-name="Grupo 151688" transform="translate(0 4.964)">
          <path id="Trazado_212295" data-name="Trazado 212295" d="M-11425.02-11468v9.927" transform="translate(11429.982 11467.997)" fill="none" stroke="#26779f" stroke-width="4"/>
          <path id="Trazado_212296" data-name="Trazado 212296" d="M0,0V9.926" transform="translate(9.926 4.963) rotate(90)" fill="none" stroke="#26779f" stroke-width="4"/>
        </g>
        <g id="Grupo_151689" data-name="Grupo 151689" transform="translate(12.905 0)">
          <path id="Trazado_212295-2" data-name="Trazado 212295" d="M-11425.02-11468v9.927" transform="translate(11429.982 11467.997)" fill="none" stroke="#26779f" stroke-width="4"/>
          <path id="Trazado_212296-2" data-name="Trazado 212296" d="M0,0V9.926" transform="translate(9.926 4.963) rotate(90)" fill="none" stroke="#26779f" stroke-width="4"/>
        </g>
        <g id="Grupo_151690" data-name="Grupo 151690" transform="translate(15.055 14.89)">
          <path id="Trazado_212295-3" data-name="Trazado 212295" d="M-11425.02-11468v9.927" transform="translate(11429.982 11467.997)" fill="none" stroke="#26779f" stroke-width="4"/>
          <path id="Trazado_212296-3" data-name="Trazado 212296" d="M0,0V9.926" transform="translate(9.926 4.963) rotate(90)" fill="none" stroke="#26779f" stroke-width="4"/>
        </g>
      </g>
    </g>
    <g id="colombia" transform="translate(534.875 7658.756)">
      <path id="Trazado_596663" data-name="Trazado 596663" d="M34.607,124.985l-3.924,4.532-2.721-1.861a1.088,1.088,0,0,1-.155-1.669,1.09,1.09,0,0,0-.224-1.712l-2.594-1.51a1.093,1.093,0,0,0-1.253.112l-2.006,1.7a37.938,37.938,0,0,1,2.615-4.912,1.1,1.1,0,0,1,.443.064l9.235,3.377.387.273A1.089,1.089,0,0,1,34.607,124.985Z" transform="translate(0 -92.584)" fill="#78c2a4"/>
      <path id="Trazado_596665" data-name="Trazado 596665" d="M121.146,56.957l-.99-1.921-.4-.78a14.214,14.214,0,0,0-1.085-1.711,1.133,1.133,0,0,1,.268-1.579l1.509-1.071a1.132,1.132,0,0,0,.221-1.639l-3.446-4.211a1.133,1.133,0,0,1-.12-1.255l2.1-3.888a1.131,1.131,0,0,0-1.071-1.667l-8.223.559a1.127,1.127,0,0,1-.824-.279l-2.776-2.44a1.131,1.131,0,0,0-.725-.281l-9.4-.173A1.132,1.132,0,0,1,95.106,33.2l.359-1.345a1.13,1.13,0,0,0-.06-.753l-1.727-3.866a1.133,1.133,0,0,0-1.034-.67H90.856a1.131,1.131,0,0,1-.979-1.7l3.888-6.723a1.125,1.125,0,0,1,.365-.384l5.71-3.694a1.132,1.132,0,0,0,.2-1.735l-1.071-1.111a1.132,1.132,0,0,0-1.487-.125l-8.1,5.985a1.132,1.132,0,0,1-.621.22l-3.341.153a1.13,1.13,0,0,0-1.063.931,1.131,1.131,0,0,1-1.88.633l-.255-.234a1.131,1.131,0,0,0-1.6.068l-3.185,3.482a1.132,1.132,0,0,0-.169,1.285l.525,1.011a1.133,1.133,0,0,1-.58,1.57l-.566.229a1.11,1.11,0,0,0-.374.249L73.5,29.441a1.132,1.132,0,0,0-.313.595l-.136.736a1.132,1.132,0,0,1-1.765.719l-.473-.333a1.133,1.133,0,0,0-1.559.25l-2.929,3.93a1.131,1.131,0,0,0,.248,1.6l2.718,1.952a1.132,1.132,0,0,1,.465.8l.938,9.1a1.133,1.133,0,0,0,.471.807l1.357.961a1.131,1.131,0,0,1,.4,1.343l-1.7,4.245a1.131,1.131,0,0,1-.977.709l-2.095.136a1.124,1.124,0,0,0-.728.328L64.238,60.5a1.132,1.132,0,0,0,.287,1.81l11.062,5.618a1.133,1.133,0,0,0,1.454-.382l.915-1.372a1.131,1.131,0,0,1,1.548-.327l6.606,4.2a1.151,1.151,0,0,0,.383.155l7.126,1.443a1.132,1.132,0,0,1,.907,1.109v2.827a1.13,1.13,0,0,0,1.149,1.131l9.986-.161a1.131,1.131,0,0,1,1.046,1.6l-1.641,3.576a1.13,1.13,0,0,0,.676,1.547l3.46,1.134a1.131,1.131,0,0,0,1.481-1l.92-13.617a1.136,1.136,0,0,0-.169-.676l-2.848-4.556a1.133,1.133,0,0,1,.373-1.568l1.941-1.175a1.132,1.132,0,0,0,.339-1.621L110.1,58.576a1.132,1.132,0,0,1,.859-1.783l6.836-.388.019,0,.925,1.8a1.355,1.355,0,1,0,2.409-1.242Z" transform="translate(-35.892 0)" fill="#4ce166"/>
      <path id="Trazado_596666" data-name="Trazado 596666" d="M199.284,228.046h-3.122V209.782l3.122.738Z" transform="translate(-148.439 -169.271)" fill="#365e7d"/>
      <path id="Trazado_596667" data-name="Trazado 596667" d="M199.284,114.721l-3.122-1.013v-4.02l3.122.738Z" transform="translate(-148.439 -84.093)" fill="#365e7d"/>
      <path id="Trazado_596668" data-name="Trazado 596668" d="M197.252,228.046h-1.09V209.782l1.09.738Z" transform="translate(-148.439 -169.271)" fill="#2b4d66"/>
      <path id="Trazado_596669" data-name="Trazado 596669" d="M197.252,114.721l-1.09-1.013v-4.02l1.09.738Z" transform="translate(-148.439 -84.093)" fill="#2b4d66"/>
      <g id="Grupo_874636" data-name="Grupo 874636" transform="translate(47.723 26.944)">
        <path id="Trazado_596670" data-name="Trazado 596670" d="M218.13,124.261,207.548,125.9l-11.386-1.637v-2.848a2.671,2.671,0,0,1,2.671-2.671h16.627a2.671,2.671,0,0,1,2.671,2.671Z" transform="translate(-196.162 -118.742)" fill="#ffd064"/>
        <path id="Trazado_596671" data-name="Trazado 596671" d="M215.459,181.343H198.833a2.671,2.671,0,0,1-2.671-2.671v-2.848l10.984-2.6,10.984,2.6v2.848a2.671,2.671,0,0,1-2.671,2.671Z" transform="translate(-196.162 -165.105)" fill="#da4a54"/>
        <path id="Trazado_596672" data-name="Trazado 596672" d="M196.162,155.775H218.13v5.2H196.162Z" transform="translate(-196.162 -150.256)" fill="#30579d"/>
      </g>
      <path id="Trazado_596673" data-name="Trazado 596673" d="M194.208,84.387V84.2a1.244,1.244,0,0,0-1.135-1.255,1.216,1.216,0,0,0-1.3,1.213v.234A2.671,2.671,0,0,1,191,86.264a1.175,1.175,0,0,0-.338.889,1.212,1.212,0,0,0,1.226,1.121h2.2a1.212,1.212,0,0,0,1.226-1.121,1.175,1.175,0,0,0-.338-.889A2.67,2.67,0,0,1,194.208,84.387Z" transform="translate(-143.759 -61.329)" fill="#365e7d"/>
      <path id="Trazado_596674" data-name="Trazado 596674" d="M192.109,86.265a2.158,2.158,0,0,0-.149.888c.013.636.261,1.121.544,1.121h-.612a1.214,1.214,0,0,1-1.226-1.121,1.182,1.182,0,0,1,.338-.888,2.67,2.67,0,0,0,.773-1.876v-.234a1.215,1.215,0,0,1,1.216-1.216c-.3,0-.539.544-.539,1.216v.234a4.819,4.819,0,0,1-.344,1.876Z" transform="translate(-143.76 -61.33)" fill="#2b4d66"/>
    </g>
  </g>
</svg>
