<svg xmlns="http://www.w3.org/2000/svg" width="140" height="105" viewBox="0 0 140 105">
  <g id="Grupo_874628" data-name="Grupo 874628" transform="translate(-940 -7762)">
    <rect id="Rectángulo_291467" data-name="Rectángulo 291467" width="140" height="75" transform="translate(940 7779)" fill="none"/>
    <g id="Grupo_874625" data-name="Grupo 874625" transform="translate(421)">
      <g id="Grupo_874620" data-name="Grupo 874620" transform="translate(832 9613.532) rotate(180)">
        <circle id="Elipse_4713" data-name="Elipse 4713" cx="2.5" cy="2.5" r="2.5" transform="translate(285 1799.532)" fill="#f3ab1d"/>
        <circle id="Elipse_4717" data-name="Elipse 4717" cx="2.5" cy="2.5" r="2.5" transform="translate(285 1811.532)" fill="#f3ab1d"/>
        <circle id="Elipse_4719" data-name="Elipse 4719" cx="2.5" cy="2.5" r="2.5" transform="translate(285 1823.532)" fill="#f3ab1d"/>
        <circle id="Elipse_4715" data-name="Elipse 4715" cx="2.5" cy="2.5" r="2.5" transform="translate(297 1799.532)" fill="#f3ab1d"/>
        <circle id="Elipse_4720" data-name="Elipse 4720" cx="2.5" cy="2.5" r="2.5" transform="translate(308 1799.532)" fill="#f3ab1d"/>
        <circle id="Elipse_4716" data-name="Elipse 4716" cx="2.5" cy="2.5" r="2.5" transform="translate(297 1811.532)" fill="#f3ab1d"/>
        <circle id="Elipse_4721" data-name="Elipse 4721" cx="2.5" cy="2.5" r="2.5" transform="translate(308 1811.532)" fill="#f3ab1d"/>
        <circle id="Elipse_4718" data-name="Elipse 4718" cx="2.5" cy="2.5" r="2.5" transform="translate(297 1823.532)" fill="#f3ab1d"/>
        <circle id="Elipse_4722" data-name="Elipse 4722" cx="2.5" cy="2.5" r="2.5" transform="translate(308 1823.532)" fill="#f3ab1d"/>
      </g>
      <g id="Grupo_874621" data-name="Grupo 874621" transform="translate(832 9648.532) rotate(180)">
        <circle id="Elipse_4713-2" data-name="Elipse 4713" cx="2.5" cy="2.5" r="2.5" transform="translate(285 1799.532)" fill="#f3ab1d"/>
        <circle id="Elipse_4717-2" data-name="Elipse 4717" cx="2.5" cy="2.5" r="2.5" transform="translate(285 1811.532)" fill="#f3ab1d"/>
        <circle id="Elipse_4719-2" data-name="Elipse 4719" cx="2.5" cy="2.5" r="2.5" transform="translate(285 1823.532)" fill="#f3ab1d"/>
        <circle id="Elipse_4715-2" data-name="Elipse 4715" cx="2.5" cy="2.5" r="2.5" transform="translate(297 1799.532)" fill="#f3ab1d"/>
        <circle id="Elipse_4720-2" data-name="Elipse 4720" cx="2.5" cy="2.5" r="2.5" transform="translate(308 1799.532)" fill="#f3ab1d"/>
        <circle id="Elipse_4716-2" data-name="Elipse 4716" cx="2.5" cy="2.5" r="2.5" transform="translate(297 1811.532)" fill="#f3ab1d"/>
        <circle id="Elipse_4721-2" data-name="Elipse 4721" cx="2.5" cy="2.5" r="2.5" transform="translate(308 1811.532)" fill="#f3ab1d"/>
        <circle id="Elipse_4718-2" data-name="Elipse 4718" cx="2.5" cy="2.5" r="2.5" transform="translate(297 1823.532)" fill="#f3ab1d"/>
        <circle id="Elipse_4722-2" data-name="Elipse 4722" cx="2.5" cy="2.5" r="2.5" transform="translate(308 1823.532)" fill="#f3ab1d"/>
      </g>
    </g>
    <g id="Grupo_874626" data-name="Grupo 874626" transform="translate(483 5409)">
      <circle id="Elipse_4723" data-name="Elipse 4723" cx="52.5" cy="52.5" r="52.5" transform="translate(475 2353)" fill="#fff"/>
      <path id="Trazado_596604" data-name="Trazado 596604" d="M46.62,0A46.62,46.62,0,1,1,0,46.62,46.62,46.62,0,0,1,46.62,0Z" transform="translate(480.88 2358.88)" fill="#e3f7f0" opacity="0.7"/>
      <g id="Layer_23" data-name="Layer 23" transform="translate(487.516 2368.384)">
        <ellipse id="Elipse_5434" data-name="Elipse 5434" cx="29" cy="28.5" rx="29" ry="28.5" transform="translate(10.484 16.616)" fill="#1ea4e9"/>
        <path id="Trazado_596649" data-name="Trazado 596649" d="M65.037,40.44A29.015,29.015,0,0,0,18,20.365v1.494a4.188,4.188,0,0,0,4.188,4.189,10.319,10.319,0,0,1,10.32,10.319v2.8a6.273,6.273,0,0,0,10.468,4.662l4.135-3.721a12.384,12.384,0,0,1,8.283-3.178h1a12.387,12.387,0,0,1,8.643,3.515Z" transform="translate(3.314 2.069)" fill="#4ce166"/>
        <path id="Trazado_596654" data-name="Trazado 596654" d="M44.06,67.847A29.038,29.038,0,0,1,10.254,31h2.813a19.369,19.369,0,0,1,13.7,5.672,5.4,5.4,0,0,1,1.581,3.817v.831a5.4,5.4,0,0,0,5.4,5.4A10.319,10.319,0,0,1,44.06,57.036Z" transform="translate(1.433 5.622)" fill="#44c868"/>
        <path id="Trazado_596655" data-name="Trazado 596655" d="M59.666,42A29.033,29.033,0,0,1,46.9,61.474l-2.591-2.591a6.778,6.778,0,0,1,0-9.585,4.274,4.274,0,0,0,1.251-3.024A4.275,4.275,0,0,1,49.834,42Z" transform="translate(8.397 7.92)" fill="#44c868"/>
        <path id="Trazado_596656" data-name="Trazado 596656" d="M42,16h2.418V34.135H42Z" transform="translate(8.329 2.487)" fill="#f2f2f2"/>
        <path id="Trazado_596657" data-name="Trazado 596657" d="M20,24h2.418V53.015H20Z" transform="translate(3.732 4.159)" fill="#e2e7f6"/>
        <g id="Grupo_874637" data-name="Grupo 874637" transform="translate(2.354 16.066)">
          <path id="Trazado_596670" data-name="Trazado 596670" d="M219.957,124.72l-11.463,1.774-12.333-1.774v-3.085a2.893,2.893,0,0,1,2.893-2.893h18.01a2.893,2.893,0,0,1,2.893,2.893Z" transform="translate(-196.162 -118.742)" fill="#ffd064"/>
          <path id="Trazado_596671" data-name="Trazado 596671" d="M217.065,182.018h-18.01a2.893,2.893,0,0,1-2.893-2.893V176.04l11.9-2.816,11.9,2.816v3.085a2.893,2.893,0,0,1-2.893,2.893Z" transform="translate(-196.162 -164.43)" fill="#da4a54"/>
          <path id="Trazado_596672" data-name="Trazado 596672" d="M196.162,155.775h23.8v5.633h-23.8Z" transform="translate(-196.162 -149.797)" fill="#30579d"/>
        </g>
        <g id="Grupo_874643" data-name="Grupo 874643" transform="translate(50.155 7.272)">
          <path id="Trazado_596670-2" data-name="Trazado 596670" d="M219.957,124.72l-11.463,1.774-12.333-1.774v-3.085a2.893,2.893,0,0,1,2.893-2.893h18.01a2.893,2.893,0,0,1,2.893,2.893Z" transform="translate(-196.162 -118.742)" fill="#da4a54"/>
          <path id="Trazado_596671-2" data-name="Trazado 596671" d="M217.065,182.018h-18.01a2.893,2.893,0,0,1-2.893-2.893V176.04l11.9-2.816,11.9,2.816v3.085a2.893,2.893,0,0,1-2.893,2.893Z" transform="translate(-196.162 -164.43)" fill="#da4a54"/>
          <path id="Trazado_596672-2" data-name="Trazado 596672" d="M196.162,155.775h23.8v5.633h-23.8Z" transform="translate(-196.162 -149.797)" fill="#ffd064"/>
        </g>
      </g>
    </g>
    <g id="Grupo_874627" data-name="Grupo 874627" transform="translate(1054.019 7829.184)">
      <g id="Grupo_151688" data-name="Grupo 151688" transform="translate(0 4.964)">
        <path id="Trazado_212295" data-name="Trazado 212295" d="M-11425.02-11468v9.927" transform="translate(11429.982 11467.997)" fill="none" stroke="#26779f" stroke-width="4"/>
        <path id="Trazado_212296" data-name="Trazado 212296" d="M0,0V9.926" transform="translate(9.926 4.963) rotate(90)" fill="none" stroke="#26779f" stroke-width="4"/>
      </g>
      <g id="Grupo_151689" data-name="Grupo 151689" transform="translate(12.905 0)">
        <path id="Trazado_212295-2" data-name="Trazado 212295" d="M-11425.02-11468v9.927" transform="translate(11429.982 11467.997)" fill="none" stroke="#26779f" stroke-width="4"/>
        <path id="Trazado_212296-2" data-name="Trazado 212296" d="M0,0V9.926" transform="translate(9.926 4.963) rotate(90)" fill="none" stroke="#26779f" stroke-width="4"/>
      </g>
      <g id="Grupo_151690" data-name="Grupo 151690" transform="translate(15.055 14.89)">
        <path id="Trazado_212295-3" data-name="Trazado 212295" d="M-11425.02-11468v9.927" transform="translate(11429.982 11467.997)" fill="none" stroke="#26779f" stroke-width="4"/>
        <path id="Trazado_212296-3" data-name="Trazado 212296" d="M0,0V9.926" transform="translate(9.926 4.963) rotate(90)" fill="none" stroke="#26779f" stroke-width="4"/>
      </g>
    </g>
  </g>
</svg>
