<svg xmlns="http://www.w3.org/2000/svg" width="140" height="105" viewBox="0 0 140 105">
  <g id="Grupo_876015" data-name="Grupo 876015" transform="translate(8709 3938)">
    <g id="Grupo_874631" data-name="Grupo 874631" transform="translate(-9649 -11700)">
      <rect id="Rectángulo_291467" data-name="Rectángulo 291467" width="140" height="75" transform="translate(940 7779)" fill="none"/>
      <g id="Grupo_874625" data-name="Grupo 874625" transform="translate(421)">
        <g id="Grupo_874620" data-name="Grupo 874620" transform="translate(832 9613.532) rotate(180)">
          <circle id="Elipse_4713" data-name="Elipse 4713" cx="2.5" cy="2.5" r="2.5" transform="translate(285 1799.532)" fill="#f3ab1d"/>
          <circle id="Elipse_4717" data-name="Elipse 4717" cx="2.5" cy="2.5" r="2.5" transform="translate(285 1811.532)" fill="#f3ab1d"/>
          <circle id="Elipse_4719" data-name="Elipse 4719" cx="2.5" cy="2.5" r="2.5" transform="translate(285 1823.532)" fill="#f3ab1d"/>
          <circle id="Elipse_4715" data-name="Elipse 4715" cx="2.5" cy="2.5" r="2.5" transform="translate(297 1799.532)" fill="#f3ab1d"/>
          <circle id="Elipse_4720" data-name="Elipse 4720" cx="2.5" cy="2.5" r="2.5" transform="translate(308 1799.532)" fill="#f3ab1d"/>
          <circle id="Elipse_4716" data-name="Elipse 4716" cx="2.5" cy="2.5" r="2.5" transform="translate(297 1811.532)" fill="#f3ab1d"/>
          <circle id="Elipse_4721" data-name="Elipse 4721" cx="2.5" cy="2.5" r="2.5" transform="translate(308 1811.532)" fill="#f3ab1d"/>
          <circle id="Elipse_4718" data-name="Elipse 4718" cx="2.5" cy="2.5" r="2.5" transform="translate(297 1823.532)" fill="#f3ab1d"/>
          <circle id="Elipse_4722" data-name="Elipse 4722" cx="2.5" cy="2.5" r="2.5" transform="translate(308 1823.532)" fill="#f3ab1d"/>
        </g>
        <g id="Grupo_874621" data-name="Grupo 874621" transform="translate(832 9648.532) rotate(180)">
          <circle id="Elipse_4713-2" data-name="Elipse 4713" cx="2.5" cy="2.5" r="2.5" transform="translate(285 1799.532)" fill="#f3ab1d"/>
          <circle id="Elipse_4717-2" data-name="Elipse 4717" cx="2.5" cy="2.5" r="2.5" transform="translate(285 1811.532)" fill="#f3ab1d"/>
          <circle id="Elipse_4719-2" data-name="Elipse 4719" cx="2.5" cy="2.5" r="2.5" transform="translate(285 1823.532)" fill="#f3ab1d"/>
          <circle id="Elipse_4715-2" data-name="Elipse 4715" cx="2.5" cy="2.5" r="2.5" transform="translate(297 1799.532)" fill="#f3ab1d"/>
          <circle id="Elipse_4720-2" data-name="Elipse 4720" cx="2.5" cy="2.5" r="2.5" transform="translate(308 1799.532)" fill="#f3ab1d"/>
          <circle id="Elipse_4716-2" data-name="Elipse 4716" cx="2.5" cy="2.5" r="2.5" transform="translate(297 1811.532)" fill="#f3ab1d"/>
          <circle id="Elipse_4721-2" data-name="Elipse 4721" cx="2.5" cy="2.5" r="2.5" transform="translate(308 1811.532)" fill="#f3ab1d"/>
          <circle id="Elipse_4718-2" data-name="Elipse 4718" cx="2.5" cy="2.5" r="2.5" transform="translate(297 1823.532)" fill="#f3ab1d"/>
          <circle id="Elipse_4722-2" data-name="Elipse 4722" cx="2.5" cy="2.5" r="2.5" transform="translate(308 1823.532)" fill="#f3ab1d"/>
        </g>
      </g>
      <g id="Grupo_874626" data-name="Grupo 874626" transform="translate(483 5409)">
        <circle id="Elipse_4723" data-name="Elipse 4723" cx="52.5" cy="52.5" r="52.5" transform="translate(475 2353)" fill="#fff"/>
        <path id="Trazado_596604" data-name="Trazado 596604" d="M46.62,0A46.62,46.62,0,1,1,0,46.62,46.62,46.62,0,0,1,46.62,0Z" transform="translate(480.88 2358.88)" fill="#d9e9f1" opacity="0.7"/>
      </g>
      <g id="Grupo_874627" data-name="Grupo 874627" transform="translate(1054.019 7829.184)">
        <g id="Grupo_151688" data-name="Grupo 151688" transform="translate(0 4.964)">
          <path id="Trazado_212295" data-name="Trazado 212295" d="M-11425.02-11468v9.927" transform="translate(11429.982 11467.997)" fill="none" stroke="#26779f" stroke-width="4"/>
          <path id="Trazado_212296" data-name="Trazado 212296" d="M0,0V9.926" transform="translate(9.926 4.963) rotate(90)" fill="none" stroke="#26779f" stroke-width="4"/>
        </g>
        <g id="Grupo_151689" data-name="Grupo 151689" transform="translate(12.905 0)">
          <path id="Trazado_212295-2" data-name="Trazado 212295" d="M-11425.02-11468v9.927" transform="translate(11429.982 11467.997)" fill="none" stroke="#26779f" stroke-width="4"/>
          <path id="Trazado_212296-2" data-name="Trazado 212296" d="M0,0V9.926" transform="translate(9.926 4.963) rotate(90)" fill="none" stroke="#26779f" stroke-width="4"/>
        </g>
        <g id="Grupo_151690" data-name="Grupo 151690" transform="translate(15.055 14.89)">
          <path id="Trazado_212295-3" data-name="Trazado 212295" d="M-11425.02-11468v9.927" transform="translate(11429.982 11467.997)" fill="none" stroke="#26779f" stroke-width="4"/>
          <path id="Trazado_212296-3" data-name="Trazado 212296" d="M0,0V9.926" transform="translate(9.926 4.963) rotate(90)" fill="none" stroke="#26779f" stroke-width="4"/>
        </g>
      </g>
    </g>
    <g id="mapa" transform="translate(-8675.718 -3950.24)">
      <g id="Grupo_874644" data-name="Grupo 874644" transform="translate(18.809 51.007)">
        <path id="Trazado_596691" data-name="Trazado 596691" d="M383.873,232.353,378.1,200.568a1.076,1.076,0,0,0-.536-.749l-14.521-8.076a1.074,1.074,0,0,0-.607-.131l2.642,34.079-.088.04,17.378,7.8a1.078,1.078,0,0,0,1.5-1.174Z" transform="translate(-329.266 -191.608)" fill="#44c868"/>
        <path id="Trazado_596692" data-name="Trazado 596692" d="M149.05,199.462,134.2,191.727a1.074,1.074,0,0,0-.57-.118,1.117,1.117,0,0,1,.155,0l-2.642,34.079,17.467,7.836a1.08,1.08,0,0,0,.441.095h0Z" transform="translate(-131.142 -191.607)" fill="#44c868"/>
      </g>
      <g id="Grupo_874645" data-name="Grupo 874645" transform="translate(0 51.008)">
        <path id="Trazado_596693" data-name="Trazado 596693" d="M21.451,191.613a1.075,1.075,0,0,0-.607.131L6.323,199.82a1.076,1.076,0,0,0-.536.749L.017,232.354a1.078,1.078,0,0,0,1.5,1.175L18.8,225.774Z" transform="translate(0 -191.61)" fill="#4ce166"/>
        <path id="Trazado_596694" data-name="Trazado 596694" d="M271.266,191.628a1.074,1.074,0,0,0-.415.117L256,199.48v34.158h0a1.077,1.077,0,0,0,.441-.095l17.467-7.836Z" transform="translate(-219.283 -191.625)" fill="#4ce166"/>
      </g>
      <path id="Trazado_596695" data-name="Trazado 596695" d="M21.155,268.866l-1.172,6.457,17.354-9.166.4-5.2.067-.862Z" transform="translate(-17.117 -199.267)" fill="#ffdb56"/>
      <path id="Trazado_596696" data-name="Trazado 596696" d="M20.376,288.294l-.156,2.015L2.866,299.475l-2.849,15.7a1.078,1.078,0,0,0,1.5,1.175L18.8,308.592l1.573-20.3Z" transform="translate(0 -223.419)" fill="#a8eefc"/>
      <g id="Grupo_874646" data-name="Grupo 874646" transform="translate(20.22 54.702)">
        <path id="Trazado_596697" data-name="Trazado 596697" d="M157.479,262.389,141.447,260.1l-.47,6.06,16.5,25.053V282.1l-9.844-15.5,9.849,1.178Z" transform="translate(-140.977 -253.969)" fill="#ffbb24"/>
        <path id="Trazado_596698" data-name="Trazado 596698" d="M378.848,221.25l-6.976-3.88-6.6,1.543.083,1.067.326,4.207Z" transform="translate(-333.1 -217.37)" fill="#ffbb24"/>
      </g>
      <path id="Trazado_596699" data-name="Trazado 596699" d="M272.692,240.957l-.625-8.068h0l-.369-4.762-15.668,6.878v5.387l10.234-4.451Z" transform="translate(-219.309 -171.883)" fill="#ffdb56"/>
      <path id="Trazado_596700" data-name="Trazado 596700" d="M388.738,295.13l-1.449-7.984L368.119,264.9l.586,7.555,19.659,23.7A1.076,1.076,0,0,0,388.738,295.13Z" transform="translate(-315.321 -203.379)" fill="#ffbb24"/>
      <path id="Trazado_596701" data-name="Trazado 596701" d="M166.438,27.465A15.088,15.088,0,0,0,151.361,42.53c0,5.138,2.44,10.655,7.251,16.4a51.532,51.532,0,0,0,7.166,7.043,1.079,1.079,0,0,0,1.319,0,51.537,51.537,0,0,0,7.166-7.043c4.812-5.742,7.251-11.258,7.251-16.4A15.088,15.088,0,0,0,166.438,27.465Zm5.584,15.064a5.584,5.584,0,1,1-5.584-5.579A5.581,5.581,0,0,1,172.022,42.529Z" transform="translate(-129.652)" fill="#ff4a4a"/>
      <path id="Trazado_596702" data-name="Trazado 596702" d="M244.867,27.465a15.161,15.161,0,0,0-1.945.125,15.091,15.091,0,0,1,13.132,14.94c0,5.138-2.44,10.655-7.251,16.4a53.922,53.922,0,0,1-5.881,5.976c.754.653,1.233,1.026,1.285,1.067a1.079,1.079,0,0,0,1.319,0,51.537,51.537,0,0,0,7.166-7.043c4.811-5.742,7.251-11.258,7.251-16.4A15.088,15.088,0,0,0,244.867,27.465Z" transform="translate(-208.081)" fill="#e7343f"/>
      <path id="Trazado_596703" data-name="Trazado 596703" d="M256.441,423.6l6.5-2.914L256,413.507v10.187h0A1.075,1.075,0,0,0,256.441,423.6Z" transform="translate(-219.283 -330.674)" fill="#ffdb56"/>
      <g id="Grupo_874647" data-name="Grupo 874647" transform="translate(18.809 58.582)">
        <path id="Trazado_596704" data-name="Trazado 596704" d="M382.968,245.8a1.076,1.076,0,0,0-.536-.749l-1.143-.636-13.17,2.937h0l19.17,22.248Z" transform="translate(-334.129 -244.42)" fill="#1ea4e9"/>
        <path id="Trazado_596705" data-name="Trazado 596705" d="M149.048,328.476h0V327.4l-16.5-25.053-1.411,18.2,17.467,7.836A1.078,1.078,0,0,0,149.048,328.476Z" transform="translate(-131.14 -294.038)" fill="#1ea4e9"/>
      </g>
    </g>
  </g>
</svg>
