<svg xmlns="http://www.w3.org/2000/svg" width="62.5" height="53.54" viewBox="0 0 62.5 53.54">
  <g id="computadora_1_" data-name="computadora(1)" transform="translate(-2.75 -7.23)">
    <g id="Grupo_874756" data-name="Grupo 874756">
      <path id="Trazado_597931" data-name="Trazado 597931" d="M41.35,19.75H7.1A4.353,4.353,0,0,0,2.75,24.1V48.38A4.353,4.353,0,0,0,7.1,52.74H41.35a4.355,4.355,0,0,0,4.35-4.36V24.1a4.353,4.353,0,0,0-4.35-4.35ZM26.05,49.49H22.4a1,1,0,0,1,0-2h3.65a1,1,0,0,1,0,2ZM41.7,44.91H6.75V23.75H41.7Z" fill="#e3f7f0"/>
      <path id="Trazado_597932" data-name="Trazado 597932" d="M35.289,58.77H32.36V54.74H16.09v4.03H13.158a1,1,0,0,0,0,2H35.289a1,1,0,1,0,0-2Z" fill="#e3f7f0"/>
    </g>
    <path id="Trazado_597933" data-name="Trazado 597933" d="M60.99,7.23H42.08a4.263,4.263,0,0,0-4.26,4.26v6.26h3.53a6.338,6.338,0,0,1,4.862,2.275H59.58a1,1,0,0,1,0,2H47.344A6.306,6.306,0,0,1,47.7,24.1v2.621H59.58a1,1,0,0,1,0,2H47.7v4.7H59.58a1,1,0,0,1,0,2H47.7V48.38a6.361,6.361,0,0,1-6.35,6.36H37.82v.77a4.263,4.263,0,0,0,4.26,4.26H60.99a4.264,4.264,0,0,0,4.26-4.26V11.49a4.263,4.263,0,0,0-4.26-4.26Zm-9.452,43.8a3.479,3.479,0,1,1,3.475-3.475A3.481,3.481,0,0,1,51.538,51.035ZM59.58,15.328H43.869a1,1,0,0,1,0-2H59.58a1,1,0,0,1,0,2Z" fill="#e3f7f0"/>
  </g>
</svg>
