<svg xmlns="http://www.w3.org/2000/svg" xmlns:xlink="http://www.w3.org/1999/xlink" width="190" height="170" viewBox="0 0 190 170">
  <defs>
    <clipPath id="clip-path">
      <rect id="Rect치ngulo_292000" data-name="Rect치ngulo 292000" width="190" height="170" transform="translate(1483 -10220)" fill="#1d5977"/>
    </clipPath>
  </defs>
  <g id="Grupo_876143" data-name="Grupo 876143" transform="translate(-1483 10552.979)">
    <rect id="Rect치ngulo_292034" data-name="Rect치ngulo 292034" width="134" height="134" transform="translate(1539 -10552.979)" fill="#fff"/>
    <g id="Enmascarar_grupo_73" data-name="Enmascarar grupo 73" transform="translate(0 -332.979)" clip-path="url(#clip-path)">
      <g id="producto" transform="translate(1493 -10220)">
        <path id="Trazado_599410" data-name="Trazado 599410" d="M59.5,56.667a22.582,22.582,0,0,0-6.394-15.742,16.961,16.961,0,0,1,18.289,3.6l3.966-4.045a22.585,22.585,0,0,0-27.2-3.4,22.624,22.624,0,0,0-33.994,19.59V68H2.833A2.833,2.833,0,0,0,0,70.833v96.333A2.833,2.833,0,0,0,2.833,170h59.5v-5.667h-34V73.667h8.5V85H42.5V73.667H62.333V68H59.5ZM16.524,148.594a2.945,2.945,0,0,0-4.715,0l-6.143,9.224V80.183L11.809,89.4a2.833,2.833,0,0,0,4.715,0l6.143-9.214v77.634Zm3.683,15.74H8.126l6.04-9.067Zm-6.04-81.6-6.04-9.067h12.08ZM19.833,68V56.667A16.98,16.98,0,0,1,43.228,40.925a22.582,22.582,0,0,0-6.394,15.742V68ZM42.5,56.667a16.941,16.941,0,0,1,5.667-12.634,16.941,16.941,0,0,1,5.667,12.634V68H42.5Zm0,0" fill="#1d5977"/>
        <path id="Trazado_599411" data-name="Trazado 599411" d="M90.383,38.1a2.842,2.842,0,0,0,.284-1.266V17H102V36.833a2.842,2.842,0,0,0,.284,1.266l17,34,5.072-2.532-16.689-33.4V2.833A2.833,2.833,0,0,0,104.833,0h-17A2.833,2.833,0,0,0,85,2.833V36.165l-16.7,33.4a2.828,2.828,0,0,0-.3,1.266v96.333A2.833,2.833,0,0,0,70.833,170H90.667v-5.667h-17V71.5ZM102,5.667v5.667H90.667V5.667Zm0,0" fill="#1d5977"/>
        <path id="Trazado_599412" data-name="Trazado 599412" d="M169.6,109.049,158.667,89.915V79.333a2.833,2.833,0,0,0-2.833-2.833H110.5a2.833,2.833,0,0,0-2.833,2.833V89.915l-10.96,19.168a2.81,2.81,0,0,0-.374,1.417v56.667A2.833,2.833,0,0,0,99.167,170h68A2.833,2.833,0,0,0,170,167.166V110.5a2.809,2.809,0,0,0-.4-1.451Zm-7.316-1.382h-12.9l6.451-11.288Zm-48.951-25.5H153v5.667H113.333ZM112.143,93.5h38.816l-8.1,14.167H104.04Zm29.523,70.833H102v-51h39.667Zm22.667,0h-17v-51h17Zm0,0" fill="#1d5977"/>
      </g>
    </g>
  </g>
</svg>
