<svg xmlns="http://www.w3.org/2000/svg" xmlns:xlink="http://www.w3.org/1999/xlink" width="85" height="85" viewBox="0 0 85 85">
  <defs>
    <linearGradient id="linear-gradient" x1="0.5" x2="0.5" y2="1" gradientUnits="objectBoundingBox">
      <stop offset="0" stop-color="#3185af"/>
      <stop offset="1" stop-color="#0c5376"/>
    </linearGradient>
  </defs>
  <g id="Grupo_876050" data-name="Grupo 876050" transform="translate(-285 -12939)">
    <circle id="Elipse_5596" data-name="Elipse 5596" cx="42.5" cy="42.5" r="42.5" transform="translate(285 12939)" fill="url(#linear-gradient)"/>
    <g id="layer1" transform="translate(300.395 12671.953)">
      <g id="Grupo_875998" data-name="Grupo 875998" transform="translate(2.32 313.797)">
        <path id="path9808" d="M3.034,292.766a.917.917,0,0,0,0,1.835h11a.917.917,0,0,0,0-1.835Z" transform="translate(1.593 -283.786)" fill="#e8e8e8"/>
        <path id="path9810" d="M2.005,295.659h9.173a.917.917,0,1,0,0-1.835H1.958A.918.918,0,1,0,2.005,295.659Z" transform="translate(-1.046 -281.175)" fill="#e8e8e8"/>
        <path id="path9812" d="M2.005,296.718H16.675a.917.917,0,0,0,0-1.835H1.958A.918.918,0,1,0,2.005,296.718Z" transform="translate(-1.046 -278.563)" fill="#e8e8e8"/>
        <path id="path9814" d="M5.706,295.659H7.541a.917.917,0,1,0,0-1.835H5.662a.918.918,0,1,0,.044,1.835Z" transform="translate(8.087 -281.175)" fill="#e8e8e8"/>
        <path id="path9816" d="M3.593,297.776h9.166a.917.917,0,0,0,0-1.835H3.546A.918.918,0,1,0,3.593,297.776Z" transform="translate(2.869 -275.954)" fill="#e8e8e8"/>
        <path id="path9818" d="M2.005,297.776H3.84a.917.917,0,0,0,0-1.835H1.958A.918.918,0,1,0,2.005,297.776Z" transform="translate(-1.046 -275.954)" fill="#e8e8e8"/>
        <path id="path9820" d="M30.315,290.175l-6.986,5.24L16,293.58l-7.69,5.761,1.1,1.469,6.986-5.24,7.338,1.835,7.683-5.768Z" transform="translate(16.859 -290.175)" fill="#33658a"/>
      </g>
      <path id="path17058" d="M8.593,294.354a.917.917,0,0,0-.921.914v5.5h5.5v-5.5a.917.917,0,0,0-.921-.914Z" transform="translate(17.613 33.928)" fill="#e6ff48"/>
      <path id="path17062" d="M10.7,293.3a.917.917,0,0,0-.914.921v9.166h5.5v-9.166a.917.917,0,0,0-.921-.921Z" transform="translate(22.834 31.319)" fill="#33b9ef"/>
      <path id="path17066" d="M12.821,293.825a.917.917,0,0,0-.914.914v7.338h5.5v-7.338a.917.917,0,0,0-.914-.914Z" transform="translate(28.055 32.623)" fill="#e6ff48"/>
      <path id="path17070" d="M14.943,292.237a.917.917,0,0,0-.921.921v12.835h5.5V293.158a.917.917,0,0,0-.914-.921Z" transform="translate(33.271 28.707)" fill="#33b9ef"/>
      <path id="path17074" d="M10.428,292.237a2.752,2.752,0,1,0,2.748,2.755A2.772,2.772,0,0,0,10.428,292.237Z" transform="translate(17.613 28.707)" fill="#ffbc42"/>
      <path id="path17078" d="M12.538,290.649a2.752,2.752,0,1,0,2.755,2.755A2.766,2.766,0,0,0,12.538,290.649Z" transform="translate(22.834 24.791)" fill="#ffbc42"/>
      <path id="path17082" d="M14.655,291.178a2.752,2.752,0,1,0,2.748,2.755A2.766,2.766,0,0,0,14.655,291.178Z" transform="translate(28.055 26.096)" fill="#ffbc42"/>
      <path id="path17086" d="M16.777,289.593a2.748,2.748,0,1,0,2.748,2.748A2.766,2.766,0,0,0,16.777,289.593Z" transform="translate(33.271 22.187)" fill="#ffbc42"/>
      <path id="path9838" d="M7.824,297.776H39a.917.917,0,0,0,0-1.835H7.78A.918.918,0,1,0,7.824,297.776Z" transform="translate(15.628 37.843)" fill="#afafaf"/>
      <path id="path9884" d="M13.089,284.829a.917.917,0,0,0,0,1.835h11a.917.917,0,0,0,0-1.835Z" transform="translate(28.708 10.439)" fill="#e8e8e8"/>
      <path id="path9886" d="M12.06,287.722h9.166a.917.917,0,0,0,0-1.835H12.012A.918.918,0,1,0,12.06,287.722Z" transform="translate(26.068 13.05)" fill="#e8e8e8"/>
      <path id="path9888" d="M12.06,288.78H26.729a.917.917,0,1,0,0-1.835H12.012A.918.918,0,1,0,12.06,288.78Z" transform="translate(26.068 15.659)" fill="#e8e8e8"/>
      <path id="path9890" d="M15.761,287.722H17.6a.917.917,0,0,0,0-1.835H15.717a.918.918,0,1,0,.044,1.835Z" transform="translate(35.201 13.05)" fill="#e8e8e8"/>
      <path id="path9892" d="M13.644,289.839h9.173a.917.917,0,0,0,0-1.835H13.6A.918.918,0,1,0,13.644,289.839Z" transform="translate(29.981 18.271)" fill="#e8e8e8"/>
      <g id="Grupo_876004" data-name="Grupo 876004" transform="translate(-8.705 271.596)">
        <circle id="Elipse_4923" data-name="Elipse 4923" cx="17.626" cy="17.626" r="17.626" transform="translate(0 24.923) rotate(-45)" fill="#60b7ff"/>
        <ellipse id="Elipse_4924" data-name="Elipse 4924" cx="15.436" cy="15.436" rx="15.436" ry="15.436" transform="translate(9.491 9.487)" fill="#8ac9fe"/>
        <path id="Trazado_213218" data-name="Trazado 213218" d="M108.609,113.991h17.626a17.618,17.618,0,0,1-8.812,15.266Z" transform="translate(-83.682 -89.068)" fill="#b1c43a" fill-rule="evenodd"/>
        <path id="Trazado_213219" data-name="Trazado 213219" d="M108.609,113.991h15.436a15.429,15.429,0,0,1-7.717,13.37Z" transform="translate(-83.682 -89.068)" fill="#e6ff48" fill-rule="evenodd"/>
        <path id="Trazado_213220" data-name="Trazado 213220" d="M126.235,27.007H108.609V9.381A17.626,17.626,0,0,1,126.235,27.007Z" transform="translate(-83.682 -2.084)" fill="#48a985" fill-rule="evenodd"/>
        <path id="Trazado_213221" data-name="Trazado 213221" d="M124.045,37.815H108.609V22.379A15.436,15.436,0,0,1,124.045,37.815Z" transform="translate(-83.682 -12.892)" fill="#5ad1a5" fill-rule="evenodd"/>
      </g>
      <path id="path9894" d="M12.06,289.839h1.835a.917.917,0,1,0,0-1.835H12.012A.918.918,0,1,0,12.06,289.839Z" transform="translate(26.068 18.271)" fill="#e8e8e8"/>
      <path id="path9804" d="M4.341,287.471a.917.917,0,0,0-.9.927V301.24a.917.917,0,1,0,1.835,0V288.4a.917.917,0,0,0-.934-.927Z" transform="translate(7.176 16.954)" fill="#fff"/>
      <path id="path9806" d="M8.325,282.182a.917.917,0,1,0,0,1.835H27.584v2.755a.917.917,0,0,0,1.835,0V283.1a.917.917,0,0,0-.921-.921Z" transform="translate(16.961 3.912)" fill="#fff"/>
    </g>
  </g>
</svg>
