<svg xmlns="http://www.w3.org/2000/svg" xmlns:xlink="http://www.w3.org/1999/xlink" width="190" height="170.155" viewBox="0 0 190 170.155">
  <defs>
    <clipPath id="clip-path">
      <rect id="Rect치ngulo_292006" data-name="Rect치ngulo 292006" width="190" height="170" transform="translate(1483 -11306.845)" fill="#1d5977"/>
    </clipPath>
  </defs>
  <g id="Grupo_876145" data-name="Grupo 876145" transform="translate(-1483 11639.979)">
    <rect id="Rect치ngulo_292036" data-name="Rect치ngulo 292036" width="134" height="134" transform="translate(1539 -11639.979)" fill="#fff"/>
    <g id="Enmascarar_grupo_75" data-name="Enmascarar grupo 75" transform="translate(0 -332.979)" clip-path="url(#clip-path)">
      <g id="desarrollo-web" transform="translate(1483 -11294.678)">
        <path id="Trazado_599431" data-name="Trazado 599431" d="M186.833,120.333H180.5V15.833A15.852,15.852,0,0,0,164.667,0H25.333A15.852,15.852,0,0,0,9.5,15.833v104.5H3.167A3.167,3.167,0,0,0,0,123.5v12.667a9.5,9.5,0,0,0,9.5,9.5h171a9.5,9.5,0,0,0,9.5-9.5V123.5A3.167,3.167,0,0,0,186.833,120.333Zm-171-88.667H85.5V25.333H15.833v-9.5a9.5,9.5,0,0,1,9.5-9.5H164.667a9.5,9.5,0,0,1,9.5,9.5v9.5h-19v6.333h19v88.667H15.833Zm66.5,95h25.333v3.167H82.333Zm101.333,9.5a3.167,3.167,0,0,1-3.167,3.167H9.5a3.167,3.167,0,0,1-3.167-3.167v-9.5H76v3.167a6.334,6.334,0,0,0,6.333,6.333h25.333A6.334,6.334,0,0,0,114,129.833v-3.167h69.667Zm0,0" fill="#1d5977"/>
        <path id="Trazado_599432" data-name="Trazado 599432" d="M28.5,12.667h6.333V19H28.5Zm0,0" fill="#1d5977"/>
        <path id="Trazado_599433" data-name="Trazado 599433" d="M41.167,12.667H47.5V19H41.167Zm0,0" fill="#1d5977"/>
        <path id="Trazado_599434" data-name="Trazado 599434" d="M53.833,12.667h6.333V19H53.833Zm0,0" fill="#1d5977"/>
        <path id="Trazado_599435" data-name="Trazado 599435" d="M69.667,57a19,19,0,1,0,19,19A19,19,0,0,0,69.667,57Zm0,31.667A12.667,12.667,0,1,1,82.333,76,12.667,12.667,0,0,1,69.667,88.667Zm0,0" fill="#1d5977"/>
        <path id="Trazado_599436" data-name="Trazado 599436" d="M105.134,66.563l-5.619-1.124a30.746,30.746,0,0,0-1.266-3.075l3.167-4.75a3.164,3.164,0,0,0-.4-4L92.058,44.65a3.164,3.164,0,0,0-3.992-.4l-4.75,3.167a31.6,31.6,0,0,0-3.072-1.266L79.1,40.533A3.168,3.168,0,0,0,76,38H63.334a3.168,3.168,0,0,0-3.1,2.533L59.1,46.152a31.6,31.6,0,0,0-3.072,1.266l-4.75-3.167a3.164,3.164,0,0,0-3.992.4l-8.971,8.962a3.164,3.164,0,0,0-.4,4l3.167,4.75a30.746,30.746,0,0,0-1.266,3.075L34.2,66.563a3.168,3.168,0,0,0-2.533,3.1V82.333a3.168,3.168,0,0,0,2.533,3.1l5.619,1.124a30.746,30.746,0,0,0,1.266,3.075l-3.167,4.75a3.164,3.164,0,0,0,.4,4l8.962,8.968a3.164,3.164,0,0,0,3.992.4l4.75-3.167a31.6,31.6,0,0,0,3.072,1.266l1.14,5.622a3.168,3.168,0,0,0,3.1,2.533H76a3.168,3.168,0,0,0,3.1-2.533l1.127-5.619a31.6,31.6,0,0,0,3.072-1.266l4.75,3.167a3.164,3.164,0,0,0,3.992-.4l8.971-8.962a3.164,3.164,0,0,0,.4-4l-3.167-4.75a30.746,30.746,0,0,0,1.266-3.075l5.622-1.133a3.168,3.168,0,0,0,2.533-3.1V69.667a3.168,3.168,0,0,0-2.533-3.1Zm-3.8,13.174-4.9.982a3.163,3.163,0,0,0-2.423,2.234,25.146,25.146,0,0,1-2.217,5.353,3.165,3.165,0,0,0,.133,3.292l2.765,4.149L89.4,101.035l-4.149-2.766a3.165,3.165,0,0,0-3.3-.13,25.126,25.126,0,0,1-5.345,2.216,3.169,3.169,0,0,0-2.236,2.423l-.968,4.889H65.927l-.979-4.9a3.163,3.163,0,0,0-2.234-2.423,25.051,25.051,0,0,1-5.345-2.217,3.168,3.168,0,0,0-3.3.13l-4.149,2.768-5.27-5.276L47.415,91.6a3.165,3.165,0,0,0,.133-3.292,25.146,25.146,0,0,1-2.217-5.353,3.163,3.163,0,0,0-2.423-2.234L38,79.737V72.263l4.9-.982a3.163,3.163,0,0,0,2.423-2.234,25.145,25.145,0,0,1,2.217-5.353,3.165,3.165,0,0,0-.133-3.292l-2.765-4.149,5.285-5.288,4.149,2.766a3.165,3.165,0,0,0,3.3.13,25.126,25.126,0,0,1,5.345-2.216,3.169,3.169,0,0,0,2.236-2.423l.968-4.889h7.481l.979,4.9a3.163,3.163,0,0,0,2.234,2.423,25.051,25.051,0,0,1,5.345,2.217,3.168,3.168,0,0,0,3.3-.13l4.149-2.768L94.7,56.266l-2.763,4.149a3.164,3.164,0,0,0-.133,3.293,25.176,25.176,0,0,1,2.216,5.351,3.169,3.169,0,0,0,2.423,2.236l4.892.968Zm0,0" fill="#1d5977"/>
        <path id="Trazado_599437" data-name="Trazado 599437" d="M120.333,44.333a12.667,12.667,0,1,1-5.067,24.279l-2.533,5.8A19,19,0,1,0,102.917,49.4l5.8,2.533a12.663,12.663,0,0,1,11.615-7.6Zm0,0" fill="#1d5977"/>
        <path id="Trazado_599438" data-name="Trazado 599438" d="M155.8,47.563l-5.619-1.124a30.746,30.746,0,0,0-1.266-3.075l3.167-4.75a3.164,3.164,0,0,0-.4-4l-8.962-8.968a3.164,3.164,0,0,0-3.992-.4l-4.75,3.167a31.6,31.6,0,0,0-3.072-1.266l-1.14-5.622a3.168,3.168,0,0,0-3.1-2.533H114a3.168,3.168,0,0,0-3.1,2.533l-1.127,5.619a31.6,31.6,0,0,0-3.072,1.266l-4.75-3.167a3.164,3.164,0,0,0-3.992.4l-8.971,8.962,4.478,4.476,7.122-7.12,4.149,2.766a3.165,3.165,0,0,0,3.3.13,25.126,25.126,0,0,1,5.345-2.216,3.165,3.165,0,0,0,2.234-2.423l.982-4.889h7.481l.979,4.9a3.163,3.163,0,0,0,2.234,2.423,25.051,25.051,0,0,1,5.345,2.217,3.168,3.168,0,0,0,3.3-.13l4.149-2.768,5.285,5.288L142.6,41.414a3.164,3.164,0,0,0-.133,3.293,25.175,25.175,0,0,1,2.216,5.351,3.169,3.169,0,0,0,2.423,2.236l4.892.968v7.474l-4.9.982a3.163,3.163,0,0,0-2.423,2.234,25.146,25.146,0,0,1-2.217,5.353,3.165,3.165,0,0,0,.133,3.292l2.765,4.149-5.285,5.288-4.149-2.766a3.165,3.165,0,0,0-3.3-.13,25.126,25.126,0,0,1-5.345,2.216,3.169,3.169,0,0,0-2.236,2.423l-.968,4.889h-7.481l-.979-4.9L109.4,85.01l1.492,7.457A3.168,3.168,0,0,0,114,95h12.667a3.168,3.168,0,0,0,3.1-2.533l1.127-5.619a31.6,31.6,0,0,0,3.072-1.266l4.75,3.167a3.164,3.164,0,0,0,3.992-.4l8.971-8.962a3.164,3.164,0,0,0,.4-4l-3.167-4.75a30.746,30.746,0,0,0,1.266-3.075l5.622-1.133a3.168,3.168,0,0,0,2.533-3.1V50.667a3.168,3.168,0,0,0-2.533-3.1Zm0,0" fill="#1d5977"/>
      </g>
    </g>
  </g>
</svg>
