<svg xmlns="http://www.w3.org/2000/svg" xmlns:xlink="http://www.w3.org/1999/xlink" width="190" height="170.26" viewBox="0 0 190 170.26">
  <defs>
    <clipPath id="clip-path">
      <rect id="Rect치ngulo_292007" data-name="Rect치ngulo 292007" width="190" height="170" transform="translate(1483 -11867.74)" fill="#1d5977"/>
    </clipPath>
  </defs>
  <g id="Grupo_876146" data-name="Grupo 876146" transform="translate(-1483 12200.979)">
    <rect id="Rect치ngulo_292037" data-name="Rect치ngulo 292037" width="134" height="134" transform="translate(1539 -12200.979)" fill="#fff"/>
    <g id="Enmascarar_grupo_76" data-name="Enmascarar grupo 76" transform="translate(0 -332.979)" clip-path="url(#clip-path)">
      <g id="finanzas_1_" data-name="finanzas(1)" transform="translate(1483 -11877.74)">
        <path id="Trazado_599439" data-name="Trazado 599439" d="M61.523,49.564c-.384-.136-.775-.276-1.167-.421V41.253a13.516,13.516,0,0,1,3.374,1.01,2.783,2.783,0,0,0,2.486-4.98,18.879,18.879,0,0,0-5.86-1.637v-.993a2.783,2.783,0,0,0-5.566,0v1.381c-.1.027-.193.051-.29.081a8.77,8.77,0,0,0-6.017,6.873,7.818,7.818,0,0,0,2.593,7.7,18.6,18.6,0,0,0,3.714,2.19V63.087a7.844,7.844,0,0,1-2.969-1.354,2.783,2.783,0,0,0-3.047,4.658A12.576,12.576,0,0,0,54.789,68.7v1.345a2.783,2.783,0,0,0,5.566,0V68.427a10.546,10.546,0,0,0,7.483-8.343,9.3,9.3,0,0,0-6.316-10.52ZM54.511,46.3a2.371,2.371,0,0,1-.558-2.287A3.653,3.653,0,0,1,54.79,42.3v4.213C54.694,46.443,54.6,46.374,54.511,46.3ZM62.35,59.16a5,5,0,0,1-1.994,3.2V55.113A3.655,3.655,0,0,1,62.35,59.16Z" fill="#1d5977"/>
        <path id="Trazado_599440" data-name="Trazado 599440" d="M135.857,39.247a2.783,2.783,0,0,0,0-5.566H103.421a2.783,2.783,0,1,0,0,5.566Z" fill="#1d5977"/>
        <path id="Trazado_599441" data-name="Trazado 599441" d="M89.505,50.046a2.783,2.783,0,0,0,2.783,2.783h43.568a2.783,2.783,0,0,0,0-5.566H92.288A2.783,2.783,0,0,0,89.505,50.046Z" fill="#1d5977"/>
        <path id="Trazado_599442" data-name="Trazado 599442" d="M92.288,66.411h43.568a2.783,2.783,0,0,0,0-5.566H92.288a2.783,2.783,0,0,0,0,5.566Z" fill="#1d5977"/>
        <path id="Trazado_599443" data-name="Trazado 599443" d="M49.813,120.287a4.828,4.828,0,0,0-4.823,4.823V151.7a4.828,4.828,0,0,0,4.823,4.823h17.35a4.828,4.828,0,0,0,4.823-4.823V125.11a4.828,4.828,0,0,0-4.823-4.823ZM66.42,150.959H50.557V125.853H66.42Z" fill="#1d5977"/>
        <path id="Trazado_599444" data-name="Trazado 599444" d="M81.5,117.688V151.7a4.828,4.828,0,0,0,4.823,4.823h17.35A4.828,4.828,0,0,0,108.5,151.7V117.688a4.828,4.828,0,0,0-4.823-4.823H86.325A4.828,4.828,0,0,0,81.5,117.688Zm5.566.744h15.863v32.527H87.068Z" fill="#1d5977"/>
        <path id="Trazado_599445" data-name="Trazado 599445" d="M183.795,113.9a7.378,7.378,0,0,0,.272-1.964v-5.306a7.428,7.428,0,0,0-5.5-7.161,7.391,7.391,0,0,0,.311-2.115V92.044a7.391,7.391,0,0,0-.311-2.115,7.429,7.429,0,0,0,5.5-7.161V77.462a7.43,7.43,0,0,0-7.422-7.422H159.5v-47.8a5.79,5.79,0,0,0-5.783-5.783H76.325a2.783,2.783,0,0,0,0,5.566h77.389a.217.217,0,0,1,.217.217V167.76a.217.217,0,0,1-.217.217H36.286a.217.217,0,0,1-.217-.217V22.241a.217.217,0,0,1,.217-.217H65.2a2.783,2.783,0,0,0,0-5.566H36.286A5.79,5.79,0,0,0,30.5,22.241V84.623H13.355a7.43,7.43,0,0,0-7.422,7.422v5.306a7.391,7.391,0,0,0,.272,1.963A7.426,7.426,0,0,0,0,106.626v5.306a7.427,7.427,0,0,0,6.205,7.313,7.378,7.378,0,0,0-.272,1.964v5.306a7.4,7.4,0,0,0,.272,1.964A7.426,7.426,0,0,0,0,135.791V141.1a7.384,7.384,0,0,0,1.637,4.638A7.382,7.382,0,0,0,0,150.374v5.306A7.43,7.43,0,0,0,7.422,163.1h4.449a2.783,2.783,0,1,0,0-5.566H7.422a1.857,1.857,0,0,1-1.855-1.855v-5.306a1.857,1.857,0,0,1,1.855-1.855H30.5v9.016H23a2.783,2.783,0,1,0,0,5.566h7.5v4.658a5.79,5.79,0,0,0,5.783,5.783H153.714a5.79,5.79,0,0,0,5.783-5.783V163.1h17.148a7.43,7.43,0,0,0,7.422-7.422v-5.306a7.382,7.382,0,0,0-1.637-4.638,7.381,7.381,0,0,0,1.637-4.638v-5.306a7.391,7.391,0,0,0-.272-1.963A7.427,7.427,0,0,0,190,126.514v-5.306A7.427,7.427,0,0,0,183.795,113.9ZM11.5,126.515v-5.306a1.857,1.857,0,0,1,1.855-1.855H30.5v9.016H13.355A1.857,1.857,0,0,1,11.5,126.515Zm0-34.471a1.857,1.857,0,0,1,1.855-1.855H30.5v9.016H13.355A1.857,1.857,0,0,1,11.5,97.351ZM5.566,111.933v-5.306a1.857,1.857,0,0,1,1.855-1.855H30.5v9.016H7.421a1.857,1.857,0,0,1-1.855-1.855Zm1.855,31.02A1.857,1.857,0,0,1,5.566,141.1v-5.306a1.857,1.857,0,0,1,1.855-1.855H30.5v9.016ZM178.5,135.791V141.1a1.857,1.857,0,0,1-1.855,1.855H159.5v-9.016h17.148a1.857,1.857,0,0,1,1.855,1.855Zm-5.191-43.747v5.306a1.857,1.857,0,0,1-1.855,1.855H159.5V90.19h11.956A1.857,1.857,0,0,1,173.309,92.044ZM159.5,104.772h17.148a1.857,1.857,0,0,1,1.855,1.855v5.306a1.857,1.857,0,0,1-1.855,1.855H159.5Zm17.148-29.165a1.857,1.857,0,0,1,1.855,1.855v5.306a1.857,1.857,0,0,1-1.855,1.855H159.5V75.607ZM178.5,155.68a1.857,1.857,0,0,1-1.855,1.855H159.5v-9.016h17.148a1.857,1.857,0,0,1,1.855,1.855Zm5.933-29.165a1.857,1.857,0,0,1-1.855,1.855H159.5v-9.016h23.081a1.857,1.857,0,0,1,1.855,1.855Z" fill="#1d5977"/>
        <path id="Trazado_599446" data-name="Trazado 599446" d="M142.227,131.915a2.783,2.783,0,0,0,2.783-2.783V102.844a4.828,4.828,0,0,0-4.823-4.823h-17.35a4.828,4.828,0,0,0-4.823,4.823V151.7a4.828,4.828,0,0,0,4.823,4.823h17.35a4.828,4.828,0,0,0,4.823-4.823V140.259a2.783,2.783,0,0,0-5.566,0v10.7H123.58V103.588h15.863v25.544a2.783,2.783,0,0,0,2.783,2.783Z" fill="#1d5977"/>
      </g>
    </g>
  </g>
</svg>
