<svg xmlns="http://www.w3.org/2000/svg" xmlns:xlink="http://www.w3.org/1999/xlink" width="166" height="125" viewBox="0 0 166 125">
  <defs>
    <clipPath id="clip-path">
      <path id="Trazado_596607" data-name="Trazado 596607" d="M55.5-3.634c30.652,0,58.056,24.51,58.056,55.162S86.152,111,55.5,111A55.5,55.5,0,0,1,0,55.5C0,24.848,24.848-3.634,55.5-3.634Z" transform="translate(1007 2360)" fill="#f2f5d1" opacity="0.7"/>
    </clipPath>
  </defs>
  <g id="Grupo_874635" data-name="Grupo 874635" transform="translate(-978 -2353)">
    <g id="Grupo_874633" data-name="Grupo 874633" transform="translate(457.597 -5409.061)">
      <rect id="Rectángulo_291466" data-name="Rectángulo 291466" width="166" height="90" transform="translate(520.404 7782.06)" fill="none"/>
      <g id="Grupo_874624" data-name="Grupo 874624" transform="translate(520.404 7789.614)">
        <g id="Grupo_874620" data-name="Grupo 874620" transform="translate(33.466 33.466) rotate(180)">
          <ellipse id="Elipse_4713" data-name="Elipse 4713" cx="2.5" cy="3" rx="2.5" ry="3" transform="translate(0.466 0.021)" fill="#f3ab1d"/>
          <ellipse id="Elipse_4717" data-name="Elipse 4717" cx="2.5" cy="3" rx="2.5" ry="3" transform="translate(0.466 14.021)" fill="#f3ab1d"/>
          <circle id="Elipse_4719" data-name="Elipse 4719" cx="2.5" cy="2.5" r="2.5" transform="translate(0.466 28.021)" fill="#f3ab1d"/>
          <circle id="Elipse_4715" data-name="Elipse 4715" cx="3" cy="3" r="3" transform="translate(14.466 0.021)" fill="#f3ab1d"/>
          <circle id="Elipse_4720" data-name="Elipse 4720" cx="3" cy="3" r="3" transform="translate(27.466 0.021)" fill="#f3ab1d"/>
          <circle id="Elipse_4716" data-name="Elipse 4716" cx="3" cy="3" r="3" transform="translate(14.466 14.021)" fill="#f3ab1d"/>
          <circle id="Elipse_4721" data-name="Elipse 4721" cx="3" cy="3" r="3" transform="translate(27.466 14.021)" fill="#f3ab1d"/>
          <ellipse id="Elipse_4718" data-name="Elipse 4718" cx="3" cy="2.5" rx="3" ry="2.5" transform="translate(14.466 28.021)" fill="#f3ab1d"/>
          <ellipse id="Elipse_4722" data-name="Elipse 4722" cx="3" cy="2.5" rx="3" ry="2.5" transform="translate(27.466 28.021)" fill="#f3ab1d"/>
        </g>
        <g id="Grupo_874621" data-name="Grupo 874621" transform="translate(33.466 76.776) rotate(180)">
          <ellipse id="Elipse_4713-2" data-name="Elipse 4713" cx="2.5" cy="3" rx="2.5" ry="3" transform="translate(0.466 0.329)" fill="#f3ab1d"/>
          <ellipse id="Elipse_4717-2" data-name="Elipse 4717" cx="2.5" cy="3" rx="2.5" ry="3" transform="translate(0.466 14.329)" fill="#f3ab1d"/>
          <ellipse id="Elipse_4719-2" data-name="Elipse 4719" cx="2.5" cy="3" rx="2.5" ry="3" transform="translate(0.466 28.329)" fill="#f3ab1d"/>
          <circle id="Elipse_4715-2" data-name="Elipse 4715" cx="3" cy="3" r="3" transform="translate(14.466 0.329)" fill="#f3ab1d"/>
          <circle id="Elipse_4720-2" data-name="Elipse 4720" cx="3" cy="3" r="3" transform="translate(27.466 0.329)" fill="#f3ab1d"/>
          <circle id="Elipse_4716-2" data-name="Elipse 4716" cx="3" cy="3" r="3" transform="translate(14.466 14.329)" fill="#f3ab1d"/>
          <circle id="Elipse_4721-2" data-name="Elipse 4721" cx="3" cy="3" r="3" transform="translate(27.466 14.329)" fill="#f3ab1d"/>
          <circle id="Elipse_4718-2" data-name="Elipse 4718" cx="3" cy="3" r="3" transform="translate(14.466 28.329)" fill="#f3ab1d"/>
          <circle id="Elipse_4722-2" data-name="Elipse 4722" cx="3" cy="3" r="3" transform="translate(27.466 28.329)" fill="#f3ab1d"/>
        </g>
      </g>
    </g>
    <g id="Grupo_156377" data-name="Grupo 156377">
      <circle id="Elipse_4724" data-name="Elipse 4724" cx="62.5" cy="62.5" r="62.5" transform="translate(1000 2353)" fill="#fff"/>
      <circle id="Elipse_4738" data-name="Elipse 4738" cx="55.5" cy="55.5" r="55.5" transform="translate(1007 2360)" fill="#f2f5d1" opacity="0.7"/>
      <g id="Enmascarar_grupo_55" data-name="Enmascarar grupo 55" clip-path="url(#clip-path)">
        <g id="mano" transform="translate(1004.5 2369.669)">
          <path id="Trazado_596578" data-name="Trazado 596578" d="M79.2,20.584l-35.566-9.53L37.131,35.338a10.519,10.519,0,0,0,.047,5.616l2.01,7.027-13.1,48.893H58.762L69.674,56.15" transform="translate(17.77 5.816)" fill="#b37555"/>
          <path id="Trazado_596579" data-name="Trazado 596579" d="M37.067,11.054,34.81,19.481a8.674,8.674,0,0,0,4.616,3.1,8.8,8.8,0,0,0,2.271.3,8.683,8.683,0,0,0,3.279-.666A8.725,8.725,0,0,0,60.324,19.1l.454-1.694Z" transform="translate(24.341 5.816)" fill="#aa6440"/>
          <path id="Trazado_596580" data-name="Trazado 596580" d="M42.259,36.87a10.489,10.489,0,0,0-2.21-4.586l1.414-5.279a8.706,8.706,0,0,0-3.33-9.353L34.726,30.365a10.517,10.517,0,0,0,.047,5.616l2.01,7.028-.243.9,0,.018a3.535,3.535,0,0,1-.048,1.611L32.881,59.037A6.934,6.934,0,0,1,31.963,61L29.28,71.011l1.747-.654a14.054,14.054,0,0,0,8.627-9.5l3.617-13.5a10.585,10.585,0,0,0,.145-4.832Z" transform="translate(20.175 10.787)" fill="#aa6440"/>
          <path id="Trazado_596581" data-name="Trazado 596581" d="M62.65,32.3a5.26,5.26,0,0,0-3.719-6.442L53.85,24.495a8.767,8.767,0,0,1-6.2-10.737,1.753,1.753,0,0,1,2.147-1.24l-4.769-1.278a5.189,5.189,0,0,0-.766,1.609,12.287,12.287,0,0,0,8.679,15.032l3.589.962a14.084,14.084,0,0,0-3.618,1.467,13.938,13.938,0,0,0-6.535,8.518l-.908,3.387a1.753,1.753,0,1,0,3.387.908v0l.907-3.385A10.52,10.52,0,0,1,62.65,32.3Z" transform="translate(31.147 5.956)" fill="#aa6440"/>
          <rect id="Rectángulo_44533" data-name="Rectángulo 44533" width="10.52" height="24.547" rx="3" transform="translate(86.275 5.395) rotate(15.009)" fill="#be8265"/>
          <rect id="Rectángulo_44534" data-name="Rectángulo 44534" width="10.52" height="22.794" rx="3" transform="translate(95.982 9.812) rotate(15.009)" fill="#be8265"/>
          <rect id="Rectángulo_44535" data-name="Rectángulo 44535" width="10.52" height="22.794" rx="3" transform="translate(75.658 4.366) rotate(15.009)" fill="#be8265"/>
          <rect id="Rectángulo_44536" data-name="Rectángulo 44536" width="10.52" height="21.04" rx="3" transform="translate(65.042 3.334) rotate(15.009)" fill="#be8265"/>
          <g id="Grupo_156374" data-name="Grupo 156374" transform="translate(60.763 4.492)">
            <path id="Trazado_596582" data-name="Trazado 596582" d="M54.529,9.986,50.9,23.535a5.245,5.245,0,0,0,2.109,5.677,5.21,5.21,0,0,1-5.5-6.585L51.141,9.079a5.209,5.209,0,0,1,8.052-2.955,5.244,5.244,0,0,0-4.665,3.862Z" transform="translate(-26.997 -3.11)" fill="#b37555"/>
            <path id="Trazado_596583" data-name="Trazado 596583" d="M59.871,12.505,56.695,24.36A5.245,5.245,0,0,0,58.8,30.038a5.21,5.21,0,0,1-5.5-6.585L56.484,11.6a5.209,5.209,0,0,1,8.053-2.954,5.245,5.245,0,0,0-4.666,3.862Z" transform="translate(-22.631 -1.213)" fill="#b37555"/>
            <path id="Trazado_596584" data-name="Trazado 596584" d="M48.28,9.4,45.1,21.254a5.245,5.245,0,0,0,2.109,5.677,5.21,5.21,0,0,1-5.5-6.585L44.893,8.491a5.21,5.21,0,0,1,8.052-2.955A5.245,5.245,0,0,0,48.28,9.4Z" transform="translate(-31.364 -3.553)" fill="#b37555"/>
            <path id="Trazado_596585" data-name="Trazado 596585" d="M42.031,8.812,39.308,18.973a5.244,5.244,0,0,0,2.109,5.677,5.209,5.209,0,0,1-5.5-6.585L38.644,7.9A5.21,5.21,0,0,1,46.7,4.95a5.245,5.245,0,0,0-4.665,3.862Z" transform="translate(-35.73 -3.994)" fill="#b37555"/>
            <path id="Trazado_596586" data-name="Trazado 596586" d="M47.352,42.6l.908-3.387a10.52,10.52,0,0,1,12.884-7.439,5.26,5.26,0,0,0-3.72-6.442l-5.08-1.361a8.767,8.767,0,0,1-6.2-10.737A1.753,1.753,0,0,1,48.292,12l19.524,5.231a7.013,7.013,0,0,1,5.056,5.368l1.157,5.655a7.013,7.013,0,0,1-.1,3.221L70.316,44.965a10.52,10.52,0,0,1-6.471,7.129l-9.054,3.392" transform="translate(-28.11 1.988)" fill="#b37555"/>
          </g>
          <path id="Trazado_596587" data-name="Trazado 596587" d="M50.448,31.584l-35.566-9.53L8.375,46.337a10.52,10.52,0,0,0,.047,5.616l2.01,7.028L2.5,88.587H35.174L40.918,67.15" transform="translate(0 14.102)" fill="#efd0b5"/>
          <path id="Trazado_596588" data-name="Trazado 596588" d="M10.532,22.054,8.274,30.481a8.673,8.673,0,0,0,4.616,3.1,8.8,8.8,0,0,0,2.271.3,8.688,8.688,0,0,0,3.279-.666A8.673,8.673,0,0,0,23.051,36.3a8.763,8.763,0,0,0,10.737-6.2l.454-1.694Z" transform="translate(4.35 14.102)" fill="#ebc3a0"/>
          <path id="Trazado_596589" data-name="Trazado 596589" d="M36.114,43.3a5.26,5.26,0,0,0-3.719-6.442L27.314,35.5a8.767,8.767,0,0,1-6.2-10.737,1.753,1.753,0,0,1,2.148-1.24L18.493,22.24a5.185,5.185,0,0,0-.766,1.609,12.287,12.287,0,0,0,8.679,15.032L30,39.844a14.088,14.088,0,0,0-3.618,1.467,13.938,13.938,0,0,0-6.535,8.518l-.908,3.387a1.753,1.753,0,1,0,3.387.908v0l.907-3.385A10.52,10.52,0,0,1,36.114,43.3Z" transform="translate(11.157 14.243)" fill="#ebc3a0"/>
          <rect id="Rectángulo_44537" data-name="Rectángulo 44537" width="10.52" height="24.547" rx="3" transform="translate(39.741 24.674) rotate(15.009)" fill="#f7dcc8"/>
          <rect id="Rectángulo_44538" data-name="Rectángulo 44538" width="10.52" height="22.794" rx="3" transform="translate(49.449 29.093) rotate(15.009)" fill="#f7dcc8"/>
          <rect id="Rectángulo_44539" data-name="Rectángulo 44539" width="10.52" height="22.794" rx="3" transform="translate(29.124 23.644) rotate(15.009)" fill="#f7dcc8"/>
          <rect id="Rectángulo_44540" data-name="Rectángulo 44540" width="10.52" height="21.04" rx="3" transform="translate(18.508 22.613) rotate(15.009)" fill="#f7dcc8"/>
          <path id="Trazado_596590" data-name="Trazado 596590" d="M27.993,20.986,24.364,34.535a5.245,5.245,0,0,0,2.109,5.677,5.21,5.21,0,0,1-5.5-6.585l3.63-13.549a5.21,5.21,0,0,1,8.052-2.955,5.245,5.245,0,0,0-4.666,3.862Z" transform="translate(13.776 9.668)" fill="#efd0b5"/>
          <path id="Trazado_596591" data-name="Trazado 596591" d="M33.331,23.5,30.154,35.36a5.245,5.245,0,0,0,2.109,5.677,5.208,5.208,0,0,1-1.777-.143,5.26,5.26,0,0,1-3.719-6.442L29.944,22.6A5.209,5.209,0,0,1,38,19.643,5.245,5.245,0,0,0,33.331,23.5Z" transform="translate(18.146 11.566)" fill="#efd0b5"/>
          <path id="Trazado_596592" data-name="Trazado 596592" d="M21.745,20.4,18.567,32.253a5.245,5.245,0,0,0,2.109,5.677,5.21,5.21,0,0,1-5.5-6.585l3.177-11.855a5.21,5.21,0,0,1,8.052-2.955A5.245,5.245,0,0,0,21.745,20.4Z" transform="translate(9.409 9.226)" fill="#efd0b5"/>
          <path id="Trazado_596593" data-name="Trazado 596593" d="M15.5,19.812,12.772,29.974a5.244,5.244,0,0,0,2.109,5.677,5.209,5.209,0,0,1-5.5-6.585L12.108,18.9A5.21,5.21,0,0,1,20.16,15.95,5.244,5.244,0,0,0,15.5,19.812Z" transform="translate(5.043 8.784)" fill="#efd0b5"/>
          <path id="Trazado_596594" data-name="Trazado 596594" d="M20.816,53.6l.908-3.387a10.52,10.52,0,0,1,12.884-7.439,5.26,5.26,0,0,0-3.719-6.442l-5.081-1.361a8.767,8.767,0,0,1-6.2-10.737,1.753,1.753,0,0,1,2.147-1.24l19.524,5.231a7.013,7.013,0,0,1,5.056,5.368l1.157,5.655a7.016,7.016,0,0,1-.1,3.221L43.781,55.965a10.52,10.52,0,0,1-6.471,7.129l-9.055,3.392" transform="translate(12.663 14.766)" fill="#efd0b5"/>
        </g>
      </g>
    </g>
    <g id="Grupo_874634" data-name="Grupo 874634" transform="translate(1113.615 2433.084)">
      <g id="Grupo_151688" data-name="Grupo 151688" transform="translate(0 5.921)">
        <path id="Trazado_212295" data-name="Trazado 212295" d="M-11425.02-11468v11.842" transform="translate(11430.939 11467.996)" fill="none" stroke="#26779f" stroke-width="4"/>
        <path id="Trazado_212296" data-name="Trazado 212296" d="M0,0V11.841" transform="translate(11.841 5.921) rotate(90)" fill="none" stroke="#26779f" stroke-width="4"/>
      </g>
      <g id="Grupo_151689" data-name="Grupo 151689" transform="translate(15.394 0)">
        <path id="Trazado_212295-2" data-name="Trazado 212295" d="M-11425.02-11468v11.842" transform="translate(11430.939 11467.996)" fill="none" stroke="#26779f" stroke-width="4"/>
        <path id="Trazado_212296-2" data-name="Trazado 212296" d="M0,0V11.841" transform="translate(11.841 5.921) rotate(90)" fill="none" stroke="#26779f" stroke-width="4"/>
      </g>
      <g id="Grupo_151690" data-name="Grupo 151690" transform="translate(17.959 17.762)">
        <path id="Trazado_212295-3" data-name="Trazado 212295" d="M-11425.02-11468v11.842" transform="translate(11430.939 11467.996)" fill="none" stroke="#26779f" stroke-width="4"/>
        <path id="Trazado_212296-3" data-name="Trazado 212296" d="M0,0V11.841" transform="translate(11.841 5.921) rotate(90)" fill="none" stroke="#26779f" stroke-width="4"/>
      </g>
    </g>
  </g>
</svg>
