<svg xmlns="http://www.w3.org/2000/svg" xmlns:xlink="http://www.w3.org/1999/xlink" width="190" height="170" viewBox="0 0 190 170">
  <defs>
    <clipPath id="clip-path">
      <rect id="Rect치ngulo_292008" data-name="Rect치ngulo 292008" width="190" height="170" transform="translate(1483 -12397.585)" fill="#1d5977"/>
    </clipPath>
  </defs>
  <g id="Grupo_876147" data-name="Grupo 876147" transform="translate(-1483 12743.979)">
    <rect id="Rect치ngulo_292038" data-name="Rect치ngulo 292038" width="134" height="134" transform="translate(1539 -12743.979)" fill="#fff"/>
    <g id="Enmascarar_grupo_77" data-name="Enmascarar grupo 77" transform="translate(0 -346.395)" clip-path="url(#clip-path)">
      <g id="gente-junta" transform="translate(1493.045 -12397.499)">
        <path id="Trazado_599447" data-name="Trazado 599447" d="M111.537,127.175l-14.654-4.237v-7.811c3.989-3.686,6.182-8.13,6.182-12.587V96.635c1.682-1.552,5.081-4.914,6.453-7.923,6.5-14.258-2.344-23.779-2.723-24.178a2.667,2.667,0,0,0-3.938.106c-.022.025-2.217,2.481-4.274,2.07a30.275,30.275,0,0,1-3.924-1.161,38.237,38.237,0,0,0-13.885-2.466c-15.46,0-20.358,7.675-21.745,14.114-2.253,10.462,4.516,17.242,7.381,19.58v5.768c0,4.521,2.246,9.03,6.326,12.746v7.666l-14.61,4.225a13.909,13.909,0,0,0-9.992,13.315l.247,26.79a2.655,2.655,0,0,0,2.655,2.63h.025a2.655,2.655,0,0,0,2.63-2.679l-.247-26.765a8.566,8.566,0,0,1,6.156-8.193l14.137-4.088a12.392,12.392,0,0,0,11.494,7.3A11.1,11.1,0,0,0,96.1,128.238l13.963,4.038a8.574,8.574,0,0,1,6.158,8.214l.247,26.79a2.655,2.655,0,0,0,2.655,2.63h.025a2.655,2.655,0,0,0,2.63-2.679l-.247-26.765a13.9,13.9,0,0,0-9.993-13.29ZM64.22,78.312c1.418-6.584,6.988-9.923,16.554-9.923a32.757,32.757,0,0,1,12.159,2.178,34.666,34.666,0,0,0,4.613,1.348,8.971,8.971,0,0,0,6.783-1.593l.083-.056c1.671,2.9,3.737,8.654.276,16.241A16.3,16.3,0,0,1,102,90.189c-.763-2.5-1.909-4.679-3.625-5.417a3.706,3.706,0,0,0-3.672.439C91.332,87.6,89.484,88.715,84.312,88a21.172,21.172,0,0,1-7.994-2.759,2.664,2.664,0,0,0-3.974,1.277,23.084,23.084,0,0,1-3.132,5.177q-.117.153-.234.29C66.668,89.86,62.754,85.121,64.22,78.312Zm7.5,18.437a12.879,12.879,0,0,0,1.707-1.825,34.143,34.143,0,0,0,2.58-3.859,27.719,27.719,0,0,0,7.577,2.193c6.2.859,9.394-.481,12.876-2.809a27.228,27.228,0,0,1,1.294,5.2v6.89c0,6.974-8.753,12.985-13.05,12.985-4.276,0-12.985-6.01-12.985-12.985Zm13.511,33.433a7.287,7.287,0,0,1-7.148-5.425,2.652,2.652,0,0,0-.037-.3v-5.468a15.206,15.206,0,0,0,6.659,1.849,15.453,15.453,0,0,0,6.867-1.951v5.882a7.918,7.918,0,0,1-1.123,2.857,5.756,5.756,0,0,1-5.217,2.56Z" fill="#1d5977"/>
        <path id="Trazado_599448" data-name="Trazado 599448" d="M51.268,101.174a6.56,6.56,0,0,1,4.7,6.286l-.037,12.628a2.655,2.655,0,0,0,2.648,2.662h.007a2.655,2.655,0,0,0,2.655-2.648l.037-12.628a11.9,11.9,0,0,0-8.519-11.4L41.071,92.664l.016-5.851c3.289-3.083,5.1-6.8,5.107-10.535l.013-4.646c1.454-1.349,4.148-4.051,5.277-6.5,5.506-11.986-1.95-20.054-2.27-20.392a2.641,2.641,0,0,0-3.936.092c-.524.6-1.962,1.759-3.065,1.538a24.547,24.547,0,0,1-3.16-.947A31.815,31.815,0,0,0,27.5,43.336h-.1c-10.1,0-16.582,4.231-18.26,11.919-1.883,8.628,3.5,14.307,6.009,16.419l-.012,4.52c-.01,3.791,1.823,7.566,5.167,10.692l-.016,5.732L8.619,95.959A11.9,11.9,0,0,0,.037,107.312L0,139.092a2.655,2.655,0,0,0,2.652,2.658h0A2.655,2.655,0,0,0,5.31,139.1l.037-31.776a6.561,6.561,0,0,1,4.733-6.26l11.245-3.219A10.591,10.591,0,0,0,31,103.778h.036a9.53,9.53,0,0,0,9.18-5.835ZM24.255,83.308c-2.427-2.142-3.816-4.731-3.808-7.1l.013-4.544a11.089,11.089,0,0,0,1.308-1.421,28.992,28.992,0,0,0,1.948-2.849,23.268,23.268,0,0,0,5.958,1.683c4.921.7,7.686-.307,10.4-2.024a24.178,24.178,0,0,1,.823,3.592l-.015,5.619c-.015,5.37-6.989,10.172-10.274,10.165-1.408,0-4.044-1.076-6.358-3.119Zm-9.928-26.92c.418-1.917,1.688-7.741,13.065-7.741h.091a26.5,26.5,0,0,1,9.829,1.789,28.851,28.851,0,0,0,3.847,1.135,7.7,7.7,0,0,0,5.567-1.125c1.252,2.414,2.534,6.8-.068,12.465a10.949,10.949,0,0,1-1.593,2.277c-.747-2.1-1.742-3.42-2.975-3.953a3.508,3.508,0,0,0-3.479.4c-2.668,1.881-4.132,2.759-8.2,2.184a16.951,16.951,0,0,1-6.362-2.208,2.644,2.644,0,0,0-3.976,1.264,18.274,18.274,0,0,1-2.382,3.949,11.162,11.162,0,0,1-3.368-10.437Zm16.7,42.081h-.019a5.528,5.528,0,0,1-5.393-4.092c-.006-.062-.014-.124-.024-.187l.01-3.707A12.383,12.383,0,0,0,30.6,91.737h.022a12.611,12.611,0,0,0,5.149-1.3l-.011,4.045a4.538,4.538,0,0,1-4.729,3.989Z" fill="#1d5977"/>
        <path id="Trazado_599449" data-name="Trazado 599449" d="M161.391,96.077l-9.413-2.75h7.051a2.655,2.655,0,0,0,2.655-2.655V68.285a22.365,22.365,0,1,0-44.73,0V90.673a2.655,2.655,0,0,0,2.655,2.655h6.832l-9.189,2.63a11.9,11.9,0,0,0-8.581,11.349l-.037,12.78a2.655,2.655,0,0,0,2.648,2.661h.007a2.655,2.655,0,0,0,2.655-2.648l.037-12.78a6.561,6.561,0,0,1,4.733-6.26l11.593-3.319c1.019,3.009,3.76,6.035,9.057,6.035a9.333,9.333,0,0,0,6.923-2.6,8.635,8.635,0,0,0,2.037-3.391l11.579,3.382a6.562,6.562,0,0,1,4.7,6.291l-.037,31.78a2.655,2.655,0,0,0,2.652,2.658h0a2.655,2.655,0,0,0,2.655-2.652l.037-31.776a11.9,11.9,0,0,0-8.52-11.4ZM130.324,78.091V72.677a5.059,5.059,0,0,1,1.17-3.031c.983-.971,1.781-1.84,2.429-2.612a16.074,16.074,0,0,0,5.106,4.239,41.047,41.047,0,0,0,9.284,3.558v3.262a8.981,8.981,0,0,1-8.97,8.971h-.048a8.981,8.981,0,0,1-8.97-8.972Zm-8.06-9.807a17.055,17.055,0,1,1,34.111,0V88.017H149.6a14.228,14.228,0,0,0,4.028-9.926V72.677a2.655,2.655,0,0,0-2.268-2.626,33.971,33.971,0,0,1-9.827-3.462,9.842,9.842,0,0,1-4.87-5.37A2.741,2.741,0,0,0,133.9,59.04a2.491,2.491,0,0,0-2.4,2.206,18.119,18.119,0,0,1-3.743,4.625,10.226,10.226,0,0,0-2.747,6.806v5.417a14.229,14.229,0,0,0,4.028,9.926h-6.778ZM143.5,94.978c-.019,1.067-.467,3.49-4.136,3.49-3.717,0-4.194-2.466-4.225-3.539V91.752a14.228,14.228,0,0,0,4.156.619h.048a14.23,14.23,0,0,0,4.156-.619v3.2c0,.032,0,.013,0,.028Z" fill="#1d5977"/>
        <path id="Trazado_599450" data-name="Trazado 599450" d="M56.737,68.313h.076a2.655,2.655,0,0,0,2.653-2.58L59.5,64.4v-.068a6.6,6.6,0,0,1,4.746-6.3L75.76,54.861a8.877,8.877,0,0,0,1.988,3.164,9.7,9.7,0,0,0,7.206,2.7c5.243,0,8.079-2.845,9.256-5.814l11.5,3.228a6.551,6.551,0,0,1,4.48,4.49,2.655,2.655,0,0,0,5.1-1.474,11.824,11.824,0,0,0-6.813-7.654V23.386a23.472,23.472,0,1,0-46.944,0V53.372A11.955,11.955,0,0,0,54.2,64.286l-.037,1.3a2.655,2.655,0,0,0,2.578,2.729ZM94.651,33.744a9.634,9.634,0,0,1-9.624,9.624h-.051a9.634,9.634,0,0,1-9.624-9.624V30.182a43.16,43.16,0,0,0,9.886-3.773A16.815,16.815,0,0,0,90.7,21.828c.7.845,1.579,1.8,2.674,2.887a5.375,5.375,0,0,1,1.281,3.307ZM88.995,53.518c-.712,1.276-2.033,1.9-4.039,1.9-4.04,0-4.505-2.7-4.518-3.825a.364.364,0,0,0,0-.038V47.969a14.878,14.878,0,0,0,4.539.708h.051a14.874,14.874,0,0,0,4.539-.708v3.582A4.909,4.909,0,0,1,88.995,53.518ZM85,5.31a18.14,18.14,0,0,1,18.162,18.076V51.909l-8.286-2.327V44.955a14.9,14.9,0,0,0,5.084-11.21V28.023A10.64,10.64,0,0,0,97.1,20.941c-2.984-2.951-3.823-4.572-3.993-4.951a2.486,2.486,0,0,0-2.379-2.184,2.751,2.751,0,0,0-2.769,2.124,10.516,10.516,0,0,1-5.224,5.793A36.491,36.491,0,0,1,72.311,25.4a2.655,2.655,0,0,0-2.268,2.627v5.721a14.9,14.9,0,0,0,5.086,11.212v4.573L66.84,51.812V23.386A18.14,18.14,0,0,1,85,5.31Z" fill="#1d5977"/>
      </g>
    </g>
  </g>
</svg>
