<svg xmlns="http://www.w3.org/2000/svg" width="105" height="105" viewBox="0 0 105 105">
  <g id="Grupo_876013" data-name="Grupo 876013" transform="translate(-334 -5064)">
    <g id="Grupo_874601" data-name="Grupo 874601" transform="translate(-140.858 2711.142)">
      <circle id="Elipse_4723" data-name="Elipse 4723" cx="52.5" cy="52.5" r="52.5" transform="translate(474.858 2352.858)" fill="#fff"/>
      <path id="Trazado_596604" data-name="Trazado 596604" d="M46.492,0A46.492,46.492,0,1,1,0,46.492,46.492,46.492,0,0,1,46.492,0Z" transform="translate(480.867 2358.867)" fill="#f2f5d1" opacity="0.7"/>
    </g>
    <g id="juventud" transform="translate(322.431 5076)">
      <path id="Trazado_596706" data-name="Trazado 596706" d="M180.63,106.639h-2.557l-.157.168v1.506a2.984,2.984,0,0,1-1.99,2.729c-1.642.847-2.136,5.651.952,7.219l.877.133,6.142-2.377v-3.482Z" transform="translate(-123.35 -89.869)" fill="#365e7d"/>
      <path id="Trazado_596707" data-name="Trazado 596707" d="M180.175,111.043a3.369,3.369,0,0,0,1.861-1.866l-1.406-2.538h-2.557l-.157.168v1.506a2.984,2.984,0,0,1-1.99,2.729c-1.642.847-2.136,5.651.952,7.219l.877.133,2.336-.9C178.191,115.5,178.749,111.778,180.175,111.043Z" transform="translate(-123.35 -89.869)" fill="#2b4d66"/>
      <path id="Trazado_596708" data-name="Trazado 596708" d="M286.146,110.546a2.983,2.983,0,0,1-1.99-2.729v-1.531l-.251-.237h-2.683l-3.081,6.228v3.152l6.34,2.468.59-.179c3.024-1.609,2.7-6.334,1.075-7.173Z" transform="translate(-210.59 -89.373)" fill="#365e7d"/>
      <path id="Trazado_596709" data-name="Trazado 596709" d="M174.143,173.7l-7.546-2.922-.673.3H154.277l-.832-.295-7.528,2.919a6.489,6.489,0,0,0-3.79,5.878v10.593h35.806V179.575A6.468,6.468,0,0,0,174.143,173.7Z" transform="translate(-95.965 -143.919)" fill="#f3ab1d"/>
      <path id="Trazado_596710" data-name="Trazado 596710" d="M301.638,78.5l-.212-.213H298.9v4.426l.139.288h1.907a2.3,2.3,0,0,0,.692-4.5Z" transform="translate(-228.084 -65.972)" fill="#ffcebe"/>
      <path id="Trazado_596711" data-name="Trazado 596711" d="M186.532,78.4v0a2.3,2.3,0,0,0,.619,4.521h1.991l.219-.255V78.2H186.7Z" transform="translate(-131.967 -65.9)" fill="#ffcebe"/>
      <path id="Trazado_596712" data-name="Trazado 596712" d="M301.157,78.283H298.9v4.426l.139.288h1.907c.071,0,.141,0,.211-.011v-4.7Z" transform="translate(-228.085 -65.972)" fill="#ffb1a0"/>
      <path id="Trazado_596713" data-name="Trazado 596713" d="M187.105,80.622A2.3,2.3,0,0,1,188.79,78.4v0l.163-.2H186.7l-.163.2v0a2.3,2.3,0,0,0,.619,4.521h1.991l.013-.015A2.3,2.3,0,0,1,187.105,80.622Z" transform="translate(-131.968 -65.901)" fill="#ffb1a0"/>
      <path id="Trazado_596714" data-name="Trazado 596714" d="M225,147.449a.7.7,0,0,1-.448-.652l0-2.347-.308-.322h-7.084l-.359.336v2.329c0,.536-.478.665-.682.744l-2.024.785a6.911,6.911,0,0,0,13.152,0Z" transform="translate(-156.617 -121.463)" fill="#ffcebe"/>
      <path id="Trazado_596715" data-name="Trazado 596715" d="M220.682,144.128h-3.52l-.359.336v2.329c0,.536-.478.665-.682.744l-2.024.785a6.808,6.808,0,0,0,6.585,4.782Z" transform="translate(-156.617 -121.463)" fill="#ffb1a0"/>
      <path id="Trazado_596716" data-name="Trazado 596716" d="M246.924,59.429H243.9l-2.377-2.954H240.1l-2.2,2.387v6.091a6.974,6.974,0,0,0,4.63,6.582,6.9,6.9,0,0,0,5.1-6.64V60.011Z" transform="translate(-176.677 -47.594)" fill="#ffdecf"/>
      <path id="Trazado_596717" data-name="Trazado 596717" d="M216.366,76.818V70.543l-.84.91h-3.065l-.305.415v4.95a6.8,6.8,0,0,0,6.961,6.792,6.644,6.644,0,0,0,2.052-.317A6.748,6.748,0,0,1,216.366,76.818Z" transform="translate(-154.981 -59.45)" fill="#ffcebe"/>
      <path id="Trazado_596718" data-name="Trazado 596718" d="M204.934,0a9.592,9.592,0,0,0-9.375,9.641V12.5a2.3,2.3,0,0,1,.619-.087h3.792c.235,0,1.557-.108,1.46-.1a4.005,4.005,0,0,0,3.517-3.033.116.116,0,0,1,.225,0,4,4,0,0,0,3.479,3.026c1.2.1,1.213.107,1.429.107h3.777a2.3,2.3,0,0,1,.7.11V9.5A9.5,9.5,0,0,0,204.934,0Z" transform="translate(-140.994)" fill="#365e7d"/>
      <g id="Grupo_874648" data-name="Grupo 874648" transform="translate(54.565 0)">
        <path id="Trazado_596719" data-name="Trazado 596719" d="M199.81,9.642a9.642,9.642,0,0,1,7.382-9.4,9.5,9.5,0,0,0-11.633,9.4V12.5a2.3,2.3,0,0,1,.619-.087h3.631Z" transform="translate(-195.559 0)" fill="#2b4d66"/>
      </g>
      <path id="Trazado_596720" data-name="Trazado 596720" d="M294.559,223.72H292l-.157.168v1.506a2.984,2.984,0,0,1-1.99,2.729c-1.642.847-2.136,5.651.952,7.219l.877.133,6.142-2.377v-3.482Z" transform="translate(-219.363 -188.538)" fill="#365e7d"/>
      <path id="Trazado_596721" data-name="Trazado 596721" d="M294.1,228.124a3.369,3.369,0,0,0,1.861-1.866l-1.406-2.538H292l-.157.168v1.506a2.984,2.984,0,0,1-1.99,2.729c-1.642.847-2.136,5.651.952,7.219l.877.133,2.336-.9C292.12,232.578,292.678,228.859,294.1,228.124Z" transform="translate(-219.363 -188.538)" fill="#2b4d66"/>
      <path id="Trazado_596722" data-name="Trazado 596722" d="M400.075,227.627a2.983,2.983,0,0,1-1.99-2.729v-1.531l-.251-.237h-2.683l-3.081,6.228v3.152l6.34,2.468.59-.179C402.024,233.191,401.7,228.466,400.075,227.627Z" transform="translate(-306.603 -188.042)" fill="#365e7d"/>
      <path id="Trazado_596723" data-name="Trazado 596723" d="M288.072,290.779l-7.546-2.922-.673.3H268.206l-.832-.295-7.528,2.919a6.489,6.489,0,0,0-3.79,5.878v8.19h29.319v-4.509h6.487v-3.68A6.468,6.468,0,0,0,288.072,290.779Z" transform="translate(-191.977 -242.588)" fill="#3185af"/>
      <path id="Trazado_596724" data-name="Trazado 596724" d="M415.568,195.577l-.212-.213H412.83v4.426l.139.288h1.907a2.3,2.3,0,0,0,.691-4.5Z" transform="translate(-324.097 -164.642)" fill="#ffcebe"/>
      <path id="Trazado_596725" data-name="Trazado 596725" d="M300.461,195.483v0a2.3,2.3,0,0,0,.619,4.521h1.991l.219-.255v-4.473h-2.666Z" transform="translate(-227.98 -164.569)" fill="#ffcebe"/>
      <path id="Trazado_596726" data-name="Trazado 596726" d="M415.086,195.364H412.83v4.426l.139.288h1.907c.071,0,.141,0,.211-.011v-4.7Z" transform="translate(-324.097 -164.642)" fill="#ffb1a0"/>
      <path id="Trazado_596727" data-name="Trazado 596727" d="M301.035,197.7a2.3,2.3,0,0,1,1.685-2.217v0l.163-.2h-2.256l-.163.2v0a2.3,2.3,0,0,0,.619,4.521h1.991l.013-.015A2.3,2.3,0,0,1,301.035,197.7Z" transform="translate(-227.981 -164.57)" fill="#ffb1a0"/>
      <path id="Trazado_596728" data-name="Trazado 596728" d="M442.5,366.3v4.653h5.224a1.263,1.263,0,0,0,1.263-1.263V366.3Z" transform="translate(-349.098 -308.7)" fill="#ffcebe"/>
      <path id="Trazado_596729" data-name="Trazado 596729" d="M338.933,264.53a.7.7,0,0,1-.448-.652l0-2.347-.308-.322h-7.084l-.359.336v2.329c0,.536-.478.665-.682.744l-2.024.785a6.911,6.911,0,0,0,13.152,0Z" transform="translate(-252.63 -220.132)" fill="#ffcebe"/>
      <path id="Trazado_596730" data-name="Trazado 596730" d="M334.611,261.209h-3.52l-.359.336v2.329c0,.536-.478.665-.682.744l-2.024.785a6.808,6.808,0,0,0,6.585,4.782Z" transform="translate(-252.63 -220.132)" fill="#ffb1a0"/>
      <path id="Trazado_596731" data-name="Trazado 596731" d="M437.784,349.807v-7.519a1.081,1.081,0,1,0-2.161,0v7.519Z" transform="translate(-343.306 -287.549)" fill="#1e5d7c"/>
      <path id="Trazado_596732" data-name="Trazado 596732" d="M360.854,176.51h-3.026l-2.377-2.954h-1.417l-2.2,2.388v6.091a6.974,6.974,0,0,0,4.63,6.582,6.9,6.9,0,0,0,5.1-6.64v-4.884Z" transform="translate(-272.69 -146.263)" fill="#ffdecf"/>
      <path id="Trazado_596733" data-name="Trazado 596733" d="M330.3,193.9v-6.275l-.84.91H326.39l-.305.415v4.95a6.8,6.8,0,0,0,6.961,6.792,6.644,6.644,0,0,0,2.052-.317A6.748,6.748,0,0,1,330.3,193.9Z" transform="translate(-250.994 -158.119)" fill="#ffcebe"/>
      <path id="Trazado_596734" data-name="Trazado 596734" d="M318.863,117.082a9.592,9.592,0,0,0-9.375,9.641v2.862a2.3,2.3,0,0,1,.619-.087H313.9c.235,0,1.557-.108,1.459-.1a4.005,4.005,0,0,0,3.517-3.033.115.115,0,0,1,.225,0,4,4,0,0,0,3.479,3.026c1.2.1,1.213.107,1.429.107h3.777a2.3,2.3,0,0,1,.7.11v-3.027A9.5,9.5,0,0,0,318.863,117.082Z" transform="translate(-237.007 -98.669)" fill="#365e7d"/>
      <g id="Grupo_874649" data-name="Grupo 874649" transform="translate(72.481 18.412)">
        <path id="Trazado_596735" data-name="Trazado 596735" d="M313.739,126.723a9.642,9.642,0,0,1,7.382-9.4,9.5,9.5,0,0,0-11.633,9.4v2.862a2.3,2.3,0,0,1,.619-.087h3.631Z" transform="translate(-309.488 -117.081)" fill="#2b4d66"/>
      </g>
      <path id="Trazado_596736" data-name="Trazado 596736" d="M186.224,192.423h-.548l-.247-.237H183.97v4.864l.426.223h1.829a2.429,2.429,0,0,0,0-4.851Z" transform="translate(-131.228 -161.963)" fill="#ffcebe"/>
      <path id="Trazado_596737" data-name="Trazado 596737" d="M73.543,192.423a2.429,2.429,0,0,0,0,4.85h1.829l.3-.549v-4.539H73.967Z" transform="translate(-36.228 -161.963)" fill="#ffcebe"/>
      <path id="Trazado_596738" data-name="Trazado 596738" d="M186.375,192.431c-.05,0-.1-.008-.15-.008h-.548l-.247-.237H183.97v4.864l.426.223h1.829c.051,0,.1,0,.15-.008Z" transform="translate(-131.228 -161.963)" fill="#ffb1a0"/>
      <path id="Trazado_596739" data-name="Trazado 596739" d="M73.648,194.848a2.384,2.384,0,0,1,2.025-2.406v-.256H73.967l-.424.237a2.429,2.429,0,0,0,0,4.85h1.829l.038-.069A2.4,2.4,0,0,1,73.648,194.848Z" transform="translate(-36.228 -161.963)" fill="#ffb1a0"/>
      <path id="Trazado_596740" data-name="Trazado 596740" d="M60.271,290.857l-7.452-2.886-.575.276H40.009l-.519-.3-7.445,2.908a6.489,6.489,0,0,0-3.79,5.878v3.3h6.487v4.894H64.061v-8.189A6.468,6.468,0,0,0,60.271,290.857Z" transform="translate(0 -242.667)" fill="#5ad1a5"/>
      <path id="Trazado_596741" data-name="Trazado 596741" d="M33.805,302.433c0-2.2.521-3.713,1.746-4.7l-3.507,1.37a6.489,6.489,0,0,0-3.79,5.878v3.3h5.55C33.805,304.315,33.805,304.235,33.805,302.433Z" transform="translate(0 -250.91)" fill="#4abf94"/>
      <path id="Trazado_596742" data-name="Trazado 596742" d="M34.743,363.857H28.256v3.775a1.263,1.263,0,0,0,1.263,1.263h5.224v-5.038Z" transform="translate(-0.001 -306.638)" fill="#ffb1a0"/>
      <path id="Trazado_596743" data-name="Trazado 596743" d="M110.687,263.887a.7.7,0,0,1-.448-.652l0-2.3-.476-.486h-6.844l-.431.476v2.309a.644.644,0,0,1-.3.567l-2.491.973a7.046,7.046,0,0,0,13.33.022l-2.339-.906Z" transform="translate(-60.207 -219.489)" fill="#ffcebe"/>
      <path id="Trazado_596744" data-name="Trazado 596744" d="M106.362,260.446h-3.444l-.431.476v2.309a.644.644,0,0,1-.3.567l-2.491.973a6.927,6.927,0,0,0,6.665,4.767Z" transform="translate(-60.207 -219.489)" fill="#ffb1a0"/>
      <path id="Trazado_596745" data-name="Trazado 596745" d="M64.793,349.807v-7.519a1.081,1.081,0,1,0-2.161,0v7.519Z" transform="translate(-28.971 -287.549)" fill="#4abf94"/>
      <path id="Trazado_596746" data-name="Trazado 596746" d="M137.723,177.8l-.575-.384-.432-1.873h-.841l-3.506,2.546h-3.106l-.262.422v5.07a7.023,7.023,0,0,0,4.432,6.54,6.921,6.921,0,0,0,4.637-6.524v-5.011Z" transform="translate(-84.904 -147.936)" fill="#ffdecf"/>
      <g id="Grupo_874650" data-name="Grupo 874650" transform="translate(39.148 30.151)">
        <path id="Trazado_596747" data-name="Trazado 596747" d="M102.576,197.236V192.28l.342-.552H97.864l-.342.552v4.956a7.078,7.078,0,0,0,9.559,6.46A6.865,6.865,0,0,1,102.576,197.236Z" transform="translate(-97.522 -191.728)" fill="#ffcebe"/>
      </g>
      <path id="Trazado_596748" data-name="Trazado 596748" d="M95.453,120.275a1.29,1.29,0,0,1-1.393-1.014c-.214-1.095-.756-2.181-2.873-2.181H83.843a4.88,4.88,0,0,0-4.88,4.88v5.356a2.055,2.055,0,0,0,2.055,2.055h8.335a4.878,4.878,0,0,0,4.3-2.582.13.13,0,0,1,.245.062,2.527,2.527,0,0,0,2.52,2.52,1.325,1.325,0,0,0,1.321-1.321v-5.589a2.189,2.189,0,0,0-2.29-2.186Z" transform="translate(-42.734 -98.668)" fill="#365e7d"/>
      <g id="Grupo_874651" data-name="Grupo 874651" transform="translate(36.229 18.412)">
        <path id="Trazado_596749" data-name="Trazado 596749" d="M83.106,127.317v-5.356a4.88,4.88,0,0,1,4.88-4.88H83.844a4.88,4.88,0,0,0-4.88,4.88v5.356a2.055,2.055,0,0,0,2.055,2.055h4.142A2.055,2.055,0,0,1,83.106,127.317Z" transform="translate(-78.964 -117.081)" fill="#2b4d66"/>
      </g>
      <g id="Grupo_874654" data-name="Grupo 874654" transform="translate(46.162 37.055)">
        <path id="Trazado_596750" data-name="Trazado 596750" d="M300.1,310.977h-.548l-.247-.237h-1.459V315.6l.426.223H300.1a2.429,2.429,0,0,0,0-4.851Z" transform="translate(-273.355 -298.929)" fill="#ffcebe"/>
        <path id="Trazado_596751" data-name="Trazado 596751" d="M187.416,310.977a2.429,2.429,0,0,0,0,4.85h1.829l.3-.549V310.74H187.84Z" transform="translate(-178.356 -298.929)" fill="#ffcebe"/>
        <path id="Trazado_596752" data-name="Trazado 596752" d="M300.247,310.985c-.05,0-.1-.008-.15-.008h-.548l-.247-.237h-1.459V315.6l.426.223H300.1c.051,0,.1,0,.15-.008Z" transform="translate(-273.355 -298.929)" fill="#ffb1a0"/>
        <path id="Trazado_596753" data-name="Trazado 596753" d="M187.52,313.4A2.384,2.384,0,0,1,189.545,311v-.256h-1.706l-.424.237a2.429,2.429,0,0,0,0,4.85h1.829l.038-.069A2.4,2.4,0,0,1,187.52,313.4Z" transform="translate(-178.355 -298.929)" fill="#ffb1a0"/>
        <path id="Trazado_596754" data-name="Trazado 596754" d="M174.143,409.411l-7.452-2.886-.575.276H153.881l-.519-.3-7.445,2.908a6.489,6.489,0,0,0-3.79,5.878v3.3h6.487v4.509h22.832v-4.509h6.487v-3.3A6.468,6.468,0,0,0,174.143,409.411Z" transform="translate(-142.127 -379.632)" fill="#80b4fb"/>
        <path id="Trazado_596755" data-name="Trazado 596755" d="M147.677,420.987c0-2.2.521-3.713,1.746-4.7l-3.507,1.37a6.489,6.489,0,0,0-3.79,5.878v3.3h5.55c0-3.958,0-4.038,0-5.84Z" transform="translate(-142.127 -387.875)" fill="#61a2f9"/>
        <path id="Trazado_596756" data-name="Trazado 596756" d="M148.615,482.411h-6.487v3.39a1.263,1.263,0,0,0,1.263,1.263h5.224Z" transform="translate(-142.128 -443.603)" fill="#ffb1a0"/>
        <path id="Trazado_596757" data-name="Trazado 596757" d="M328.566,482.411v4.653h5.224a1.263,1.263,0,0,0,1.263-1.263v-3.39Z" transform="translate(-299.247 -443.603)" fill="#ffcebe"/>
        <path id="Trazado_596758" data-name="Trazado 596758" d="M224.559,382.441a.7.7,0,0,1-.448-.652l0-2.3-.476-.486h-6.844l-.431.476v2.309a.645.645,0,0,1-.3.567l-2.491.973a7.047,7.047,0,0,0,13.33.022Z" transform="translate(-202.333 -356.455)" fill="#ffcebe"/>
        <path id="Trazado_596759" data-name="Trazado 596759" d="M220.234,379H216.79l-.431.476v2.309a.645.645,0,0,1-.3.567l-2.491.973a6.928,6.928,0,0,0,6.665,4.767Z" transform="translate(-202.334 -356.455)" fill="#ffb1a0"/>
        <path id="Trazado_596760" data-name="Trazado 596760" d="M178.665,467.976v-7.134a1.081,1.081,0,0,0-2.161,0v7.134Z" transform="translate(-171.098 -424.515)" fill="#61a2f9"/>
        <path id="Trazado_596761" data-name="Trazado 596761" d="M323.855,467.976v-7.134a1.081,1.081,0,0,0-2.161,0v7.134Z" transform="translate(-293.456 -424.515)" fill="#61a2f9"/>
        <path id="Trazado_596762" data-name="Trazado 596762" d="M251.6,296.352l-.575-.384-.432-1.873h-.841l-3.506,2.546h-3.106l-.262.422v5.07a7.023,7.023,0,0,0,4.432,6.54,6.921,6.921,0,0,0,4.637-6.524v-5.011Z" transform="translate(-227.031 -284.902)" fill="#ffdecf"/>
        <g id="Grupo_874652" data-name="Grupo 874652" transform="translate(10.893 11.739)">
          <path id="Trazado_596763" data-name="Trazado 596763" d="M216.448,315.79v-4.956l.342-.552h-5.054l-.342.552v4.956a7.078,7.078,0,0,0,9.559,6.46A6.865,6.865,0,0,1,216.448,315.79Z" transform="translate(-211.394 -310.282)" fill="#ffcebe"/>
        </g>
        <path id="Trazado_596764" data-name="Trazado 596764" d="M209.325,238.829a1.29,1.29,0,0,1-1.393-1.014c-.214-1.095-.756-2.181-2.873-2.181h-7.344a4.88,4.88,0,0,0-4.88,4.88v5.356a2.055,2.055,0,0,0,2.055,2.055h8.335a4.878,4.878,0,0,0,4.3-2.582.13.13,0,0,1,.245.062,2.527,2.527,0,0,0,2.52,2.52,1.325,1.325,0,0,0,1.321-1.321v-5.589a2.189,2.189,0,0,0-2.29-2.186Z" transform="translate(-184.861 -235.634)" fill="#365e7d"/>
        <g id="Grupo_874653" data-name="Grupo 874653" transform="translate(7.974 0)">
          <path id="Trazado_596765" data-name="Trazado 596765" d="M196.979,245.872v-5.356a4.88,4.88,0,0,1,4.88-4.88h-4.142a4.88,4.88,0,0,0-4.88,4.88v5.356a2.055,2.055,0,0,0,2.055,2.055h4.143A2.055,2.055,0,0,1,196.979,245.872Z" transform="translate(-192.836 -235.636)" fill="#2b4d66"/>
        </g>
      </g>
    </g>
  </g>
</svg>
