<svg xmlns="http://www.w3.org/2000/svg" xmlns:xlink="http://www.w3.org/1999/xlink" width="190" height="170" viewBox="0 0 190 170">
  <defs>
    <clipPath id="clip-path">
      <rect id="Rect치ngulo_292009" data-name="Rect치ngulo 292009" width="190" height="170" transform="translate(1483 -12927.429)" fill="#1d5977"/>
    </clipPath>
  </defs>
  <g id="Grupo_876148" data-name="Grupo 876148" transform="translate(-1483 13273.979)">
    <rect id="Rect치ngulo_292039" data-name="Rect치ngulo 292039" width="134" height="134" transform="translate(1539 -13273.979)" fill="#fff"/>
    <g id="Enmascarar_grupo_78" data-name="Enmascarar grupo 78" transform="translate(0 -346.551)" clip-path="url(#clip-path)">
      <g id="publicidad-digital" transform="translate(1493 -12927.429)">
        <g id="Grupo_875651" data-name="Grupo 875651">
          <g id="Grupo_875650" data-name="Grupo 875650">
            <path id="Trazado_599451" data-name="Trazado 599451" d="M83.463,143.7a3.318,3.318,0,1,0,.973,2.347A3.346,3.346,0,0,0,83.463,143.7Z" fill="#1d5977"/>
          </g>
        </g>
        <g id="Grupo_875653" data-name="Grupo 875653">
          <g id="Grupo_875652" data-name="Grupo 875652">
            <path id="Trazado_599452" data-name="Trazado 599452" d="M99.271,113.069V88.638a3.32,3.32,0,0,0-4.561-3.08L37.5,108.6H19.07a19.07,19.07,0,0,0,0,38.14h2.194v19.939a3.32,3.32,0,0,0,3.32,3.32H38.14a3.32,3.32,0,0,0,3.32-3.32V148.342L94.712,169.76a3.32,3.32,0,0,0,4.559-3.08V142.249a14.962,14.962,0,0,0,0-29.179Zm-64.452,50.29H27.906V146.74H34.82v16.619Zm0-23.26H19.071a12.429,12.429,0,1,1,0-24.859H34.821Zm57.811,21.666h0l-51.169-20.58V114.162L77.8,99.529V132.48a3.32,3.32,0,1,0,6.641,0V96.855l8.2-3.3Zm6.64-26.474V120.027a8.321,8.321,0,0,1,0,15.263Z" fill="#1d5977"/>
          </g>
        </g>
        <g id="Grupo_875655" data-name="Grupo 875655">
          <g id="Grupo_875654" data-name="Grupo 875654">
            <path id="Trazado_599453" data-name="Trazado 599453" d="M142.592,124.437h-18.8a3.32,3.32,0,1,0,0,6.641h18.8a3.32,3.32,0,1,0,0-6.641Z" fill="#1d5977"/>
          </g>
        </g>
        <g id="Grupo_875657" data-name="Grupo 875657">
          <g id="Grupo_875656" data-name="Grupo 875656">
            <path id="Trazado_599454" data-name="Trazado 599454" d="M127.174,100.107a3.321,3.321,0,0,0-4.7,0l-6.485,6.485a3.321,3.321,0,0,0,4.7,4.7l6.485-6.485A3.321,3.321,0,0,0,127.174,100.107Z" fill="#1d5977"/>
          </g>
        </g>
        <g id="Grupo_875659" data-name="Grupo 875659">
          <g id="Grupo_875658" data-name="Grupo 875658">
            <path id="Trazado_599455" data-name="Trazado 599455" d="M127.418,150.4l-6.7-6.7a3.321,3.321,0,1,0-4.7,4.7l6.7,6.7a3.32,3.32,0,0,0,4.7-4.7Z" fill="#1d5977"/>
          </g>
        </g>
        <g id="Grupo_875661" data-name="Grupo 875661">
          <g id="Grupo_875660" data-name="Grupo 875660">
            <path id="Trazado_599456" data-name="Trazado 599456" d="M156.719,0H94.961A13.3,13.3,0,0,0,81.68,13.281v1.328H25.9a7.978,7.978,0,0,0-7.969,7.969V75.039A7.978,7.978,0,0,0,25.9,83.008H29.33V93.19A3.32,3.32,0,0,0,35,95.538l12.53-12.53h65.954a7.978,7.978,0,0,0,7.969-7.969V65.078h35.268A13.3,13.3,0,0,0,170,51.8V13.281A13.3,13.3,0,0,0,156.719,0ZM114.81,75.039a1.329,1.329,0,0,1-1.328,1.328H46.153a3.321,3.321,0,0,0-2.348.973l-7.834,7.835V79.687a3.32,3.32,0,0,0-3.32-3.32H25.9a1.329,1.329,0,0,1-1.328-1.328V22.578A1.329,1.329,0,0,1,25.9,21.25H81.68V51.8A13.3,13.3,0,0,0,94.961,65.078H114.81ZM163.359,51.8a6.648,6.648,0,0,1-6.641,6.641H94.961A6.648,6.648,0,0,1,88.32,51.8V13.281a6.648,6.648,0,0,1,6.641-6.641h61.758a6.648,6.648,0,0,1,6.641,6.641Z" fill="#1d5977"/>
          </g>
        </g>
        <g id="Grupo_875663" data-name="Grupo 875663">
          <g id="Grupo_875662" data-name="Grupo 875662">
            <path id="Trazado_599457" data-name="Trazado 599457" d="M139.179,29.664l-22.724-13.12a3.32,3.32,0,0,0-4.98,2.875V45.659a3.32,3.32,0,0,0,4.98,2.875l22.724-13.12a3.32,3.32,0,0,0,0-5.75ZM118.115,39.908V25.17l12.763,7.369Z" fill="#1d5977"/>
          </g>
        </g>
        <g id="Grupo_875665" data-name="Grupo 875665">
          <g id="Grupo_875664" data-name="Grupo 875664">
            <path id="Trazado_599458" data-name="Trazado 599458" d="M71.225,34.863h-33.2a3.32,3.32,0,0,0,0,6.641h33.2a3.32,3.32,0,0,0,0-6.641Z" fill="#1d5977"/>
          </g>
        </g>
        <g id="Grupo_875667" data-name="Grupo 875667">
          <g id="Grupo_875666" data-name="Grupo 875666">
            <path id="Trazado_599459" data-name="Trazado 599459" d="M73.572,54.43a3.318,3.318,0,1,0,.973,2.347A3.344,3.344,0,0,0,73.572,54.43Z" fill="#1d5977"/>
          </g>
        </g>
        <g id="Grupo_875669" data-name="Grupo 875669">
          <g id="Grupo_875668" data-name="Grupo 875668">
            <path id="Trazado_599460" data-name="Trazado 599460" d="M58.77,53.457H38.021a3.32,3.32,0,1,0,0,6.641H58.77a3.32,3.32,0,0,0,0-6.641Z" fill="#1d5977"/>
          </g>
        </g>
      </g>
    </g>
  </g>
</svg>
